<svg width="512" height="513" viewBox="0 0 512 513" fill="none" xmlns="http://www.w3.org/2000/svg">
<g clip-path="url(#clip0_654_8587)">
<path d="M285.7 448.202C409.329 448.202 509.551 347.98 509.551 224.351C509.551 100.722 409.329 0.5 285.7 0.5C162.07 0.5 61.8486 100.722 61.8486 224.351C61.8486 347.98 162.07 448.202 285.7 448.202Z" fill="#FF4277"/>
<path d="M425.829 49.7949C456.444 87.8839 474.863 136.193 475.121 188.803C475.725 311.94 375.65 413.102 252.514 413.771C241.949 413.828 231.553 413.153 221.374 411.793C216.682 411.166 213.341 406.959 213.772 402.244C213.905 400.787 213.974 399.312 213.974 397.82C213.974 390.986 212.551 384.481 209.984 378.58C212.55 372.68 213.974 366.174 213.974 359.34C213.974 345.039 207.74 332.168 197.845 323.301C197.886 322.492 197.906 321.678 197.906 320.859C197.906 294.175 176.197 272.467 149.515 272.467C149.515 272.467 100.072 272.465 67.0498 272.464C69.2388 282.456 72.1038 292.193 75.5778 301.636L169.736 415.848C174.522 418.753 179.427 421.48 184.439 424.028L185.961 424.802C217.084 440.321 252.328 448.806 289.615 448.169C411.401 446.088 509.669 345.934 509.552 224.13C509.483 153.635 476.819 90.7809 425.829 49.7949Z" fill="#B80E3E"/>
<path d="M241.555 169.205L216.262 141.103L191.666 133.271L157.96 145.653L141.778 169.204C141.724 170.155 141.69 171.112 141.69 172.077C141.69 199.678 164.065 222.053 191.666 222.053C219.267 222.053 241.642 199.678 241.642 172.077C241.643 171.114 241.609 170.157 241.555 169.205Z" fill="#EAF6FF"/>
<path d="M191.668 190.483C201.833 190.483 210.074 180.088 210.074 167.266C210.074 154.443 201.833 144.049 191.668 144.049C181.502 144.049 173.262 154.443 173.262 167.266C173.262 180.088 181.502 190.483 191.668 190.483Z" fill="#321330"/>
<path d="M192.002 153.673C211.694 153.673 229.092 159.446 241.555 169.205C240.065 142.942 218.303 122.102 191.667 122.102C165.031 122.102 143.269 142.942 141.779 169.205C154.241 159.446 172.31 153.673 192.002 153.673Z" fill="#8E1A3B"/>
<path d="M407.413 145.653L379.733 133.271L348.531 144.049L329.845 169.205C329.791 170.156 329.757 171.113 329.757 172.078C329.757 199.679 352.132 222.054 379.733 222.054C407.334 222.054 429.709 199.679 429.709 172.078C429.709 171.113 429.675 170.156 429.621 169.205L407.413 145.653Z" fill="#EAF6FF"/>
<path d="M379.733 190.483C389.899 190.483 398.139 180.088 398.139 167.266C398.139 154.443 389.899 144.049 379.733 144.049C369.568 144.049 361.327 154.443 361.327 167.266C361.327 180.088 369.568 190.483 379.733 190.483Z" fill="#321330"/>
<path d="M379.398 153.673C359.706 153.673 342.308 159.446 329.845 169.205C331.335 142.942 353.097 122.102 379.733 122.102C406.369 122.102 428.131 142.942 429.621 169.205C417.159 159.446 399.09 153.673 379.398 153.673Z" fill="#8E1A3B"/>
<path d="M107.798 455.539H108.668V301.621L43.2202 301.615C20.7062 301.614 2.45324 319.864 2.45224 342.378L2.44824 414.766C2.44724 437.28 20.6982 455.532 43.2112 455.532H46.2742C48.5592 455.532 50.6622 456.78 51.7572 458.785L75.3072 501.916C80.0632 510.626 90.4152 514.626 99.7922 511.376C110.394 507.702 116.011 496.129 112.336 485.526L103.859 461.066C102.923 458.361 104.934 455.538 107.798 455.539Z" fill="#FF4277"/>
<path d="M154.667 340.099H108.67C98.0437 340.099 89.4297 331.485 89.4297 320.859C89.4297 310.233 98.0437 301.619 108.67 301.619H154.667C165.293 301.619 173.907 310.233 173.907 320.859C173.907 331.485 165.293 340.099 154.667 340.099Z" fill="#FF779E"/>
<path d="M170.735 378.582H108.67C98.0437 378.582 89.4297 369.968 89.4297 359.342C89.4297 348.716 98.0437 340.102 108.67 340.102H170.735C181.361 340.102 189.975 348.716 189.975 359.342C189.975 369.968 181.361 378.582 170.735 378.582Z" fill="#FF779E"/>
<path d="M170.735 417.06H108.67C98.0437 417.06 89.4297 408.446 89.4297 397.82C89.4297 387.194 98.0437 378.58 108.67 378.58H170.735C181.361 378.58 189.975 387.194 189.975 397.82C189.975 408.446 181.361 417.06 170.735 417.06Z" fill="#FF779E"/>
<path d="M170.735 455.539H108.67C98.0437 455.539 89.4297 446.925 89.4297 436.299C89.4297 425.673 98.0437 417.059 108.67 417.059H170.735C181.361 417.059 189.975 425.673 189.975 436.299C189.975 446.926 181.361 455.539 170.735 455.539Z" fill="#FF779E"/>
<path d="M364.733 309.115C362.814 309.115 360.894 308.383 359.429 306.918C318.775 266.263 252.622 266.263 211.968 306.918C209.038 309.847 204.29 309.847 201.361 306.918C198.432 303.989 198.432 299.24 201.361 296.312C247.865 249.808 323.533 249.808 370.037 296.312C372.966 299.241 372.966 303.99 370.037 306.918C368.572 308.383 366.652 309.115 364.733 309.115Z" fill="#321330"/>
</g>
<defs>
<clipPath id="clip0_654_8587">
<rect width="512" height="512" fill="white" transform="translate(0 0.5)"/>
</clipPath>
</defs>
</svg>
