<svg id="Capa_1" enable-background="new 0 0 512 512" viewBox="0 0 512 512" xmlns="http://www.w3.org/2000/svg"><g><g><g><g><circle cx="285.699" cy="223.851" fill="#ffd15b" r="223.851"/></g><g><path d="m425.828 49.295c30.615 38.089 49.034 86.398 49.292 139.008.604 123.137-99.471 224.299-222.607 224.968-10.565.057-20.961-.618-31.14-1.978-4.692-.627-8.033-4.834-7.602-9.549.133-1.457.202-2.932.202-4.424 0-6.834-1.423-13.339-3.99-19.24 2.566-5.9 3.99-12.406 3.99-19.24 0-14.301-6.234-27.172-16.129-36.039.041-.809.061-1.623.061-2.442 0-26.684-21.709-48.392-48.391-48.392 0 0-49.443-.002-82.465-.003 2.189 9.992 5.054 19.729 8.528 29.172l94.158 114.212c4.786 2.905 9.691 5.632 14.703 8.18l1.522.774c31.123 15.519 66.367 24.004 103.654 23.367 121.786-2.081 220.054-102.235 219.937-224.039-.069-70.495-32.733-133.349-83.723-174.335z" fill="#ffc344"/></g></g><g><g><g><path d="m241.555 168.705-25.293-28.102-24.596-7.832-33.706 12.382-16.182 23.551c-.054.951-.088 1.908-.088 2.873 0 27.601 22.375 49.976 49.976 49.976s49.976-22.375 49.976-49.976c.001-.963-.033-1.92-.087-2.872z" fill="#eaf6ff"/></g><g><ellipse cx="191.667" cy="166.767" fill="#7a6d79" rx="18.406" ry="23.217"/></g><g><path d="m192.002 153.173c19.692 0 37.09 5.773 49.553 15.532-1.49-26.263-23.252-47.103-49.888-47.103s-48.398 20.84-49.888 47.103c12.462-9.759 30.531-15.532 50.223-15.532z" fill="#feb237"/></g></g><g><g><path d="m407.412 145.154-27.68-12.382-31.202 10.778-18.686 25.156c-.054.951-.088 1.908-.088 2.873 0 27.601 22.375 49.976 49.976 49.976s49.976-22.375 49.976-49.976c0-.965-.034-1.922-.088-2.873z" fill="#eaf6ff"/></g><g><ellipse cx="379.732" cy="166.767" fill="#7a6d79" rx="18.406" ry="23.217"/></g><g><path d="m379.397 153.173c-19.692 0-37.09 5.773-49.553 15.532 1.49-26.263 23.252-47.103 49.888-47.103s48.398 20.84 49.888 47.103c-12.462-9.759-30.531-15.532-50.223-15.532z" fill="#feb237"/></g></g></g><g><g><path d="m107.798 455.039h.87v-153.918l-65.448-.006c-22.514-.001-40.767 18.249-40.768 40.763l-.004 72.388c-.001 22.514 18.25 40.766 40.763 40.766h3.063c2.285 0 4.388 1.248 5.483 3.253l23.55 43.131c4.756 8.71 15.108 12.71 24.485 9.46 10.602-3.674 16.219-15.247 12.544-25.85l-8.477-24.46c-.936-2.705 1.075-5.528 3.939-5.527z" fill="#ffd15b"/></g><g><path d="m154.666 339.599h-45.997c-10.626 0-19.24-8.614-19.24-19.24 0-10.626 8.614-19.24 19.24-19.24h45.997c10.626 0 19.24 8.614 19.24 19.24 0 10.626-8.614 19.24-19.24 19.24z" fill="#ffe177"/></g><g><path d="m170.734 378.081h-62.065c-10.626 0-19.24-8.614-19.24-19.24 0-10.626 8.614-19.24 19.24-19.24h62.065c10.626 0 19.24 8.614 19.24 19.24 0 10.626-8.614 19.24-19.24 19.24z" fill="#ffe177"/></g><g><path d="m170.734 416.56h-62.065c-10.626 0-19.24-8.614-19.24-19.24 0-10.626 8.614-19.24 19.24-19.24h62.065c10.626 0 19.24 8.614 19.24 19.24 0 10.626-8.614 19.24-19.24 19.24z" fill="#ffe177"/></g><g><path d="m170.734 455.039h-62.065c-10.626 0-19.24-8.614-19.24-19.24 0-10.626 8.614-19.24 19.24-19.24h62.065c10.626 0 19.24 8.614 19.24 19.24 0 10.627-8.614 19.24-19.24 19.24z" fill="#ffe177"/></g></g></g><g><g><path d="m364.733 308.615c-1.919 0-3.839-.732-5.304-2.197-40.654-40.655-106.807-40.655-147.461 0-2.93 2.929-7.678 2.929-10.607 0s-2.929-7.678 0-10.606c46.504-46.504 122.172-46.504 168.676 0 2.929 2.929 2.929 7.678 0 10.606-1.465 1.465-3.385 2.197-5.304 2.197z" fill="#f6ab31"/></g></g></g><g/><g/><g/><g/><g/><g/><g/><g/><g/><g/><g/><g/><g/><g/><g/></svg>