<svg id="Capa_1" enable-background="new 0 0 512 512" viewBox="0 0 512 512" xmlns="http://www.w3.org/2000/svg"><g><g><g><g><circle cx="289.827" cy="235.187" fill="#ffd15b" r="222.173"/></g><g><path d="m289.827 13.013c-111.305 0-203.49 81.85-219.656 188.643l.002.007 11.127 98.109 52.714 90.86 15.986 12.576 16.593 16.857c35.266 23.554 77.643 37.295 123.234 37.295 122.703.001 222.173-99.47 222.173-222.173s-99.47-222.174-222.173-222.174z" fill="#ffd15b"/></g><g><path d="m425.573 59.311c29.02 37.543 46.298 84.624 46.298 135.747 0 122.703-99.47 222.174-222.173 222.174-18.84 0-37.128-2.354-54.595-6.77-.979-6.398-3.037-12.527-6.107-18.151 4.317-7.918 6.773-16.992 6.773-26.628s-2.456-18.71-6.773-26.628c4.25-7.785 6.591-16.527 6.763-25.626.283-14.927-5.384-29.082-15.958-39.859-10.607-10.809-25.343-17.009-40.431-17.009h-19.282l-1.996-32.478c-1.514-24.622-18.815-44.797-41.651-50.925-2.692 9.276-4.789 18.803-6.264 28.535l11.123 98.079 52.714 90.86 15.986 12.576 16.593 16.857c35.266 23.554 77.643 37.295 123.234 37.295 122.703.001 222.173-99.47 222.173-222.173 0-71.58-33.86-135.243-86.427-175.876z" fill="#ffc344"/></g></g><g><g><g><circle cx="206.247" cy="208.206" fill="#eaf6ff" r="49.951"/></g><g><circle cx="206.247" cy="208.206" fill="#7a6d79" r="17.691"/></g></g><g><g><circle cx="373.406" cy="208.206" fill="#eaf6ff" r="49.951"/></g><g><circle cx="373.406" cy="208.206" fill="#7a6d79" r="17.691"/></g></g></g><g><path d="m366.942 296.143c8.851 0 15.439 8.05 13.845 16.751-7.874 43.076-45.603 75.724-90.96 75.724s-83.086-32.648-90.96-75.724c-1.594-8.701 4.994-16.751 13.845-16.751z" fill="#f37c7c"/></g><g><g><g><path d="m29.674 308.819 5.098-82.948c.881-14.33 12.76-25.502 27.117-25.502 14.358 0 26.237 11.171 27.117 25.502l5.098 82.948z" fill="#ffd15b"/></g><g><path d="m148.405 383.593 15.544-6.25c1.716-3.523 2.681-7.479 2.681-11.661 0-14.724-11.936-26.661-26.661-26.661h.012l8.048-10.192 15.917-4.808c1.646-3.378 2.603-7.153 2.679-11.145.283-14.944-12.309-27.176-27.256-27.176h-102.929c-20.125 0-36.44 16.315-36.44 36.44v140.407c0 20.125 16.315 36.44 36.44 36.44h91.82c14.947 0 27.54-12.232 27.256-27.176-.275-14.486-12.104-26.145-26.656-26.145h10.508c14.947 0 27.54-12.232 27.256-27.176-.275-14.486-12.104-26.145-26.656-26.145h.005z" fill="#ffe177"/></g></g></g></g><g><g><path d="m419.471 138.644c-1.92 0-3.839-.732-5.304-2.197-10.888-10.888-25.363-16.884-40.761-16.884s-29.874 5.996-40.762 16.884c-2.931 2.93-7.679 2.929-10.607 0s-2.929-7.678 0-10.606c13.722-13.721 31.965-21.277 51.369-21.277s37.647 7.556 51.368 21.277c2.929 2.929 2.929 7.678 0 10.606-1.464 1.465-3.384 2.197-5.303 2.197z" fill="#f6ab31"/></g><g><path d="m252.312 138.644c-1.92 0-3.839-.732-5.304-2.197-10.888-10.888-25.363-16.884-40.761-16.884s-29.873 5.996-40.761 16.884c-2.93 2.929-7.678 2.929-10.607 0s-2.929-7.678 0-10.606c13.721-13.721 31.964-21.277 51.368-21.277s37.647 7.556 51.368 21.277c2.929 2.929 2.929 7.678 0 10.606-1.465 1.465-3.385 2.197-5.303 2.197z" fill="#f6ab31"/></g><g><g><path d="m111.703 377.343c-4.143 0-7.5 3.358-7.5 7.5s3.357 7.5 7.5 7.5h28.271c10.54-.002 19.649-6.121 23.975-15z" fill="#ffd15b"/></g><g><path d="m111.703 430.665c-4.143 0-7.5 3.358-7.5 7.5s3.357 7.5 7.5 7.5h17.157 10.508c10.575 0 19.964-6.126 24.456-15z" fill="#ffd15b"/></g><g><path d="m104.203 331.521c0 4.142 3.357 7.5 7.5 7.5h28.278c10.537-.005 19.64-6.124 23.965-15h-52.243c-4.142 0-7.5 3.358-7.5 7.5z" fill="#ffd15b"/></g></g></g></g><g/><g/><g/><g/><g/><g/><g/><g/><g/><g/><g/><g/><g/><g/><g/></svg>