<svg width="512" height="513" viewBox="0 0 512 513" fill="none" xmlns="http://www.w3.org/2000/svg">
<g clip-path="url(#clip0_654_8695)">
<path d="M429.317 474.955C449.808 474.955 463.909 454.152 456.074 435.218C448.984 418.085 438.34 405.596 451.334 376.474C474.295 325.015 461.936 297.724 441.62 264.684C407.179 208.672 432.359 180.064 418.967 131.542C370.744 -43.1751 95.6712 -43.1861 47.4442 131.542C34.0512 180.064 59.2322 208.671 24.7912 264.684C4.47521 297.724 -7.88379 325.015 15.0772 376.474C28.0712 405.596 17.4272 418.086 10.3372 435.218C2.50221 454.152 16.6032 474.955 37.0942 474.955H429.317Z" fill="#5F211E"/>
<path d="M451.334 376.473C474.295 325.014 461.936 297.723 441.62 264.683C407.179 208.67 432.359 180.063 418.967 131.541C393.317 38.6093 303.486 -4.89567 217.75 1.03333C293.204 6.25033 365.488 49.7543 388.062 131.541C401.455 180.063 376.274 208.671 410.715 264.683C431.031 297.723 443.39 325.014 420.429 376.473C407.435 405.595 418.079 418.085 425.169 435.217C433.004 454.151 418.903 474.954 398.412 474.954H429.317C449.808 474.954 463.909 454.15 456.074 435.217C448.984 418.084 438.34 405.594 451.334 376.473Z" fill="#280808"/>
<path d="M373.544 302.992C390.829 302.992 404.842 288.914 404.842 271.548C404.842 254.181 390.829 240.104 373.544 240.104C356.258 240.104 342.246 254.181 342.246 271.548C342.246 288.914 356.258 302.992 373.544 302.992Z" fill="#CD7C46"/>
<path d="M92.8668 302.992C110.152 302.992 124.165 288.914 124.165 271.548C124.165 254.181 110.152 240.104 92.8668 240.104C75.5814 240.104 61.5688 254.181 61.5688 271.548C61.5688 288.914 75.5814 302.992 92.8668 302.992Z" fill="#CD7C46"/>
<path d="M400.758 512.501C452.213 512.501 493.925 470.789 493.925 419.334V291.184H432.582V387.583C432.582 428.819 376.966 445.371 354.438 410.728C328.715 371.172 284.125 345.013 233.425 345.013H232.986C153.32 345.013 88.7383 409.595 88.7383 489.261V512.501H400.758Z" fill="#F85221"/>
<path d="M323.533 410.729C335.422 429.012 356.526 433.036 373.808 426.698C366.341 423.796 359.541 418.576 354.438 410.729C328.715 371.173 284.126 345.014 233.425 345.014H232.986C227.842 345.014 222.761 345.284 217.756 345.809C262.078 350.463 300.421 375.188 323.533 410.729Z" fill="#EE1F1F"/>
<path d="M463.019 291.184V419.334C463.019 470.789 421.307 512.501 369.852 512.501H400.757C452.212 512.501 493.924 470.789 493.924 419.334V291.184H463.019Z" fill="#EE1F1F"/>
<path d="M233.262 455.027H233.151C212.941 455.027 196.557 438.643 196.557 418.433V359.207H269.855V418.433C269.856 438.643 253.472 455.027 233.262 455.027Z" fill="#ED9959"/>
<path d="M158.549 100.938C153.916 148.07 129.984 153.321 115.206 158.447C108.12 160.905 103.388 167.627 103.388 175.158V264.274C103.388 336.304 161.509 394.695 233.206 394.695C304.902 394.695 363.024 336.303 363.024 264.274V181.368C363.024 171.331 354.728 163.387 344.741 163.681C329.111 164.14 303.157 164.258 283.049 144.349C257.416 118.97 242.59 128.006 215.839 127.395C182.394 126.631 168.554 111.049 162.944 100.098C161.873 98.011 158.779 98.602 158.549 100.938Z" fill="#ED9959"/>
<path d="M178.891 213.621C158.805 213.621 142.523 229.979 142.523 250.158C142.523 259.158 145.768 267.392 151.138 273.76C169.353 269.647 188.428 269.647 206.643 273.76C212.014 267.393 215.259 259.158 215.259 250.158C215.259 229.979 198.977 213.621 178.891 213.621Z" fill="white"/>
<path d="M287.521 213.621C267.435 213.621 251.153 229.979 251.153 250.158C251.153 259.158 254.398 267.392 259.768 273.76C277.983 269.647 297.058 269.647 315.273 273.76C320.644 267.393 323.889 259.158 323.889 250.158C323.889 229.979 307.606 213.621 287.521 213.621Z" fill="white"/>
<path d="M178.891 257.885C188.834 257.885 188.851 242.432 178.891 242.432C168.948 242.432 168.931 257.885 178.891 257.885Z" fill="#5F211E"/>
<path d="M287.52 257.885C297.463 257.885 297.48 242.432 287.52 242.432C277.577 242.432 277.56 257.885 287.52 257.885Z" fill="#5F211E"/>
<path d="M162 196.087C159.681 196.087 157.389 195.048 155.867 193.067C153.267 189.683 153.904 184.832 157.288 182.233C157.92 181.748 172.98 170.349 192.323 170.181C192.346 170.18 192.369 170.18 192.391 170.18C196.627 170.18 200.079 173.595 200.115 177.839C200.152 182.106 196.723 185.595 192.456 185.632C178.458 185.754 166.815 194.4 166.701 194.487C165.298 195.565 163.643 196.087 162 196.087Z" fill="#5F211E"/>
<path d="M304.41 196.086C302.775 196.086 301.128 195.569 299.729 194.503C299.541 194.362 287.96 185.754 273.954 185.632C269.687 185.595 266.258 182.106 266.295 177.839C266.332 173.595 269.784 170.18 274.019 170.18C274.042 170.18 274.065 170.18 274.087 170.181C293.43 170.348 308.489 181.747 309.121 182.233C312.505 184.833 313.141 189.683 310.542 193.067C309.021 195.046 306.729 196.086 304.41 196.086Z" fill="#5F211E"/>
<path d="M448.595 180.402L442.838 207.015L433.252 204.941C422.924 202.707 413.734 211.878 415.946 222.211C421.928 236.671 427.455 260.958 443.358 267.434V290.795H481.556V266.079C486.519 262.112 490.344 256.502 492.428 250.347C500.265 232.259 504.778 212.879 508.799 193.632C515.393 164.507 454.852 151.478 448.595 180.402Z" fill="#ED9959"/>
<path d="M233.425 336.935C218.715 336.935 204.011 331.338 192.812 320.14C189.794 317.123 189.794 312.231 192.812 309.213C195.829 306.196 200.721 306.196 203.739 309.213C220.108 325.581 246.742 325.582 263.111 309.213C266.129 306.195 271.021 306.195 274.038 309.213C277.056 312.231 277.056 317.122 274.038 320.14C262.842 331.335 248.13 336.935 233.425 336.935Z" fill="#CE3C3C"/>
</g>
<defs>
<clipPath id="clip0_654_8695">
<rect width="512" height="512" fill="white" transform="translate(0 0.5)"/>
</clipPath>
</defs>
</svg>
