<svg id="Layer_1" enable-background="new 0 0 512 512" height="300" viewBox="0 0 512 512" width="300" xmlns="http://www.w3.org/2000/svg" version="1.1" xmlns:xlink="http://www.w3.org/1999/xlink" xmlns:svgjs="http://svgjs.dev/svgjs"><g width="100%" height="100%" transform="matrix(1,0,0,1,0,0)"><g><g><g><path d="m429.317 474.455c20.491 0 34.592-20.803 26.757-39.737-7.09-17.133-17.734-29.622-4.74-58.744 22.961-51.459 10.602-78.75-9.714-111.79-34.441-56.012-9.261-84.62-22.653-133.142-48.223-174.717-323.296-174.728-371.523 0-13.393 48.522 11.788 77.129-22.653 133.142-20.316 33.04-32.675 60.331-9.714 111.79 12.994 29.122 2.35 41.612-4.74 58.744-7.835 18.934 6.266 39.737 26.757 39.737z" fill="#6b3734" fill-opacity="1" data-original-color="#735351ff" stroke="none" stroke-opacity="1"/><path d="m451.334 375.974c22.961-51.459 10.602-78.75-9.714-111.79-34.441-56.013-9.261-84.62-22.653-133.142-25.65-92.932-115.481-136.437-201.217-130.508 75.454 5.217 147.738 48.721 170.312 130.508 13.393 48.522-11.788 77.13 22.653 133.142 20.316 33.04 32.675 60.331 9.714 111.79-12.994 29.122-2.35 41.612 4.74 58.744 7.835 18.934-6.266 39.737-26.757 39.737h30.905c20.491 0 34.592-20.804 26.757-39.737-7.09-17.133-17.734-29.623-4.74-58.744z" fill="#471e1e" fill-opacity="1" data-original-color="#664442ff" stroke="none" stroke-opacity="1"/><g><g><ellipse cx="373.544" cy="271.048" fill="#cb946f" rx="31.298" ry="31.444" fill-opacity="1" data-original-color="#fac8a2ff" stroke="none" stroke-opacity="1"/></g><g><ellipse cx="92.867" cy="271.048" fill="#cb946f" rx="31.298" ry="31.444" fill-opacity="1" data-original-color="#fac8a2ff" stroke="none" stroke-opacity="1"/></g></g><path d="m400.758 512c51.455 0 93.167-41.712 93.167-93.167v-128.15h-61.343v96.399c0 41.236-55.616 57.788-78.144 23.145-25.723-39.556-70.313-65.715-121.013-65.715h-.439c-79.666 0-144.248 64.582-144.248 144.248v23.24z" fill="#308983" fill-opacity="1" data-original-color="#ff80b3ff" stroke="none" stroke-opacity="1"/><g fill="#ff6ba7"><path d="m323.533 410.227c11.889 18.283 32.993 22.307 50.275 15.969-7.467-2.902-14.267-8.122-19.37-15.969-25.723-39.556-70.312-65.715-121.013-65.715h-.439c-5.144 0-10.225.27-15.23.795 44.322 4.654 82.665 29.379 105.777 64.92z" fill="#126362" fill-opacity="1" data-original-color="#ff6ba7ff" stroke="none" stroke-opacity="1"/><path d="m463.019 290.683v128.15c0 51.455-41.712 93.167-93.167 93.167h30.905c51.455 0 93.167-41.712 93.167-93.167v-128.15z" fill="#126362" fill-opacity="1" data-original-color="#ff6ba7ff" stroke="none" stroke-opacity="1"/></g><path d="m233.261 454.528h-.111c-20.21 0-36.594-16.384-36.594-36.594v-59.226h73.298v59.226c.001 20.21-16.383 36.594-36.593 36.594z" fill="#dba983" fill-opacity="1" data-original-color="#ffd8baff" stroke="none" stroke-opacity="1"/><g><path d="m158.549 100.439c-4.633 47.132-28.565 52.383-43.343 57.509-7.086 2.458-11.818 9.18-11.818 16.711v89.116c0 72.03 58.121 130.421 129.818 130.421 71.696 0 129.818-58.392 129.818-130.421v-82.906c0-10.037-8.296-17.981-18.283-17.687-15.63.459-41.584.577-61.692-19.332-25.633-25.379-40.459-16.343-67.21-16.954-33.445-.764-47.285-16.346-52.895-27.297-1.071-2.087-4.165-1.496-4.395.84z" fill="#dba983" fill-opacity="1" data-original-color="#ffd8baff" stroke="none" stroke-opacity="1"/></g></g><g><g fill="#fff"><path d="m178.891 213.119c-20.086 0-36.368 16.358-36.368 36.537 0 9 3.245 17.234 8.615 23.602 18.215-4.113 37.29-4.113 55.505 0 5.371-6.367 8.616-14.602 8.616-23.602 0-20.179-16.282-36.537-36.368-36.537z" fill="#ffffff" fill-opacity="1" data-original-color="#ffffffff" stroke="none" stroke-opacity="1"/><path d="m287.52 213.119c-20.086 0-36.368 16.358-36.368 36.537 0 9 3.245 17.234 8.615 23.602 18.215-4.113 37.29-4.113 55.505 0 5.371-6.367 8.616-14.602 8.616-23.602 0-20.179-16.283-36.537-36.368-36.537z" fill="#ffffff" fill-opacity="1" data-original-color="#ffffffff" stroke="none" stroke-opacity="1"/></g><g><g><g><path d="m178.891 257.383c9.943 0 9.96-15.453 0-15.453-9.943 0-9.96 15.453 0 15.453z" fill="#6b3734" fill-opacity="1" data-original-color="#735351ff" stroke="none" stroke-opacity="1"/></g></g><g><path d="m287.52 257.383c9.943 0 9.96-15.453 0-15.453-9.943 0-9.96 15.453 0 15.453z" fill="#6b3734" fill-opacity="1" data-original-color="#735351ff" stroke="none" stroke-opacity="1"/></g></g></g><g><g><path d="m162 195.588c-2.319 0-4.611-1.039-6.133-3.02-2.6-3.384-1.963-8.235 1.421-10.834.632-.485 15.692-11.884 35.035-12.052.023-.001.046-.001.068-.001 4.236 0 7.688 3.415 7.724 7.659.037 4.267-3.392 7.756-7.659 7.793-13.998.122-25.641 8.768-25.755 8.855-1.403 1.078-3.058 1.6-4.701 1.6z" fill="#6b3734" fill-opacity="1" data-original-color="#735351ff" stroke="none" stroke-opacity="1"/></g><g><path d="m304.41 195.588c-1.635 0-3.282-.517-4.681-1.583-.188-.141-11.769-8.749-25.775-8.871-4.267-.037-7.696-3.526-7.659-7.793.037-4.244 3.489-7.659 7.724-7.659.023 0 .046 0 .068.001 19.343.167 34.402 11.566 35.034 12.052 3.384 2.6 4.02 7.45 1.421 10.834-1.521 1.979-3.813 3.019-6.132 3.019z" fill="#6b3734" fill-opacity="1" data-original-color="#735351ff" stroke="none" stroke-opacity="1"/></g></g></g><path d="m448.595 179.903-5.757 26.613-9.586-2.074c-10.328-2.234-19.518 6.937-17.306 17.27 5.982 14.46 11.509 38.747 27.412 45.223v23.361h38.198v-24.716c4.963-3.967 8.788-9.577 10.872-15.732 7.837-18.088 12.35-37.468 16.371-56.715 6.594-29.125-53.947-42.154-60.204-13.23z" fill="#dba983" fill-opacity="1" data-original-color="#ffd8baff" stroke="none" stroke-opacity="1"/><path d="m233.425 336.436c-14.71 0-29.414-5.597-40.613-16.795-3.018-3.017-3.018-7.909 0-10.927 3.017-3.017 7.909-3.017 10.927 0 16.369 16.368 43.003 16.369 59.372 0 3.018-3.018 7.91-3.018 10.927 0 3.018 3.018 3.018 7.909 0 10.927-11.196 11.195-25.908 16.795-40.613 16.795z" fill="#bf685f" fill-opacity="1" data-original-color="#f0b07fff" stroke="none" stroke-opacity="1"/></g></g></svg>