<svg width="512" height="513" viewBox="0 0 512 513" fill="none" xmlns="http://www.w3.org/2000/svg">
<path d="M289.827 457.862C412.53 457.862 512 358.391 512 235.689C512 112.986 412.53 13.5156 289.827 13.5156C167.124 13.5156 67.6538 112.986 67.6538 235.689C67.6538 358.391 167.124 457.862 289.827 457.862Z" fill="#FFCE5B"/>
<path d="M289.827 13.5137C178.522 13.5137 86.3369 95.3637 70.1709 202.157L70.1729 202.164L81.2999 300.273L134.014 391.133L150 403.709L166.593 420.566C201.859 444.12 244.236 457.861 289.827 457.861C412.53 457.862 512 358.391 512 235.688C512 112.985 412.53 13.5137 289.827 13.5137Z" fill="#FFCE5B"/>
<path d="M425.573 59.8125C454.593 97.3555 471.871 144.436 471.871 195.559C471.871 318.262 372.401 417.733 249.698 417.733C230.858 417.733 212.57 415.38 195.103 410.964C194.124 404.566 192.066 398.437 188.996 392.812C193.313 384.894 195.769 375.821 195.769 366.185C195.769 356.549 193.313 347.474 188.996 339.556C193.246 331.771 195.587 323.029 195.759 313.93C196.042 299.003 190.375 284.849 179.801 274.072C169.194 263.263 154.458 257.062 139.37 257.062H120.088L118.092 224.584C116.578 199.962 99.2768 179.787 76.4408 173.66C73.7488 182.936 71.6518 192.462 70.1768 202.194L81.2998 300.273L134.014 391.133L150 403.71L166.593 420.566C201.859 444.12 244.236 457.861 289.827 457.861C412.53 457.862 512 358.391 512 235.688C512 164.108 478.14 100.445 425.573 59.8125Z" fill="#FFAE44"/>
<path d="M206.247 258.658C233.834 258.658 256.198 236.294 256.198 208.707C256.198 181.12 233.834 158.756 206.247 158.756C178.66 158.756 156.296 181.12 156.296 208.707C156.296 236.294 178.66 258.658 206.247 258.658Z" fill="#EAF6FF"/>
<path d="M206.247 226.398C216.017 226.398 223.938 218.477 223.938 208.707C223.938 198.936 216.017 191.016 206.247 191.016C196.476 191.016 188.556 198.936 188.556 208.707C188.556 218.477 196.476 226.398 206.247 226.398Z" fill="#835E52"/>
<path d="M373.406 258.658C400.993 258.658 423.357 236.294 423.357 208.707C423.357 181.12 400.993 158.756 373.406 158.756C345.819 158.756 323.455 181.12 323.455 208.707C323.455 236.294 345.819 258.658 373.406 258.658Z" fill="#EAF6FF"/>
<path d="M373.406 226.398C383.176 226.398 391.097 218.477 391.097 208.707C391.097 198.936 383.176 191.016 373.406 191.016C363.635 191.016 355.715 198.936 355.715 208.707C355.715 218.477 363.635 226.398 373.406 226.398Z" fill="#835E52"/>
<path d="M366.942 296.645C375.793 296.645 382.381 304.695 380.787 313.396C372.913 356.472 335.184 389.12 289.827 389.12C244.47 389.12 206.741 356.472 198.867 313.396C197.273 304.695 203.861 296.645 212.712 296.645H366.942Z" fill="#FF4277"/>
<path d="M29.6738 309.319L34.7718 226.371C35.6528 212.041 47.5318 200.869 61.8888 200.869C76.2468 200.869 88.1258 212.04 89.0058 226.371L94.1038 309.319H29.6738Z" fill="#FFCE5B"/>
<path d="M148.405 384.092L163.949 377.842C165.665 374.319 166.63 370.363 166.63 366.181C166.63 351.457 154.694 339.52 139.969 339.52H139.981L148.029 329.328L163.946 324.52C165.592 321.142 166.549 317.367 166.625 313.375C166.908 298.431 154.316 286.199 139.369 286.199H36.44C16.315 286.199 0 302.514 0 322.639V463.046C0 483.171 16.315 499.486 36.44 499.486H128.26C143.207 499.486 155.8 487.254 155.516 472.31C155.241 457.824 143.412 446.165 128.86 446.165H139.368C154.315 446.165 166.908 433.933 166.624 418.989C166.349 404.503 154.52 392.844 139.968 392.844H139.973L148.405 384.092Z" fill="#FFE164"/>
<path d="M419.471 139.144C417.551 139.144 415.632 138.412 414.167 136.947C403.279 126.059 388.804 120.063 373.406 120.063C358.008 120.063 343.532 126.059 332.644 136.947C329.713 139.877 324.965 139.876 322.037 136.947C319.109 134.018 319.108 129.269 322.037 126.341C335.759 112.62 354.002 105.064 373.406 105.064C392.81 105.064 411.053 112.62 424.774 126.341C427.703 129.27 427.703 134.019 424.774 136.947C423.31 138.412 421.39 139.144 419.471 139.144Z" fill="#644113"/>
<path d="M252.312 139.144C250.392 139.144 248.473 138.412 247.008 136.947C236.12 126.059 221.645 120.063 206.247 120.063C190.849 120.063 176.374 126.059 165.486 136.947C162.556 139.876 157.808 139.876 154.879 136.947C151.95 134.018 151.95 129.269 154.879 126.341C168.6 112.62 186.843 105.064 206.247 105.064C225.651 105.064 243.894 112.62 257.615 126.341C260.544 129.27 260.544 134.019 257.615 136.947C256.15 138.412 254.23 139.144 252.312 139.144Z" fill="#644113"/>
<path d="M111.703 377.844C107.56 377.844 104.203 381.202 104.203 385.344C104.203 389.486 107.56 392.844 111.703 392.844H139.974C150.514 392.842 159.623 386.723 163.949 377.844H111.703Z" fill="#FFCE5B"/>
<path d="M111.703 431.166C107.56 431.166 104.203 434.524 104.203 438.666C104.203 442.808 107.56 446.166 111.703 446.166H128.86H139.368C149.943 446.166 159.332 440.04 163.824 431.166H111.703Z" fill="#FFCE5B"/>
<path d="M104.203 332.021C104.203 336.163 107.56 339.521 111.703 339.521H139.981C150.518 339.516 159.621 333.397 163.946 324.521H111.703C107.561 324.521 104.203 327.879 104.203 332.021Z" fill="#FFCE5B"/>
</svg>
