<svg id="Layer_1" enable-background="new 0 0 512 512" height="300" viewBox="0 0 512 512" width="300" xmlns="http://www.w3.org/2000/svg" version="1.1" xmlns:xlink="http://www.w3.org/1999/xlink" xmlns:svgjs="http://svgjs.dev/svgjs"><g width="100%" height="100%" transform="matrix(1,0,0,1,0,0)"><g><g><g><g><path d="m82.683 474.455c-20.491 0-34.592-20.803-26.757-39.737 7.09-17.133 17.734-29.622 4.74-58.744-22.961-51.459-10.602-78.75 9.714-111.79 34.441-56.012 9.261-84.62 22.653-133.142 48.223-174.717 323.296-174.728 371.523 0 13.393 48.522-11.788 77.129 22.653 133.142 20.316 33.04 32.675 60.331 9.714 111.79-12.994 29.122-2.35 41.612 4.74 58.744 7.835 18.934-6.266 39.737-26.757 39.737z" fill="#cb703a" fill-opacity="1" data-original-color="#735351ff" stroke="none" stroke-opacity="1"/><path d="m496.924 375.974c22.961-51.459 10.602-78.75-9.714-111.79-34.441-56.013-9.261-84.62-22.653-133.142-25.652-92.936-115.479-136.436-201.212-130.508 75.451 5.217 147.731 48.718 170.306 130.508 13.393 48.522-11.788 77.129 22.653 133.142 20.316 33.04 32.675 60.331 9.714 111.79-12.994 29.122-2.35 41.612 4.74 58.744 7.835 18.934-6.266 39.737-26.757 39.737h30.905c20.491 0 34.592-20.804 26.757-39.737-7.089-17.133-17.733-29.623-4.739-58.744z" fill="#7f461f" fill-opacity="1" data-original-color="#664442ff" stroke="none" stroke-opacity="1"/><g><g><ellipse cx="138.456" cy="271.048" fill="#ffcaa1" rx="31.298" ry="31.444" fill-opacity="1" data-original-color="#fac8a2ff" stroke="none" stroke-opacity="1"/></g><g><ellipse cx="419.133" cy="271.048" fill="#ffcaa1" rx="31.298" ry="31.444" fill-opacity="1" data-original-color="#fac8a2ff" stroke="none" stroke-opacity="1"/></g></g><path d="m111.242 512c-51.455 0-93.167-41.712-93.167-93.167v-128.15h61.343v96.399c0 41.236 55.616 57.788 78.144 23.145 25.723-39.556 70.313-65.715 121.013-65.715h.439c79.666 0 144.248 64.582 144.248 144.248v23.24z" fill="#187496" fill-opacity="1" data-original-color="#ff80b3ff" stroke="none" stroke-opacity="1"/><g fill="#ff6ba7"><path d="m279.014 344.512h-.439c-5.146 0-10.23.27-15.237.795 72.507 7.609 129.018 68.931 129.018 143.453v23.24h30.905v-23.24c.001-79.666-64.581-144.248-144.247-144.248z" fill="#084259" fill-opacity="1" data-original-color="#ff6ba7ff" stroke="none" stroke-opacity="1"/><path d="m107.287 426.196c-15.465-5.671-27.868-19.64-27.868-39.114v-96.399h-30.906v96.399c0 31.896 33.275 49.023 58.774 39.114z" fill="#084259" fill-opacity="1" data-original-color="#ff6ba7ff" stroke="none" stroke-opacity="1"/></g><path d="m278.739 454.528h.111c20.21 0 36.594-16.384 36.594-36.594v-59.226h-73.298v59.226c-.001 20.21 16.383 36.594 36.593 36.594z" fill="#ffddc2" fill-opacity="1" data-original-color="#ffd8baff" stroke="none" stroke-opacity="1"/><g><path d="m204.139 100.439c-4.633 47.132-28.565 52.383-43.343 57.509-7.086 2.458-11.818 9.18-11.818 16.711v89.116c0 72.03 58.121 130.421 129.818 130.421 71.696 0 129.818-58.392 129.818-130.421v-82.906c0-10.037-8.296-17.981-18.283-17.687-15.63.459-41.584.577-61.692-19.332-25.633-25.379-40.459-16.343-67.21-16.954-33.445-.764-47.285-16.346-52.895-27.297-1.071-2.087-4.166-1.496-4.395.84z" fill="#ffddc2" fill-opacity="1" data-original-color="#ffd8baff" stroke="none" stroke-opacity="1"/></g></g><g><g><path d="m208.833 195.208c-2.594 0-5.127-1.306-6.587-3.677-2.237-3.634-1.105-8.393 2.529-10.63.679-.418 16.832-10.208 36.089-8.38 4.248.402 7.366 4.173 6.963 8.421s-4.169 7.373-8.421 6.963c-13.934-1.311-26.407 6.08-26.53 6.155-1.263.778-2.661 1.148-4.043 1.148z" fill="#cb703a" fill-opacity="1" data-original-color="#735351ff" stroke="none" stroke-opacity="1"/></g></g><g><g><path d="m348.673 195.553c-1.43 0-2.874-.396-4.165-1.224-.173-.11-12.438-7.776-26.41-6.754-4.24.309-7.957-2.891-8.266-7.147s2.891-7.956 7.147-8.265c19.297-1.396 35.227 8.742 35.896 9.175 3.583 2.317 4.61 7.1 2.294 10.683-1.479 2.286-3.962 3.532-6.496 3.532z" fill="#cb703a" fill-opacity="1" data-original-color="#735351ff" stroke="none" stroke-opacity="1"/></g></g><g><g><g><ellipse cx="224.48" cy="249.656" fill="#ffffff" rx="36.368" ry="36.537" fill-opacity="1" data-original-color="#ffffffff" stroke="none" stroke-opacity="1"/></g><g><path d="m224.48 257.383c9.943 0 9.96-15.453 0-15.453-9.943 0-9.959 15.453 0 15.453z" fill="#cb703a" fill-opacity="1" data-original-color="#735351ff" stroke="none" stroke-opacity="1"/></g></g></g><path d="m361.71 268.183c-1.623 0-3.259-.509-4.653-1.563-18.953-14.325-46.064-4.695-46.337-4.597-2.927 1.067-6.218.268-8.332-2.03-2.112-2.298-2.635-5.64-1.324-8.473.459-.992 11.571-24.344 39.904-27.15 4.243-.425 8.03 2.681 8.451 6.927s-2.681 8.03-6.928 8.45c-4.856.481-8.981 1.83-12.441 3.592 11.264-.153 24.66 2.136 36.324 10.953 3.404 2.573 4.077 7.419 1.505 10.823-1.518 2.009-3.83 3.068-6.169 3.068z" fill="#cb703a" fill-opacity="1" data-original-color="#f0b07fff" stroke="none" stroke-opacity="1"/></g><path d="m63.405 179.903 5.757 26.613 9.586-2.074c10.328-2.234 19.518 6.937 17.306 17.27-5.982 14.46-11.509 38.747-27.412 45.223v23.361h-38.198v-24.716c-4.963-3.967-8.788-9.577-10.872-15.732-7.837-18.088-12.35-37.468-16.371-56.715-6.594-29.125 53.947-42.154 60.204-13.23z" fill="#ffddc2" fill-opacity="1" data-original-color="#ffd8baff" stroke="none" stroke-opacity="1"/></g><path d="m235.734 311.909c-10 0-16.278 10.729-11.455 19.489 17.03 30.93 92.022 30.891 109.031 0 4.823-8.76-1.455-19.489-11.455-19.489z" fill="#ffffff" fill-opacity="1" data-original-color="#ffffffff" stroke="none" stroke-opacity="1"/></g></g></svg>