<svg width="512" height="513" viewBox="0 0 512 513" fill="none" xmlns="http://www.w3.org/2000/svg">
<g clip-path="url(#clip0_654_8731)">
<path d="M82.6833 474.955C62.1923 474.955 48.0913 454.152 55.9263 435.218C63.0163 418.085 73.6603 405.596 60.6663 376.474C37.7053 325.015 50.0643 297.724 70.3803 264.684C104.821 208.672 79.6413 180.064 93.0333 131.542C141.256 -43.1751 416.329 -43.1861 464.556 131.542C477.949 180.064 452.768 208.671 487.209 264.684C507.525 297.724 519.884 325.015 496.923 376.474C483.929 405.596 494.573 418.086 501.663 435.218C509.498 454.152 495.397 474.955 474.906 474.955H82.6833Z" fill="#CB703A"/>
<path d="M496.924 376.473C519.885 325.014 507.526 297.723 487.21 264.683C452.769 208.67 477.949 180.063 464.557 131.541C438.905 38.6052 349.078 -4.89478 263.345 1.03322C338.796 6.25022 411.076 49.7512 433.651 131.541C447.044 180.063 421.863 208.67 456.304 264.683C476.62 297.723 488.979 325.014 466.018 376.473C453.024 405.595 463.668 418.085 470.758 435.217C478.593 454.151 464.492 474.954 444.001 474.954H474.906C495.397 474.954 509.498 454.15 501.663 435.217C494.574 418.084 483.93 405.594 496.924 376.473Z" fill="#AC571D"/>
<path d="M138.456 302.992C155.742 302.992 169.754 288.914 169.754 271.548C169.754 254.181 155.742 240.104 138.456 240.104C121.171 240.104 107.158 254.181 107.158 271.548C107.158 288.914 121.171 302.992 138.456 302.992Z" fill="#FFC598"/>
<path d="M419.133 302.992C436.419 302.992 450.431 288.914 450.431 271.548C450.431 254.181 436.419 240.104 419.133 240.104C401.848 240.104 387.835 254.181 387.835 271.548C387.835 288.914 401.848 302.992 419.133 302.992Z" fill="#FFC598"/>
<path d="M111.242 512.501C59.7872 512.501 18.0752 470.789 18.0752 419.334V291.184H79.4182V387.583C79.4182 428.819 135.034 445.371 157.562 410.728C183.285 371.172 227.875 345.013 278.575 345.013H279.014C358.68 345.013 423.262 409.595 423.262 489.261V512.501H111.242Z" fill="#187496"/>
<path d="M279.014 345.014H278.575C273.429 345.014 268.345 345.284 263.338 345.809C335.845 353.418 392.356 414.74 392.356 489.262V512.502H423.261V489.262C423.262 409.596 358.68 345.014 279.014 345.014Z" fill="#084259"/>
<path d="M107.287 426.697C91.8222 421.026 79.4192 407.057 79.4192 387.583V291.184H48.5132V387.583C48.5132 419.479 81.7882 436.606 107.287 426.697Z" fill="#084259"/>
<path d="M278.739 455.027H278.85C299.06 455.027 315.444 438.643 315.444 418.433V359.207H242.146V418.433C242.145 438.643 258.529 455.027 278.739 455.027Z" fill="#F9BE90"/>
<path d="M204.139 100.938C199.506 148.07 175.574 153.321 160.796 158.447C153.71 160.905 148.978 167.627 148.978 175.158V264.274C148.978 336.304 207.099 394.695 278.796 394.695C350.492 394.695 408.614 336.303 408.614 264.274V181.368C408.614 171.331 400.318 163.387 390.331 163.681C374.701 164.14 348.747 164.258 328.639 144.349C303.006 118.97 288.18 128.006 261.429 127.395C227.984 126.631 214.144 111.049 208.534 100.098C207.463 98.011 204.368 98.602 204.139 100.938Z" fill="#F9BE90"/>
<path d="M208.833 195.709C206.239 195.709 203.706 194.403 202.246 192.032C200.009 188.398 201.141 183.639 204.775 181.402C205.454 180.984 221.607 171.194 240.864 173.022C245.112 173.424 248.23 177.195 247.827 181.443C247.424 185.691 243.658 188.816 239.406 188.406C225.472 187.095 212.999 194.486 212.876 194.561C211.613 195.339 210.215 195.709 208.833 195.709Z" fill="#CB703A"/>
<path d="M348.673 196.053C347.243 196.053 345.799 195.657 344.508 194.829C344.335 194.719 332.07 187.053 318.098 188.075C313.858 188.384 310.141 185.184 309.832 180.928C309.523 176.672 312.723 172.972 316.979 172.663C336.276 171.267 352.206 181.405 352.875 181.838C356.458 184.155 357.485 188.938 355.169 192.521C353.69 194.807 351.207 196.053 348.673 196.053Z" fill="#CB703A"/>
<path d="M224.48 286.697C244.566 286.697 260.848 270.339 260.848 250.16C260.848 229.981 244.566 213.623 224.48 213.623C204.395 213.623 188.112 229.981 188.112 250.16C188.112 270.339 204.395 286.697 224.48 286.697Z" fill="white"/>
<path d="M224.48 257.885C234.423 257.885 234.44 242.432 224.48 242.432C214.537 242.432 214.521 257.885 224.48 257.885Z" fill="#AC571D"/>
<path d="M361.71 268.682C360.087 268.682 358.451 268.173 357.057 267.119C338.104 252.794 310.993 262.424 310.72 262.522C307.793 263.589 304.502 262.79 302.388 260.492C300.276 258.194 299.753 254.852 301.064 252.019C301.523 251.027 312.635 227.675 340.968 224.869C345.211 224.444 348.998 227.55 349.419 231.796C349.84 236.042 346.738 239.826 342.491 240.246C337.635 240.727 333.51 242.076 330.05 243.838C341.314 243.685 354.71 245.974 366.374 254.791C369.778 257.364 370.451 262.21 367.879 265.614C366.361 267.623 364.049 268.682 361.71 268.682Z" fill="#AC571D"/>
<path d="M63.4054 180.402L69.1624 207.015L78.7484 204.941C89.0764 202.707 98.2664 211.878 96.0544 222.211C90.0724 236.671 84.5454 260.958 68.6424 267.434V290.795H30.4444V266.079C25.4814 262.112 21.6564 256.502 19.5724 250.347C11.7354 232.259 7.22238 212.879 3.20138 193.632C-3.39262 164.507 57.1484 151.478 63.4054 180.402Z" fill="#F9BE90"/>
<path d="M235.735 312.41C225.735 312.41 219.457 323.139 224.28 331.899C241.31 362.829 316.302 362.79 333.311 331.899C338.134 323.139 331.856 312.41 321.856 312.41H235.735Z" fill="white"/>
</g>
<defs>
<clipPath id="clip0_654_8731">
<rect width="512" height="512" fill="white" transform="translate(0 0.5)"/>
</clipPath>
</defs>
</svg>
