<svg id="Capa_1" enable-background="new 0 0 512 512" height="512" viewBox="0 0 512 512" width="512" xmlns="http://www.w3.org/2000/svg"><g><g><path d="m351.309 512c76.4 0 119.56-78.195 119.56-145.474v-55.543c0-8.643-3.51-16.461-9.161-22.125-5.664-5.664-13.496-9.161-22.125-9.161-17.285 0-31.286 14.001-31.286 31.286v-33.353c0-8.643-3.51-16.461-9.161-22.125-5.664-5.664-13.496-9.161-22.125-9.161-8.643 0-16.461 3.497-22.125 9.161s-9.161 13.482-9.161 22.125v-3.171c0-8.643-3.51-16.461-9.161-22.125-5.664-5.664-13.496-9.161-22.125-9.161-17.285 0-31.286 14.014-31.286 31.286v-109.537c-.013-17.259-14.014-31.259-31.286-31.259-8.629 0-16.461 3.497-22.125 9.174-5.664 5.664-9.161 13.482-9.161 22.112v147.235s-1.463-10.65-13.389-32.15c-9.573-17.259-31.313-23.481-48.571-13.908-17.245 9.573-23.468 31.313-13.908 48.558 9.174 16.541 9.201 53.544 9.201 53.969v38.167c0 58.09 47.091 105.18 105.18 105.18z" fill="#ffddce"/><g fill="#ffcbbe"><path d="m373.237 501.719c11.662 0 22.54-1.823 32.616-5.151-15.618 9.694-33.862 15.432-54.548 15.432h-92.212c-58.092 0-105.181-47.09-105.181-105.182v-38.168c0-.422-.031-37.427-9.2-53.971-9.56-17.245-3.338-38.982 13.907-48.552 4.471-2.483 9.241-3.904 14.021-4.337-11.023 10.992-13.918 28.34-6.006 42.619 9.179 16.534 9.2 53.538 9.2 53.971v38.158c0 58.092 47.09 105.182 105.181 105.182h92.222z"/><path d="m293.549 326.988c5.742 0 10.396-4.655 10.396-10.396v-42.133c0-8.631 3.498-16.452 9.165-22.119 3.274-3.275 7.271-5.819 11.724-7.388-3.254-1.147-6.752-1.777-10.398-1.777-8.631 0-16.452 3.498-22.119 9.166-5.667 5.667-9.165 13.488-9.165 22.119v42.133c0 5.74 4.655 10.395 10.397 10.395z"/><path d="m418.694 321.378c5.742 0 10.396-4.655 10.396-10.396v-.001c0-8.631 3.498-16.452 9.165-22.119 3.274-3.275 7.271-5.819 11.724-7.388-3.254-1.147-6.752-1.777-10.398-1.777-8.631 0-16.452 3.498-22.119 9.166-5.667 5.667-9.165 13.488-9.165 22.119v.001c.001 5.741 4.655 10.395 10.397 10.395z"/><path d="m356.122 330.158c5.742 0 10.396-4.655 10.396-10.396v-42.133c0-8.631 3.498-16.452 9.165-22.119 3.274-3.275 7.271-5.819 11.724-7.388-3.254-1.147-6.752-1.777-10.398-1.777-8.631 0-16.452 3.498-22.119 9.166-5.667 5.667-9.165 13.488-9.165 22.119v42.133c.001 5.74 4.655 10.395 10.397 10.395z"/><path d="m230.976 389.113c5.742 0 10.396-4.655 10.396-10.396v-213.768c0-8.631 3.498-16.452 9.165-22.119 3.274-3.275 7.271-5.819 11.724-7.388-3.254-1.147-6.752-1.777-10.398-1.777-8.631 0-16.452 3.498-22.119 9.166-5.667 5.667-9.165 13.488-9.165 22.119v213.768c.001 5.741 4.656 10.395 10.397 10.395z"/></g></g><circle cx="411.114" cy="100.705" fill="#ee596b" r="100.705"/><path d="m427.046 200.159c-5.192.824-10.508 1.257-15.927 1.257-55.619 0-100.711-45.091-100.711-100.711s45.091-100.7 100.711-100.7c5.419 0 10.735.433 15.927 1.257-48.048 7.634-84.774 49.243-84.774 99.443s36.726 91.82 84.774 99.454z" fill="#ed3a4f"/><g fill="#21386b"><path d="m456.662 58.603c-7.982 0-14.476 10.785-14.476 24.042s6.494 24.041 14.476 24.041 14.476-10.785 14.476-24.041-6.494-24.042-14.476-24.042z"/><path d="m380.042 82.644c0-13.257-6.494-24.042-14.476-24.042s-14.476 10.785-14.476 24.042 6.494 24.041 14.476 24.041c7.982.001 14.476-10.784 14.476-24.041z"/><path d="m411.114 117.433c-16.787 0-32.834 7.193-44.026 19.734-2.841 3.184-2.563 8.068.62 10.909s8.067 2.564 10.909-.62c8.264-9.26 20.108-14.57 32.496-14.57s24.233 5.311 32.496 14.57c1.526 1.71 3.642 2.582 5.767 2.582 1.831 0 3.669-.647 5.142-1.962 3.184-2.841 3.461-7.725.62-10.909-11.191-12.542-27.238-19.734-44.024-19.734z"/></g><circle cx="100.886" cy="100.705" fill="#78d0b1" r="100.705"/><path d="m116.818 200.159c-5.192.824-10.508 1.257-15.927 1.257-55.619 0-100.711-45.091-100.711-100.711s45.091-100.7 100.711-100.7c5.419 0 10.735.433 15.927 1.257-48.048 7.634-84.774 49.243-84.774 99.443s36.726 91.82 84.774 99.454z" fill="#66b49d"/><g fill="#21386b"><path d="m146.434 101.535c7.982 0 14.476-10.785 14.476-24.041s-6.494-24.042-14.476-24.042-14.476 10.785-14.476 24.042 6.494 24.041 14.476 24.041z"/><path d="m55.338 101.535c7.982 0 14.476-10.785 14.476-24.041s-6.494-24.042-14.476-24.042-14.476 10.785-14.476 24.041 6.494 24.042 14.476 24.042z"/><path d="m151.155 118.039c-3.933-1.658-8.463.186-10.121 4.118-6.827 16.192-22.586 26.655-40.148 26.655s-33.321-10.463-40.148-26.655c-1.657-3.932-6.187-5.776-10.121-4.118-3.932 1.657-5.776 6.189-4.118 10.121 9.247 21.933 30.595 36.105 54.386 36.105s45.139-14.172 54.386-36.105c1.66-3.932-.184-8.464-4.116-10.121z"/></g><g><path d="m318.873 449.921c-4.267 0-7.726-3.459-7.726-7.726v-34.348c0-4.267 3.459-7.726 7.726-7.726 6.952 0 13.422-2.781 18.217-7.831 4.791-5.046 7.231-11.665 6.869-18.636-.678-13.064-11.468-23.505-24.564-23.769-12.7-.235-23.645 9.03-25.4 21.602-.161 1.155-.243 2.338-.243 3.514 0 4.267-3.459 7.726-7.726 7.726s-7.726-3.459-7.726-7.726c0-1.887.131-3.788.391-5.648 2.836-20.32 20.5-35.306 41.016-34.917 21.157.426 38.589 17.301 39.685 38.418.583 11.245-3.357 21.927-11.095 30.076-5.932 6.247-13.452 10.344-21.697 11.919v27.347c0 4.265-3.46 7.725-7.727 7.725z" fill="#ee596b"/></g><path d="m318.873 471.26c-4.267 0-7.726-3.459-7.726-7.726v-.515c0-4.267 3.459-7.726 7.726-7.726s7.726 3.459 7.726 7.726v.515c.001 4.267-3.459 7.726-7.726 7.726z" fill="#ee596b"/></g></svg>