<svg width="512" height="513" viewBox="0 0 512 513" fill="none" xmlns="http://www.w3.org/2000/svg">
<g clip-path="url(#clip0_654_8766)">
<path d="M351.309 512.499C427.709 512.499 470.869 434.304 470.869 367.025V311.482C470.869 302.839 467.359 295.021 461.708 289.357C456.044 283.693 448.212 280.196 439.583 280.196C422.298 280.196 408.297 294.197 408.297 311.482V278.129C408.297 269.486 404.787 261.668 399.136 256.004C393.472 250.34 385.64 246.843 377.011 246.843C368.368 246.843 360.55 250.34 354.886 256.004C349.222 261.668 345.725 269.486 345.725 278.129V274.958C345.725 266.315 342.215 258.497 336.564 252.833C330.9 247.169 323.068 243.672 314.439 243.672C297.154 243.672 283.153 257.686 283.153 274.958V165.421C283.14 148.162 269.139 134.162 251.867 134.162C243.238 134.162 235.406 137.659 229.742 143.336C224.078 149 220.581 156.818 220.581 165.448V312.683C220.581 312.683 219.118 302.033 207.192 280.533C197.619 263.274 175.879 257.052 158.621 266.625C141.376 276.198 135.153 297.938 144.713 315.183C153.887 331.724 153.914 368.727 153.914 369.152V407.319C153.914 465.409 201.005 512.499 259.094 512.499H351.309Z" fill="#FCC398"/>
<path d="M373.237 502.218C384.899 502.218 395.777 500.395 405.853 497.067C390.235 506.761 371.991 512.499 351.305 512.499H259.093C201.001 512.499 153.912 465.409 153.912 407.317V369.149C153.912 368.727 153.881 331.722 144.712 315.178C135.152 297.933 141.374 276.196 158.619 266.626C163.09 264.143 167.86 262.722 172.64 262.289C161.617 273.281 158.722 290.629 166.634 304.908C175.813 321.442 175.834 358.446 175.834 358.879V397.037C175.834 455.129 222.924 502.219 281.015 502.219H373.237V502.218Z" fill="#BC644E"/>
<path d="M293.549 327.487C299.291 327.487 303.945 322.832 303.945 317.091V274.958C303.945 266.327 307.443 258.506 313.11 252.839C316.384 249.564 320.381 247.02 324.834 245.451C321.58 244.304 318.082 243.674 314.436 243.674C305.805 243.674 297.984 247.172 292.317 252.84C286.65 258.507 283.152 266.328 283.152 274.959V317.092C283.152 322.832 287.807 327.487 293.549 327.487Z" fill="#BC644E"/>
<path d="M418.694 321.876C424.436 321.876 429.09 317.221 429.09 311.48V311.479C429.09 302.848 432.588 295.027 438.255 289.36C441.529 286.085 445.526 283.541 449.979 281.972C446.725 280.825 443.227 280.195 439.581 280.195C430.95 280.195 423.129 283.693 417.462 289.361C411.795 295.028 408.297 302.849 408.297 311.48V311.481C408.298 317.222 412.952 321.876 418.694 321.876Z" fill="#BC644E"/>
<path d="M356.122 330.657C361.864 330.657 366.518 326.002 366.518 320.261V278.128C366.518 269.497 370.016 261.676 375.683 256.009C378.957 252.734 382.954 250.19 387.407 248.621C384.153 247.474 380.655 246.844 377.009 246.844C368.378 246.844 360.557 250.342 354.89 256.01C349.223 261.677 345.725 269.498 345.725 278.129V320.262C345.726 326.002 350.38 330.657 356.122 330.657Z" fill="#BC644E"/>
<path d="M230.976 389.612C236.718 389.612 241.372 384.957 241.372 379.216V165.448C241.372 156.817 244.87 148.996 250.537 143.329C253.811 140.054 257.808 137.51 262.261 135.941C259.007 134.794 255.509 134.164 251.863 134.164C243.232 134.164 235.411 137.662 229.744 143.33C224.077 148.997 220.579 156.818 220.579 165.449V379.217C220.58 384.958 225.235 389.612 230.976 389.612Z" fill="#BC644E"/>
<path d="M411.114 201.91C466.732 201.91 511.819 156.823 511.819 101.205C511.819 45.5872 466.732 0.5 411.114 0.5C355.496 0.5 310.409 45.5872 310.409 101.205C310.409 156.823 355.496 201.91 411.114 201.91Z" fill="#FF4277"/>
<path d="M427.046 200.66C421.854 201.484 416.538 201.917 411.119 201.917C355.5 201.917 310.408 156.826 310.408 101.206C310.408 45.5859 355.499 0.505859 411.119 0.505859C416.538 0.505859 421.854 0.938859 427.046 1.76286C378.998 9.39686 342.272 51.0059 342.272 101.206C342.272 151.406 378.998 193.026 427.046 200.66Z" fill="#B80E3E"/>
<path d="M456.663 59.1035C448.681 59.1035 442.187 69.8885 442.187 83.1455C442.187 96.4025 448.681 107.187 456.663 107.187C464.645 107.187 471.139 96.4015 471.139 83.1455C471.139 69.8895 464.645 59.1035 456.663 59.1035Z" fill="#030B1D"/>
<path d="M380.042 83.1436C380.042 69.8866 373.548 59.1016 365.566 59.1016C357.584 59.1016 351.09 69.8866 351.09 83.1436C351.09 96.4006 357.584 107.185 365.566 107.185C373.548 107.186 380.042 96.4006 380.042 83.1436Z" fill="#030B1D"/>
<path d="M411.114 117.932C394.327 117.932 378.28 125.125 367.088 137.666C364.247 140.85 364.525 145.734 367.708 148.575C370.891 151.416 375.775 151.139 378.617 147.955C386.881 138.695 398.725 133.385 411.113 133.385C423.501 133.385 435.346 138.696 443.609 147.955C445.135 149.665 447.251 150.537 449.376 150.537C451.207 150.537 453.045 149.89 454.518 148.575C457.702 145.734 457.979 140.85 455.138 137.666C443.947 125.124 427.9 117.932 411.114 117.932Z" fill="#030B1D"/>
<path d="M100.886 201.91C156.504 201.91 201.591 156.823 201.591 101.205C201.591 45.5872 156.504 0.5 100.886 0.5C45.2683 0.5 0.181152 45.5872 0.181152 101.205C0.181152 156.823 45.2683 201.91 100.886 201.91Z" fill="#6FD496"/>
<path d="M116.818 200.66C111.626 201.484 106.31 201.917 100.891 201.917C45.2722 201.917 0.180176 156.826 0.180176 101.206C0.180176 45.5859 45.2712 0.505859 100.891 0.505859C106.31 0.505859 111.626 0.938859 116.818 1.76286C68.7702 9.39686 32.0442 51.0059 32.0442 101.206C32.0442 151.406 68.7702 193.026 116.818 200.66Z" fill="#1B8667"/>
<path d="M146.435 102.034C154.417 102.034 160.911 91.2492 160.911 77.9932C160.911 64.7372 154.417 53.9512 146.435 53.9512C138.453 53.9512 131.958 64.7362 131.958 77.9932C131.958 91.2502 138.453 102.034 146.435 102.034Z" fill="#030B1D"/>
<path d="M55.3383 102.034C63.3203 102.034 69.8143 91.2492 69.8143 77.9932C69.8143 64.7372 63.3203 53.9512 55.3383 53.9512C47.3563 53.9512 40.8623 64.7362 40.8623 77.9922C40.8623 91.2482 47.3563 102.034 55.3383 102.034Z" fill="#030B1D"/>
<path d="M151.155 118.539C147.222 116.881 142.692 118.725 141.034 122.657C134.207 138.849 118.448 149.312 100.886 149.312C83.3241 149.312 67.5651 138.849 60.7381 122.657C59.0811 118.725 54.5511 116.881 50.6171 118.539C46.6851 120.196 44.8411 124.728 46.4991 128.66C55.7461 150.593 77.0941 164.765 100.885 164.765C124.676 164.765 146.024 150.593 155.271 128.66C156.931 124.728 155.087 120.196 151.155 118.539Z" fill="#030B1D"/>
<path d="M318.873 450.42C314.606 450.42 311.147 446.961 311.147 442.694V408.346C311.147 404.079 314.606 400.62 318.873 400.62C325.825 400.62 332.295 397.839 337.09 392.789C341.881 387.743 344.321 381.124 343.959 374.153C343.281 361.089 332.491 350.648 319.395 350.384C306.695 350.149 295.75 359.414 293.995 371.986C293.834 373.141 293.752 374.324 293.752 375.5C293.752 379.767 290.293 383.226 286.026 383.226C281.759 383.226 278.3 379.767 278.3 375.5C278.3 373.613 278.431 371.712 278.691 369.852C281.527 349.532 299.191 334.546 319.707 334.935C340.864 335.361 358.296 352.236 359.392 373.353C359.975 384.598 356.035 395.28 348.297 403.429C342.365 409.676 334.845 413.773 326.6 415.348V442.695C326.6 446.96 323.14 450.42 318.873 450.42Z" fill="#B80E3E"/>
<path d="M318.873 471.76C314.606 471.76 311.147 468.301 311.147 464.034V463.519C311.147 459.252 314.606 455.793 318.873 455.793C323.14 455.793 326.599 459.252 326.599 463.519V464.034C326.6 468.301 323.14 471.76 318.873 471.76Z" fill="#B80E3E"/>
</g>
<defs>
<clipPath id="clip0_654_8766">
<rect width="512" height="512" fill="white" transform="translate(0 0.5)"/>
</clipPath>
</defs>
</svg>
