<svg width="512" height="513" viewBox="0 0 512 513" fill="none" xmlns="http://www.w3.org/2000/svg">
<g clip-path="url(#clip0_654_8791)">
<path d="M375.415 499.779H497.703C508.152 499.779 515.063 488.925 510.642 479.457L475.804 404.849C466.81 385.589 447.477 373.279 426.221 373.279H375.415L365.416 440.897L375.415 499.779Z" fill="#A338A3"/>
<path d="M475.804 404.849C466.81 385.589 447.477 373.279 426.221 373.279H385.618C406.875 373.279 426.208 385.588 435.201 404.849L471.018 481.553C474.267 488.511 471.098 496.776 464.03 499.778H497.703C508.152 499.778 515.063 488.924 510.642 479.456L475.804 404.849Z" fill="#6E1E72"/>
<path d="M365.421 440.892L343.904 499.781H105.125V373.275H343.904L365.421 440.892Z" fill="#FFF0FF"/>
<path d="M375.415 424.838L365.421 440.892L375.415 460.242V499.781H343.904V373.275H375.415V424.838Z" fill="#EADAFF"/>
<path d="M101.432 140.799L127.05 319.077C132.535 357.247 167.925 383.744 206.095 378.259L300.575 364.682C338.745 359.197 365.242 323.807 359.757 285.637L334.139 107.359L101.432 140.799Z" fill="#FCE9AC"/>
<path d="M347.156 197.941L352.946 197.109C372.638 194.279 390.895 207.949 393.725 227.641C396.555 247.333 382.885 265.59 363.193 268.42L357.403 269.252L337.717 243.166L347.156 197.941Z" fill="#E9C481"/>
<path d="M360.481 295.652C360.481 329.811 335.374 359.679 300.577 364.682L274.979 368.355C307.118 361.322 329.797 332.741 329.797 300.257C329.797 296.95 329.556 293.611 329.075 290.242L303.383 111.775L334.141 107.359L359.76 285.637C360.241 289.006 360.481 292.345 360.481 295.652Z" fill="#E9C481"/>
<path d="M303.354 191.588C294.362 191.588 286.484 189.342 280.345 184.992C276.809 182.485 275.974 177.586 278.48 174.049C280.986 170.514 285.887 169.677 289.423 172.184C298.124 178.35 312.7 175.307 317.583 173.614C321.673 172.197 326.145 174.35 327.574 178.433C329.003 182.516 326.871 186.982 322.792 188.423C322.537 188.513 316.456 190.638 308.495 191.353C306.746 191.51 305.03 191.588 303.354 191.588Z" fill="#592A54"/>
<path d="M343.907 460.244H105.13V424.842H343.907L352.451 442.543L343.907 460.244Z" fill="#FFD2FF"/>
<path d="M343.907 424.842H375.414V460.244H343.907V424.842Z" fill="#F481F4"/>
<path d="M105.125 373.275V453.88L3.38 494.077C0.304 489.996 0 485.234 0 485.234V435.733C0 401.239 27.964 373.275 62.458 373.275H105.125Z" fill="#6E1E72"/>
<path d="M293.02 127.116C291.302 122.449 284.851 122.103 282.63 126.552C271.074 149.699 243.194 197.005 206.191 202.322C188.959 204.798 177.658 195.03 171.439 186.975C168.769 183.517 163.378 184.208 161.71 188.246C155.547 203.163 141.273 228.346 114.367 231.381C75.8382 235.727 44.9092 140.613 63.0762 98.5457C93.9442 27.0677 196.938 33.9047 276.01 49.0877C278.028 49.4747 280.103 49.3827 282.068 48.7807C291.09 46.0167 320.3 38.9457 347.404 53.0547C379.959 70.0007 379.5 193.744 347.074 197.942C323.277 201.022 302.01 151.54 293.02 127.116Z" fill="#6F4D55"/>
<path d="M347.404 53.0572C328.268 43.0962 308.092 43.6942 294.702 45.8792C301.681 47.1272 308.915 49.3672 316.005 53.0572C343.932 67.5942 347.562 160.716 327.561 189.55C333.709 195.42 340.288 198.822 347.073 197.944C379.5 193.747 379.959 70.0042 347.404 53.0572Z" fill="#592A54"/>
<path d="M147.447 360.792L73.7289 499.783H15.9489C11.7519 499.783 8.64388 498.653 6.36288 497.01C5.15888 496.141 4.17588 495.137 3.37988 494.08L74.9219 373.278L80.2249 364.327C83.3699 359.019 84.4059 352.723 83.1269 346.687L70.8819 288.885C69.8039 283.788 70.1079 278.503 71.7719 273.564L83.9219 237.479L139.012 334.818C144.684 342.634 147.447 351.739 147.447 360.792Z" fill="#FCE9AC"/>
<path d="M156.803 360.791C156.803 371.738 152.763 382.59 144.935 390.984C142.915 393.15 141.356 395.704 140.383 398.498L105.125 499.782H73.7295L108.987 398.498C109.96 395.704 111.52 393.15 113.539 390.984C121.367 382.591 125.407 371.738 125.407 360.791C125.407 351.738 122.644 342.634 116.972 334.816L98.9195 309.929C95.1725 304.749 92.7345 298.731 91.8235 292.399L83.9225 237.476L90.5055 217.948C92.1175 213.165 96.5855 210.109 101.42 210.109C102.425 210.109 103.45 210.235 104.466 210.517C108.882 211.731 112.158 215.446 112.807 219.978L123.22 292.399C124.13 298.731 126.569 304.748 130.316 309.929L148.369 334.816C154.04 342.633 156.803 351.738 156.803 360.791Z" fill="#E9C481"/>
<path d="M304.729 253.412C300.889 253.412 297.532 250.591 296.97 246.678L294.639 230.451C294.023 226.16 297.001 222.182 301.292 221.566C305.575 220.954 309.56 223.927 310.177 228.219L312.508 244.446C313.124 248.737 310.146 252.715 305.855 253.331C305.477 253.385 305.101 253.412 304.729 253.412Z" fill="#592A54"/>
<path d="M168.549 272.98C164.709 272.98 161.352 270.159 160.79 266.246L158.458 250.019C157.842 245.728 160.82 241.75 165.11 241.133C169.401 240.518 173.38 243.494 173.996 247.786L176.328 264.013C176.944 268.304 173.966 272.282 169.676 272.899C169.297 272.953 168.921 272.98 168.549 272.98Z" fill="#592A54"/>
<path d="M264.757 298.091H222.699C218.364 298.091 214.85 294.577 214.85 290.242C214.85 285.907 218.364 282.393 222.699 282.393H264.757C269.092 282.393 272.606 285.907 272.606 290.242C272.606 294.577 269.092 298.091 264.757 298.091Z" fill="#D78172"/>
<path d="M402.439 90.5989C398.296 90.5989 394.939 87.2409 394.939 83.0989C394.939 72.1909 400.79 61.8839 410.208 56.1999C415.31 53.1209 418.068 47.5039 417.41 41.5399C416.647 34.6269 411.072 29.0639 404.156 28.3119C397.449 27.5859 391.168 31.2439 388.552 37.4239C386.939 41.2389 382.538 43.0249 378.723 41.4089C374.909 39.7959 373.123 35.3949 374.738 31.5799C379.952 19.2549 392.427 11.9459 405.775 13.3999C419.627 14.9049 430.791 26.0469 432.32 39.8939C433.607 51.5589 427.97 62.9999 417.959 69.0419C413.013 72.0269 409.939 77.4139 409.939 83.0989C409.939 87.2409 406.582 90.5989 402.439 90.5989Z" fill="#6E1E72"/>
<path d="M457.028 204.088C452.885 204.088 449.528 200.73 449.528 196.588C449.528 185.68 455.379 175.372 464.798 169.688C469.898 166.61 472.657 160.992 471.998 155.028C471.234 148.114 465.661 142.551 458.745 141.8C452.034 141.075 445.756 144.732 443.141 150.911C441.527 154.726 437.124 156.511 433.313 154.897C429.498 153.284 427.712 148.883 429.327 145.068C434.539 132.744 447.014 125.433 460.364 126.888C474.215 128.392 485.378 139.534 486.908 153.381C488.196 165.045 482.559 176.486 472.549 182.529C467.527 185.56 464.528 190.815 464.528 196.587C464.528 200.73 461.171 204.088 457.028 204.088Z" fill="#6E1E72"/>
<path d="M403.323 120.744C407.468 120.744 410.828 117.384 410.828 113.239C410.828 109.094 407.468 105.734 403.323 105.734C399.178 105.734 395.818 109.094 395.818 113.239C395.818 117.384 399.178 120.744 403.323 120.744Z" fill="#6E1E72"/>
<path d="M457.911 234.225C462.056 234.225 465.416 230.865 465.416 226.72C465.416 222.575 462.056 219.215 457.911 219.215C453.766 219.215 450.406 222.575 450.406 226.72C450.406 230.865 453.766 234.225 457.911 234.225Z" fill="#6E1E72"/>
</g>
<defs>
<clipPath id="clip0_654_8791">
<rect width="512" height="512" fill="white" transform="translate(0 0.5)"/>
</clipPath>
</defs>
</svg>
