<svg id="Capa_1" enable-background="new 0 0 512 512" height="300" viewBox="0 0 512 512" width="300" xmlns="http://www.w3.org/2000/svg" version="1.1" xmlns:xlink="http://www.w3.org/1999/xlink" xmlns:svgjs="http://svgjs.dev/svgjs"><g width="100%" height="100%" transform="matrix(1,0,0,1,0,0)"><g><path d="m375.415 499.278h122.288c10.449 0 17.36-10.854 12.939-20.322l-34.838-74.608c-8.994-19.26-28.327-31.57-49.583-31.57h-50.806l-9.999 67.618z" fill="#9b69f2" fill-opacity="1" data-original-color="#62dbfbff" stroke="none" stroke-opacity="1"/><path d="m475.804 404.348c-8.994-19.26-28.327-31.57-49.583-31.57h-40.603c21.257 0 40.59 12.309 49.583 31.57l35.817 76.704c3.249 6.958.08 15.223-6.988 18.225h33.673c10.449 0 17.36-10.854 12.939-20.322z" fill="#4a10a8" fill-opacity="1" data-original-color="#01d0fbff" stroke="none" stroke-opacity="1"/><path d="m365.421 440.393-21.517 58.889h-238.779v-126.506h238.779z" fill="#f4f1ff" fill-opacity="1" data-original-color="#f2fbffff" stroke="none" stroke-opacity="1"/><path d="m375.415 424.339-9.994 16.054 9.994 19.35v39.539h-31.511v-126.506h31.511z" fill="#eadaff" fill-opacity="1" data-original-color="#dff6fdff" stroke="none" stroke-opacity="1"/><path d="m101.432 140.298 25.618 178.278c5.485 38.17 40.875 64.667 79.045 59.182l94.48-13.577c38.17-5.485 64.667-40.875 59.182-79.045l-25.618-178.278z" fill="#ffe5c2" fill-opacity="1" data-original-color="#ffe5c2ff" stroke="none" stroke-opacity="1"/><path d="m347.156 197.442 5.79-.832c19.692-2.83 37.949 10.84 40.779 30.532 2.83 19.692-10.84 37.949-30.532 40.779l-5.79.832-19.686-26.086z" fill="#fed2a4" fill-opacity="1" data-original-color="#fed2a4ff" stroke="none" stroke-opacity="1"/><path d="m360.481 295.153c0 34.159-25.107 64.027-59.904 69.03l-25.598 3.673c32.139-7.033 54.818-35.614 54.818-68.098 0-3.307-.241-6.646-.722-10.015l-25.692-178.467 30.758-4.416 25.619 178.278c.481 3.369.721 6.708.721 10.015z" fill="#fed2a4" fill-opacity="1" data-original-color="#fed2a4ff" stroke="none" stroke-opacity="1"/><g><g><path d="m303.354 191.089c-8.992 0-16.87-2.246-23.009-6.596-3.536-2.507-4.371-7.406-1.865-10.943 2.506-3.535 7.407-4.372 10.943-1.865 8.701 6.166 23.277 3.123 28.16 1.43 4.09-1.417 8.562.736 9.991 4.819s-.703 8.549-4.782 9.99c-.255.09-6.336 2.215-14.297 2.93-1.749.157-3.465.235-5.141.235z" fill="#592a54" fill-opacity="1" data-original-color="#7a6d79ff" stroke="none" stroke-opacity="1"/></g></g><path d="m343.907 459.744h-238.777v-35.402h238.777l8.544 17.701z" fill="#e9d5ff" fill-opacity="1" data-original-color="#c8effeff" stroke="none" stroke-opacity="1"/><path d="m343.907 424.342h31.507v35.402h-31.507z" fill="#d2b0ff" fill-opacity="1" data-original-color="#99e6fcff" stroke="none" stroke-opacity="1"/><path d="m105.125 372.776v80.605l-101.745 40.197c-3.076-4.081-3.38-8.843-3.38-8.843v-49.501c0-34.494 27.964-62.458 62.458-62.458z" fill="#4a10a8" fill-opacity="1" data-original-color="#01d0fbff" stroke="none" stroke-opacity="1"/><path d="m293.02 126.617c-1.718-4.667-8.169-5.013-10.39-.564-11.556 23.147-39.436 70.453-76.439 75.77-17.232 2.476-28.533-7.292-34.752-15.347-2.67-3.458-8.061-2.767-9.729 1.271-6.163 14.917-20.437 40.1-47.343 43.135-38.529 4.346-69.458-90.768-51.291-132.835 30.868-71.478 133.862-64.641 212.934-49.458 2.018.387 4.093.295 6.058-.307 9.022-2.764 38.232-9.835 65.336 4.274 32.555 16.946 32.096 140.689-.33 144.887-23.797 3.08-45.064-46.402-54.054-70.826z" fill="#7c5567" fill-opacity="1" data-original-color="#918291ff" stroke="none" stroke-opacity="1"/><g><path d="m347.404 52.555c-19.136-9.961-39.312-9.363-52.702-7.178 6.979 1.248 14.213 3.488 21.303 7.178 27.927 14.537 31.557 107.659 11.556 136.493 6.148 5.87 12.727 9.272 19.512 8.394 32.427-4.197 32.886-127.94.331-144.887z" fill="#592a54" fill-opacity="1" data-original-color="#7a6d79ff" stroke="none" stroke-opacity="1"/></g><g><path d="m147.447 360.291-73.718 138.991h-57.78c-4.197 0-7.305-1.13-9.586-2.773-1.204-.869-2.187-1.873-2.983-2.93l71.542-120.802 5.303-8.951c3.145-5.308 4.181-11.604 2.902-17.64l-12.245-57.802c-1.078-5.097-.774-10.382.89-15.321l12.15-36.085 55.09 97.339c5.672 7.816 8.435 16.921 8.435 25.974z" fill="#ffe5c2" fill-opacity="1" data-original-color="#ffe5c2ff" stroke="none" stroke-opacity="1"/></g><g><path d="m156.803 360.291c0 10.947-4.04 21.799-11.868 30.193-2.02 2.166-3.579 4.72-4.552 7.514l-35.258 101.284h-31.396l35.258-101.284c.973-2.794 2.533-5.348 4.552-7.514 7.828-8.393 11.868-19.246 11.868-30.193 0-9.053-2.763-18.157-8.435-25.975l-18.053-24.887c-3.747-5.18-6.185-11.198-7.096-17.53l-7.901-54.923 6.583-19.528c1.612-4.783 6.08-7.839 10.915-7.839 1.005 0 2.03.126 3.046.408 4.416 1.214 7.692 4.929 8.341 9.461l10.413 72.421c.91 6.332 3.349 12.349 7.096 17.53l18.053 24.887c5.671 7.817 8.434 16.922 8.434 25.975z" fill="#fed2a4" fill-opacity="1" data-original-color="#fed2a4ff" stroke="none" stroke-opacity="1"/></g><g><path d="m304.729 252.911c-3.84 0-7.197-2.821-7.759-6.734l-2.331-16.227c-.616-4.291 2.362-8.269 6.653-8.885 4.283-.612 8.268 2.361 8.885 6.653l2.331 16.227c.616 4.291-2.362 8.269-6.653 8.885-.378.054-.754.081-1.126.081z" fill="#7c5567" fill-opacity="1" data-original-color="#918291ff" stroke="none" stroke-opacity="1"/></g><g><path d="m168.548 272.48c-3.84 0-7.197-2.821-7.759-6.734l-2.332-16.227c-.616-4.291 2.362-8.269 6.652-8.886 4.291-.615 8.27 2.361 8.886 6.653l2.332 16.227c.616 4.291-2.362 8.269-6.652 8.886-.379.054-.755.081-1.127.081z" fill="#7c5567" fill-opacity="1" data-original-color="#918291ff" stroke="none" stroke-opacity="1"/></g><g><path d="m264.757 297.589h-42.058c-4.335 0-7.849-3.514-7.849-7.849s3.514-7.849 7.849-7.849h42.058c4.335 0 7.849 3.514 7.849 7.849s-3.514 7.849-7.849 7.849z" fill="#fed2a4" fill-opacity="1" data-original-color="#fed2a4ff" stroke="none" stroke-opacity="1"/></g><g><g><g><path d="m402.439 90.101c-4.143 0-7.5-3.358-7.5-7.5 0-10.908 5.851-21.215 15.269-26.899 5.102-3.079 7.86-8.696 7.202-14.66-.763-6.913-6.338-12.476-13.254-13.228-6.707-.726-12.988 2.932-15.604 9.112-1.613 3.815-6.014 5.601-9.829 3.985-3.814-1.613-5.6-6.014-3.985-9.829 5.214-12.325 17.689-19.634 31.037-18.18 13.852 1.505 25.016 12.647 26.545 26.494 1.287 11.665-4.35 23.106-14.361 29.148-4.946 2.985-8.02 8.372-8.02 14.057 0 4.142-3.357 7.5-7.5 7.5z" fill="#4a10a8" fill-opacity="1" data-original-color="#6c7fd8ff" stroke="none" stroke-opacity="1"/></g></g><g><g><path d="m457.028 203.588c-4.143 0-7.5-3.358-7.5-7.5 0-10.908 5.851-21.216 15.27-26.9 5.1-3.078 7.859-8.696 7.2-14.66-.764-6.914-6.337-12.477-13.253-13.228-6.711-.725-12.989 2.932-15.604 9.111-1.614 3.815-6.017 5.6-9.828 3.986-3.815-1.613-5.601-6.014-3.986-9.829 5.212-12.324 17.687-19.635 31.037-18.18 13.851 1.504 25.014 12.646 26.544 26.493 1.288 11.664-4.349 23.105-14.359 29.148-5.022 3.031-8.021 8.286-8.021 14.058 0 4.143-3.357 7.501-7.5 7.501z" fill="#4a10a8" fill-opacity="1" data-original-color="#6c7fd8ff" stroke="none" stroke-opacity="1"/></g></g><g fill="#6c7fd8"><circle cx="403.323" cy="112.74" r="7.505" fill="#4a10a8" fill-opacity="1" data-original-color="#6c7fd8ff" stroke="none" stroke-opacity="1"/><circle cx="457.911" cy="226.221" r="7.505" fill="#4a10a8" fill-opacity="1" data-original-color="#6c7fd8ff" stroke="none" stroke-opacity="1"/></g></g></g></g></svg>