<svg id="Capa_1" enable-background="new 0 0 512 512" height="300" viewBox="0 0 512 512" width="300" xmlns="http://www.w3.org/2000/svg" version="1.1" xmlns:xlink="http://www.w3.org/1999/xlink" xmlns:svgjs="http://svgjs.dev/svgjs"><g width="100%" height="100%" transform="matrix(1,0,0,1,0,0)"><g><circle cx="256" cy="256" fill="#fd8087" r="256" fill-opacity="1" data-original-color="#fd8087ff" stroke="none" stroke-opacity="1"/><path d="m270.835 511.577c-4.914.279-9.859.423-14.835.423-141.382 0-256-114.618-256-256s114.618-256 256-256c4.976 0 9.921.144 14.835.422-134.48 7.686-241.166 119.172-241.166 255.578s106.686 247.892 241.166 255.577z" fill="#fe646f" fill-opacity="1" data-original-color="#fe646fff" stroke="none" stroke-opacity="1"/><circle cx="256" cy="256" fill="#fff7f2" r="214.793" fill-opacity="1" data-original-color="#eef5f6ff" stroke="none" stroke-opacity="1"/><path d="m286.689 468.599c-10.024 1.452-20.274 2.194-30.689 2.194-118.44 0-214.793-96.353-214.793-214.793s96.353-214.793 214.793-214.793c10.415 0 20.665.742 30.689 2.194-103.955 14.917-184.114 104.574-184.114 212.599s80.159 197.682 184.114 212.599z" fill="#f7e7e0" fill-opacity="1" data-original-color="#dedbeeff" stroke="none" stroke-opacity="1"/><g><path d="m305.365 256 52.758-52.758c13.632-13.632 13.632-35.733 0-49.365-13.631-13.631-35.734-13.631-49.365 0l-52.758 52.758-52.758-52.758c-13.631-13.631-35.733-13.631-49.365 0-13.632 13.632-13.632 35.734 0 49.365l52.758 52.758-52.758 52.758c-13.632 13.632-13.632 35.733 0 49.365 6.816 6.816 15.75 10.224 24.683 10.224s17.867-3.408 24.682-10.224l52.758-52.759 52.758 52.758c6.815 6.816 15.749 10.224 24.682 10.224s17.867-3.408 24.682-10.224c13.632-13.632 13.632-35.733 0-49.365z" fill="#fd8087" fill-opacity="1" data-original-color="#fd8087ff" stroke="none" stroke-opacity="1"/><g fill="#fe646f"><path d="m273.759 224.393 70.517-70.517c2.119-2.119 4.459-3.868 6.923-5.328-13.391-7.934-30.929-6.184-42.441 5.328l-52.758 52.759z" fill="#fe646f" fill-opacity="1" data-original-color="#fe646fff" stroke="none" stroke-opacity="1"/><path d="m344.276 358.122-70.517-70.517-17.759 17.759 52.758 52.758c6.815 6.816 15.749 10.224 24.682 10.224 6.156 0 12.296-1.659 17.759-4.895-2.464-1.46-4.805-3.21-6.923-5.329z" fill="#fe646f" fill-opacity="1" data-original-color="#fe646fff" stroke="none" stroke-opacity="1"/><path d="m189.395 358.122c-13.632-13.632-13.632-35.733 0-49.365l52.758-52.757-52.758-52.758c-13.632-13.632-13.632-35.733 0-49.365 2.119-2.119 4.46-3.868 6.924-5.328-13.39-7.933-30.928-6.184-42.442 5.328-13.632 13.632-13.632 35.734 0 49.365l52.758 52.758-52.758 52.758c-13.632 13.632-13.632 35.733 0 49.365 6.816 6.816 15.75 10.224 24.683 10.224 6.156 0 12.296-1.658 17.759-4.895-2.465-1.461-4.805-3.211-6.924-5.33z" fill="#fe646f" fill-opacity="1" data-original-color="#fe646fff" stroke="none" stroke-opacity="1"/></g></g></g></g></svg>