<svg width="512" height="513" viewBox="0 0 512 513" fill="none" xmlns="http://www.w3.org/2000/svg">
<g clip-path="url(#clip0_654_8830)">
<path d="M256 512.5C397.385 512.5 512 397.885 512 256.5C512 115.115 397.385 0.5 256 0.5C114.615 0.5 0 115.115 0 256.5C0 397.885 114.615 512.5 256 512.5Z" fill="#FF5F5F"/>
<path d="M270.835 512.077C265.921 512.356 260.976 512.5 256 512.5C114.618 512.5 0 397.882 0 256.5C0 115.118 114.618 0.5 256 0.5C260.976 0.5 265.921 0.644 270.835 0.922C136.355 8.608 29.669 120.094 29.669 256.5C29.669 392.906 136.355 504.392 270.835 512.077Z" fill="#BD2727"/>
<path d="M256 471.293C374.626 471.293 470.793 375.127 470.793 256.5C470.793 137.873 374.626 41.707 256 41.707C137.373 41.707 41.2065 137.873 41.2065 256.5C41.2065 375.127 137.373 471.293 256 471.293Z" fill="#FFF7F2"/>
<path d="M286.689 469.099C276.665 470.551 266.415 471.293 256 471.293C137.56 471.293 41.2065 374.94 41.2065 256.5C41.2065 138.06 137.56 41.707 256 41.707C266.415 41.707 276.665 42.449 286.689 43.901C182.734 58.818 102.575 148.475 102.575 256.5C102.575 364.525 182.734 454.182 286.689 469.099Z" fill="#F7E7E0"/>
<path d="M305.365 256.499L358.123 203.741C371.755 190.109 371.755 168.008 358.123 154.376C344.492 140.745 322.389 140.745 308.758 154.376L256 207.134L203.242 154.376C189.611 140.745 167.509 140.745 153.877 154.376C140.245 168.008 140.245 190.11 153.877 203.741L206.635 256.499L153.877 309.257C140.245 322.889 140.245 344.99 153.877 358.622C160.693 365.438 169.627 368.846 178.56 368.846C187.493 368.846 196.427 365.438 203.242 358.622L256 305.863L308.758 358.621C315.573 365.437 324.507 368.845 333.44 368.845C342.373 368.845 351.307 365.437 358.122 358.621C371.754 344.989 371.754 322.888 358.122 309.256L305.365 256.499Z" fill="#FF5F5F"/>
<path d="M273.759 224.891L344.276 154.374C346.395 152.255 348.735 150.506 351.199 149.046C337.808 141.112 320.27 142.862 308.758 154.374L256 207.133L273.759 224.891Z" fill="#BD2727"/>
<path d="M344.276 358.619L273.759 288.102L256 305.861L308.758 358.619C315.573 365.435 324.507 368.843 333.44 368.843C339.596 368.843 345.736 367.184 351.199 363.948C348.735 362.488 346.394 360.738 344.276 358.619Z" fill="#BD2727"/>
<path d="M189.395 358.618C175.763 344.986 175.763 322.885 189.395 309.253L242.153 256.496L189.395 203.738C175.763 190.106 175.763 168.005 189.395 154.373C191.514 152.254 193.855 150.505 196.319 149.045C182.929 141.112 165.391 142.861 153.877 154.373C140.245 168.005 140.245 190.107 153.877 203.738L206.635 256.496L153.877 309.254C140.245 322.886 140.245 344.987 153.877 358.619C160.693 365.435 169.627 368.843 178.56 368.843C184.716 368.843 190.856 367.185 196.319 363.948C193.854 362.487 191.514 360.737 189.395 358.618Z" fill="#BD2727"/>
</g>
<defs>
<clipPath id="clip0_654_8830">
<rect width="512" height="512" fill="white" transform="translate(0 0.5)"/>
</clipPath>
</defs>
</svg>
