<svg width="512" height="513" viewBox="0 0 512 513" fill="none" xmlns="http://www.w3.org/2000/svg">
<path d="M440.401 97.7643C367.358 64.8953 309.782 100.14 279.493 127.319C266.113 139.325 245.888 139.325 232.508 127.319C202.219 100.14 144.643 64.8943 71.6001 97.7643C-58.1649 156.158 -16.6649 373.13 238.175 492.878C249.47 498.185 262.533 498.185 273.827 492.878C528.666 373.13 570.165 156.158 440.401 97.7643Z" fill="#FF5F5F"/>
<path d="M440.4 97.76C427.092 91.769 414.288 88.038 402.074 86.123C496.734 139.757 483.024 288.175 340 404.04L268.496 332.515H247.439L142.886 437.078C157.247 447.524 172.73 457.63 189.357 467.314C189.357 467.314 231.416 425.222 248.71 407.899C252.736 403.867 259.26 403.869 263.284 407.903C269.196 413.83 277.562 422.21 283.926 428.584C288.646 433.311 287.689 441.207 281.978 444.672C261.004 457.398 238.136 469.433 213.327 480.555C221.376 484.772 229.658 488.887 238.18 492.892C249.472 498.198 262.534 498.193 273.826 492.887C528.66 373.125 570.166 156.152 440.4 97.76Z" fill="#BD2727"/>
<path d="M429.245 385.115C405.201 410.045 375.768 434.141 340.773 456.311L272.287 387.825C261.862 377.388 256 363.244 256 348.502V245.329C256 227.651 265.529 212.219 279.715 203.844L281.827 132.731C281.992 127.168 281.096 121.626 279.169 116.403L258.05 58.9898C256.7 55.3118 256.062 51.5928 256.062 47.9568C256.062 31.0718 269.722 16.1348 287.956 16.1348C294.704 16.1348 300.741 20.2968 303.161 26.5908L335.591 111.251C337.713 116.793 339.104 122.593 339.712 128.496L357.256 297.353C358.441 308.737 363.499 319.368 371.596 327.465L429.245 385.115Z" fill="#FDD1A7"/>
<path d="M429.245 385.115C405.201 410.045 375.768 434.141 340.773 456.311L272.287 387.825C261.862 377.388 256 363.244 256 348.502V245.329C256 228.588 264.546 213.86 277.5 205.233C278.888 204.308 279.746 202.774 279.796 201.107L281.827 132.73C281.992 127.167 281.096 121.625 279.169 116.402L258.05 58.9898C256.7 55.3118 256.062 51.5928 256.062 47.9568C256.062 31.0718 269.722 16.1348 287.956 16.1348C294.704 16.1348 300.741 20.2968 303.161 26.5908L335.591 111.251C337.713 116.793 339.104 122.593 339.712 128.496L357.256 297.353C358.441 308.737 363.499 319.368 371.596 327.465L429.245 385.115Z" fill="#FDD1A7"/>
<path d="M371.597 327.466C363.51 319.379 358.442 308.737 357.257 297.364L339.723 128.507C339.105 122.594 337.724 116.794 335.592 111.251L303.162 26.5908C300.741 20.2968 294.704 16.1348 287.957 16.1348C272.844 16.1348 260.894 26.3848 257.237 39.4988C259.915 38.7568 262.759 38.3658 265.715 38.3658C272.452 38.3658 278.51 42.5278 280.92 48.8328L313.35 133.483C315.482 139.036 316.863 144.825 317.481 150.739L335.015 319.596C336.2 330.979 341.258 341.601 349.355 349.708L364.362 364.715C369.476 369.829 369.364 378.176 364.077 383.112C348.228 397.912 330.412 412.328 310.579 426.115L340.774 456.31C375.769 434.14 405.202 410.045 429.246 385.114L371.597 327.466Z" fill="#FFBC8A"/>
<path d="M328.823 205.857V316.818C328.823 321.083 325.362 324.544 321.097 324.544C316.822 324.544 313.371 321.083 313.371 316.818V205.857C313.371 200.778 309.24 196.647 304.161 196.647C295.6 196.647 286.483 199.439 278.602 204.239C279.333 203.374 279.766 202.271 279.797 201.107L280.24 186.169C287.987 182.955 296.197 181.193 304.161 181.193C317.759 181.195 328.823 192.259 328.823 205.857Z" fill="#F5A871"/>
<path d="M256 245.329V348.502C256 363.244 250.138 377.388 239.713 387.824L171.227 456.31C136.232 434.14 106.799 410.045 82.7551 385.114L140.404 327.465C148.491 319.368 153.559 308.736 154.744 297.353L172.278 128.496C172.896 122.593 174.287 116.793 176.409 111.251L208.839 26.5908C211.25 20.2968 217.297 16.1348 224.044 16.1348C242.278 16.1348 255.928 31.0728 255.928 47.9468C255.928 51.5838 255.3 55.3028 253.94 58.9908L232.832 116.403C230.906 121.626 230.009 127.168 230.174 132.731L232.195 201.106C232.244 202.774 233.103 204.309 234.492 205.234C247.454 213.861 256 228.588 256 245.329Z" fill="#FDD1A7"/>
<path d="M256 245.329V348.502C256 363.254 250.149 377.399 239.713 387.814L171.227 456.311H171.217C163.316 451.304 155.702 446.195 148.368 441.002L204.976 384.383C215.412 373.968 221.263 359.823 221.263 345.082V241.899C221.263 225.157 212.726 210.43 199.755 201.803C198.365 200.879 197.506 199.343 197.457 197.675L195.426 129.3C195.261 123.737 196.168 118.195 198.084 112.982L219.213 55.5598C220.563 51.8818 221.201 48.1628 221.201 44.5368C221.201 35.8828 217.616 27.7448 211.662 21.8728C214.68 18.2978 219.172 16.1348 224.045 16.1348C242.279 16.1348 255.929 31.0728 255.929 47.9568C255.929 51.5828 255.301 55.3128 253.941 58.9898L232.833 116.402C230.907 121.625 230.01 127.167 230.165 132.73L232.196 201.106C232.246 202.774 233.104 204.309 234.493 205.233C247.454 213.86 256 228.588 256 245.329Z" fill="#FFBC8A"/>
<path d="M233.377 204.229C225.496 199.439 216.389 196.647 207.829 196.647C202.761 196.647 198.629 200.778 198.629 205.857V316.818C198.629 321.083 195.168 324.544 190.903 324.544C186.638 324.544 183.177 321.083 183.177 316.818V205.856C183.177 192.258 194.241 181.193 207.829 181.193C215.792 181.193 224.003 182.955 231.75 186.169L232.193 201.107C232.223 202.271 232.656 203.363 233.377 204.229Z" fill="#FFBC8A"/>
<path d="M233.377 204.23C225.496 199.44 216.389 196.648 207.829 196.648C204.254 196.648 201.143 198.708 199.618 201.706C198.31 200.779 197.506 199.295 197.455 197.678L197.043 183.678C200.309 182.092 203.966 181.195 207.829 181.195C215.792 181.195 224.003 182.957 231.75 186.171L232.193 201.109C232.223 202.272 232.656 203.364 233.377 204.23Z" fill="#F5A871"/>
<path d="M392.807 202.872C388.97 202.872 385.643 200.016 385.151 196.11C384.618 191.876 387.618 188.012 391.851 187.478L402.654 186.117C406.89 185.588 410.753 188.583 411.286 192.818C411.819 197.051 408.819 200.916 404.586 201.449L393.783 202.81C393.455 202.852 393.129 202.872 392.807 202.872Z" fill="#EAF6FF"/>
<path d="M384.738 176.476C382.453 176.476 380.192 175.467 378.667 173.534C376.024 170.184 376.598 165.326 379.948 162.683L388.592 155.864C391.943 153.221 396.801 153.795 399.444 157.145C402.087 160.495 401.513 165.353 398.163 167.996L389.519 174.815C388.102 175.933 386.413 176.476 384.738 176.476Z" fill="#EAF6FF"/>
<path d="M401.607 234.911C400.561 234.911 399.498 234.697 398.48 234.246L388.413 229.784C384.512 228.055 382.751 223.491 384.48 219.59C386.208 215.688 390.772 213.927 394.674 215.657L404.741 220.119C408.642 221.848 410.403 226.412 408.674 230.313C407.396 233.197 404.569 234.911 401.607 234.911Z" fill="#EAF6FF"/>
<path d="M119.193 202.873C118.871 202.873 118.546 202.853 118.218 202.812L107.415 201.451C103.182 200.918 100.182 197.053 100.715 192.82C101.249 188.587 105.118 185.589 109.346 186.119L120.149 187.48C124.382 188.014 127.382 191.878 126.849 196.112C126.358 200.017 123.03 202.873 119.193 202.873Z" fill="#EAF6FF"/>
<path d="M127.261 176.476C125.585 176.476 123.898 175.933 122.48 174.815L113.837 167.996C110.487 165.353 109.914 160.495 112.557 157.144C115.2 153.795 120.058 153.221 123.409 155.864L132.052 162.683C135.402 165.326 135.975 170.185 133.332 173.535C131.807 175.467 129.545 176.476 127.261 176.476Z" fill="#EAF6FF"/>
<path d="M110.393 234.911C107.43 234.911 104.603 233.197 103.326 230.313C101.597 226.412 103.357 221.848 107.259 220.119L117.326 215.657C121.227 213.928 125.792 215.689 127.52 219.59C129.249 223.491 127.489 228.055 123.587 229.784L113.52 234.246C112.502 234.698 111.439 234.911 110.393 234.911Z" fill="#EAF6FF"/>
</svg>
