<svg id="Capa_1" enable-background="new 0 0 512 512" height="512" viewBox="0 0 512 512" width="512" xmlns="http://www.w3.org/2000/svg"><g><g><g><g><g><g><g><path d="m440.401 97.263c-73.043-32.869-130.619 2.376-160.908 29.555-13.38 12.006-33.605 12.006-46.985 0-30.289-27.179-87.865-62.425-160.908-29.555-129.765 58.394-88.265 275.366 166.575 395.114 11.295 5.307 24.358 5.307 35.652 0 254.839-119.748 296.338-336.72 166.574-395.114z" fill="#fc95bb"/></g><path d="m440.4 97.258c-13.308-5.991-26.112-9.722-38.326-11.637 94.66 53.634 80.95 202.052-62.074 317.917l-71.504-71.525h-21.057l-104.553 104.563c14.361 10.446 29.844 20.552 46.471 30.236 0 0 42.059-42.092 59.353-59.415 4.026-4.032 10.55-4.03 14.574.004 5.912 5.927 14.278 14.307 20.642 20.681 4.72 4.727 3.763 12.623-1.948 16.088-20.974 12.726-43.842 24.761-68.651 35.883 8.049 4.217 16.331 8.332 24.853 12.337 11.292 5.306 24.354 5.301 35.646-.005 254.834-119.762 296.34-336.735 166.574-395.127z" fill="#fc78a8"/></g></g></g><g><g><path d="m429.245 384.614c-24.044 24.93-53.477 49.026-88.472 71.196l-68.486-68.486c-10.425-10.437-16.287-24.581-16.287-39.323v-103.173c0-17.678 9.529-33.11 23.715-41.485l2.112-71.113c.165-5.563-.731-11.105-2.658-16.328l-21.119-57.413c-1.35-3.678-1.988-7.397-1.988-11.033 0-16.885 13.66-31.822 31.894-31.822 6.748 0 12.785 4.162 15.205 10.456l32.43 84.66c2.122 5.542 3.513 11.342 4.121 17.245l17.544 168.857c1.185 11.384 6.243 22.015 14.34 30.112z" fill="#fdd1a7"/><path d="m429.245 384.614c-24.044 24.93-53.477 49.026-88.472 71.196l-68.486-68.486c-10.425-10.437-16.287-24.581-16.287-39.323v-103.173c0-16.741 8.546-31.469 21.5-40.096 1.388-.925 2.246-2.459 2.296-4.126l2.031-68.377c.165-5.563-.731-11.105-2.658-16.328l-21.119-57.412c-1.35-3.678-1.988-7.397-1.988-11.033 0-16.885 13.66-31.822 31.894-31.822 6.748 0 12.785 4.162 15.205 10.456l32.43 84.66c2.122 5.542 3.513 11.342 4.121 17.245l17.544 168.857c1.185 11.384 6.243 22.015 14.34 30.112z" fill="#fdd1a7"/><path d="m371.597 326.965c-8.087-8.087-13.155-18.729-14.34-30.102l-17.534-168.857c-.618-5.913-1.999-11.713-4.131-17.256l-32.43-84.66c-2.421-6.294-8.458-10.456-15.205-10.456-15.113 0-27.063 10.25-30.72 23.364 2.678-.742 5.522-1.133 8.478-1.133 6.737 0 12.795 4.162 15.205 10.467l32.43 84.65c2.132 5.553 3.513 11.342 4.131 17.256l17.534 168.857c1.185 11.383 6.243 22.005 14.34 30.112l15.007 15.007c5.114 5.114 5.002 13.461-.285 18.397-15.849 14.8-33.665 29.216-53.498 43.003l30.195 30.195c34.995-22.17 64.428-46.265 88.472-71.196z" fill="#ffbc8a"/><g><g><path d="m328.823 205.356v110.961c0 4.265-3.461 7.726-7.726 7.726-4.275 0-7.726-3.461-7.726-7.726v-110.961c0-5.079-4.131-9.21-9.21-9.21-8.561 0-17.678 2.792-25.559 7.592.731-.865 1.164-1.968 1.195-3.132l.443-14.938c7.747-3.214 15.957-4.976 23.921-4.976 13.598.002 24.662 11.066 24.662 24.664z" fill="#f5a871"/></g></g></g><g><path d="m256 244.828v103.173c0 14.742-5.862 28.886-16.287 39.322l-68.486 68.486c-34.995-22.17-64.428-46.265-88.472-71.196l57.649-57.649c8.087-8.097 13.155-18.729 14.34-30.112l17.534-168.857c.618-5.903 2.009-11.703 4.131-17.245l32.43-84.66c2.411-6.294 8.458-10.456 15.205-10.456 18.234 0 31.884 14.938 31.884 31.812 0 3.637-.628 7.356-1.988 11.044l-21.108 57.412c-1.926 5.223-2.823 10.765-2.658 16.328l2.021 68.375c.049 1.668.908 3.203 2.297 4.128 12.962 8.627 21.508 23.354 21.508 40.095z" fill="#fdd1a7"/><path d="m256 244.828v103.173c0 14.752-5.851 28.897-16.287 39.312l-68.486 68.497h-.01c-7.901-5.007-15.515-10.116-22.849-15.309l56.608-56.619c10.436-10.415 16.287-24.56 16.287-39.301v-103.183c0-16.742-8.537-31.469-21.508-40.096-1.39-.924-2.249-2.46-2.298-4.128l-2.031-68.375c-.165-5.563.742-11.105 2.658-16.318l21.129-57.422c1.35-3.678 1.988-7.397 1.988-11.023 0-8.654-3.585-16.792-9.539-22.664 3.018-3.575 7.51-5.738 12.383-5.738 18.234 0 31.884 14.938 31.884 31.822 0 3.626-.628 7.356-1.988 11.033l-21.108 57.412c-1.926 5.223-2.823 10.765-2.668 16.328l2.031 68.376c.05 1.668.908 3.203 2.297 4.127 12.961 8.627 21.507 23.355 21.507 40.096z" fill="#ffbc8a"/><g><g><path d="m233.377 203.729c-7.881-4.79-16.988-7.582-25.548-7.582-5.068 0-9.2 4.131-9.2 9.21v110.961c0 4.265-3.461 7.726-7.726 7.726s-7.726-3.461-7.726-7.726v-110.962c0-13.598 11.064-24.663 24.652-24.663 7.963 0 16.174 1.762 23.921 4.976l.443 14.938c.03 1.164.463 2.256 1.184 3.122z" fill="#ffbc8a"/></g></g><g><g><path d="m233.377 203.729c-7.881-4.79-16.988-7.582-25.548-7.582-3.575 0-6.686 2.06-8.211 5.058-1.308-.927-2.112-2.411-2.163-4.028l-.412-14c3.266-1.586 6.923-2.483 10.786-2.483 7.963 0 16.174 1.762 23.921 4.976l.443 14.938c.03 1.163.463 2.255 1.184 3.121z" fill="#f5a871"/></g></g></g></g></g><g><g><g id="XMLID_177_"><path d="m392.807 202.371c-3.837 0-7.164-2.856-7.656-6.762-.533-4.234 2.467-8.098 6.7-8.632l10.803-1.361c4.236-.529 8.099 2.466 8.632 6.701.533 4.233-2.467 8.098-6.7 8.631l-10.803 1.361c-.328.042-.654.062-.976.062z" fill="#eaf6ff"/></g><g id="XMLID_146_"><path d="m384.738 175.974c-2.285 0-4.546-1.009-6.071-2.942-2.643-3.35-2.069-8.208 1.281-10.851l8.644-6.819c3.351-2.643 8.209-2.069 10.852 1.281s2.069 8.208-1.281 10.851l-8.644 6.819c-1.417 1.118-3.106 1.661-4.781 1.661z" fill="#eaf6ff"/></g><g id="XMLID_126_"><path d="m401.607 234.409c-1.046 0-2.109-.214-3.127-.665l-10.067-4.462c-3.901-1.729-5.662-6.293-3.933-10.194 1.728-3.902 6.292-5.663 10.194-3.933l10.067 4.462c3.901 1.729 5.662 6.293 3.933 10.194-1.278 2.884-4.105 4.598-7.067 4.598z" fill="#eaf6ff"/></g></g><g><g id="XMLID_192_"><path d="m119.193 202.371c-.322 0-.647-.02-.975-.061l-10.803-1.361c-4.233-.533-7.233-4.398-6.7-8.631.534-4.233 4.403-7.231 8.631-6.701l10.803 1.361c4.233.534 7.233 4.398 6.7 8.632-.491 3.905-3.819 6.761-7.656 6.761z" fill="#eaf6ff"/></g><g id="XMLID_183_"><path d="m127.261 175.974c-1.676 0-3.363-.543-4.781-1.661l-8.643-6.819c-3.35-2.643-3.923-7.501-1.28-10.852 2.643-3.349 7.501-3.923 10.852-1.28l8.643 6.819c3.35 2.643 3.923 7.502 1.28 10.852-1.525 1.932-3.787 2.941-6.071 2.941z" fill="#eaf6ff"/></g><g id="XMLID_179_"><path d="m110.393 234.409c-2.963 0-5.79-1.714-7.067-4.598-1.729-3.901.031-8.465 3.933-10.194l10.067-4.462c3.901-1.729 8.466.032 10.194 3.933 1.729 3.901-.031 8.465-3.933 10.194l-10.067 4.462c-1.018.452-2.081.665-3.127.665z" fill="#eaf6ff"/></g></g></g></g></g></svg>