<svg width="512" height="513" viewBox="0 0 512 513" fill="none" xmlns="http://www.w3.org/2000/svg">
<g clip-path="url(#clip0_654_9075)">
<path d="M256.001 512.5C397.386 512.5 512.001 397.885 512.001 256.5C512.001 115.115 397.386 0.5 256.001 0.5C114.616 0.5 0.000976562 115.115 0.000976562 256.5C0.000976562 397.885 114.616 512.5 256.001 512.5Z" fill="#6FD596"/>
<path d="M270.836 512.077C265.922 512.356 260.977 512.5 256.001 512.5C114.619 512.5 0.000976562 397.882 0.000976562 256.5C0.000976562 115.118 114.619 0.5 256.001 0.5C260.977 0.5 265.922 0.644 270.836 0.922C136.356 8.608 29.67 120.094 29.67 256.5C29.67 392.906 136.356 504.392 270.836 512.077Z" fill="#1B8667"/>
<path d="M256.001 471.293C374.628 471.293 470.794 375.127 470.794 256.5C470.794 137.873 374.628 41.707 256.001 41.707C137.374 41.707 41.208 137.873 41.208 256.5C41.208 375.127 137.374 471.293 256.001 471.293Z" fill="#FEFFFA"/>
<path d="M286.69 469.099C276.666 470.551 266.416 471.293 256.001 471.293C137.561 471.293 41.208 374.94 41.208 256.5C41.208 138.06 137.561 41.707 256.001 41.707C266.416 41.707 276.666 42.449 286.69 43.901C182.735 58.818 102.576 148.475 102.576 256.5C102.576 364.525 182.735 454.182 286.69 469.099Z" fill="#E0F2EB"/>
<path d="M242.444 383.156C231.461 383.156 220.977 378.217 213.98 369.584L136.098 273.474C123.357 257.751 125.776 234.677 141.499 221.938C157.217 209.197 180.292 211.614 193.035 227.336L235.759 280.06L303.758 149.564C313.112 131.62 335.244 124.651 353.186 134.002C371.132 143.353 378.1 165.482 368.749 183.428L274.944 363.445C269.238 374.394 258.403 381.733 246.118 382.97C244.891 383.096 243.665 383.156 242.444 383.156Z" fill="#6FD596"/>
<path d="M256.858 306.097L338.424 149.566C341.957 142.789 347.315 137.58 353.58 134.222C353.448 134.151 353.321 134.074 353.188 134.005C335.247 124.654 313.114 131.623 303.76 149.567L235.761 280.063L256.858 306.097Z" fill="#1B8667"/>
<path d="M248.644 369.585L170.762 273.475C158.021 257.752 160.44 234.679 176.163 221.939C177.987 220.46 179.914 219.194 181.909 218.121C169.292 211.351 153.316 212.36 141.499 221.939C125.776 234.679 123.357 257.753 136.098 273.475L213.98 369.585C220.977 378.218 231.461 383.157 242.444 383.157C243.665 383.157 244.891 383.096 246.118 382.973C250.974 382.484 255.596 381.029 259.771 378.787C255.549 376.52 251.752 373.419 248.644 369.585Z" fill="#1B8667"/>
</g>
<defs>
<clipPath id="clip0_654_9075">
<rect width="512" height="512" fill="white" transform="translate(0 0.5)"/>
</clipPath>
</defs>
</svg>
