<svg id="Capa_1" enable-background="new 0 0 512 512" height="300" viewBox="0 0 512 512" width="300" xmlns="http://www.w3.org/2000/svg" version="1.1" xmlns:xlink="http://www.w3.org/1999/xlink" xmlns:svgjs="http://svgjs.dev/svgjs"><g width="100%" height="100%" transform="matrix(1,0,0,1,0,0)"><g><circle cx="256" cy="256" fill="#9be69d" r="256" fill-opacity="1" data-original-color="#9be69dff" stroke="none" stroke-opacity="1"/><path d="m270.835 511.577c-4.914.279-9.859.423-14.835.423-141.382 0-256-114.618-256-256s114.618-256 256-256c4.976 0 9.921.144 14.835.422-134.48 7.686-241.166 119.172-241.166 255.578s106.686 247.892 241.166 255.577z" fill="#6fd7a3" fill-opacity="1" data-original-color="#6fd7a3ff" stroke="none" stroke-opacity="1"/><circle cx="256" cy="256" fill="#f5fef5" r="214.793" fill-opacity="1" data-original-color="#eef5f6ff" stroke="none" stroke-opacity="1"/><path d="m286.689 468.599c-10.024 1.452-20.274 2.194-30.689 2.194-118.44 0-214.793-96.353-214.793-214.793s96.353-214.793 214.793-214.793c10.415 0 20.665.742 30.689 2.194-103.955 14.917-184.114 104.574-184.114 212.599s80.159 197.682 184.114 212.599z" fill="#ddf2ea" fill-opacity="1" data-original-color="#dedbeeff" stroke="none" stroke-opacity="1"/><g><path d="m242.443 382.653c-10.983 0-21.467-4.939-28.464-13.572l-77.882-96.11c-12.741-15.723-10.322-38.797 5.401-51.536 15.718-12.741 38.793-10.324 51.536 5.398l42.724 52.724 67.999-130.496c9.354-17.944 31.486-24.913 49.428-15.562 17.946 9.351 24.914 31.48 15.563 49.426l-93.805 180.017c-5.706 10.949-16.541 18.288-28.826 19.525-1.227.126-2.453.186-3.674.186z" fill="#9be69d" fill-opacity="1" data-original-color="#9be69dff" stroke="none" stroke-opacity="1"/><g fill="#6fd7a3"><path d="m256.856 305.593 81.566-156.531c3.533-6.777 8.891-11.986 15.156-15.344-.132-.071-.259-.148-.392-.217-17.941-9.351-40.074-2.382-49.428 15.562l-67.999 130.496z" fill="#6fd7a3" fill-opacity="1" data-original-color="#6fd7a3ff" stroke="none" stroke-opacity="1"/><path d="m248.643 369.081-77.882-96.11c-12.741-15.723-10.322-38.796 5.401-51.536 1.824-1.479 3.751-2.745 5.746-3.818-12.617-6.77-28.593-5.761-40.41 3.818-15.723 12.74-18.142 35.814-5.401 51.536l77.882 96.11c6.997 8.633 17.481 13.572 28.464 13.572 1.221 0 2.447-.061 3.674-.184 4.856-.489 9.478-1.944 13.653-4.186-4.222-2.267-8.019-5.368-11.127-9.202z" fill="#6fd7a3" fill-opacity="1" data-original-color="#6fd7a3ff" stroke="none" stroke-opacity="1"/></g></g></g></g></svg>