<svg id="Layer_1" enable-background="new 0 0 512 512" height="512" viewBox="0 0 512 512" width="512" xmlns="http://www.w3.org/2000/svg"><g><g><g><path d="m452.112 474.455c20.491 0 34.592-20.803 26.757-39.737-7.09-17.133-17.734-29.622-4.74-58.744 22.961-51.459 10.602-78.75-9.714-111.79-34.441-56.012-9.261-84.62-22.653-133.142-48.223-174.717-323.296-174.728-371.523 0-13.393 48.522 11.788 77.129-22.653 133.142-20.316 33.04-32.675 60.331-9.714 111.79 12.994 29.122 2.35 41.612-4.74 58.744-7.835 18.934 6.266 39.737 26.757 39.737z" fill="#735351"/><path d="m474.129 375.974c22.961-51.459 10.602-78.75-9.714-111.79-34.441-56.012-9.261-84.62-22.653-133.142-25.651-92.932-115.481-136.437-201.217-130.508 75.454 5.217 147.738 48.721 170.312 130.508 13.393 48.522-11.788 77.129 22.653 133.142 20.316 33.04 32.675 60.331 9.714 111.79-12.994 29.122-2.35 41.612 4.74 58.744 7.835 18.934-6.266 39.737-26.757 39.737h30.905c20.491 0 34.592-20.803 26.757-39.737-7.09-17.133-17.734-29.623-4.74-58.744z" fill="#664442"/><g><g><ellipse cx="396.338" cy="271.048" fill="#fac8a2" rx="31.298" ry="31.444"/></g><g><ellipse cx="115.662" cy="271.048" fill="#fac8a2" rx="31.298" ry="31.444"/></g></g><g><path d="m111.533 512v-23.24c0-79.666 64.582-144.248 144.248-144.248h.439c79.666 0 144.248 64.582 144.248 144.248v23.24z" fill="#ff80b3"/><path d="m256.219 344.512h-.439c-5.145 0-10.227.27-15.233.796 72.505 7.61 129.015 68.932 129.015 143.452v23.24h30.905v-23.24c0-79.666-64.582-144.248-144.248-144.248z" fill="#ff6ba7"/><path d="m256.056 454.528h-.111c-20.21 0-36.594-16.384-36.594-36.594v-59.226h73.298v59.226c0 20.21-16.383 36.594-36.593 36.594z" fill="#ffd8ba"/></g><g><path d="m181.344 100.439c-4.633 47.132-28.565 52.383-43.343 57.509-7.086 2.458-11.818 9.18-11.818 16.711v89.116c0 72.03 58.121 130.421 129.818 130.421 71.696 0 129.818-58.392 129.818-130.421v-82.906c0-10.037-8.296-17.981-18.283-17.687-15.63.459-41.584.577-61.692-19.332-25.633-25.379-40.459-16.343-67.21-16.954-33.445-.764-47.285-16.346-52.895-27.297-1.071-2.087-4.165-1.496-4.395.84z" fill="#ffd8ba"/></g></g><g><g><path d="m179.357 199.886c-2.999 0-5.852-1.756-7.107-4.687-1.68-3.923.139-8.464 4.061-10.144.732-.313 18.151-7.622 36.929-2.992 4.143 1.022 6.673 5.208 5.652 9.352-1.023 4.143-5.207 6.673-9.352 5.651-13.593-3.352-27.015 2.138-27.146 2.195-.992.424-2.023.625-3.037.625z" fill="#735351"/></g><g><path d="m332.643 199.886c-1.007 0-2.03-.198-3.015-.616-.291-.12-13.607-5.549-27.168-2.204-4.138 1.022-8.33-1.509-9.352-5.651-1.021-4.143 1.509-8.33 5.652-9.352 18.781-4.633 36.196 2.679 36.929 2.992 3.923 1.68 5.741 6.221 4.061 10.144-1.255 2.931-4.108 4.687-7.107 4.687z" fill="#735351"/></g></g></g><g fill="#f0b07f"><path d="m254.219 356.656c-5.956 0-11.555-2.319-15.768-6.531-3.018-3.017-3.018-7.909-.001-10.927s7.907-3.02 10.927-.001c1.294 1.293 3.013 2.006 4.842 2.006 3.775 0 6.846-3.071 6.846-6.846 0-1.999-.879-3.895-2.413-5.205-1.719-1.468-2.709-3.615-2.709-5.876s.99-4.408 2.709-5.876c1.534-1.31 2.413-3.207 2.413-5.205 0-3.775-3.071-6.846-6.846-6.846-1.986 0-3.872.862-5.175 2.364-2.798 3.223-7.677 3.569-10.899.772-3.223-2.796-3.569-7.676-.773-10.899 4.24-4.886 10.381-7.689 16.847-7.689 12.296 0 22.299 10.003 22.299 22.299 0 3.936-1.038 7.744-2.953 11.081 1.914 3.337 2.953 7.145 2.953 11.081 0 12.295-10.003 22.298-22.299 22.298z"/><path d="m345.76 266.774c-1.623 0-3.259-.509-4.653-1.563-23.012-17.393-55.788-5.754-56.115-5.634-2.931 1.067-6.219.268-8.333-2.03-2.112-2.298-2.635-5.641-1.324-8.473.529-1.144 13.334-28.049 46.039-31.289 4.251-.417 8.03 2.681 8.451 6.927s-2.681 8.03-6.928 8.45c-8.401.832-15.011 3.787-20.062 7.293 14.029-1.046 32.138.749 47.59 12.43 3.404 2.573 4.077 7.418 1.505 10.822-1.52 2.009-3.831 3.067-6.17 3.067z"/><path d="m168.779 266.774c-2.339 0-4.651-1.058-6.17-3.068-2.572-3.404-1.899-8.249 1.505-10.822 15.453-11.68 33.564-13.474 47.592-12.43-5.051-3.505-11.662-6.46-20.065-7.293-4.246-.421-7.348-4.204-6.928-8.45.422-4.246 4.208-7.345 8.451-6.927 32.706 3.24 45.511 30.145 46.04 31.289 1.311 2.832.788 6.176-1.324 8.473-2.113 2.298-5.399 3.097-8.333 2.03-.312-.112-33.246-11.65-56.115 5.634-1.395 1.055-3.031 1.564-4.653 1.564z"/></g><path d="m364.421 288.724c-8.227.005-15.41 4.453-19.294 11.07-3.892-6.612-11.081-11.051-19.309-11.045-12.359.008-22.371 10.034-22.363 22.393.021 33.059 41.71 46.68 41.71 46.68s41.672-12.04 41.649-46.734c-.008-12.36-10.034-22.372-22.393-22.364z" fill="#e86d6d"/><g><path d="m364.421 288.724c-5.988.004-11.422 2.362-15.435 6.196 4.261 4.071 6.918 9.809 6.922 16.168.013 20.141-14.025 32.647-25.804 39.595 8.176 4.89 15.061 7.139 15.061 7.139s41.672-12.04 41.649-46.734c-.008-12.36-10.034-22.372-22.393-22.364z" fill="#e85151"/></g></g></svg>