<svg width="512" height="513" viewBox="0 0 512 513" fill="none" xmlns="http://www.w3.org/2000/svg">
<g clip-path="url(#clip0_654_8897)">
<path d="M452.112 474.955C472.603 474.955 486.704 454.152 478.869 435.218C471.779 418.085 461.135 405.596 474.129 376.474C497.09 325.015 484.731 297.724 464.415 264.684C429.974 208.672 455.154 180.064 441.762 131.542C393.539 -43.1751 118.466 -43.1861 70.2391 131.542C56.8461 180.064 82.0271 208.671 47.5861 264.684C27.2701 297.724 14.9111 325.015 37.8721 376.474C50.8661 405.596 40.2221 418.086 33.1321 435.218C25.2971 454.152 39.3981 474.955 59.8891 474.955H452.112Z" fill="#1BBEA3"/>
<path d="M474.129 376.473C497.09 325.014 484.731 297.723 464.415 264.683C429.974 208.671 455.154 180.063 441.762 131.541C416.111 38.6093 326.281 -4.89567 240.545 1.03333C315.999 6.25033 388.283 49.7543 410.857 131.541C424.25 180.063 399.069 208.67 433.51 264.683C453.826 297.723 466.185 325.014 443.224 376.473C430.23 405.595 440.874 418.085 447.964 435.217C455.799 454.151 441.698 474.954 421.207 474.954H452.112C472.603 474.954 486.704 454.151 478.869 435.217C471.779 418.084 461.135 405.594 474.129 376.473Z" fill="#158A77"/>
<path d="M396.338 302.992C413.623 302.992 427.636 288.914 427.636 271.548C427.636 254.181 413.623 240.104 396.338 240.104C379.053 240.104 365.04 254.181 365.04 271.548C365.04 288.914 379.053 302.992 396.338 302.992Z" fill="#FAC8A2"/>
<path d="M115.662 302.992C132.948 302.992 146.96 288.914 146.96 271.548C146.96 254.181 132.948 240.104 115.662 240.104C98.3769 240.104 84.3643 254.181 84.3643 271.548C84.3643 288.914 98.3769 302.992 115.662 302.992Z" fill="#FAC8A2"/>
<path d="M111.533 512.5V489.26C111.533 409.594 176.115 345.012 255.781 345.012H256.22C335.886 345.012 400.468 409.594 400.468 489.26V512.5H111.533Z" fill="#FF4277"/>
<path d="M256.219 345.012H255.78C250.635 345.012 245.553 345.282 240.547 345.808C313.052 353.418 369.562 414.74 369.562 489.26V512.5H400.467V489.26C400.467 409.594 335.885 345.012 256.219 345.012Z" fill="#B80E3E"/>
<path d="M256.056 455.027H255.945C235.735 455.027 219.351 438.643 219.351 418.433V359.207H292.649V418.433C292.649 438.643 276.266 455.027 256.056 455.027Z" fill="#FFD8BA"/>
<path d="M181.344 100.938C176.711 148.07 152.779 153.321 138.001 158.447C130.915 160.905 126.183 167.627 126.183 175.158V264.274C126.183 336.304 184.304 394.695 256.001 394.695C327.697 394.695 385.819 336.303 385.819 264.274V181.368C385.819 171.331 377.523 163.387 367.536 163.681C351.906 164.14 325.952 164.258 305.844 144.349C280.211 118.97 265.385 128.006 238.634 127.395C205.189 126.631 191.349 111.049 185.739 100.098C184.668 98.011 181.574 98.602 181.344 100.938Z" fill="#FFD8BA"/>
<path d="M179.357 200.387C176.358 200.387 173.505 198.631 172.25 195.7C170.57 191.777 172.389 187.236 176.311 185.556C177.043 185.243 194.462 177.934 213.24 182.564C217.383 183.586 219.913 187.772 218.892 191.916C217.869 196.059 213.685 198.589 209.54 197.567C195.947 194.215 182.525 199.705 182.394 199.762C181.402 200.186 180.371 200.387 179.357 200.387Z" fill="#754845"/>
<path d="M332.643 200.386C331.636 200.386 330.613 200.188 329.628 199.77C329.337 199.65 316.021 194.221 302.46 197.566C298.322 198.588 294.13 196.057 293.108 191.915C292.087 187.772 294.617 183.585 298.76 182.563C317.541 177.93 334.956 185.242 335.689 185.555C339.612 187.235 341.43 191.776 339.75 195.699C338.495 198.63 335.642 200.386 332.643 200.386Z" fill="#754845"/>
<path d="M254.219 357.155C248.263 357.155 242.664 354.836 238.451 350.624C235.433 347.607 235.433 342.715 238.45 339.697C241.467 336.679 246.357 336.677 249.377 339.696C250.671 340.989 252.39 341.702 254.219 341.702C257.994 341.702 261.065 338.631 261.065 334.856C261.065 332.857 260.186 330.961 258.652 329.651C256.933 328.183 255.943 326.036 255.943 323.775C255.943 321.514 256.933 319.367 258.652 317.899C260.186 316.589 261.065 314.692 261.065 312.694C261.065 308.919 257.994 305.848 254.219 305.848C252.233 305.848 250.347 306.71 249.044 308.212C246.246 311.435 241.367 311.781 238.145 308.984C234.922 306.188 234.576 301.308 237.372 298.085C241.612 293.199 247.753 290.396 254.219 290.396C266.515 290.396 276.518 300.399 276.518 312.695C276.518 316.631 275.48 320.439 273.565 323.776C275.479 327.113 276.518 330.921 276.518 334.857C276.518 347.152 266.515 357.155 254.219 357.155Z" fill="#AB5E42"/>
<path d="M345.76 267.275C344.137 267.275 342.501 266.766 341.107 265.712C318.095 248.319 285.319 259.958 284.992 260.078C282.061 261.145 278.773 260.346 276.659 258.048C274.547 255.75 274.024 252.407 275.335 249.575C275.864 248.431 288.669 221.526 321.374 218.286C325.625 217.869 329.404 220.967 329.825 225.213C330.246 229.459 327.144 233.243 322.897 233.663C314.496 234.495 307.886 237.45 302.835 240.956C316.864 239.91 334.973 241.705 350.425 253.386C353.829 255.959 354.502 260.804 351.93 264.208C350.41 266.217 348.099 267.275 345.76 267.275Z" fill="#AB5E42"/>
<path d="M168.779 267.274C166.44 267.274 164.128 266.216 162.609 264.206C160.037 260.802 160.71 255.957 164.114 253.384C179.567 241.704 197.678 239.91 211.706 240.954C206.655 237.449 200.044 234.494 191.641 233.661C187.395 233.24 184.293 229.457 184.713 225.211C185.135 220.965 188.921 217.866 193.164 218.284C225.87 221.524 238.675 248.429 239.204 249.573C240.515 252.405 239.992 255.749 237.88 258.046C235.767 260.344 232.481 261.143 229.547 260.076C229.235 259.964 196.301 248.426 173.432 265.71C172.037 266.765 170.401 267.274 168.779 267.274Z" fill="#AB5E42"/>
<path d="M364.421 289.225C356.194 289.23 349.011 293.678 345.127 300.295C341.235 293.683 334.046 289.244 325.818 289.25C313.459 289.258 303.447 299.284 303.455 311.643C303.476 344.702 345.165 358.323 345.165 358.323C345.165 358.323 386.837 346.283 386.814 311.589C386.806 299.229 376.78 289.217 364.421 289.225Z" fill="#FF5F5F"/>
<path d="M364.421 289.225C358.433 289.229 352.999 291.587 348.986 295.421C353.247 299.492 355.904 305.23 355.908 311.589C355.921 331.73 341.883 344.236 330.104 351.184C338.28 356.074 345.165 358.323 345.165 358.323C345.165 358.323 386.837 346.283 386.814 311.589C386.806 299.229 376.78 289.217 364.421 289.225Z" fill="#BD2727"/>
</g>
<defs>
<clipPath id="clip0_654_8897">
<rect width="512" height="512" fill="white" transform="translate(0 0.5)"/>
</clipPath>
</defs>
</svg>
