<svg width="512" height="512" viewBox="0 0 512 512" fill="none" xmlns="http://www.w3.org/2000/svg">
<g clip-path="url(#clip0_627_19945)">
<path d="M342.201 86.5425C337.958 86.5425 334.52 83.1044 334.52 78.8613V9.75017C334.52 4.37307 338.899 0 344.282 0C347.402 0 350.258 1.45302 352.114 3.98607C359.018 13.4322 387.278 41.8157 425.363 48.2458C429.545 48.9518 432.364 52.9159 431.657 57.099C430.951 61.281 426.988 64.1021 422.804 63.3931C390.097 57.87 364.222 38.5677 349.879 24.4814V78.8623C349.882 83.1034 346.443 86.5425 342.201 86.5425Z" fill="#AD6400"/>
<path d="M493.867 290.013C493.867 367.355 441.227 441.06 396.331 467.103C387.063 472.469 379.934 480.734 375.213 490.341C369.345 502.272 356.667 510.536 341.981 510.536C327.294 510.536 314.616 502.272 308.748 490.341C304.918 482.558 299.511 475.654 292.67 470.462C291.072 469.243 289.393 468.117 287.642 467.103C242.734 441.06 190.535 367.355 190.535 290.013C190.535 255.286 197.857 222.708 210.648 194.617C226.379 160.053 250.404 132.269 279.295 115.606C289.956 109.461 298.179 99.999 303.658 88.9898C310.519 75.2156 325.195 65.6914 342.196 65.6914C359.206 65.6914 373.882 75.2156 380.733 88.9898C386.222 99.999 394.447 109.462 405.097 115.606C457.47 145.808 493.867 212.539 493.867 290.013Z" fill="#FFDE56"/>
<path d="M415.811 59.5797C416.106 75.255 427.114 104.811 500.107 120.846C503.924 121.685 507.124 117.917 505.712 114.273C497.754 93.7323 473.135 42.6554 426.524 47.5425C420.396 48.1845 415.695 53.4186 415.811 59.5797Z" fill="#99D66A"/>
<path d="M292.67 470.467C291.072 469.248 289.393 468.122 287.642 467.108C242.734 441.064 190.535 367.359 190.535 290.018C190.535 255.29 197.857 222.713 210.648 194.621C285.511 199.895 347.153 259.386 352.98 336.431C357.056 390.402 332.754 439.959 292.67 470.467Z" fill="#E3B90B"/>
<path d="M500.101 120.841C427.113 104.804 416.104 75.2471 415.807 59.5678C415.694 53.4127 420.395 48.1796 426.519 47.5346C428.997 47.2786 431.404 47.1766 433.759 47.2276C434.435 61.7698 444.543 87.0043 500.982 103.237C502.948 107.405 504.515 111.184 505.713 114.267C507.127 117.912 503.921 121.681 500.101 120.841Z" fill="#6C9D48"/>
<path d="M159.706 512.002C244.626 512.002 313.467 443.161 313.467 358.241C313.467 273.321 244.626 204.48 159.706 204.48C74.7863 204.48 5.94531 273.321 5.94531 358.241C5.94531 443.161 74.7863 512.002 159.706 512.002Z" fill="#FFDE56"/>
<path d="M159.706 475.377C224.394 475.377 276.834 422.937 276.834 358.249C276.834 293.561 224.394 241.121 159.706 241.121C95.0181 241.121 42.5781 293.561 42.5781 358.249C42.5781 422.937 95.0181 475.377 159.706 475.377Z" fill="#FFF5CC"/>
<path d="M171.628 474.785C164.203 475.533 156.594 475.584 148.882 474.867C84.4764 468.897 37.1006 411.833 43.0817 347.416C49.0628 282.999 106.126 235.634 170.543 241.615C170.809 241.635 171.086 241.666 171.352 241.697C116.746 247.217 71.9002 290.722 66.6361 347.416C60.675 411.567 107.631 468.415 171.628 474.785Z" fill="#FFEB99"/>
<path d="M154.048 321.309C155.432 325.727 161.692 325.72 163.065 321.3C166.223 311.131 170.271 296.898 173.671 285.254C176.626 275.137 169.041 265.02 158.501 265.02C147.943 265.02 140.356 275.172 143.344 285.298C146.78 296.939 150.867 311.155 154.048 321.309Z" fill="#E9C730"/>
<path d="M98.9688 313.557C109.084 320.266 121.352 328.53 130.317 334.264C134.217 336.759 139.006 332.729 137.217 328.46C133.101 318.639 127.052 305.135 122.172 294.03C117.932 284.381 105.619 281.506 97.5457 288.281C89.4556 295.067 90.1696 307.721 98.9688 313.557Z" fill="#E9C730"/>
<path d="M83.129 363.727C95.1902 362.365 109.9 360.809 120.453 359.439C125.043 358.843 126.122 352.676 122.009 350.556C112.543 345.679 99.2293 339.222 88.3521 333.852C78.9019 329.186 67.6208 334.899 65.7907 345.278C63.9577 355.676 72.6378 364.912 83.129 363.727Z" fill="#E9C730"/>
<path d="M124.565 377.251C114.18 379.599 99.8293 383.211 88.0451 386.089C77.8069 388.589 72.8368 400.216 78.1059 409.344C83.385 418.488 95.9702 419.982 103.246 412.331C111.61 403.534 121.878 392.886 129.082 385.054C132.216 381.648 129.079 376.23 124.565 377.251Z" fill="#E9C730"/>
<path d="M143.681 396.065C137.235 404.539 128.564 416.531 121.385 426.31C115.149 434.807 118.816 446.909 128.721 450.512C138.642 454.123 149.244 447.179 149.899 436.641C150.652 424.526 151.674 409.77 152.158 399.139C152.368 394.514 146.483 392.38 143.681 396.065Z" fill="#E9C730"/>
<path d="M178.897 395.099C176.086 391.421 170.207 393.57 170.428 398.193C170.937 408.828 172.003 423.588 172.791 435.691C173.475 446.209 184.062 453.122 193.966 449.517C203.888 445.906 207.545 433.771 201.273 425.277C194.061 415.514 185.36 403.554 178.897 395.099Z" fill="#E9C730"/>
<path d="M233.309 383.54C221.509 380.695 207.155 377.126 196.77 374.803C192.253 373.793 189.129 379.218 192.271 382.617C199.497 390.437 209.8 401.058 218.185 409.825C225.469 417.441 238.023 415.932 243.293 406.805C248.572 397.661 243.572 386.015 233.309 383.54Z" fill="#E9C730"/>
<path d="M253.635 342.391C251.802 331.993 240.487 326.284 231.033 330.986C220.164 336.391 206.874 342.884 197.426 347.78C193.316 349.91 194.411 356.073 199.002 356.658C209.565 358.004 224.284 359.517 236.343 360.843C246.819 361.995 255.465 352.769 253.635 342.391Z" fill="#E9C730"/>
<path d="M187.468 332.437C196.425 326.678 208.674 318.375 218.762 311.641C227.527 305.79 228.221 293.164 220.148 286.39C212.06 279.603 199.722 282.504 195.503 292.182C190.652 303.308 184.644 316.825 180.553 326.649C178.775 330.921 183.575 334.941 187.468 332.437Z" fill="#E9C730"/>
<path d="M159.72 375.846C168.305 375.846 175.264 368.887 175.264 360.302C175.264 351.717 168.305 344.758 159.72 344.758C151.135 344.758 144.176 351.717 144.176 360.302C144.176 368.887 151.135 375.846 159.72 375.846Z" fill="#E9C730"/>
</g>
<defs>
<clipPath id="clip0_627_19945">
<rect width="512" height="512" fill="white"/>
</clipPath>
</defs>
</svg>
