<svg width="73" height="55" viewBox="0 0 73 55" fill="none" xmlns="http://www.w3.org/2000/svg">
<path d="M68.3866 27.4648L70.508 29.5862L72.6293 27.4649L70.508 25.3435L68.3866 27.4648ZM42.2653 49.3435C41.0937 50.5151 41.0937 52.4146 42.2652 53.5862C43.4368 54.7577 45.3363 54.7577 46.5079 53.5862L42.2653 49.3435ZM46.5079 1.34352C45.3363 0.17195 43.4368 0.171952 42.2653 1.34353C41.0937 2.5151 41.0937 4.41459 42.2653 5.58617L46.5079 1.34352ZM3.75391 24.4648H0.753906V30.4648H3.75391V24.4648ZM66.2653 25.3435L42.2653 49.3435L46.5079 53.5862L70.508 29.5862L66.2653 25.3435ZM42.2653 5.58617L66.2653 29.5862L70.508 25.3435L46.5079 1.34352L42.2653 5.58617ZM68.3866 24.4648H3.75391V30.4648H68.3866V24.4648Z" fill="#FBE0B7"/>
</svg>
