<svg width="16" height="16" viewBox="0 0 16 16" fill="none" xmlns="http://www.w3.org/2000/svg">
<path fill-rule="evenodd" clip-rule="evenodd" d="M2.04843 0.351452C1.57982 -0.117151 0.820062 -0.117151 0.351455 0.351452C-0.117152 0.820054 -0.117152 1.57981 0.351455 2.04841L6.30382 8.00071L0.351455 13.953C-0.117152 14.4216 -0.117152 15.1814 0.351455 15.65C0.820062 16.1186 1.57982 16.1186 2.04843 15.65L8.00079 9.69767L13.9515 15.6484C14.4202 16.117 15.1799 16.117 15.6485 15.6484C16.1171 15.1798 16.1171 14.42 15.6485 13.9514L9.69777 8.00071L15.6485 2.05002C16.1171 1.58141 16.1171 0.821661 15.6485 0.353058C15.1799 -0.115544 14.4202 -0.115544 13.9515 0.353059L8.00079 6.30375L2.04843 0.351452Z" fill="#FFEBD2"/>
</svg>
