<svg width="20" height="22" viewBox="0 0 20 22" fill="none" xmlns="http://www.w3.org/2000/svg">
<path d="M11.5295 0.993033C7.54699 0.362264 3.79369 3.08941 3.16296 7.07169C2.53219 11.0542 5.25909 14.8075 9.24162 15.4382C10.8985 15.7007 12.512 15.3751 13.881 14.6268L18.299 20.7072C18.6041 21.1275 19.1921 21.2206 19.6124 20.9153C20.0324 20.6101 20.1256 20.0219 19.8204 19.6018L15.4025 13.5211C16.5376 12.4504 17.3457 11.0164 17.6082 9.35958C18.2389 5.3773 15.512 1.6238 11.5295 0.993033ZM11.2753 2.59814C14.3726 3.0887 16.4936 6.00809 16.0031 9.10536C15.5125 12.2026 12.5931 14.3239 9.4958 13.8334C6.39853 13.3428 4.2775 10.4232 4.76806 7.32591C5.25862 4.22864 8.17801 2.10758 11.2753 2.59814Z" fill="#26211A"/>
<path d="M2.06137 5.29297C0.924753 5.29297 0 6.21772 0 7.35434V19.1791C0 20.2366 0.924753 21.0968 2.06137 21.0968H13.0553V20.4097H2.06137C1.31647 20.4097 0.687123 19.8459 0.687123 19.1791C0.687123 18.5214 1.29096 18.0047 2.06137 18.0047H13.0553V5.29297H2.06137ZM4.56416 9.07215H5.39912L7.21479 14.3705V14.5691H6.52767V14.4845L6.20415 13.5384H3.75914L3.43562 14.4845V14.5691H2.74849V14.3705L4.56416 9.07215ZM4.98164 9.97399L3.9952 12.8513H5.96808L4.98164 9.97399ZM8.9326 10.4464C9.54867 10.4464 9.96328 10.9295 9.96328 11.6489V13.5384C9.96328 13.7277 10.1176 13.882 10.3068 13.882V14.5691C10.0424 14.5691 9.80217 14.4658 9.61972 14.3008C9.43727 14.4658 9.19704 14.5691 8.9326 14.5691H8.58904C8.02138 14.5691 7.55835 14.1061 7.55835 13.5384V12.8513C7.55835 12.2837 8.02138 11.8206 8.58904 11.8206H8.9326C9.05337 11.8206 9.16893 11.8448 9.27616 11.8836V11.6489C9.27616 11.4141 9.21578 11.1335 8.9326 11.1335C8.76342 11.1335 8.58904 11.1739 8.58904 11.4771H7.90191C7.90191 10.861 8.31653 10.4464 8.9326 10.4464ZM8.58904 12.5078C8.39982 12.5078 8.24548 12.6621 8.24548 12.8513V13.5384C8.24548 13.7277 8.39982 13.882 8.58904 13.882H8.9326C9.12182 13.882 9.27616 13.7277 9.27616 13.5384V12.8513C9.27616 12.6621 9.12182 12.5078 8.9326 12.5078H8.58904Z" fill="#26211A"/>
</svg>
