<svg width="20" height="20" viewBox="0 0 20 20" fill="none" xmlns="http://www.w3.org/2000/svg">
<path d="M6.16781 12.5548C7.57879 11.1438 7.57878 8.85618 6.16781 7.44521C4.75684 6.03424 2.4692 6.03424 1.05823 7.44521C-0.352743 8.85618 -0.352743 11.1438 1.05823 12.5548C2.4692 13.9658 4.75684 13.9658 6.16781 12.5548Z" fill="#FFD8A5"/>
<path d="M6.16781 12.5548C7.57879 11.1438 7.57878 8.85618 6.16781 7.44521C4.75684 6.03424 2.4692 6.03424 1.05823 7.44521C-0.352743 8.85618 -0.352743 11.1438 1.05823 12.5548C2.4692 13.9658 4.75684 13.9658 6.16781 12.5548Z" fill="#26211A"/>
<path d="M12.5548 6.16781C13.9658 4.75684 13.9658 2.4692 12.5548 1.05823C11.1438 -0.352743 8.85618 -0.352744 7.44521 1.05823C6.03424 2.4692 6.03424 4.75684 7.44521 6.16781C8.85618 7.57878 11.1438 7.57879 12.5548 6.16781Z" fill="#FFD8A5"/>
<path d="M12.5548 6.16781C13.9658 4.75684 13.9658 2.4692 12.5548 1.05823C11.1438 -0.352743 8.85618 -0.352744 7.44521 1.05823C6.03424 2.4692 6.03424 4.75684 7.44521 6.16781C8.85618 7.57878 11.1438 7.57879 12.5548 6.16781Z" fill="#26211A"/>
<path d="M12.5548 18.9418C13.9658 17.5308 13.9658 15.2432 12.5548 13.8322C11.1438 12.4212 8.85618 12.4212 7.44521 13.8322C6.03424 15.2432 6.03424 17.5308 7.44521 18.9418C8.85618 20.3527 11.1438 20.3527 12.5548 18.9418Z" fill="#FFD8A5"/>
<path d="M12.5548 18.9418C13.9658 17.5308 13.9658 15.2432 12.5548 13.8322C11.1438 12.4212 8.85618 12.4212 7.44521 13.8322C6.03424 15.2432 6.03424 17.5308 7.44521 18.9418C8.85618 20.3527 11.1438 20.3527 12.5548 18.9418Z" fill="#26211A"/>
<path d="M18.9418 12.5548C20.3527 11.1438 20.3527 8.85618 18.9418 7.44521C17.5308 6.03424 15.2432 6.03424 13.8322 7.44521C12.4212 8.85618 12.4212 11.1438 13.8322 12.5548C15.2432 13.9658 17.5308 13.9658 18.9418 12.5548Z" fill="#FFD8A5"/>
<path d="M18.9418 12.5548C20.3527 11.1438 20.3527 8.85618 18.9418 7.44521C17.5308 6.03424 15.2432 6.03424 13.8322 7.44521C12.4212 8.85618 12.4212 11.1438 13.8322 12.5548C15.2432 13.9658 17.5308 13.9658 18.9418 12.5548Z" fill="#26211A"/>
</svg>
