<svg width="20" height="21" viewBox="0 0 20 21" fill="none" xmlns="http://www.w3.org/2000/svg">
<path d="M11.5295 0.0906894C7.54699 -0.54008 3.79369 2.18706 3.16296 6.16934C2.53219 10.1519 5.25909 13.9051 9.24162 14.5359C10.8985 14.7983 12.512 14.4728 13.881 13.7244L18.299 19.8049C18.6041 20.2252 19.1921 20.3183 19.6124 20.0129C20.0324 19.7078 20.1256 19.1195 19.8204 18.6995L15.4025 12.6188C16.5376 11.548 17.3457 10.1141 17.6082 8.45724C18.2389 4.47496 15.512 0.721459 11.5295 0.0906894ZM11.2753 1.69579C14.3726 2.18635 16.4936 5.10574 16.0031 8.20302C15.5125 11.3003 12.5931 13.4216 9.4958 12.931C6.39853 12.4405 4.2775 9.52084 4.76806 6.42357C5.25862 3.32629 8.17801 1.20523 11.2753 1.69579Z" fill="white"/>
<path d="M2.06137 4.39062C0.924753 4.39062 0 5.31538 0 6.45199V18.2768C0 19.3342 0.924753 20.1945 2.06137 20.1945H13.0553V19.5073H2.06137C1.31647 19.5073 0.687123 18.9436 0.687123 18.2768C0.687123 17.619 1.29096 17.1024 2.06137 17.1024H13.0553V4.39062H2.06137ZM4.56416 8.1698H5.39912L7.21479 13.4682V13.6668H6.52767V13.5822L6.20415 12.6361H3.75914L3.43562 13.5822V13.6668H2.74849V13.4682L4.56416 8.1698ZM4.98164 9.07165L3.9952 11.949H5.96808L4.98164 9.07165ZM8.9326 9.54405C9.54867 9.54405 9.96328 10.0271 9.96328 10.7465V12.6361C9.96328 12.8253 10.1176 12.9797 10.3068 12.9797V13.6668C10.0424 13.6668 9.80217 13.5635 9.61972 13.3984C9.43727 13.5635 9.19704 13.6668 8.9326 13.6668H8.58904C8.02138 13.6668 7.55835 13.2038 7.55835 12.6361V11.949C7.55835 11.3813 8.02138 10.9183 8.58904 10.9183H8.9326C9.05337 10.9183 9.16893 10.9425 9.27616 10.9813V10.7465C9.27616 10.5117 9.21578 10.2312 8.9326 10.2312C8.76342 10.2312 8.58904 10.2715 8.58904 10.5747H7.90191C7.90191 9.95866 8.31653 9.54405 8.9326 9.54405ZM8.58904 11.6054C8.39982 11.6054 8.24548 11.7598 8.24548 11.949V12.6361C8.24548 12.8253 8.39982 12.9797 8.58904 12.9797H8.9326C9.12182 12.9797 9.27616 12.8253 9.27616 12.6361V11.949C9.27616 11.7598 9.12182 11.6054 8.9326 11.6054H8.58904Z" fill="white"/>
</svg>
