<svg width="20" height="20" viewBox="0 0 20 20" fill="none" xmlns="http://www.w3.org/2000/svg">
<path d="M10.7089 0.29279L19.709 9.29289C20.339 9.92289 19.893 10.9999 19.002 10.9999H18.0019V17C18.0019 17.7956 17.6859 18.5587 17.1233 19.1213C16.5606 19.6839 15.7976 20 15.0019 20H14.0019V12.9999C14.0019 12.2347 13.7096 11.4984 13.1846 10.9416C12.6596 10.3849 11.9418 10.0498 11.1779 10.0049L11.0019 9.99989H9.00184C8.20619 9.99989 7.44312 10.316 6.8805 10.8786C6.31789 11.4412 6.00181 12.2043 6.00181 12.9999V20H5.0018C4.20614 20 3.44307 19.6839 2.88046 19.1213C2.31784 18.5587 2.00177 17.7956 2.00177 17V10.9999H1.00176C0.111749 10.9999 -0.335256 9.92289 0.294751 9.29289L9.29485 0.29279C9.48238 0.105316 9.73669 0 10.0019 0C10.267 0 10.5213 0.105316 10.7089 0.29279ZM11.0019 11.9999C11.2671 11.9999 11.5214 12.1053 11.709 12.2928C11.8965 12.4804 12.0019 12.7347 12.0019 12.9999V20H8.00183V12.9999C8.00187 12.755 8.09179 12.5186 8.25455 12.3355C8.41731 12.1525 8.64159 12.0356 8.88484 12.0069L9.00184 11.9999H11.0019Z" fill="black"/>
</svg>
