<svg width="20" height="20" viewBox="0 0 20 20" fill="none" xmlns="http://www.w3.org/2000/svg">
<path fill-rule="evenodd" clip-rule="evenodd" d="M9.99998 0C15.5229 0 20 4.47712 20 9.99998C20 15.5228 15.5229 20 9.99998 20C4.47717 20 0 15.5228 0 9.99998C0 4.47712 4.47717 0 9.99998 0ZM11.0022 8.99999H9.0022V15H11.0022V8.99999ZM10.0101 4.74998C9.28106 4.74998 8.75216 5.27592 8.75216 5.98612C8.75216 6.72506 9.26713 7.25001 10.0101 7.25001C10.7243 7.25001 11.2522 6.72501 11.2522 5.99999C11.2522 5.27596 10.7243 4.74998 10.0101 4.74998Z" fill="white"/>
</svg>
