<svg width="300" height="300" viewBox="0 0 300 300" fill="none" xmlns="http://www.w3.org/2000/svg">
<g clip-path="url(#clip0_626_19770)">
<path d="M150 300C232.843 300 300 232.843 300 150C300 67.1573 232.843 0 150 0C67.1573 0 0 67.1573 0 150C0 232.843 67.1573 300 150 300Z" fill="#BED6EE"/>
<path d="M113.153 147.706C117.496 149.917 122.756 147.978 124.835 143.571C128.829 135.1 134.765 128.102 142.643 122.575C148.492 118.47 155.103 115.589 162.016 113.777C182.679 108.357 206.324 108.61 231.666 112.089C249.272 114.506 263.052 128.44 265.4 146.057C265.44 146.354 265.478 146.651 265.515 146.948C268.024 167.286 256.792 183.108 242.541 195.915C233.876 203.703 226.129 212.514 213.809 214.37C185.56 218.628 157.408 217.754 129.354 211.647C103.97 206.121 83.6024 186.913 76.8644 161.824C74.5624 153.249 73.2512 143.912 72.9434 133.8L91.954 123.357C96.1829 134.884 103.448 142.76 113.153 147.706Z" fill="#678FBD"/>
<path d="M265.483 146.686C265.446 146.396 265.409 146.106 265.37 145.817C262.994 128.355 249.313 114.52 231.855 112.113C216.525 109.999 201.814 109.066 188.007 109.848C195.595 110.236 203.387 111.016 211.348 112.113C228.805 114.52 242.488 128.355 244.862 145.817C244.901 146.106 244.938 146.396 244.976 146.686C249.128 179.578 225.74 209.529 192.953 214.421C184.821 215.633 176.695 216.419 168.579 216.78C183.513 217.447 198.472 216.656 213.459 214.421C246.248 209.529 269.636 179.576 265.483 146.686Z" fill="#2D5690"/>
<path d="M265.372 145.839C261.677 172.005 240.851 193.583 213.459 197.669C185.399 201.855 157.433 200.979 129.563 194.937C104.199 189.439 83.7547 170.416 76.9477 145.371C75.8737 141.419 75.0208 137.294 74.3715 133.016L72.9453 133.799C73.2567 144.029 74.5944 153.468 76.9477 162.124C83.7547 187.171 104.199 206.194 129.563 211.691C157.433 217.732 185.399 218.608 213.459 214.421C246.248 209.531 269.636 179.578 265.483 146.688C265.448 146.405 265.411 146.122 265.372 145.839Z" fill="#DAE9FF"/>
<path d="M265.483 146.689C265.448 146.406 265.411 146.123 265.372 145.84C262.587 165.562 250.068 182.672 232.344 191.655C222.923 203.551 209.076 212.018 192.953 214.424C184.821 215.636 176.695 216.422 168.579 216.783C182.903 217.424 197.952 216.737 213.459 214.424C246.248 209.532 269.636 179.579 265.483 146.689Z" fill="#97B1D1"/>
<path d="M102.436 96.8206C89.3425 96.9373 78.8233 107.646 78.9401 120.74L78.9737 124.599L78.02 123.18C70.7158 112.312 55.9854 109.422 45.1176 116.727L36.4457 122.555C33.9508 124.231 33.289 127.612 34.9647 130.105L40.7931 138.777C48.0973 149.645 62.8278 152.534 73.6955 145.23L86.5929 136.56L94.9693 136.486C108.063 136.369 118.582 125.66 118.465 112.567L118.373 102.12C118.347 99.1155 115.889 96.7002 112.883 96.7268L102.436 96.8206Z" fill="#678FBD"/>
<path d="M173.507 200.197C173.506 200.197 175.015 208.297 172.718 216.928C170.74 224.365 165.938 232.197 154.918 235.585C153.577 235.998 153.699 237.93 155.084 238.153C167.95 240.232 197.502 241.75 209.122 215.028C211.217 210.212 212.734 204.484 213.459 197.672C200.121 199.662 186.803 200.505 173.507 200.197Z" fill="#678FBD"/>
<path d="M197.9 199.471C197.121 205.659 195.683 210.932 193.738 215.407C186.852 231.241 173.668 237.157 161.39 238.917C175.89 240.101 199.131 238.002 209.122 215.03C211.217 210.214 212.733 204.486 213.458 197.672C208.269 198.447 203.083 199.045 197.9 199.471Z" fill="#2D5690"/>
<path d="M237.778 153.144H237.338C234.255 153.144 231.757 150.646 231.757 147.564V141.942C231.757 138.86 234.255 136.363 237.338 136.363H237.778C240.861 136.363 243.359 138.862 243.359 141.942V147.564C243.359 150.646 240.861 153.144 237.778 153.144Z" fill="#142F5D"/>
<path d="M180.337 110.473C180.084 111.284 179.949 112.124 179.949 112.986C179.949 119.478 187.45 124.738 196.704 124.738C205.958 124.738 213.459 119.476 213.459 112.986C213.459 111.997 213.283 111.038 212.954 110.119C201.602 109.325 190.686 109.362 180.337 110.473Z" fill="#1D427E"/>
<path d="M190.075 87.12C190.749 87.9604 192.099 87.4013 191.974 86.3308C191.133 79.1912 188.162 65.3366 177.774 65.3242C163.778 65.3065 164.806 81.4649 177.27 80.7147C183.399 80.3449 187.688 84.1526 190.075 87.12Z" fill="#678FBD"/>
<path d="M203.571 93.8849C203.089 94.8652 201.628 94.5909 201.541 93.5027C200.825 84.5335 200.803 64.2241 214.9 61.6266C233.067 58.2806 235.571 79.503 219.211 81.4883C210.516 82.5447 205.768 89.4224 203.571 93.8849Z" fill="#678FBD"/>
</g>
<defs>
<clipPath id="clip0_626_19770">
<rect width="300" height="300" fill="white"/>
</clipPath>
</defs>
</svg>
