<svg id="Capa_1" enable-background="new 0 0 512 512" viewBox="0 0 512 512" xmlns="http://www.w3.org/2000/svg"><g><path d="m455.021 50.915-22.403-9.619c-4.124-1.771-8.903.137-10.674 4.261l-36.271 84.474 39.811 12.721 33.547-78.13z" fill="#a46a5a"/><path d="m390.537 242.298 76.214-177.502c1.771-4.125-.137-8.903-4.261-10.675l-7.468-3.206-79.691 185.6z" fill="#845252"/><g><path d="m378.334 11.421-24.153-3.338c-4.446-.614-8.549 2.493-9.163 6.938l-15.882 115.01 38.833 15.855 17.303-125.303c.615-4.446-2.491-8.548-6.938-9.162z" fill="#c6805d"/></g><path d="m350.897 210.063 16.105 2.222 26.319-190.594c.614-4.443-2.488-8.54-6.929-9.159l-8.059-1.112z" fill="#a46a5a"/><circle cx="166.493" cy="121.905" fill="#b8eb7c" r="121.905"/><circle cx="166.493" cy="121.905" fill="#e9f9b6" r="105.651"/><path d="m247.763 113.778h-61.651l43.595-43.595c3.175-3.175 3.175-8.317 0-11.492s-8.317-3.175-11.492 0l-43.595 43.595v-61.651c0-4.492-3.635-8.127-8.127-8.127s-8.127 3.635-8.127 8.127v61.651l-43.595-43.596c-3.175-3.175-8.317-3.175-11.492 0-3.174 3.175-3.174 8.317 0 11.492l43.595 43.595h-61.651c-4.492 0-8.127 3.635-8.127 8.127s3.635 8.127 8.127 8.127h61.651l-43.595 43.595c-3.174 3.175-3.174 8.318 0 11.492 1.587 1.587 3.667 2.381 5.746 2.381 2.08 0 4.159-.794 5.746-2.381l43.595-43.595 89.397-11.492c4.492 0 8.127-3.635 8.127-8.127s-3.635-8.126-8.127-8.126z" fill="#dbf180"/><path d="m329.136 130.032h-187.024c-8.977 0-16.254 7.277-16.254 16.254l16.254 16.254 3.412 48.899 17.711 21.563h177.448z" fill="#e1f5fb"/><path d="m450.937 130.032h-12.197l-32.466 9.142-20.601-9.142h-7.312l-13.136 16.254h-239.367c0 8.977 7.277 16.254 16.254 16.254h250.802l-5.934 85.051 60.545-36.152 3.412-48.899c8.977 0 16.254-7.277 16.254-16.254s-7.277-16.254-16.254-16.254z" fill="#cceffa"/><path d="m427.763 136.048-6.712-6.016h-35.378l-6.979 16.254 2.603 10.698-17.593 3.475-1.752-30.427h-32.816l-2.244 16.254 7.926 9.395-10.171 6.859-11.385 82.451 66.298 3.323z" fill="#d48c64"/><path d="m421.051 130.032-2.084 4.853c-2.97 6.917-9.775 11.401-17.303 11.401h-22.97l-3.8 8.851 3.467-25.105h-16.409c-1.287 9.316-9.249 16.254-18.653 16.254h-16.407l-2.245 16.254h29.384l-30.736 71.579 21.624-9.169 26.797-62.411h35.377l-31.763 73.975 15.207 5.783 48.204-112.266h-17.69z" fill="#c6805d"/><path d="m388.465 226.314c-15.499-3.763-19.086-15.012-40.547-15.012-25.738 0-25.738 16.254-51.475 16.254-25.715 0-25.715-16.254-51.429-16.254-25.729 0-25.729 16.254-51.458 16.254-24.512 0-25.717-14.728-48.033-16.117l19.386 277.877c.156 2.244.61 4.401 1.327 6.43l22.995 8.314h190.885c12.807 0 23.431-1.969 24.322-14.744l15.519-222.437z" fill="#ff7e92"/><g fill="#ff5f7a"><path d="m399.427 227.556c-4.31 0-7.854-.484-10.962-1.242l-10.259 147.054c-3.368.075-6.75.445-10.128 1.141-5.969 1.229-11.439 3.597-16.59 6.534 3.533-4.78 6.372-10.064 8.297-15.863 3.607-10.864 3.727-22.199.947-33.195-1.391-5.504-8.295-7.796-12.702-4.218-8.805 7.15-15.489 16.305-19.097 27.169-1.926 5.799-2.812 11.732-2.839 17.676-2.371-5.434-5.338-10.604-9.387-15.159-7.604-8.556-17.361-14.327-28.275-17.418-5.462-1.547-10.899 3.286-10.004 8.892 1.79 11.201 6.376 21.567 13.981 30.123 3.929 4.42 8.447 8.073 13.388 11.022-5.723-.593-11.529-.368-17.322.825-11.212 2.308-21.088 7.871-29.222 15.777-4.071 3.957-2.604 11.082 2.698 13.109 10.594 4.051 21.865 5.262 33.077 2.954 5.969-1.229 11.44-3.597 16.59-6.534-3.533 4.78-6.372 10.065-8.298 15.864-3.607 10.864-3.727 22.199-.947 33.195 1.391 5.504 8.295 7.796 12.702 4.218 8.805-7.15 15.489-16.305 19.097-27.169 1.926-5.799 2.811-11.732 2.839-17.676 2.371 5.434 5.338 10.605 9.387 15.16 7.073 7.957 16.009 13.503 26.004 16.727l-1.154 16.544c-.891 12.775-11.515 22.684-24.322 22.684h-180.689c3.375 9.497 12.456 16.254 22.995 16.254h214.585c12.807 0 23.431-9.909 24.322-22.684l19.386-277.877c-22.348 1.383-23.553 16.113-48.098 16.113zm-28.729 190.639c-3.929-4.421-8.447-8.073-13.388-11.022 5.723.593 11.529.367 17.322-.825.434-.089.863-.193 1.293-.292l-1.202 17.229c-1.233-1.757-2.573-3.457-4.025-5.09z"/><circle cx="215.255" cy="308.825" r="24.381"/><circle cx="296.524" cy="276.317" r="16.254"/></g><path d="m401.155 377.462c-7.404-2.831-15.136-4.268-22.95-4.094l-2.281 32.69c10.663-2.464 20.119-7.895 27.929-15.486 4.072-3.957 2.605-11.082-2.698-13.11z" fill="#fb4455"/><path d="m374.723 423.287-2.319 33.232c.764.247 1.495.471 2.271.691 5.462 1.547 10.9-3.285 10.004-8.891-1.44-9.016-4.776-17.607-9.956-25.032z" fill="#fb4455"/></g><g/><g/><g/><g/><g/><g/><g/><g/><g/><g/><g/><g/><g/><g/><g/></svg>