<svg version="1.1" id="Capa_1" xmlns="http://www.w3.org/2000/svg" xmlns:xlink="http://www.w3.org/1999/xlink" x="0px" y="0px" viewBox="0 0 512 512" style="enable-background:new 0 0 512 512;" xml:space="preserve" width="300" height="300" xmlns:svgjs="http://svgjs.dev/svgjs"><g width="100%" height="100%" transform="matrix(1,0,0,1,0,0)"><path style="" d="M512,325.723c0,61.955-50.221,112.187-112.176,112.187c-22.829,0-44.071-6.82-61.79-18.554&#xA;&#9;c-30.359-20.068-50.386-54.507-50.386-93.633c0-27.66,22.355-82.054,47.1-133.79c23.346-48.791,48.819-95.229,59.682-114.677&#xA;&#9;c2.358-4.222,8.431-4.22,10.789,0.002C427.602,117.333,512,271.993,512,325.723z" fill="#ff629b" fill-opacity="1" data-original-color="#fc3e81ff" stroke="none" stroke-opacity="1"/><path style="" d="M380.539,325.723c0,37.282-16.462,70.784-42.505,93.633c-30.359-20.068-50.386-54.507-50.386-93.633&#xA;&#9;c0-27.66,22.355-82.054,47.1-133.79c3.472,7.325,6.882,14.68,10.168,21.974C368.887,267.147,380.539,303.719,380.539,325.723z" fill="#ff3374" fill-opacity="1" data-original-color="#f01054ff" stroke="none" stroke-opacity="1"/><path style="" d="M368.176,325.723c0,61.955-50.221,112.187-112.176,112.187c-17.626,0-34.305-4.069-49.15-11.322&#xA;&#9;c-4.389-2.143-8.612-4.564-12.651-7.232c-30.359-20.078-50.376-54.517-50.376-93.633c0-27.66,22.355-82.054,47.11-133.79&#xA;&#9;c23.338-48.791,48.808-95.229,59.672-114.676c2.359-4.222,8.429-4.224,10.787-0.001c12.863,23.03,46.212,83.913,72.252,141.73&#xA;&#9;C352.909,261.77,368.176,302.874,368.176,325.723z" fill="#fdd659" fill-opacity="1" data-original-color="#fdb659ff" stroke="none" stroke-opacity="1"/><path style="" d="M368.176,325.723c0,61.955-50.221,112.187-112.176,112.187c-17.626,0-34.305-4.069-49.15-11.322&#xA;&#9;c0.041,0,0.072-0.01,0.113-0.01c127.598-13.876,139.435-120.263,126.681-207.592C352.909,261.77,368.176,302.874,368.176,325.723z" fill="#ffb434" fill-opacity="1" data-original-color="#fd9e28ff" stroke="none" stroke-opacity="1"/><path style="" d="M512,325.723c0,61.955-50.221,112.187-112.176,112.187c-17.626,0-34.305-4.069-49.15-11.322&#xA;&#9;c0.041,0,0.072-0.01,0.113-0.01c127.598-13.876,139.435-120.263,126.681-207.592C496.733,261.77,512,302.874,512,325.723z" fill="#ff3374" fill-opacity="1" data-original-color="#f01054ff" stroke="none" stroke-opacity="1"/><path style="" d="M368.176,325.723c0,34.583-15.648,65.52-40.259,86.102c-9.972-8.334-18.471-18.368-25.054-29.659&#xA;&#9;c-9.673-16.576-15.216-35.861-15.216-56.444c0-25.075,18.378-72.144,40.259-119.274c1.947,4.193,3.874,8.396,5.748,12.578&#xA;&#9;C352.93,261.79,368.176,302.884,368.176,325.723z" fill="#ff872f" fill-opacity="1" data-original-color="#fd8724ff" stroke="none" stroke-opacity="1"/><path style="" d="M368.176,325.723c0,34.583-15.648,65.52-40.259,86.102c-9.972-8.334-18.471-18.368-25.054-29.659&#xA;&#9;c36.984-42.227,39.034-106.665,30.792-163.14C352.93,261.79,368.176,302.884,368.176,325.723z" fill="#fc5036" fill-opacity="1" data-original-color="#fc5820ff" stroke="none" stroke-opacity="1"/><path style="" d="M236.715,325.723c0,37.282-16.462,70.794-42.516,93.633c-30.359-20.078-50.376-54.517-50.376-93.633&#xA;&#9;c0-27.66,22.355-82.054,47.11-133.79c3.4,7.17,6.727,14.371,9.952,21.51C224.992,266.91,236.715,303.636,236.715,325.723z" fill="#ffb434" fill-opacity="1" data-original-color="#fd9e28ff" stroke="none" stroke-opacity="1"/><path style="" d="M224.353,325.723c0,61.955-50.221,112.187-112.176,112.187c-17.647,0-34.336-4.069-49.181-11.332&#xA;&#9;C25.693,408.354,0,370.031,0,325.723c0-53.73,84.397-208.39,106.781-248.464c2.358-4.221,8.431-4.224,10.789-0.003&#xA;&#9;c12.829,22.968,46.036,83.588,72.045,141.266C208.983,261.471,224.353,302.792,224.353,325.723z" fill="#6dcfe0" fill-opacity="1" data-original-color="#43a3f9ff" stroke="none" stroke-opacity="1"/><path style="" d="M224.502,325.723c0,61.955-50.221,112.187-112.176,112.187c-17.647,0-34.336-4.069-49.181-11.332&#xA;&#9;c127.825-13.897,139.476-120.634,126.62-208.055C209.132,261.471,224.502,302.792,224.502,325.723z" fill="#37a7ba" fill-opacity="1" data-original-color="#1685fbff" stroke="none" stroke-opacity="1"/><path style="" d="M224.353,325.723c0,34.583-15.648,65.52-40.26,86.102c-9.993-8.355-18.512-18.42-25.116-29.752&#xA;&#9;c-9.632-16.555-15.154-35.809-15.154-56.351c0-25.075,18.378-72.144,40.27-119.274c1.875,4.028,3.719,8.056,5.522,12.074&#xA;&#9;C208.983,261.471,224.353,302.792,224.353,325.723z" fill="#9eefa5" fill-opacity="1" data-original-color="#5be167ff" stroke="none" stroke-opacity="1"/><path style="" d="M224.353,325.723c0,34.583-15.648,65.52-40.26,86.102c-9.993-8.355-18.512-18.42-25.116-29.752&#xA;&#9;c37.014-42.351,38.951-106.995,30.638-163.552C208.983,261.471,224.353,302.792,224.353,325.723z" fill="#4ead7d" fill-opacity="1" data-original-color="#1fc974ff" stroke="none" stroke-opacity="1"/><path style="" d="M68.852,396.558c-1.489,0-2.994-0.43-4.321-1.327c-23.161-15.66-36.989-41.643-36.989-69.504&#xA;&#9;c0-4.267,3.459-7.726,7.726-7.726s7.726,3.459,7.726,7.726c0,22.722,11.287,43.92,30.192,56.703&#xA;&#9;c3.535,2.39,4.463,7.193,2.072,10.728C73.767,395.367,71.331,396.558,68.852,396.558z" fill="#8de9f2" fill-opacity="1" data-original-color="#64bdffff" stroke="none" stroke-opacity="1"/><g>
</g><g>
</g><g>
</g><g>
</g><g>
</g><g>
</g><g>
</g><g>
</g><g>
</g><g>
</g><g>
</g><g>
</g><g>
</g><g>
</g><g>
</g></g></svg>