<svg width="300" height="300" viewBox="0 0 300 300" fill="none" xmlns="http://www.w3.org/2000/svg">
<g clip-path="url(#clip0_626_19785)">
<path d="M150 300C232.843 300 300 232.843 300 150C300 67.1573 232.843 0 150 0C67.1573 0 0 67.1573 0 150C0 232.843 67.1573 300 150 300Z" fill="#E7FDAC"/>
<path d="M151.782 36.1413C150.786 35.156 149.218 35.156 148.222 36.1413C137.369 46.875 80.5791 105.412 80.5791 154.983C80.5791 193.324 111.661 224.406 150.002 224.406C188.343 224.406 219.424 193.324 219.424 154.983C219.424 105.412 162.634 46.8745 151.782 36.1413Z" fill="#C9E979"/>
<path d="M148.22 36.141C137.367 46.8746 80.5771 105.412 80.5771 154.983C80.5771 193.324 111.659 224.405 150 224.405V35.4023C149.359 35.4023 148.718 35.6485 148.22 36.141Z" fill="#ADD663"/>
<path d="M181.815 141.437C180.387 140.01 178.075 140.01 176.648 141.437L153.654 164.43V107.482C153.654 105.462 152.02 103.828 150.001 103.828C147.981 103.828 146.347 105.462 146.347 107.482V138.853L134.315 126.822C132.888 125.394 130.576 125.394 129.148 126.822C127.721 128.249 127.721 130.561 129.148 131.988L146.347 149.187V186.353L119.7 159.706C118.273 158.279 115.96 158.279 114.533 159.706C113.106 161.133 113.106 163.446 114.533 164.873L146.347 196.687V260.942C146.347 262.962 147.981 264.596 150.001 264.596C152.02 264.596 153.654 262.962 153.654 260.942V174.764L181.815 146.603C183.242 145.176 183.242 142.864 181.815 141.437Z" fill="#85B541"/>
</g>
<defs>
<clipPath id="clip0_626_19785">
<rect width="300" height="300" fill="white"/>
</clipPath>
</defs>
</svg>
