<svg width="300" height="300" viewBox="0 0 300 300" fill="none" xmlns="http://www.w3.org/2000/svg">
<g clip-path="url(#clip0_626_19806)">
<path d="M150 300.293C232.843 300.293 300 233.136 300 150.293C300 67.4503 232.843 0.292969 150 0.292969C67.1573 0.292969 0 67.4503 0 150.293C0 233.136 67.1573 300.293 150 300.293Z" fill="#E4E4E4"/>
<path d="M74.907 131.21C71.3767 131.289 67.2143 130.941 62.3044 129.998C59.3632 129.433 56.8718 128.525 54.7891 127.336C56.7831 136.193 60.2311 150.527 63.3371 158.553C68.0569 170.746 74.1531 184.117 73.7588 160.128C73.5624 148.038 74.2117 138.1 74.907 131.21Z" fill="#FFE9C8"/>
<path d="M62.3044 141.359C66.8279 142.229 70.7099 142.588 74.0549 142.579C74.2783 138.204 74.5871 134.381 74.9055 131.21C71.3751 131.289 67.2143 130.941 62.3044 129.998C59.3632 129.433 56.8702 128.525 54.7891 127.336C55.6032 130.95 56.658 135.477 57.8348 140.114C59.1937 140.626 60.6778 141.047 62.3044 141.359Z" fill="#FFDCA7"/>
<path d="M202.887 175.429C172.961 85.1118 103.473 61.05 77.4075 70.0035C50.3063 79.3133 31.0658 124 62.3055 129.999C67.32 130.962 71.552 131.305 75.1299 131.203C75.1299 131.205 83.1822 208.493 141.285 208.694C199.389 208.895 190.945 197.034 214.065 209.499C237.186 221.964 248.646 231.815 253.068 214.927C257.264 198.911 243.738 181.63 202.887 175.429Z" fill="#CEC9D1"/>
<path d="M252.976 203.623C248.394 220.529 236.66 210.486 213.111 197.791C189.436 185.027 198.082 197.174 138.585 196.968C104.15 196.849 86.8834 170.29 78.4463 147.934C84.4807 170.673 100.63 208.555 141.285 208.695C199.389 208.896 190.945 197.034 214.064 209.499C237.185 221.966 248.646 231.816 253.068 214.929C254.052 211.176 254.061 207.355 252.976 203.623Z" fill="#BBB0BA"/>
<path d="M47.8314 119.745C52.2344 118.5 55.2928 114.489 55.2928 109.896C55.2928 105.557 52.5385 101.673 48.438 100.233C48.4047 100.221 48.3714 100.214 48.3382 100.203C45.8246 107.246 45.3827 114.238 47.8314 119.745Z" fill="#433F43"/>
<path d="M149.226 178.668C149.226 178.668 154.307 201.049 166.973 209.673C179.637 218.297 189.553 223.635 183.823 229.796C178.094 235.956 120.138 237.804 108.899 181.338" fill="#CEC9D1"/>
<path d="M181.3 219.765C170.655 223.159 133.414 220.883 112.827 194.758C129.819 237.441 178.591 235.421 183.823 229.796C186.954 226.432 185.407 223.31 181.3 219.765Z" fill="#BBB0BA"/>
<path d="M90.1837 176.98C87.5086 184.684 83.0453 194.11 76.2459 198.858C63.591 207.694 53.2833 211.271 58.5417 216.318C63.2489 220.839 90.2898 226.026 116.917 203.233C104.977 197.398 96.3623 187.551 90.1837 176.98Z" fill="#BBB0BA"/>
<path d="M90.1846 176.98C88.9065 180.663 87.2181 184.737 85.0625 188.508C90.7105 197.084 98.1102 204.878 107.775 210.008C110.805 208.087 113.865 205.846 116.918 203.233C104.978 197.398 96.3632 187.551 90.1846 176.98Z" fill="#AB9FAA"/>
<path d="M78.4215 92.8867C74.8055 92.8867 71.9736 96.4092 71.9736 100.904C71.9736 105.401 74.8055 108.923 78.4215 108.923C82.0374 108.923 84.8693 105.401 84.8693 100.904C84.8693 96.4092 82.0374 92.8867 78.4215 92.8867Z" fill="#433F43"/>
</g>
<defs>
<clipPath id="clip0_626_19806">
<rect width="300" height="300" fill="white"/>
</clipPath>
</defs>
</svg>
