<svg width="300" height="300" viewBox="0 0 300 300" fill="none" xmlns="http://www.w3.org/2000/svg">
<rect width="300" height="300" rx="150" fill="#FFD271"/>
<path d="M96.8567 135.568C96.6943 133.52 96.6133 131.454 96.6133 129.367C96.6133 85.998 131.772 55.6133 175.141 55.6133C218.51 55.6133 253.668 85.998 253.668 129.367C253.668 166.296 228.172 197.278 193.82 205.661" fill="#FFA30F"/>
<path d="M126.454 135.568C126.291 133.52 126.21 131.453 126.21 129.367C126.21 91.0575 153.646 62.8843 189.939 56.8314C185.146 56.0316 180.2 55.6133 175.141 55.6133C131.772 55.6133 96.6133 85.998 96.6133 129.367C96.6133 131.453 96.6943 133.52 96.8567 135.568L157.955 208.61C164.751 206.952 154.041 185.529 160.015 182.23L126.454 135.568Z" fill="#F4940E"/>
<path d="M46.3301 165.062C46.3301 208.874 81.8464 244.39 125.657 244.39C169.469 244.39 204.985 208.874 204.985 165.062" fill="#FFB30F"/>
<path d="M179.812 75.4226C179.812 72.7106 177.613 70.5117 174.902 70.5117C172.19 70.5117 169.991 72.7106 169.991 75.4226C169.991 78.1346 172.19 77.9463 174.902 77.9463C177.613 77.9463 179.812 78.135 179.812 75.4226Z" fill="#B25719"/>
<path d="M73.2265 165.062H46.3301C46.3301 208.874 81.8464 244.39 125.657 244.39C130.242 244.39 134.734 243.996 139.106 243.25C101.7 236.861 73.2265 204.289 73.2265 165.062Z" fill="#FB9B16"/>
<path d="M125.659 196.708C169.472 196.708 204.989 182.54 204.989 165.063C204.989 147.586 169.472 133.418 125.659 133.418C81.8471 133.418 46.3301 147.586 46.3301 165.063C46.3301 182.54 81.8471 196.708 125.659 196.708Z" fill="#FFE683"/>
<path d="M93.4316 143.586L122.848 159.989V140.582C112.632 140.744 102.623 141.781 93.4316 143.586Z" fill="#FFC70F"/>
<path d="M122.849 189.54V170.133L93.4316 186.536C102.622 188.341 112.632 189.378 122.849 189.54Z" fill="#FFC70F"/>
<path d="M128.468 140.582V159.99L157.887 143.586C148.695 141.781 138.684 140.744 128.468 140.582Z" fill="#FFC70F"/>
<path d="M137.565 161.926H197.314C195.146 158.87 190.176 154.641 181.277 150.679C176.924 148.741 172.039 147.054 166.772 145.641L137.565 161.926Z" fill="#FFC70F"/>
<path d="M113.753 161.927L84.5458 145.641C79.2777 147.055 74.3927 148.742 70.0386 150.68C61.1389 154.642 56.1697 158.871 54.002 161.927H113.753V161.927Z" fill="#FFC70F"/>
<path d="M113.75 168.199H54.002C56.1701 171.255 61.1393 175.484 70.0382 179.446C74.3919 181.383 79.2769 183.07 84.5446 184.484L113.75 168.199Z" fill="#FFC70F"/>
<path d="M137.568 168.199L166.773 184.484C172.039 183.07 176.923 181.383 181.277 179.446C190.176 175.484 195.145 171.256 197.313 168.199H137.568Z" fill="#FFC70F"/>
<path d="M128.468 170.129V189.538C138.685 189.377 148.696 188.339 157.887 186.533L128.468 170.129Z" fill="#FFC70F"/>
<path d="M184.688 73.0391C184.932 73.5307 184.98 74.1754 184.825 74.7796C184.664 75.3651 184.371 75.9426 184.004 76.4128C183.269 77.3826 182.312 78.0925 181.319 78.6441C179.312 79.746 177.088 80.1801 174.902 80.1999C172.715 80.1861 170.491 79.7512 168.483 78.6505C167.489 78.0998 166.531 77.3887 165.797 76.418C165.43 75.9471 165.136 75.3692 164.976 74.7824C164.821 74.1774 164.871 73.5315 165.117 73.0399C165.398 73.5335 165.752 73.8417 166.106 74.0786C166.497 74.2997 166.856 74.4726 167.273 74.5937C168.072 74.8504 168.907 75.0055 169.754 75.1177C170.602 75.2246 171.455 75.3028 172.314 75.3546C173.176 75.3963 174.037 75.4154 174.903 75.4267C175.77 75.4186 176.631 75.4004 177.494 75.3595C178.352 75.3068 179.207 75.2331 180.055 75.1238C180.903 75.012 181.738 74.8565 182.537 74.5981C182.954 74.4763 183.312 74.3025 183.703 74.0806C184.056 73.8417 184.409 73.5319 184.688 73.0391Z" fill="#EE8F0A"/>
<path d="M220.966 171.617C219.508 171.617 218.293 170.362 218.343 168.905C218.394 167.446 219.677 166.27 221.14 166.369C222.557 166.466 223.67 167.718 223.587 169.138C223.508 170.507 222.341 171.617 220.966 171.617Z" fill="#EE8F0A"/>
<path d="M78.7097 210.102C77.2819 210.102 76.0812 208.905 76.084 207.477C76.0868 205.943 77.4604 204.704 78.9859 204.87C80.3854 205.023 81.4456 206.288 81.3245 207.698C81.2099 209.041 80.0599 210.102 78.7097 210.102Z" fill="#EE8F0A"/>
<path d="M156.349 107.649C154.851 107.649 153.637 106.341 153.728 104.851C153.816 103.441 155.069 102.324 156.479 102.402C157.793 102.475 158.879 103.53 158.969 104.851C159.069 106.339 157.839 107.649 156.349 107.649Z" fill="#EE8F0A"/>
<path d="M168.307 210.103C166.93 210.103 165.765 208.998 165.686 207.625C165.603 206.176 166.769 204.904 168.219 204.857C169.654 204.811 170.889 205.968 170.93 207.403C170.972 208.86 169.767 210.103 168.307 210.103Z" fill="#EE8F0A"/>
<path d="M134.085 229.486C132.547 229.486 131.3 228.095 131.477 226.565C131.639 225.153 132.947 224.101 134.362 224.253C135.658 224.392 136.669 225.484 136.709 226.786C136.753 228.245 135.541 229.486 134.085 229.486Z" fill="#EE8F0A"/>
<path d="M168.307 220.791C166.933 220.791 165.765 219.678 165.686 218.309C165.606 216.926 166.67 215.686 168.048 215.551C169.512 215.408 170.843 216.545 170.928 218.013C171.014 219.492 169.792 220.791 168.307 220.791Z" fill="#EE8F0A"/>
<path d="M228.658 110.512C227.232 110.512 226.028 109.317 226.032 107.887C226.035 106.608 226.982 105.503 228.242 105.295C229.68 105.058 231.069 106.1 231.259 107.543C231.463 109.089 230.219 110.512 228.658 110.512Z" fill="#EE8F0A"/>
<path d="M218.231 121.017C216.739 121.017 215.509 119.711 215.61 118.22C215.71 116.755 217.039 115.621 218.503 115.781C219.851 115.928 220.901 117.112 220.853 118.476C220.805 119.872 219.628 121.017 218.231 121.017Z" fill="#EE8F0A"/>
</svg>
