<svg width="300" height="300" viewBox="0 0 300 300" fill="none" xmlns="http://www.w3.org/2000/svg">
<g clip-path="url(#clip0_626_19854)">
<path d="M150 300C232.843 300 300 232.843 300 150C300 67.1573 232.843 0 150 0C67.1573 0 0 67.1573 0 150C0 232.843 67.1573 300 150 300Z" fill="#CCC0DE"/>
<path d="M236.826 120.508C229.523 131.117 218.614 139.821 204.978 144.834C191.343 149.847 177.081 150.396 164.118 147.237C165.427 145.335 166.852 143.495 168.388 141.726C163.311 143.212 158.138 144.102 152.989 144.405C156.857 132.12 164.732 120.598 176.296 111.804C187.861 103.011 201.334 98.3012 214.653 97.5174C211.975 106.021 207.378 114.158 200.966 121.279C213.052 117.82 225.441 117.733 236.826 120.508ZM117.837 52.7372C116.595 51.7537 114.792 51.9629 113.808 53.204C105.893 63.193 100.83 80.9362 102.281 93.5982C102.46 95.1575 103.857 96.2808 105.414 96.1252C105.428 96.1237 105.442 96.1225 105.456 96.1206C107.03 95.9402 108.159 94.5186 107.979 92.9452C106.701 81.7934 111.333 65.5632 118.304 56.766C119.287 55.5245 119.078 53.7206 117.837 52.7372Z" fill="#558A75"/>
<path d="M105.796 187.134C78.6247 187.134 54.6767 160.726 52.3069 128.151C49.9374 95.5757 70.0431 69.168 97.2148 69.168C124.386 69.168 148.334 95.5753 150.704 128.151C153.073 160.726 132.968 187.134 105.796 187.134Z" fill="#823873"/>
<path d="M170.535 141.13C165.017 173.284 139.225 193.539 112.927 186.371C86.629 179.203 69.7828 147.328 75.3006 115.175C80.8183 83.0212 106.61 62.7664 132.908 69.934C159.206 77.1012 176.052 108.977 170.535 141.13Z" fill="#AF5B9E"/>
<path d="M245.014 190.503C245.014 220.608 220.608 245.014 190.503 245.014C160.398 245.014 135.992 220.608 135.992 190.503C135.992 160.398 160.398 135.992 190.503 135.992C220.608 135.992 245.014 160.398 245.014 190.503Z" fill="#C1408B" fill-opacity="0.8"/>
<path d="M233.877 190.505C233.877 214.459 214.459 233.877 190.505 233.877C166.551 233.877 147.133 214.459 147.133 190.505C147.133 166.551 166.551 147.133 190.505 147.133C214.459 147.133 233.877 166.551 233.877 190.505Z" fill="#FFE7BF"/>
<path d="M190.505 133.125C158.867 133.125 133.127 158.865 133.127 190.503C133.127 222.142 158.867 247.881 190.505 247.881C222.144 247.882 247.883 222.142 247.883 190.504C247.883 158.865 222.144 133.125 190.505 133.125ZM190.505 242.147C162.029 242.147 138.862 218.98 138.862 190.504C138.862 162.028 162.03 138.861 190.505 138.861C218.981 138.861 242.148 162.028 242.148 190.504C242.148 218.98 218.981 242.147 190.505 242.147Z" fill="#823873"/>
<path d="M222.778 195.793C223.648 197.342 223.183 199.3 221.709 200.292C220.512 201.097 219.952 202.568 220.309 203.965C220.748 205.687 219.792 207.458 218.111 208.035C216.747 208.503 215.825 209.778 215.808 211.22C215.787 212.997 214.405 214.46 212.633 214.583C211.194 214.682 209.974 215.675 209.584 217.064C209.104 218.775 207.39 219.83 205.646 219.49C204.231 219.213 202.795 219.857 202.059 221.097C201.153 222.625 199.224 223.201 197.628 222.421C196.333 221.788 194.779 222.038 193.747 223.045C192.476 224.287 190.464 224.344 189.124 223.177C188.037 222.23 186.471 222.069 185.214 222.775C183.664 223.646 181.706 223.181 180.714 221.706C179.909 220.51 178.438 219.949 177.041 220.306C175.319 220.746 173.548 219.79 172.971 218.109C172.503 216.745 171.228 215.823 169.786 215.806C168.009 215.785 166.546 214.403 166.423 212.63C166.324 211.192 165.331 209.971 163.942 209.582C162.231 209.101 161.175 207.388 161.517 205.644C161.793 204.229 161.149 202.792 159.909 202.057C158.381 201.15 157.805 199.222 158.585 197.626C159.219 196.33 158.969 194.776 157.961 193.745C156.719 192.473 156.662 190.462 157.829 189.122C158.776 188.034 158.937 186.469 158.231 185.211C157.361 183.662 157.826 181.704 159.3 180.712C160.496 179.907 161.057 178.436 160.7 177.039C160.261 175.317 161.217 173.546 162.897 172.969C164.261 172.501 165.183 171.226 165.2 169.784C165.221 168.007 166.603 166.544 168.376 166.421C169.814 166.322 171.035 165.329 171.425 163.94C171.905 162.229 173.618 161.174 175.362 161.515C176.777 161.791 178.214 161.148 178.949 159.907C179.856 158.379 181.784 157.803 183.38 158.583C184.676 159.217 186.23 158.967 187.261 157.959C188.533 156.717 190.544 156.66 191.884 157.827C192.972 158.774 194.537 158.935 195.795 158.229C197.344 157.359 199.302 157.824 200.294 159.298C201.099 160.494 202.57 161.055 203.967 160.698C205.689 160.259 207.46 161.215 208.037 162.896C208.505 164.26 209.78 165.182 211.222 165.199C212.999 165.22 214.462 166.601 214.585 168.374C214.684 169.813 215.677 171.033 217.066 171.423C218.777 171.903 219.832 173.617 219.491 175.36C219.215 176.776 219.859 178.212 221.099 178.948C222.627 179.854 223.203 181.782 222.423 183.379C221.79 184.674 222.039 186.228 223.047 187.26C224.289 188.531 224.346 190.543 223.179 191.883C222.233 192.97 222.072 194.536 222.778 195.793Z" fill="#FFBC21" fill-opacity="0.5"/>
<path d="M214.473 213.89C213.958 214.285 213.325 214.537 212.633 214.585C211.194 214.685 209.974 215.678 209.584 217.066C209.104 218.777 207.39 219.833 205.646 219.492C204.231 219.216 202.795 219.859 202.059 221.099C201.153 222.628 199.224 223.204 197.628 222.424C196.333 221.79 194.779 222.04 193.747 223.048C192.476 224.289 190.464 224.347 189.124 223.179C188.037 222.232 186.471 222.072 185.214 222.778C183.664 223.648 181.706 223.183 180.714 221.709C179.909 220.513 178.438 219.952 177.041 220.309C175.319 220.748 173.548 219.792 172.971 218.111C172.503 216.747 171.228 215.825 169.786 215.808C168.009 215.787 166.546 214.406 166.423 212.633C166.324 211.194 165.331 209.974 163.942 209.584C162.231 209.104 161.176 207.39 161.517 205.647C161.793 204.231 161.149 202.795 159.909 202.059C158.381 201.153 157.805 199.225 158.585 197.628C159.219 196.333 158.969 194.779 157.961 193.747C156.719 192.476 156.662 190.464 157.829 189.124C158.776 188.037 158.937 186.471 158.231 185.214C157.361 183.665 157.826 181.707 159.3 180.714C160.496 179.909 161.057 178.439 160.7 177.041C160.261 175.32 161.217 173.549 162.897 172.972C164.261 172.504 165.183 171.228 165.2 169.786C165.216 168.468 165.98 167.323 167.097 166.77C166.98 168.07 166.92 169.386 166.92 170.717C166.92 194.671 186.338 214.089 210.292 214.089C211.702 214.089 213.097 214.021 214.473 213.89Z" fill="#FF960C" fill-opacity="0.75"/>
<path d="M176.102 214.781C173.569 212.154 172.745 208.688 173.903 206.351C176.281 205.277 179.715 206.227 182.249 208.854C184.782 211.481 185.606 214.948 184.448 217.285C182.07 218.357 178.635 217.408 176.102 214.781ZM200.276 196.705C197.918 195.589 194.467 196.476 191.887 199.057C189.306 201.637 188.419 205.089 189.535 207.446C191.892 208.562 195.344 207.675 197.925 205.095C200.505 202.514 201.392 199.063 200.276 196.705ZM205.806 189.456C202.157 189.456 199.09 187.642 198.212 185.186C199.09 182.73 202.157 180.917 205.806 180.917C209.456 180.917 212.523 182.73 213.401 185.186C212.523 187.642 209.456 189.456 205.806 189.456ZM182.565 175.121C185.146 177.702 186.033 181.153 184.917 183.511C182.559 184.627 179.108 183.74 176.528 181.159C173.947 178.579 173.06 175.128 174.176 172.77C176.534 171.654 179.985 172.541 182.565 175.121Z" fill="#D67B1C"/>
<path d="M197.926 172.878C195.345 175.459 191.894 176.346 189.536 175.23C188.42 172.872 189.307 169.421 191.888 166.84C194.468 164.26 197.919 163.373 200.277 164.489C201.393 166.847 200.506 170.298 197.926 172.878ZM184.48 194.774C183.603 192.318 180.535 190.505 176.886 190.505C173.236 190.505 170.169 192.318 169.291 194.774C170.169 197.23 173.236 199.043 176.886 199.043C180.535 199.043 183.603 197.23 184.48 194.774ZM206.28 199.517C205.164 201.874 206.051 205.326 208.632 207.906C211.212 210.487 214.664 211.374 217.021 210.258C218.137 207.9 217.25 204.449 214.67 201.868C212.089 199.288 208.638 198.401 206.28 199.517Z" fill="#FF6D16" fill-opacity="0.75"/>
<path d="M138.228 206.632C135.647 209.213 132.196 210.1 129.839 208.984C128.723 206.626 129.609 203.175 132.19 200.594C134.771 198.014 138.222 197.127 140.579 198.243C141.695 200.6 140.808 204.052 138.228 206.632Z" fill="#D67B1C"/>
<path d="M116.012 188.926C115.134 186.469 112.067 184.656 108.417 184.656C104.767 184.656 101.7 186.469 100.822 188.926C101.7 191.382 104.767 193.195 108.417 193.195C112.067 193.195 115.134 191.382 116.012 188.926ZM105.311 206.445C104.195 208.803 105.082 212.254 107.663 214.835C110.243 217.415 113.694 218.302 116.052 217.186C117.168 214.829 116.281 211.378 113.7 208.797C111.12 206.216 107.669 205.329 105.311 206.445Z" fill="#FF960C" fill-opacity="0.75"/>
<path d="M104.094 137.991C104.094 143.855 100.521 148.608 96.1133 148.608C91.7055 148.608 88.1324 143.855 88.1324 137.991C88.1324 132.127 91.7055 127.374 96.1133 127.374C100.521 127.374 104.094 132.127 104.094 137.991ZM88.8562 107.314C86.0126 107.314 83.707 110.381 83.707 114.164C83.707 117.947 86.0122 121.014 88.8562 121.014C91.7002 121.014 94.0054 117.947 94.0054 114.164C94.005 110.381 91.6998 107.314 88.8562 107.314ZM125.39 88.375C122.547 88.375 120.241 91.4419 120.241 95.2249C120.241 99.0079 122.546 102.075 125.39 102.075C128.234 102.075 130.539 99.0079 130.539 95.2249C130.539 91.4419 128.234 88.375 125.39 88.375ZM125.39 149.999C122.547 149.999 120.241 153.066 120.241 156.849C120.241 160.632 122.546 163.699 125.39 163.699C128.234 163.699 130.539 160.632 130.539 156.849C130.539 153.066 128.234 149.999 125.39 149.999Z" fill="#823873"/>
</g>
<defs>
<clipPath id="clip0_626_19854">
<rect width="300" height="300" fill="white"/>
</clipPath>
</defs>
</svg>
