<svg width="300" height="300" viewBox="0 0 300 300" fill="none" xmlns="http://www.w3.org/2000/svg">
<g clip-path="url(#clip0_626_19873)">
<path d="M150 300C232.843 300 300 232.843 300 150C300 67.1573 232.843 0 150 0C67.1573 0 0 67.1573 0 150C0 232.843 67.1573 300 150 300Z" fill="#FD6565"/>
<path d="M85.9333 101.238C103.249 83.5822 131.324 83.5822 148.639 101.238C149.096 101.704 149.538 102.179 149.971 102.66L150.002 102.628L150.034 102.66C150.466 102.179 150.909 101.704 151.365 101.238C168.681 83.5822 196.755 83.5822 214.071 101.238C231.387 118.893 231.387 147.519 214.071 165.175C213.614 165.641 164.225 215.999 164.225 215.999C156.37 224.009 143.634 224.009 135.779 215.999C135.779 215.999 86.3896 165.64 85.9327 165.175C68.6174 147.519 68.6174 118.893 85.9333 101.238Z" fill="#B90020" fill-opacity="0.75"/>
<path d="M164.228 178.233C174.513 188.719 174.511 205.51 164.226 215.996C164.224 215.998 164.223 215.999 164.223 215.999C156.369 224.009 143.632 224.009 135.777 215.999C135.777 215.999 86.3882 165.64 85.9313 165.175C68.6154 147.519 68.6154 118.893 85.9313 101.238C103.247 83.5822 131.321 83.5822 148.637 101.238C149.094 101.704 149.536 102.179 149.969 102.66L150.001 102.627L150.01 102.637C134.069 120.377 134.52 147.942 151.37 165.122C151.52 165.275 156.977 170.839 164.228 178.233Z" fill="#990A14" fill-opacity="0.75"/>
<path d="M173.964 109.215C175.489 111.534 174.845 114.65 172.526 116.175C171.374 116.932 170.29 117.826 169.304 118.831C168.32 119.834 167.018 120.337 165.716 120.337C164.446 120.337 163.175 119.859 162.197 118.9C160.215 116.956 160.185 113.775 162.128 111.793C163.615 110.278 165.255 108.926 167.005 107.775C169.324 106.251 172.44 106.896 173.964 109.215ZM203.306 111.794C200.3 108.729 196.784 106.418 192.855 104.926C190.26 103.941 187.358 105.246 186.373 107.84C185.388 110.434 186.692 113.337 189.287 114.322C191.847 115.294 194.15 116.812 196.131 118.831C203.904 126.757 203.904 139.654 196.131 147.58L178.499 165.558C176.555 167.54 176.587 170.721 178.568 172.664C179.546 173.624 180.817 174.102 182.086 174.102C183.389 174.102 184.691 173.599 185.675 172.595L203.306 154.618C214.886 142.811 214.886 123.601 203.306 111.794Z" fill="#F25243"/>
</g>
<defs>
<clipPath id="clip0_626_19873">
<rect width="300" height="300" fill="white"/>
</clipPath>
</defs>
</svg>
