<svg width="300" height="300" viewBox="0 0 300 300" fill="none" xmlns="http://www.w3.org/2000/svg">
<g clip-path="url(#clip0_626_19915)">
<path d="M150 300C232.843 300 300 232.843 300 150C300 67.1573 232.843 0 150 0C67.1573 0 0 67.1573 0 150C0 232.843 67.1573 300 150 300Z" fill="#FFF79E"/>
<path d="M188.062 196.876C219.476 165.462 227.268 120.852 208.828 90.3758C207.43 88.0653 207.086 85.2253 208.044 82.7001C209.404 79.1109 208.643 74.9029 205.752 72.0117C202.861 69.1208 198.653 68.3594 195.064 69.7202C192.538 70.6776 189.698 70.3339 187.388 68.9359C156.912 50.4959 112.302 58.2881 80.8877 89.7024C49.4733 121.117 41.6816 165.727 60.1215 196.202C61.5196 198.513 61.8632 201.353 60.9058 203.878C59.5451 207.468 60.3061 211.675 63.1973 214.566C66.0882 217.457 70.2962 218.219 73.8858 216.858C76.4109 215.9 79.251 216.244 81.5615 217.642C112.038 236.082 156.648 228.29 188.062 196.876Z" fill="#FEDC4D"/>
<path d="M188.06 196.878C176.815 208.123 163.882 216.338 150.509 221.409C140.555 210.599 134.477 196.163 134.477 180.308C134.477 146.787 161.65 119.613 195.172 119.613C203.478 119.613 211.396 121.283 218.608 124.305C219.519 148.945 209.072 175.865 188.06 196.878Z" fill="#F9C732"/>
<path d="M188.059 196.875C174.115 210.819 157.568 220.111 140.807 224.515C151.642 219.431 162.028 212.232 171.272 202.984C202.688 171.569 210.48 126.963 192.04 96.484C190.641 94.173 190.296 91.3347 191.256 88.81C192.616 85.2216 191.853 81.0094 188.962 78.1185C187 76.1563 184.427 75.1752 181.855 75.1752C180.638 75.1752 179.426 75.3932 178.275 75.8292C175.75 76.784 172.907 76.4437 170.601 75.0445C153.661 64.7979 132.361 62.6524 111.384 68.1594C137.354 55.9722 165.888 55.9286 187.388 68.9356C189.699 70.3311 192.538 70.6752 195.062 69.7203C196.213 69.2844 197.43 69.0617 198.646 69.0617C201.219 69.0617 203.791 70.0471 205.753 72.0093C208.644 74.9001 209.403 79.1077 208.042 82.6965C207.088 85.2212 207.427 88.0638 208.827 90.3747C227.267 120.849 219.475 165.459 188.059 196.875Z" fill="#F9C732"/>
<path d="M206.295 227.468C239.816 227.468 266.99 200.294 266.99 166.773C266.99 133.252 239.816 106.078 206.295 106.078C172.774 106.078 145.6 133.252 145.6 166.773C145.6 200.294 172.774 227.468 206.295 227.468Z" fill="#FFEA85"/>
<path d="M266.991 166.773C266.991 200.291 239.817 227.468 206.296 227.468C204.011 227.468 201.757 227.342 199.537 227.093C229.876 223.731 253.469 198.006 253.469 166.773C253.469 135.536 229.876 109.815 199.537 106.453C201.757 106.205 204.011 106.078 206.296 106.078C239.817 106.078 266.991 133.251 266.991 166.773Z" fill="#F9C732"/>
<path d="M206.291 213.947C232.345 213.947 253.466 192.826 253.466 166.772C253.466 140.718 232.345 119.598 206.291 119.598C180.237 119.598 159.116 140.718 159.116 166.772C159.116 192.826 180.237 213.947 206.291 213.947Z" fill="#FFF3B9"/>
<path d="M253.464 166.772C253.464 165.673 253.425 164.583 253.347 163.502H214.187L241.879 135.801C240.445 134.157 238.901 132.609 237.253 131.179L209.561 158.876V119.711C208.479 119.633 207.389 119.594 206.291 119.594C205.192 119.594 204.102 119.633 203.021 119.711V158.876L175.328 131.179C173.68 132.613 172.137 134.157 170.702 135.805L198.394 163.502H159.235C159.157 164.583 159.117 165.673 159.117 166.772C159.117 167.871 159.157 168.96 159.235 170.042H198.394L170.702 197.734C172.132 199.382 173.676 200.926 175.324 202.36L203.021 174.668V213.828C204.102 213.906 205.192 213.946 206.291 213.946C207.389 213.946 208.48 213.906 209.561 213.828V174.664L237.253 202.36C238.901 200.926 240.445 199.382 241.879 197.734L214.187 170.042H253.347C253.425 168.961 253.464 167.871 253.464 166.772Z" fill="#FFDE5B"/>
<path d="M253.462 166.772C253.462 192.825 232.341 213.946 206.288 213.946C203.99 213.946 201.732 213.78 199.525 213.462C222.378 210.187 239.941 190.531 239.941 166.772C239.941 143.013 222.377 123.357 199.525 120.082C201.732 119.764 203.99 119.598 206.288 119.598C232.341 119.598 253.462 140.715 253.462 166.772Z" fill="#FFDE5B"/>
<path d="M206.294 119.609C205.195 119.609 204.101 119.649 203.024 119.723V120.73C205.269 121.227 207.454 121.881 209.564 122.688V119.727C208.483 119.649 207.393 119.609 206.294 119.609ZM203.023 212.837V213.844C204.1 213.918 205.195 213.957 206.293 213.957C207.392 213.957 208.483 213.918 209.564 213.84V210.879C207.454 211.685 205.269 212.34 203.023 212.837ZM237.256 131.19L230.28 138.167C231.631 139.933 232.857 141.799 233.947 143.748L241.882 135.812C240.448 134.168 238.904 132.625 237.256 131.19ZM233.951 189.815C232.861 191.764 231.631 193.63 230.284 195.396L237.256 202.372C238.904 200.938 240.448 199.394 241.882 197.746L233.951 189.815ZM253.35 163.513H239.838C239.908 164.595 239.947 165.684 239.947 166.783C239.947 167.882 239.908 168.972 239.838 170.053H253.35C253.428 168.972 253.468 167.882 253.468 166.783C253.468 165.684 253.428 164.595 253.35 163.513Z" fill="#FFEA85"/>
<path d="M206.29 174.911C210.771 174.911 214.403 171.279 214.403 166.797C214.403 162.316 210.771 158.684 206.29 158.684C201.808 158.684 198.176 162.316 198.176 166.797C198.176 171.279 201.808 174.911 206.29 174.911Z" fill="#FFEA85"/>
<path d="M170.695 92.4269H167.218C165.412 92.4269 163.948 90.9628 163.948 89.1568C163.948 87.3508 165.412 85.8867 167.218 85.8867H170.695C172.501 85.8867 173.965 87.3508 173.965 89.1568C173.965 90.9628 172.501 92.4269 170.695 92.4269Z" fill="#EDB528"/>
<path d="M130.965 92.4269H127.489C125.682 92.4269 124.219 90.9628 124.219 89.1568C124.219 87.3508 125.683 85.8867 127.489 85.8867H130.965C132.771 85.8867 134.235 87.3508 134.235 89.1568C134.235 90.9628 132.771 92.4269 130.965 92.4269Z" fill="#EDB528"/>
<path d="M158.629 80.1261H155.153C153.346 80.1261 151.883 78.662 151.883 76.856C151.883 75.05 153.347 73.5859 155.153 73.5859H158.629C160.436 73.5859 161.9 75.05 161.9 76.856C161.9 78.662 160.436 80.1261 158.629 80.1261Z" fill="#EDB528"/>
</g>
<defs>
<clipPath id="clip0_626_19915">
<rect width="300" height="300" fill="white"/>
</clipPath>
</defs>
</svg>
