<svg width="512" height="512" viewBox="0 0 512 512" fill="none" xmlns="http://www.w3.org/2000/svg">
<path d="M200.958 240.252C211.466 226.331 217.584 209.683 217.584 191.793C217.584 142.915 171.97 103.293 115.703 103.293C59.436 103.293 13.8221 142.915 13.8221 191.793C13.8221 209.683 19.9394 226.331 30.4477 240.252C11.5411 258.143 -0.00390625 281.999 -0.00390625 308.2C-0.00390625 363.709 51.8 408.709 115.703 408.709C179.606 408.709 231.41 363.709 231.41 308.2C231.41 281.999 219.865 258.143 200.958 240.252ZM115.703 340.706C100.429 340.706 88.0467 328.324 88.0467 313.05C88.0467 297.776 100.429 285.394 115.703 285.394C130.977 285.394 143.359 297.776 143.359 313.05C143.359 328.325 130.977 340.706 115.703 340.706ZM115.703 221.561C100.429 221.561 88.0467 209.179 88.0467 193.905C88.0467 178.631 100.429 166.249 115.703 166.249C130.977 166.249 143.359 178.631 143.359 193.905C143.359 209.179 130.977 221.561 115.703 221.561Z" fill="#B13D46"/>
<path d="M200.958 240.252C211.466 226.331 217.584 209.683 217.584 191.793C217.584 142.915 171.97 103.293 115.703 103.293C111.543 103.293 107.442 103.515 103.412 103.936C153.883 109.209 193.003 146.53 193.003 191.793C193.003 209.683 186.886 226.331 176.378 240.252C195.284 258.143 206.829 281.999 206.829 308.2C206.829 360.103 161.537 402.813 103.413 408.145C107.451 408.515 111.551 408.709 115.703 408.709C179.606 408.709 231.41 363.709 231.41 308.2C231.41 281.999 219.865 258.143 200.958 240.252Z" fill="#5F1824"/>
<path d="M62.1951 378.637C61.422 378.637 60.6394 378.442 59.92 378.033C37.3037 365.163 25.5648 345.006 20.5803 334.136C19.5191 331.823 20.535 329.087 22.8489 328.026C25.1616 326.965 27.8984 327.981 28.959 330.295C33.4806 340.156 44.1081 358.43 64.478 370.022C66.6904 371.281 67.4635 374.095 66.2043 376.307C65.3554 377.8 63.7979 378.637 62.1951 378.637Z" fill="white"/>
<path d="M389.598 103.293C322 103.293 267.201 171.663 267.201 256.001C267.201 340.34 322 408.709 389.598 408.709C457.197 408.709 511.996 340.34 511.996 256.001C511.996 171.663 457.197 103.293 389.598 103.293ZM389.598 299.175C370.487 299.175 354.994 279.845 354.994 256.001C354.994 232.157 370.487 212.828 389.598 212.828C408.709 212.828 424.202 232.157 424.202 256.001C424.202 279.845 408.709 299.175 389.598 299.175Z" fill="#B13D46"/>
<path d="M389.598 103.293C385.449 103.293 381.35 103.554 377.307 104.057C439.134 111.748 487.415 176.839 487.415 256.001C487.415 335.164 439.134 400.254 377.307 407.946C381.35 408.449 385.449 408.709 389.598 408.709C457.196 408.709 511.996 340.34 511.996 256.001C511.996 171.663 457.196 103.293 389.598 103.293Z" fill="#6E1E72"/>
<path d="M302.703 193.963C302.148 193.963 301.584 193.862 301.035 193.648C298.662 192.727 297.486 190.056 298.408 187.683C298.626 187.122 303.881 173.786 315.838 159.034C331.756 139.396 352.089 126.647 374.639 122.163C377.135 121.669 379.561 123.288 380.058 125.785C380.555 128.281 378.933 130.708 376.437 131.204C326.951 141.043 307.194 190.524 307 191.023C306.292 192.846 304.549 193.963 302.703 193.963Z" fill="white"/>
</svg>
