<svg width="512" height="512" viewBox="0 0 512 512" fill="none" xmlns="http://www.w3.org/2000/svg">
<path d="M216.111 249.274C191.32 193.246 132.233 189.074 81.282 209.836C81.5827 191.958 80.1627 180.058 75.881 162.661C75.881 162.661 88.7577 168.717 113.159 168.717C160.319 168.717 197.992 152.912 197.992 136.498C197.992 120.083 159.762 100.52 112.602 100.52C73.8003 100.52 41.0487 109.528 30.656 121.864C18.3466 132.303 7.36842 168.479 9.13455 197.512C11.1849 231.217 28.2765 261.627 40.2707 267.39C56.3012 275.091 72.7041 266.012 91.0237 262.255C122.544 255.79 143.956 264.665 148.39 287.556C155.23 322.859 116.913 341.086 83.9713 334.259C50.5747 327.336 30.7137 308.302 12.0759 314.574C-5.56473 320.511 -7.23732 356.975 29.9782 386.221C52.4167 403.855 83.7545 411.474 111.893 411.474C149.495 411.473 190.723 396.999 210.866 362.853C230.226 330.034 230.728 282.309 216.111 249.274Z" fill="#FF8B1B"/>
<path d="M172.966 136.497C172.966 151.281 142.405 165.567 101.88 168.261C105.314 168.544 109.071 168.716 113.159 168.716C160.319 168.716 197.992 152.912 197.992 136.497C197.992 120.083 159.762 100.52 112.602 100.52C107.951 100.52 103.39 100.653 98.9409 100.902C140.727 103.698 172.966 121.425 172.966 136.497Z" fill="#FB601F"/>
<path d="M216.111 249.277C197.963 208.263 161.437 195.04 123.178 199.041C151.712 202.28 176.963 217.363 191.085 249.277C205.702 282.312 205.199 330.037 185.839 362.857C167.867 393.324 133.107 408.119 99.1147 410.956C103.418 411.304 107.692 411.478 111.893 411.478C149.495 411.477 190.723 397.003 210.866 362.857C230.226 330.037 230.729 282.312 216.111 249.277Z" fill="#FB601F"/>
<path d="M84.9717 391.087C84.7621 391.087 84.5508 391.073 84.3376 391.045C46.0198 385.866 23.1573 356.259 22.2026 355.002C20.6363 352.937 21.0396 349.994 23.1039 348.427C25.1664 346.862 28.1065 347.264 29.6746 349.323C29.886 349.601 51.2325 377.1 85.5942 381.744C88.1626 382.091 89.9633 384.454 89.616 387.023C89.2977 389.377 87.2838 391.087 84.9717 391.087Z" fill="white"/>
<path d="M387.379 100.523C318.554 100.523 262.762 170.133 262.762 256.001C262.762 341.868 318.554 411.478 387.379 411.478C456.203 411.478 511.996 341.868 511.996 256.001C511.996 170.133 456.203 100.523 387.379 100.523ZM387.379 299.957C367.921 299.957 352.147 280.277 352.147 256.001C352.147 231.724 367.921 212.044 387.379 212.044C406.836 212.044 422.61 231.724 422.61 256.001C422.61 280.277 406.836 299.957 387.379 299.957Z" fill="#FF8B1B"/>
<path d="M387.378 100.523C383.154 100.523 378.981 100.789 374.865 101.301C437.813 109.132 486.969 175.403 486.969 256.001C486.969 336.599 437.813 402.869 374.865 410.7C378.981 411.212 383.154 411.478 387.378 411.478C456.202 411.478 511.996 341.868 511.996 256.001C511.996 170.133 456.202 100.523 387.378 100.523Z" fill="#FB601F"/>
<path d="M298.908 192.837C298.342 192.837 297.768 192.734 297.209 192.517C294.794 191.578 293.596 188.859 294.535 186.443C294.756 185.872 300.106 172.294 312.281 157.274C328.487 137.281 349.189 124.3 372.148 119.735C374.689 119.232 377.159 120.88 377.665 123.422C378.171 125.964 376.52 128.434 373.978 128.94C323.595 138.958 303.48 189.335 303.283 189.843C302.561 191.7 300.787 192.837 298.908 192.837Z" fill="white"/>
</svg>
