<svg width="512" height="512" viewBox="0 0 512 512" fill="none" xmlns="http://www.w3.org/2000/svg">
<path d="M191.831 178.422C173.889 178.422 158.602 209.753 152.776 253.649C131.072 250.847 108.966 250.528 87.1753 252.509C91.9787 244.755 96.6233 236.436 100.995 227.657C129.188 171.049 135.395 116.799 114.859 106.487C92.799 95.4081 65.1913 130.933 54.4948 144.971C29.6631 177.56 10.3727 217.491 2.98284 257.921C0.0587783 273.918 -4.62789 300.169 11.2166 310.579C29.3438 324.863 68.8965 334.769 114.781 334.769C128.104 334.769 140.89 333.931 152.776 332.396C158.602 376.293 173.889 407.624 191.831 407.624C214.791 407.624 233.404 356.315 233.404 293.023C233.404 229.731 214.791 178.422 191.831 178.422Z" fill="#FFB509"/>
<path d="M76.5897 227.659C72.2175 236.439 67.5729 244.757 62.7695 252.511C71.1265 251.752 79.5303 251.334 87.94 251.261C92.4709 243.863 96.8561 235.971 100.996 227.659C129.188 171.052 135.395 116.801 114.86 106.489C107.814 102.951 100.203 104.171 92.7576 107.921C110.46 121.098 103.668 173.287 76.5897 227.659Z" fill="#FF9100"/>
<path d="M191.831 178.422C187.584 178.422 183.486 180.18 179.626 183.442C196.632 197.814 208.998 241.436 208.998 293.023C208.998 344.61 196.632 388.232 179.626 402.603C183.486 405.866 187.584 407.623 191.831 407.623C214.791 407.623 233.404 356.315 233.404 293.022C233.404 229.731 214.791 178.422 191.831 178.422Z" fill="#FF9100"/>
<path d="M20.661 284.54C20.6302 284.54 20.5988 284.539 20.5675 284.539C18.0408 284.488 16.0336 282.399 16.0839 279.872C16.1135 278.383 17.0564 242.966 38.0716 204.643C39.2869 202.428 42.0676 201.614 44.2839 202.831C46.4996 204.046 47.3116 206.828 46.0963 209.044C26.1508 245.417 25.2411 279.714 25.234 280.056C25.1842 282.551 23.1456 284.54 20.661 284.54Z" fill="white"/>
<path d="M390.469 104.379C323.351 104.379 268.941 172.263 268.941 256.001C268.941 339.74 323.351 407.624 390.469 407.624C457.586 407.624 511.996 339.74 511.996 256.001C511.996 172.263 457.586 104.379 390.469 104.379ZM390.469 298.868C371.493 298.868 356.111 279.676 356.111 256.001C356.111 232.327 371.493 213.135 390.469 213.135C409.444 213.135 424.826 232.327 424.826 256.001C424.826 279.676 409.444 298.868 390.469 298.868Z" fill="#FFB509"/>
<path d="M390.468 104.379C386.349 104.379 382.279 104.638 378.265 105.137C439.653 112.774 487.59 177.402 487.59 256.001C487.59 334.601 439.653 399.229 378.265 406.866C382.279 407.365 386.349 407.624 390.468 407.624C457.586 407.624 511.996 339.74 511.996 256.001C511.996 172.263 457.586 104.379 390.468 104.379Z" fill="#FF9100"/>
<path d="M304.191 194.405C303.64 194.405 303.079 194.305 302.535 194.093C300.179 193.178 299.011 190.526 299.927 188.17C300.143 187.613 305.36 174.371 317.233 159.724C333.037 140.226 353.226 127.568 375.615 123.116C378.094 122.625 380.503 124.233 380.996 126.711C381.489 129.19 379.879 131.599 377.401 132.093C328.267 141.862 308.65 190.99 308.458 191.485C307.754 193.296 306.024 194.405 304.191 194.405Z" fill="white"/>
</svg>
