<svg width="512" height="512" viewBox="0 0 512 512" fill="none" xmlns="http://www.w3.org/2000/svg">
<path d="M90.9698 144.41C90.5538 144.41 90.1395 144.378 89.7265 144.41C77.3749 143.473 54.5666 155.536 33.3257 175.18C7.53051 199.036 -6.18081 225.034 2.7003 233.247C10.0603 240.054 35.1184 232.511 56.6281 216.151C54.8667 228.528 53.8994 241.959 53.8994 255.999C53.8994 317.657 68.015 367.641 90.9698 367.641C113.925 367.641 128.04 317.657 128.04 255.999C128.04 194.341 113.925 144.41 90.9698 144.41Z" fill="#F85221"/>
<path d="M90.9696 144.41C90.5536 144.41 90.1393 144.377 89.7263 144.41C86.8385 144.19 83.3737 144.691 79.4963 145.824C98.5874 154.331 110.069 200.392 110.069 255.998C110.069 309.146 99.5808 353.615 81.9843 364.88C84.8019 366.684 87.8009 367.641 90.9696 367.641C113.924 367.641 128.04 317.657 128.04 255.999C128.04 194.34 113.924 144.41 90.9696 144.41Z" fill="#EE1F1F"/>
<path d="M49.0318 185.429C48.1295 185.429 47.2298 185.069 46.5661 184.357C45.2975 182.995 45.3725 180.863 46.734 179.594C47.4627 178.916 64.8198 162.89 86.1196 156.003C87.8902 155.433 89.7898 156.403 90.3629 158.173C90.935 159.943 89.9638 161.843 88.1933 162.416C68.3038 168.847 51.4961 184.369 51.3287 184.525C50.6789 185.13 49.8542 185.429 49.0318 185.429Z" fill="white"/>
<path d="M230.536 144.359C181.117 144.359 141.055 194.343 141.055 256C141.055 317.658 181.117 367.641 230.536 367.641C279.956 367.641 320.018 317.658 320.018 256C320.018 194.343 279.956 144.359 230.536 144.359ZM230.536 287.563C216.565 287.563 205.238 273.432 205.238 256C205.238 238.569 216.565 224.437 230.536 224.437C244.508 224.437 255.834 238.569 255.834 256C255.834 273.432 244.508 287.563 230.536 287.563Z" fill="#F85221"/>
<path d="M230.536 144.359C227.503 144.359 224.506 144.55 221.551 144.918C266.751 150.541 302.047 198.127 302.047 256C302.047 313.874 266.751 361.46 221.551 367.083C224.506 367.45 227.503 367.641 230.536 367.641C279.955 367.641 320.018 317.658 320.018 256C320.018 194.343 279.955 144.359 230.536 144.359Z" fill="#EE1F1F"/>
<path d="M167.009 210.646C166.603 210.646 166.191 210.572 165.79 210.416C164.055 209.742 163.195 207.79 163.87 206.055C164.029 205.645 167.87 195.895 176.612 185.11C188.249 170.754 203.114 161.433 219.6 158.155C221.425 157.793 223.198 158.977 223.562 160.802C223.924 162.627 222.739 164.401 220.914 164.765C184.736 171.958 170.293 208.132 170.151 208.496C169.633 209.829 168.359 210.646 167.009 210.646Z" fill="white"/>
<path d="M422.514 144.359C373.095 144.359 333.033 194.343 333.033 256C333.033 317.658 373.095 367.641 422.514 367.641C471.934 367.641 511.996 317.658 511.996 256C511.996 194.343 471.934 144.359 422.514 144.359ZM422.514 287.563C408.542 287.563 397.216 273.432 397.216 256C397.216 238.569 408.542 224.437 422.514 224.437C436.486 224.437 447.812 238.569 447.812 256C447.812 273.432 436.486 287.563 422.514 287.563Z" fill="#F85221"/>
<path d="M422.514 144.359C419.481 144.359 416.484 144.55 413.529 144.918C458.729 150.541 494.025 198.127 494.025 256C494.025 313.874 458.729 361.46 413.529 367.083C416.484 367.45 419.481 367.641 422.514 367.641C471.933 367.641 511.996 317.658 511.996 256C511.996 194.343 471.933 144.359 422.514 144.359Z" fill="#EE1F1F"/>
<path d="M358.988 210.646C358.582 210.646 358.169 210.572 357.768 210.416C356.033 209.742 355.173 207.79 355.848 206.055C356.007 205.645 359.848 195.895 368.59 185.11C380.227 170.754 395.092 161.433 411.578 158.155C413.403 157.793 415.177 158.977 415.54 160.802C415.903 162.627 414.717 164.401 412.892 164.765C376.714 171.958 362.271 208.132 362.129 208.496C361.611 209.829 360.337 210.646 358.988 210.646Z" fill="white"/>
</svg>
