<svg width="512" height="512" viewBox="0 0 512 512" fill="none" xmlns="http://www.w3.org/2000/svg">
<path d="M212.697 182.135C182.123 57.2668 4.50663 75.6525 0.0644983 197.687C-1.82311 249.533 35.4176 298.28 104.076 295.098C121.06 294.311 133.519 289.946 141.982 285.508C148.289 282.202 155.778 287.114 155.215 294.216C155.206 294.314 155.199 294.413 155.191 294.511C153.644 313.72 145.07 339.032 112.457 348.291C65.6143 361.591 38.3947 324.225 20.6703 336.891C-0.162363 351.779 24.7116 418.157 107.354 415.005C156.612 413.126 194.074 379.866 209.088 326.558C220.793 284.999 223.84 227.644 212.697 182.135ZM104.076 239.306C86.0666 239.306 71.4673 221.251 71.4673 198.979C71.4673 176.707 86.0666 158.652 104.076 158.652C122.085 158.652 136.683 176.707 136.683 198.979C136.684 221.251 122.085 239.306 104.076 239.306Z" fill="#683C68"/>
<path d="M212.697 182.135C197.12 118.515 143.373 92.086 93.8062 97.6015C135.045 102.224 174.175 129.407 187.085 182.136C198.228 227.645 195.181 284.999 183.477 326.559C169.194 377.275 134.591 409.842 88.8433 414.508C94.6577 415.067 100.825 415.254 107.355 415.006C156.613 413.127 194.075 379.867 209.088 326.559C220.793 284.999 223.841 227.644 212.697 182.135Z" fill="#3F163F"/>
<path d="M24.4458 179.563C23.9349 179.563 23.4159 179.481 22.9056 179.308C20.3965 178.458 19.049 175.739 19.8955 173.228C20.4251 171.658 33.2909 134.601 69.7832 120.931C72.2669 120.002 75.0346 121.259 75.965 123.743C76.8955 126.227 75.6362 128.995 73.1526 129.925C41.0172 141.962 29.111 175.962 28.9942 176.305C28.3136 178.302 26.4459 179.563 24.4458 179.563Z" fill="white"/>
<path d="M384.464 96.8867C314.03 96.8867 256.933 168.124 256.933 256C256.933 343.876 314.03 415.114 384.464 415.114C454.898 415.114 511.996 343.876 511.996 256C511.996 168.124 454.898 96.8867 384.464 96.8867ZM384.464 300.985C364.551 300.985 348.409 280.844 348.409 256C348.409 231.156 364.551 211.016 384.464 211.016C404.377 211.016 420.519 231.156 420.519 256C420.519 280.844 404.377 300.985 384.464 300.985Z" fill="#683C68"/>
<path d="M384.464 96.8867C380.141 96.8867 375.87 97.1583 371.658 97.6823C436.078 105.696 486.384 173.517 486.384 256C486.384 338.483 436.078 406.304 371.658 414.318C375.87 414.842 380.141 415.114 384.464 415.114C454.898 415.114 511.996 343.876 511.996 256C511.996 168.124 454.898 96.8867 384.464 96.8867Z" fill="#3F163F"/>
<path d="M293.924 191.357C293.345 191.357 292.757 191.252 292.186 191.029C289.714 190.069 288.488 187.287 289.449 184.814C289.676 184.23 295.151 170.334 307.61 154.963C324.195 134.502 345.381 121.218 368.877 116.546C371.478 116.03 374.006 117.718 374.524 120.319C375.041 122.92 373.352 125.449 370.75 125.966C319.189 136.218 298.604 187.774 298.402 188.293C297.663 190.194 295.848 191.357 293.924 191.357Z" fill="white"/>
</svg>
