<svg width="512" height="512" viewBox="0 0 512 512" fill="none" xmlns="http://www.w3.org/2000/svg">
<path d="M231.975 149.009C227.367 131.507 191.211 104.941 115.998 104.941C51.9315 104.941 -0.00390625 124.997 -0.00390625 149.736C-0.00390625 174.476 51.9315 194.531 115.998 194.531C122.43 194.531 134.965 194.326 141.112 193.937C133.335 206.65 125.814 220.736 118.851 235.862C117.351 235.818 115.835 235.795 114.306 235.795C81.4618 235.795 54.8364 246.172 54.8364 258.972C54.8364 269.968 74.4836 279.175 100.843 281.553C80.4451 343.646 73.9761 395.823 96.3588 405.492C123.01 417.006 171.64 363.894 204.977 286.865C229.028 231.291 239.658 178.187 231.975 149.009Z" fill="#70CE94"/>
<path d="M231.975 149.009C227.367 131.507 191.211 104.941 115.998 104.941C111.894 104.941 107.84 105.025 103.846 105.186C170.807 107.869 203.308 132.479 207.66 149.009C215.343 178.187 204.713 231.292 180.662 286.864C154.928 346.326 120.083 391.525 93.2681 403.758C94.2305 404.434 95.2584 405.016 96.3589 405.491C123.01 417.005 171.64 363.893 204.977 286.864C229.028 231.291 239.658 178.187 231.975 149.009Z" fill="#32B088"/>
<path d="M81.4568 175.803C81.3505 175.803 81.2437 175.799 81.1363 175.792C44.5393 173.252 20.4749 157.949 19.4688 157.299C17.3534 155.933 16.7462 153.111 18.1128 150.996C19.4789 148.881 22.2988 148.275 24.4131 149.637C24.7293 149.84 47.7004 164.33 81.7677 166.695C84.2797 166.87 86.1744 169.048 86.0003 171.559C85.8333 173.964 83.8312 175.803 81.4568 175.803Z" fill="white"/>
<path d="M390.92 104.941C324.051 104.941 269.844 172.573 269.844 256C269.844 339.428 324.051 407.06 390.92 407.06C457.788 407.06 511.996 339.428 511.996 256C511.996 172.573 457.788 104.941 390.92 104.941ZM390.92 298.708C372.015 298.708 356.69 279.587 356.69 256C356.69 232.414 372.015 213.293 390.92 213.293C409.825 213.293 425.15 232.414 425.15 256C425.15 279.587 409.825 298.708 390.92 298.708Z" fill="#70CE94"/>
<path d="M390.92 104.941C386.816 104.941 382.761 105.199 378.762 105.697C439.921 113.305 487.68 177.693 487.68 256C487.68 334.308 439.921 398.696 378.762 406.304C382.761 406.802 386.816 407.06 390.92 407.06C457.788 407.06 511.996 339.428 511.996 256C511.996 172.573 457.788 104.941 390.92 104.941Z" fill="#32B088"/>
<path d="M304.963 194.632C304.414 194.632 303.856 194.532 303.313 194.321C300.966 193.409 299.802 190.767 300.715 188.42C300.93 187.865 306.128 174.672 317.957 160.08C333.702 140.655 353.815 128.043 376.122 123.607C378.592 123.118 380.991 124.72 381.483 127.19C381.974 129.659 380.37 132.06 377.901 132.551C328.949 142.284 309.406 191.23 309.214 191.723C308.513 193.527 306.79 194.632 304.963 194.632Z" fill="white"/>
</svg>
