<svg width="512" height="512" viewBox="0 0 512 512" fill="none" xmlns="http://www.w3.org/2000/svg">
<path d="M115.561 216.902C98.5765 217.69 86.1172 222.055 77.6543 226.492C71.347 229.799 63.8587 224.887 64.4218 217.784C64.4299 217.686 64.4373 217.587 64.4454 217.489C65.9924 198.28 74.5665 172.968 107.179 163.709C154.022 150.41 181.242 187.775 198.966 175.109C219.798 160.221 194.924 93.8429 112.281 96.9954C63.0234 98.8743 25.5615 132.134 10.5482 185.442C-1.15655 227.002 -4.20395 284.357 6.93959 329.865C37.5136 454.733 215.13 436.348 219.572 314.313C221.459 262.467 184.219 213.72 115.561 216.902ZM115.561 353.348C97.5516 353.348 82.9529 335.293 82.9529 313.021C82.9529 290.749 97.5522 272.694 115.561 272.694C133.57 272.694 148.169 290.749 148.169 313.021C148.168 335.293 133.57 353.348 115.561 353.348Z" fill="#FB1466"/>
<path d="M174.967 173.755C184.596 177.644 192.427 179.78 198.965 175.109C219.798 160.221 194.924 93.8429 112.281 96.9954C109.886 97.0867 107.52 97.2545 105.182 97.4932C170.925 103.818 191.317 157.999 174.967 173.755Z" fill="#E01058"/>
<path d="M115.56 216.902C113.3 217.007 111.126 217.179 109.025 217.402C165.457 223.208 195.664 267.493 193.96 314.313C191.781 374.171 147.937 409.088 100.218 414.399C156.638 420.723 217.005 384.816 219.571 314.313C221.459 262.466 184.219 213.719 115.56 216.902Z" fill="#E01058"/>
<path d="M33.8556 348.468C32.0892 348.468 30.3905 347.49 29.5521 345.8C28.9088 344.502 13.8228 313.539 16.1952 271.543C16.3444 268.895 18.6105 266.876 21.2608 267.019C23.9091 267.169 25.9341 269.436 25.7849 272.084C23.5617 311.433 38.0131 341.241 38.1591 341.537C39.3313 343.914 38.358 346.794 35.9819 347.968C35.2976 348.307 34.571 348.468 33.8556 348.468Z" fill="white"/>
<path d="M384.464 96.8867C314.031 96.8867 256.933 168.124 256.933 256C256.933 343.876 314.031 415.114 384.464 415.114C454.898 415.114 511.996 343.876 511.996 256C511.996 168.124 454.898 96.8867 384.464 96.8867ZM384.464 300.984C364.552 300.984 348.409 280.844 348.409 256C348.409 231.156 364.552 211.016 384.464 211.016C404.377 211.016 420.52 231.156 420.52 256C420.52 280.844 404.377 300.984 384.464 300.984Z" fill="#FB1466"/>
<path d="M384.464 96.8867C380.141 96.8867 375.87 97.1583 371.658 97.6823C436.078 105.696 486.383 173.517 486.383 256C486.383 338.483 436.078 406.304 371.658 414.318C375.87 414.842 380.141 415.114 384.464 415.114C454.898 415.114 511.996 343.876 511.996 256C511.996 168.124 454.898 96.8867 384.464 96.8867Z" fill="#E01058"/>
<path d="M293.925 191.361C293.346 191.361 292.758 191.256 292.186 191.033C289.714 190.073 288.489 187.29 289.45 184.818C289.676 184.234 295.152 170.337 307.611 154.967C324.196 134.506 345.382 121.222 368.878 116.55C371.479 116.034 374.007 117.722 374.524 120.323C375.041 122.924 373.352 125.452 370.751 125.97C319.189 136.222 298.604 187.778 298.402 188.297C297.664 190.197 295.848 191.361 293.925 191.361Z" fill="white"/>
</svg>
