<svg width="512" height="512" viewBox="0 0 512 512" fill="none" xmlns="http://www.w3.org/2000/svg">
<path d="M59.6139 256.445C59.6139 274.847 86.4882 279.476 104.781 286.474C139.832 299.881 135.818 338.66 104.628 345.624C63.2639 354.861 29.7362 295.889 5.04541 324.531C-13.9051 346.516 20.0949 418.308 113.673 418.308C163.065 418.308 205.639 386.899 212.877 336.558C216.982 308.014 206.763 277.167 187.171 256.001C206.762 234.836 216.981 203.989 212.877 175.445C205.639 125.103 163.066 93.6953 113.673 93.6953C20.0949 93.6953 -13.9051 165.487 5.04604 187.472C29.7369 216.114 63.2639 157.142 104.628 166.379C135.819 173.344 139.832 212.122 104.782 225.53C90.298 231.07 58.9665 235.591 59.6139 256.445Z" fill="#8C79F8"/>
<path d="M212.877 175.445C205.638 125.103 163.065 93.6953 113.672 93.6953C108.701 93.6953 103.908 93.9096 99.2725 94.2964C143.534 98.853 180.092 129.137 186.751 175.445C190.856 203.989 180.637 234.836 161.045 256.001C180.636 277.167 190.855 308.014 186.751 336.558C180.092 382.866 143.534 413.151 99.2725 417.706C103.908 418.093 108.701 418.308 113.672 418.308C163.064 418.308 205.638 386.899 212.877 336.558C216.981 308.014 206.762 277.167 187.17 256.001C206.762 234.836 216.981 203.989 212.877 175.445Z" fill="#6651DD"/>
<path d="M46.6735 140.189C45.2076 140.189 43.7577 139.534 42.7933 138.285C41.1411 136.146 41.5304 133.077 43.6664 131.422C44.6453 130.663 67.9216 112.926 101.345 112.926C101.508 112.926 101.669 112.926 101.831 112.927C104.537 112.941 106.718 115.145 106.705 117.851C106.691 120.548 104.5 122.724 101.807 122.724C101.648 122.724 101.504 122.723 101.356 122.723C71.3859 122.723 49.8758 139.006 49.6616 139.172C48.7701 139.857 47.7177 140.189 46.6735 140.189Z" fill="white"/>
<path d="M381.905 93.6914C310.058 93.6914 251.815 166.358 251.815 255.998C251.815 345.637 310.058 418.304 381.905 418.304C453.752 418.304 511.996 345.637 511.996 255.998C511.996 166.358 453.752 93.6914 381.905 93.6914ZM381.905 301.884C361.593 301.884 345.126 281.34 345.126 255.998C345.126 230.655 361.593 210.111 381.905 210.111C402.218 210.111 418.684 230.655 418.684 255.998C418.684 281.34 402.218 301.884 381.905 301.884Z" fill="#8C79F8"/>
<path d="M381.905 93.6914C377.495 93.6914 373.138 93.9685 368.842 94.5029C434.555 102.678 485.87 171.86 485.87 255.998C485.87 340.135 434.555 409.317 368.842 417.492C373.138 418.027 377.495 418.304 381.905 418.304C453.752 418.304 511.996 345.637 511.996 255.998C511.996 166.358 453.752 93.6914 381.905 93.6914Z" fill="#6651DD"/>
<path d="M289.549 190.059C288.959 190.059 288.359 189.952 287.775 189.725C285.254 188.746 284.004 185.907 284.984 183.385C285.215 182.789 290.8 168.614 303.51 152.935C320.428 132.063 342.038 118.513 366.006 113.747C368.659 113.221 371.238 114.943 371.766 117.596C372.293 120.249 370.57 122.828 367.917 123.356C315.321 133.814 294.322 186.404 294.116 186.934C293.363 188.872 291.511 190.059 289.549 190.059Z" fill="white"/>
</svg>
