<svg width="512" height="512" viewBox="0 0 512 512" fill="none" xmlns="http://www.w3.org/2000/svg">
<path d="M66.1609 174.842C65.8583 174.842 65.557 174.818 65.2566 174.842C56.2734 174.16 39.685 182.934 24.2365 197.221C5.47584 214.571 -4.49634 233.479 1.96285 239.452C7.31576 244.403 25.5404 238.917 41.1843 227.019C39.9032 236.02 39.1997 245.789 39.1997 256C39.1997 300.843 49.4659 337.196 66.1609 337.196C82.8558 337.196 93.1221 300.843 93.1221 256C93.1221 211.156 82.8558 174.842 66.1609 174.842Z" fill="#FB1466"/>
<path d="M66.1607 174.841C65.8582 174.841 65.5568 174.818 65.2565 174.841C63.1562 174.682 60.6363 175.046 57.8163 175.87C71.7011 182.057 80.0519 215.557 80.0519 255.999C80.0519 294.653 72.4236 326.995 59.6257 335.188C61.675 336.501 63.8562 337.196 66.1607 337.196C82.8557 337.196 93.1219 300.843 93.1219 256C93.1219 211.155 82.8557 174.841 66.1607 174.841Z" fill="#EE1F1F"/>
<path d="M35.6595 204.676C35.0032 204.676 34.3489 204.414 33.8662 203.897C32.9435 202.906 32.9981 201.356 33.9883 200.433C34.5183 199.939 47.142 188.284 62.6333 183.275C63.921 182.86 65.3026 183.566 65.7194 184.853C66.1355 186.141 65.4292 187.523 64.1415 187.939C49.6759 192.616 37.4518 203.905 37.33 204.019C36.8574 204.459 36.2576 204.676 35.6595 204.676Z" fill="white"/>
<path d="M167.667 214.766C131.724 214.766 102.588 251.118 102.588 295.962C102.588 340.805 131.724 377.157 167.667 377.157C203.609 377.157 232.747 340.805 232.747 295.962C232.747 251.118 203.609 214.766 167.667 214.766ZM167.667 318.917C157.505 318.917 149.268 308.639 149.268 295.962C149.268 283.284 157.505 273.006 167.667 273.006C177.829 273.006 186.066 283.284 186.066 295.962C186.066 308.639 177.829 318.917 167.667 318.917Z" fill="#A338A3"/>
<path d="M167.667 214.766C165.461 214.766 163.281 214.904 161.132 215.172C194.006 219.261 219.677 253.87 219.677 295.962C219.677 338.053 194.006 372.662 161.132 376.751C163.281 377.019 165.461 377.157 167.667 377.157C203.609 377.157 232.747 340.805 232.747 295.962C232.747 251.118 203.609 214.766 167.667 214.766Z" fill="#6E1E72"/>
<path d="M121.464 262.974C121.169 262.974 120.869 262.92 120.577 262.806C119.316 262.316 118.69 260.896 119.181 259.635C119.296 259.337 122.09 252.245 128.448 244.402C136.912 233.96 147.723 227.181 159.713 224.797C161.04 224.534 162.33 225.395 162.594 226.723C162.858 228.05 161.996 229.34 160.669 229.605C134.357 234.836 123.852 261.145 123.749 261.41C123.372 262.38 122.446 262.974 121.464 262.974Z" fill="white"/>
<path d="M307.292 174.805C271.349 174.805 242.212 211.157 242.212 256.001C242.212 300.844 271.349 337.196 307.292 337.196C343.234 337.196 372.371 300.844 372.371 256.001C372.371 211.157 343.234 174.805 307.292 174.805ZM307.292 278.956C297.13 278.956 288.893 268.679 288.893 256.001C288.893 243.323 297.13 233.045 307.292 233.045C317.453 233.045 325.691 243.323 325.691 256.001C325.691 268.679 317.453 278.956 307.292 278.956Z" fill="#FF8B1B"/>
<path d="M307.291 174.805C305.085 174.805 302.906 174.943 300.756 175.211C333.63 179.3 359.301 213.909 359.301 256.001C359.301 298.092 333.63 332.701 300.756 336.79C302.906 337.058 305.085 337.196 307.291 337.196C343.234 337.196 372.371 300.844 372.371 256.001C372.371 211.157 343.234 174.805 307.291 174.805Z" fill="#FB601F"/>
<path d="M261.089 223.013C260.794 223.013 260.494 222.959 260.202 222.845C258.94 222.355 258.315 220.935 258.805 219.674C258.921 219.376 261.715 212.284 268.073 204.441C276.536 193.999 287.348 187.22 299.338 184.836C300.665 184.573 301.955 185.434 302.219 186.762C302.483 188.089 301.621 189.379 300.294 189.644C273.982 194.875 263.477 221.184 263.374 221.449C262.997 222.419 262.071 223.013 261.089 223.013Z" fill="white"/>
<path d="M446.916 214.766C410.974 214.766 381.837 251.118 381.837 295.962C381.837 340.805 410.974 377.157 446.916 377.157C482.859 377.157 511.996 340.805 511.996 295.962C511.996 251.118 482.859 214.766 446.916 214.766ZM446.916 318.917C436.755 318.917 428.517 308.639 428.517 295.962C428.517 283.284 436.755 273.006 446.916 273.006C457.078 273.006 465.315 283.284 465.315 295.962C465.315 308.639 457.078 318.917 446.916 318.917Z" fill="#0BB49A"/>
<path d="M446.916 214.766C444.71 214.766 442.531 214.904 440.381 215.172C473.255 219.261 498.926 253.87 498.926 295.962C498.926 338.053 473.255 372.662 440.381 376.751C442.531 377.019 444.71 377.157 446.916 377.157C482.859 377.157 511.996 340.805 511.996 295.962C511.996 251.118 482.859 214.766 446.916 214.766Z" fill="#0C8E81"/>
<path d="M400.714 262.974C400.418 262.974 400.118 262.92 399.827 262.806C398.565 262.316 397.94 260.896 398.43 259.635C398.546 259.337 401.34 252.245 407.698 244.402C416.161 233.96 426.972 227.181 438.962 224.797C440.29 224.534 441.58 225.395 441.844 226.723C442.108 228.05 441.246 229.34 439.918 229.605C413.606 234.836 403.102 261.145 402.999 261.41C402.622 262.38 401.695 262.974 400.714 262.974Z" fill="white"/>
</svg>
