<svg width="512" height="512" viewBox="0 0 512 512" fill="none" xmlns="http://www.w3.org/2000/svg">
<path d="M145.798 337.12C181.761 304.067 209.725 260.111 209.725 209.86C209.725 142.849 165.643 95.3777 108.35 95.2892C57.9778 95.2114 24.6207 124.645 12.1945 148.635C-8.17634 187.963 12.1141 204.859 41.4402 185.452C56.3292 175.599 75.5098 164.32 92.7599 166.908C114.237 170.13 129.417 190.627 121.654 217.796C101.168 289.495 -0.00390625 335.176 -0.00390625 370.877C-0.00390625 394.025 46.615 416.712 103.748 416.712C165.643 416.712 216.704 397.947 216.704 374.798C216.704 358.243 189.101 343.931 145.798 337.12Z" fill="#0BB49A"/>
<path d="M145.799 337.12C181.761 304.067 209.726 260.111 209.726 209.86C209.726 142.849 165.643 95.3777 108.351 95.2892C103.59 95.2817 98.9812 95.5391 94.5272 96.0294C145.836 102.258 183.857 147.629 183.857 209.86C183.857 260.111 155.893 304.067 119.93 337.12C163.233 343.931 190.836 358.243 190.836 374.798C190.836 396.165 147.33 413.797 91.957 416.384C95.8292 416.597 99.7622 416.711 103.749 416.711C165.643 416.711 216.705 397.946 216.705 374.798C216.705 358.243 189.101 343.931 145.799 337.12Z" fill="#0C8E81"/>
<path d="M30.3762 364.664C29.0183 364.664 27.6686 364.097 26.7094 362.991C24.9547 360.967 25.1732 357.902 27.1972 356.148C27.4338 355.944 51.059 335.44 71.4223 315.851C73.3521 313.994 76.4232 314.053 78.2808 315.984C80.1378 317.914 80.0781 320.985 78.1477 322.843C57.5999 342.61 33.7907 363.272 33.5528 363.478C32.6337 364.274 31.5025 364.664 30.3762 364.664Z" fill="white"/>
<path d="M383.184 95.2891C312.043 95.2891 254.372 167.242 254.372 256.001C254.372 344.759 312.043 416.712 383.184 416.712C454.325 416.712 511.996 344.759 511.996 256.001C511.996 167.242 454.325 95.2891 383.184 95.2891ZM383.184 301.437C363.071 301.437 346.766 281.094 346.766 256.001C346.766 230.907 363.071 210.564 383.184 210.564C403.296 210.564 419.601 230.907 419.601 256.001C419.601 281.094 403.296 301.437 383.184 301.437Z" fill="#0BB49A"/>
<path d="M383.183 95.2891C378.817 95.2891 374.503 95.5634 370.249 96.0926C435.316 104.187 486.127 172.689 486.127 256.001C486.127 339.312 435.316 407.814 370.249 415.908C374.503 416.438 378.817 416.712 383.183 416.712C454.324 416.712 511.996 344.759 511.996 256.001C511.996 167.242 454.324 95.2891 383.183 95.2891Z" fill="#0C8E81"/>
<path d="M291.735 190.711C291.15 190.711 290.556 190.605 289.979 190.38C287.482 189.41 286.244 186.599 287.215 184.102C287.444 183.512 292.974 169.476 305.558 153.951C322.31 133.285 343.708 119.867 367.44 115.148C370.068 114.628 372.621 116.332 373.144 118.959C373.666 121.587 371.96 124.14 369.332 124.663C317.253 135.018 296.461 187.092 296.257 187.616C295.511 189.536 293.678 190.711 291.735 190.711Z" fill="white"/>
</svg>
