<svg width="16" height="16" viewBox="0 0 16 16" fill="none" xmlns="http://www.w3.org/2000/svg">
<g clip-path="url(#clip0_2593_12124)">
<path d="M-0.0253906 7.99979C-0.0253906 11.4931 2.21461 14.4531 5.30794 15.5465V0.453125C2.21461 1.54646 -0.0253906 4.50646 -0.0253906 7.99979Z" fill="#0052B4"/>
<path d="M15.9749 7.99979C15.9749 4.50646 13.7616 1.54646 10.6416 0.453125V15.5465C13.7616 14.4531 15.9749 11.4931 15.9749 7.99979Z" fill="#D80027"/>
<path d="M5.30762 15.5467C6.13428 15.84 7.04095 16 7.97428 16C8.90762 16 9.81428 15.84 10.641 15.5467V0.453333C9.81428 0.16 8.93428 0 7.97428 0C7.01428 0 6.13428 0.16 5.30762 0.453333V15.5467Z" fill="white"/>
</g>
<defs>
<clipPath id="clip0_2593_12124">
<rect width="16" height="16" rx="8" fill="white"/>
</clipPath>
</defs>
</svg>
