<svg width="16" height="16" viewBox="0 0 16 16" fill="none" xmlns="http://www.w3.org/2000/svg">
<g clip-path="url(#clip0_2593_12136)">
<path d="M15.8671 6.61333C15.2271 2.85333 11.9471 0 8.00046 0C4.05379 0 0.773789 2.85333 0.133789 6.61333L8.00046 2.66667L15.8671 6.61333ZM0.133789 9.38667C0.773789 13.1467 4.05379 16 8.00046 16C11.9471 16 15.2271 13.1467 15.8671 9.38667L8.00046 13.3333L0.133789 9.38667Z" fill="#699635"/>
<path d="M8 2.66406L0.133333 6.61073C0.0533333 7.06406 0 7.5174 0 7.9974C0 8.4774 0.0533333 8.93073 0.133333 9.38406L8 13.3307L15.8667 9.38406C15.9467 8.93073 16 8.4774 16 7.9974C16 7.5174 15.9467 7.06406 15.8667 6.61073L8 2.66406Z" fill="#FFE62E"/>
<path d="M6.4 7.03906C5.54667 7.03906 4.74667 7.22573 4.02667 7.54573C4 7.70573 4 7.83906 4 7.99906C4 10.2124 5.78667 11.9991 8 11.9991C9.49333 11.9991 10.8 11.1724 11.4933 9.9724C10.5067 8.23906 8.58667 7.03906 6.4 7.03906Z" fill="#0052B4"/>
<path d="M11.9471 8.64C11.9737 8.42667 12.0004 8.21333 12.0004 8C12.0004 5.78667 10.2137 4 8.00039 4C6.42706 4 5.06706 4.90667 4.40039 6.24C5.04039 6.05333 5.70706 5.94667 6.40039 5.94667C8.66706 5.94667 10.6671 7.01333 11.9471 8.64Z" fill="#0052B4"/>
<path d="M6.40068 5.95312C5.70734 5.95312 5.04068 6.05979 4.40068 6.24646C4.21401 6.64646 4.08068 7.07313 4.02734 7.55313C4.74734 7.23313 5.54734 7.04646 6.40068 7.04646C8.58734 7.04646 10.5073 8.21979 11.494 9.95313C11.734 9.55313 11.8673 9.09979 11.9473 8.64646C10.6673 7.01979 8.66734 5.95312 6.40068 5.95312Z" fill="white"/>
<path d="M5.33307 8.26771C5.48035 8.26771 5.59974 8.14832 5.59974 8.00104C5.59974 7.85377 5.48035 7.73438 5.33307 7.73438C5.1858 7.73438 5.06641 7.85377 5.06641 8.00104C5.06641 8.14832 5.1858 8.26771 5.33307 8.26771Z" fill="white"/>
<path d="M6.40046 9.86927C6.54773 9.86927 6.66712 9.74988 6.66712 9.6026C6.66712 9.45533 6.54773 9.33594 6.40046 9.33594C6.25318 9.33594 6.13379 9.45533 6.13379 9.6026C6.13379 9.74988 6.25318 9.86927 6.40046 9.86927Z" fill="white"/>
<path d="M8.00007 9.86927C8.14734 9.86927 8.26673 9.74988 8.26673 9.6026C8.26673 9.45533 8.14734 9.33594 8.00007 9.33594C7.85279 9.33594 7.7334 9.45533 7.7334 9.6026C7.7334 9.74988 7.85279 9.86927 8.00007 9.86927Z" fill="white"/>
<path d="M8.00007 10.9318C8.14734 10.9318 8.26673 10.8124 8.26673 10.6651C8.26673 10.5178 8.14734 10.3984 8.00007 10.3984C7.85279 10.3984 7.7334 10.5178 7.7334 10.6651C7.7334 10.8124 7.85279 10.9318 8.00007 10.9318Z" fill="white"/>
<path d="M10.1329 9.86927C10.2802 9.86927 10.3995 9.74988 10.3995 9.6026C10.3995 9.45533 10.2802 9.33594 10.1329 9.33594C9.9856 9.33594 9.86621 9.45533 9.86621 9.6026C9.86621 9.74988 9.9856 9.86927 10.1329 9.86927Z" fill="white"/>
<path d="M10.1329 10.9318C10.2802 10.9318 10.3995 10.8124 10.3995 10.6651C10.3995 10.5178 10.2802 10.3984 10.1329 10.3984C9.9856 10.3984 9.86621 10.5178 9.86621 10.6651C9.86621 10.8124 9.9856 10.9318 10.1329 10.9318Z" fill="white"/>
<path d="M9.06647 10.4005C9.21375 10.4005 9.33314 10.2811 9.33314 10.1339C9.33314 9.98658 9.21375 9.86719 9.06647 9.86719C8.9192 9.86719 8.7998 9.98658 8.7998 10.1339C8.7998 10.2811 8.9192 10.4005 9.06647 10.4005Z" fill="white"/>
<path d="M5.33307 9.33021C5.48035 9.33021 5.59974 9.21082 5.59974 9.06354C5.59974 8.91627 5.48035 8.79688 5.33307 8.79688C5.1858 8.79688 5.06641 8.91627 5.06641 9.06354C5.06641 9.21082 5.1858 9.33021 5.33307 9.33021Z" fill="white"/>
</g>
<defs>
<clipPath id="clip0_2593_12136">
<rect width="16" height="16" rx="8" fill="white"/>
</clipPath>
</defs>
</svg>
