<svg width="16" height="16" viewBox="0 0 16 16" fill="none" xmlns="http://www.w3.org/2000/svg">
<g clip-path="url(#clip0_2593_12120)">
<path d="M15.7872 6.13333C14.9339 2.61333 11.7872 0 8.00053 0H7.73387V6.13333H15.7872ZM4.00053 1.06667C2.13387 2.16 0.747201 3.97333 0.213867 6.13333H4.00053V1.06667ZM0.213867 9.86667C0.747201 12.0267 2.13387 13.84 4.00053 14.9333V9.86667H0.213867ZM7.73387 16H8.00053C11.7872 16 14.9339 13.3867 15.7872 9.86667H7.73387V16Z" fill="#0052B4"/>
<path d="M15.7867 6.13333H7.73333V0C6.37333 0.0533333 5.09333 0.426667 4 1.06667V6.13333H0.213333C0.08 6.72 0 7.36 0 8C0 8.64 0.08 9.28 0.213333 9.86667H4V14.9333C5.09333 15.5733 6.37333 15.9467 7.73333 16V9.86667H15.7867C15.92 9.28 16 8.64 16 8C16 7.36 15.92 6.72 15.7867 6.13333Z" fill="#FFE62E"/>
</g>
<defs>
<clipPath id="clip0_2593_12120">
<rect width="16" height="16" rx="8" fill="white"/>
</clipPath>
</defs>
</svg>
