<svg width="512" height="512" viewBox="0 0 512 512" fill="none" xmlns="http://www.w3.org/2000/svg">
<g clip-path="url(#clip0_645_7489)">
<path d="M255.995 512C173.114 512 105.926 444.812 105.926 361.931V150.069C105.926 67.188 173.114 0 255.995 0C338.876 0 406.064 67.188 406.064 150.069V361.931C406.064 444.812 338.876 512 255.995 512Z" fill="#8078BC"/>
<path d="M176.547 308.141V251.341C176.547 244.197 184.555 240.06 190.407 244.157C208.992 257.166 231.585 264.827 255.995 264.827C318.552 264.827 369.418 214.772 370.728 152.529C371.896 96.963 331.278 47.873 276.714 37.304C270.507 36.102 264.4 35.47 258.412 35.337C249.277 35.134 246.296 23.156 254.296 18.742C265.794 12.398 278.212 7.515 291.306 4.351C279.963 1.611 268.181 0 255.995 0C173.114 0 105.926 67.188 105.926 150.068V361.931C105.926 444.812 173.114 512 255.995 512C268.18 512 279.963 510.389 291.305 507.648C225.494 491.746 176.546 432.627 176.546 361.931V360.536C228.061 357.043 294.953 346.227 358.443 316.983C362.874 314.944 364.814 309.703 362.771 305.272C360.737 300.85 355.478 298.893 351.064 300.949C290.932 328.644 226.472 339.101 176.547 342.604V325.968C193.879 324.84 212.947 322.971 232.806 319.897C314.589 307.234 372.624 280.54 406.065 240.493V209.448C365.809 282.442 253.833 302.947 176.547 308.141Z" fill="#5E54AC"/>
<path d="M353.098 123.587C351.846 123.587 350.648 123.787 349.442 123.956C338.024 83.0298 300.563 52.9668 255.995 52.9668C211.427 52.9668 173.966 83.0308 162.547 123.956C161.341 123.788 160.143 123.587 158.891 123.587C144.265 123.587 132.408 135.444 132.408 150.07C132.408 164.696 144.265 176.553 158.891 176.553C160.143 176.553 161.341 176.353 162.547 176.184C173.966 217.11 211.427 247.173 255.995 247.173C300.563 247.173 338.024 217.109 349.443 176.184C350.649 176.352 351.847 176.553 353.099 176.553C367.725 176.553 379.582 164.696 379.582 150.07C379.582 135.444 367.725 123.587 353.098 123.587Z" fill="#FFE5BE"/>
<path d="M211.857 150.07C211.857 105.624 241.753 68.2388 282.507 56.7098C274.075 54.3138 265.2 52.9668 255.995 52.9668C211.427 52.9668 173.966 83.0308 162.547 123.956C161.341 123.788 160.143 123.587 158.891 123.587C144.265 123.587 132.408 135.444 132.408 150.07C132.408 164.696 144.265 176.553 158.891 176.553C160.143 176.553 161.341 176.353 162.547 176.184C173.966 217.11 211.427 247.173 255.995 247.173C265.2 247.173 274.075 245.826 282.507 243.43C241.753 231.901 211.857 194.516 211.857 150.07Z" fill="#FFD8A5"/>
<path d="M253.788 79.4473C236.754 79.4473 222.891 65.5853 222.891 48.5503C222.891 31.5153 236.753 17.6533 253.788 17.6533C258.667 17.6533 262.616 21.6063 262.616 26.4813C262.616 31.3563 258.668 35.3093 253.788 35.3093C246.486 35.3093 240.547 41.2493 240.547 48.5503C240.547 55.8513 246.487 61.7913 253.788 61.7913C258.667 61.7913 262.616 65.7443 262.616 70.6193C262.616 75.4943 258.668 79.4473 253.788 79.4473Z" fill="#F2A35E"/>
<path d="M255.995 203.032C243.805 203.032 232.409 199.183 223.909 192.196C220.142 189.101 219.599 183.537 222.693 179.769C225.771 176.01 231.357 175.459 235.115 178.558C245.667 187.222 266.322 187.222 276.874 178.558C280.633 175.459 286.219 176.011 289.296 179.769C292.391 183.536 291.848 189.101 288.08 192.196C279.582 199.183 268.186 203.032 255.995 203.032Z" fill="#FF8489"/>
<path d="M211.858 158.898C206.979 158.898 203.03 154.945 203.03 150.07V141.242C203.03 136.367 206.978 132.414 211.858 132.414C216.737 132.414 220.686 136.367 220.686 141.242V150.07C220.686 154.945 216.737 158.898 211.858 158.898Z" fill="#41386D"/>
<path d="M300.135 158.898C295.256 158.898 291.307 154.945 291.307 150.07V141.242C291.307 136.367 295.255 132.414 300.135 132.414C305.014 132.414 308.963 136.367 308.963 141.242V150.07C308.963 154.945 305.013 158.898 300.135 158.898Z" fill="#41386D"/>
</g>
<defs>
<clipPath id="clip0_645_7489">
<rect width="512" height="512" fill="white" transform="translate(-0.00390625)"/>
</clipPath>
</defs>
</svg>
