<svg width="512" height="512" viewBox="0 0 512 512" fill="none" xmlns="http://www.w3.org/2000/svg">
<g clip-path="url(#clip0_645_7724)">
<path d="M388.41 57.3789C442.039 57.3789 485.514 100.854 485.514 154.482C485.514 216.275 494.342 278.068 494.342 278.068C494.342 278.068 450.204 304.551 388.411 313.378C326.618 304.55 282.48 278.068 282.48 278.068C282.48 278.068 291.308 216.275 291.308 154.482C291.306 100.854 334.781 57.3789 388.41 57.3789Z" fill="#E27D47"/>
<path d="M353.1 145.655V119.172C353.1 89.1639 374.496 64.1719 402.86 58.5699C398.134 57.8629 393.335 57.3789 388.411 57.3789H388.41C334.781 57.3789 291.307 100.854 291.307 154.482C291.307 216.275 282.479 278.068 282.479 278.068C282.479 278.068 326.617 304.551 388.41 313.378V180.966L353.1 145.655Z" fill="#DD542E"/>
<path d="M495.349 342.031L434.818 317.819C428.115 315.138 423.72 308.646 423.72 301.427V269.242H353.099V301.427C353.099 308.646 348.704 315.138 342.001 317.819L281.47 342.031C271.416 346.053 264.823 355.791 264.823 366.619V401.655C264.823 406.53 268.775 410.483 273.651 410.483V489.931H494.341C499.216 489.931 503.169 485.979 503.169 481.103V410.482C508.044 410.482 511.997 406.53 511.997 401.654V366.618C511.996 355.79 505.403 346.052 495.349 342.031Z" fill="#FFD9A7"/>
<path d="M503.167 401.655V428.138H494.339C489.464 428.138 485.511 432.09 485.511 436.966V489.932H459.028V401.656H503.167V401.655Z" fill="#F5C787"/>
<path d="M353.099 297.809C364.059 302.108 375.943 304.553 388.409 304.553C400.875 304.553 412.759 302.108 423.719 297.809V269.243H353.098V297.809H353.099Z" fill="#F5C787"/>
<path d="M388.41 286.897C344.532 286.897 308.962 251.327 308.962 207.449V180.234C308.962 175.896 312.16 172.242 316.446 171.576C336.714 168.427 346.53 152.806 350.621 143.616C351.999 140.52 355.841 139.516 358.546 141.557C395.946 169.773 467.859 148.66 467.859 207.45C467.858 251.326 432.288 286.897 388.41 286.897Z" fill="#FFE1B4"/>
<path d="M353.099 207.448V141.166C352.067 141.687 351.142 142.443 350.62 143.615C346.529 152.805 336.713 168.426 316.445 171.575C312.158 172.241 308.961 175.896 308.961 180.233V207.448C308.961 251.326 344.531 286.896 388.409 286.896C396.076 286.896 403.464 285.751 410.478 283.725C377.35 274.154 353.099 243.66 353.099 207.448Z" fill="#FAD098"/>
<path d="M388.41 251.586C379.065 251.586 370.134 247.177 363.901 239.491C360.823 235.702 361.41 230.146 365.194 227.073C368.996 224.004 374.547 224.59 377.608 228.37C383.436 235.542 393.384 235.542 399.211 228.37C402.271 224.59 407.832 224.004 411.625 227.073C415.409 230.146 415.996 235.702 412.918 239.491C406.686 247.177 397.755 251.586 388.41 251.586Z" fill="#DA4A54"/>
<path d="M423.721 207.448C418.842 207.448 414.893 203.495 414.893 198.62V189.792C414.893 184.917 418.841 180.964 423.721 180.964C428.6 180.964 432.549 184.917 432.549 189.792V198.62C432.549 203.496 428.6 207.448 423.721 207.448Z" fill="#64463C"/>
<path d="M353.099 207.448C348.22 207.448 344.271 203.495 344.271 198.62V189.792C344.271 184.917 348.219 180.964 353.099 180.964C357.979 180.964 361.927 184.917 361.927 189.792V198.62C361.927 203.496 357.979 207.448 353.099 207.448Z" fill="#64463C"/>
<path d="M495.349 342.031L457.694 326.969C451.355 359.464 422.761 384 388.41 384C354.059 384 325.465 359.464 319.126 326.969L281.471 342.031C271.417 346.053 264.824 355.791 264.824 366.619V489.931H308.962H467.859V410.483H503.169C508.044 410.483 511.997 406.531 511.997 401.655V366.62C511.996 355.79 505.403 346.052 495.349 342.031Z" fill="#F85221"/>
<path d="M457.694 326.969C451.355 359.464 422.761 384 388.41 384C354.059 384 325.465 359.464 319.126 326.969L302.552 333.598C311.705 372.59 346.625 401.655 388.41 401.655C430.195 401.655 465.115 372.59 474.268 333.598L457.694 326.969Z" fill="#EE1F1F"/>
<path d="M467.857 400.141C467.857 395.459 469.717 390.968 473.028 387.657L507.979 352.706C510.518 356.807 511.995 361.58 511.995 366.619V401.655C511.995 406.53 508.043 410.483 503.167 410.483H467.857V400.141Z" fill="#EE1F1F"/>
<path d="M61.7892 489.931H17.6512C12.7762 489.931 8.82324 485.979 8.82324 481.103V375.172H61.7892V489.931Z" fill="#D9AC7A"/>
<path d="M8.82422 392.828V410.483H26.4792C31.3542 410.483 35.3072 414.435 35.3072 419.311V489.932H61.7902V392.829H8.82422V392.828Z" fill="#C79C6C"/>
<path d="M255.992 375.171H203.026V489.931H255.992V375.171Z" fill="#C79C6C"/>
<path d="M245.309 281.574L167.72 260.413H97.0991L19.5101 281.574C7.98909 284.717 -0.00390625 295.181 -0.00390625 307.124V384C-0.00390625 388.875 3.94809 392.828 8.82409 392.828H52.9621V489.931H211.859V372.966H264.824V307.124C264.824 295.181 256.831 284.717 245.309 281.574Z" fill="#20B69F"/>
<path d="M167.72 260.414H97.0992L62.4922 269.852C67.1162 304.381 96.6152 331.035 132.41 331.035C168.205 331.035 197.704 304.381 202.328 269.852L167.72 260.414Z" fill="#17998C"/>
<path d="M88.2725 229.517V260.414C88.2725 284.791 108.033 304.552 132.41 304.552C156.787 304.552 176.548 284.791 176.548 260.414V229.517H88.2725Z" fill="#D9AC7A"/>
<path d="M88.2725 249.723C101.53 256.524 116.514 260.414 132.41 260.414C148.306 260.414 163.29 256.524 176.548 249.723V229.517H88.2725V249.723Z" fill="#C79C6C"/>
<path d="M211.858 128V75.0342H52.9616V128C43.2106 128 35.3066 135.904 35.3066 145.655C35.3066 155.406 43.2116 163.31 52.9616 163.31C52.9616 207.188 88.5316 242.758 132.41 242.758C176.288 242.758 211.858 207.188 211.858 163.31C221.609 163.31 229.513 155.405 229.513 145.655C229.513 135.904 221.609 128 211.858 128Z" fill="#E3B887"/>
<path d="M97.0986 163.31V75.0342H52.9616V128C43.2106 128 35.3066 135.904 35.3066 145.655C35.3066 155.406 43.2116 163.31 52.9616 163.31C52.9616 207.188 88.5316 242.758 132.41 242.758C140.076 242.758 147.465 241.613 154.479 239.587C121.35 230.016 97.0986 199.522 97.0986 163.31Z" fill="#D9AC7A"/>
<path d="M132.41 207.448C123.065 207.448 114.134 203.039 107.901 195.353C104.823 191.564 105.41 186.008 109.194 182.935C112.996 179.87 118.547 180.457 121.608 184.232C127.436 191.404 137.384 191.404 143.211 184.232C146.28 180.456 151.832 179.87 155.625 182.935C159.409 186.008 159.996 191.564 156.918 195.353C150.686 203.039 141.755 207.448 132.41 207.448Z" fill="#A24950"/>
<path d="M97.0995 163.31C92.2205 163.31 88.2715 159.357 88.2715 154.482V145.654C88.2715 140.779 92.2195 136.826 97.0995 136.826C101.979 136.826 105.927 140.779 105.927 145.654V154.482C105.927 159.358 101.979 163.31 97.0995 163.31Z" fill="#553732"/>
<path d="M167.721 163.31C162.842 163.31 158.893 159.357 158.893 154.482V145.654C158.893 140.779 162.841 136.826 167.721 136.826C172.6 136.826 176.549 140.779 176.549 145.654V154.482C176.549 159.358 172.6 163.31 167.721 163.31Z" fill="#553732"/>
<path d="M191.833 119.598C194.411 126.425 201.708 129.518 208.896 128.257C209.857 128.088 210.846 128 211.858 128C215.09 128 218.08 128.932 220.686 130.449V75.0344C220.686 61.8274 213.35 50.4494 202.612 44.3934C200.606 31.7564 189.75 22.0684 176.548 22.0684H105.927C71.7998 22.0684 44.1338 49.7344 44.1338 83.8614V130.448C46.7398 128.931 49.7288 127.999 52.9618 127.999C54.0968 127.999 55.2038 128.109 56.2738 128.32C64.8708 130.013 73.4798 125.261 75.6328 116.767L77.8038 108.084C78.7628 104.246 82.1278 101.51 86.0818 101.403C102.506 100.96 145.861 98.7824 175.422 88.0824C180.656 86.1884 186.296 89.3754 187.211 94.8654L190.516 114.697C190.799 116.401 191.244 118.038 191.833 119.598Z" fill="#64463C"/>
<path d="M97.0988 75.0344C97.0988 45.7824 120.812 22.0684 150.065 22.0684H105.927C71.7998 22.0684 44.1338 49.7334 44.1338 83.8614V130.448C46.7398 128.931 49.7288 127.999 52.9618 127.999C54.0968 127.999 55.2028 128.109 56.2728 128.32C64.8708 130.012 73.4788 125.261 75.6318 116.767L77.8028 108.084C78.7618 104.246 82.1258 101.51 86.0808 101.403C88.9788 101.325 92.7488 101.188 97.0998 100.964L97.0988 75.0344Z" fill="#553732"/>
<path d="M-0.00390625 307.123V384C-0.00390625 388.875 3.94809 392.828 8.82409 392.828H52.9621V363.834C52.9621 354.019 49.6901 344.484 43.6641 336.736L6.87909 289.441C2.60009 294.186 -0.00390625 300.392 -0.00390625 307.123Z" fill="#17998C"/>
<path d="M326.164 439.757L297.343 430.15C293.738 428.948 291.307 425.575 291.307 421.776V401.656H238.342V421.776C238.342 425.576 235.911 428.949 232.306 430.15L203.485 439.757C192.671 443.362 185.377 453.482 185.377 464.881V481.104C185.377 485.979 189.329 489.932 194.205 489.932H335.446C340.321 489.932 344.274 485.98 344.274 481.104V464.881C344.272 453.482 336.978 443.362 326.164 439.757Z" fill="#E3B887"/>
<path d="M238.341 401.655V421.775C238.341 422.279 238.192 422.744 238.11 423.229C245.757 426.098 253.9 427.846 262.393 428.101C263.203 428.125 264.019 428.137 264.824 428.137C274.217 428.137 283.196 426.418 291.567 423.411C291.463 422.869 291.307 422.341 291.307 421.775V401.655H238.341Z" fill="#D9AC7A"/>
<path d="M264.824 216.276C220.946 216.276 185.376 251.846 185.376 295.724V322.207H344.273V295.724C344.272 251.846 308.702 216.276 264.824 216.276Z" fill="#64463C"/>
<path d="M291.306 220.893C283.012 217.957 274.124 216.276 264.823 216.276C220.945 216.276 185.375 251.846 185.375 295.724V322.207H238.341V295.724C238.341 261.147 260.47 231.811 291.306 220.893Z" fill="#553732"/>
<path d="M326.617 304.552V296.908C326.617 283.882 313.015 275.709 301.254 281.31C252.561 304.499 203.031 304.552 203.031 304.552C193.28 304.552 185.376 312.456 185.376 322.207C185.376 331.958 193.281 339.862 203.031 339.862V346.098C203.031 379.933 229.103 409.438 262.923 410.454C297.918 411.505 326.617 383.448 326.617 348.69V339.862C336.368 339.862 344.272 331.957 344.272 322.207C344.272 312.456 336.367 304.552 326.617 304.552Z" fill="#EAC294"/>
<path d="M238.341 348.69V300.863C217.467 304.503 203.031 304.552 203.031 304.552C193.28 304.552 185.376 312.456 185.376 322.207C185.376 331.958 193.281 339.862 203.031 339.862V346.098C203.031 379.933 229.103 409.439 262.923 410.454C269.74 410.659 276.305 409.729 282.479 407.89C256.96 400.289 238.341 376.677 238.341 348.69Z" fill="#E3B887"/>
<path d="M264.824 384C255.479 384 246.548 379.591 240.315 371.905C237.237 368.116 237.824 362.56 241.608 359.487C245.401 356.422 250.961 357.009 254.022 360.784C259.85 367.956 269.798 367.956 275.625 360.784C278.685 357.008 284.237 356.422 288.039 359.487C291.823 362.56 292.41 368.116 289.332 371.905C283.099 379.591 274.168 384 264.824 384Z" fill="#F8898E"/>
<path d="M238.341 339.862C236.048 339.862 233.746 338.888 232.074 337.302C230.479 335.625 229.514 333.328 229.514 331.035C229.514 328.738 230.48 326.444 232.074 324.768C235.341 321.501 241.341 321.501 244.608 324.768C246.194 326.445 247.168 328.738 247.168 331.035C247.168 333.328 246.194 335.626 244.608 337.302C242.927 338.888 240.634 339.862 238.341 339.862Z" fill="#553732"/>
<path d="M291.306 339.862C289.013 339.862 286.711 338.888 285.039 337.302C284.246 336.505 283.625 335.535 283.186 334.388C282.746 333.328 282.479 332.181 282.479 331.035C282.479 329.884 282.746 328.738 283.186 327.677C283.626 326.53 284.246 325.561 285.039 324.768C288.306 321.501 294.22 321.501 297.573 324.768C298.366 325.647 298.987 326.531 299.426 327.677C299.866 328.737 300.133 329.884 300.133 331.035C300.133 333.328 299.159 335.626 297.573 337.302C295.893 338.888 293.599 339.862 291.306 339.862Z" fill="#553732"/>
<path d="M326.164 439.757L311.769 434.959C302.927 451.881 285.24 463.449 264.824 463.449C244.408 463.449 226.721 451.882 217.88 434.959L203.485 439.757C192.671 443.362 185.377 453.482 185.377 464.881V481.104C185.377 485.979 189.329 489.932 194.205 489.932H335.446C340.321 489.932 344.274 485.98 344.274 481.104V464.881C344.272 453.482 336.978 443.362 326.164 439.757Z" fill="#FFDC64"/>
</g>
<defs>
<clipPath id="clip0_645_7724">
<rect width="512.001" height="512.001" fill="white" transform="translate(-0.00390625)"/>
</clipPath>
</defs>
</svg>
