<svg width="512" height="512" viewBox="0 0 512 512" fill="none" xmlns="http://www.w3.org/2000/svg">
<g clip-path="url(#clip0_645_7071)">
<path d="M413.727 249.731H306.928C282.136 249.731 262.038 229.633 262.038 204.841V138.851C262.038 84.5665 306.044 40.5615 360.327 40.5615C414.611 40.5615 458.616 84.5675 458.616 138.851V204.841C458.617 229.633 438.519 249.731 413.727 249.731Z" fill="#FF8F40"/>
<path d="M346.28 106.614C341.977 106.614 338.488 103.125 338.488 98.8216V87.0176C338.488 82.7146 341.977 79.2256 346.28 79.2256C350.583 79.2256 354.072 82.7146 354.072 87.0176V98.8216C354.072 103.126 350.583 106.614 346.28 106.614Z" fill="#F26D25"/>
<path d="M458.615 138.849V204.845C458.615 229.63 438.517 249.728 413.722 249.728H385.805C410.6 249.728 430.698 229.63 430.698 204.845V138.849C430.698 111.71 419.691 87.1335 401.908 69.3505C387.228 54.6705 367.928 44.6125 346.369 41.5475C350.933 40.8925 355.592 40.5605 360.327 40.5605C387.466 40.5605 412.042 51.5675 429.825 69.3505C447.617 87.1335 458.615 111.71 458.615 138.849Z" fill="#F26D25"/>
<path d="M436.732 164.131H421.461C417.158 164.131 413.669 160.642 413.669 156.339C413.669 152.036 417.158 148.547 421.461 148.547H436.732C441.035 148.547 444.524 152.036 444.524 156.339C444.524 160.642 441.035 164.131 436.732 164.131Z" fill="#F98824"/>
<path d="M504.21 419.518H216.444L233.68 329.535L315.985 303.021C317.876 325.846 337.013 343.779 360.327 343.779C383.641 343.779 402.778 325.847 404.669 303.021L450.278 317.712C472.906 325.005 489.747 344.049 494.225 367.394L504.21 419.518Z" fill="#70CE94"/>
<path d="M412.128 305.426C410.211 332.358 387.749 353.607 360.328 353.607C332.906 353.607 310.445 332.357 308.528 305.426L360.328 288.741L412.128 305.426Z" fill="#FFCDA0"/>
<path d="M504.21 419.519H473.478L461.894 359.053C457.717 337.214 443.515 318.867 423.91 309.225L450.278 317.713C472.906 325.006 489.747 344.05 494.225 367.405L504.21 419.519Z" fill="#32B088"/>
<path d="M218.435 409.127L206.486 471.494H501.6C508.122 471.494 513.031 465.555 511.804 459.15L502.22 409.127H218.435Z" fill="#C5F9C7"/>
<path d="M471.491 409.127L483.438 471.496H501.604C508.126 471.496 513.035 465.557 511.808 459.151L502.223 409.127H471.491Z" fill="#70CE94"/>
<path d="M331.517 243.776H389.139V314.458H331.517V243.776Z" fill="#FFCDA0"/>
<path d="M389.14 243.776V287.37C380.247 290.986 370.519 292.976 360.329 292.976C350.139 292.976 340.411 290.986 331.518 287.37V243.776H389.14Z" fill="#FFBA7E"/>
<path d="M404.722 303.033V310.16C404.722 314.461 401.231 317.952 396.93 317.952C392.629 317.952 389.138 314.461 389.138 310.16V298.015L404.722 303.033Z" fill="#FFBA7E"/>
<path d="M331.518 298.015V310.16C331.518 314.461 328.027 317.952 323.726 317.952C319.425 317.952 315.934 314.461 315.934 310.16V303.033L331.518 298.015Z" fill="#FFBA7E"/>
<path d="M444.226 199.793C455.501 199.793 464.64 190.653 464.64 179.379C464.64 168.105 455.5 158.965 444.226 158.965H430.697V199.794H444.226V199.793Z" fill="#FFBA7E"/>
<path d="M276.43 199.793C265.155 199.793 256.016 190.653 256.016 179.379C256.016 168.105 265.156 158.965 276.43 158.965H289.959V199.794H276.43V199.793Z" fill="#FFBA7E"/>
<path d="M360.329 91.127C318.132 91.127 283.925 125.334 283.925 167.531V195.982C283.925 235.077 318.132 271.406 360.329 271.406C402.526 271.406 436.733 235.077 436.733 195.982V167.531C436.733 125.335 402.526 91.127 360.329 91.127Z" fill="#FFCDA0"/>
<path d="M329.69 187.936C325.387 187.936 321.898 184.447 321.898 180.144V174.183C321.898 169.88 325.387 166.391 329.69 166.391C333.993 166.391 337.482 169.88 337.482 174.183V180.144C337.482 184.447 333.993 187.936 329.69 187.936Z" fill="#873F30"/>
<path d="M390.967 187.936C386.664 187.936 383.175 184.447 383.175 180.144V174.183C383.175 169.88 386.664 166.391 390.967 166.391C395.27 166.391 398.759 169.88 398.759 174.183V180.144C398.759 184.447 395.27 187.936 390.967 187.936Z" fill="#873F30"/>
<path d="M436.724 167.193H403.797C376.336 167.193 354.074 144.932 354.074 117.471V91.3849C356.133 91.2139 358.221 91.1289 360.327 91.1289C402.411 91.1289 436.544 125.156 436.724 167.193Z" fill="#FFBA7E"/>
<path d="M441.03 148.549H403.799C376.335 148.549 354.072 126.285 354.072 98.8217V82.7207H381.348C414.309 82.7207 441.03 109.441 441.03 142.403V148.549Z" fill="#FF8F40"/>
<path d="M441.033 142.398V148.547H430.699V138.849C430.699 124.644 427.682 111.15 422.263 98.957C433.821 109.831 441.033 125.28 441.033 142.398Z" fill="#F26D25"/>
<path d="M235.56 199.733C246.835 199.733 255.974 190.593 255.974 179.319C255.974 168.044 246.834 158.905 235.56 158.905H222.031V199.734L235.56 199.733Z" fill="#6C3328"/>
<path d="M67.7636 199.733C56.4886 199.733 47.3496 190.593 47.3496 179.319C47.3496 168.044 56.4896 158.905 67.7636 158.905H81.2926V199.734L67.7636 199.733Z" fill="#6C3328"/>
<path d="M180.435 471.435V406.21H122.899V471.435H10.3899C3.86788 471.435 -1.04112 465.496 0.185881 459.09L17.7679 367.343C22.2349 343.988 39.0869 324.944 61.7149 317.651L107.314 302.96C109.205 325.786 128.342 343.718 151.666 343.718C174.98 343.718 194.117 325.786 196.008 302.96L241.617 317.651C264.235 324.944 281.086 343.988 285.564 367.343L303.137 459.091C304.364 465.496 299.455 471.435 292.933 471.435H180.435Z" fill="#20B69F"/>
<path d="M105 337.923L103.406 331.778C101.432 324.169 93.6634 319.601 86.0544 321.575L39.2524 333.717C31.1664 335.815 26.3124 344.07 28.4104 352.156L33.5154 371.832C35.5424 379.645 43.5184 384.335 51.3314 382.308L76.1064 375.881C83.9184 373.854 88.6094 365.878 86.5824 358.065L86.0184 355.892L95.9504 353.315C102.699 351.564 106.751 344.673 105 337.923Z" fill="#17998C"/>
<path d="M292.939 471.437H274.773L253.233 358.992C249.048 337.148 234.843 318.796 215.229 309.156L241.609 317.658C264.24 324.946 281.083 343.99 285.562 367.343L303.143 459.093C304.371 465.498 299.461 471.437 292.939 471.437Z" fill="#17998C"/>
<path d="M203.463 305.367C201.546 332.299 179.084 353.548 151.662 353.548C124.24 353.548 101.778 332.298 99.8613 305.367L151.662 288.682L203.463 305.367Z" fill="#873F30"/>
<path d="M122.851 243.717H180.474V314.4H122.851V243.717Z" fill="#873F30"/>
<path d="M180.474 243.717V287.312C171.581 290.928 161.853 292.918 151.663 292.918C141.473 292.918 131.745 290.928 122.852 287.312V243.717H180.474Z" fill="#6C3328"/>
<path d="M196.06 302.981V310.098C196.06 314.41 192.569 317.89 188.268 317.89C183.967 317.89 180.476 314.41 180.476 310.098V297.963L196.06 302.981Z" fill="#6C3328"/>
<path d="M122.846 297.973V310.097C122.846 314.409 119.366 317.889 115.054 317.889C110.753 317.889 107.262 314.409 107.262 310.097V302.991L122.846 297.973Z" fill="#6C3328"/>
<path d="M151.663 86.3223C109.466 86.3223 75.2578 120.53 75.2578 162.727V195.923C75.2578 235.018 109.466 271.347 151.663 271.347C193.86 271.347 228.068 235.018 228.068 195.923V162.727C228.068 120.529 193.86 86.3223 151.663 86.3223Z" fill="#873F30"/>
<path d="M121.024 187.875C116.721 187.875 113.232 184.386 113.232 180.083V174.122C113.232 169.819 116.721 166.33 121.024 166.33C125.327 166.33 128.816 169.819 128.816 174.122V180.083C128.816 184.387 125.327 187.875 121.024 187.875Z" fill="#6C3328"/>
<path d="M182.301 187.875C177.998 187.875 174.509 184.386 174.509 180.083V174.122C174.509 169.819 177.998 166.33 182.301 166.33C186.604 166.33 190.093 169.819 190.093 174.122V180.083C190.093 184.387 186.604 187.875 182.301 187.875Z" fill="#6C3328"/>
<path d="M228.069 162.653C226.76 162.615 225.45 162.473 224.159 162.255C205.532 159.029 176.4 156.865 151.662 156.865C126.924 156.865 97.7919 159.028 79.1649 162.255C77.8739 162.473 76.5649 162.615 75.2549 162.653C75.2929 120.493 109.492 86.3232 151.661 86.3232C193.83 86.3232 228.031 120.493 228.069 162.653Z" fill="#6C3328"/>
<path d="M231.913 119.391C231.777 75.7999 195.903 40.5029 151.663 40.5029C107.423 40.5029 71.5481 75.7999 71.4131 119.391H231.913Z" fill="#E01058"/>
<path d="M231.912 119.39H203.103C202.989 80.6458 174.626 48.4588 137.258 41.7878C141.927 40.9428 146.747 40.5068 151.662 40.5068C195.901 40.5068 231.779 75.7968 231.912 119.39Z" fill="#CF0E50"/>
<path d="M64.8722 133.292C64.6002 139.332 69.9742 144.107 75.9312 143.075C96.3892 139.533 126.626 137.405 151.663 137.405C176.7 137.405 206.938 139.533 227.395 143.075C233.352 144.106 238.726 139.332 238.454 133.292L237.573 113.721C237.382 109.47 234.389 105.866 230.244 104.901C209.18 100 184.046 97 151.663 97C119.28 97 94.1462 100 73.0812 104.902C68.9362 105.867 65.9442 109.471 65.7522 113.722L64.8722 133.292Z" fill="#FB1466"/>
<path d="M238.45 133.291C238.725 139.335 233.354 144.108 227.395 143.074C223.039 142.324 218.238 141.632 213.142 141.015C215.666 139.155 217.289 136.109 217.127 132.665L216.216 108.999C216.074 105.839 214.432 103.021 211.917 101.322C218.379 102.356 224.462 103.552 230.241 104.899C234.388 105.867 237.377 109.473 237.576 113.724L238.45 133.291Z" fill="#E01058"/>
<path d="M99.2422 122.133V140.013C93.7772 140.553 88.5312 141.177 83.6582 141.862V122.133C83.6582 117.832 87.1382 114.341 91.4502 114.341C95.7512 114.341 99.2422 117.831 99.2422 122.133Z" fill="#E01058"/>
<path d="M129.268 118.465V137.914C124.073 138.132 118.837 138.433 113.684 138.797V118.465C113.684 114.153 117.175 110.673 121.476 110.673C125.788 110.673 129.268 114.153 129.268 118.465Z" fill="#E01058"/>
<path d="M219.677 122.133V141.862C214.804 141.176 209.558 140.563 204.093 140.013V122.133C204.093 117.832 207.584 114.341 211.885 114.341C216.186 114.341 219.677 117.831 219.677 122.133Z" fill="#E01058"/>
<path d="M219.677 122.133V141.873C217.568 141.572 215.386 141.291 213.142 141.021C215.667 139.151 217.287 136.107 217.132 132.668L216.477 115.848C218.419 117.26 219.677 119.556 219.677 122.133Z" fill="#CF0E50"/>
<path d="M189.641 118.465V138.797C184.488 138.433 179.252 138.132 174.057 137.914V118.465C174.057 114.153 177.548 110.673 181.849 110.673C186.15 110.673 189.641 114.153 189.641 118.465Z" fill="#E01058"/>
<path d="M159.459 117.79V137.468C156.82 137.426 154.212 137.406 151.667 137.406C149.122 137.406 146.514 137.427 143.875 137.468V117.79C143.875 113.489 147.355 109.998 151.667 109.998C155.968 109.998 159.459 113.489 159.459 117.79Z" fill="#E01058"/>
<path d="M70.5459 303.109L78.8849 335.253L95.9499 330.826C102.7 329.075 106.752 322.184 105.001 315.434L103.407 309.289C101.433 301.68 93.6639 297.112 86.0549 299.086L70.5459 303.109Z" fill="#FFBA7E"/>
<path d="M28.4104 329.666L33.5154 349.342C35.5424 357.155 43.5184 361.845 51.3314 359.818L76.1064 353.391C83.9194 351.364 88.6094 343.388 86.5824 335.575L77.6794 301.258L39.2534 311.227C31.1664 313.325 26.3124 321.58 28.4104 329.666Z" fill="#FFCDA0"/>
<path d="M112.509 414.562H190.824V471.497H112.509V414.562Z" fill="#F8F3F1"/>
<path d="M190.822 424.949V406.213C190.822 400.475 186.171 395.824 180.433 395.824H122.894C117.156 395.824 112.505 400.475 112.505 406.213V424.949H190.822Z" fill="#FB1466"/>
</g>
<defs>
<clipPath id="clip0_645_7071">
<rect width="512" height="512" fill="white" transform="translate(-0.00292969)"/>
</clipPath>
</defs>
</svg>
