<svg width="512" height="512" viewBox="0 0 512 512" fill="none" xmlns="http://www.w3.org/2000/svg">
<g clip-path="url(#clip0_645_7773)">
<path d="M389.166 100.986L379.15 201.146H336.904V92.2432L389.166 100.986Z" fill="#845252"/>
<path d="M277.583 332.484H198.19V346.896C198.19 361.549 188.536 374.452 174.478 378.586L162.801 382.02L156.887 397.093C180.473 425.59 216.114 443.745 255.996 443.745C294.301 443.745 328.688 426.99 352.246 400.416L277.583 332.484Z" fill="#FCDBB2"/>
<path d="M349.191 382.021L337.514 378.587C323.456 374.452 313.802 361.55 313.802 346.897V305.549H198.19V332.485C215.454 341.617 235.106 346.839 255.996 346.839C262.141 346.839 268.164 346.35 274.052 345.448C281.211 344.351 288.456 346.597 293.645 351.65C296.246 354.182 298.348 357.251 299.373 360.733C304.046 376.606 316.489 389.619 332.852 394.432L351.066 399.788L349.191 382.021Z" fill="#F5C89D"/>
<path d="M333.293 146.569L218.947 104.258H206.447C183.643 104.258 165.157 122.744 165.157 145.549V173.42C165.157 182.542 157.762 189.936 148.641 189.936H137.432C126.633 189.936 116.792 197.706 115.716 208.451C114.479 220.809 124.15 231.226 136.254 231.226H149.058C152.866 281.117 190.693 321.493 239.427 329.051C239.427 329.051 250.388 329.246 255.996 328.687C313.746 322.931 343.724 286.645 347.954 231.226L333.293 146.569Z" fill="#FFE5BE"/>
<path d="M374.56 189.935H363.35C354.228 189.935 346.834 182.54 346.834 173.419V104.258H218.947C227.527 125.434 248.258 140.387 272.512 140.387C274.803 140.387 277.062 140.25 279.282 139.986C285.631 139.231 291.929 140.69 297.235 144.258C303.769 148.651 311.034 152.033 318.812 154.182C325.746 156.098 330.318 162.736 330.318 169.929V222.968C330.318 276.645 290.88 321.11 239.426 329.051C244.837 329.892 250.346 330.323 255.995 330.323C312.498 330.323 358.703 286.645 362.933 231.226H375.737C387.842 231.226 397.513 220.809 396.275 208.451C395.2 197.705 385.359 189.935 374.56 189.935Z" fill="#FFD8A5"/>
<path d="M206.448 214.71C201.883 214.71 198.19 211.012 198.19 206.452V198.194C198.19 193.634 201.884 189.936 206.448 189.936C211.012 189.936 214.706 193.634 214.706 198.194V206.452C214.706 211.012 211.012 214.71 206.448 214.71Z" fill="#146662"/>
<path d="M305.544 214.71C300.979 214.71 297.286 211.012 297.286 206.452V198.194C297.286 193.634 300.98 189.936 305.544 189.936C310.109 189.936 313.802 193.634 313.802 198.194V206.452C313.802 211.012 310.109 214.71 305.544 214.71Z" fill="#146662"/>
<path d="M255.996 272.516C243.609 272.516 232.173 268.54 225.423 261.879C222.173 258.677 222.141 253.448 225.342 250.202C228.544 246.952 233.786 246.92 237.019 250.121C239.769 252.835 246.39 256 255.995 256C265.6 256 272.221 252.835 274.971 250.121C278.205 246.919 283.447 246.952 286.648 250.202C289.85 253.448 289.817 258.678 286.567 261.879C279.819 268.54 268.383 272.516 255.996 272.516Z" fill="#E68266"/>
<path d="M198.181 181.677C194.084 181.677 190.528 178.633 189.996 174.467C189.423 169.943 192.617 165.806 197.141 165.229L215.697 162.858C220.245 162.249 224.358 165.483 224.939 169.999C225.512 174.523 222.318 178.66 217.794 179.237L199.238 181.608C198.883 181.657 198.528 181.677 198.181 181.677Z" fill="#AE6652"/>
<path d="M313.811 181.677C313.464 181.677 313.109 181.657 312.755 181.608L294.199 179.237C289.675 178.66 286.481 174.523 287.054 169.999C287.635 165.483 291.772 162.261 296.296 162.858L314.852 165.229C319.376 165.806 322.57 169.943 321.997 174.467C321.464 178.633 317.907 181.677 313.811 181.677Z" fill="#AE6652"/>
<path d="M346.156 25.339C343.767 25.026 341.709 23.72 340.284 21.777C334.291 13.609 324.714 8.258 313.803 8.258C308.777 8.258 304.022 9.392 299.763 11.406C296.945 12.739 293.606 12.321 291.264 10.263C284.036 3.91 274.637 0 264.254 0C250.888 0 239.12 6.42 231.61 16.29C229.241 19.403 225.175 20.268 221.571 18.747C218.189 17.319 214.485 16.516 210.577 16.516C202.659 16.516 196.511 20.019 192.761 22.939C189.426 25.536 185.588 27.444 181.564 28.737C145.594 40.288 120.708 75.763 124.689 115.572L132.125 190.646C133.85 190.229 135.615 189.936 137.431 189.936H148.641C157.763 189.936 165.157 182.541 165.157 173.42V145.549C165.157 122.745 183.643 104.259 206.447 104.259H229.323C234.178 104.259 238.662 106.505 241.9 110.123C243.708 112.143 245.709 113.986 247.875 115.62C247.875 115.62 293.329 129.195 360.008 93.14C395.135 74.146 359.476 28.738 359.476 28.738C355.253 27.102 350.791 25.946 346.156 25.339Z" fill="#C77F5B"/>
<path d="M413.498 409.616L373.984 397.994L255.996 446.08L129.618 391.781L99.297 400.699C74.696 407.935 57.802 430.513 57.802 456.156V487.225C57.802 500.908 68.894 511.999 82.576 511.999H429.415C432.31 511.999 435.09 511.504 437.673 510.591L445.799 493.438V452.786C445.8 432.825 432.649 415.249 413.498 409.616Z" fill="#70CE94"/>
<path d="M412.694 400.699L382.374 391.781L367.48 404.614L408.036 416.54C425.607 421.707 437.673 437.832 437.673 456.146V510.591C447.273 507.178 454.189 497.996 454.189 487.225V456.156C454.19 430.513 437.295 407.935 412.694 400.699Z" fill="#32B088"/>
<path d="M360.932 393.677L337.376 395.76C316.5 416.538 287.781 429.419 255.995 429.419C217.691 429.419 183.838 410.712 162.8 382.021L129.617 391.781C155.809 434.137 202.537 462.452 255.995 462.452C303.197 462.452 345.152 440.376 372.356 406.052L360.932 393.677Z" fill="#C5F9C7"/>
<path d="M359.476 28.7373C363.525 39.2403 364.712 51.2053 361.584 63.7223C355.979 86.1523 336.807 103.475 313.921 106.754C308.466 107.536 303.14 107.536 298.027 106.863C289.002 105.676 279.902 106.655 271.619 110.43C264.382 113.729 256.346 115.598 247.876 115.618C254.736 120.795 263.244 123.87 272.513 123.87C278.016 123.87 283.217 122.713 287.99 120.716C291.021 119.448 294.552 120.106 296.821 122.482C308.031 134.225 324.107 141.274 341.842 140.295C369.611 138.763 393.12 116.535 396.048 88.8793C398.931 61.6543 382.895 37.8083 359.476 28.7373Z" fill="#AE6652"/>
<path d="M349.191 382.021C345.591 386.932 341.686 391.479 337.377 395.76L372.357 406.051C375.965 401.499 379.307 396.74 382.374 391.78L349.191 382.021Z" fill="#70CE94"/>
</g>
<defs>
<clipPath id="clip0_645_7773">
<rect width="512" height="512" fill="white" transform="translate(-0.00390625)"/>
</clipPath>
</defs>
</svg>
