<svg width="512" height="512" viewBox="0 0 512 512" fill="none" xmlns="http://www.w3.org/2000/svg">
<g clip-path="url(#clip0_645_7165)">
<path d="M145.519 147.679V90.967C145.519 74.632 147.721 59.861 156.52 46.099C167.354 29.156 184.126 18.43 203.587 17.348L209.896 19.716L218.412 17.689C233.126 6.225 251.244 0 269.896 0H289.805C335.321 0 372.219 36.898 372.219 82.414V154.238L145.519 147.679Z" fill="#F85221"/>
<path d="M204.051 17.1317C201.239 18.2747 198.509 19.6347 195.882 21.1907C187.548 26.1557 180.295 33.1507 174.877 41.8557C166.079 55.9997 161.402 72.4317 161.402 89.2237V148.264L140.798 147.677V90.9647C140.798 74.6367 145.475 58.6377 154.273 44.8747C159.692 36.4067 166.944 29.5967 175.278 24.7657C183.612 19.9447 193.028 17.1007 202.753 16.5547L204.051 17.1317Z" fill="#EE1F1F"/>
<path d="M232.567 80.4161C231.145 82.9191 228.529 84.3311 225.84 84.3311C224.552 84.3311 223.244 84.0121 222.039 83.3321C212.417 77.8931 204.423 51.4071 202.579 35.1921C201.765 28.0431 201.827 21.8191 202.754 16.5541C203.887 16.4821 205.02 16.4531 206.164 16.4531C210.223 16.4531 214.321 16.8651 218.411 17.6891C217.813 20.0791 217.444 22.8811 217.475 26.3121C217.557 36.0681 219.855 46.4931 222.688 54.8891C225.233 62.4611 228.23 68.4361 229.941 70.0531C233.432 72.2361 234.617 76.8001 232.567 80.4161Z" fill="#EE1F1F"/>
<path d="M441.43 368.194V471.82L423.388 500.887L361.591 511.997H238.136L214.875 505.707L76.396 506.387L79.025 371.141C79.025 351.547 92.809 334.673 112.001 330.758L209.006 311.002C211.551 310.477 211.112 303.23 211.112 303.23C211.112 303.23 241.34 315.471 257.912 315.003C273.132 314.573 300.882 303.23 300.882 303.23C302.335 305.198 304.508 306.63 307.053 307.155L408.454 327.81C427.646 331.726 441.43 348.6 441.43 368.194Z" fill="#13979B"/>
<path d="M300.878 303.234C274.711 324.384 237.275 324.384 211.108 303.234C219.01 301.394 218.557 297.908 218.557 295.61L213.179 249.304H298.808L294.091 265.669L298.808 278.036V297.063C298.807 299.36 299.57 301.503 300.878 303.234Z" fill="#FFD0AE"/>
<path d="M228.848 313.752C224.449 320.582 217.423 325.64 209.048 327.35L107.658 348.005C98.098 349.952 91.165 358.441 91.165 368.197V471.823L79.171 477.754L70.561 471.823V368.197C70.561 348.603 84.345 331.729 103.537 327.814L204.938 307.159C207.483 306.634 209.656 305.202 211.109 303.234L222.641 302.528L228.848 313.752Z" fill="#147974"/>
<path d="M298.807 249.304V278.036L290.246 283.702C281.479 289.502 271.435 293.231 260.968 294.076C253.499 294.673 246.092 293.911 239.077 291.871C236.429 291.098 233.782 293.056 233.782 295.817V297.063C233.782 303.141 231.99 308.9 228.847 313.752C222.573 311.177 216.588 307.674 211.107 303.234C212.415 301.503 213.178 299.361 213.178 297.063V249.304H298.807Z" fill="#F3B88C"/>
<path d="M342.469 190.068H169.515C151.845 190.068 137.521 175.744 137.521 158.074V157.755C137.521 147.153 146.115 138.559 156.717 138.559H355.266C365.868 138.559 374.462 147.153 374.462 157.755V158.074C374.463 175.744 360.139 190.068 342.469 190.068Z" fill="#F3B88C"/>
<path d="M233.253 267.852L194.472 242.194C180.055 232.656 171.384 216.522 171.384 199.236V129.255C171.384 119.782 176.665 111.099 185.077 106.742L196.554 101.145C210.361 94.4122 219.12 80.3952 219.12 65.0332V56.2902C219.12 54.4192 221.408 53.5202 222.681 54.8902C237.596 70.9352 259.781 80.9682 282.171 80.8292H290.599C306.127 80.8292 320.773 88.0432 330.238 100.352L330.245 100.362C336.96 109.095 340.601 119.797 340.6 130.814L340.602 199.232C340.603 216.52 331.93 232.656 317.511 242.194L278.722 267.853C264.939 276.973 247.038 276.973 233.253 267.852Z" fill="#FFD0AE"/>
<path d="M304.914 175.807C303.733 175.807 302.536 175.536 301.412 174.963C297.162 172.798 292.087 172.798 287.837 174.963C284.035 176.9 279.382 175.388 277.445 171.586C275.508 167.784 277.02 163.131 280.822 161.194C289.465 156.791 299.785 156.791 308.428 161.194C312.23 163.131 313.742 167.784 311.805 171.586C310.44 174.266 307.727 175.807 304.914 175.807Z" fill="#146662"/>
<path d="M227.65 175.807C226.469 175.807 225.272 175.536 224.148 174.963C219.897 172.798 214.823 172.798 210.573 174.963C206.772 176.9 202.118 175.388 200.181 171.586C198.244 167.784 199.756 163.131 203.558 161.194C212.201 156.791 222.521 156.791 231.164 161.194C234.966 163.131 236.478 167.784 234.541 171.586C233.176 174.266 230.463 175.807 227.65 175.807Z" fill="#146662"/>
<path d="M256.785 236.717C248.506 236.717 240.228 234.794 232.681 230.949C228.879 229.012 227.367 224.359 229.304 220.557C231.241 216.754 235.894 215.243 239.696 217.18C250.398 222.633 263.174 222.633 273.875 217.18C277.675 215.242 282.33 216.754 284.267 220.557C286.204 224.359 284.692 229.012 280.889 230.949C273.343 234.794 265.064 236.717 256.785 236.717Z" fill="#F85221"/>
<path d="M441.426 471.823V506.849C441.426 509.694 439.12 512 436.275 512H377.04L369.314 471.823H441.426Z" fill="#147974"/>
<path d="M142.158 471.823V505.937L134.947 512H91.1639L81.8359 507.411V471.823H142.158Z" fill="#147974"/>
<path d="M91.1641 471.823V512H75.7111C72.8661 512 70.5601 509.694 70.5601 506.849V471.823H91.1641Z" fill="#146662"/>
<path d="M150.399 412.588V471.823L142.342 477.754L134.946 471.823V412.588C134.946 408.323 138.407 404.862 142.672 404.862C146.938 404.861 150.399 408.323 150.399 412.588Z" fill="#147974"/>
<path d="M377.039 433.191V471.823L368.612 477.073L361.586 471.823V433.191C361.586 428.926 365.047 425.465 369.312 425.465C373.578 425.465 377.039 428.926 377.039 433.191Z" fill="#147974"/>
<path d="M134.947 471.823H150.4V512H134.947V471.823Z" fill="#146662"/>
<path d="M361.587 471.823H377.04V512H361.587V471.823Z" fill="#146662"/>
<path d="M368.612 416.336L367.99 416.527C364.894 412.837 360.456 412.549 356.185 413.248C354.204 413.572 350.495 414.4 350.495 414.4C355.942 409.835 361.307 405.342 365.699 401.669C371.373 396.924 371.997 388.345 367.2 382.629L366.412 382.84C363.74 379.655 360.108 378.452 356.453 378.48C354.192 378.498 349.852 380.084 349.852 380.084C352.248 378.073 354.508 376.178 356.537 374.475C362.134 369.779 362.857 361.44 358.12 355.794L357.261 356.003C352.706 350.574 344.912 350.852 339.483 355.408L331.547 360.907C337.16 356.103 337.868 347.67 333.065 341.946L332.847 341.686C326.738 337.01 318.823 338.169 313.284 342.818L243.449 400.766C242.576 401.498 241.46 400.179 240.749 399.522C240.713 399.488 240.685 399.457 240.651 399.421C240.287 399.032 240.061 398.492 240.107 397.869C240.444 393.332 240.972 386.235 241.489 379.273C241.955 373.005 239.865 367.102 236.071 362.629C236.071 362.629 228.654 357.814 222.918 356.958L222.611 356.912C220.228 356.556 217.952 358.024 217.292 360.34L209.594 392.238C206.112 404.46 205.163 418.434 207.439 430.937C209.439 441.919 205.651 453.158 197.411 460.69L149.701 508.374L164.461 511.999H238.132C252.272 502.118 264.485 502.536 275.326 500.345C287.815 497.821 299.466 492.207 309.22 484.01C325.924 469.971 352.603 447.55 367.126 435.347C372.781 430.595 373.402 422.045 368.612 416.336Z" fill="#FFD0AE"/>
<path d="M225.304 400.74C223.192 408.157 222.131 415.812 222.131 423.476C222.131 428.441 222.574 433.417 223.47 438.331C225.469 449.313 221.677 460.552 213.436 468.083L164.461 512H135.575L194.893 458.812C203.134 451.281 206.926 440.042 204.927 429.06C204.031 424.146 203.588 419.17 203.588 414.205C203.588 406.54 204.649 398.886 206.761 391.469L216.259 358.122C216.918 355.804 219.195 354.331 221.575 354.691L221.874 354.732C227.612 355.587 232.572 358.498 236.075 362.629L225.304 400.74Z" fill="#F3B88C"/>
<path d="M358.121 355.795L301.259 403.491C298.478 405.819 294.336 405.459 291.998 402.677C290.968 401.441 290.463 399.947 290.463 398.453C290.463 396.578 291.266 394.713 292.812 393.415L331.609 360.861L340.283 353.588L340.324 353.557C345.743 349.447 353.5 350.271 357.909 355.535L358.121 355.795Z" fill="#F3B88C"/>
<path d="M332.886 341.731L258.366 404.258C252.392 409.27 243.251 406.774 240.654 399.421C241.355 400.163 242.58 400.359 243.487 399.596L306.431 346.758L314.405 340.072C319.947 335.426 328.199 336.147 332.845 341.689L332.886 341.731Z" fill="#F3B88C"/>
<path d="M367.201 382.629L318.278 423.671C315.497 426.01 311.355 425.639 309.017 422.857C307.987 421.621 307.482 420.127 307.482 418.644C307.482 416.769 308.286 414.904 309.831 413.606L349.812 380.115C355.262 376.386 362.761 377.334 367.098 382.505L367.201 382.629Z" fill="#F3B88C"/>
<path d="M368.612 416.336L335.317 444.275C332.536 446.614 328.394 446.243 326.056 443.461C325.026 442.225 324.521 440.731 324.521 439.248C324.521 437.373 325.324 435.519 326.859 434.221L326.869 434.211L344.959 419.036C346.164 418.026 347.38 417.007 348.596 415.987L350.698 414.236C356.168 410.033 364.029 410.867 368.51 416.204L368.612 416.336Z" fill="#F3B88C"/>
</g>
<defs>
<clipPath id="clip0_645_7165">
<rect width="512" height="512" fill="white" transform="translate(-0.00390625)"/>
</clipPath>
</defs>
</svg>
