<svg width="512" height="512" viewBox="0 0 512 512" fill="none" xmlns="http://www.w3.org/2000/svg">
<g clip-path="url(#clip0_645_6957)">
<path d="M484.212 172.803C477.887 242.927 426.223 265.942 383.79 273.173C325.574 267.023 280.216 217.77 280.216 157.927C280.216 100.958 321.32 53.59 375.497 43.876C375.497 43.875 495.122 51.736 484.212 172.803Z" fill="#5B5555"/>
<path d="M511.997 157.925C511.997 221.93 460.107 273.82 396.102 273.82C389.066 273.82 382.184 273.191 375.498 271.986C398.339 267.89 419.529 252.333 435.624 236.952C457.706 215.85 470.79 190.875 470.79 157.924C470.79 100.955 429.675 53.5871 375.498 43.8731C382.184 42.6681 389.065 42.0391 396.102 42.0391C460.107 42.0401 511.997 93.9191 511.997 157.925Z" fill="#433F43"/>
<path d="M437.781 268.012V317.368L410.017 349.159L369.212 359.595V339.96L410.615 263.922L437.781 268.012Z" fill="#A34F41"/>
<path d="M369.211 217.331V339.958C393.092 332.035 410.324 309.535 410.324 282.995V281.194C410.324 275.504 414.936 270.892 420.626 270.892H427.081C430.983 270.892 434.63 269.831 437.78 268.006V217.331H369.211Z" fill="#873F30"/>
<path d="M427.082 173.564H425.137C413.319 173.564 403.74 183.144 403.74 194.961C403.605 174.469 386.955 157.928 366.463 157.928H280.213L282.106 270.438C282.483 292.867 300.773 310.851 323.205 310.851H350.305C383.453 310.851 410.324 283.979 410.324 250.832V238.729H427.081C438.899 238.729 448.478 229.149 448.478 217.332V194.962C448.479 183.144 438.899 173.564 427.082 173.564Z" fill="#BA5D4F"/>
<path d="M444.143 152.74H443.348C439.08 152.74 435.622 149.281 435.622 145.014C435.622 140.746 439.081 137.288 443.348 137.288H444.143C448.411 137.288 451.869 140.747 451.869 145.014C451.869 149.282 448.41 152.74 444.143 152.74Z" fill="#433F43"/>
<path d="M400.114 93.0448H399.319C395.051 93.0448 391.593 89.5858 391.593 85.3188C391.593 81.0508 395.052 77.5928 399.319 77.5928H400.114C404.382 77.5928 407.84 81.0518 407.84 85.3188C407.84 89.5858 404.381 93.0448 400.114 93.0448Z" fill="#433F43"/>
<path d="M375.893 109.576H375.098C370.83 109.576 367.372 106.117 367.372 101.85C367.372 97.582 370.831 94.124 375.098 94.124H375.893C380.161 94.124 383.619 97.583 383.619 101.85C383.62 106.118 380.161 109.576 375.893 109.576Z" fill="#433F43"/>
<path d="M325.61 215.68C320.305 215.68 314.647 214.194 309.205 210.192C305.767 207.665 305.03 202.828 307.558 199.39C310.086 195.952 314.92 195.214 318.36 197.743C327.107 204.177 336.846 196.076 336.942 195.992C340.198 193.232 345.073 193.633 347.832 196.886C350.593 200.141 350.192 205.016 346.938 207.776C342.776 211.308 334.711 215.68 325.61 215.68Z" fill="#873F30"/>
<path d="M456.304 474.706H379.7L379.71 474.696L371.252 469.329L364.257 474.696V474.706H337.153C331.044 474.706 326.264 469.411 326.903 463.333C332.136 413.143 369.212 359.594 369.212 359.594L413.077 332.583C413.077 332.583 432.825 347.191 453.944 362.623C461.466 391.911 466.689 432.387 456.304 474.706Z" fill="#F85221"/>
<path d="M364.262 474.699C364.262 433.498 412.112 409.035 414.149 408.013C417.966 406.104 422.606 407.644 424.519 411.458C426.429 415.27 424.891 419.909 421.082 421.824C420.575 422.081 379.714 443.107 379.714 474.699H364.262Z" fill="#AC1212"/>
<path d="M489.094 474.699H455.481C455.481 392.945 431.185 351.853 413.079 332.58L437.782 317.37C437.782 317.37 496.17 342.904 499.396 464.132C499.551 469.921 494.885 474.699 489.094 474.699Z" fill="#EE1F1F"/>
<path d="M200.778 189.668H143.706L96.0293 60.2053C96.0293 60.2053 117.21 45.3703 144.705 39.5703H144.715C145.786 39.6633 209.905 45.4213 216.786 120.213C219.486 149.542 211.461 172.484 200.778 189.668Z" fill="#FCB44D"/>
<path d="M209.783 189.667H169.579C209.562 189.667 232.75 103.258 174.243 54.6103C164.815 46.7703 154.784 42.0563 144.703 39.5743C166.454 34.9913 192.144 36.0663 214.448 54.6103C272.954 103.258 249.766 189.667 209.783 189.667Z" fill="#FB9927"/>
<path d="M94.3841 234.401C146.513 234.401 188.772 192.142 188.772 140.013C188.772 87.8839 146.513 45.625 94.3841 45.625C42.255 45.625 -0.00390625 87.8839 -0.00390625 140.013C-0.00390625 192.142 42.255 234.401 94.3841 234.401Z" fill="#FCB44D"/>
<path d="M150.897 59.4117C138.702 51.2947 125.037 45.9657 110.71 43.6647C105.986 42.9057 101.688 46.5087 101.688 51.2937C101.688 55.1077 104.475 58.3227 108.24 58.9277C120.479 60.8907 132.146 65.4527 142.54 72.4147C146.348 74.9657 151.602 73.6807 153.744 69.4667C155.539 65.9377 154.191 61.6037 150.897 59.4117Z" fill="#FB9927"/>
<path d="M130.314 339.962V359.597L87.4646 339.961L61.7446 317.37V268.014L82.1736 256.002L130.314 339.962Z" fill="#FDB9A0"/>
<path d="M61.75 217.336V268.011C64.9 269.836 68.547 270.897 72.449 270.897H78.905C84.595 270.897 89.207 275.509 89.207 281.199V283C89.207 309.539 106.44 332.04 130.32 339.963V217.336H61.75Z" fill="#F6A783"/>
<path d="M218.775 195.408L208.577 272.625C205.688 294.504 187.034 310.857 164.965 310.857H149.225C116.077 310.857 89.2058 283.985 89.2058 250.838V238.735H72.4488C60.6308 238.735 51.0518 229.155 51.0518 217.338V194.968C51.0518 183.15 60.6318 173.571 72.4488 173.571H74.3938C86.2108 173.571 95.7908 183.151 95.7908 194.968C95.7908 206.785 95.7988 195.092 95.8108 195.063C104.664 174.75 119.63 157.935 141.789 157.935H185.923C205.947 157.933 221.396 175.556 218.775 195.408Z" fill="#FFD7C0"/>
<path d="M218.775 195.406L208.576 272.628C205.681 294.499 187.035 310.858 164.958 310.858H149.227C144.488 310.858 139.883 310.312 135.464 309.271C152.132 304.676 165.01 290.491 167.369 272.628L177.568 195.406C180.185 175.554 164.742 157.928 144.716 157.928H185.923C205.949 157.929 221.391 175.555 218.775 195.406Z" fill="#FDB9A0"/>
<path d="M173.923 215.682C164.819 215.682 156.756 211.31 152.594 207.78C149.339 205.019 148.939 200.144 151.7 196.89C154.451 193.649 159.3 193.239 162.553 195.964C163.595 196.821 172.741 203.944 181.175 197.746C184.613 195.217 189.449 195.954 191.976 199.394C194.504 202.832 193.767 207.668 190.328 210.195C184.885 214.196 179.226 215.682 173.923 215.682Z" fill="#5B5555"/>
<path d="M135.187 459.071L119.817 474.699L119.827 474.709H10.4417C4.64172 474.709 -0.0142827 469.929 0.129717 464.139C2.16972 387.854 26.0287 349.469 43.4487 331.483C43.4487 331.483 102.458 363.408 133.837 380.211C136.598 399.98 139.349 430.886 135.187 459.071Z" fill="#F85221"/>
<path d="M162.375 474.708L135.268 474.701C135.268 464.267 130.377 453.498 127.715 442.917C116.24 397.304 86.8802 358.226 46.8302 333.565L43.4482 331.483C53.7192 320.882 61.7442 317.37 61.7442 317.37L130.313 359.597C130.313 359.597 167.389 413.143 172.628 463.344C173.262 469.42 168.485 474.708 162.375 474.708Z" fill="#EE1F1F"/>
<path d="M119.816 474.702C119.816 461.67 112.995 448.884 99.5439 436.699C89.0409 427.186 78.5609 421.883 78.4559 421.83C74.6409 419.918 73.0999 415.276 75.0119 411.461C76.9229 407.646 81.5649 406.104 85.3809 408.017C87.4179 409.038 135.267 433.501 135.267 474.702H119.816Z" fill="#AC1212"/>
<path d="M291.548 278.643C291.548 309.239 232.004 342.576 232.004 342.576L191.631 302.193C184.512 295.074 180.958 285.751 180.958 276.418C180.958 267.085 184.512 257.761 191.631 250.643C205.868 236.406 228.944 236.406 243.181 250.643L249.764 257.226L256.347 250.643C258.799 248.191 261.498 246.172 264.382 244.565C265.247 244.689 291.548 248.562 291.548 278.643Z" fill="#FB3A82"/>
<path d="M307.903 302.192L266.432 343.663C262.223 347.872 258.369 352.437 254.923 357.294C253.662 359.07 251.708 359.958 249.764 359.958C247.82 359.958 245.866 359.07 244.605 357.294C241.159 352.436 237.305 347.872 233.096 343.663L232.004 342.571L272.383 302.192C286.618 287.957 286.618 264.877 272.383 250.642C269.941 248.2 267.241 246.175 264.364 244.568C269.87 241.504 276.006 239.968 282.134 239.968C291.458 239.968 300.783 243.52 307.905 250.642C322.139 264.877 322.139 287.957 307.903 302.192Z" fill="#FB1466"/>
</g>
<defs>
<clipPath id="clip0_645_6957">
<rect width="512" height="512" fill="white" transform="translate(-0.00390625)"/>
</clipPath>
</defs>
</svg>
