<svg width="512" height="512" viewBox="0 0 512 512" fill="none" xmlns="http://www.w3.org/2000/svg">
<g clip-path="url(#clip0_645_7806)">
<path d="M368.516 51.5129C360.069 45.3659 360.2 25.0779 350.827 20.2929C341.551 15.5579 325.214 27.5509 315.172 24.2899C305.304 21.0859 299.138 1.75591 288.664 0.108906C278.46 -1.49409 266.65 14.9719 255.996 14.9719C245.342 14.9719 233.531 -1.49309 223.327 0.110906C212.851 1.75691 206.683 21.0889 196.814 24.2939C186.772 27.5549 170.433 15.5629 161.157 20.2989C151.784 25.0849 151.916 45.3719 143.469 51.5199C134.982 57.6969 115.726 51.3359 108.321 58.7409C100.917 66.1459 107.279 85.4019 101.103 93.8879C94.9559 102.335 74.6679 102.203 69.8839 111.576C65.1489 120.852 77.1419 137.19 73.8809 147.231C70.6769 157.099 51.3459 163.265 49.6999 173.739C48.0959 183.943 64.5619 195.753 64.5619 206.407C64.5619 217.061 48.0969 228.872 49.7009 239.076C51.3469 249.552 70.6779 255.72 73.8829 265.589C77.1439 275.631 65.1519 291.97 69.8879 301.246C74.6739 310.619 94.9619 310.488 101.11 318.934C107.287 327.42 100.926 346.677 108.331 354.081C115.736 361.485 134.991 355.123 143.478 361.299C151.925 367.446 151.794 387.734 161.167 392.519C170.443 397.253 186.78 385.26 196.822 388.521C199.765 389.477 204.226 393.629 206.723 396.556L404.641 226.819L370.311 52.5709C369.671 52.2669 369.071 51.9169 368.516 51.5129Z" fill="#9E5F4E"/>
<path d="M447.432 206.407C447.432 195.753 463.897 183.942 462.293 173.738C460.647 163.262 441.316 157.094 438.111 147.225C434.85 137.183 446.842 120.844 442.106 111.568C437.32 102.195 417.032 102.326 410.884 93.8803C404.707 85.3943 411.068 66.1383 403.663 58.7333C396.717 51.7883 379.444 57.0003 370.312 52.5723C360.174 63.9263 350.706 79.1203 346.816 99.1873C340.728 130.595 320.819 129.403 285.699 125.775L266.052 394.796L305.517 396.884C308.368 393.056 311.976 389.561 315.179 388.521C325.221 385.26 341.56 397.252 350.836 392.516C360.209 387.73 360.077 367.442 368.524 361.294C377.011 355.118 396.266 361.478 403.672 354.073C411.076 346.669 404.714 327.413 410.89 318.927C417.037 310.48 437.325 310.611 442.11 301.238C446.845 291.963 434.852 275.625 438.113 265.583C441.317 255.715 460.648 249.548 462.294 239.075C463.897 228.872 447.432 217.061 447.432 206.407Z" fill="#774646"/>
<path d="M295.499 371.147L206.458 369.345V389.448C206.458 403.45 197.628 415.93 184.424 420.591L165.71 427.196L164.7 444.953C187.848 468.723 220.196 483.488 255.995 483.488C292.847 483.488 326.04 467.842 349.307 442.834C349.308 442.835 297.237 432.83 295.499 371.147Z" fill="#D0845F"/>
<path d="M327.568 420.591C314.364 415.931 305.534 403.451 305.534 389.448V332.622H206.459V369.345C221.701 376.085 238.454 379.899 255.997 379.899C262.684 379.899 269.256 379.344 275.676 378.289C282.664 377.141 289.022 382.375 289.022 389.456C289.022 410.458 302.267 429.176 322.071 436.165L344.851 444.204L346.281 427.196L327.568 420.591Z" fill="#9E5F4E"/>
<path d="M322.046 161.858C305.727 154.869 290.635 145.819 285.698 125.775C283.453 125.545 281.147 125.304 278.763 125.058C248.278 121.92 224.966 131.783 202.103 157.263C184.232 177.18 169.192 180.664 154.823 181.934C148.646 182.48 143.239 186.577 140.997 192.359C135.647 206.16 138.988 218.178 140.85 223.031H137.456C126.659 223.031 116.821 230.799 115.745 241.542C114.508 253.897 124.177 264.313 136.279 264.313H149.081C152.778 312.754 188.555 352.218 235.243 361.376C235.243 361.376 347.299 363.981 347.299 264.313L322.046 161.858Z" fill="#EB9E6E"/>
<path d="M374.535 223.029H372.15C380.887 179.615 349.703 173.701 322.046 161.857V256.054C322.046 308.305 284.693 351.788 235.243 361.373C241.957 362.69 248.894 363.385 255.996 363.385C312.486 363.385 358.682 319.717 362.91 264.31H375.712C387.814 264.31 397.483 253.895 396.246 241.54C395.17 230.797 385.331 223.029 374.535 223.029Z" fill="#D0845F"/>
<path d="M198.194 206.538C194.098 206.538 190.542 203.494 190.01 199.33C189.438 194.807 192.63 190.671 197.154 190.094L215.706 187.724C220.278 187.107 224.373 190.348 224.946 194.864C225.518 199.387 222.326 203.523 217.802 204.1L199.25 206.47C198.895 206.518 198.541 206.538 198.194 206.538Z" fill="#774646"/>
<path d="M313.798 206.538C313.451 206.538 313.097 206.518 312.742 206.469L294.19 204.099C289.667 203.523 286.474 199.386 287.046 194.863C287.627 190.348 291.787 187.119 296.286 187.723L314.838 190.093C319.361 190.669 322.554 194.806 321.982 199.329C321.45 203.494 317.894 206.538 313.798 206.538Z" fill="#774646"/>
<path d="M222.979 239.542C220.326 239.542 217.73 238.268 216.134 235.91C212.28 230.202 200.637 230.202 196.783 235.91C194.227 239.679 189.099 240.683 185.326 238.127C181.545 235.571 180.553 230.439 183.109 226.662C188.14 219.216 196.872 214.773 206.459 214.773C216.046 214.773 224.778 219.216 229.809 226.662C232.365 230.439 231.373 235.571 227.592 238.127C226.18 239.082 224.567 239.542 222.979 239.542Z" fill="#774646"/>
<path d="M322.054 239.542C319.401 239.542 316.805 238.268 315.209 235.91C311.355 230.202 299.712 230.202 295.858 235.91C293.302 239.679 288.166 240.683 284.401 238.127C280.62 235.571 279.628 230.439 282.184 226.662C287.215 219.216 295.947 214.773 305.534 214.773C315.121 214.773 323.853 219.216 328.884 226.662C331.44 230.439 330.448 235.571 326.667 238.127C325.255 239.082 323.643 239.542 322.054 239.542Z" fill="#774646"/>
<path d="M219.495 272.568C212.939 272.568 208.401 279.398 211.185 285.334C219.082 302.178 236.16 313.849 255.996 313.849C275.832 313.849 292.91 302.178 300.807 285.334C303.59 279.398 299.053 272.568 292.497 272.568H219.495Z" fill="white"/>
<path d="M363.264 440.866L255.996 488.758L133.12 438.699L99.1517 450.688C86.5787 455.126 75.9727 465.72 70.2457 478.772C67.0037 486.16 68.2257 494.766 72.7787 501.427C77.3007 508.043 84.7977 512 92.8127 512H419.179C422.464 512 425.662 511.337 428.604 510.097C428.604 510.097 442.757 494.948 433.798 474.749L363.264 440.866Z" fill="#FFAB5C"/>
<path d="M441.746 478.771C436.019 465.719 425.413 455.125 412.84 450.687L378.872 438.698L353.4 447.22L407.343 466.255C437.708 477.354 428.605 510.096 428.605 510.096C432.815 508.307 436.559 505.311 439.215 501.426C443.766 494.765 444.988 486.16 441.746 478.771Z" fill="#FF8B57"/>
<path d="M357.493 439.49L333.98 440.36C313.431 459.199 286.074 470.719 255.996 470.719C219.433 470.719 186.891 453.697 165.711 427.196L133.12 438.698C159.869 477.952 204.912 503.743 255.996 503.743C300.835 503.743 341.01 483.865 368.254 452.462L357.493 439.49Z" fill="#FFC770"/>
<path d="M333.98 440.36L368.254 452.463C372.049 448.089 375.601 443.498 378.872 438.699L346.281 427.196C342.504 431.922 338.438 436.28 333.98 440.36Z" fill="#FFAB5C"/>
<path d="M144.175 278.751L129.189 292.326C122.022 292.326 116.622 286.478 116.622 286.478C115.982 284.716 115.632 282.815 115.632 280.832C115.632 271.708 123.028 264.312 132.152 264.312C134.13 264.312 135.969 264.853 137.785 265.297C137.785 265.297 144.175 271.041 144.175 278.751Z" fill="#FFE077"/>
<path d="M137.785 265.297C138.423 267.056 138.805 268.986 138.805 270.965C138.805 280.089 131.408 287.485 122.285 287.485C120.306 287.485 118.38 287.116 116.622 286.478C118.926 292.827 125.008 297.353 132.153 297.353C141.277 297.353 148.673 289.956 148.673 280.833C148.672 273.687 144.134 267.6 137.785 265.297Z" fill="#FFD05B"/>
<path d="M391.863 278.751L376.877 292.326C369.71 292.326 364.31 286.478 364.31 286.478C363.669 284.716 363.32 282.815 363.32 280.832C363.32 271.708 370.716 264.312 379.84 264.312C381.818 264.312 383.657 264.853 385.473 265.297C385.473 265.297 391.863 271.041 391.863 278.751Z" fill="#FFE077"/>
<path d="M385.473 265.297C386.111 267.056 386.493 268.986 386.493 270.965C386.493 280.089 379.096 287.485 369.973 287.485C367.994 287.485 366.068 287.116 364.31 286.478C366.613 292.827 372.696 297.353 379.841 297.353C388.965 297.353 396.361 289.956 396.361 280.833C396.361 273.687 391.823 267.6 385.473 265.297Z" fill="#FFD05B"/>
</g>
<defs>
<clipPath id="clip0_645_7806">
<rect width="512" height="512" fill="white" transform="translate(-0.00390625)"/>
</clipPath>
</defs>
</svg>
