<svg width="512" height="512" viewBox="0 0 512 512" fill="none" xmlns="http://www.w3.org/2000/svg">
<path d="M299.084 367.564V328.29H206.435V348.199C206.435 362.208 197.601 374.694 184.391 379.357L165.655 385.969L165.842 401.751C188.724 425.18 220.66 439.727 255.996 439.727C293.529 439.727 327.225 423.316 350.311 397.281L299.084 367.564Z" fill="#C6805D"/>
<path d="M327.602 379.356C314.392 374.694 305.557 362.208 305.557 348.198V297.367H206.434V328.289C221.619 334.929 238.362 338.667 255.995 338.667C262.704 338.667 269.272 338.091 275.677 337.03C282.669 335.871 289.035 341.109 289.035 348.196C289.035 369.209 302.285 387.938 322.1 394.932L340.499 401.427L346.335 385.969L327.602 379.356Z" fill="#A46A5A"/>
<path d="M268.5 57.8213H222.955C177.335 57.8213 140.353 94.8033 140.353 140.424V181.725H136.223C124.818 181.725 115.572 190.97 115.572 202.375C115.572 213.78 124.817 223.026 136.223 223.026H149.031C152.839 272.92 190.661 313.299 239.393 320.871C298.324 320.324 351.102 274.5 351.102 222.804V140.423C351.102 94.8033 314.12 57.8213 268.5 57.8213Z" fill="#E29A6C"/>
<path d="M375.769 181.725H371.639V140.424C371.639 117.829 362.445 97.4885 347.726 82.6025H306.678C321.298 97.5045 330.338 117.9 330.338 140.424V214.766C330.338 268.457 290.86 312.929 239.393 320.872C244.806 321.713 250.346 322.149 255.996 322.149C312.513 322.149 358.73 278.46 362.961 223.026H375.769C387.174 223.026 396.42 213.78 396.42 202.375C396.42 190.97 387.174 181.725 375.769 181.725Z" fill="#C6805D"/>
<path d="M206.435 16.5196C165.377 16.5196 132.093 49.8036 132.093 90.8616C132.093 99.9856 139.489 107.382 148.613 107.382H214.695C242.613 107.382 262.432 102.532 262.432 102.532L269.762 107.276C334.153 106.088 371.638 65.3526 371.638 16.5186H313.817L305.436 22.3866L297.296 16.5186L206.435 16.5196Z" fill="#DFBDF0"/>
<path d="M255.996 264.327C243.606 264.327 232.167 260.35 225.415 253.687C222.164 250.485 222.132 245.253 225.334 242.007C228.536 238.756 233.78 238.724 237.014 241.926C239.765 244.64 246.387 247.807 255.995 247.807C265.603 247.807 272.225 244.641 274.976 241.926C278.211 238.724 283.454 238.756 286.656 242.007C289.858 245.254 289.826 250.485 286.575 253.687C279.825 260.35 268.386 264.327 255.996 264.327Z" fill="#B74E56"/>
<path d="M206.435 206.505C201.869 206.505 198.175 202.806 198.175 198.245V189.985C198.175 185.423 201.87 181.725 206.435 181.725C211 181.725 214.695 185.424 214.695 189.985V198.245C214.695 202.807 211 206.505 206.435 206.505Z" fill="#774646"/>
<path d="M305.557 206.505C300.991 206.505 297.297 202.806 297.297 198.245V189.985C297.297 185.423 300.992 181.725 305.557 181.725C310.122 181.725 313.817 185.424 313.817 189.985V198.245C313.817 202.807 310.123 206.505 305.557 206.505Z" fill="#774646"/>
<path d="M198.166 173.464C194.068 173.464 190.511 170.419 189.978 166.252C189.405 161.727 192.6 157.588 197.125 157.012L215.686 154.64C220.276 154.019 224.358 157.266 224.93 161.783C225.503 166.308 222.308 170.447 217.783 171.023L199.222 173.395C198.868 173.444 198.513 173.464 198.166 173.464Z" fill="#A46A5A"/>
<path d="M313.826 173.464C313.479 173.464 313.124 173.444 312.769 173.395L294.208 171.023C289.683 170.446 286.488 166.308 287.061 161.783C287.642 157.266 291.764 154.031 296.305 154.64L314.866 157.012C319.391 157.589 322.586 161.727 322.013 166.252C321.481 170.419 317.923 173.464 313.826 173.464Z" fill="#A46A5A"/>
<path d="M144.116 237.465L129.13 251.04C121.963 251.04 116.563 245.192 116.563 245.192C115.923 243.43 115.573 241.529 115.573 239.546C115.573 230.422 122.969 223.026 132.093 223.026C134.071 223.026 135.91 223.567 137.726 224.011C137.726 224.011 144.116 229.755 144.116 237.465Z" fill="#FFE077"/>
<path d="M363.379 0C354.255 0 346.858 7.396 346.858 16.521V24.781C346.858 68.525 312.848 104.304 269.831 107.175C296.328 89.363 313.817 59.037 313.817 24.781V16.521H297.296V24.781C297.296 70.329 260.238 107.383 214.694 107.383H264.255H305.556C351.176 107.383 388.158 70.401 388.158 24.781C388.159 11.095 377.065 0 363.379 0Z" fill="#9F75D9"/>
<path d="M137.726 224.011C138.364 225.77 138.746 227.7 138.746 229.679C138.746 238.803 131.349 246.199 122.226 246.199C120.247 246.199 118.321 245.83 116.563 245.192C118.867 251.541 124.949 256.067 132.094 256.067C141.218 256.067 148.614 248.67 148.614 239.547C148.613 232.401 144.075 226.315 137.726 224.011Z" fill="#FFCB5B"/>
<path d="M405.131 415.634L359.131 399.399C334.702 429.247 297.576 448.301 255.996 448.301C217.437 448.301 182.705 431.917 158.381 405.732L133.049 397.478L99.077 409.468C79.262 416.462 66.011 435.19 66.011 456.203V487.22C66.011 500.905 77.106 512 90.792 512H421.2C424.093 512 426.879 511.498 429.46 510.586L438.196 496.468V462.37C438.197 441.356 424.946 422.627 405.131 415.634Z" fill="#9F75D9"/>
<path d="M412.915 409.467L378.944 397.477L361.337 408.782L407.423 425.05C420.63 429.712 429.461 442.195 429.461 456.2V510.587C439.064 507.173 445.981 497.994 445.981 487.22V456.203C445.981 435.189 432.73 416.46 412.915 409.467Z" fill="#875DC1"/>
<path d="M334.03 399.145C313.47 418.001 286.095 429.531 255.996 429.531C219.407 429.531 186.845 412.492 165.655 385.969L133.048 397.477C159.808 436.76 204.879 462.571 255.996 462.571C300.864 462.571 341.067 442.677 368.324 411.248L356.314 397.427L334.03 399.145Z" fill="#DFBDF0"/>
<path d="M334.03 399.145L368.324 411.249C372.12 406.872 375.673 402.279 378.944 397.477L346.338 385.969C342.561 390.697 338.488 395.063 334.03 399.145Z" fill="#9F75D9"/>
<path d="M391.922 237.465L376.936 251.04C369.769 251.04 364.368 245.192 364.368 245.192C363.728 243.43 363.378 241.529 363.378 239.546C363.378 230.422 370.774 223.026 379.898 223.026C381.876 223.026 383.715 223.567 385.531 224.011C385.531 224.011 391.922 229.755 391.922 237.465Z" fill="#FFE077"/>
<path d="M385.532 224.011C386.17 225.77 386.552 227.7 386.552 229.679C386.552 238.803 379.155 246.199 370.032 246.199C368.053 246.199 366.127 245.83 364.369 245.192C366.673 251.541 372.755 256.067 379.9 256.067C389.024 256.067 396.42 248.67 396.42 239.547C396.419 232.401 391.882 226.315 385.532 224.011Z" fill="#FFCB5B"/>
</svg>
