<svg id="Capa_1" enable-background="new 0 0 512 512" viewBox="0 0 512 512" xmlns="http://www.w3.org/2000/svg"><g><path d="m299.088 367.564v-39.274h-92.649v19.909c0 14.009-8.834 26.495-22.044 31.158l-18.736 6.612.187 15.782c22.882 23.429 54.818 37.976 90.154 37.976 37.533 0 71.229-16.411 94.315-42.446z" fill="#c6805d"/><path d="m327.606 379.356c-13.21-4.662-22.045-17.148-22.045-31.158v-50.831h-99.123v30.922c15.185 6.64 31.928 10.378 49.561 10.378 6.709 0 13.277-.576 19.682-1.637 6.992-1.159 13.358 4.079 13.358 11.166 0 21.013 13.25 39.742 33.065 46.736l18.399 6.495 5.836-15.458z" fill="#a46a5a"/><path d="m268.504 57.821h-45.545c-45.62 0-82.602 36.982-82.602 82.603v41.301h-4.13c-11.405 0-20.651 9.245-20.651 20.65s9.245 20.651 20.651 20.651h12.808c3.808 49.894 41.63 90.273 90.362 97.845 58.931-.547 111.709-46.371 111.709-98.067v-82.381c0-45.62-36.982-82.602-82.602-82.602z" fill="#e29a6c"/><path d="m375.773 181.725h-4.13v-41.301c0-22.595-9.194-42.935-23.913-57.821h-41.048c14.62 14.902 23.66 35.297 23.66 57.821v74.342c0 53.691-39.478 98.163-90.945 106.106 5.413.841 10.953 1.277 16.603 1.277 56.517 0 102.734-43.689 106.965-99.123h12.808c11.405 0 20.651-9.246 20.651-20.651s-9.246-20.65-20.651-20.65z" fill="#c6805d"/><path d="m206.439 16.52c-41.058 0-74.342 33.284-74.342 74.342 0 9.124 7.396 16.52 16.52 16.52h66.082c27.918 0 47.737-4.85 47.737-4.85l7.33 4.744c64.391-1.188 101.876-41.923 101.876-90.757h-57.821l-8.381 5.868-8.14-5.868z" fill="#dfbdf0"/><path d="m256 264.327c-12.39 0-23.829-3.977-30.581-10.64-3.251-3.202-3.283-8.434-.081-11.68 3.202-3.251 8.446-3.283 11.68-.081 2.751 2.714 9.373 5.881 18.981 5.881s16.23-3.166 18.981-5.881c3.235-3.202 8.478-3.17 11.68.081 3.202 3.247 3.17 8.478-.081 11.68-6.75 6.663-18.189 10.64-30.579 10.64z" fill="#a46a5a"/><path d="m206.439 206.505c-4.566 0-8.26-3.699-8.26-8.26v-8.26c0-4.562 3.695-8.26 8.26-8.26s8.26 3.699 8.26 8.26v8.26c0 4.562-3.695 8.26-8.26 8.26z" fill="#845252"/><path d="m305.561 206.505c-4.566 0-8.26-3.699-8.26-8.26v-8.26c0-4.562 3.695-8.26 8.26-8.26s8.26 3.699 8.26 8.26v8.26c0 4.562-3.694 8.26-8.26 8.26z" fill="#845252"/><path d="m198.17 173.464c-4.098 0-7.655-3.045-8.188-7.212-.573-4.525 2.622-8.664 7.147-9.24l18.561-2.372c4.59-.621 8.672 2.626 9.244 7.143.573 4.525-2.622 8.664-7.147 9.24l-18.561 2.372c-.354.049-.709.069-1.056.069z" fill="#a46a5a"/><path d="m313.83 173.464c-.347 0-.702-.02-1.057-.069l-18.561-2.372c-4.525-.577-7.72-4.715-7.147-9.24.581-4.517 4.703-7.752 9.244-7.143l18.561 2.372c4.525.577 7.72 4.715 7.147 9.24-.532 4.167-4.09 7.212-8.187 7.212z" fill="#a46a5a"/><path d="m144.12 237.465-14.986 13.575c-7.167 0-12.567-5.848-12.567-5.848-.64-1.762-.99-3.663-.99-5.646 0-9.124 7.396-16.52 16.52-16.52 1.978 0 3.817.541 5.633.985 0 0 6.39 5.744 6.39 13.454z" fill="#ffe077"/><path d="m363.383 0c-9.124 0-16.521 7.396-16.521 16.521v8.26c0 43.744-34.01 79.523-77.027 82.394 26.497-17.812 43.986-48.138 43.986-82.394v-8.26h-16.521v8.26c0 45.548-37.058 82.602-82.602 82.602h49.561 41.301c45.62 0 82.602-36.982 82.602-82.602.001-13.686-11.093-24.781-24.779-24.781z" fill="#cbb0f2"/><path d="m137.73 224.011c.638 1.759 1.02 3.689 1.02 5.668 0 9.124-7.397 16.52-16.52 16.52-1.979 0-3.905-.369-5.663-1.007 2.304 6.349 8.386 10.875 15.531 10.875 9.124 0 16.52-7.397 16.52-16.52-.001-7.146-4.539-13.232-10.888-15.536z" fill="#ffd05b"/><path d="m405.135 415.634-46-16.235c-24.429 29.848-61.555 48.902-103.135 48.902-38.559 0-73.291-16.384-97.615-42.569l-25.332-8.254-33.972 11.99c-19.815 6.994-33.066 25.722-33.066 46.735v31.017c0 13.685 11.095 24.78 24.781 24.78h330.408c2.893 0 5.679-.502 8.26-1.414l8.736-14.118v-34.098c.001-21.014-13.25-39.743-33.065-46.736z" fill="#cbb0f2"/><path d="m412.919 409.467-33.971-11.99-17.607 11.305 46.086 16.268c13.207 4.662 22.038 17.145 22.038 31.15v54.387c9.603-3.414 16.52-12.593 16.52-23.367v-31.017c0-21.014-13.251-39.743-33.066-46.736z" fill="#b896e8"/><path d="m334.034 399.145c-20.56 18.856-47.935 30.386-78.034 30.386-36.589 0-69.151-17.039-90.341-43.562l-32.607 11.508c26.76 39.283 71.831 65.094 122.948 65.094 44.868 0 85.071-19.894 112.328-51.323l-12.01-13.821z" fill="#dfbdf0"/><path d="m334.034 399.145 34.294 12.104c3.796-4.377 7.349-8.97 10.62-13.772l-32.606-11.508c-3.777 4.728-7.85 9.094-12.308 13.176z" fill="#cbb0f2"/><path d="m391.926 237.465-14.986 13.575c-7.167 0-12.568-5.848-12.568-5.848-.64-1.762-.99-3.663-.99-5.646 0-9.124 7.396-16.52 16.52-16.52 1.978 0 3.817.541 5.633.985.001 0 6.391 5.744 6.391 13.454z" fill="#ffe077"/><path d="m385.536 224.011c.638 1.759 1.02 3.689 1.02 5.668 0 9.124-7.397 16.52-16.52 16.52-1.979 0-3.905-.369-5.663-1.007 2.304 6.349 8.386 10.875 15.531 10.875 9.124 0 16.52-7.397 16.52-16.52-.001-7.146-4.538-13.232-10.888-15.536z" fill="#ffd05b"/></g><g/><g/><g/><g/><g/><g/><g/><g/><g/><g/><g/><g/><g/><g/><g/></svg>