<svg width="512" height="512" viewBox="0 0 512 512" fill="none" xmlns="http://www.w3.org/2000/svg">
<g clip-path="url(#clip0_645_7843)">
<path d="M421.157 24.41C387.278 22.829 381.918 16.541 338.554 16.541C288.994 16.541 288.994 24.799 239.434 24.799C189.908 24.799 186.039 16.541 136.514 16.541V62.648L433.201 70.548L421.157 24.41Z" fill="#FF5F7A"/>
<path d="M421.218 57.4479C387.339 55.8669 381.919 49.5449 338.554 49.5449C288.994 49.5449 288.994 57.8029 239.434 57.8029C189.908 57.8029 186.039 49.5449 136.514 49.5449V100.956H431.464L421.218 57.4479Z" fill="#FFAA5A"/>
<path d="M421.767 24.4451C421.553 24.4351 421.369 24.4211 421.158 24.4111V70.1151L437.674 57.8071V40.9451C437.673 32.0691 430.635 24.8411 421.767 24.4451Z" fill="#FB4455"/>
<path d="M421.157 98.1332L437.673 90.8392V57.8062C431.451 57.8062 426.073 57.6752 421.217 57.4482L421.157 98.1332Z" fill="#FF8B57"/>
<path d="M421.157 90.4801C387.278 88.8991 381.918 82.5771 338.554 82.5771C288.994 82.5771 288.994 90.8351 239.434 90.8351C189.908 90.8351 186.039 82.5771 136.514 82.5771V135.273H430.378L421.157 90.4801Z" fill="#FFE077"/>
<path d="M421.157 133.101L437.673 123.871V90.8394C431.451 90.8394 426.013 90.7084 421.157 90.4814V133.101Z" fill="#FFD05B"/>
<path d="M421.157 123.519C387.278 121.938 381.918 115.616 338.554 115.616C288.994 115.616 288.994 123.874 239.434 123.874C189.908 123.874 186.039 115.616 136.514 115.616V168.312H430.378L421.157 123.519Z" fill="#98DB7C"/>
<path d="M421.157 166.139L437.673 156.909V123.877C431.451 123.877 426.013 123.746 421.157 123.519V166.139Z" fill="#77CC7D"/>
<path d="M421.157 156.548C387.278 154.967 381.918 148.645 338.554 148.645C288.994 148.645 288.994 156.903 239.434 156.903C189.908 156.903 186.039 148.645 136.514 148.645V201.341H430.378L421.157 156.548Z" fill="#1BADDE"/>
<path d="M421.157 199.169L437.673 189.939V156.907C431.451 156.907 426.013 156.776 421.157 156.549V199.169Z" fill="#008CDF"/>
<path d="M338.554 181.677C288.994 181.677 288.994 189.935 239.435 189.935C189.909 189.935 189.909 181.677 140.384 181.677L130.651 206.466C180.177 206.466 189.91 214.724 239.436 214.724C288.995 214.724 288.995 206.466 338.555 206.466C381.489 206.466 393.915 212.891 426.904 214.549L421.159 189.578C387.333 187.992 381.893 181.677 338.554 181.677Z" fill="#CBB0F2"/>
<path d="M421.157 189.578C421.125 198.655 413.064 205.736 404.061 204.576C399.369 203.972 395.159 203.27 390.834 202.549C377.987 200.408 364.697 198.194 338.552 198.194C312.407 198.194 299.125 200.408 286.278 202.549C274.23 204.557 262.851 206.452 239.431 206.452C216.036 206.452 204.665 204.557 192.624 202.549C179.785 200.408 158.015 197.663 130.323 198.194L140.382 214.71C189.908 214.71 189.908 222.968 239.433 222.968C288.993 222.968 288.993 214.71 338.553 214.71C381.486 214.71 387.227 220.908 420.215 222.565C429.683 223.04 437.672 215.548 437.672 206.069V189.936C431.426 189.936 426.028 189.807 421.157 189.578Z" fill="#B896E8"/>
<path d="M123.867 0H115.609C111.048 0 107.351 3.697 107.351 8.258V404.645L98.5051 425.444L132.125 428.919V8.258C132.125 3.697 128.428 0 123.867 0Z" fill="#C77F5B"/>
<path d="M132.125 0H123.867V404.645C123.867 413.767 116.472 421.161 107.351 421.161L98.9402 462.451H140.384V8.258C140.383 3.697 136.686 0 132.125 0Z" fill="#AE6652"/>
<path d="M300.534 394.739H231.409V401.335C231.409 408.28 227.064 414.483 220.537 416.857L218.359 417.649L212.54 431.739C227.053 448.587 248.531 459.26 272.513 459.26C293.378 459.26 312.342 451.175 326.479 437.98L300.534 394.739Z" fill="#FBBD80"/>
<path d="M324.487 416.855C317.96 414.481 313.615 408.279 313.615 401.334V363.354H231.408V394.738C243.761 401.025 257.7 404.644 272.511 404.644C274.718 404.644 277.027 404.512 279.307 404.299C288.474 403.447 296.664 408.761 301.009 416.878C304.775 423.914 311.042 429.538 318.842 432.374L326.665 417.648L324.487 416.855Z" fill="#F4AA73"/>
<path d="M399.536 466.06L358.386 429.184L326.665 417.649C323.297 422.468 319.305 426.818 314.807 430.581L309.834 465.842L186.637 429.183L162.313 438.028C149.259 442.775 140.569 455.181 140.569 469.071V487.225C140.569 500.907 151.661 511.999 165.343 511.999H379.679C382.575 511.999 385.355 511.502 387.939 510.588L399.536 466.06Z" fill="#8078BC"/>
<path d="M382.711 438.029L358.387 429.184C355.532 434.144 352.253 438.828 348.615 443.202L377.069 453.549C383.596 455.922 387.94 462.125 387.94 469.07V510.59C397.539 507.177 404.455 497.997 404.455 487.226V469.072C404.454 455.182 395.765 442.776 382.711 438.029Z" fill="#5E54AC"/>
<path d="M348.581 443.189L318.843 432.375C317.565 431.91 316.055 431.219 314.807 430.581C303.354 440.162 288.614 445.936 272.512 445.936C250.085 445.936 230.3 434.735 218.358 417.649L186.637 429.184C203.745 458.907 235.754 478.968 272.512 478.968C303.177 478.968 330.529 464.999 348.69 443.113C348.625 443.158 348.581 443.189 348.581 443.189Z" fill="#B896E8"/>
<path d="M286.378 222.968H239.48C212.115 222.968 189.932 245.152 189.932 272.516V289.032C179.902 289.032 171.959 297.973 173.642 308.321C174.962 316.442 182.588 322.064 190.815 322.064H198.674C202.174 353.689 225.494 379.338 255.945 386.274C255.945 386.274 266.817 386.457 272.512 386.457C310.765 386.457 326.899 351.94 331.011 314.783C331.011 314.784 336.224 222.968 286.378 222.968Z" fill="#FFD18D"/>
<path d="M355.093 289.032V272.516C355.093 245.151 332.91 222.968 305.545 222.968H264.255C291.62 222.968 313.803 245.151 313.803 272.516V313.806C313.803 349.158 289.018 378.745 255.946 386.274C261.257 387.48 266.837 388.128 272.513 388.128C310.766 388.128 342.239 359.22 346.351 322.063H354.21C362.437 322.063 370.063 316.441 371.383 308.32C373.066 297.973 365.123 289.032 355.093 289.032Z" fill="#FBBD80"/>
<path d="M239.294 313.806C234.729 313.806 231.036 310.108 231.036 305.548V297.29C231.036 292.73 234.73 289.032 239.294 289.032C243.858 289.032 247.552 292.73 247.552 297.29V305.548C247.552 310.109 243.859 313.806 239.294 313.806Z" fill="#845252"/>
<path d="M305.359 313.806C300.794 313.806 297.101 310.108 297.101 305.548V297.29C297.101 292.73 300.795 289.032 305.359 289.032C309.924 289.032 313.617 292.73 313.617 297.29V305.548C313.617 310.109 309.923 313.806 305.359 313.806Z" fill="#845252"/>
<path d="M107.351 429.419V404.645C89.1081 404.645 74.3191 419.434 74.3191 437.677V478.967C74.3191 484.984 75.9301 490.624 78.7411 495.483L100.003 505.833H116.519C130.201 505.833 141.293 494.741 141.293 481.059V456.285L132.126 439.083C129.543 438.17 126.763 437.677 123.868 437.677H115.61C111.048 437.677 107.351 433.98 107.351 429.419Z" fill="#FFD18D"/>
<path d="M272.512 354.181C264.504 354.181 256.915 352.133 250.585 348.258C246.69 345.879 245.464 340.794 247.843 336.903C250.238 333.016 255.319 331.79 259.198 334.169C266.569 338.677 278.456 338.677 285.827 334.169C289.706 331.79 294.795 333.016 297.182 336.903C299.561 340.794 298.335 345.879 294.44 348.258C288.109 352.133 280.52 354.181 272.512 354.181Z" fill="#FF5F7A"/>
<path d="M239.48 189.935C216.676 189.935 198.19 208.421 198.19 231.225C198.19 235.785 201.887 239.483 206.448 239.483H272.512C330.318 239.483 322.06 189.935 322.06 189.935H239.48Z" fill="#C77F5B"/>
<path d="M330.319 181.677H322.061C317.5 181.677 313.803 185.374 313.803 189.935V198.193C313.803 220.997 295.317 239.483 272.513 239.483H305.545C328.52 239.483 347.112 220.719 346.832 197.68C346.723 188.771 339.229 181.677 330.319 181.677Z" fill="#AE6652"/>
<path d="M132.125 439.083V470.709C132.125 484.391 121.033 495.483 107.351 495.483H78.7412C84.4622 505.316 95.1552 512 107.351 512H123.867C137.549 512 148.641 500.908 148.641 487.226V462.452C148.641 451.68 141.725 442.496 132.125 439.083Z" fill="#FBBD80"/>
</g>
<defs>
<clipPath id="clip0_645_7843">
<rect width="512" height="512" fill="white" transform="translate(-0.00390625)"/>
</clipPath>
</defs>
</svg>
