<svg width="512" height="512" viewBox="0 0 512 512" fill="none" xmlns="http://www.w3.org/2000/svg">
<g clip-path="url(#clip0_645_7022)">
<path d="M148.038 426.354C146.727 426.354 145.4 426.011 144.194 425.289C101.294 399.615 68.4569 359.626 51.7319 312.689C50.3419 308.787 52.3779 304.497 56.2789 303.106C60.1809 301.716 64.4709 303.752 65.8619 307.653C81.4209 351.32 111.976 388.526 151.897 412.417C155.451 414.544 156.608 419.15 154.481 422.704C153.076 425.053 150.589 426.354 148.038 426.354Z" fill="#194769"/>
<path d="M171.368 57.4349C168.479 57.4349 165.726 55.7559 164.493 52.9399C162.832 49.1459 164.562 44.7229 168.356 43.0619C195.607 31.1339 224.628 25.0859 254.613 25.0859C270.642 25.0859 286.629 26.8569 302.128 30.3479C306.169 31.2579 308.707 35.2719 307.796 39.3129C306.886 43.3539 302.876 45.8919 298.831 44.9809C284.413 41.7329 269.536 40.0859 254.613 40.0859C226.711 40.0859 199.713 45.7109 174.37 56.8029C173.392 57.2319 172.371 57.4349 171.368 57.4349Z" fill="#194769"/>
<path d="M413.085 382.348C411.369 382.348 409.645 381.763 408.234 380.565C405.077 377.884 404.691 373.151 407.372 369.993C438.04 333.879 454.931 287.857 454.931 240.404C454.931 236.262 458.289 232.904 462.431 232.904C466.573 232.904 469.931 236.262 469.931 240.404C469.931 291.409 451.774 340.88 418.806 379.702C417.322 381.45 415.21 382.348 413.085 382.348Z" fill="#194769"/>
<path d="M266.354 284.679H289.205C337.778 284.679 377.153 324.055 377.153 372.627V500.509H178.406V372.627C178.406 324.055 217.782 284.679 266.354 284.679Z" fill="#B13D46"/>
<path d="M273.342 284.677C254.464 284.677 233.504 338.6 233.504 387.175L239.166 500.51H178.408V372.629C178.408 324.054 217.785 284.677 266.354 284.677H273.342Z" fill="#5F1824"/>
<path d="M192.827 451.706C178.164 451.706 166.278 439.82 166.278 425.157C166.278 423.139 166.503 421.174 166.93 419.285C170.374 404.032 192.827 406.533 192.827 422.171H362.74C362.74 406.534 385.193 404.032 388.637 419.285C389.064 421.174 389.289 423.139 389.289 425.157C389.289 439.82 377.403 451.706 362.74 451.706" fill="#F4D5B9"/>
<path d="M362.737 391.923V438.589C362.737 472.783 335.017 500.51 300.816 500.51H254.744C220.55 500.51 192.823 472.79 192.823 438.589V392.456C203.367 392.15 217.875 390.351 233.504 387.175C265.532 380.664 302.297 368.358 319.4 351.255C319.4 351.255 336.32 385.829 362.737 391.923Z" fill="#F9E0C7"/>
<path d="M295.425 500.51H254.744C220.55 500.51 192.823 472.79 192.823 438.589V392.456C203.367 392.15 217.875 390.351 233.504 387.175V438.589C233.504 472.783 261.224 500.51 295.425 500.51Z" fill="#F4D5B9"/>
<path d="M327.828 451.445C335.509 451.445 341.735 447.659 341.735 442.989C341.735 438.319 335.509 434.533 327.828 434.533C320.147 434.533 313.921 438.319 313.921 442.989C313.921 447.659 320.147 451.445 327.828 451.445Z" fill="#EAA598"/>
<path d="M227.74 451.445C235.42 451.445 241.647 447.659 241.647 442.989C241.647 438.319 235.42 434.533 227.74 434.533C220.059 434.533 213.833 438.319 213.833 442.989C213.833 447.659 220.059 451.445 227.74 451.445Z" fill="#EAA598"/>
<path d="M239.284 403.672C239.003 403.672 229.258 403.745 229.26 403.745C226.592 403.745 224.421 405.916 224.421 408.584C224.421 411.252 226.592 413.423 229.26 413.423H231.415C231.204 414.635 231.098 415.888 231.098 417.151C231.098 424.583 234.771 430.63 239.285 430.63C243.799 430.63 247.472 424.583 247.472 417.151C247.471 409.719 243.798 403.672 239.284 403.672Z" fill="#146662"/>
<path d="M326.301 403.745C326.164 403.744 315.943 403.672 315.664 403.672C311.15 403.672 307.477 409.719 307.477 417.151C307.477 424.583 311.15 430.63 315.664 430.63C320.178 430.63 323.851 424.583 323.851 417.151C323.851 415.887 323.744 414.635 323.534 413.423H326.301C328.969 413.423 331.14 411.252 331.14 408.584C331.139 405.916 328.968 403.746 326.301 403.745Z" fill="#146662"/>
<path d="M277.779 466.585C272.326 466.585 266.872 464.509 262.721 460.358C260.386 458.023 260.386 454.237 262.721 451.902C265.056 449.567 268.842 449.567 271.177 451.902C274.818 455.543 280.741 455.543 284.382 451.902C286.717 449.567 290.503 449.567 292.838 451.902C295.173 454.237 295.173 458.023 292.838 460.358C288.685 464.509 283.232 466.585 277.779 466.585Z" fill="#B13D46"/>
<path d="M25.9681 251.86C11.6241 251.86 -0.00390625 240.232 -0.00390625 225.888C-0.00390625 223.914 0.216094 221.991 0.634094 220.143C4.00309 205.221 25.9681 207.669 25.9681 222.966H192.187C192.187 207.669 214.152 205.221 217.521 220.143C217.938 221.991 218.159 223.914 218.159 225.888C218.159 240.232 206.531 251.86 192.187 251.86" fill="#F4CEB9"/>
<path d="M25.9718 238.117C24.2458 238.117 22.5478 237.307 21.4768 235.793C21.3598 235.634 17.8868 230.96 14.5328 232.313C11.7168 233.449 8.51076 232.087 7.37376 229.27C6.23676 226.453 7.59976 223.248 10.4168 222.111C15.2788 220.149 20.5518 220.924 25.2638 224.292C28.3688 226.512 30.2708 229.172 30.4778 229.468C32.2168 231.959 31.6068 235.388 29.1158 237.126C28.1568 237.795 27.0588 238.117 25.9718 238.117Z" fill="#EAAC9D"/>
<path d="M192.182 238.139C191.092 238.139 189.991 237.815 189.028 237.143C186.537 235.404 185.938 231.959 187.677 229.468C187.884 229.172 189.785 226.512 192.891 224.292C197.602 220.924 202.875 220.15 207.738 222.111C210.555 223.248 211.917 226.453 210.781 229.27C209.644 232.087 206.44 233.449 203.622 232.313C200.228 230.943 196.71 235.748 196.675 235.797C195.608 237.325 193.91 238.139 192.182 238.139Z" fill="#EAAC9D"/>
<path d="M131.612 299.601H86.5418C53.0878 299.601 25.9668 272.481 25.9668 239.026V153.594H192.186V239.026C192.187 272.48 165.067 299.601 131.612 299.601Z" fill="#F9DDC7"/>
<path d="M126.333 299.602H86.5428C53.0918 299.602 25.9678 272.478 25.9678 239.027V153.592H65.7578V239.027C65.7578 272.478 92.8758 299.602 126.333 299.602Z" fill="#F4CEB9"/>
<path d="M70.1075 224.365C74.4468 224.365 77.9645 218.529 77.9645 211.331C77.9645 204.132 74.4468 198.297 70.1075 198.297C65.7682 198.297 62.2505 204.132 62.2505 211.331C62.2505 218.529 65.7682 224.365 70.1075 224.365Z" fill="#194769"/>
<path d="M148.048 224.365C152.387 224.365 155.905 218.529 155.905 211.331C155.905 204.132 152.387 198.297 148.048 198.297C143.709 198.297 140.191 204.132 140.191 211.331C140.191 218.529 143.709 224.365 148.048 224.365Z" fill="#194769"/>
<path d="M163.903 245.733C171.416 245.733 177.507 242.03 177.507 237.461C177.507 232.893 171.416 229.189 163.903 229.189C156.39 229.189 150.299 232.893 150.299 237.461C150.299 242.03 156.39 245.733 163.903 245.733Z" fill="#EAA598"/>
<path d="M54.251 245.733C61.7643 245.733 67.855 242.03 67.855 237.461C67.855 232.893 61.7643 229.189 54.251 229.189C46.7377 229.189 40.647 232.893 40.647 237.461C40.647 242.03 46.7377 245.733 54.251 245.733Z" fill="#EAA598"/>
<path d="M67.4186 94.293H41.6986C25.7186 94.293 12.7646 107.247 12.7646 123.227V162.41C12.7646 170.377 19.2226 176.835 27.1896 176.835H45.2727C69.0917 176.835 88.4007 157.526 88.4007 133.707V115.274C88.3997 103.686 79.0066 94.293 67.4186 94.293Z" fill="#A86B4E"/>
<path d="M67.2636 94.2891C51.2866 94.2891 38.3326 107.243 38.3326 123.226V176.832H27.1896C19.2226 176.832 12.7646 170.374 12.7646 162.407V123.225C12.7646 107.242 25.7186 94.2881 41.6957 94.2881L67.2636 94.2891Z" fill="#734433"/>
<path d="M153.771 169.788H113.718C92.0326 169.788 74.4526 152.208 74.4526 130.523V105.77C74.4526 84.0849 92.0326 66.5049 113.718 66.5049H230.931V92.6289C230.931 135.243 196.385 169.788 153.771 169.788Z" fill="#A86B4E"/>
<path d="M148.341 169.787H113.717C92.0286 169.787 74.4526 152.211 74.4526 130.523V105.771C74.4526 84.0828 92.0286 66.5068 113.717 66.5068H148.341C126.653 66.5068 109.077 84.0828 109.077 105.771V130.524C109.077 152.212 126.653 169.787 148.341 169.787Z" fill="#734433"/>
<path d="M109.077 265.95C103.632 265.95 98.1881 263.877 94.0431 259.732C91.8951 257.584 91.8951 254.101 94.0431 251.953C96.1911 249.805 99.6741 249.805 101.822 251.953C105.823 255.954 112.333 255.954 116.334 251.953C118.482 249.805 121.965 249.805 124.113 251.953C126.261 254.101 126.261 257.584 124.113 259.732C119.967 263.878 114.522 265.95 109.077 265.95Z" fill="#B74E56"/>
<path d="M319.798 180.353C305.454 180.353 293.825 168.725 293.825 154.38C293.825 152.406 294.045 150.483 294.463 148.635C297.832 133.713 319.798 136.16 319.798 151.458H486.023C486.023 136.16 507.989 133.713 511.358 148.635C511.775 150.483 511.996 152.406 511.996 154.38C511.996 168.724 500.368 180.353 486.023 180.353" fill="#BE7A4A"/>
<path d="M319.804 166.61C318.078 166.61 316.379 165.8 315.308 164.286C314.66 163.388 312.301 160.792 309.982 160.556C306.96 160.248 304.759 157.549 305.067 154.527C305.375 151.505 308.062 149.303 311.097 149.612C318.823 150.398 323.771 157.19 324.31 157.962C326.048 160.453 325.439 163.882 322.948 165.621C321.988 166.289 320.89 166.61 319.804 166.61Z" fill="#9A5428"/>
<path d="M486.019 166.61C484.932 166.61 483.835 166.289 482.876 165.619C480.385 163.88 479.775 160.451 481.514 157.96C482.16 157.035 488.057 148.942 497.139 149.57C500.17 149.78 502.457 152.407 502.247 155.437C502.036 158.468 499.396 160.754 496.38 160.545C493.797 160.358 490.985 163.61 490.536 164.256C489.465 165.79 487.755 166.61 486.019 166.61Z" fill="#9A5428"/>
<path d="M425.447 228.095H380.376C346.92 228.095 319.799 200.974 319.799 167.518V88.4873L322.692 80.3053L402.914 30.9883L482.806 80.1043L486.025 88.4863V167.517C486.024 200.974 458.903 228.095 425.447 228.095Z" fill="#D19260"/>
<path d="M420.163 228.091H380.377C346.922 228.091 319.799 200.968 319.799 167.522V88.487C319.799 88.487 331.924 64.54 351.093 64.54C354.18 64.54 356.978 65.152 359.593 66.187V167.521C359.594 200.968 386.708 228.091 420.163 228.091Z" fill="#BE7A4A"/>
<path d="M486.029 52.8473V88.4873C486.029 88.4873 473.912 68.5403 454.735 68.5403C435.566 68.5403 427.761 92.2283 402.914 92.2283C378.076 92.2283 370.262 68.5403 351.093 68.5403C331.924 68.5403 319.799 88.4873 319.799 88.4873V52.8473C319.799 30.0033 338.322 11.4883 361.166 11.4883H444.662C467.505 11.4883 486.029 30.0033 486.029 52.8473Z" fill="#13979B"/>
<path d="M361.165 11.4883H401.167C378.323 11.4883 359.8 30.0033 359.8 52.8473V70.2703C357.127 69.1863 354.263 68.5403 351.093 68.5403C331.924 68.5403 319.799 88.4873 319.799 88.4873V52.8473C319.798 30.0033 338.322 11.4883 361.165 11.4883Z" fill="#146662"/>
<path d="M363.939 126.786C359.607 126.786 356.082 132.633 356.082 139.821C356.082 147.008 359.607 152.855 363.939 152.855C368.271 152.855 371.797 147.008 371.797 139.821C371.796 132.634 368.271 126.786 363.939 126.786Z" fill="#3F0518"/>
<path d="M441.883 126.786C437.551 126.786 434.026 132.633 434.026 139.821C434.026 147.008 437.551 152.855 441.883 152.855C446.215 152.855 449.741 147.008 449.741 139.821C449.74 132.634 446.215 126.786 441.883 126.786Z" fill="#3F0518"/>
<path d="M402.912 194.455C397.232 194.455 391.893 192.243 387.877 188.227C385.728 186.079 385.728 182.596 387.876 180.448C390.025 178.3 393.508 178.3 395.655 180.448C397.594 182.386 400.171 183.454 402.912 183.454C405.653 183.454 408.229 182.386 410.167 180.448C412.316 178.3 415.799 178.3 417.946 180.448C420.095 182.596 420.095 186.079 417.947 188.227C413.931 192.243 408.592 194.455 402.912 194.455Z" fill="#B13D46"/>
</g>
<defs>
<clipPath id="clip0_645_7022">
<rect width="512" height="512" fill="white" transform="translate(-0.00390625)"/>
</clipPath>
</defs>
</svg>
