<svg width="512" height="512" viewBox="0 0 512 512" fill="none" xmlns="http://www.w3.org/2000/svg">
<g clip-path="url(#clip0_645_7405)">
<path opacity="0.1" d="M161.75 18.8076C151.637 18.8076 141.785 19.9136 132.298 21.9946C193.758 35.4696 239.764 90.2216 239.764 155.727V218.026H298.668V155.727C298.667 80.1086 237.368 18.8076 161.75 18.8076Z" fill="black"/>
<g opacity="0.4">
<path d="M161.75 18.8086C86.132 18.8086 24.832 80.1086 24.832 155.726V218.025H298.667V155.726C298.667 80.1086 237.368 18.8086 161.75 18.8086Z" fill="#515262"/>
<path d="M44.7764 182.07C26.2054 182.07 11.1504 197.126 11.1504 215.696C11.1504 234.267 26.2054 249.322 44.7764 249.322H61.1284V182.07H44.7764Z" fill="#E6B696"/>
<path d="M323.505 493.192C305.53 448.84 269.844 413.559 225.217 396.124L224.511 395.857H98.9881C54.0341 413.195 18.0661 448.609 -0.00390625 493.192H323.505Z" fill="#FF6465"/>
<path d="M197.338 387.86V324.685H126.163V387.86C116.81 389.801 107.729 392.485 98.9883 395.857C106.576 423.404 131.791 443.643 161.75 443.643C191.709 443.643 216.924 423.404 224.512 395.857C215.771 392.485 206.691 389.801 197.338 387.86Z" fill="#E6B696"/>
<path opacity="0.1" d="M126.161 324.683V382.94C137.584 385.683 149.497 387.145 161.748 387.145C173.999 387.145 185.914 385.683 197.335 382.94V324.683H126.161Z" fill="black"/>
<path d="M246.067 127.13C234.425 127.13 224.988 117.692 224.988 106.051C224.988 117.693 215.55 127.13 203.909 127.13C192.267 127.13 182.83 117.692 182.83 106.051C182.83 117.693 173.392 127.13 161.751 127.13C150.11 127.13 140.672 117.692 140.672 106.051C140.672 117.693 131.234 127.13 119.593 127.13C107.951 127.13 98.5141 117.692 98.5141 106.051C98.5141 117.693 89.0761 127.13 77.4351 127.13C70.6381 127.13 64.6081 123.899 60.7541 118.904C50.5411 135.399 44.6421 154.845 44.6421 175.671V234.694C44.6421 299.372 97.0741 351.804 161.753 351.804C226.432 351.804 278.864 299.372 278.864 234.694V175.67C278.864 154.844 272.963 135.399 262.752 118.903C258.893 123.899 252.864 127.13 246.067 127.13Z" fill="#F0C5A6"/>
</g>
<path d="M350.241 18.8086C274.623 18.8086 213.323 80.1086 213.323 155.727V218.026H487.158V155.727C487.159 80.1086 425.859 18.8086 350.241 18.8086Z" fill="#5A4146"/>
<path opacity="0.1" d="M350.241 18.8076C342.205 18.8076 334.335 19.5066 326.68 20.8336C391.068 32.0026 440.036 88.1426 440.036 155.726V218.025H487.159V155.726C487.159 80.1086 425.859 18.8076 350.241 18.8076Z" fill="black"/>
<path d="M233.267 182.07C214.696 182.07 199.641 197.126 199.641 215.696C199.641 234.267 214.696 249.322 233.267 249.322H249.619V182.07H233.267Z" fill="#E6B273"/>
<path d="M467.215 182.07C485.786 182.07 500.841 197.126 500.841 215.696C500.841 234.267 485.786 249.322 467.215 249.322H450.863V182.07H467.215Z" fill="#E6B273"/>
<path d="M511.996 493.192C494.021 448.84 458.335 413.559 413.708 396.124L413.002 395.857H287.479C242.525 413.196 206.557 448.61 188.487 493.193H511.996V493.192Z" fill="#13979B"/>
<path d="M385.829 387.86V324.685H314.654V387.86C305.301 389.801 296.22 392.485 287.479 395.857C295.067 423.404 320.282 443.643 350.241 443.643C380.2 443.643 405.415 423.404 413.003 395.857C404.263 392.485 395.182 389.801 385.829 387.86Z" fill="#F0C087"/>
<path opacity="0.1" d="M314.653 324.683V382.94C326.076 385.683 337.989 387.145 350.24 387.145C362.491 387.145 374.406 385.683 385.827 382.94V324.683H314.653Z" fill="black"/>
<path d="M434.558 127.13C422.916 127.13 413.479 117.692 413.479 106.051C413.479 117.693 404.041 127.13 392.4 127.13C380.758 127.13 371.321 117.692 371.321 106.051C371.321 117.693 361.883 127.13 350.242 127.13C338.6 127.13 329.163 117.692 329.163 106.051C329.163 117.693 319.725 127.13 308.084 127.13C296.442 127.13 287.005 117.692 287.005 106.051C287.005 117.693 277.567 127.13 265.926 127.13C259.129 127.13 253.099 123.899 249.245 118.904C239.032 135.399 233.133 154.845 233.133 175.671V234.694C233.133 299.372 285.565 351.804 350.244 351.804C414.923 351.804 467.355 299.372 467.355 234.694V175.67C467.355 154.844 461.454 135.399 451.243 118.903C447.385 123.899 441.355 127.13 434.558 127.13Z" fill="#F0C087"/>
<path d="M350.241 292.037C336.349 292.037 323.877 289.26 316.877 284.607C312.813 281.907 311.708 276.423 314.409 272.359C317.11 268.296 322.594 267.19 326.659 269.891C329.902 272.046 338.666 274.366 350.243 274.366C361.819 274.366 370.582 272.045 373.826 269.891C377.89 267.189 383.374 268.296 386.076 272.359C388.777 276.423 387.671 281.907 383.607 284.607C376.604 289.26 364.132 292.037 350.241 292.037Z" fill="#5A4146"/>
<path d="M321.096 200.327C319.129 200.327 317.149 199.673 315.508 198.333C313.562 196.741 307.282 194.375 297.957 194.375C288.631 194.375 282.352 196.742 280.406 198.332C276.628 201.42 271.062 200.86 267.973 197.083C264.884 193.305 265.443 187.739 269.221 184.65C275.308 179.674 286.05 176.703 297.957 176.703C309.864 176.703 320.605 179.674 326.694 184.651C330.472 187.74 331.03 193.307 327.942 197.084C326.194 199.22 323.654 200.327 321.096 200.327Z" fill="#5A4146"/>
<path d="M297.954 229.52C305.038 229.52 310.78 223.778 310.78 216.694C310.78 209.611 305.038 203.868 297.954 203.868C290.87 203.868 285.128 209.611 285.128 216.694C285.128 223.778 290.87 229.52 297.954 229.52Z" fill="#353640"/>
<path d="M379.388 200.327C376.828 200.327 374.289 199.221 372.542 197.084C369.453 193.307 370.011 187.74 373.79 184.651C379.877 179.674 390.62 176.703 402.527 176.703C414.434 176.703 425.175 179.674 431.262 184.65C435.04 187.739 435.598 193.305 432.51 197.083C429.421 200.861 423.855 201.419 420.077 198.332C418.131 196.74 411.852 194.375 402.526 194.375C393.202 194.375 386.921 196.743 384.975 198.333C383.333 199.674 381.354 200.327 379.388 200.327Z" fill="#5A4146"/>
<path d="M402.531 229.52C409.615 229.52 415.357 223.778 415.357 216.694C415.357 209.611 409.615 203.868 402.531 203.868C395.447 203.868 389.705 209.611 389.705 216.694C389.705 223.778 395.447 229.52 402.531 229.52Z" fill="#353640"/>
</g>
<defs>
<clipPath id="clip0_645_7405">
<rect width="512" height="512" fill="white" transform="translate(-0.00390625)"/>
</clipPath>
</defs>
</svg>
