<svg width="512" height="512" viewBox="0 0 512 512" fill="none" xmlns="http://www.w3.org/2000/svg">
<g clip-path="url(#clip0_670_9202)">
<path d="M302.619 243.155C298.356 243.155 294.9 239.699 294.9 235.436V100.342C294.9 53.526 256.812 15.437 209.995 15.437C163.178 15.437 125.09 53.525 125.09 100.342V235.437C125.09 239.7 121.634 243.156 117.371 243.156C113.108 243.156 109.652 239.7 109.652 235.437V100.342C109.654 45.014 154.667 0 209.996 0C265.325 0 310.338 45.013 310.338 100.342V235.437C310.337 239.699 306.881 243.155 302.619 243.155Z" fill="#FF9100"/>
<path d="M391.352 512.002H120.645H64.5772C44.4612 512.002 28.7302 494.657 30.6872 474.637L62.9302 144.875H156.531H355.465" fill="#0C8E81"/>
<path d="M156.534 144.875H449.076L481.312 474.639C483.269 494.659 467.538 512.003 447.422 512.003H158.188C138.072 512.003 122.341 494.659 124.298 474.639L156.534 144.875Z" fill="#0BB49A"/>
<path d="M395.428 243.155C391.165 243.155 387.709 239.699 387.709 235.436V100.342C387.709 53.526 349.621 15.437 302.804 15.437C255.987 15.437 217.899 53.525 217.899 100.342V235.437C217.899 239.7 214.443 243.156 210.18 243.156C205.917 243.156 202.461 239.7 202.461 235.437V100.342C202.463 45.014 247.476 0 302.805 0C358.134 0 403.147 45.013 403.147 100.342V235.437C403.147 239.699 399.691 243.155 395.428 243.155Z" fill="#FFB509"/>
</g>
<defs>
<clipPath id="clip0_670_9202">
<rect width="512" height="512" fill="white"/>
</clipPath>
</defs>
</svg>
