<svg id="Layer_1" enable-background="new 0 0 497 497" height="300" viewBox="0 0 497 497" width="300" xmlns="http://www.w3.org/2000/svg" version="1.1" xmlns:xlink="http://www.w3.org/1999/xlink" xmlns:svgjs="http://svgjs.dev/svgjs"><g width="100%" height="100%" transform="matrix(1,0,0,1,0,0)"><g><g><path d="m458.158 213.001c-3.503 0-6.636-2.468-7.347-6.035l-30.28-151.906c-2.427-12.205-13.216-21.06-25.656-21.06h-292.783c-12.425 0-23.212 8.843-25.648 21.026l-30.26 149.297c-1.926 9.504-16.627 6.524-14.701-2.98l30.255-149.278c3.831-19.151 20.804-33.065 40.354-33.065h292.784c19.574 0 36.55 13.934 40.367 33.132l30.28 151.902c.845 4.244-3.1 8.967-7.365 8.967z" fill="#6e3fc0" fill-opacity="1" data-original-color="#7561f6ff" stroke="none" stroke-opacity="1"/></g><g><path d="m408.155 497h-319.31c-15.7 0-29.021-11.523-31.28-27.06l-36.065-247.94h454l-36.064 247.94c-2.26 15.537-15.581 27.06-31.281 27.06z" fill="#f02644" fill-opacity="1" data-original-color="#fdf385ff" stroke="none" stroke-opacity="1"/><path d="m428.5 222-36.064 247.94c-2.26 15.537-15.58 27.06-31.28 27.06h47c15.7 0 29.021-11.523 31.281-27.06l36.063-247.94z" fill="#ae1033" fill-opacity="1" data-original-color="#faeb4bff" stroke="none" stroke-opacity="1"/><path d="m482 222h-467c-19.168 0-19.464-30 0-30h467c19.168 0 19.464 30 0 30z" fill="#ff5573" fill-opacity="1" data-original-color="#ffc600ff" stroke="none" stroke-opacity="1"/><path d="m482 192h-40c19.168 0 19.464 30 0 30h40c19.464 0 19.168-30 0-30z" fill="#e91d46" fill-opacity="1" data-original-color="#ffb300ff" stroke="none" stroke-opacity="1"/><g fill="#fff"><path d="m115.433 464.5c-7.143 0-13.186-5.281-14.143-12.359l-22.412-165.69c-2.072-15.32 9.84-28.951 25.299-28.951 14.099 0 25.529 11.43 25.529 25.529v167.199c0 7.882-6.39 14.272-14.273 14.272z" fill="#fffbf6" fill-opacity="1" data-original-color="#ffffffff" stroke="none" stroke-opacity="1"/><path d="m199.778 464.5c-15.117 0-27.372-12.255-27.372-27.372v-154.099c0-14.099 11.43-25.529 25.529-25.529h3.686c14.099 0 25.529 11.43 25.529 25.529v154.099c0 15.117-12.255 27.372-27.372 27.372z" fill="#fffbf6" fill-opacity="1" data-original-color="#ffffffff" stroke="none" stroke-opacity="1"/><path d="m297.222 464.5c-15.117 0-27.372-12.255-27.372-27.372v-154.099c0-14.099 11.43-25.529 25.529-25.529h3.686c14.099 0 25.529 11.43 25.529 25.529v154.099c0 15.117-12.255 27.372-27.372 27.372z" fill="#fffbf6" fill-opacity="1" data-original-color="#ffffffff" stroke="none" stroke-opacity="1"/><path d="m381.567 464.5c-7.882 0-14.272-6.39-14.272-14.272v-167.199c0-14.099 11.43-25.529 25.529-25.529 15.459 0 27.371 13.631 25.299 28.951l-22.412 165.69c-.958 7.078-7.001 12.359-14.144 12.359z" fill="#fffbf6" fill-opacity="1" data-original-color="#ffffffff" stroke="none" stroke-opacity="1"/></g></g><path d="m314.5 52h-132c-14.359 0-26-11.641-26-26 0-14.359 11.641-26 26-26h132c14.359 0 26 11.641 26 26 0 14.359-11.641 26-26 26z" fill="#8d6eee" fill-opacity="1" data-original-color="#ff81e5ff" stroke="none" stroke-opacity="1"/></g></g></svg>