<svg width="512" height="512" viewBox="0 0 512 512" fill="none" xmlns="http://www.w3.org/2000/svg">
<g clip-path="url(#clip0_670_9223)">
<path d="M413.132 239.484L256.226 264.5L99.3237 239.484V222.969C99.3237 213.848 106.718 206.453 115.839 206.453H396.613C405.738 206.453 413.132 213.848 413.132 222.969V239.484Z" fill="#6F6571"/>
<path d="M396.613 272.516H115.839C106.718 272.516 99.3237 265.121 99.3237 256V239.484H413.132V256C413.132 265.121 405.738 272.516 396.613 272.516Z" fill="#5D5360"/>
<path d="M380.097 247.742H132.355C127.796 247.742 124.097 244.047 124.097 239.484C124.097 234.922 127.796 231.227 132.355 231.227H148.875L256.894 237.336L363.582 231.227H380.097C384.66 231.227 388.355 234.922 388.355 239.484C388.355 244.047 384.66 247.742 380.097 247.742Z" fill="#4B3F4E"/>
<path d="M355.324 512.004H157.133C152.57 512.004 148.875 508.309 148.875 503.746V487.23H363.582V503.746C363.582 508.309 359.887 512.004 355.324 512.004Z" fill="#70CE94"/>
<path d="M355.324 495.484H157.133C152.57 495.484 148.875 491.785 148.875 487.227V470.711H363.582V487.227C363.582 491.785 359.887 495.484 355.324 495.484Z" fill="#32B088"/>
<path d="M355.324 478.969H157.133C152.57 478.969 148.875 475.27 148.875 470.711V454.195H363.582V470.711C363.582 475.27 359.887 478.969 355.324 478.969Z" fill="#70CE94"/>
<path d="M355.324 462.457H157.133C152.57 462.457 148.875 458.758 148.875 454.199V437.684H363.582V454.199C363.582 458.758 359.887 462.457 355.324 462.457Z" fill="#32B088"/>
<path d="M355.324 445.934H157.133C152.57 445.934 148.875 442.238 148.875 437.676V247.742L258.563 240L363.582 247.742V437.68C363.582 442.238 359.887 445.934 355.324 445.934Z" fill="#C9F7B6"/>
<path d="M413.132 33.0312L260.226 53.5L99.3237 33.0312V16.5156C99.3237 7.39453 106.718 0 115.839 0H396.613C405.738 0 413.132 7.39453 413.132 16.5156V33.0312Z" fill="#6F6571"/>
<path d="M396.613 66.0703H115.839C106.718 66.0703 99.3237 58.6758 99.3237 49.5547V33.0352H413.132V49.5508C413.132 58.6758 405.738 66.0703 396.613 66.0703Z" fill="#5D5360"/>
<path d="M181.906 421.16C177.339 421.16 173.648 417.469 173.648 412.902V396.387C173.648 391.82 177.339 388.129 181.906 388.129C186.468 388.129 190.164 391.824 190.164 396.387V412.902C190.164 417.469 186.468 421.16 181.906 421.16Z" fill="#70CE94"/>
<path d="M330.55 421.16C325.984 421.16 322.292 417.469 322.292 412.902V396.387C322.292 391.82 325.988 388.129 330.55 388.129C335.113 388.129 338.808 391.824 338.808 396.387V412.902C338.808 417.469 335.113 421.16 330.55 421.16Z" fill="#70CE94"/>
<path d="M272.742 371.613C272.742 380.734 265.351 388.129 256.226 388.129C247.105 388.129 239.71 380.734 239.71 371.613C239.71 362.492 247.105 355.098 256.226 355.098C265.351 355.098 272.742 362.492 272.742 371.613Z" fill="#70CE94"/>
<path d="M92.4526 325.742L74.5503 352.598V115.613C74.5503 111.047 70.8549 107.355 66.2924 107.355C61.726 107.355 58.0346 111.051 58.0346 115.613V352.598L40.1323 325.742C37.6089 321.945 32.4878 320.918 28.6792 323.453C24.8823 325.984 23.855 331.105 26.3901 334.902L59.4214 384.453C60.9526 386.75 63.5346 388.129 66.2924 388.129C69.0503 388.129 71.6323 386.75 73.1635 384.453L106.195 334.902C108.726 331.105 107.703 325.984 103.906 323.453C100.089 320.918 94.976 321.945 92.4526 325.742Z" fill="#70CE94"/>
<path d="M483.777 323.453C479.961 320.922 474.84 321.945 472.324 325.742L454.422 352.598V115.613C454.422 111.047 450.727 107.355 446.164 107.355C441.598 107.355 437.906 111.051 437.906 115.613V352.598L420.004 325.742C417.477 321.945 412.355 320.918 408.551 323.453C404.754 325.984 403.727 331.105 406.262 334.902L439.293 384.453C440.824 386.75 443.406 388.129 446.164 388.129C448.922 388.129 451.504 386.75 453.035 384.453L486.066 334.902C488.598 331.105 487.574 325.984 483.777 323.453Z" fill="#70CE94"/>
<path d="M380.097 41.2891H132.355C127.796 41.2891 124.097 37.5938 124.097 33.0312C124.097 28.4727 127.796 24.7734 132.355 24.7734H148.875L256.226 30L363.582 24.7734H380.097C384.66 24.7734 388.355 28.4727 388.355 33.0312C388.355 37.5938 384.66 41.2891 380.097 41.2891Z" fill="#4B3F4E"/>
<path d="M148.875 41.2891V140.387C148.875 154.07 159.965 165.16 173.648 165.16H338.809C352.488 165.16 363.582 154.07 363.582 140.387V41.2891L256.727 35.5L148.875 41.2891Z" fill="#FF6053"/>
<path d="M297.519 90.9219C292.953 90.9219 289.261 87.2305 289.261 82.6641C289.261 78.1016 292.953 74.3672 297.519 74.3672C302.082 74.3672 305.777 78.0195 305.777 82.5859V82.6641C305.777 87.2305 302.082 90.9219 297.519 90.9219Z" fill="#FFD06A"/>
<path d="M297.527 123.871C290.383 123.871 283.234 122.023 276.863 118.34C272.922 116.058 271.566 111.008 273.855 107.058C276.125 103.105 281.164 101.742 285.14 104.051C292.769 108.469 302.254 108.476 309.898 104.051C313.832 101.765 318.89 103.113 321.179 107.074C323.461 111.015 322.105 116.074 318.156 118.355C311.793 122.031 304.656 123.871 297.527 123.871Z" fill="#FFD06A"/>
<path d="M231.453 140.391C226.891 140.391 223.195 136.695 223.195 132.133V99.1016C223.195 94.5352 226.891 90.8438 231.453 90.8438C236.02 90.8438 239.711 94.5352 239.711 99.1016V132.133C239.711 136.699 236.02 140.391 231.453 140.391Z" fill="#FFF5D7"/>
<path d="M148.875 24.7734H363.582V41.2891H148.875V24.7734Z" fill="#FF3E3A"/>
<path d="M230.727 37.5L223.195 41.2891V66.0625C223.195 70.6289 226.891 74.3203 231.453 74.3203C236.02 74.3203 239.711 70.6289 239.711 66.0625V41.2891L230.727 37.5Z" fill="#FFF5D7"/>
<path d="M223.195 33.0312V41.2891H239.711V33.0312C239.711 28.4688 236.02 24.7734 231.453 24.7734C226.891 24.7734 223.195 28.4688 223.195 33.0312Z" fill="#FFEAA8"/>
<path d="M330.574 371.617H330.527C325.98 371.617 322.293 367.93 322.293 363.383V247.746H338.809V363.383C338.809 367.93 335.121 371.617 330.574 371.617Z" fill="#70CE94"/>
<path d="M181.93 371.617H181.883C177.336 371.617 173.648 367.93 173.648 363.383V247.746H190.164V363.383C190.164 367.93 186.477 371.617 181.93 371.617Z" fill="#70CE94"/>
<path d="M173.648 264.262C173.648 296.188 210.621 322.066 256.227 322.066C301.836 322.066 338.809 296.188 338.809 264.262C338.809 258.52 337.605 252.977 335.367 247.746C332.816 241.781 328.922 243.246 323.945 238.254H188.512C183.535 243.246 179.641 241.781 177.09 247.746C174.852 252.977 173.648 258.52 173.648 264.262Z" fill="#70CE94"/>
<path d="M322.293 264.258C322.293 258.359 320.305 252.758 316.727 247.688C312.102 241.133 304.82 241.996 295.746 237.75H216.711C207.641 241.996 200.355 241.133 195.73 247.684C192.152 252.754 190.164 258.359 190.164 264.258C190.164 287.062 219.742 305.547 256.23 305.547C292.719 305.547 322.293 287.062 322.293 264.258Z" fill="#94E6B3"/>
<path d="M363.582 247.742H148.875V231.227H173.648L255.895 235.477L338.809 231.227H363.582V247.742Z" fill="#89C585"/>
<path d="M173.648 231.227H338.809V247.742H173.648V231.227Z" fill="#857E87"/>
<path d="M335.363 247.742C332.813 241.781 328.918 236.215 323.945 231.227H295.746L259.895 237.168L216.711 231.227H188.512C183.539 236.215 179.637 241.781 177.086 247.742H335.363Z" fill="#5B915A"/>
<path d="M195.812 247.742H316.645C312.02 241.18 304.832 235.477 295.746 231.227H216.711C207.629 235.477 200.438 241.18 195.812 247.742Z" fill="#857E87"/>
</g>
<defs>
<clipPath id="clip0_670_9223">
<rect width="512" height="512" fill="white"/>
</clipPath>
</defs>
</svg>
