<svg width="513" height="512" viewBox="0 0 513 512" fill="none" xmlns="http://www.w3.org/2000/svg">
<g clip-path="url(#clip0_670_9287)">
<path d="M126.508 72.925C119.258 68.843 110.038 71.514 105.62 78.564L99.77 87.901C78.047 34.049 43.309 10.887 22.195 1.36199C13.153 -2.71601 2.67701 2.76099 0.78401 12.498C-0.58499 19.537 3.08301 26.57 9.62401 29.509C24.863 36.356 51.994 54.012 70.082 96.978L59.758 92.208C52.204 88.718 43.023 91.52 39.182 98.902C35.081 106.782 38.428 116.398 46.4 120.082L88.084 139.339C98.532 142.317 104.752 138.156 107.659 133.516L132.04 94.607C136.702 87.164 134.249 77.283 126.508 72.925Z" fill="#0BB49A"/>
<path d="M265.158 40.845C257.908 36.763 248.688 39.434 244.27 46.485L238.42 55.821C229.837 34.542 219.22 18.071 208.216 5.329C205.286 1.937 201.021 0 196.539 0C183.319 0 176.246 15.503 184.864 25.528C193.365 35.416 201.725 48.259 208.731 64.9L198.407 60.13C190.853 56.64 181.672 59.442 177.831 66.823C173.73 74.703 177.077 84.319 185.049 88.003L226.733 107.26C237.181 110.238 243.401 106.077 246.308 101.437L270.689 62.528C275.352 55.084 272.899 45.204 265.158 40.845Z" fill="#0BB49A"/>
<path d="M415.023 485.963H440.215V364.715H409.538L415.023 485.963Z" fill="#E2784A"/>
<path d="M305.861 345.536C299.682 349.177 292.14 349.693 285.598 346.751L225.598 319.772C211.509 313.437 194.923 319.683 188.578 333.714C182.242 347.725 188.522 364.188 202.603 370.486L268.151 399.803L324.84 425.158C371.577 446.042 387.703 423.873 418.166 403.001L418.298 366.291C386.15 307.62 323.742 334.999 305.861 345.536Z" fill="#EF9E7E"/>
<path d="M305.861 345.536C299.682 349.177 292.14 349.693 285.598 346.751L225.598 319.772C211.509 313.437 194.923 319.683 188.578 333.713C188.056 334.867 187.629 336.038 187.275 337.217C191.919 336.799 196.731 337.525 201.283 339.572L261.283 366.551C267.825 369.493 275.368 368.977 281.546 365.336C299.426 354.8 361.834 327.42 393.982 386.091L397.495 421.432C405.42 416.438 413.324 410.446 422.089 404.44L418.297 366.29C386.149 307.62 323.742 335 305.861 345.536Z" fill="#E2784A"/>
<path d="M156.893 381.422L45.651 323.572C30.555 315.721 11.916 321.561 4.01897 336.611C-3.87803 351.663 1.95896 370.229 17.054 378.08L128.296 435.93C140.197 442.119 154.298 439.802 163.604 431.169C166.103 428.851 168.257 426.077 169.928 422.891C177.826 407.839 171.989 389.273 156.893 381.422Z" fill="#E2784A"/>
<path d="M436.499 450.665C436.499 400.881 402.478 371.525 349.968 375.569C297.458 379.613 221.371 431.148 221.371 431.148L100.143 336.334C86.74 325.852 67.34 328.171 56.809 341.514C46.28 354.857 48.609 374.173 62.012 384.655L216.439 505.434C221.91 509.713 228.633 511.998 235.504 511.998C237.002 511.998 238.509 511.889 240.01 511.669L357.341 494.433L415.024 485.959C431.885 483.481 436.499 467.633 436.499 450.665Z" fill="#EF9E7E"/>
<path d="M368.27 375.566C391.79 387.817 406.444 410.874 406.444 441.545C406.444 458.514 397.28 473.948 380.418 476.425L322.735 484.899L211.144 501.292L216.439 505.434C221.91 509.713 228.633 511.998 235.504 511.998C237.002 511.998 238.509 511.889 240.01 511.669L357.341 494.433L415.024 485.959C431.886 483.482 441.05 468.047 441.05 451.079C441.049 407.285 411.196 378.992 368.27 375.566Z" fill="#E2784A"/>
<path d="M440.215 364.715H508.499C510.708 364.715 512.499 366.506 512.499 368.715V481.963C512.499 484.172 510.708 485.963 508.499 485.963H440.215V364.715Z" fill="#FF6570"/>
<path d="M481.594 364.715V485.963H508.499C510.708 485.963 512.499 484.172 512.499 481.963V368.715C512.499 366.506 510.708 364.715 508.499 364.715H481.594Z" fill="#E73F4C"/>
<path d="M302.855 296.932C346.096 296.932 381.149 261.878 381.149 218.638C381.149 175.397 346.096 140.344 302.855 140.344C259.614 140.344 224.561 175.397 224.561 218.638C224.561 261.878 259.614 296.932 302.855 296.932Z" fill="#FFD168"/>
<path d="M302.855 140.344C297.564 140.344 292.399 140.876 287.402 141.876C323.24 149.051 350.243 180.688 350.243 218.637C350.243 256.586 323.24 288.223 287.402 295.398C292.398 296.398 297.564 296.93 302.855 296.93C346.095 296.93 381.149 261.877 381.149 218.636C381.149 175.395 346.096 140.344 302.855 140.344Z" fill="#FFB509"/>
<path d="M302.855 266.022C329.027 266.022 350.243 244.806 350.243 218.634C350.243 192.462 329.027 171.246 302.855 171.246C276.683 171.246 255.467 192.462 255.467 218.634C255.467 244.806 276.683 266.022 302.855 266.022Z" fill="#FF9100"/>
<path d="M302.855 171.246C297.445 171.246 292.249 172.17 287.402 173.847C305.965 180.27 319.338 197.915 319.338 218.635C319.338 239.355 305.966 256.999 287.403 263.422C292.25 265.099 297.446 266.023 302.856 266.023C328.986 266.023 350.244 244.764 350.244 218.635C350.244 192.506 328.985 171.246 302.855 171.246Z" fill="#FE9738"/>
<path d="M223.188 348.44C266.429 348.44 301.482 313.386 301.482 270.146C301.482 226.905 266.429 191.852 223.188 191.852C179.947 191.852 144.894 226.905 144.894 270.146C144.894 313.386 179.947 348.44 223.188 348.44Z" fill="#FFD168"/>
<path d="M223.188 191.852C217.897 191.852 212.732 192.384 207.735 193.384C243.573 200.559 270.576 232.196 270.576 270.145C270.576 308.094 243.573 339.731 207.735 346.906C212.731 347.906 217.897 348.438 223.188 348.438C266.428 348.438 301.482 313.385 301.482 270.144C301.482 226.903 266.428 191.852 223.188 191.852Z" fill="#FFB509"/>
<path d="M223.188 317.534C249.36 317.534 270.576 296.317 270.576 270.146C270.576 243.974 249.36 222.758 223.188 222.758C197.016 222.758 175.8 243.974 175.8 270.146C175.8 296.317 197.016 317.534 223.188 317.534Z" fill="#FF9100"/>
<path d="M223.188 222.758C217.778 222.758 212.582 223.682 207.735 225.359C226.298 231.782 239.671 249.427 239.671 270.147C239.671 290.867 226.299 308.511 207.735 314.935C212.582 316.612 217.778 317.536 223.188 317.536C249.318 317.536 270.576 296.277 270.576 270.148C270.576 244.016 249.318 222.758 223.188 222.758Z" fill="#FE9738"/>
<path d="M146.268 320.08C189.509 320.08 224.562 285.027 224.562 241.786C224.562 198.546 189.509 163.492 146.268 163.492C103.028 163.492 67.9741 198.546 67.9741 241.786C67.9741 285.027 103.028 320.08 146.268 320.08Z" fill="#FFD168"/>
<path d="M146.268 163.492C140.977 163.492 135.812 164.024 130.815 165.024C166.653 172.199 193.656 203.836 193.656 241.785C193.656 279.734 166.653 311.371 130.815 318.546C135.811 319.546 140.977 320.078 146.268 320.078C189.508 320.078 224.562 285.025 224.562 241.784C224.562 198.543 189.508 163.492 146.268 163.492Z" fill="#FFB509"/>
<path d="M146.268 289.174C172.44 289.174 193.656 267.958 193.656 241.786C193.656 215.615 172.44 194.398 146.268 194.398C120.096 194.398 98.8801 215.615 98.8801 241.786C98.8801 267.958 120.096 289.174 146.268 289.174Z" fill="#FF9100"/>
<path d="M146.268 194.398C140.858 194.398 135.662 195.322 130.815 196.999C149.378 203.422 162.751 221.067 162.751 241.787C162.751 262.507 149.379 280.151 130.815 286.575C135.662 288.252 140.858 289.176 146.268 289.176C172.398 289.176 193.656 267.917 193.656 241.788C193.656 215.659 172.397 194.398 146.268 194.398Z" fill="#FE9738"/>
</g>
<defs>
<clipPath id="clip0_670_9287">
<rect width="512" height="512" fill="white" transform="translate(0.499023)"/>
</clipPath>
</defs>
</svg>
