<svg id="Capa_1" enable-background="new 0 0 497 497" height="512" viewBox="0 0 497 497" width="512" xmlns="http://www.w3.org/2000/svg"><g><path d="m497 30c0-16.569-13.431-30-30-30h-30v302h30c16.569 0 30-13.431 30-30v-137l-15-45 15-30z" fill="#636da4"/><path d="m437 0h-347c-16.569 0-30 13.431-30 30v30l15 30-15 45v137c0 16.569 13.431 30 30 30h347c16.569 0 30-13.431 30-30v-242c0-16.569-13.431-30-30-30z" fill="#7587b3"/><path d="m497 60h-30l-15 30 15 45h30z" fill="#323752"/><path d="m60 60h407v75h-407z" fill="#4a527b"/><path d="m407 195h-30v302h30c16.569 0 30-13.431 30-30v-242c0-16.569-13.431-30-30-30z" fill="#ff3e3a"/><path d="m377 195h-347c-16.569 0-30 13.431-30 30v242c0 16.569 13.431 30 30 30h347c16.569 0 30-13.431 30-30v-242c0-16.569-13.431-30-30-30z" fill="#ff6053"/><path d="m60 300v15c0 16.569 13.431 30 30 30h10l15-60z" fill="#ffd06a"/><path d="m140 345h10c16.569 0 30-13.431 30-30v-15l-55-15z" fill="#ff985f"/><path d="m100 255h-10c-16.569 0-30 13.431-30 30v15h55z" fill="#ffe7b5"/><path d="m150 255h-10l-15 45h55v-15c0-16.569-13.431-30-30-30z" fill="#ffd06a"/><path d="m100 255h40v90h-40z" fill="#ffb464"/><g fill="#fff"><path d="m218.5 444.5h-158.5c-4.142 0-7.5-3.357-7.5-7.5s3.358-7.5 7.5-7.5h158.5c4.142 0 7.5 3.357 7.5 7.5s-3.358 7.5-7.5 7.5z"/><path d="m188.5 399.5c-4.142 0-7.5-3.357-7.5-7.5v-17c0-4.143 3.358-7.5 7.5-7.5s7.5 3.357 7.5 7.5v17c0 4.143-3.358 7.5-7.5 7.5z"/><path d="m218.5 399.5c-4.142 0-7.5-3.357-7.5-7.5v-17c0-4.143 3.358-7.5 7.5-7.5s7.5 3.357 7.5 7.5v17c0 4.143-3.358 7.5-7.5 7.5z"/><path d="m248.5 399.5c-4.142 0-7.5-3.357-7.5-7.5v-17c0-4.143 3.358-7.5 7.5-7.5s7.5 3.357 7.5 7.5v17c0 4.143-3.358 7.5-7.5 7.5z"/><path d="m90 399.5c-4.142 0-7.5-3.357-7.5-7.5v-17c0-4.143 3.358-7.5 7.5-7.5s7.5 3.357 7.5 7.5v17c0 4.143-3.358 7.5-7.5 7.5z"/><path d="m60 399.5c-4.142 0-7.5-3.357-7.5-7.5v-17c0-4.143 3.358-7.5 7.5-7.5s7.5 3.357 7.5 7.5v17c0 4.143-3.358 7.5-7.5 7.5z"/><path d="m120 399.5c-4.142 0-7.5-3.357-7.5-7.5v-17c0-4.143 3.358-7.5 7.5-7.5s7.5 3.357 7.5 7.5v17c0 4.143-3.358 7.5-7.5 7.5z"/><path d="m347 399.5c-4.142 0-7.5-3.357-7.5-7.5v-17c0-4.143 3.358-7.5 7.5-7.5s7.5 3.357 7.5 7.5v17c0 4.143-3.358 7.5-7.5 7.5z"/><path d="m317 399.5c-4.142 0-7.5-3.357-7.5-7.5v-17c0-4.143 3.358-7.5 7.5-7.5s7.5 3.357 7.5 7.5v17c0 4.143-3.358 7.5-7.5 7.5z"/><path d="m377 399.5c-4.142 0-7.5-3.357-7.5-7.5v-17c0-4.143 3.358-7.5 7.5-7.5s7.5 3.357 7.5 7.5v17c0 4.143-3.358 7.5-7.5 7.5z"/></g></g></svg>