<svg height="512" viewBox="0 0 64 64" width="512" xmlns="http://www.w3.org/2000/svg"><g id="_13-Money" data-name="13-Money"><path d="m5 5h4a4 4 0 0 1 -4 4z" fill="#c9f7b6"/><path d="m54 5h-4a4 4 0 0 0 4 4z" fill="#c9f7b6"/><path d="m9 25h-4v-4a4 4 0 0 1 4 4z" fill="#c9f7b6"/><path d="m9 5h20a10 10 0 0 0 0 20h-20a4 4 0 0 0 -4-4v-12a4 4 0 0 0 4-4z" fill="#7bb57a"/><path d="m54 9v12a4 4 0 0 0 -4 4h-21a10 10 0 0 0 0-20h21a4 4 0 0 0 4 4z" fill="#7bb57a"/><path d="m1 41h56v4h-56z" fill="#89c585"/><path d="m1 37h56v4h-56z" fill="#89c585"/><path d="m1 33h56v4h-56z" fill="#89c585"/><path d="m1 29h56v4h-56z" fill="#89c585"/><path d="m54 21v-16h-49v20h45a4 4 0 0 1 4-4zm3-20v28h-56v-28z" fill="#c9f7b6"/><path d="m53 33a2 2 0 0 1 -2 2h-50v2h56v-4z" fill="#5b915a"/><path d="m53 41a2 2 0 0 1 -2 2h-50v2h56v-4z" fill="#5b915a"/><path d="m53 37a2 2 0 0 1 -2 2h-50v2h56v-4z" fill="#5b915a"/><path d="m53 29a2 2 0 0 1 -2 2h-50v2h56v-4z" fill="#5b915a"/><path d="m50 26h-41a1 1 0 0 1 -1-1 3 3 0 0 0 -3-3 1 1 0 0 1 -1-1v-12a1 1 0 0 1 1-1 3 3 0 0 0 3-3 1 1 0 0 1 1-1h41a1 1 0 0 1 1 1 3 3 0 0 0 3 3 1 1 0 0 1 1 1v12a1 1 0 0 1 -1 1 3 3 0 0 0 -3 3 1 1 0 0 1 -1 1zm-40.1-2h39.2a5.013 5.013 0 0 1 3.9-3.9v-10.2a5.013 5.013 0 0 1 -3.9-3.9h-39.2a5.013 5.013 0 0 1 -3.9 3.9v10.2a5.013 5.013 0 0 1 3.9 3.9z" fill="#89c585"/><circle cx="29" cy="15" fill="#c9f7b6" r="10"/><path d="m30 14v-2h2v-2h-2v-2h-2v2a3 3 0 0 0 0 6v2h-2v2h2v2h2v-2a3 3 0 0 0 0-6zm-3-1a1 1 0 0 1 1-1v2a1 1 0 0 1 -1-1zm3 5v-2a1 1 0 0 1 0 2z" fill="#5b8e63"/><path d="m41 53v4c0 3.31-4.92 6-11 6s-11-2.69-11-6v-4c0 3.31 4.92 6 11 6s11-2.69 11-6z" fill="#ffcb52"/><path d="m41 45v4c0 3.31-4.92 6-11 6s-11-2.69-11-6v-4c0 3.31 4.92 6 11 6s11-2.69 11-6z" fill="#ffcb52"/><path d="m41 49v4c0 3.31-4.92 6-11 6s-11-2.69-11-6v-4c0 3.31 4.92 6 11 6s11-2.69 11-6z" fill="#f09413"/><path d="m41 41v4c0 3.31-4.92 6-11 6s-11-2.69-11-6v-4c0 3.31 4.92 6 11 6s11-2.69 11-6z" fill="#f09413"/><path d="m41 41c0 3.31-4.92 6-11 6s-11-2.69-11-6 4.92-6 11-6 11 2.69 11 6zm-4 0c0-1.66-3.13-3-7-3s-7 1.34-7 3 3.13 3 7 3 7-1.34 7-3z" fill="#ffc052"/><ellipse cx="30" cy="41" fill="#ffdf75" rx="7" ry="3"/><ellipse cx="52" cy="29" fill="#ffdf75" rx="7" ry="3"/><path d="m63 29c0 3.31-4.92 6-11 6s-11-2.69-11-6 4.92-6 11-6a19.334 19.334 0 0 1 4.36.49c3.91.92 6.64 3.04 6.64 5.51zm-4 0c0-1.66-3.13-3-7-3s-7 1.34-7 3 3.13 3 7 3 7-1.34 7-3z" fill="#ffc052"/><path d="m41 37v-4c0 3.31 4.92 6 11 6s11-2.69 11-6v4c0 3.31-4.92 6-11 6s-11-2.69-11-6z" fill="#ffcb52"/><path d="m41 53c0 3.31 4.92 6 11 6s11-2.69 11-6v4c0 3.31-4.92 6-11 6s-11-2.69-11-6z" fill="#f09413"/><path d="m41 49c0 3.31 4.92 6 11 6s11-2.69 11-6v4c0 3.31-4.92 6-11 6s-11-2.69-11-6z" fill="#ffcb52"/><path d="m41 45c0 3.31 4.92 6 11 6s11-2.69 11-6v4c0 3.31-4.92 6-11 6s-11-2.69-11-6z" fill="#f09413"/><path d="m41 41c0 3.31 4.92 6 11 6s11-2.69 11-6v4c0 3.31-4.92 6-11 6s-11-2.69-11-6z" fill="#ffcb52"/><path d="m41 41v-4c0 3.31 4.92 6 11 6s11-2.69 11-6v4c0 3.31-4.92 6-11 6s-11-2.69-11-6z" fill="#f09413"/><path d="m41 33v-4c0 3.31 4.92 6 11 6s11-2.69 11-6v4c0 3.31-4.92 6-11 6s-11-2.69-11-6z" fill="#f09413"/><path d="m59 29a1.241 1.241 0 0 1 -.1.5c-.55-1.42-3.43-2.5-6.9-2.5s-6.35 1.08-6.9 2.5a1.241 1.241 0 0 1 -.1-.5c0-1.66 3.13-3 7-3s7 1.34 7 3z" fill="#c97c10"/><path d="m37 41a1.241 1.241 0 0 1 -.1.5c-.55-1.42-3.43-2.5-6.9-2.5s-6.35 1.08-6.9 2.5a1.241 1.241 0 0 1 -.1-.5c0-1.66 3.13-3 7-3s7 1.34 7 3z" fill="#c97c10"/><g fill="#de8800"><path d="m63 31v2c0 3.31-4.92 6-11 6a17.254 17.254 0 0 1 -7-1.37c-2.44-1.1-4-2.77-4-4.63v-4c0 1.86 1.56 3.53 4 4.63a2.827 2.827 0 0 0 2.06 2.735 18.813 18.813 0 0 0 4.94.635c6.08 0 11-2.69 11-6z"/><path d="m41 43v2c0 3.31-4.92 6-11 6a17.254 17.254 0 0 1 -7-1.37c-2.44-1.1-4-2.77-4-4.63v-4c0 1.86 1.56 3.53 4 4.63a2.827 2.827 0 0 0 2.06 2.735 18.813 18.813 0 0 0 4.94.635c6.08 0 11-2.69 11-6z"/><path d="m41 47v2c0 3.31-4.92 6-11 6a17.254 17.254 0 0 1 -7-1.37c-2.44-1.1-4-2.77-4-4.63v-4c0 1.86 1.56 3.53 4 4.63a2.827 2.827 0 0 0 2.06 2.735 18.813 18.813 0 0 0 4.94.635c6.08 0 11-2.69 11-6z"/><path d="m41 51v2c0 3.31-4.92 6-11 6a17.254 17.254 0 0 1 -7-1.37c-2.44-1.1-4-2.77-4-4.63v-4c0 1.86 1.56 3.53 4 4.63a2.827 2.827 0 0 0 2.06 2.735 18.813 18.813 0 0 0 4.94.635c6.08 0 11-2.69 11-6z"/><path d="m41 55v2c0 3.31-4.92 6-11 6a17.254 17.254 0 0 1 -7-1.37c-2.44-1.1-4-2.77-4-4.63v-4c0 1.86 1.56 3.53 4 4.63a2.827 2.827 0 0 0 2.06 2.735 18.813 18.813 0 0 0 4.94.635c6.08 0 11-2.69 11-6z"/><path d="m63 35v2c0 3.31-4.92 6-11 6a17.254 17.254 0 0 1 -7-1.37c-2.44-1.1-4-2.77-4-4.63v-4c0 1.86 1.56 3.53 4 4.63a2.827 2.827 0 0 0 2.06 2.735 18.813 18.813 0 0 0 4.94.635c6.08 0 11-2.69 11-6z"/><path d="m63 39v2c0 3.31-4.92 6-11 6a17.254 17.254 0 0 1 -7-1.37c-2.44-1.1-4-2.77-4-4.63v-4c0 1.86 1.56 3.53 4 4.63a2.827 2.827 0 0 0 2.06 2.735 18.813 18.813 0 0 0 4.94.635c6.08 0 11-2.69 11-6z"/><path d="m63 43v2c0 3.31-4.92 6-11 6a17.254 17.254 0 0 1 -7-1.37c-2.44-1.1-4-2.77-4-4.63v-4c0 1.86 1.56 3.53 4 4.63a2.827 2.827 0 0 0 2.06 2.735 18.813 18.813 0 0 0 4.94.635c6.08 0 11-2.69 11-6z"/><path d="m63 47v2c0 3.31-4.92 6-11 6a17.254 17.254 0 0 1 -7-1.37c-2.44-1.1-4-2.77-4-4.63v-4c0 1.86 1.56 3.53 4 4.63a2.827 2.827 0 0 0 2.06 2.735 18.813 18.813 0 0 0 4.94.635c6.08 0 11-2.69 11-6z"/><path d="m63 51v2c0 3.31-4.92 6-11 6a17.254 17.254 0 0 1 -7-1.37c-2.44-1.1-4-2.77-4-4.63v-4c0 1.86 1.56 3.53 4 4.63a2.827 2.827 0 0 0 2.06 2.735 18.813 18.813 0 0 0 4.94.635c6.08 0 11-2.69 11-6z"/><path d="m63 55v2c0 3.31-4.92 6-11 6a17.254 17.254 0 0 1 -7-1.37c-2.44-1.1-4-2.77-4-4.63v-4c0 1.86 1.56 3.53 4 4.63a2.827 2.827 0 0 0 2.06 2.735 18.813 18.813 0 0 0 4.94.635c6.08 0 11-2.69 11-6z"/></g><circle cx="12" cy="15" fill="#c9f7b6" r="1"/><circle cx="47" cy="15" fill="#c9f7b6" r="1"/></g></svg>