<?xml version="1.0" encoding="iso-8859-1"?>
<!-- Generator: Adobe Illustrator 19.0.0, SVG Export Plug-In . SVG Version: 6.00 Build 0)  -->
<svg version="1.1" id="Capa_1" xmlns="http://www.w3.org/2000/svg" xmlns:xlink="http://www.w3.org/1999/xlink" x="0px" y="0px"
	 viewBox="0 0 512 512" style="enable-background:new 0 0 512 512;" xml:space="preserve">
<path style="fill:#227CFF;" d="M464.667,180.477H292c-4.148,0-7.51,3.361-7.51,7.51v69.423c0,11.392-2.747,22.77-7.944,32.906
	l-11.677,22.778c-6.279,12.246-9.597,25.995-9.597,39.758v58.631c0,4.149,3.361,7.51,7.51,7.51h201.883
	c16.383,0,29.713-13.329,29.713-29.714V210.19C494.379,193.806,481.05,180.477,464.667,180.477z"/>
<path style="fill:#0E6CC9;" d="M292,180.477c-4.148,0-7.51,3.361-7.51,7.51v69.423c0,11.392-2.747,22.77-7.944,32.906
	l-11.677,22.778c-6.279,12.246-9.597,25.995-9.597,39.758v58.631c0,4.149,3.361,7.51,7.51,7.51h25.914v-66.141
	c0-11.391,2.747-22.77,7.943-32.906l11.677-22.777c6.279-12.246,9.598-25.996,9.598-39.759v-76.933L292,180.477L292,180.477z"/>
<g>
	<path style="fill:#0B5089;" d="M343.577,366.401h-33.861c-4.149,0-7.51-3.361-7.51-7.51s3.361-7.51,7.51-7.51h33.861
		c4.149,0,7.51,3.361,7.51,7.51S347.725,366.401,343.577,366.401z"/>
	<path style="fill:#0B5089;" d="M407.452,366.401h-33.861c-4.149,0-7.51-3.361-7.51-7.51s3.361-7.51,7.51-7.51h33.861
		c4.149,0,7.51,3.361,7.51,7.51S411.6,366.401,407.452,366.401z"/>
</g>
<path style="fill:#FF434D;" d="M400.103,272.374c-6.483-4.432-10.353-11.755-10.353-19.589c0-7.834,3.87-15.158,10.353-19.589
	c2.047-1.399,3.271-3.72,3.271-6.199c0-2.48-1.225-4.799-3.271-6.198c-6.452-4.412-14.002-6.744-21.837-6.744
	c-21.356,0-38.733,17.376-38.733,38.733s17.375,38.732,38.733,38.732c7.834,0,15.384-2.332,21.837-6.744
	c2.047-1.399,3.271-3.719,3.271-6.198C403.375,276.094,402.15,273.774,400.103,272.374z"/>
<path style="fill:#FFDB56;" d="M413.462,214.053c-21.356,0-38.732,17.376-38.732,38.733s17.375,38.732,38.732,38.732
	s38.733-17.375,38.733-38.732S434.819,214.053,413.462,214.053z"/>
<path style="fill:#494949;" d="M276.98,52.251H40.151c-12.423,0-22.53,10.107-22.53,22.53v182.629
	c0,13.763,3.318,27.512,9.597,39.759l11.677,22.776c5.196,10.139,7.944,21.517,7.944,32.907V489.47
	c0,12.423,10.107,22.53,22.53,22.53h178.396c12.423,0,22.53-10.107,22.53-22.53V352.853c0-11.391,2.747-22.77,7.943-32.906
	l11.677-22.777c6.279-12.246,9.598-25.996,9.598-39.759V74.782C299.51,62.359,289.403,52.251,276.98,52.251z"/>
<path style="fill:#353535;" d="M276.98,52.251h-36.833c12.423,0,22.53,10.107,22.53,22.53v182.629
	c0,13.763-3.319,27.512-9.598,39.759l-11.677,22.777c-5.196,10.136-7.943,21.515-7.943,32.906V489.47
	c0,12.423-10.107,22.53-22.53,22.53h36.833c12.423,0,22.53-10.107,22.53-22.53V352.853c0-11.391,2.747-22.77,7.943-32.906
	l11.677-22.777c6.279-12.246,9.598-25.996,9.598-39.759V74.782C299.51,62.359,289.403,52.251,276.98,52.251z"/>
<path style="fill:#E0E0E0;" d="M241.59,0.913c-2.417-1.313-5.36-1.203-7.669,0.293l-16.109,10.427L201.855,1.222
	c-2.503-1.631-5.736-1.626-8.233,0.017l-15.687,10.324L162.777,1.294c-2.542-1.725-5.881-1.722-8.423-0.001l-15.159,10.269
	L123.508,1.238c-2.497-1.644-5.732-1.65-8.233-0.017L99.32,11.633L83.21,1.206C80.9-0.29,77.957-0.4,75.541,0.913
	c-2.416,1.316-3.921,3.846-3.921,6.598v98.975c0,4.149,3.362,7.51,7.51,7.51h78.346c0.369,0,0.733-0.026,1.089-0.078
	c0.355,0.052,0.719,0.078,1.088,0.078h78.347c4.149,0,7.51-3.361,7.51-7.51V7.511C245.511,4.759,244.006,2.229,241.59,0.913z"/>
<path style="fill:#C6C5CA;" d="M160.097,79.45h-3.062H71.62v27.036c0,4.149,3.362,7.51,7.51,7.51h78.346
	c0.369,0,0.733-0.026,1.089-0.078c0.355,0.052,0.719,0.078,1.088,0.078h78.347c4.149,0,7.51-3.361,7.51-7.51V79.45H160.097z"/>
<path style="fill:#73CDFF;" d="M255.167,135.799H61.965c-4.149,0-7.51,3.361-7.51,7.51V279.57c0,4.149,3.361,7.51,7.51,7.51h193.202
	c4.148,0,7.51-3.361,7.51-7.51V143.309C262.677,139.161,259.315,135.799,255.167,135.799z"/>
<path style="fill:#FFDB56;" d="M160.018,203.903c-3.83-0.324-6.418-1.421-7.69-3.258c-1.357-1.961-1.435-4.825-1.26-6.885
	c0.196-2.323,1.117-4.304,2.594-5.575c2.247-1.937,5.55-2.105,7.927-1.901c4.817,0.408,6.762,7.309,6.765,7.316
	c1.023,4.02,5.113,6.445,9.13,5.426c4.02-1.024,6.449-5.112,5.426-9.13c-1.483-5.824-6.626-15.544-16.835-18.051v-5.708
	c0-4.149-3.361-7.51-7.51-7.51s-7.51,3.361-7.51,7.51v6.528c-3.124,1.103-5.491,2.672-7.198,4.144
	c-4.471,3.853-7.226,9.424-7.755,15.685c-0.55,6.472,0.791,12.248,3.878,16.705c2.712,3.917,8.17,8.775,18.768,9.674
	c11.141,0.943,10.681,6.366,10.486,8.683c-0.196,2.319-1.56,9.845-10.656,9.056c-7.422-0.629-11.344-8.287-11.461-8.52
	c-1.779-3.716-6.229-5.305-9.964-3.551c-3.754,1.763-5.368,6.236-3.605,9.99c0.258,0.551,5.664,11.758,17.507,15.748v6.47
	c0,4.149,3.361,7.51,7.51,7.51s7.51-3.361,7.51-7.51v-5.783c10.92-2.647,17.281-12.207,18.125-22.141
	C185.13,217.844,179.266,205.535,160.018,203.903z"/>
<path style="fill:#353535;" d="M255.167,113.996H61.965c-4.149,0-7.51-3.361-7.51-7.51c0-4.149,3.361-7.51,7.51-7.51h193.202
	c4.148,0,7.51,3.361,7.51,7.51C262.677,110.634,259.315,113.996,255.167,113.996z"/>
<g>
	<path style="fill:#E0E0E0;" d="M108.753,352.025H91.194c-4.903,0-8.877-3.974-8.877-8.877v-17.559c0-4.903,3.974-8.877,8.877-8.877
		h17.559c4.903,0,8.877,3.974,8.877,8.877v17.559C117.63,348.051,113.656,352.025,108.753,352.025z"/>
	<path style="fill:#E0E0E0;" d="M167.345,352.025h-17.559c-4.903,0-8.877-3.974-8.877-8.877v-17.559
		c0-4.903,3.974-8.877,8.877-8.877h17.559c4.903,0,8.877,3.974,8.877,8.877v17.559C176.222,348.051,172.248,352.025,167.345,352.025
		z"/>
	<path style="fill:#E0E0E0;" d="M225.937,352.025h-17.559c-4.903,0-8.877-3.974-8.877-8.877v-17.559
		c0-4.903,3.974-8.877,8.877-8.877h17.559c4.903,0,8.877,3.974,8.877,8.877v17.559C234.814,348.051,230.84,352.025,225.937,352.025z
		"/>
	<path style="fill:#E0E0E0;" d="M108.753,410.468H91.194c-4.903,0-8.877-3.974-8.877-8.877v-17.559c0-4.903,3.974-8.877,8.877-8.877
		h17.559c4.903,0,8.877,3.974,8.877,8.877v17.559C117.63,406.493,113.656,410.468,108.753,410.468z"/>
	<path style="fill:#E0E0E0;" d="M167.345,410.468h-17.559c-4.903,0-8.877-3.974-8.877-8.877v-17.559
		c0-4.903,3.974-8.877,8.877-8.877h17.559c4.903,0,8.877,3.974,8.877,8.877v17.559C176.222,406.493,172.248,410.468,167.345,410.468
		z"/>
	<path style="fill:#E0E0E0;" d="M225.937,410.468h-17.559c-4.903,0-8.877-3.974-8.877-8.877v-17.559
		c0-4.903,3.974-8.877,8.877-8.877h17.559c4.903,0,8.877,3.974,8.877,8.877v17.559C234.814,406.493,230.84,410.468,225.937,410.468z
		"/>
	<path style="fill:#E0E0E0;" d="M108.753,468.911H91.194c-4.903,0-8.877-3.974-8.877-8.877v-17.559c0-4.903,3.974-8.877,8.877-8.877
		h17.559c4.903,0,8.877,3.974,8.877,8.877v17.559C117.63,464.936,113.656,468.911,108.753,468.911z"/>
	<path style="fill:#E0E0E0;" d="M167.345,468.911h-17.559c-4.903,0-8.877-3.974-8.877-8.877v-17.559
		c0-4.903,3.974-8.877,8.877-8.877h17.559c4.903,0,8.877,3.974,8.877,8.877v17.559C176.222,464.936,172.248,468.911,167.345,468.911
		z"/>
	<path style="fill:#E0E0E0;" d="M225.937,468.911h-17.559c-4.903,0-8.877-3.974-8.877-8.877v-17.559
		c0-4.903,3.974-8.877,8.877-8.877h17.559c4.903,0,8.877,3.974,8.877,8.877v17.559C234.814,464.936,230.84,468.911,225.937,468.911z
		"/>
</g>
<g>
	<path style="fill:#AA5D24;" d="M200.501,58.173h-80.263c-4.149,0-7.51-3.361-7.51-7.51s3.361-7.51,7.51-7.51h80.263
		c4.149,0,7.51,3.361,7.51,7.51S204.649,58.173,200.501,58.173z"/>
	<path style="fill:#AA5D24;" d="M200.501,84.646h-80.263c-4.149,0-7.51-3.361-7.51-7.51c0-4.149,3.361-7.51,7.51-7.51h80.263
		c4.149,0,7.51,3.361,7.51,7.51C208.011,81.284,204.649,84.646,200.501,84.646z"/>
</g>
<g>
</g>
<g>
</g>
<g>
</g>
<g>
</g>
<g>
</g>
<g>
</g>
<g>
</g>
<g>
</g>
<g>
</g>
<g>
</g>
<g>
</g>
<g>
</g>
<g>
</g>
<g>
</g>
<g>
</g>
</svg>
