<svg width="512" height="512" viewBox="0 0 512 512" fill="none" xmlns="http://www.w3.org/2000/svg">
<g clip-path="url(#clip0_670_9409)">
<path d="M264.912 168.526C261.347 177.044 251.543 181.065 243.025 177.489C234.487 173.924 230.476 164.12 234.041 155.602C237.606 147.074 247.41 143.053 255.948 146.618C264.466 150.195 268.477 159.998 264.912 168.526ZM338.88 210.033L286.849 125.8L275.361 107.198C274.336 105.544 272.408 104.712 270.52 105.097C270.479 105.097 270.439 105.107 270.398 105.117L165.361 129.118L152.554 132.041C151.103 132.376 149.895 133.391 149.327 134.761L111.24 225.732L37.1159 402.792C36.2639 405.106 37.3799 407.694 39.6629 408.648L57.7879 416.239L221.046 484.589C221.624 484.833 222.233 484.944 222.832 484.944C224.588 484.944 226.262 483.939 227.033 482.234L256.23 412.484L326.843 243.786V243.776L339.214 214.244C339.794 212.874 339.672 211.301 338.88 210.033Z" fill="#FF3C63"/>
<path d="M286.849 125.8L170.446 153.191L57.7881 416.239L39.6631 408.648C37.3801 407.694 36.2631 405.106 37.1161 402.792L111.24 225.732L149.327 134.761C149.895 133.391 151.103 132.376 152.554 132.041L165.361 129.118L270.519 105.097C272.407 104.711 274.335 105.543 275.36 107.198L286.849 125.8Z" fill="#FF557E"/>
<path d="M326.854 243.785L256.231 412.483L227.034 482.233C226.263 483.938 224.588 484.943 222.833 484.943C222.234 484.943 221.625 484.831 221.047 484.588C201.318 459.247 189.556 427.391 189.556 392.785C189.556 314.337 249.98 250.006 326.844 243.785H326.854Z" fill="#EA2F5C"/>
<path d="M281.302 227.782C285.438 229.513 287.387 234.27 285.656 238.406L278.21 256.196L209.44 420.468C207.708 424.605 202.951 426.554 198.814 424.821L192.452 422.156L97.8259 382.548C93.6899 380.817 91.7399 376.06 93.4719 371.924L169.688 189.861C171.419 185.725 176.176 183.776 180.312 185.507L281.302 227.782Z" fill="#E0E0FF"/>
<path d="M278.21 256.195L206.304 427.957L192.452 422.155C190.545 412.658 189.557 402.831 189.557 392.781C189.558 331.89 225.97 279.497 278.21 256.195Z" fill="#D1D1D1"/>
<path d="M295.942 133.776C295.292 134.872 294.41 135.755 293.395 136.384L284.84 122.541C297.038 100.833 303.513 79.4515 303.604 60.4835C303.685 44.7535 299.21 30.9515 291.324 22.6195C284.383 15.2725 276.101 13.2825 268.591 17.1595C256.788 23.2485 249.461 47.5845 247.959 85.7025C246.741 116.624 249.857 145.821 249.887 146.116C250.334 150.297 247.319 154.052 243.138 154.509C242.864 154.539 242.58 154.55 242.306 154.55C238.47 154.55 235.172 151.658 234.756 147.761C234.614 146.533 231.488 117.295 232.736 85.2675C234.532 39.4375 243.97 12.7365 261.608 3.63346C275.176 -3.36954 290.795 -0.101537 302.385 12.1585C322.389 33.3165 328.153 79.1275 295.942 133.776Z" fill="#FFCE00"/>
<path d="M227.627 279.972C225.987 275.972 222.888 272.849 218.9 271.18L213.07 268.74L217.634 257.837C219.257 253.959 217.429 249.5 213.552 247.877C209.676 246.256 205.216 248.081 203.592 251.959L199.002 262.924C193.468 260.971 187.496 261.088 182.022 263.331C176.115 265.752 171.504 270.329 169.039 276.217C166.573 282.106 166.549 288.603 168.97 294.51C171.391 300.418 175.967 305.029 181.856 307.493L193.323 312.294C195.462 313.189 197.123 314.864 198.002 317.009C198.881 319.154 198.872 321.512 197.977 323.651C196.129 328.066 191.036 330.153 186.62 328.305L180.888 325.906C180.887 325.906 180.887 325.905 180.887 325.905C180.886 325.905 180.885 325.904 180.885 325.904L168.035 320.525C167.791 320.422 167.616 320.247 167.516 320.002C167.416 319.757 167.416 319.509 167.518 319.266C169.141 315.388 167.314 310.929 163.437 309.306C159.562 307.682 155.1 309.509 153.477 313.387C151.808 317.375 151.791 321.774 153.43 325.774C155.069 329.774 158.168 332.897 162.156 334.567L167.986 337.008L163.422 347.911C161.799 351.789 163.627 356.248 167.504 357.871C168.464 358.273 169.46 358.463 170.44 358.463C173.416 358.463 176.243 356.706 177.464 353.789L182.045 342.846C184.644 343.761 187.308 344.202 189.938 344.202C199.288 344.202 208.186 338.681 212.017 329.531C217.106 317.374 211.356 303.343 199.2 298.254L187.732 293.453C185.594 292.558 183.932 290.884 183.054 288.739C182.175 286.594 182.184 284.236 183.079 282.097C183.974 279.959 185.648 278.297 187.793 277.418C189.938 276.54 192.296 276.548 194.435 277.443L200.168 279.843H200.169L213.021 285.223C213.265 285.325 213.439 285.501 213.539 285.745C213.639 285.989 213.639 286.237 213.537 286.481C211.914 290.359 213.741 294.818 217.618 296.441C221.496 298.065 225.955 296.238 227.578 292.36C229.25 288.372 229.266 283.972 227.627 279.972Z" fill="#292927"/>
<path d="M339.05 511.998C404.888 511.998 458.26 458.626 458.26 392.788C458.26 326.95 404.888 273.578 339.05 273.578C273.212 273.578 219.84 326.95 219.84 392.788C219.84 458.626 273.212 511.998 339.05 511.998Z" fill="#FFD92F"/>
<path d="M339.05 474.01C383.907 474.01 420.27 437.647 420.27 392.79C420.27 347.934 383.907 311.57 339.05 311.57C294.194 311.57 257.83 347.934 257.83 392.79C257.83 437.647 294.194 474.01 339.05 474.01Z" fill="#EFB70D"/>
<path d="M339.05 454.031C372.872 454.031 400.29 426.613 400.29 392.791C400.29 358.969 372.872 331.551 339.05 331.551C305.228 331.551 277.81 358.969 277.81 392.791C277.81 426.613 305.228 454.031 339.05 454.031Z" fill="#FFD951"/>
<path d="M344.781 386.485H334.288C330.904 386.485 328.15 383.732 328.15 380.347C328.15 376.963 330.903 374.209 334.288 374.209H350.928C351.124 378.239 354.453 381.445 358.53 381.445C362.734 381.445 366.141 378.037 366.141 373.834C366.141 365.647 359.48 358.986 351.293 358.986H347.145V350.197C347.145 345.993 343.737 342.586 339.534 342.586C335.331 342.586 331.923 345.994 331.923 350.197V359.125C321.255 360.306 312.927 369.368 312.927 380.347C312.927 392.125 322.509 401.707 334.287 401.707H344.78C348.164 401.707 350.918 404.461 350.918 407.845C350.918 411.229 348.164 413.983 344.78 413.983H328.141C327.945 409.953 324.616 406.747 320.539 406.747C316.335 406.747 312.928 410.155 312.928 414.358C312.928 422.545 319.588 429.206 327.776 429.206H331.924V437.995C331.924 442.199 335.332 445.606 339.535 445.606C343.738 445.606 347.146 442.198 347.146 437.995V429.067C357.814 427.885 366.142 418.824 366.142 407.845C366.142 396.067 356.56 386.485 344.781 386.485Z" fill="#EFA70D"/>
<path d="M418.741 173.128H390.033C385.829 173.128 382.422 169.72 382.422 165.517C382.422 161.314 385.83 157.906 390.033 157.906H418.741C422.945 157.906 426.352 161.314 426.352 165.517C426.352 169.72 422.944 173.128 418.741 173.128Z" fill="#FF3C63"/>
<path d="M467.558 229.23H438.85C434.646 229.23 431.239 225.822 431.239 221.619C431.239 217.416 434.647 214.008 438.85 214.008H467.559C471.763 214.008 475.17 217.416 475.17 221.619C475.17 225.822 471.762 229.23 467.558 229.23Z" fill="#FF3C63"/>
<path d="M119.045 125.066H90.3371C86.1331 125.066 82.7261 121.658 82.7261 117.455C82.7261 113.251 86.1341 109.844 90.3371 109.844H119.045C123.249 109.844 126.656 113.252 126.656 117.455C126.656 121.658 123.249 125.066 119.045 125.066Z" fill="#FF3C63"/>
<path d="M192.303 49.2611H163.595C159.391 49.2611 155.984 45.8531 155.984 41.6501C155.984 37.4471 159.392 34.0391 163.595 34.0391H192.303C196.507 34.0391 199.914 37.4471 199.914 41.6501C199.914 45.8531 196.506 49.2611 192.303 49.2611Z" fill="#FF3C63"/>
</g>
<defs>
<clipPath id="clip0_670_9409">
<rect width="511.999" height="511.999" fill="white"/>
</clipPath>
</defs>
</svg>
