<svg width="512" height="512" viewBox="0 0 512 512" fill="none" xmlns="http://www.w3.org/2000/svg">
<path d="M88 16H24C19.5817 16 16 19.5817 16 24V488C16 492.418 19.5817 496 24 496H88C92.4183 496 96 492.418 96 488V24C96 19.5817 92.4183 16 88 16Z" fill="#FFC239"/>
<path d="M312 144C309.878 144 307.843 143.157 306.343 141.657C304.843 140.157 304 138.122 304 136V96.608C304.015 83.7209 309.141 71.3659 318.253 62.2533C327.366 53.1408 339.721 48.0148 352.608 48H384C386.122 48 388.157 48.8429 389.657 50.3431C391.157 51.8434 392 53.8783 392 56C392 58.1217 391.157 60.1566 389.657 61.6569C388.157 63.1571 386.122 64 384 64H352.608C343.963 64.0106 335.675 67.4495 329.562 73.5624C323.449 79.6752 320.011 87.9631 320 96.608V136C320 138.122 319.157 140.157 317.657 141.657C316.157 143.157 314.122 144 312 144Z" fill="#98ABBB"/>
<path d="M464 80H392L368 56L392 32H464V80Z" fill="#F85221"/>
<path d="M440 64H408C405.878 64 403.843 63.1571 402.343 61.6569C400.843 60.1566 400 58.1217 400 56C400 53.8783 400.843 51.8434 402.343 50.3431C403.843 48.8429 405.878 48 408 48H440C442.122 48 444.157 48.8429 445.657 50.3431C447.157 51.8434 448 53.8783 448 56C448 58.1217 447.157 60.1566 445.657 61.6569C444.157 63.1571 442.122 64 440 64Z" fill="white"/>
<path d="M420.232 280H496L479.584 187.648C474.766 174.144 466.796 161.985 456.336 152.18C445.875 142.375 433.227 135.207 419.44 131.272L368 112C368 118.365 365.471 124.47 360.971 128.971C356.47 133.471 350.365 136 344 136H280C273.635 136 267.53 133.471 263.029 128.971C258.529 124.47 256 118.365 256 112L204.56 131.272C190.773 135.207 178.125 142.375 167.664 152.18C157.204 161.985 149.234 174.144 144.416 187.648L128 280H203.768L192 480H432L420.232 280Z" fill="#D24217"/>
<path d="M420.232 280H496L479.584 187.648C474.766 174.144 466.796 161.985 456.336 152.18C445.875 142.375 433.227 135.207 419.44 131.272L368 112C368 118.365 365.471 124.47 360.97 128.971C356.47 133.471 350.365 136 344 136H280C273.635 136 267.53 133.471 263.029 128.971C258.529 124.47 256 118.365 256 112C250.457 114.078 245.63 117.709 242.097 122.46C238.564 127.21 236.475 132.877 236.08 138.784L222.024 349.664C221.252 361.236 222.864 372.844 226.762 383.767C230.659 394.69 236.759 404.697 244.682 413.166C252.606 421.636 262.184 428.387 272.824 433.003C283.464 437.619 294.938 440.001 306.536 440H429.648L420.232 280Z" fill="#F85221"/>
<path d="M256 112C256 123.784 276.656 136 312 136C347.344 136 368 123.784 368 112C368 147.344 347.344 176 312 176C276.656 176 256 147.344 256 112Z" fill="#953528"/>
<g opacity="0.5">
<path d="M208.472 199.999C207.421 199.935 206.368 200.08 205.373 200.424C204.378 200.768 203.46 201.305 202.673 202.004C201.886 202.704 201.245 203.551 200.786 204.499C200.327 205.447 200.06 206.476 200 207.527L195.752 279.999H203.752C205.922 279.999 208.011 279.172 209.593 277.685C211.174 276.199 212.13 274.165 212.264 271.999L216 208.471C216.064 207.42 215.92 206.367 215.575 205.372C215.231 204.377 214.694 203.459 213.995 202.672C213.296 201.885 212.448 201.244 211.5 200.785C210.552 200.326 209.523 200.059 208.472 199.999Z" fill="#953528"/>
<path d="M424 207.526C423.875 205.405 422.912 203.419 421.323 202.008C419.734 200.596 417.65 199.873 415.528 199.998C413.406 200.123 411.421 201.086 410.009 202.675C408.597 204.264 407.875 206.349 408 208.47L411.752 271.998C411.88 274.162 412.83 276.196 414.408 277.683C415.986 279.17 418.072 279.998 420.24 279.998H428.24L424 207.526Z" fill="#953528"/>
</g>
<path d="M64 40C61.8783 40 59.8434 40.8429 58.3431 42.3431C56.8429 43.8434 56 45.8783 56 48C56 50.1217 56.8429 52.1566 58.3431 53.6569C59.8434 55.1571 61.8783 56 64 56H96V40H64Z" fill="#3F4349"/>
<path d="M48 72C45.8783 72 43.8434 72.8429 42.3431 74.3431C40.8429 75.8434 40 77.8783 40 80C40 82.1217 40.8429 84.1566 42.3431 85.6569C43.8434 87.1571 45.8783 88 48 88H96V72H48Z" fill="#3F4349"/>
<path d="M64 104C61.8783 104 59.8434 104.843 58.3431 106.343C56.8429 107.843 56 109.878 56 112C56 114.122 56.8429 116.157 58.3431 117.657C59.8434 119.157 61.8783 120 64 120H96V104H64Z" fill="#3F4349"/>
<path d="M48 136C45.8783 136 43.8434 136.843 42.3431 138.343C40.8429 139.843 40 141.878 40 144C40 146.122 40.8429 148.157 42.3431 149.657C43.8434 151.157 45.8783 152 48 152H96V136H48Z" fill="#3F4349"/>
<path d="M64 168C61.8783 168 59.8434 168.843 58.3431 170.343C56.8429 171.843 56 173.878 56 176C56 178.122 56.8429 180.157 58.3431 181.657C59.8434 183.157 61.8783 184 64 184H96V168H64Z" fill="#3F4349"/>
<path d="M48 200C45.8783 200 43.8434 200.843 42.3431 202.343C40.8429 203.843 40 205.878 40 208C40 210.122 40.8429 212.157 42.3431 213.657C43.8434 215.157 45.8783 216 48 216H96V200H48Z" fill="#3F4349"/>
<path d="M64 232C61.8783 232 59.8434 232.843 58.3431 234.343C56.8429 235.843 56 237.878 56 240C56 242.122 56.8429 244.157 58.3431 245.657C59.8434 247.157 61.8783 248 64 248H96V232H64Z" fill="#3F4349"/>
<path d="M48 264C45.8783 264 43.8434 264.843 42.3431 266.343C40.8429 267.843 40 269.878 40 272C40 274.122 40.8429 276.157 42.3431 277.657C43.8434 279.157 45.8783 280 48 280H96V264H48Z" fill="#3F4349"/>
<path d="M64 296C61.8783 296 59.8434 296.843 58.3431 298.343C56.8429 299.843 56 301.878 56 304C56 306.122 56.8429 308.157 58.3431 309.657C59.8434 311.157 61.8783 312 64 312H96V296H64Z" fill="#3F4349"/>
<path d="M48 328C45.8783 328 43.8434 328.843 42.3431 330.343C40.8429 331.843 40 333.878 40 336C40 338.122 40.8429 340.157 42.3431 341.657C43.8434 343.157 45.8783 344 48 344H96V328H48Z" fill="#3F4349"/>
<path d="M64 360C61.8783 360 59.8434 360.843 58.3431 362.343C56.8429 363.843 56 365.878 56 368C56 370.122 56.8429 372.157 58.3431 373.657C59.8434 375.157 61.8783 376 64 376H96V360H64Z" fill="#3F4349"/>
<path d="M48 392C45.8783 392 43.8434 392.843 42.3431 394.343C40.8429 395.843 40 397.878 40 400C40 402.122 40.8429 404.157 42.3431 405.657C43.8434 407.157 45.8783 408 48 408H96V392H48Z" fill="#3F4349"/>
<path d="M64 424C61.8783 424 59.8434 424.843 58.3431 426.343C56.8429 427.843 56 429.878 56 432C56 434.122 56.8429 436.157 58.3431 437.657C59.8434 439.157 61.8783 440 64 440H96V424H64Z" fill="#3F4349"/>
<path d="M48 456C45.8783 456 43.8434 456.843 42.3431 458.343C40.8429 459.843 40 461.878 40 464C40 466.122 40.8429 468.157 42.3431 469.657C43.8434 471.157 45.8783 472 48 472H96V456H48Z" fill="#3F4349"/>
</svg>
