<svg width="512" height="512" viewBox="0 0 512 512" fill="none" xmlns="http://www.w3.org/2000/svg">
<g clip-path="url(#clip0_670_9519)">
<path d="M431.999 160.691H88.9518L71.9988 151.719V111.719C71.9988 107.301 75.5808 103.719 79.9988 103.719H423.999C428.417 103.719 431.999 107.301 431.999 111.719V160.691Z" fill="#FFF8B6"/>
<path d="M431.999 103.719H423.999V127.719C423.999 140.974 413.254 151.719 399.999 151.719H71.9988V183.719H439.999V111.719C439.999 107.301 436.417 103.719 431.999 103.719Z" fill="#6D686D"/>
<path d="M23.9988 175.719V415.719L37.9108 439.719H479.999V175.719C479.999 171.301 476.417 167.719 471.999 167.719H31.9988C27.5808 167.719 23.9988 171.301 23.9988 175.719Z" fill="#FF537E"/>
<path d="M223.999 391.719H319.999L359.999 383.206L399.999 391.719H423.999C428.417 391.719 431.999 388.137 431.999 383.719V255.719H277.91L215.999 293.507V383.718C215.999 388.137 219.581 391.719 223.999 391.719Z" fill="#A5E3F0"/>
<path d="M215.999 255.719H439.999V383.719C439.999 388.137 436.417 391.719 431.999 391.719H423.999V295.417C418.138 294.762 412.672 292.771 407.999 289.641C402.272 293.477 395.39 295.719 387.999 295.719C380.608 295.719 373.726 293.477 367.999 289.641C362.272 293.477 355.39 295.719 347.999 295.719C340.608 295.719 333.726 293.477 327.999 289.641C322.272 293.477 315.39 295.719 307.999 295.719C300.608 295.719 293.726 293.477 287.999 289.641C282.272 293.477 275.39 295.719 267.999 295.719C260.608 295.719 253.726 293.477 247.999 289.641C242.272 293.477 235.39 295.719 227.999 295.719C223.771 295.719 219.771 294.852 215.999 293.508V255.719Z" fill="#5BB5CB"/>
<path d="M471.999 399.719V167.719H479.999C484.417 167.719 487.999 171.301 487.999 175.719V439.719H23.9988V415.719H455.999C464.836 415.719 471.999 408.555 471.999 399.719Z" fill="#D62A52"/>
<path d="M175.178 383.719V421.975H84.8248L71.9988 415.719V391.719C71.9988 387.301 75.5808 383.719 79.9988 383.719H175.178Z" fill="#6D686D"/>
<path d="M71.9988 391.719H167.999L176.046 376.799V239.719H79.9988C75.5808 239.719 71.9988 243.301 71.9988 247.719V391.719Z" fill="#A5E3F0"/>
<path d="M167.999 399.714V380.703L183.999 391.714V439.714H71.9988V415.714H151.999C160.836 415.714 167.999 408.55 167.999 399.714Z" fill="#BC97BC"/>
<path d="M503.999 447.719H7.99878C3.57678 447.719 -0.0012207 444.137 -0.0012207 439.719C-0.0012207 435.301 3.57678 431.719 7.99878 431.719H503.999C508.421 431.719 511.999 435.301 511.999 439.719C511.999 444.137 508.421 447.719 503.999 447.719Z" fill="#6D686D"/>
<path d="M159.999 351.719C155.577 351.719 151.999 348.137 151.999 343.719V327.719C151.999 323.301 155.577 319.719 159.999 319.719C164.421 319.719 167.999 323.301 167.999 327.719V343.719C167.999 348.137 164.421 351.719 159.999 351.719Z" fill="#AF87AF"/>
<path d="M238.077 64.293C233.655 64.293 230.077 67.875 230.077 72.293V94.012H203.483V72.293C203.483 67.875 199.905 64.293 195.483 64.293C191.061 64.293 187.483 67.875 187.483 72.293V133.844C187.483 138.262 191.061 141.844 195.483 141.844C199.905 141.844 203.483 138.262 203.483 133.844V110.012H230.077V133.844C230.077 138.262 233.655 141.844 238.077 141.844C242.499 141.844 246.077 138.262 246.077 133.844V72.293C246.077 67.875 242.499 64.293 238.077 64.293Z" fill="#FF537E"/>
<path d="M158.311 96.0497C150.795 93.2797 143.811 90.2647 141.608 89.3037C140.085 88.0537 140.139 86.3267 140.241 85.6047C140.389 84.5777 141.139 82.0617 144.921 80.9207C153.452 78.3737 161.343 84.5887 161.585 84.7837C164.968 87.5887 169.983 87.1357 172.812 83.7717C175.656 80.3887 175.218 75.3417 171.835 72.4987C171.241 72.0107 157.273 60.5027 140.304 65.6007C131.695 68.1987 125.601 74.9917 124.406 83.3347C123.281 91.1667 126.679 98.7017 133.273 102.999C133.625 103.229 133.992 103.429 134.375 103.601C134.734 103.761 143.219 107.539 152.781 111.062C154.828 111.82 161.445 114.632 160.648 119.101C160.054 122.417 155.984 125.847 150.195 125.847C144.164 125.847 138.359 123.417 134.679 119.351C131.718 116.078 126.656 115.828 123.382 118.792C120.101 121.757 119.851 126.815 122.82 130.093C129.484 137.452 139.718 141.847 150.195 141.847C163.32 141.847 174.336 133.464 176.398 121.909C177.952 113.206 174.015 101.843 158.311 96.0497Z" fill="#FF537E"/>
<path d="M368.491 64.293H351.35C346.928 64.293 343.35 67.875 343.35 72.293V133.844C343.35 138.262 346.928 141.844 351.35 141.844C355.772 141.844 359.35 138.262 359.35 133.844V115.065C362.719 115.047 366.355 115.032 368.491 115.032C382.671 115.032 394.202 103.653 394.202 89.665C394.202 75.677 382.671 64.293 368.491 64.293ZM368.491 99.031C367.097 99.031 362.971 99.038 359.35 99.047V80.293H368.491C373.757 80.293 378.202 84.586 378.202 89.664C378.202 94.742 373.757 99.031 368.491 99.031Z" fill="#FF537E"/>
<path d="M294.085 64.293C272.702 64.293 255.312 81.688 255.312 103.07C255.312 124.449 272.703 141.843 294.085 141.843C315.467 141.843 332.866 124.448 332.866 103.07C332.866 81.688 315.468 64.293 294.085 64.293ZM294.085 125.844C281.53 125.844 271.312 115.629 271.312 103.071C271.312 90.513 281.531 80.294 294.085 80.294C306.647 80.294 316.866 90.513 316.866 103.071C316.866 115.629 306.647 125.844 294.085 125.844Z" fill="#FF537E"/>
<path d="M263.999 391.719C272.836 391.719 279.999 384.556 279.999 375.719V351.719C279.999 347.301 276.417 343.719 271.999 343.719H255.999C251.581 343.719 247.999 347.301 247.999 351.719V375.719C247.999 384.555 255.162 391.719 263.999 391.719Z" fill="#4294AA"/>
<path d="M267.999 279.719C279.045 279.719 287.999 270.765 287.999 259.719V231.719H247.999V259.719C247.999 270.765 256.953 279.719 267.999 279.719Z" fill="#FFF38A"/>
<path d="M427.999 279.719C439.045 279.719 447.999 270.765 447.999 259.719V239.719C447.999 235.301 444.417 231.719 439.999 231.719H407.999V259.719C407.999 270.765 416.953 279.719 427.999 279.719Z" fill="#FFF38A"/>
<path d="M347.999 279.719C359.045 279.719 367.999 270.765 367.999 259.719V231.719H327.999V259.719C327.999 270.765 336.953 279.719 347.999 279.719Z" fill="#FFF38A"/>
<path d="M227.999 279.719C239.045 279.719 247.999 270.765 247.999 259.719V231.719H215.999C211.581 231.719 207.999 235.301 207.999 239.719V259.719C207.999 270.765 216.953 279.719 227.999 279.719Z" fill="white"/>
<path d="M307.999 279.719C319.045 279.719 327.999 270.765 327.999 259.719V231.719H287.999V259.719C287.999 270.765 296.953 279.719 307.999 279.719Z" fill="white"/>
<path d="M387.999 279.719C399.045 279.719 407.999 270.765 407.999 259.719V231.719H367.999V259.719C367.999 270.765 376.953 279.719 387.999 279.719Z" fill="white"/>
<path d="M183.999 239.719V391.719H167.999V271.719C167.999 258.464 157.254 247.719 143.999 247.719H71.9988V239.719C71.9988 235.301 75.5808 231.719 79.9988 231.719H175.999C180.417 231.719 183.999 235.301 183.999 239.719Z" fill="#5BB5CB"/>
<path d="M343.999 359.719L359.999 367.894L375.999 359.719C380.417 359.719 383.999 356.137 383.999 351.719V335.719C383.999 331.301 380.417 327.719 375.999 327.719H343.999C339.581 327.719 335.999 331.301 335.999 335.719V351.719C335.999 356.137 339.581 359.719 343.999 359.719Z" fill="#FFEB9A"/>
<path d="M319.999 391.719H359.999L366.851 376.69L359.999 359.719H319.999C315.581 359.719 311.999 363.301 311.999 367.719V383.719C311.999 388.137 315.581 391.719 319.999 391.719Z" fill="#F4D077"/>
<path d="M359.999 391.719H399.999C404.417 391.719 407.999 388.137 407.999 383.719V367.719C407.999 363.301 404.417 359.719 399.999 359.719H359.999V391.719Z" fill="#F4BF6C"/>
</g>
<defs>
<clipPath id="clip0_670_9519">
<rect width="512" height="512" fill="white" transform="translate(-0.000976562)"/>
</clipPath>
</defs>
</svg>
