<svg width="41" height="40" viewBox="0 0 41 40" fill="none" xmlns="http://www.w3.org/2000/svg">
<rect x="0.498047" width="40" height="40" rx="20" fill="#F47E7E"/>
<path fill-rule="evenodd" clip-rule="evenodd" d="M17.498 14.4961C17.498 13.1154 16.3788 11.9961 14.998 11.9961C13.6173 11.9961 12.498 13.1154 12.498 14.4961V25.5048C12.498 26.8855 13.6173 28.0048 14.998 28.0048C16.3788 28.0048 17.498 26.8855 17.498 25.5048L17.498 14.4961ZM28.498 14.4961C28.498 13.1154 27.3788 11.9961 25.998 11.9961C24.6173 11.9961 23.498 13.1154 23.498 14.4961V25.5048C23.498 26.8855 24.6173 28.0048 25.998 28.0048C27.3788 28.0048 28.498 26.8855 28.498 25.5048V14.4961Z" fill="#26211A"/>
</svg>
