<svg width="40" height="40" viewBox="0 0 40 40" fill="none" xmlns="http://www.w3.org/2000/svg">
<rect width="40" height="40" rx="20" fill="url(#paint0_linear_665_8346)"/>
<rect width="40" height="40" rx="20" fill="#FFEBD2"/>
<g clip-path="url(#clip0_665_8346)">
<path d="M10.5859 15.8177C10.2578 15.8177 10 16.0715 10 16.3997V23.4309C10 23.759 10.2578 24.0169 10.5859 24.0169H14.7656V15.8177H10.5859ZM22.6641 11.3606C22.4766 11.2551 22.2422 11.2668 22.0664 11.3723L15.9375 15.3215V24.5208L22.0546 28.6106C22.2529 28.7207 22.4508 28.7406 22.6641 28.6341C22.8516 28.5286 22.9688 28.3294 22.9688 28.1184V11.8645C22.9688 11.6536 22.8516 11.4543 22.6641 11.3606Z" fill="#26211A"/>
<path d="M27.8989 19.9184L29.8284 17.9889C30.0572 17.76 30.0572 17.3892 29.8284 17.1603C29.5995 16.9315 29.2287 16.9315 28.9998 17.1603L27.0703 19.0898L25.1408 17.1603C24.912 16.9315 24.5411 16.9315 24.3123 17.1603C24.0834 17.3892 24.0834 17.76 24.3123 17.9889L26.2418 19.9184L24.3123 21.8479C24.0834 22.0767 24.0834 22.4475 24.3123 22.6764C24.5411 22.9053 24.9119 22.9053 25.1408 22.6764L27.0703 20.7469L28.9998 22.6764C29.2287 22.9053 29.5995 22.9053 29.8284 22.6764C30.0572 22.4475 30.0572 22.0767 29.8284 21.8479L27.8989 19.9184Z" fill="#26211A"/>
</g>
<defs>
<linearGradient id="paint0_linear_665_8346" x1="20.4166" y1="-11.875" x2="20.4166" y2="56.875" gradientUnits="userSpaceOnUse">
<stop stop-color="#FFABC0"/>
<stop offset="0.447917" stop-color="#EB4D75"/>
<stop offset="0.828125" stop-color="#C24060"/>
<stop offset="1" stop-color="#94314A"/>
</linearGradient>
<clipPath id="clip0_665_8346">
<rect width="20" height="20" fill="white" transform="translate(10 10)"/>
</clipPath>
</defs>
</svg>
