<svg width="16" height="19" viewBox="0 0 16 19" fill="none" xmlns="http://www.w3.org/2000/svg">
<path d="M6.62761 12.6415H2.18317V17.0859M10.1832 5.53038H14.6276V1.08594M1.8125 6.42194C2.31099 5.18856 3.14545 4.11973 4.22106 3.33693C5.29667 2.55413 6.5703 2.08874 7.8972 1.99365C9.22411 1.89856 10.5511 2.17758 11.7273 2.79901C12.9036 3.42044 13.8819 4.35935 14.5512 5.50905M14.9992 11.7499C14.5008 12.9835 13.6663 14.0526 12.5906 14.8356C11.5149 15.6185 10.2411 16.084 8.91407 16.1791C7.58699 16.2742 6.25985 15.9951 5.08351 15.3735C3.90716 14.7519 2.92879 13.8128 2.25961 12.6628" stroke="black" stroke-width="2" stroke-linecap="round" stroke-linejoin="round"/>
</svg>
