<svg width="56" height="56" viewBox="0 0 56 56" fill="none" xmlns="http://www.w3.org/2000/svg">
<rect width="10.1818" height="10.1818" rx="1.275" fill="#CECECE"/>
<rect x="15.2734" width="10.1818" height="10.1818" rx="1.275" fill="#CECECE"/>
<rect x="30.5449" width="10.1818" height="10.1818" rx="1.275" fill="#CECECE"/>
<rect x="45.8184" width="10.1818" height="10.1818" rx="1.275" fill="#CECECE"/>
<rect y="15.2734" width="10.1818" height="10.1818" rx="1.275" fill="#CECECE"/>
<rect x="30.5449" y="15.2734" width="10.1818" height="10.1818" rx="1.275" fill="#CECECE"/>
<rect x="45.8184" y="15.2734" width="10.1818" height="10.1818" rx="1.275" fill="#CECECE"/>
<rect x="15.2734" y="30.5469" width="10.1818" height="10.1818" rx="1.275" fill="#CECECE"/>
<rect y="45.8203" width="10.1818" height="10.1818" rx="1.275" fill="#CECECE"/>
<rect x="15.2734" y="45.8203" width="10.1818" height="10.1818" rx="1.275" fill="#CECECE"/>
<rect x="30.5449" y="45.8203" width="10.1818" height="10.1818" rx="1.275" fill="#CECECE"/>
<rect x="45.8184" y="45.8203" width="10.1818" height="10.1818" rx="1.275" fill="#CECECE"/>
<rect x="30.5449" y="30.5469" width="10.1818" height="10.1818" rx="1.275" fill="#CECECE"/>
<rect x="45.8184" y="30.5469" width="10.1818" height="10.1818" rx="1.275" fill="#CECECE"/>
<rect x="15.2734" y="15.2734" width="10.1818" height="10.1818" rx="1.275" fill="#CECECE"/>
<rect y="30.5469" width="10.1818" height="10.1818" rx="1.275" fill="#CECECE"/>
</svg>
