<svg width="44" height="56" viewBox="0 0 44 56" fill="none" xmlns="http://www.w3.org/2000/svg">
<rect width="8" height="8" rx="1" fill="#CECECE"/>
<rect x="12" width="8" height="8" rx="1" fill="#CECECE"/>
<rect x="24" width="8" height="8" rx="1" fill="#CECECE"/>
<rect x="36" width="8" height="8" rx="1" fill="#CECECE"/>
<rect y="12" width="8" height="8" rx="1" fill="#CECECE"/>
<rect x="24" y="12" width="8" height="8" rx="1" fill="#CECECE"/>
<rect x="36" y="12" width="8" height="8" rx="1" fill="#CECECE"/>
<rect x="12" y="24" width="8" height="8" rx="1" fill="#CECECE"/>
<rect y="36" width="8" height="8" rx="1" fill="#CECECE"/>
<rect y="48" width="8" height="8" rx="1" fill="#CECECE"/>
<rect x="12" y="36" width="8" height="8" rx="1" fill="#CECECE"/>
<rect x="12" y="48" width="8" height="8" rx="1" fill="#CECECE"/>
<rect x="24" y="36" width="8" height="8" rx="1" fill="#CECECE"/>
<rect x="24" y="48" width="8" height="8" rx="1" fill="#CECECE"/>
<rect x="36" y="36" width="8" height="8" rx="1" fill="#CECECE"/>
<rect x="36" y="48" width="8" height="8" rx="1" fill="#CECECE"/>
<rect x="24" y="24" width="8" height="8" rx="1" fill="#CECECE"/>
<rect x="36" y="24" width="8" height="8" rx="1" fill="#CECECE"/>
<rect x="12" y="12" width="8" height="8" rx="1" fill="#CECECE"/>
<rect y="24" width="8" height="8" rx="1" fill="#CECECE"/>
</svg>
