<svg id="Capa_1" enable-background="new 0 0 493.87 493.87" height="512" viewBox="0 0 493.87 493.87" width="512" xmlns="http://www.w3.org/2000/svg"><g><g fill="#a79ba7"><path d="m54.952 119.926-53.504-16.225c-1.944-.59-1.925-3.349.027-3.912l56.629-16.316 47.675-12.077-4.118 60.348z"/><path d="m321.425 299.694c-3.434-2.315-8.096-1.407-10.411 2.026l-34.98 51.891c-.05.074-.099.149-.146.225l-49.431 79.306h-17.749c-4.142 0-7.5 3.358-7.5 7.5s3.358 7.5 7.5 7.5h21.912c2.589 0 4.995-1.335 6.365-3.533l4.605-7.388 5.494 7.756c1.406 1.985 3.688 3.165 6.12 3.165h16.476c4.142 0 7.5-3.358 7.5-7.5s-3.358-7.5-7.5-7.5h-12.598l-6.889-9.724 38.353-61.533 34.905-51.78c2.316-3.435 1.408-8.096-2.026-10.411z"/><path d="m246.482 364.866 17.106-29.414c2.083-3.581.868-8.171-2.713-10.254-3.58-2.082-8.171-.867-10.254 2.713l-17.043 29.305-32.686 52.087h-17.764c-4.142 0-7.5 3.358-7.5 7.5s3.358 7.5 7.5 7.5h21.912c2.581 0 4.981-1.327 6.353-3.514l4.633-7.383 5.477 7.732c1.406 1.985 3.688 3.165 6.12 3.165h16.476c4.142 0 7.5-3.358 7.5-7.5s-3.358-7.5-7.5-7.5h-12.598l-6.841-9.657 21.69-34.564c.047-.071.09-.143.132-.216z"/></g><g><path d="m206.675 124.259-3.088-8.406-.002.006-11.898-17.944-58.382-38.023-40.908 2.491-13.327 6.614 3.26 27.203 11.99 45.134-35.911 13.375 4.326 43.57c9.29 93.49 88.11 162.81 179.52 162.81 7.85 0 15.8-.51 23.8-1.56 29.06-3.82 56.65-15.07 80.09-32.66l20.76-15.59z" fill="#fae2c0"/><g><path d="m116.19 116.672c-4.142 0-7.5-3.358-7.5-7.5v-5.473c0-4.142 3.358-7.5 7.5-7.5s7.5 3.358 7.5 7.5v5.473c0 4.143-3.358 7.5-7.5 7.5z" fill="#7a6d79"/></g><path d="m305.906 348.486c-8 1.05-15.95 1.56-23.8 1.56-91.41 0-170.23-69.32-179.52-162.81l-7.147-71.97c-.421-4.244-.449-8.518-.082-12.767l.468-5.411c.938-10.857 4.393-21.149 9.844-30.149l-11.35-.201-31.294 10.221c-3.218 3.874-4.92 6.51-4.92 6.51l1.82 5c1.34 3.66 1.99 7.47 1.99 11.25 0 7.22-2.38 14.36-6.96 20.21l7.78 78.35c9.29 93.49 88.11 162.81 179.52 162.81 7.85 0 15.8-.51 23.8-1.56 14.812-1.947 29.262-5.832 42.955-11.496-1.026.154-2.074.317-3.104.453z" fill="#fddeb0"/><g id="XMLID_138_"><g><path d="m101.665 131.749c9.84 6.26 10.83 20.25 1.96 27.84l-41.28 34.79-7.39-74.45c3.16-4.04 5.27-8.69 6.28-13.56l1.79.8z" fill="#fdd79b"/></g></g><g id="XMLID_99_"><g><path d="m360.792 315.872 92.425 77.484c11.149 9.346 27.915 7.107 36.22-4.838 8.397-12.078 4.468-28.772-8.436-35.836l-80.121-43.862-72.202-33.82-3.945 16.341z" fill="#e19974"/><path d="m372.055 259.509-54.375-18.297-160.917-10.436-6.268 11.622c5.58 11.87 13.94 22.7 25.05 31.47 1.52 1.2 3.05 2.37 4.6 3.51l50.92 19.245 159.247-3.442 7.113-8.163z" fill="#d77f4a"/><path d="m255.655 142.419c-23.51-23.64-61.57-24.28-85.85-1.42l-.02.01c-16.56 15.58-25.61 35.86-27.32 56.58l8.03 12.902 187.941 40.938 5.559-20.149z" fill="#e19974"/><path d="m343.995 231.279 28.06 28.23c-76.96-1.93-151.02-7.38-221.56-17.11-6.6-14.05-9.31-29.55-8.03-44.81 51.71 16.39 201.53 33.69 201.53 33.69z" fill="#dc8758"/></g></g></g><path d="m200.945 108.659c-7.87-21.41-22.55-39.79-42.07-51.58-11.913-7.196-23.052-10.514-33.26-11.21l-.013.007-35.364 19.994-27.213 11.089 21.09-.77c30.26-1.1 60.24 6.2 86.61 21.1l32.86 18.57z" fill="#e19974"/><path d="m100.873 76.44c5.102-12.366 13.653-23.067 24.728-30.564l.013-.007c-30.857-2.102-53.198 19.774-62.59 31.09l21.09-.77c5.604-.204 11.197-.116 16.759.251z" fill="#dc8758"/><path d="m416.505 297.779c4.73 2.54 3.2 9.68-2.15 10.07l-103.73 7.51c-4.72.34-9.43.51-14.14.51-41.83 0-82.63-13.45-116.34-38.49 56.4 6.61 113.19 9.43 169.98 8.45l47.3-.81c3.55 3.57 7.61 6.6 12.05 8.99z" fill="#dc8758"/></g></svg>