<svg id="Capa_1" enable-background="new 0 0 511.996 511.996" viewBox="0 0 511.996 511.996" xmlns="http://www.w3.org/2000/svg"><g><path d="m438.158 309.587c-17.725-25.297-25.202-48.012-20.487-67.114 6.413-25.981 34.896-46.284 35.083-46.397l-19.924-13.846c-3.885 2.335-31.1 19.792-38.85 54.432-6.448 28.817 2.166 60.391 25.609 93.846 17.628 25.159 21.18 53.578 9.505 76.019-8.84 16.986-29.046 30.035-50.513 35.954 0 0-28.006-126.977-115.656-195.149-20.525-15.964-26.389-43.883-26.389-64.832 0 0 32.036-29.43 32.036-60.845v-104.921l-7.054-16.48c-4.271-.76-8.879.151-12.807 3.261-9.735 7.708-23.538 22.097-33.811 40.054-9.655-3.155-20.015-4.964-30.864-4.964s-21.209 1.809-30.864 4.964c-24.767-25.393-43.943-39.257-55.936-38.307-2.774 2.91-4.555 6.869-4.555 11.472v104.922c0 26.135 13.307 49.421 34.066 64.644l-3.351 9.31c-9.279 27.837-12.02 57.438-8.011 86.505l25.396 184.122c.89 6.451-3.176 12.254-9.318 14.419-6.156 2.17-11.481 6.103-15.368 11.191-.858 1.124-1.482 2.316-1.892 3.538l12.261 8.176h202.924c20.787 0 38.345-15.372 40.972-35.668 0 0 55.462-4.235 79.571-47.891 18.331-33.196 13.101-74.916-11.773-110.415z" fill="#605360"/><g><path d="m225.565 121.656c-4.591 0-8.305-3.715-8.305-8.305v-8.305c0-4.591 3.715-8.305 8.305-8.305 4.591 0 8.305 3.715 8.305 8.305v8.305c0 4.59-3.715 8.305-8.305 8.305z" fill="#fdd878"/></g><g><path d="m142.513 121.656c-4.591 0-8.305-3.715-8.305-8.305v-8.305c0-4.591 3.715-8.305 8.305-8.305s8.305 3.715 8.305 8.305v8.305c.001 4.59-3.714 8.305-8.305 8.305z" fill="#fdd878"/></g><path d="m188.023 167.862 14.949-19.932c2.464-3.285.12-7.973-3.986-7.973h-29.898c-4.106 0-6.45 4.688-3.986 7.973l14.949 19.932c1.992 2.658 5.979 2.658 7.972 0z" fill="#4e3d4d"/><g><path d="m51.157 171.486c-3.325 0-6.472-2.011-7.745-5.304-1.655-4.274.47-9.092 4.745-10.746 37.616-14.575 75.638-17.056 77.236-17.154 4.542-.268 8.516 3.204 8.8 7.778s-3.196 8.516-7.778 8.8c-.365.024-37.122 2.457-72.256 16.067-.99.381-2.004.559-3.002.559z" fill="#4e3d4d"/></g><g><path d="m84.394 208.17c-2.068 0-4.144-.77-5.758-2.32-3.301-3.179-3.406-8.435-.227-11.744 23.91-24.867 61.315-30.609 62.897-30.836 4.599-.73 8.743 2.466 9.416 6.999s-2.457 8.751-6.991 9.432c-.333.049-33.439 5.215-53.351 25.921-1.631 1.697-3.804 2.548-5.986 2.548z" fill="#4e3d4d"/></g><g fill="#4e3d4d"><path d="m446.791 311.449c-17.725-25.297-24.615-47.876-20.487-67.114 4.765-22.182 23.366-33.472 23.553-33.585 7.839-4.655 10.515-14.802 5.925-22.677-4.582-7.867-14.603-10.649-22.531-6.091-.059.034-.24.141-.421.249 3.266 8.818 1.237 18.821-5.347 25.881-6.856 7.351-14.299 18.217-17.414 32.736-5.142 23.95 2.636 50.909 23.123 80.131 21.249 30.325 25.224 65.176 10.633 93.222-11.496 22.1-34.859 38.149-64.418 44.88 1.741-124.539-63.994-192.23-102.306-220.877-16.065-12.012-25.672-30.57-26.468-50.516 9.187 3.974 19.156 9.715 27.058 17.936 1.63 1.695 3.804 2.547 5.986 2.547 2.068 0 4.144-.77 5.758-2.32 3.301-3.179 3.406-8.435.227-11.744-9.913-10.313-22.131-17.3-33.17-22.005 3.687-4.369 6.89-9.074 9.575-14.067 13.46 2.344 30.827 6.298 47.853 12.892.989.381 2.003.56 3.001.56 3.325 0 6.472-2.011 7.745-5.304 1.655-4.282-.47-9.092-4.745-10.746-16.862-6.532-33.775-10.622-47.481-13.17 1.858-6.602 2.952-13.482 2.952-20.61v-104.923c0-8.739-6.427-15.153-13.874-16.48v77.529c-10.616-15.408-26.615-27.444-45.635-33.887 23.424 15.036 38.765 39.788 38.765 67.839 0 9.525-1.852 18.638-5.099 27.159-3.997-.422-6.484-.589-6.864-.612-4.566-.316-8.516 3.196-8.8 7.778-.276 4.451 3.035 8.242 7.434 8.708-2.306 3.447-4.796 6.781-7.613 9.875-3.978-.923-6.546-1.317-6.934-1.373-4.623-.722-8.751 2.466-9.416 6.999-.386 2.597.568 5.003 2.228 6.787-15.522 11.07-35.034 17.728-56.292 17.728-11.219 0-21.918-1.928-31.847-5.291 14.879 9.551 32.992 15.212 52.591 15.212 11.339 0 22.15-1.965 32.168-5.398v1.064c0 21.121 10.164 40.797 27.051 53.483 37.955 28.515 102.36 94.875 102.073 216.391-.032 13.838-11.103 25.138-24.941 25.138h-84.987c3.439-9.646 12.572-16.61 23.385-16.61h58.136c4.591 0 8.305-3.715 8.305-8.305 0-4.591-3.715-8.305-8.305-8.305h-50.689c-35.4-18.175-51.848-60.963-32.372-102.178 4.713-9.974 13.06-17.359 21.743-24.165 3.55-2.782 4.236-7.906 1.521-11.527-2.741-3.666-7.964-4.396-11.63-1.655-23.22 17.438-36.538 44.072-36.538 73.092 0 27.734 12.32 53.001 32.958 70.095-12.051 5.394-21.113 16.31-23.814 29.558h-34.06v-182.709c0-4.591-3.715-8.305-8.305-8.305-4.591 0-8.305 3.715-8.305 8.305v182.713h-53.227c-2.6 7.725 3.32 16.61 12.261 16.61h211.227c20.786 0 38.345-15.372 40.972-35.668 35.265-6.896 65.187-26.187 79.902-54.463 17.501-33.643 13.101-74.918-11.774-110.417z"/><path d="m143.887 47.136c3.005-1.337 6.103-2.528 9.286-3.568-10.273-17.956-24.076-32.346-33.811-40.053-7.167-5.675-16.611-4.026-22.127 1.747 8.032 6.23 22.983 19.339 36.778 39.172 2.204 3.169 6.347 4.272 9.874 2.702z"/></g></g><g/><g/><g/><g/><g/><g/><g/><g/><g/><g/><g/><g/><g/><g/><g/></svg>