<svg version="1.1" id="Capa_1" xmlns="http://www.w3.org/2000/svg" xmlns:xlink="http://www.w3.org/1999/xlink" x="0px" y="0px" viewBox="0 0 512.001 512.001" style="enable-background:new 0 0 512.001 512.001;" xml:space="preserve" width="300" height="300" xmlns:svgjs="http://svgjs.dev/svgjs"><g width="100%" height="100%" transform="matrix(1,0,0,1,0,0)"><g>
	<path style="" d="M2.351,205.179c-10.048,10.213,15.363,51.057,15.363,51.057S-7.697,297.08,2.351,307.293&#xA;&#9;&#9;c20.364,20.699,104.322-51.057,104.322-51.057S22.715,184.48,2.351,205.179z" fill="#98aaa4" fill-opacity="1" data-original-color="#a5c6b8ff" stroke="none" stroke-opacity="1"/>
	<path style="" d="M388.028,171.088c0,0-49.723-96.455-185.909-91.182c-8.751,0.339-14.77,8.938-12.076,17.271&#xA;&#9;&#9;l46.659,144.319L388.028,171.088z" fill="#98aaa4" fill-opacity="1" data-original-color="#a5c6b8ff" stroke="none" stroke-opacity="1"/>
	<path style="" d="M388.028,340.912c0,0-49.723,96.455-185.909,91.182c-8.751-0.339-14.77-8.938-12.076-17.271&#xA;&#9;&#9;l46.659-144.319L388.028,340.912z" fill="#98aaa4" fill-opacity="1" data-original-color="#a5c6b8ff" stroke="none" stroke-opacity="1"/>
</g><path style="" d="M492.75,258.291c1.528-4.038,5.955-12.485,17.825-19.892c1.232-0.769,1.633-2.376,0.884-3.62&#xA;&#9;c-21.663-35.981-78.045-104.597-193.032-104.597c-99.998,0-194.592,86.126-224.393,115.997c-5.549,5.562-5.549,14.553,0,20.115&#xA;&#9;c29.801,29.871,124.395,115.997,224.393,115.997c115.281,0,171.655-68.965,193.195-104.87c0.769-1.282,0.325-2.941-0.968-3.69&#xA;&#9;c-9.927-5.743-14.673-9.324-16.868-11.249C492.593,261.436,492.189,259.773,492.75,258.291z" fill="#c1e2d7" fill-opacity="1" data-original-color="#cdeae0ff" stroke="none" stroke-opacity="1"/><path id="SVGCleanerId_0" style="" d="M510.653,273.73c-9.927-5.743-14.673-9.324-16.869-11.249&#xA;&#9;c-1.191-1.045-1.596-2.708-1.035-4.19c1.528-4.038,5.955-12.485,17.825-19.892c1.232-0.769,1.633-2.376,0.884-3.62&#xA;&#9;c-5.303-8.808-12.693-19.573-22.508-30.808c-1.955,5.931-6.624,15.193-15.856,31.193c-20.449,35.15-76.737,107.214-194.58,107.214&#xA;&#9;c-73.593,0-144.257-46.646-188.324-83.187c0.55,2.601,1.825,5.079,3.843,7.103c29.801,29.871,124.395,115.997,224.393,115.997&#xA;&#9;c115.281,0,171.655-68.965,193.195-104.87C512.391,276.138,511.947,274.479,510.653,273.73z" fill="#a3c6b8" fill-opacity="1" data-original-color="#bad6cbff" stroke="none" stroke-opacity="1"/><path id="SVGCleanerId_1" style="" d="M363.928,256c0,45.845,10.908,87.063,28.266,115.572l0.04-0.002&#xA;&#9;c66.756-20.792,103.07-66.952,119.388-94.15c0.769-1.282,0.325-2.941-0.968-3.69c-9.927-5.743-14.673-9.324-16.869-11.249&#xA;&#9;c-1.191-1.045-1.596-2.708-1.035-4.19c1.528-4.038,5.955-12.485,17.825-19.892c1.232-0.769,1.633-2.376,0.884-3.62&#xA;&#9;c-16.417-27.268-52.783-73.27-119.476-93.955h-0.03C374.735,169.318,363.928,210.367,363.928,256z" fill="#dbfced" fill-opacity="1" data-original-color="#edfcf6ff" stroke="none" stroke-opacity="1"/><g>
	<path id="SVGCleanerId_0_1_" style="" d="M510.653,273.73c-9.927-5.743-14.673-9.324-16.869-11.249&#xA;&#9;&#9;c-1.191-1.045-1.596-2.708-1.035-4.19c1.528-4.038,5.955-12.485,17.825-19.892c1.232-0.769,1.633-2.376,0.884-3.62&#xA;&#9;&#9;c-5.303-8.808-12.693-19.573-22.508-30.808c-1.955,5.931-6.624,15.193-15.856,31.193c-20.449,35.15-76.737,107.214-194.58,107.214&#xA;&#9;&#9;c-73.593,0-144.257-46.646-188.324-83.187c0.55,2.601,1.825,5.079,3.843,7.103c29.801,29.871,124.395,115.997,224.393,115.997&#xA;&#9;&#9;c115.281,0,171.655-68.965,193.195-104.87C512.391,276.138,511.947,274.479,510.653,273.73z" fill="#a3c6b8" fill-opacity="1" data-original-color="#bad6cbff" stroke="none" stroke-opacity="1"/>
</g><g>
	<path id="SVGCleanerId_1_1_" style="" d="M363.928,256c0,45.845,10.908,87.063,28.266,115.572l0.04-0.002&#xA;&#9;&#9;c66.756-20.792,103.07-66.952,119.388-94.15c0.769-1.282,0.325-2.941-0.968-3.69c-9.927-5.743-14.673-9.324-16.869-11.249&#xA;&#9;&#9;c-1.191-1.045-1.596-2.708-1.035-4.19c1.528-4.038,5.955-12.485,17.825-19.892c1.232-0.769,1.633-2.376,0.884-3.62&#xA;&#9;&#9;c-16.417-27.268-52.783-73.27-119.476-93.955h-0.03C374.735,169.318,363.928,210.367,363.928,256z" fill="#dbfced" fill-opacity="1" data-original-color="#edfcf6ff" stroke="none" stroke-opacity="1"/>
</g><path style="" d="M510.653,273.73c-9.927-5.743-14.673-9.324-16.869-11.249c-1.191-1.045-1.596-2.708-1.035-4.19&#xA;&#9;c1.528-4.038,5.955-12.485,17.825-19.892c1.232-0.769,1.633-2.376,0.884-3.62c-0.599-0.995-1.233-2.022-1.885-3.064&#xA;&#9;c-0.192-0.306-0.392-0.62-0.589-0.93c-0.494-0.78-1.002-1.571-1.526-2.374c-0.217-0.333-0.435-0.666-0.657-1.003&#xA;&#9;c-0.618-0.936-1.257-1.887-1.915-2.85c-0.124-0.181-0.241-0.359-0.367-0.541c-0.806-1.172-1.644-2.364-2.511-3.571&#xA;&#9;c-0.148-0.207-0.305-0.418-0.455-0.626c-0.72-0.995-1.46-2.001-2.221-3.017c-0.242-0.323-0.487-0.646-0.733-0.971&#xA;&#9;c-0.745-0.983-1.51-1.974-2.294-2.972c-0.213-0.271-0.42-0.54-0.636-0.812c-1.017-1.282-2.06-2.574-3.142-3.877&#xA;&#9;c-0.021-0.025-0.043-0.05-0.064-0.075c-1.02-1.227-2.077-2.464-3.155-3.704c-0.119-0.137-0.242-0.274-0.361-0.41&#xA;&#9;c-1.957,5.932-6.626,15.191-15.853,31.184c-13.988,24.045-44.755,65.359-100.517,89.067c4.837,17.996,11.525,34.05,19.618,47.341&#xA;&#9;l0.04-0.002h0.001c43.778-13.635,74.463-38.18,95.003-61.133c0.038-0.042,0.075-0.085,0.114-0.127&#xA;&#9;c1.898-2.125,3.71-4.236,5.436-6.323c0.073-0.088,0.146-0.177,0.219-0.265c1.68-2.038,3.28-4.052,4.802-6.034&#xA;&#9;c0.099-0.129,0.197-0.257,0.295-0.386c0.736-0.964,1.459-1.922,2.158-2.869c0.002-0.003,0.004-0.005,0.006-0.008&#xA;&#9;c0.702-0.951,1.381-1.889,2.046-2.821c0.117-0.165,0.233-0.328,0.35-0.492c0.636-0.897,1.261-1.786,1.863-2.663&#xA;&#9;c0.008-0.012,0.017-0.024,0.025-0.036c0.611-0.888,1.2-1.763,1.776-2.629c0.123-0.185,0.245-0.368,0.366-0.552&#xA;&#9;c0.548-0.829,1.086-1.65,1.603-2.456c0.012-0.019,0.025-0.039,0.037-0.057c0.527-0.822,1.034-1.628,1.529-2.424&#xA;&#9;c0.118-0.19,0.235-0.378,0.351-0.566c0.483-0.782,0.957-1.556,1.409-2.31C512.391,276.138,511.947,274.479,510.653,273.73z" fill="#b9dbcf" fill-opacity="1" data-original-color="#dfefe8ff" stroke="none" stroke-opacity="1"/><circle style="" cx="417.14" cy="201.83" r="17.71" fill="#5e566a" fill-opacity="1" data-original-color="#5e566aff" stroke="none" stroke-opacity="1"/><g>
	<path style="" d="M300.533,321.632c0,16.332,13.287,29.619,29.618,29.619c4.276,0,7.742-3.466,7.742-7.742&#xA;&#9;&#9;s-3.466-7.742-7.742-7.742c-7.794,0-14.135-6.341-14.135-14.136c0-7.794,6.341-14.135,14.135-14.135&#xA;&#9;&#9;c4.276,0,7.742-3.466,7.742-7.742s-3.466-7.742-7.742-7.742c-7.794,0-14.135-6.341-14.135-14.136&#xA;&#9;&#9;c0-7.794,6.341-14.135,14.135-14.135c4.276,0,7.742-3.466,7.742-7.742c0-4.276-3.466-7.742-7.742-7.742&#xA;&#9;&#9;c-7.794,0-14.135-6.341-14.135-14.136c0-7.794,6.341-14.135,14.135-14.135c4.276,0,7.742-3.466,7.742-7.742&#xA;&#9;&#9;s-3.466-7.742-7.742-7.742c-7.794,0-14.135-6.341-14.135-14.135c0-7.795,6.341-14.136,14.135-14.136&#xA;&#9;&#9;c4.276,0,7.742-3.466,7.742-7.742s-3.466-7.742-7.742-7.742c-16.332,0-29.618,13.288-29.618,29.619&#xA;&#9;&#9;c0,8.656,3.734,16.457,9.674,21.877c-5.94,5.42-9.674,13.221-9.674,21.877c0,8.657,3.734,16.457,9.674,21.878&#xA;&#9;&#9;c-5.941,5.42-9.674,13.221-9.674,21.877c0,8.657,3.734,16.457,9.674,21.878C304.267,305.175,300.533,312.975,300.533,321.632z" fill="#dbfced" fill-opacity="1" data-original-color="#edfcf6ff" stroke="none" stroke-opacity="1"/>
	<path style="" d="M238.361,299.755c0,16.332,13.287,29.618,29.619,29.618c4.276,0,7.742-3.466,7.742-7.742&#xA;&#9;&#9;s-3.466-7.742-7.742-7.742c-7.795,0-14.136-6.341-14.136-14.135c0-7.795,6.341-14.136,14.136-14.136&#xA;&#9;&#9;c4.276,0,7.742-3.466,7.742-7.742s-3.466-7.742-7.742-7.742c-7.795,0-14.136-6.341-14.136-14.135&#xA;&#9;&#9;c0-7.795,6.341-14.136,14.136-14.136c4.276,0,7.742-3.466,7.742-7.742s-3.466-7.742-7.742-7.742&#xA;&#9;&#9;c-7.795,0-14.136-6.341-14.136-14.135c0-7.794,6.341-14.135,14.136-14.135c4.276,0,7.742-3.466,7.742-7.742&#xA;&#9;&#9;s-3.466-7.742-7.742-7.742c-16.332,0-29.619,13.287-29.619,29.618c0,8.657,3.734,16.457,9.675,21.877&#xA;&#9;&#9;c-5.941,5.421-9.675,13.221-9.675,21.878c0,8.657,3.734,16.457,9.675,21.877C242.095,283.298,238.361,291.098,238.361,299.755z" fill="#dbfced" fill-opacity="1" data-original-color="#edfcf6ff" stroke="none" stroke-opacity="1"/>
	<path style="" d="M176.19,277.877c0,16.332,13.287,29.619,29.619,29.619c4.275,0,7.742-3.466,7.742-7.742&#xA;&#9;&#9;s-3.466-7.742-7.742-7.742c-7.794,0-14.136-6.341-14.136-14.136c0-7.794,6.341-14.135,14.136-14.135&#xA;&#9;&#9;c4.275,0,7.742-3.466,7.742-7.742c0-4.276-3.466-7.742-7.742-7.742c-7.794,0-14.136-6.341-14.136-14.136&#xA;&#9;&#9;c0-7.794,6.341-14.135,14.136-14.135c4.275,0,7.742-3.466,7.742-7.742s-3.466-7.742-7.742-7.742&#xA;&#9;&#9;c-16.332,0-29.619,13.287-29.619,29.618c0,8.657,3.734,16.457,9.675,21.878C179.924,261.42,176.19,269.221,176.19,277.877z" fill="#dbfced" fill-opacity="1" data-original-color="#edfcf6ff" stroke="none" stroke-opacity="1"/>
</g><g>
</g><g>
</g><g>
</g><g>
</g><g>
</g><g>
</g><g>
</g><g>
</g><g>
</g><g>
</g><g>
</g><g>
</g><g>
</g><g>
</g><g>
</g></g></svg>