<svg width="512" height="512" viewBox="0 0 512 512" fill="none" xmlns="http://www.w3.org/2000/svg">
<path d="M373.385 208.676C363.185 218.928 349.074 225.284 333.505 225.284H297.836L298.62 226.754C302.314 233.686 304.266 241.521 304.266 249.411V254.957C296.367 259.542 291.485 267.986 291.485 277.137C291.485 282.991 293.498 288.676 297.169 293.223C288.427 307.476 272.719 316.3 256.001 316.3C239.283 316.3 223.575 307.477 214.833 293.224C218.503 288.676 220.517 282.993 220.517 277.137C220.517 267.985 215.635 259.542 207.736 254.957V249.411C207.736 241.522 209.689 233.687 213.382 226.754L214.166 225.284H178.497C162.927 225.284 148.816 218.927 138.617 208.676C99.225 245.946 74.209 301.608 74.209 363.808C74.209 364.295 74.211 364.781 74.214 365.267C74.656 435.514 131.955 492.133 202.203 492.133H309.802C380.05 492.133 437.349 435.514 437.791 365.267C437.794 364.781 437.796 364.295 437.796 363.808C437.793 301.608 412.776 245.947 373.385 208.676Z" fill="#FFDCAB"/>
<path d="M374.08 209.332C366.48 216.977 356.75 222.492 345.886 224.911C376.351 261.239 395.007 310.086 395.007 363.807C395.007 364.294 395.006 364.78 395.002 365.266C394.611 427.428 349.694 478.91 290.683 489.939C290.613 490.68 290.497 491.412 290.328 492.132H309.798C380.046 492.132 437.345 435.513 437.787 365.266C437.79 364.78 437.792 364.294 437.792 363.807C437.793 301.973 413.072 246.598 374.08 209.332Z" fill="#EEBE8B"/>
<path d="M328.676 418.4C326.937 411.911 327.816 405.157 331.151 399.382L346.05 373.576C350.508 365.855 358.857 361.059 367.839 361.059C367.908 361.059 367.976 361.065 368.045 361.066C365.606 338.606 357.891 317.966 346.32 300.743H317.118C310.213 300.743 303.673 297.726 299.175 292.465L298.24 291.371L297.506 292.608C288.846 307.205 272.942 316.272 256 316.272C239.059 316.272 223.155 307.205 214.495 292.608L213.761 291.371L212.826 292.465C208.329 297.726 201.788 300.743 194.883 300.743H165.681C154.11 317.966 146.395 338.606 143.956 361.066C144.025 361.065 144.093 361.059 144.162 361.059C153.144 361.059 161.494 365.855 165.951 373.576L180.85 399.382C184.184 405.157 185.063 411.911 183.325 418.4C182.162 422.74 179.906 426.578 176.824 429.655C184.315 433.103 192.642 435.022 201.362 435.022H310.64C319.36 435.022 327.687 433.103 335.178 429.655C332.095 426.579 329.839 422.74 328.676 418.4Z" fill="white"/>
<path d="M328.676 418.4C326.937 411.911 327.816 405.157 331.151 399.382L346.05 373.576C350.508 365.855 358.857 361.059 367.839 361.059C367.908 361.059 367.976 361.065 368.045 361.066C365.606 338.606 357.891 317.966 346.32 300.743H317.118C310.213 300.743 303.673 297.726 299.175 292.465L298.24 291.371L297.506 292.608C295.883 295.343 294.006 297.883 291.916 300.207C306.308 321.381 314.868 347.777 314.868 376.421C314.868 376.723 314.867 377.025 314.865 377.327C314.86 378.146 314.842 378.962 314.812 379.775C313.672 410.759 287.634 435.021 256.63 435.021H310.64C319.36 435.021 327.687 433.102 335.178 429.654C332.095 426.579 329.839 422.74 328.676 418.4Z" fill="#F2FBFF"/>
<path d="M172.172 434.499C159.753 441.669 143.725 437.375 136.555 424.955L121.656 399.149C114.486 386.73 118.78 370.702 131.2 363.532C143.619 356.362 159.647 360.656 166.817 373.076L181.716 398.882C188.886 411.301 184.591 427.329 172.172 434.499Z" fill="#FDB4BA"/>
<path d="M181.715 398.881L166.816 373.075C159.646 360.656 143.618 356.361 131.199 363.532C127.957 365.404 125.275 367.882 123.2 370.739C132.259 370.709 141.11 375.381 145.941 383.748L160.84 409.554C166.139 418.731 165.17 429.876 159.295 437.964C163.683 437.95 168.119 436.838 172.171 434.499C184.59 427.328 188.885 411.3 181.715 398.881Z" fill="#FE99A0"/>
<path d="M339.827 434.498C327.408 427.328 323.113 411.3 330.283 398.881L345.182 373.075C352.352 360.656 368.38 356.361 380.799 363.531C393.218 370.701 397.513 386.729 390.343 399.148L375.444 424.954C368.273 437.374 352.246 441.668 339.827 434.498Z" fill="#FDB4BA"/>
<path d="M380.8 363.534C376.505 361.054 371.779 359.948 367.137 360.072C373.244 368.186 374.313 379.527 368.937 388.839L354.038 414.645C349.347 422.77 340.866 427.415 332.084 427.65C334.122 430.358 336.72 432.706 339.828 434.5C352.247 441.67 368.275 437.376 375.445 424.957L390.344 399.151C397.514 386.732 393.219 370.704 380.8 363.534Z" fill="#FE99A0"/>
<path d="M256 512C275.201 512 290.765 501.439 290.765 488.41C290.765 475.382 275.201 464.82 256 464.82C236.8 464.82 221.235 475.382 221.235 488.41C221.235 501.439 236.8 512 256 512Z" fill="#EEBE8B"/>
<path d="M256 464.82C251.399 464.82 247.011 465.432 242.992 466.534C255.746 470.029 264.749 478.504 264.749 488.411C264.749 498.318 255.746 506.792 242.992 510.288C247.011 511.389 251.399 512.001 256 512.001C275.2 512.001 290.765 501.439 290.765 488.411C290.765 475.382 275.2 464.82 256 464.82Z" fill="#F0A96D"/>
<path d="M159.103 87.5758L171.039 62.3528C178.731 46.3928 193.532 35.0298 210.515 31.3558C204.789 25.0108 198.626 19.2238 192.216 14.1908C178.242 3.37482 163.079 -3.78518 153.529 2.13482C143.627 7.44582 142.247 24.1568 144.627 41.6668C146.817 56.9838 151.788 72.8848 159.103 87.5758Z" fill="#FDB4BA"/>
<path d="M170.677 24.9968C176.853 29.8458 182.795 35.4008 188.343 41.4748C194.895 36.5958 202.453 33.1008 210.515 31.3568C204.789 25.0118 198.626 19.2248 192.216 14.1918C178.242 3.3748 163.079 -3.7852 153.529 2.1348C150.026 4.0138 147.594 7.3238 146.013 11.5858C153.71 13.4698 162.402 18.5918 170.677 24.9968Z" fill="#FE99A0"/>
<path d="M340.942 62.3598L353.082 87.1978C360.295 72.6118 365.202 56.8518 367.373 41.6668C369.753 24.1568 368.373 7.44482 358.471 2.13482C348.921 -3.78518 333.758 3.37482 319.784 14.1908C313.372 19.2248 307.209 25.0138 301.481 31.3598C318.457 35.0388 333.25 46.4008 340.942 62.3598Z" fill="#FDB4BA"/>
<path d="M358.471 2.13638C353.201 -1.13062 346.22 -0.408617 338.674 2.70738C347.702 8.56438 348.916 24.7424 346.616 41.6684C345.572 48.9674 343.89 56.3994 341.63 63.7704L353.082 87.2004C360.295 72.6144 365.202 56.8544 367.373 41.6694C369.753 24.1584 368.373 7.44638 358.471 2.13638Z" fill="#FE99A0"/>
<path d="M374.935 129.56L341.87 61.9109C332.186 41.8189 311.853 29.0469 289.549 29.0469H222.43C200.126 29.0469 179.792 41.8189 170.109 61.9109L139.024 127.6C128.07 138.05 121.21 152.757 121.21 168.998C121.21 200.505 146.989 226.284 178.496 226.284H333.505C365.012 226.284 390.791 200.505 390.791 168.998C390.79 153.748 384.74 139.852 374.935 129.56Z" fill="#FFEFD3"/>
<path d="M374.935 129.56L341.87 61.9109C332.187 41.8189 311.853 29.0469 289.549 29.0469H257.45C279.754 29.0469 300.088 41.8189 309.771 61.9109L342.837 129.56C352.641 139.852 358.692 153.748 358.692 168.998C358.692 200.505 332.913 226.284 301.406 226.284H333.505C365.012 226.284 390.791 200.505 390.791 168.998C390.79 153.748 384.74 139.852 374.935 129.56Z" fill="#FFDCAB"/>
<path d="M298.179 223.947C295.055 224.795 291.774 225.256 288.386 225.256C275.58 225.256 263.797 218.805 256.867 208L256 206.648L255.133 208C248.203 218.805 236.42 225.256 223.614 225.256C220.226 225.256 216.945 224.795 213.821 223.948C209.324 231.38 206.735 240.094 206.735 249.414V255.544C214.352 259.733 219.516 267.833 219.516 277.14C219.516 283.247 217.289 288.83 213.609 293.134C222.192 307.6 237.96 317.303 256 317.303C274.041 317.303 289.808 307.601 298.392 293.134C294.712 288.83 292.485 283.246 292.485 277.14C292.485 267.832 297.649 259.733 305.266 255.544V249.414C305.266 240.093 302.676 231.379 298.179 223.947Z" fill="#DF9867"/>
<path d="M292.485 277.141C292.485 267.833 297.649 259.734 305.266 255.545V249.415C305.266 240.095 302.676 231.381 298.18 223.949C295.056 224.797 291.775 225.258 288.387 225.258C284.2 225.258 280.127 224.556 276.292 223.25C281.057 230.83 283.815 239.799 283.815 249.415V268.039C283.815 291.562 267.324 311.222 245.275 316.12C248.729 316.887 252.315 317.305 256 317.305C274.041 317.305 289.808 307.603 298.392 293.136C294.712 288.831 292.485 283.248 292.485 277.141Z" fill="#C57A44"/>
<path d="M256.867 208L256 206.648L255.133 208C252.004 212.879 247.879 216.859 243.123 219.769V315.591C247.229 316.7 251.543 317.302 256 317.302C260.457 317.302 264.771 316.7 268.877 315.591V219.769C264.122 216.859 259.996 212.879 256.867 208Z" fill="#BB5D4C"/>
<path d="M288.386 149.367H223.614C202.374 149.367 185.155 166.586 185.155 187.826C185.155 209.066 202.373 226.285 223.614 226.285C237.218 226.285 249.163 219.215 256 208.556C262.837 219.216 274.782 226.285 288.386 226.285C309.626 226.285 326.845 209.066 326.845 187.826C326.845 166.586 309.626 149.367 288.386 149.367Z" fill="white"/>
<path d="M288.386 149.367H274.158C274.952 151.046 275.518 152.848 275.821 154.743C287.104 161.446 294.671 173.749 294.671 187.825C294.671 203.316 285.507 216.66 272.308 222.752C277.201 225.011 282.642 226.283 288.386 226.283C309.626 226.283 326.845 209.064 326.845 187.824C326.845 166.584 309.626 149.367 288.386 149.367Z" fill="#F2FBFF"/>
<path d="M256 178.044C267.101 178.044 276.1 169.045 276.1 157.944C276.1 146.843 267.101 137.844 256 137.844C244.899 137.844 235.9 146.843 235.9 157.944C235.9 169.045 244.899 178.044 256 178.044Z" fill="#FDB4BA"/>
<path d="M255.999 137.844C252.751 137.844 249.694 138.632 246.979 140C253.545 143.307 258.059 150.091 258.059 157.945C258.059 165.799 253.545 172.582 246.979 175.89C249.694 177.258 252.751 178.046 255.999 178.046C267.1 178.046 276.1 169.047 276.1 157.946C276.1 146.844 267.1 137.844 255.999 137.844Z" fill="#FE99A0"/>
<path d="M213.12 125.283C208.978 125.283 205.62 121.925 205.62 117.783V102.754C205.62 98.6119 208.978 95.2539 213.12 95.2539C217.262 95.2539 220.62 98.6119 220.62 102.754V117.783C220.62 121.925 217.262 125.283 213.12 125.283Z" fill="#7A6D79"/>
<path d="M298.88 125.283C294.738 125.283 291.38 121.925 291.38 117.783V102.754C291.38 98.6119 294.738 95.2539 298.88 95.2539C303.022 95.2539 306.38 98.6119 306.38 102.754V117.783C306.38 121.925 303.022 125.283 298.88 125.283Z" fill="#7A6D79"/>
<path d="M367.303 113.945C353.96 119.593 344.598 132.807 344.598 148.208C344.598 168.747 361.248 185.397 381.787 185.397C384.098 185.397 386.356 185.176 388.55 184.772C389.998 179.754 390.79 174.465 390.79 168.998C390.79 153.749 384.739 139.852 374.935 129.56L367.303 113.945Z" fill="#EEBE8B"/>
<path d="M167.402 148.208C167.402 133.06 158.34 120.036 145.346 114.238L139.023 127.599C128.07 138.05 121.21 152.757 121.21 168.998C121.21 174.466 122.003 179.755 123.45 184.773C125.644 185.176 127.902 185.398 130.213 185.398C150.752 185.397 167.402 168.747 167.402 148.208Z" fill="#EEBE8B"/>
<path d="M194.883 309.27H149.958C145.816 309.27 142.458 305.912 142.458 301.77C142.458 297.628 145.816 294.27 149.958 294.27H194.883C204.33 294.27 212.016 286.584 212.016 277.137C212.016 267.69 204.33 260.004 194.883 260.004H149.958C145.816 260.004 142.458 256.646 142.458 252.504C142.458 248.362 145.816 245.004 149.958 245.004H194.883C212.601 245.004 227.016 259.419 227.016 277.137C227.016 294.855 212.601 309.27 194.883 309.27Z" fill="#EEBE8B"/>
<path d="M362.042 309.27H317.117C299.399 309.27 284.984 294.855 284.984 277.137C284.984 259.419 299.399 245.004 317.117 245.004H362.042C366.184 245.004 369.542 248.362 369.542 252.504C369.542 256.646 366.184 260.004 362.042 260.004H317.117C307.67 260.004 299.984 267.69 299.984 277.137C299.984 286.584 307.67 294.27 317.117 294.27H362.042C366.184 294.27 369.542 297.628 369.542 301.77C369.542 305.912 366.185 309.27 362.042 309.27Z" fill="#EEBE8B"/>
</svg>
