<svg width="300" height="300" viewBox="0 0 300 300" fill="none" xmlns="http://www.w3.org/2000/svg">
<g clip-path="url(#clip0_620_19518)">
<path d="M262.595 103.189C260.781 103.189 259.046 102.149 258.247 100.389C257.156 97.9893 258.216 95.1586 260.618 94.0676C265.731 91.7432 270.441 88.7561 274.346 85.7368C274.185 85.5551 274.027 85.3682 273.871 85.1842C269.935 80.5325 268.298 74.2026 269.702 69.0563C270.832 64.9038 273.824 61.7866 278.128 60.2825C282.814 58.6319 287.856 59.7182 291.283 63.1038C294.852 66.634 295.935 71.8495 294.179 77.0608C293.283 79.7069 291.222 82.7473 288.366 85.8557C293.123 89.6444 297.478 92.1159 297.543 92.151C299.849 93.4336 300.679 96.3411 299.397 98.6444C298.112 100.955 295.205 101.783 292.904 100.498C292.822 100.454 287.212 97.3061 281.29 92.403C276.34 96.3762 270.487 100.069 264.568 102.76C263.928 103.051 263.257 103.189 262.595 103.189ZM282.511 69.0797C282.113 69.0797 281.698 69.1495 281.283 69.2965C279.569 69.8959 279.116 70.8235 278.914 71.5676C278.352 73.6336 279.317 76.837 281.161 79.0149C281.25 79.1221 281.341 79.227 281.432 79.3319C283.386 77.2079 284.68 75.3352 285.13 74.0063C285.701 72.3112 285.496 70.8118 284.568 69.896C284.024 69.3592 283.3 69.0797 282.511 69.0797Z" fill="#FF9CA7"/>
<path d="M274.323 175.199C284.475 162.877 297.643 137.27 280.899 111.545C237.127 44.2945 107.203 82.3963 65.8183 94.0359C60.0117 95.6689 47.6689 99.8039 40.6136 102.197C37.4888 103.257 35.1169 105.654 33.6615 108.615C27.4183 121.317 10.2322 130.392 2.73746 133.863C0.670268 134.82 -0.407857 137.128 0.144682 139.338L3.18277 151.491C3.65269 153.371 5.19136 154.787 7.11031 155.058C8.46148 155.248 10.2199 155.432 12.1412 155.556C14.7451 171.775 79.4472 179.889 79.4472 179.889L91.0869 219.383L86.4873 235.635C85.8005 238.062 87.6234 240.473 90.1459 240.473H100.803C102.746 240.473 104.376 239.009 104.583 237.077L108.424 201.321C108.973 196.215 108.887 191.089 108.321 186.013C140.548 195.029 207.2 196.686 244.428 187.631L255.034 197.696L258.615 222.041L250.001 234.51C248.259 237.032 250.064 240.473 253.13 240.473H263.324C265.014 240.473 266.501 239.358 266.975 237.736L279.594 194.494C280.564 191.171 280.297 187.608 278.844 184.465L274.323 175.199Z" fill="#FFB6BF"/>
<path d="M50.4965 80.5968C44.3717 94.0856 45.9842 104.098 47.4039 108.715C47.885 110.279 49.6141 111.047 51.1059 110.375L69.7492 101.986C71.1754 101.344 71.7819 99.5882 71.0313 98.2165C64.6727 86.5979 57.884 81.4452 54.284 79.3669C52.9235 78.5811 51.1457 79.1665 50.4965 80.5968Z" fill="#FF9CA7"/>
<path d="M39.5014 133.035C36.8641 133.035 34.7031 130.897 34.7031 128.26C34.7031 125.622 36.8178 123.484 39.4551 123.484H39.502C42.1393 123.484 44.2773 125.622 44.2773 128.26C44.2768 130.897 42.1387 133.035 39.5014 133.035Z" fill="#6D342E"/>
<path d="M28.8486 151.759C25.8574 153.007 20.5312 154.678 12.1406 155.557C12.6475 158.715 15.5279 161.562 19.8076 164.105C25.623 163.069 29.8342 161.686 32.7275 160.463C35.523 159.28 36.4102 155.778 34.5193 153.404L34.2697 153.09C32.9754 151.466 30.7652 150.96 28.8486 151.759Z" fill="#F4828A"/>
<path d="M2.73648 133.865C0.669291 134.822 -0.408834 137.13 0.143705 139.34L3.18179 151.493C3.65171 153.374 5.19039 154.79 7.10933 155.061C8.4605 155.251 10.2189 155.434 12.1402 155.559L6.68218 131.934C5.20093 132.695 3.85503 133.347 2.73648 133.865Z" fill="#FF9CA7"/>
<path d="M244.427 187.631L237.565 181.674C234.943 179.398 231.466 178.39 228.019 178.804C176.129 185.039 130.483 175.715 113.575 171.515C110.176 170.671 107.005 173.464 107.371 176.947L108.32 186.013C140.547 195.03 207.198 196.686 244.427 187.631Z" fill="#FF9CA7"/>
<path d="M27.6543 167.883C47.5574 175.882 79.4465 179.889 79.4465 179.889L77.7221 173.711C76.6809 169.979 73.0949 167.561 69.25 168.04C60.3725 169.147 43.8402 170.474 27.6543 167.883Z" fill="#FF9CA7"/>
<path d="M253.541 229.387L250.001 234.512C248.258 237.034 250.064 240.476 253.129 240.476H263.324C265.014 240.476 266.501 239.361 266.974 237.738L269.411 229.387H253.541Z" fill="#F17480"/>
<path d="M90.1453 240.475H100.802C102.745 240.475 104.375 239.01 104.583 237.079L105.409 229.387H88.2557L86.4867 235.637C85.8 238.064 87.6235 240.475 90.1453 240.475Z" fill="#F17480"/>
</g>
<defs>
<clipPath id="clip0_620_19518">
<rect width="300" height="300" fill="white"/>
</clipPath>
</defs>
</svg>
