<svg width="300" height="300" viewBox="0 0 300 300" fill="none" xmlns="http://www.w3.org/2000/svg">
<g clip-path="url(#clip0_620_19465)">
<path d="M77.6695 113.728C77.6695 113.728 109.472 71.7038 114.772 43.6878C117.898 27.1667 117.337 13.1475 116.351 4.42409C115.88 0.262764 110.796 -1.48333 107.849 1.49265C100.664 8.74714 89.891 20.729 85.6201 31.1938C81.3955 41.545 69.6627 85.202 67.4473 102.749L77.6695 113.728Z" fill="#E6ADAD"/>
<path d="M114.77 43.6859C109.471 71.7019 77.6729 113.729 77.6729 113.729L67.45 102.751C67.4418 102.65 67.4359 102.584 67.4277 102.482C77.2158 88.0654 92.9647 62.6609 96.5529 43.6859C98.9412 31.0437 99.1744 19.8634 98.7139 11.4025C101.913 7.64368 105.143 4.22415 107.859 1.48196C110.802 -1.48933 115.879 0.270243 116.35 4.42513C117.337 13.1474 117.898 27.1659 114.77 43.6859Z" fill="#474544"/>
<path d="M235.166 274.255C223.654 294.486 193.495 283.901 188.828 282.114C188.417 281.954 187.993 281.856 187.551 281.813C183.308 281.42 159.468 278.878 132.796 269.429L132.79 269.423C127.878 267.686 122.874 265.715 117.876 263.474C103.276 256.947 88.755 248.167 76.9108 236.397C70.9735 230.496 66.1108 224.725 62.1259 219.187C59.5407 215.595 57.3247 212.102 55.4333 208.737C44.6954 189.66 44.1798 174.648 44.4862 168.895C44.5846 167.102 44.2161 165.316 43.418 163.713L42.7302 162.326L39.6481 156.136C39.0405 154.915 37.8551 154.086 36.4981 153.932L27.5831 152.931C24.3657 152.569 21.5719 150.543 20.2214 147.596L16.7766 140.038C15.3458 136.906 15.7759 133.241 17.894 130.527C21.6516 125.732 27.5333 118.144 30.7202 113.729C35.454 107.177 48.9188 88.0457 77.8495 91.6006L77.8553 91.6064C79.0278 91.7418 80.2255 91.9258 81.4536 92.1467C107.585 96.8682 111.723 126.542 112.38 136.409C112.503 138.306 113.866 139.884 115.726 140.289L128.583 143.052C129.197 143.187 129.829 143.181 130.443 143.039C138.437 141.167 197.227 128.955 231.757 165.597C268.862 204.972 235.166 274.255 235.166 274.255Z" fill="#716B65"/>
<path d="M115.727 140.288L101.299 139.594C97.4982 139.594 94.2809 136.751 93.8508 132.976C92.7639 123.428 90.5473 102.098 77.8564 91.6055C79.0289 91.7408 80.2266 91.9248 81.4547 92.1457C107.586 96.8672 111.724 126.541 112.381 136.408C112.504 138.305 113.867 139.883 115.727 140.288Z" fill="#474544"/>
<path d="M226.837 264.033C226.837 264.033 259.866 240.181 277.236 249.267C294.606 258.354 276.1 289.777 252.037 291.292C227.973 292.807 217.751 281.875 217.751 281.875L226.837 264.033Z" fill="#716B65"/>
<path d="M252.038 291.294C246.69 291.631 242.03 291.349 238.015 290.711C259.916 286.1 275.296 257.808 258.964 249.267C258.565 249.058 258.159 248.868 257.742 248.696C264.779 246.811 271.778 246.412 277.236 249.267C294.606 258.354 276.1 289.777 252.038 291.294Z" fill="#474544"/>
<path d="M235.166 274.255C227.725 287.333 212.498 287.535 201.397 285.564C207.537 284.128 213.222 280.806 216.949 274.255C216.949 274.255 250.644 204.972 213.541 165.598C198.946 150.113 180.207 142.788 162.838 139.602C184.401 139.681 212.037 144.667 231.758 165.598C268.862 204.972 235.166 274.255 235.166 274.255Z" fill="#474544"/>
<path d="M210.558 245.636C210.558 245.636 206.475 269.064 190.889 280.167C189.303 281.298 188.504 283.235 188.903 285.141L190.176 291.237C191.12 295.757 187.67 300.001 183.053 300.001H108.95C104.847 300.001 101.521 296.676 101.521 292.573C101.521 289.028 104.025 285.978 107.502 285.287L136.557 279.509C138.707 279.082 139.472 276.41 137.878 274.906C130.454 267.898 116.606 251.002 126.888 229.582C140.517 201.187 177.999 204.48 177.999 204.48L210.558 245.636Z" fill="#716B65"/>
<path d="M190.888 280.165C189.302 281.295 188.504 283.231 188.901 285.137L190.173 291.237C191.119 295.755 187.668 299.998 183.051 299.998H164.834C169.451 299.998 172.902 295.755 171.956 291.237L170.896 286.165C170.381 283.707 171.331 281.186 173.315 279.646C182.999 272.134 188.597 258.53 191.388 249.628C192.882 244.863 197.9 242.153 202.716 243.475C207.251 244.721 209.813 249.512 208.329 253.974C205.722 261.812 200.487 273.326 190.888 280.165Z" fill="#474544"/>
<path d="M95.0621 202.323L104.527 236.775L82.4692 294.334C81.1608 297.748 77.8836 300.001 74.228 300.001H61.9848C58.7346 300.001 56.8578 296.314 58.7703 293.686L62.3797 288.727C63.4285 287.286 63.9073 285.512 63.7233 283.74C62.4899 271.893 58.0801 225.031 64.018 212.166C70.8319 197.401 95.0621 202.323 95.0621 202.323Z" fill="#716B65"/>
<path d="M96.8391 234.781C100.938 235.842 103.201 240.235 101.685 244.188L82.4672 294.333C81.1594 297.746 77.8805 300 74.2277 300H61.9846C61.3893 300 60.8426 299.877 60.3574 299.662C62.9854 298.919 65.1709 296.973 66.184 294.333L85.2516 240.921C86.9432 236.183 91.9699 233.52 96.8391 234.781Z" fill="#474544"/>
<path d="M92.8743 116.731C93.0688 118.124 93.7297 119.602 94.4592 120.675C94.4592 120.675 141.422 107.192 156.04 92.935C168.077 81.1952 184.551 67.7537 188.747 60.0422C190.748 56.3637 187.585 52.0172 183.464 52.7643C173.417 54.5854 157.72 58.2211 148.218 64.343C139.521 69.9475 109.191 95.2319 95.3024 109.355C93.3881 111.301 92.4963 114.028 92.8743 116.731Z" fill="#E6ADAD"/>
<path d="M183.465 52.7643C187.586 52.0172 190.748 56.3649 188.746 60.0434C184.549 67.7543 176.966 79.5574 164.932 91.2944C150.313 105.557 120.442 117.898 104.663 123.762C100.794 125.198 96.6811 123.744 94.458 120.673C110.901 114.128 134.306 103.402 146.708 91.2944C161.874 76.5094 169.966 61.6143 173.128 54.934C176.872 54.0322 180.427 53.3151 183.465 52.7643Z" fill="#474544"/>
<path d="M54.1742 126.854C51.6313 126.854 49.5693 124.793 49.5693 122.249V118.632C49.5693 116.089 51.6313 114.027 54.1742 114.027C56.7172 114.027 58.7791 116.089 58.7791 118.632V122.249C58.7791 124.793 56.7172 126.854 54.1742 126.854Z" fill="#ABC3FF"/>
<path d="M177.98 206.663C177.759 209.193 175.517 211.06 172.988 210.845C172.65 210.814 138.494 208.229 126.436 233.353C119.086 248.654 126.43 261.861 132.79 269.425C127.878 267.688 122.874 265.717 117.876 263.475C112.652 252.326 112.719 240.641 118.128 229.369C124.317 216.475 135.977 207.597 151.848 203.692C163.526 200.812 173.381 201.635 173.798 201.671C176.328 201.893 178.2 204.127 177.98 206.663Z" fill="#474544"/>
<path d="M72.785 205.245C68.4197 206.528 65.5644 208.75 64.0416 212.042C63.6303 212.938 62.6353 216.002 62.1262 219.188C59.541 215.597 57.325 212.103 55.4336 208.738C55.5133 208.548 55.5994 208.364 55.6791 208.179C58.307 202.5 63.3232 198.429 70.1939 196.409C72.6314 195.696 75.192 197.09 75.9104 199.534C76.6223 201.972 75.2283 204.533 72.785 205.245Z" fill="#474544"/>
<path d="M67.9105 146.527C67.5607 147.811 64.0545 158.475 42.7311 162.326L39.649 156.136C39.0414 154.915 37.8561 154.086 36.499 153.932C55.7904 151.759 58.9955 144.2 59.0137 144.127C59.677 141.671 62.2064 140.216 64.6621 140.879C67.1178 141.542 68.5674 144.071 67.9105 146.527Z" fill="#474544"/>
</g>
<defs>
<clipPath id="clip0_620_19465">
<rect width="300" height="300" fill="white"/>
</clipPath>
</defs>
</svg>
