<svg width="512" height="513" viewBox="0 0 512 513" fill="none" xmlns="http://www.w3.org/2000/svg">
<g clip-path="url(#clip0_695_11202)">
<path d="M512 268.371V482.998C512 489.198 506.974 494.225 500.773 494.225H315.93L284.09 474.225V257.145H500.773C506.974 257.144 512 262.171 512 268.371Z" fill="#F15252"/>
<path d="M500.773 257.145H471.583C477.783 257.145 482.81 262.171 482.81 268.372V482.999C482.81 489.199 477.784 494.226 471.583 494.226H500.773C506.973 494.226 512 489.2 512 482.999V268.372C512 262.172 506.974 257.145 500.773 257.145Z" fill="#C52020"/>
<path d="M284.09 398.203H512V445.006H284.09V398.203Z" fill="#FFB0B0"/>
<path d="M284.09 398.203H512V445.006H284.09V398.203Z" fill="#470808"/>
<path d="M482.81 398.203H512V445.006H482.81V398.203Z" fill="#600D00"/>
<path d="M494.213 169.873C505.386 138.983 489.402 104.884 458.511 93.7107C427.621 82.5376 393.522 98.5216 382.349 129.412C371.176 160.302 387.16 194.401 418.05 205.574C448.94 216.748 483.04 200.764 494.213 169.873Z" fill="#FFC44D"/>
<path d="M438.408 90.0039C434.297 90.0039 430.284 90.4209 426.408 91.2149C453.518 96.7669 473.91 120.755 473.91 149.506C473.91 178.257 453.518 202.246 426.408 207.797C430.284 208.591 434.297 209.008 438.408 209.008C471.27 209.008 497.91 182.368 497.91 149.506C497.91 116.644 471.27 90.0039 438.408 90.0039Z" fill="#E3A426"/>
<path d="M321.889 24.3877V488.266C321.889 491.557 319.221 494.224 315.931 494.224H5.958C2.667 494.224 0 491.556 0 488.266V24.3877C0 21.0967 2.668 18.4297 5.958 18.4297H25.772C28.529 18.4297 30.828 20.3857 31.457 23.0697C33.554 32.0097 41.576 38.6637 51.157 38.6637C60.738 38.6637 68.76 32.0097 70.857 23.0697C71.486 20.3857 73.786 18.4297 76.542 18.4297H98.963C101.72 18.4297 104.019 20.3857 104.648 23.0697C106.745 32.0097 114.767 38.6637 124.348 38.6637C133.929 38.6637 141.951 32.0097 144.048 23.0697C144.677 20.3857 146.977 18.4297 149.733 18.4297H172.154C174.911 18.4297 177.21 20.3857 177.839 23.0697C179.936 32.0097 187.958 38.6637 197.539 38.6637C207.12 38.6637 215.142 32.0097 217.239 23.0697C217.868 20.3857 220.168 18.4297 222.924 18.4297H245.345C248.102 18.4297 250.401 20.3857 251.03 23.0697C253.127 32.0097 261.149 38.6637 270.73 38.6637C280.311 38.6637 288.333 32.0097 290.43 23.0697C291.059 20.3857 293.359 18.4297 296.115 18.4297H315.929C319.221 18.4297 321.889 21.0967 321.889 24.3877Z" fill="#EFF196"/>
<path d="M315.93 18.4297H296.116C293.359 18.4297 291.06 20.3857 290.431 23.0697C290.408 23.1677 290.375 23.2617 290.35 23.3587C290.409 23.6947 290.454 24.0357 290.454 24.3877V488.266C290.454 491.557 287.786 494.224 284.496 494.224H315.931C319.222 494.224 321.889 491.556 321.889 488.266V24.3877C321.889 21.0967 319.221 18.4297 315.93 18.4297Z" fill="#D2D37A"/>
<path d="M178.963 408.855H267.84C270.614 408.855 272.863 411.104 272.863 413.878V443.125C272.863 445.899 270.614 448.148 267.84 448.148H178.963C176.189 448.148 173.94 445.899 173.94 443.125V413.878C173.94 411.104 176.189 408.855 178.963 408.855Z" fill="#F15252"/>
<path d="M411.799 334.957L434.221 357.379C438.244 361.402 444.767 361.402 448.79 357.379L471.212 334.957C475.235 330.934 475.235 324.411 471.212 320.388L448.79 297.966C444.767 293.943 438.244 293.943 434.221 297.966L411.799 320.388C407.776 324.411 407.776 330.934 411.799 334.957Z" fill="#FFD9D9"/>
<path d="M172.445 132.48C162.139 128.679 152.575 124.529 150.101 123.443C147.646 121.628 146.456 118.739 146.905 115.616C147.475 111.644 150.541 108.451 155.106 107.076C167.835 103.245 179.363 112.458 179.625 112.67C182.795 115.309 187.507 114.893 190.165 111.732C192.83 108.561 192.42 103.83 189.25 101.165C188.754 100.748 180.404 93.8657 168.445 91.7467V83.9687C168.445 79.8267 165.087 76.4688 160.945 76.4688C156.803 76.4688 153.445 79.8267 153.445 83.9687V92.0278C152.563 92.2238 151.676 92.4428 150.779 92.7128C140.632 95.7698 133.458 103.729 132.057 113.484C130.752 122.575 134.689 131.318 142.333 136.302C144.607 137.782 162.472 144.789 167.254 146.552C175.994 149.776 180.438 154.811 179.445 160.367C178.456 165.905 171.982 171.633 162.859 171.633C154.146 171.633 145.736 168.093 140.362 162.163C137.581 159.094 132.838 158.86 129.768 161.642C126.699 164.424 126.465 169.166 129.247 172.236C135.4 179.026 144.048 183.753 153.444 185.673V193.794C153.444 197.936 156.802 201.294 160.944 201.294C165.086 201.294 168.444 197.936 168.444 193.794V186.185C181.467 184.089 192.101 174.822 194.212 163.003C196.034 152.801 191.272 139.424 172.445 132.48Z" fill="#F15252"/>
<path d="M272.863 356H248.93C244.788 356 241.43 352.642 241.43 348.5C241.43 344.358 244.788 341 248.93 341H272.863C277.005 341 280.363 344.358 280.363 348.5C280.363 352.642 277.005 356 272.863 356Z" fill="#470808"/>
<path d="M169.964 356H49.0249C44.8829 356 41.5249 352.642 41.5249 348.5C41.5249 344.358 44.8829 341 49.0249 341H169.964C174.106 341 177.464 344.358 177.464 348.5C177.464 352.642 174.106 356 169.964 356Z" fill="#470808"/>
<path d="M272.863 311.199H248.93C244.788 311.199 241.43 307.841 241.43 303.699C241.43 299.557 244.788 296.199 248.93 296.199H272.863C277.005 296.199 280.363 299.557 280.363 303.699C280.363 307.841 277.005 311.199 272.863 311.199Z" fill="#470808"/>
<path d="M169.964 311.199H49.0249C44.8829 311.199 41.5249 307.841 41.5249 303.699C41.5249 299.557 44.8829 296.199 49.0249 296.199H169.964C174.106 296.199 177.464 299.557 177.464 303.699C177.464 307.841 174.106 311.199 169.964 311.199Z" fill="#470808"/>
<path d="M272.863 266.398H248.93C244.788 266.398 241.43 263.04 241.43 258.898C241.43 254.756 244.788 251.398 248.93 251.398H272.863C277.005 251.398 280.363 254.756 280.363 258.898C280.363 263.04 277.005 266.398 272.863 266.398Z" fill="#470808"/>
<path d="M169.964 266.398H49.0249C44.8829 266.398 41.5249 263.04 41.5249 258.898C41.5249 254.756 44.8829 251.398 49.0249 251.398H169.964C174.106 251.398 177.464 254.756 177.464 258.898C177.464 263.04 174.106 266.398 169.964 266.398Z" fill="#470808"/>
<path d="M209.448 355.999C205.306 355.999 201.948 352.641 201.948 348.499V258.898C201.948 254.756 205.306 251.398 209.448 251.398C213.59 251.398 216.948 254.756 216.948 258.898V348.499C216.948 352.641 213.59 355.999 209.448 355.999Z" fill="#470808"/>
</g>
<defs>
<clipPath id="clip0_695_11202">
<rect width="512" height="512" fill="white" transform="translate(0 0.332031)"/>
</clipPath>
</defs>
</svg>
