<svg width="513" height="513" viewBox="0 0 513 513" fill="none" xmlns="http://www.w3.org/2000/svg">
<g clip-path="url(#clip0_696_11917)">
<path d="M243.641 132.373C243.641 133.013 243.591 133.673 243.491 134.333L233.181 202.113L175.801 213.643L155.481 217.723L101.071 202.113L124.541 114.363L124.551 114.353L125.791 109.713C127.551 103.103 134.191 99.0232 140.891 100.423L233.371 119.763C239.431 121.023 243.641 126.373 243.641 132.373Z" fill="#FCFFD0"/>
<path d="M243.641 132.373C243.641 133.013 243.591 133.673 243.491 134.333L233.181 202.113L175.801 213.643L177.551 202.113L187.851 134.333C187.951 133.673 188.001 133.013 188.001 132.373C188.001 126.373 183.791 121.023 177.741 119.763L136.041 111.103C131.761 110.213 127.531 111.553 124.551 114.353L125.791 109.713C127.551 103.103 134.191 99.0232 140.891 100.423L233.371 119.763C239.431 121.023 243.641 126.373 243.641 132.373Z" fill="#F1D076"/>
<path d="M118.605 353.977L152.049 360.98L123.509 497.272L90.0657 490.269L118.605 353.977Z" fill="#FCFFD0"/>
<path d="M105.753 493.512L134.293 357.219L152.287 360.987L123.747 497.28L105.753 493.512Z" fill="#F1D076"/>
<path d="M386.041 202.012L333.871 214.942L322.671 217.722L253.931 202.242L243.511 134.472C243.411 133.812 243.351 133.162 243.351 132.522C243.341 126.512 247.541 121.162 253.601 119.892L299.531 110.202L346.051 100.392C352.751 98.9716 359.391 103.042 361.171 109.652L386.041 202.012Z" fill="#FCFFD0"/>
<path d="M386.04 202.012L333.87 214.942L330.41 202.102L308.08 119.132C306.9 114.742 303.58 111.492 299.53 110.202L346.05 100.392C352.75 98.9716 359.39 103.042 361.17 109.652L386.04 202.012Z" fill="#F1D076"/>
<path d="M397.336 489.719L363.892 496.756L335.214 360.463L368.657 353.426L397.336 489.719Z" fill="#FCFFD0"/>
<path d="M350.749 357.91L368.744 354.124L397.423 490.416L379.428 494.203L350.749 357.91Z" fill="#F1D076"/>
<path d="M101.074 202.113H233.184L216.942 308.878C210.906 348.58 172.758 375.068 133.447 366.847C94.136 358.626 69.793 319.074 80.17 280.274L101.074 202.113Z" fill="#FFD753"/>
<path d="M177.549 202.113L161.307 308.878C157.537 333.676 141.239 353.318 119.955 362.568C124.215 364.407 128.719 365.859 133.447 366.848C172.758 375.069 210.906 348.581 216.942 308.879L233.184 202.114H177.549V202.113Z" fill="#CE8717"/>
<path d="M353.834 366.847C314.523 375.068 276.375 348.58 270.339 308.878L254.097 202.113H386.207L407.111 280.274C417.488 319.074 393.145 358.625 353.834 366.847Z" fill="#FFD753"/>
<path d="M407.11 280.274L386.206 202.113H330.571L351.475 280.274C360.604 314.408 342.855 349.114 311.689 362.567C324.481 368.127 339.075 369.933 353.832 366.847C393.144 358.625 417.487 319.074 407.11 280.274Z" fill="#CE8717"/>
<path d="M53.436 115.606C49.293 115.606 45.936 112.248 45.936 108.106V98.0039C45.936 93.8619 49.293 90.5039 53.436 90.5039C57.579 90.5039 60.936 93.8619 60.936 98.0039V108.106C60.936 112.248 57.579 115.606 53.436 115.606Z" fill="#30B5B9"/>
<path d="M20.8869 96.8108C18.2949 96.8108 15.7749 95.4658 14.3849 93.0598C12.3139 89.4728 13.5429 84.8859 17.1299 82.8149L25.8779 77.7638C29.4639 75.6928 34.0519 76.9219 36.1229 80.5089C38.1939 84.0959 36.9649 88.6828 33.3779 90.7538L24.6299 95.8048C23.4499 96.4858 22.1599 96.8108 20.8869 96.8108Z" fill="#30B5B9"/>
<path d="M29.6219 64.2685C28.3499 64.2685 27.0599 63.9445 25.8789 63.2625L17.1309 58.2115C13.5439 56.1405 12.3149 51.5535 14.3859 47.9665C16.4559 44.3785 21.0419 43.1495 24.6309 45.2215L33.3789 50.2725C36.9659 52.3435 38.1949 56.9305 36.1239 60.5175C34.7349 62.9225 32.2139 64.2685 29.6219 64.2685Z" fill="#30B5B9"/>
<path d="M53.4351 50.5229C49.2921 50.5229 45.9351 47.1649 45.9351 43.0229V32.9219C45.9351 28.7799 49.2921 25.4219 53.4351 25.4219C57.5781 25.4219 60.9351 28.7799 60.9351 32.9219V43.0239C60.9351 47.1659 57.5781 50.5229 53.4351 50.5229Z" fill="#30B5B9"/>
<path d="M77.2497 64.2718C74.6577 64.2718 72.1377 62.9268 70.7477 60.5208C68.6767 56.9338 69.9057 52.3468 73.4927 50.2758L82.2407 45.2248C85.8257 43.1538 90.4147 44.3828 92.4857 47.9698C94.5567 51.5568 93.3277 56.1438 89.7407 58.2148L80.9927 63.2658C79.8117 63.9468 78.5217 64.2718 77.2497 64.2718Z" fill="#30B5B9"/>
<path d="M85.9838 96.8118C84.7118 96.8118 83.4218 96.4878 82.2408 95.8058L73.4918 90.7548C69.9048 88.6838 68.6758 84.0968 70.7468 80.5098C72.8168 76.9218 77.4018 75.6928 80.9918 77.7638L89.7408 82.8148C93.3278 84.8858 94.5568 89.4728 92.4858 93.0598C91.0968 95.4658 88.5758 96.8118 85.9838 96.8118Z" fill="#30B5B9"/>
<path d="M160.445 512.331C159.936 512.331 159.42 512.279 158.902 512.171L51.9 489.799C47.845 488.951 45.246 484.977 46.094 480.923C46.942 476.869 50.917 474.27 54.97 475.117L161.972 497.49C166.027 498.338 168.626 502.312 167.778 506.366C167.039 509.902 163.921 512.331 160.445 512.331Z" fill="#F1D076"/>
<path d="M326.836 512.331C323.36 512.331 320.242 509.901 319.503 506.365C318.654 502.31 321.254 498.336 325.309 497.489L432.31 475.116C436.365 474.272 440.338 476.868 441.186 480.922C442.035 484.977 439.435 488.951 435.38 489.798L328.379 512.171C327.861 512.279 327.344 512.331 326.836 512.331Z" fill="#F1D076"/>
<path d="M459.563 236.29C455.42 236.29 452.063 232.932 452.063 228.79V218.688C452.063 214.545 455.42 211.188 459.563 211.188C463.706 211.188 467.063 214.545 467.063 218.688V228.79C467.063 232.932 463.706 236.29 459.563 236.29Z" fill="#30B5B9"/>
<path d="M427.016 217.494C424.424 217.494 421.904 216.149 420.514 213.743C418.443 210.156 419.672 205.569 423.259 203.498L432.007 198.447C435.593 196.376 440.18 197.605 442.252 201.192C444.323 204.779 443.094 209.366 439.507 211.437L430.759 216.488C429.579 217.169 428.289 217.494 427.016 217.494Z" fill="#30B5B9"/>
<path d="M435.751 184.952C434.479 184.952 433.189 184.628 432.008 183.946L423.26 178.895C419.673 176.824 418.444 172.237 420.515 168.65C422.584 165.062 427.171 163.833 430.76 165.905L439.508 170.956C443.095 173.027 444.324 177.614 442.253 181.201C440.864 183.607 438.343 184.952 435.751 184.952Z" fill="#30B5B9"/>
<path d="M459.564 171.207C455.421 171.207 452.064 167.849 452.064 163.707V153.605C452.064 149.463 455.421 146.105 459.564 146.105C463.707 146.105 467.064 149.463 467.064 153.605V163.707C467.064 167.849 463.707 171.207 459.564 171.207Z" fill="#30B5B9"/>
<path d="M483.379 184.952C480.787 184.952 478.267 183.607 476.877 181.201C474.806 177.614 476.035 173.027 479.622 170.956L488.37 165.905C491.956 163.834 496.543 165.062 498.615 168.65C500.686 172.237 499.457 176.824 495.87 178.895L487.122 183.946C485.941 184.627 484.651 184.952 483.379 184.952Z" fill="#30B5B9"/>
<path d="M492.113 217.492C490.841 217.492 489.551 217.168 488.37 216.486L479.622 211.435C476.035 209.364 474.806 204.777 476.877 201.19C478.946 197.602 483.533 196.372 487.122 198.445L495.87 203.496C499.457 205.567 500.686 210.154 498.615 213.741C497.226 216.147 494.705 217.492 492.113 217.492Z" fill="#30B5B9"/>
<path d="M198.01 85.0076C195.038 85.0076 192.226 83.2296 191.049 80.3026L178.61 49.3566C177.065 45.5136 178.928 41.1456 182.772 39.6006C186.608 38.0586 190.982 39.9186 192.528 43.7626L204.967 74.7086C206.512 78.5516 204.649 82.9196 200.805 84.4646C199.888 84.8326 198.941 85.0076 198.01 85.0076Z" fill="#FD8087"/>
<path d="M289.27 85.0084C288.338 85.0084 287.392 84.8344 286.475 84.4654C282.631 82.9204 280.768 78.5524 282.313 74.7094L294.752 43.7634C296.298 39.9194 300.665 38.0574 304.508 39.6014C308.352 41.1464 310.215 45.5144 308.67 49.3574L296.231 80.3034C295.054 83.2294 292.242 85.0084 289.27 85.0084Z" fill="#FD8087"/>
<path d="M243.64 85.008C239.497 85.008 236.14 81.65 236.14 77.508V7.83203C236.14 3.69003 239.497 0.332031 243.64 0.332031C247.783 0.332031 251.14 3.69003 251.14 7.83203V77.508C251.14 81.65 247.783 85.008 243.64 85.008Z" fill="#FE99A0"/>
<path d="M120.741 284.334C124.883 284.334 128.242 280.976 128.242 276.833C128.242 272.69 124.883 269.332 120.741 269.332C116.598 269.332 113.24 272.69 113.24 276.833C113.24 280.976 116.598 284.334 120.741 284.334Z" fill="#FCFFD0"/>
<path d="M135.742 253.662C139.884 253.662 143.243 250.304 143.243 246.161C143.243 242.018 139.884 238.66 135.742 238.66C131.599 238.66 128.241 242.018 128.241 246.161C128.241 250.304 131.599 253.662 135.742 253.662Z" fill="#FCFFD0"/>
<path d="M178.067 323.002C182.21 323.002 185.568 319.644 185.568 315.501C185.568 311.358 182.21 308 178.067 308C173.925 308 170.566 311.358 170.566 315.501C170.566 319.644 173.925 323.002 178.067 323.002Z" fill="#F1D076"/>
<path d="M300.011 245.689C304.154 245.689 307.512 242.331 307.512 238.189C307.512 234.046 304.154 230.688 300.011 230.688C295.869 230.688 292.51 234.046 292.51 238.189C292.51 242.331 295.869 245.689 300.011 245.689Z" fill="#FCFFD0"/>
<path d="M366.098 318.564C370.241 318.564 373.599 315.206 373.599 311.063C373.599 306.921 370.241 303.562 366.098 303.562C361.955 303.562 358.597 306.921 358.597 311.063C358.597 315.206 361.955 318.564 366.098 318.564Z" fill="#F1D076"/>
</g>
<defs>
<clipPath id="clip0_696_11917">
<rect width="512" height="512" fill="white" transform="translate(0.5 0.332031)"/>
</clipPath>
</defs>
</svg>
