<svg width="512" height="513" viewBox="0 0 512 513" fill="none" xmlns="http://www.w3.org/2000/svg">
<g clip-path="url(#clip0_695_11292)">
<path d="M491.719 123.066C491.719 71.8677 463.592 24.8097 418.499 0.563705C417.219 -0.124295 415.668 0.802705 415.668 2.2557V289.097H482.902C487.771 289.097 491.719 285.15 491.719 280.28V123.066Z" fill="#B0C2C7"/>
<path d="M220.45 214.275C220.278 210.111 222.395 206.183 225.98 204.058C246.296 192.018 260.55 163.856 260.55 131.035C260.55 87.2575 235.192 51.7695 203.912 51.7695C172.632 51.7695 147.274 87.2575 147.274 131.035C147.274 163.856 161.527 192.017 181.844 204.058C185.43 206.183 187.546 210.111 187.374 214.275L184.285 289.098H223.539L220.45 214.275Z" fill="#B0C2C7"/>
<path d="M90.623 236.404C108.78 225.643 121.519 200.474 121.519 171.142C121.519 132.017 98.856 100.301 70.9 100.301C42.944 100.301 20.281 132.018 20.281 171.142C20.281 200.475 33.02 225.644 51.177 236.404C54.381 238.303 56.273 241.814 56.12 245.535L53.064 319.571H88.738L85.682 245.535C85.527 241.814 87.419 238.303 90.623 236.404Z" fill="#B0C2C7"/>
<path d="M360.264 204.89C376.97 196.496 388.434 179.204 388.434 159.234V76.3959C388.434 68.1259 381.73 61.4219 373.46 61.4219H301.28C293.01 61.4219 286.306 68.1259 286.306 76.3959V159.233C286.306 179.203 297.77 196.495 314.476 204.889C318.484 206.903 320.966 211.048 320.78 215.529L317.743 289.095H356.997L353.96 215.529C353.774 211.048 356.256 206.903 360.264 204.89Z" fill="#B0C2C7"/>
<path d="M426.038 4.92578C451.248 30.5608 465.964 65.4278 465.964 102.462V233.618C465.964 252.879 450.35 268.493 431.089 268.493H415.667V296.242L454.111 289.096H482.901C487.77 289.096 491.718 285.149 491.718 280.279V123.066C491.719 74.7848 466.705 30.1848 426.038 4.92578Z" fill="#5C6C6E"/>
<path d="M218.142 54.2891C228.429 68.6401 234.795 88.4931 234.795 110.427C234.795 138.233 224.564 162.696 209.083 176.843C200.018 185.127 194.824 196.813 195.331 209.082L197.558 263.021C197.681 266.004 195.296 268.49 192.31 268.49H185.134L184.283 289.094L204.454 299.076L223.537 289.094L220.448 214.271C220.276 210.107 222.393 206.179 225.978 204.054C246.294 192.014 260.548 163.852 260.548 131.031C260.55 94.1331 242.535 63.1231 218.142 54.2891Z" fill="#5C6C6E"/>
<path d="M82.028 102.02C90.546 114.697 95.765 131.765 95.765 150.54C95.765 175.223 86.745 196.957 73.067 209.639C64.57 217.517 60.086 228.813 60.564 240.391L62.757 293.501C62.88 296.484 60.495 298.97 57.509 298.97H53.914L53.063 319.574L71.137 324.605L88.737 319.574L85.681 245.538C85.527 241.816 87.419 238.306 90.624 236.407C108.781 225.646 121.52 200.477 121.52 171.145C121.519 137.369 104.631 109.116 82.028 102.02Z" fill="#5C6C6E"/>
<path d="M373.459 61.4219H362.679V138.63C362.679 154.502 355.437 168.683 344.078 178.048C334.023 186.338 328.365 198.805 328.902 211.825L331.016 263.023C331.139 266.006 328.754 268.492 325.768 268.492H318.592L317.741 289.096L337.368 301.477L356.995 289.096L353.958 215.53C353.773 211.049 356.255 206.903 360.262 204.89C376.968 196.496 388.432 179.204 388.432 159.234V76.3959C388.433 68.1259 381.729 61.4219 373.459 61.4219Z" fill="#5C6C6E"/>
<path d="M308.918 482.683C308.25 498.857 321.181 512.333 337.369 512.333C353.556 512.333 366.488 498.857 365.82 482.683L357.86 289.871C357.842 289.439 357.487 289.098 357.055 289.098H317.683C317.251 289.098 316.895 289.439 316.878 289.871L308.918 482.683Z" fill="#E2B095"/>
<path d="M405.976 482.683C405.308 498.857 418.24 512.333 434.427 512.333C450.614 512.333 463.546 498.857 462.878 482.683L454.918 289.871C454.9 289.439 454.545 289.098 454.112 289.098H414.74C414.308 289.098 413.952 289.439 413.935 289.871L405.976 482.683Z" fill="#E2B095"/>
<path d="M365.82 482.683L357.86 289.871C357.842 289.439 357.487 289.098 357.055 289.098H332.924L340.065 462.08C340.733 478.254 327.801 491.73 311.614 491.73C311.066 491.73 310.521 491.714 309.98 491.683C313.371 503.564 324.31 512.333 337.368 512.333C353.556 512.333 366.488 498.857 365.82 482.683Z" fill="#A46449"/>
<path d="M462.878 482.683L454.918 289.871C454.9 289.439 454.545 289.098 454.112 289.098H429.981L437.123 462.08C437.79 478.254 424.859 491.73 408.672 491.73C408.123 491.73 407.579 491.714 407.038 491.683C410.429 503.564 421.368 512.333 434.426 512.333C450.614 512.333 463.546 498.857 462.878 482.683Z" fill="#A46449"/>
<path d="M321.145 146.903C325.413 146.903 328.871 143.444 328.871 139.177V61.4219H313.418V139.177C313.419 143.445 316.877 146.903 321.145 146.903Z" fill="#5C6C6E"/>
<path d="M361.32 139.177V61.4219H345.867V139.177C345.867 143.445 349.326 146.903 353.593 146.903C357.86 146.903 361.32 143.445 361.32 139.177Z" fill="#5C6C6E"/>
<path d="M337.369 489.714C341.636 489.714 345.095 486.255 345.095 481.988C345.095 477.721 341.636 474.262 337.369 474.262C333.102 474.262 329.643 477.721 329.643 481.988C329.643 486.255 333.102 489.714 337.369 489.714Z" fill="#A46449"/>
<path d="M345.096 481.986C345.096 477.89 341.908 474.539 337.878 474.277C336.158 478.367 333.507 481.978 330.187 484.838C331.322 487.693 334.11 489.712 337.37 489.712C341.636 489.712 345.096 486.253 345.096 481.986Z" fill="#6C3838"/>
<path d="M434.427 489.714C438.694 489.714 442.153 486.255 442.153 481.988C442.153 477.721 438.694 474.262 434.427 474.262C430.16 474.262 426.701 477.721 426.701 481.988C426.701 486.255 430.16 489.714 434.427 489.714Z" fill="#A46449"/>
<path d="M442.153 481.986C442.153 477.89 438.965 474.539 434.935 474.277C433.215 478.367 430.564 481.978 427.244 484.838C428.379 487.693 431.167 489.712 434.427 489.712C438.694 489.712 442.153 486.253 442.153 481.986Z" fill="#6C3838"/>
<path d="M223.598 289.098H184.226C183.794 289.098 183.438 289.439 183.421 289.871L175.461 482.683C174.793 498.857 187.725 512.333 203.912 512.333C220.099 512.333 233.031 498.857 232.363 482.683L224.403 289.871C224.385 289.439 224.03 289.098 223.598 289.098Z" fill="#E2B095"/>
<path d="M232.363 482.683L224.403 289.871C224.385 289.439 224.03 289.098 223.598 289.098H199.468L206.609 462.08C207.277 478.254 194.345 491.73 178.158 491.73C177.61 491.73 177.065 491.714 176.525 491.683C179.916 503.564 190.855 512.333 203.913 512.333C220.099 512.333 233.031 498.857 232.363 482.683Z" fill="#A46449"/>
<path d="M203.912 489.714C208.179 489.714 211.638 486.255 211.638 481.988C211.638 477.721 208.179 474.262 203.912 474.262C199.645 474.262 196.186 477.721 196.186 481.988C196.186 486.255 199.645 489.714 203.912 489.714Z" fill="#A46449"/>
<path d="M196.729 484.838C197.864 487.693 200.652 489.712 203.912 489.712C208.179 489.712 211.638 486.253 211.638 481.986C211.638 477.89 208.45 474.539 204.42 474.277C202.7 478.367 200.05 481.978 196.729 484.838Z" fill="#6C3838"/>
<path d="M45.3769 485.733C44.7779 500.242 56.3789 512.331 70.8999 512.331C85.4209 512.331 97.0219 500.242 96.4229 485.733L89.5899 320.235C89.5749 319.863 89.2689 319.57 88.8969 319.57H52.9019C52.5299 319.57 52.2239 319.863 52.2089 320.235L45.3769 485.733Z" fill="#E2B095"/>
<path d="M96.4221 485.733L89.5901 320.235C89.5751 319.863 89.2691 319.57 88.8971 319.57H64.6591L70.6681 465.129C71.2581 479.409 60.0291 491.345 45.8301 491.718C48.1191 503.421 58.4331 512.331 70.9001 512.331C85.4211 512.331 97.0211 500.242 96.4221 485.733Z" fill="#A46449"/>
<path d="M70.9001 493.987C75.167 493.987 78.6261 490.528 78.6261 486.261C78.6261 481.994 75.167 478.535 70.9001 478.535C66.6331 478.535 63.1741 481.994 63.1741 486.261C63.1741 490.528 66.6331 493.987 70.9001 493.987Z" fill="#A46449"/>
<path d="M70.9001 478.531C69.4061 478.531 68.0121 478.955 66.8301 479.689C65.8811 481.209 64.7771 482.622 63.5381 483.907C63.3021 484.648 63.1741 485.437 63.1741 486.257C63.1741 490.524 66.6331 493.983 70.9001 493.983C75.1671 493.983 78.6261 490.524 78.6261 486.257C78.6261 481.991 75.1671 478.531 70.9001 478.531Z" fill="#6C3838"/>
</g>
<defs>
<clipPath id="clip0_695_11292">
<rect width="512" height="512" fill="white" transform="translate(0 0.332031)"/>
</clipPath>
</defs>
</svg>
