<svg width="513" height="513" viewBox="0 0 513 513" fill="none" xmlns="http://www.w3.org/2000/svg">
<g clip-path="url(#clip0_695_11768)">
<path d="M432.467 11.3248L414.624 1.02276C412.16 -0.399236 409.01 0.444764 407.588 2.90776L345.255 110.873C354.942 114.806 363.82 120.327 371.564 127.114L434.353 18.3608C435.775 15.8968 434.931 12.7468 432.467 11.3248Z" fill="#C96E59"/>
<path d="M432.468 11.3248L414.625 1.02276C412.161 -0.399236 409.011 0.444764 407.589 2.90776L403.675 9.68676L412.635 14.8598C415.099 16.2818 415.943 19.4328 414.52 21.8958L359.094 117.896C363.509 120.623 367.68 123.708 371.565 127.113L434.354 18.3598C435.776 15.8968 434.932 12.7468 432.468 11.3248Z" fill="#BB5D4C"/>
<path d="M427.809 29.6914L385.591 41.0044L374.985 59.3744L417.203 48.0624L427.809 29.6914Z" fill="#A44F3E"/>
<path d="M351.29 100.413L393.508 89.1015L404.114 70.7305L361.897 82.0435L351.29 100.413Z" fill="#A44F3E"/>
<path d="M481.134 73.0702L466.565 58.5012C464.553 56.4892 461.292 56.4892 459.28 58.5012L381.054 136.727C387.951 144.803 393.488 154.071 397.313 164.175L481.134 80.3542C483.145 78.3432 483.145 75.0812 481.134 73.0702Z" fill="#C96E59"/>
<path d="M481.132 73.0702L466.563 58.5012C464.551 56.4892 461.29 56.4892 459.278 58.5012L452.184 65.5952L459.659 73.0702C461.671 75.0822 461.671 78.3432 459.659 80.3552L390.33 149.684C393.056 154.276 395.398 159.121 397.311 164.175L481.132 80.3542C483.143 78.3432 483.143 75.0812 481.132 73.0702Z" fill="#BB5D4C"/>
<path d="M438.369 123.121H394.662L381.052 136.731C381.441 137.186 381.809 137.659 382.189 138.121H423.368L438.369 123.121Z" fill="#A44F3E"/>
<path d="M154.132 104.091C186.894 104.091 215.747 121.146 232.281 146.843C248.815 121.146 277.668 104.091 310.43 104.091C315.566 104.091 320.604 104.517 325.516 105.323C325.945 101.682 326.172 97.98 326.172 94.224C326.172 42.368 284.136 0.332031 232.281 0.332031C180.426 0.332031 138.39 42.368 138.39 94.223C138.39 97.979 138.617 101.681 139.046 105.322C143.958 104.517 148.996 104.091 154.132 104.091Z" fill="#C9EABD"/>
<path d="M209.732 122.617C218.611 129.275 226.263 137.485 232.282 146.84C248.816 121.143 277.669 104.088 310.431 104.088C315.567 104.088 320.605 104.514 325.517 105.32C325.946 101.679 326.173 97.9767 326.173 94.2207C326.173 60.7317 308.637 31.3427 282.25 14.7227C283.159 19.9677 283.637 25.3597 283.637 30.8647C283.637 75.8597 251.984 113.456 209.732 122.617Z" fill="#A5D492"/>
<path d="M246.408 214.357C247.466 208.715 248.025 202.898 248.025 196.95C248.025 145.095 205.988 103.059 154.134 103.059C102.28 103.059 60.2429 145.095 60.2429 196.95C60.2429 202.899 60.8019 208.716 61.8599 214.357H246.408Z" fill="#FFBD86"/>
<path d="M60.2432 196.953C60.2432 202.902 60.8022 208.719 61.8602 214.36H246.408C247.466 208.718 248.025 202.901 248.025 196.953C248.025 191.931 247.616 187.007 246.855 182.199H61.4002C60.6412 187.006 60.2432 191.933 60.2432 196.953Z" fill="#E68A40"/>
<path d="M154.133 103.059C122.079 103.059 93.7808 119.126 76.8408 143.641L92.4348 159.235C100.258 167.058 112.942 167.058 120.765 159.235L126.431 153.569C134.254 145.746 146.938 145.746 154.761 153.569C162.584 161.392 175.268 161.392 183.091 153.569L212.918 123.742C196.827 110.805 176.386 103.059 154.133 103.059Z" fill="#C96E59"/>
<path d="M402.706 214.357C403.764 208.715 404.323 202.898 404.323 196.95C404.323 145.095 362.286 103.059 310.432 103.059C258.578 103.059 216.541 145.095 216.541 196.95C216.541 202.899 217.1 208.716 218.158 214.357H402.706Z" fill="#FF93AE"/>
<path d="M329.177 104.93C342.073 142.838 313.891 182.194 273.849 182.194H217.698C216.939 187.001 216.541 191.928 216.541 196.948C216.541 202.897 217.1 208.714 218.158 214.355H402.706C403.764 208.713 404.323 202.896 404.323 196.948C404.323 151.512 372.049 113.617 329.177 104.93Z" fill="#F06588"/>
<path d="M232.281 384.593C224.316 384.593 216.442 384.123 208.683 383.223V416.669H255.878V383.223C248.12 384.122 240.246 384.593 232.281 384.593Z" fill="#BECFD4"/>
<path d="M232.28 384.593C231.787 384.593 231.298 384.575 230.806 384.571V416.669H255.877V383.223C248.119 384.122 240.245 384.593 232.28 384.593Z" fill="#9ABDC8"/>
<path d="M324.671 479.754L259.294 452.578C259.046 452.588 258.802 452.616 258.551 452.616H206.011C205.76 452.616 205.517 452.589 205.268 452.578L139.891 479.754C134.126 482.15 130.37 487.78 130.37 494.023V507.183C130.37 510.028 132.676 512.334 135.521 512.334H329.042C331.887 512.334 334.193 510.028 334.193 507.183V494.023C334.192 487.78 330.436 482.15 324.671 479.754Z" fill="#BECFD4"/>
<path d="M324.671 479.755L259.294 452.578C259.046 452.588 258.802 452.616 258.551 452.616H206.011C205.795 452.616 205.583 452.596 205.37 452.584L270.735 479.755C276.5 482.151 280.256 487.781 280.256 494.024V512.335H329.041C331.886 512.335 334.192 510.029 334.192 507.184V494.024C334.192 487.781 330.436 482.151 324.671 479.755Z" fill="#9ABDC8"/>
<path d="M205.313 452.58C205.298 452.579 205.283 452.578 205.268 452.578L205.256 452.583L205.313 452.58Z" fill="#9ABDC8"/>
<path d="M258.55 453.645H206.01C195.514 453.645 187.006 445.137 187.006 434.641C187.006 424.145 195.514 415.637 206.01 415.637H258.55C269.046 415.637 277.554 424.145 277.554 434.641C277.554 445.137 269.046 453.645 258.55 453.645Z" fill="#9ABDC8"/>
<path d="M258.55 415.637H247.177C247.13 426.093 238.644 434.555 228.177 434.555H187.01C187.01 434.584 187.006 434.612 187.006 434.641C187.006 445.137 195.514 453.645 206.01 453.645H258.55C269.046 453.645 277.554 445.137 277.554 434.641C277.554 424.145 269.046 415.637 258.55 415.637Z" fill="#83A9B5"/>
<path d="M232.281 385.623C332.32 385.623 415.642 314.128 433.984 219.449C434.599 216.277 432.148 213.332 428.917 213.332H35.6451C32.4141 213.332 29.9641 216.277 30.5781 219.449C48.9201 314.127 132.242 385.623 232.281 385.623Z" fill="#BECFD4"/>
<path d="M232.281 385.623C277.441 385.623 314.893 311.031 321.907 213.332H142.655C149.669 311.031 187.121 385.623 232.281 385.623Z" fill="#D7F3FB"/>
<path d="M151.927 296.517C163.306 296.517 172.531 287.292 172.531 275.913C172.531 264.533 163.306 255.309 151.927 255.309C140.548 255.309 131.323 264.533 131.323 275.913C131.323 287.292 140.548 296.517 151.927 296.517Z" fill="#E9FAFF"/>
<path d="M312.636 296.517C324.015 296.517 333.24 287.292 333.24 275.913C333.24 264.533 324.015 255.309 312.636 255.309C301.256 255.309 292.032 264.533 292.032 275.913C292.032 287.292 301.256 296.517 312.636 296.517Z" fill="#E9FAFF"/>
<path d="M55.0908 296.517C66.4701 296.517 75.6948 287.292 75.6948 275.913C75.6948 264.533 66.4701 255.309 55.0908 255.309C43.7115 255.309 34.4868 264.533 34.4868 275.913C34.4868 287.292 43.7115 296.517 55.0908 296.517Z" fill="#D7F3FB"/>
<path d="M409.472 296.517C420.852 296.517 430.076 287.292 430.076 275.913C430.076 264.533 420.852 255.309 409.472 255.309C398.093 255.309 388.868 264.533 388.868 275.913C388.868 287.292 398.093 296.517 409.472 296.517Z" fill="#D7F3FB"/>
<path d="M393.508 89.1093L404.114 70.7383L383.066 76.3783L372.46 94.7493L393.508 89.1093Z" fill="#883F2E"/>
<path d="M413.172 104.613H456.879L471.879 89.6133H428.172L413.172 104.613Z" fill="#A44F3E"/>
<path d="M239.493 91.7976C237.574 91.7976 235.654 91.0656 234.19 89.6016L230.95 86.3616C228.021 83.4316 228.021 78.6836 230.95 75.7546C233.879 72.8266 238.628 72.8266 241.556 75.7546L244.796 78.9946C247.725 81.9246 247.725 86.6726 244.796 89.6016C243.332 91.0656 241.413 91.7976 239.493 91.7976Z" fill="#A5D492"/>
<path d="M174.591 83.7038C172.672 83.7038 170.752 82.9718 169.288 81.5078L166.048 78.2678C163.119 75.3378 163.119 70.5898 166.048 67.6608C168.977 64.7328 173.726 64.7328 176.654 67.6608L179.894 70.9008C182.823 73.8308 182.823 78.5788 179.894 81.5078C178.43 82.9718 176.51 83.7038 174.591 83.7038Z" fill="#A5D492"/>
<path d="M256.438 42.3477H251.855C247.713 42.3477 244.355 38.9907 244.355 34.8477C244.355 30.7047 247.713 27.3477 251.855 27.3477H256.438C260.58 27.3477 263.938 30.7047 263.938 34.8477C263.938 38.9907 260.58 42.3477 256.438 42.3477Z" fill="#A5D492"/>
<path d="M197.721 47.7742C195.802 47.7742 193.882 47.0422 192.418 45.5782C189.489 42.6482 189.489 37.9002 192.418 34.9712L195.658 31.7312C198.587 28.8032 203.336 28.8032 206.264 31.7312C209.193 34.6612 209.193 39.4092 206.264 42.3382L203.024 45.5782C201.56 47.0412 199.641 47.7742 197.721 47.7742Z" fill="#A5D492"/>
<path d="M291.883 80.614C289.964 80.614 288.044 79.882 286.58 78.418C283.651 75.488 283.651 70.74 286.58 67.811L289.82 64.571C292.749 61.643 297.498 61.643 300.426 64.571C303.355 67.501 303.355 72.249 300.426 75.178L297.186 78.418C295.722 79.882 293.802 80.614 291.883 80.614Z" fill="#82B36E"/>
<path d="M456.878 104.605L471.878 89.6055H450.406L435.405 104.605H456.878Z" fill="#883F2E"/>
<path d="M423.369 138.113L438.369 123.113H416.897L401.897 138.113H423.369Z" fill="#883F2E"/>
<path d="M417.202 48.0624L427.808 29.6914L406.759 35.3314L396.153 53.7024L417.202 48.0624Z" fill="#883F2E"/>
</g>
<defs>
<clipPath id="clip0_695_11768">
<rect width="512" height="512" fill="white" transform="translate(0.562012 0.332031)"/>
</clipPath>
</defs>
</svg>
