<svg width="512" height="513" viewBox="0 0 512 513" fill="none" xmlns="http://www.w3.org/2000/svg">
<g clip-path="url(#clip0_695_11458)">
<path d="M0.000488281 265.16H141.242V459.367H0.000488281V265.16Z" fill="#FFAA68"/>
<path d="M88.2759 265.16H141.241V459.367H88.2759V265.16Z" fill="#FA8933"/>
<path d="M123.587 494.678H17.6557L0.000488281 459.367H141.242L123.587 494.678Z" fill="#FD648A"/>
<path d="M273.656 104.96V53.3008H220.69V104.96C220.69 134.762 213.095 164.077 198.621 190.128C184.147 216.18 176.552 245.495 176.552 275.296V477.025C176.552 486.775 184.457 494.68 194.207 494.68H300.138C309.888 494.68 317.794 486.775 317.794 477.025V275.296C317.794 245.495 310.199 216.18 295.725 190.128C281.251 164.077 273.656 134.762 273.656 104.96Z" fill="#AAD161"/>
<path d="M176.552 453.577V477.021C176.552 486.771 184.457 494.676 194.207 494.676H300.138C309.888 494.676 317.794 486.771 317.794 477.021V275.293C317.789 252.698 313.41 230.314 304.906 209.379C278.733 339.586 221.475 413.737 176.552 453.577Z" fill="#5B7724"/>
<path d="M220.69 17.9883H273.655V53.2986H220.69V17.9883Z" fill="#4B6517"/>
<path d="M317.793 415.229H211.862V265.16H317.793" fill="#E8EEC2"/>
<path d="M220.69 53.3008H273.655V70.956H220.69V53.3008Z" fill="#5B7724"/>
<path d="M141.242 265.158H0.000488281L17.6557 229.848H123.587L141.242 265.158Z" fill="#FD648A"/>
<path d="M141.242 388.749L121.69 396.572C105.449 403.067 88.1125 406.404 70.6212 406.404C53.1298 406.404 35.7936 409.74 19.5522 416.236L0.000488281 424.059V335.783L19.5522 327.96C35.7936 321.464 53.1298 318.128 70.6212 318.128C88.1125 318.128 105.449 314.792 121.69 308.296L141.242 300.473V388.749Z" fill="#FD648A"/>
<path d="M397.242 123.918H467.862V141.573H397.242V123.918Z" fill="#D3553E"/>
<path d="M459.035 155.018V132.746H406.069V155.018C374.349 166.233 353.134 196.207 353.104 229.85V468.194C353.104 482.819 364.961 494.677 379.586 494.677C394.211 494.677 406.069 482.819 406.069 468.194C406.069 482.819 417.927 494.677 432.552 494.677C447.177 494.677 459.035 482.819 459.035 468.194C459.035 482.819 470.892 494.677 485.517 494.677C500.142 494.677 512 482.819 512 468.194V229.85C511.97 196.207 490.754 166.233 459.035 155.018Z" fill="#D3553E"/>
<path d="M459.035 123.92H406.069V106.265C406.069 101.39 410.022 97.4375 414.897 97.4375H450.207C455.082 97.4375 459.035 101.39 459.035 106.265V123.92Z" fill="#662E45"/>
<path d="M353.104 247.508H512V415.232H353.104V247.508Z" fill="#F16457"/>
<path d="M459.035 155.022V141.578H406.069V155.022C402.759 156.212 399.535 157.617 396.41 159.233H468.694C465.569 157.617 462.345 156.212 459.035 155.022Z" fill="#812110"/>
<path d="M353.104 441.609V468.2C353.104 482.825 364.961 494.683 379.586 494.683C394.211 494.683 406.069 482.825 406.069 468.2C406.069 482.825 417.927 494.683 432.552 494.683C447.177 494.683 459.035 482.825 459.035 468.2C459.035 482.825 470.892 494.683 485.517 494.683C500.142 494.683 512 482.825 512 468.2V415.234H386.647C376.461 425.221 365.211 434.066 353.104 441.609Z" fill="#812110"/>
<path d="M495.457 181.48C491.267 203.743 485.965 225.778 479.569 247.511H512V229.855C512.013 212.338 506.194 195.321 495.457 181.48Z" fill="#812110"/>
<path d="M386.646 415.232H512V247.508H479.586C453.642 335.202 416.664 386.271 386.646 415.232Z" fill="#C62E20"/>
</g>
<defs>
<clipPath id="clip0_695_11458">
<rect width="512" height="512" fill="white" transform="translate(0 0.332031)"/>
</clipPath>
</defs>
</svg>
