<svg width="513" height="512" viewBox="0 0 513 512" fill="none" xmlns="http://www.w3.org/2000/svg">
<g clip-path="url(#clip0_695_11569)">
<path d="M476.416 326.975C483.902 313.88 479.9 296.973 467.344 288.616C460.692 284.189 452.925 282.892 445.714 284.319C451.198 271.435 446.633 256.123 434.372 248.497C422.112 240.871 406.359 243.545 397.227 254.16C395.319 247.061 390.722 240.668 383.811 236.658C370.764 229.089 353.829 232.973 345.392 245.476C341.622 251.063 340.07 257.451 340.502 263.64C342.402 290.886 337.24 318.163 326.864 343.427L322.338 354.448L388.864 395.828L396.748 386.896C414.823 366.419 437.012 349.734 462.29 339.389C468.03 337.04 473.072 332.825 476.416 326.975Z" fill="#589554"/>
<path d="M383.808 236.647C384.06 236.792 384.307 236.945 384.546 237.1C376.48 238.076 368.879 242.408 364.053 249.559C360.285 255.145 358.731 261.533 359.164 267.722C361.06 294.963 355.9 322.244 345.525 347.509L340.998 358.53L393.143 390.964L388.866 395.818L322.343 354.441L326.863 343.422C337.246 318.156 342.406 290.875 340.502 263.635C340.069 257.446 341.624 251.058 345.391 245.471C353.829 232.967 370.768 229.08 383.808 236.647Z" fill="#72CD65"/>
<path d="M377.475 363.137L443.209 323.736C446.047 322.035 443.938 317.701 440.848 318.885L394.826 336.524L420.982 276.909C422.274 273.964 418.27 271.624 416.338 274.195L371.336 334.086L373.275 262.338C373.361 259.15 368.826 258.461 367.962 261.531L350.582 323.28L377.475 363.137Z" fill="#72CD65"/>
<path d="M147.576 268.562C131.167 313.061 154.32 363.09 198.869 379.364C217.83 386.291 237.641 386.145 255.416 380.276C278.483 372.66 303.518 373.542 326.357 381.816C340.835 387.061 356.823 379.576 362.068 365.098L373.24 334.259C378.79 318.94 370.87 302.023 355.551 296.473C332.964 288.29 314.104 272.511 301.251 252.215C291.393 236.647 276.486 224.11 257.815 217.346C213.215 201.189 163.969 224.104 147.576 268.562Z" fill="#D56539"/>
<path d="M478.047 374.582C478.047 389.782 465.717 402.112 450.517 402.112L342.647 401.882L322.607 401.842C307.407 401.842 295.077 389.512 295.077 374.312C295.077 359.112 307.407 346.782 322.607 346.782C324.387 346.782 326.127 346.962 327.807 347.282C331.767 336.932 341.777 329.572 353.527 329.572C358.617 329.572 363.387 330.962 367.477 333.372C372.417 328.662 379.107 325.762 386.477 325.762C395.937 325.762 404.277 330.542 409.237 337.812C413.277 335.472 417.977 334.122 422.987 334.122C432.947 334.122 441.667 339.422 446.507 347.342C447.817 347.152 449.147 347.052 450.517 347.052C465.717 347.052 478.047 359.382 478.047 374.582Z" fill="#FDD1A2"/>
<path d="M350.987 385.814C353.417 393.144 349.787 398.304 342.647 401.884L322.607 401.844C307.407 401.844 295.077 389.514 295.077 374.314C295.077 359.114 307.407 346.784 322.607 346.784C324.387 346.784 326.127 346.964 327.807 347.284C331.767 336.934 341.777 329.574 353.527 329.574C358.617 329.574 363.387 330.964 367.477 333.374C367.477 333.374 339.967 352.584 350.987 385.814Z" fill="#F2BE8F"/>
<path d="M202.616 268.559C186.199 313.065 209.357 363.093 253.909 379.371C254.593 379.626 255.29 379.858 255.974 380.102C255.788 380.16 255.603 380.218 255.417 380.276C237.642 386.147 217.826 386.297 198.868 379.371C154.316 363.093 131.17 313.065 147.575 268.559C163.748 224.714 211.874 201.823 255.985 216.709C232.121 224.749 211.991 243.139 202.616 268.559Z" fill="#83432D"/>
<path d="M139.784 385.988C150.671 385.988 159.497 377.163 159.497 366.275C159.497 355.388 150.671 346.562 139.784 346.562C128.896 346.562 120.071 355.388 120.071 366.275C120.071 377.163 128.896 385.988 139.784 385.988Z" fill="#589554"/>
<path d="M147.541 384.402C145.161 385.422 142.541 385.992 139.791 385.992C128.901 385.992 120.071 377.162 120.071 366.272C120.071 355.392 128.901 346.562 139.791 346.562C142.541 346.562 145.161 347.132 147.541 348.152C140.501 351.152 135.571 358.142 135.571 366.272C135.571 374.412 140.501 381.402 147.541 384.402Z" fill="#72CD65"/>
<path d="M194.396 385.988C205.283 385.988 214.109 377.163 214.109 366.275C214.109 355.388 205.283 346.562 194.396 346.562C183.508 346.562 174.683 355.388 174.683 366.275C174.683 377.163 183.508 385.988 194.396 385.988Z" fill="#589554"/>
<path d="M202.153 384.402C199.773 385.422 197.153 385.992 194.403 385.992C183.513 385.992 174.683 377.162 174.683 366.272C174.683 355.392 183.513 346.562 194.403 346.562C197.153 346.562 199.773 347.132 202.153 348.152C195.113 351.152 190.183 358.142 190.183 366.272C190.183 374.412 195.113 381.402 202.153 384.402Z" fill="#72CD65"/>
<path d="M89.3595 385.988C100.247 385.988 109.072 377.163 109.072 366.275C109.072 355.388 100.247 346.562 89.3595 346.562C78.4723 346.562 69.6465 355.388 69.6465 366.275C69.6465 377.163 78.4723 385.988 89.3595 385.988Z" fill="#589554"/>
<path d="M97.1173 384.402C94.7373 385.422 92.1173 385.992 89.3673 385.992C78.4773 385.992 69.6473 377.162 69.6473 366.272C69.6473 355.392 78.4773 346.562 89.3673 346.562C92.1173 346.562 94.7373 347.132 97.1173 348.152C90.0773 351.152 85.1473 358.142 85.1473 366.272C85.1473 374.412 90.0773 381.402 97.1173 384.402Z" fill="#72CD65"/>
<path d="M164.683 385.988C175.57 385.988 184.396 377.163 184.396 366.275C184.396 355.388 175.57 346.562 164.683 346.562C153.796 346.562 144.97 355.388 144.97 366.275C144.97 377.163 153.796 385.988 164.683 385.988Z" fill="#589554"/>
<path d="M172.44 384.402C170.06 385.422 167.44 385.992 164.69 385.992C153.8 385.992 144.97 377.162 144.97 366.272C144.97 355.392 153.8 346.562 164.69 346.562C167.44 346.562 170.06 347.132 172.44 348.152C165.4 351.152 160.47 358.142 160.47 366.272C160.47 374.412 165.4 381.402 172.44 384.402Z" fill="#72CD65"/>
<path d="M195.462 77.4882C216.677 77.4882 233.876 60.2896 233.876 39.0742C233.876 17.8587 216.677 0.660156 195.462 0.660156C174.246 0.660156 157.048 17.8587 157.048 39.0742C157.048 60.2896 174.246 77.4882 195.462 77.4882Z" fill="#FFD071"/>
<path d="M464.179 223.698L42.5785 327.036C35.4775 328.777 28.4465 323.974 27.4505 316.731C27.3295 315.85 27.2135 314.969 27.1025 314.088C12.7575 199.571 86.2105 89.9427 201.031 61.7987C315.852 33.6547 431.676 96.8897 471.914 205.061C472.223 205.893 472.527 206.728 472.827 207.565C475.294 214.448 471.28 221.958 464.179 223.698Z" fill="#FFD071"/>
<path d="M464.18 223.699L42.5876 327.035C35.5036 328.771 28.4576 324 27.4656 316.774C11.6156 201.286 85.3156 90.1633 201.032 61.8003C219.564 57.2583 238.123 55.0973 256.383 55.1213C179.524 95.3243 131.387 176.127 132.856 263.067C133.078 275.862 145.041 285.182 157.463 282.137L471.915 205.062C472.224 205.894 472.528 206.729 472.828 207.566C475.295 214.449 471.281 221.959 464.18 223.699Z" fill="#C69229"/>
<path d="M216.987 70.9157C213.321 73.3897 209.159 75.2747 204.604 76.3907C184.004 81.4397 163.204 68.8287 158.152 48.2187C153.103 27.6187 165.713 6.81866 186.314 1.76866C190.869 0.652663 195.43 0.398663 199.827 0.906663C186.886 9.64866 180.11 25.8167 184.045 41.8717C187.981 57.9277 201.468 69.1397 216.987 70.9157Z" fill="#C69229"/>
<path d="M481.136 378.228C479.966 380.378 478.766 382.518 477.536 384.628C475.516 388.108 473.406 391.538 471.216 394.908H31.6465V388.518C31.6465 386.158 32.2365 383.928 33.2665 381.978C35.6165 377.578 40.2465 374.578 45.5865 374.578H471.726C475.346 374.578 478.656 375.958 481.136 378.228Z" fill="#C69229"/>
<path d="M477.537 384.625C470.477 396.765 462.437 408.275 453.527 419.045H66.6665C62.3465 419.045 58.4165 417.455 55.3965 414.835C55.0865 414.575 54.7865 414.295 54.4965 414.005C53.1765 412.675 52.0665 411.135 51.2265 409.425C50.0865 407.135 49.4565 404.555 49.4565 401.835C49.4565 392.335 106.277 384.625 115.777 384.625H477.537Z" fill="#FFD071"/>
<path d="M103.608 414.005C106.728 417.115 111.028 419.045 115.778 419.045H17.5481C12.7981 419.045 8.49813 417.115 5.37813 414.005C2.26813 410.885 0.338135 406.585 0.338135 401.835C0.338135 392.335 8.04813 384.625 17.5481 384.625H115.778C106.278 384.625 98.5681 392.335 98.5681 401.835C98.5681 406.585 100.498 410.885 103.608 414.005Z" fill="#C69229"/>
<path d="M264.001 312.32C268.916 312.32 272.901 308.335 272.901 303.42C272.901 298.504 268.916 294.52 264.001 294.52C259.086 294.52 255.101 298.504 255.101 303.42C255.101 308.335 259.086 312.32 264.001 312.32Z" fill="#83432D"/>
<path d="M288.501 298.394C293.416 298.394 297.401 294.409 297.401 289.494C297.401 284.578 293.416 280.594 288.501 280.594C283.586 280.594 279.601 284.578 279.601 289.494C279.601 294.409 283.586 298.394 288.501 298.394Z" fill="#83432D"/>
<path d="M286.177 322.366C291.092 322.366 295.077 318.382 295.077 313.466C295.077 308.551 291.092 304.566 286.177 304.566C281.261 304.566 277.277 308.551 277.277 313.466C277.277 318.382 281.261 322.366 286.177 322.366Z" fill="#83432D"/>
</g>
<defs>
<clipPath id="clip0_695_11569">
<rect width="512" height="512" fill="white" transform="translate(0.166504)"/>
</clipPath>
</defs>
</svg>
