<svg width="512" height="513" viewBox="0 0 512 513" fill="none" xmlns="http://www.w3.org/2000/svg">
<g clip-path="url(#clip0_695_11628)">
<path d="M459.442 512.332H331.894C328.237 512.332 325.244 509.339 325.244 505.682V6.98203C325.244 3.32503 328.237 0.332031 331.894 0.332031H459.442C463.099 0.332031 466.092 3.32503 466.092 6.98203V505.682C466.091 509.339 463.099 512.332 459.442 512.332Z" fill="#B8002E"/>
<path d="M432.185 485.166H359.403V27.5H432.186C438.54 27.5 443.691 32.651 443.691 39.005V473.66C443.691 480.014 438.54 485.166 432.185 485.166Z" fill="#FFE680"/>
<path d="M393.559 501.885C393.559 507.631 388.858 512.332 383.112 512.332H56.3581C50.6121 512.332 45.9111 507.631 45.9111 501.885V10.779C45.9111 5.03303 50.6121 0.332031 56.3581 0.332031H383.111C388.857 0.332031 393.558 5.03303 393.558 10.779L393.559 501.885Z" fill="#D5214E"/>
<path d="M99.5952 512.332H56.3582C50.6112 512.332 45.9092 507.63 45.9092 501.883V10.781C45.9092 5.03403 50.6112 0.332031 56.3582 0.332031H99.5962C93.8492 0.332031 89.1472 5.03403 89.1472 10.781V501.883C89.1462 507.63 93.8492 512.332 99.5952 512.332Z" fill="#B8002E"/>
<path d="M354.57 435.923C354.57 442.589 349.166 447.993 342.5 447.993H96.9689C90.3029 447.993 84.8989 442.589 84.8989 435.923V228.285C84.8989 221.619 90.3029 216.215 96.9689 216.215H342.5C349.166 216.215 354.57 221.619 354.57 228.285V435.923Z" fill="#FFF1D5"/>
<path d="M224.528 364.187C222.509 364.187 220.491 363.412 218.959 361.863C215.914 358.787 215.939 353.825 219.015 350.78C230.202 339.707 241.397 328.409 252.224 317.482C266.448 303.126 281.157 288.281 295.939 273.858C299.036 270.834 303.998 270.895 307.02 273.994C310.043 277.091 309.982 282.053 306.884 285.075C292.197 299.407 277.536 314.204 263.357 328.514C252.504 339.468 241.281 350.794 230.04 361.919C228.513 363.432 226.52 364.187 224.528 364.187Z" fill="#AB5A1C"/>
<path d="M319.108 297.322C319.108 297.332 319.098 297.353 319.098 297.364C315.834 305.851 311.607 313.559 304.95 320.216C281.638 343.538 252.81 352.524 240.584 340.299C228.348 328.063 237.345 299.245 260.667 275.923C263.655 272.935 267.216 270.103 271.304 267.637V267.627C275.171 265.24 279.329 263.397 283.519 261.786C283.54 261.786 283.55 261.776 283.561 261.776C294.965 257.613 309.472 255.591 322.013 255.716C323.758 255.852 325.137 257.283 325.169 259.049C325.576 270.447 323.604 285.005 319.108 297.322Z" fill="#8BA64A"/>
<path d="M319.108 297.323C319.108 297.333 319.098 297.354 319.098 297.365C317.698 301.006 315.08 306.811 313.236 309.58L247.01 335.055C246.676 335.18 246.289 335.107 246.038 334.846C245.777 334.595 245.704 334.209 245.829 333.874L271.304 267.638V267.628C275.142 265.26 279.36 263.387 283.519 261.787C283.54 261.787 283.55 261.777 283.561 261.777C296.124 257.191 311.203 255.352 322.013 255.717C323.758 255.853 325.137 257.284 325.169 259.05C325.569 270.67 323.534 285.2 319.108 297.323Z" fill="#D5F194"/>
<path d="M320.821 292.152L272.118 310.887C270.791 311.399 269.474 310.082 269.986 308.755L288.721 260.063C299.334 256.82 313.017 255.413 322.011 255.716C323.756 255.852 325.135 257.283 325.167 259.049C325.499 268.651 324.102 281.062 320.821 292.152Z" fill="#FF0A78"/>
<path d="M132.211 418.01C141.606 418.01 149.222 410.394 149.222 400.999C149.222 391.604 141.606 383.988 132.211 383.988C122.816 383.988 115.2 391.604 115.2 400.999C115.2 410.394 122.816 418.01 132.211 418.01Z" fill="#FF0A78"/>
<path d="M189.231 418.01C198.626 418.01 206.242 410.394 206.242 400.999C206.242 391.604 198.626 383.988 189.231 383.988C179.836 383.988 172.22 391.604 172.22 400.999C172.22 410.394 179.836 418.01 189.231 418.01Z" fill="#B8002E"/>
<path d="M244.308 418.01C253.703 418.01 261.319 410.394 261.319 400.999C261.319 391.604 253.703 383.988 244.308 383.988C234.913 383.988 227.297 391.604 227.297 400.999C227.297 410.394 234.913 418.01 244.308 418.01Z" fill="#8BA64A"/>
<path d="M302.477 418.01C311.872 418.01 319.488 410.394 319.488 400.999C319.488 391.604 311.872 383.988 302.477 383.988C293.082 383.988 285.466 391.604 285.466 400.999C285.466 410.394 293.082 418.01 302.477 418.01Z" fill="#8A7004"/>
<path d="M144.547 290.039C143.648 293.362 143.095 297.479 142.875 302.066C142.06 318.69 145.654 341.365 153.888 353.506C158.318 360.057 164.107 363.537 171.265 361.353C171.338 361.332 171.401 361.311 171.474 361.29C171.495 361.28 171.516 361.28 171.547 361.269C171.599 361.248 171.662 361.227 171.725 361.206C171.735 361.206 171.746 361.196 171.767 361.196C173.387 360.663 174.682 360.036 175.685 359.326C175.695 359.326 175.695 359.326 175.706 359.316C179.729 356.474 179.144 352.232 176.845 346.819C174.922 342.315 171.819 337.007 169.217 331.01C165.894 323.372 162.874 310.854 159.823 300.363C158.548 295.974 157.273 291.941 155.967 288.754L144.547 290.039Z" fill="#E9A954"/>
<path d="M354.569 172.08H300.104V145.786H316.143C320.342 145.786 323.796 142.476 323.972 138.279C324.298 130.553 326.599 62.2171 307.261 42.0461C303.113 37.7191 298.022 35.4321 292.538 35.4321C288.21 35.4321 284.701 38.9411 284.701 43.2691V135.931C284.53 136.576 284.429 137.25 284.429 137.949V172.08H231V108.479C244.943 104.897 255.298 91.9911 255.298 76.6571C255.298 59.3611 241.612 33.7031 222.705 33.7031C203.663 33.7031 191.03 59.5571 191.03 76.6571C191.03 91.9911 201.385 104.897 215.328 108.479V172.08H149.86V106.445H154.397C162.742 106.445 169.531 99.6551 169.531 91.3111V48.8861C169.531 44.5581 166.022 41.0491 161.694 41.0491C157.366 41.0491 153.857 44.5581 153.857 48.8861V90.7691H149.859V48.8871C149.859 44.5591 146.35 41.0501 142.022 41.0501C137.694 41.0501 134.185 44.5591 134.185 48.8871V90.7701H130.187V48.8871C130.187 44.5591 126.678 41.0501 122.35 41.0501C118.022 41.0501 114.513 44.5591 114.513 48.8871V91.3101C114.513 99.6551 121.303 106.444 129.647 106.444H134.184V172.079H84.899C80.571 172.079 77.062 175.588 77.062 179.916C77.062 184.244 80.571 187.753 84.899 187.753H354.569C358.897 187.753 362.406 184.244 362.406 179.916C362.406 175.589 358.897 172.08 354.569 172.08ZM300.376 60.2821C306.928 76.1471 308.871 107.494 308.524 130.111H300.376V60.2821ZM206.704 76.6571C206.704 64.9291 215.826 49.3771 222.706 49.3771C229.822 49.3771 239.626 65.1841 239.626 76.6571C239.626 86.1081 232.242 93.7961 223.165 93.7961C214.087 93.7961 206.704 86.1081 206.704 76.6571Z" fill="#FFF1D5"/>
<path d="M420.338 458.83C416.01 458.83 412.501 455.321 412.501 450.993V300.392C412.501 296.064 416.01 292.555 420.338 292.555C424.666 292.555 428.175 296.064 428.175 300.392V450.993C428.175 455.321 424.666 458.83 420.338 458.83Z" fill="#8A7004"/>
<path d="M419.23 204.029C414.902 204.029 411.393 200.52 411.393 196.192V64.0362C411.393 59.7082 414.902 56.1992 419.23 56.1992C423.558 56.1992 427.067 59.7082 427.067 64.0362V196.192C427.066 200.52 423.558 204.029 419.23 204.029Z" fill="#8A7004"/>
<path d="M115.359 293.763C117.161 311.383 134.215 301.405 154.741 299.347C175.267 297.289 191.492 303.93 189.69 286.31C187.888 268.69 168.564 244.13 148.038 246.188C127.513 248.245 113.556 276.143 115.359 293.763Z" fill="#AB5A1C"/>
</g>
<defs>
<clipPath id="clip0_695_11628">
<rect width="512" height="512" fill="white" transform="translate(0 0.332031)"/>
</clipPath>
</defs>
</svg>
