<svg width="512" height="513" viewBox="0 0 512 513" fill="none" xmlns="http://www.w3.org/2000/svg">
<g clip-path="url(#clip0_698_12147)">
<path d="M364.171 409.322H398.012V392.936C398.012 383.591 390.437 376.016 381.092 376.016C371.747 376.016 364.172 383.591 364.172 392.936V409.322H364.171Z" fill="#C69229"/>
<path d="M269.149 505.194H492.287C492.287 444.752 443.289 395.754 382.847 395.754H378.59C318.148 395.754 269.149 444.752 269.149 505.194Z" fill="#F6BB46"/>
<path d="M505.436 511.757H256C252.376 511.757 249.436 508.817 249.436 505.193C249.436 501.569 252.376 498.629 256 498.629H505.436C509.061 498.629 512 501.569 512 505.193C512 508.817 509.061 511.757 505.436 511.757Z" fill="#C69229"/>
<path d="M380.024 357.351C374.751 357.351 371.633 351.174 374.718 346.93C375.38 345.988 380.733 337.809 374.472 327.856C364.948 312.714 375.73 293.144 376.194 292.319C377.969 289.159 381.968 288.036 385.132 289.81C388.293 291.586 389.416 295.587 387.641 298.748C385.569 302.492 381.141 313.801 385.585 320.867C396.83 338.743 385.781 354.05 385.304 354.693C384.019 356.432 382.034 357.351 380.024 357.351Z" fill="#5A2C42"/>
<path d="M439.413 381.237C434.14 381.237 431.022 375.06 434.107 370.816C434.769 369.874 440.122 361.695 433.861 351.742C424.336 336.6 435.119 317.03 435.583 316.205C437.357 313.046 441.357 311.923 444.521 313.696C447.682 315.472 448.805 319.473 447.03 322.635C444.958 326.378 440.53 337.687 444.974 344.753C456.218 362.63 445.17 377.936 444.693 378.579C443.407 380.318 441.423 381.237 439.413 381.237Z" fill="#5A2C42"/>
<path d="M213.081 172.586H285.79V339.826H213.081V172.586Z" fill="#FFC5B7"/>
<path d="M355.556 512.253C367.64 512.253 377.436 502.457 377.436 490.373V375.722C377.436 317.66 338.773 268.636 285.791 252.969V301H213.082V252.969C160.099 268.636 121.436 317.66 121.436 375.722V490.373C121.436 502.457 131.232 512.253 143.316 512.253H355.556Z" fill="#6B0A0A"/>
<path d="M249.436 436.883L320.404 341.712L320.579 269.337C309.99 262.243 298.297 256.667 285.791 252.969V304.284H213.082V261.364V252.969C201.195 256.484 190.037 261.69 179.866 268.289L178.471 339.198L249.436 436.883Z" fill="white"/>
<path d="M322.29 270.473L249.436 424.051L178.492 269.199C166.69 277.074 156.262 286.842 147.666 298.093V512.247H351.207V298.093C343.074 287.448 333.313 278.117 322.29 270.473Z" fill="#0E193E"/>
<path d="M208.957 317.47V288.729C208.957 282.966 215.285 279.442 220.185 282.478L253.47 303.1L220.185 323.722C215.285 326.757 208.957 323.233 208.957 317.47Z" fill="#6B0A0A"/>
<path d="M289.914 288.73V317.47C289.914 323.234 283.587 326.758 278.686 323.722L245.402 303.099L278.686 282.477C283.587 279.442 289.914 282.966 289.914 288.73Z" fill="#6B0A0A"/>
<path d="M331.767 161.485C344.453 161.485 354.737 151.176 354.737 138.459C354.737 125.743 344.453 115.434 331.767 115.434C319.081 115.434 308.797 125.743 308.797 138.459C308.797 151.176 319.081 161.485 331.767 161.485Z" fill="#EEA0A0"/>
<path d="M168.42 161.485C181.106 161.485 191.39 151.176 191.39 138.459C191.39 125.743 181.106 115.434 168.42 115.434C155.734 115.434 145.45 125.743 145.45 138.459C145.45 151.176 155.734 161.485 168.42 161.485Z" fill="#EEA0A0"/>
<path d="M249.436 6.54297C195.594 6.54297 149.88 28.3008 149.88 87.3843C149.88 138.557 192.915 180.205 246.575 181.639C247.526 181.664 248.478 181.681 249.436 181.681C304.419 181.681 348.991 139.463 348.991 87.3843C348.991 35.3047 304.419 6.54297 249.436 6.54297Z" fill="#5A2C42"/>
<path d="M252.032 231.838H246.84C204.904 231.838 170.907 197.843 170.907 155.906V92.2099C170.907 68.042 190.5 48.4492 214.668 48.4492H284.203C308.37 48.4492 327.963 68.042 327.963 92.2099V155.906C327.964 197.843 293.968 231.838 252.032 231.838Z" fill="#FED9C9"/>
<path d="M281.347 0.351562H146.598V32.4303C146.598 56.5983 166.191 76.191 190.359 76.191H325.108V44.1122C325.108 19.9432 305.516 0.351562 281.347 0.351562Z" fill="#804F67"/>
<path d="M170.667 512.323H15.3162C6.8573 512.323 0 505.466 0 497.007V308.836C0 300.377 6.8573 293.52 15.3162 293.52H170.667C179.126 293.52 185.983 300.377 185.983 308.836V497.007C185.983 505.466 179.126 512.323 170.667 512.323Z" fill="#F4E0A8"/>
<path d="M145.975 432.304H71.1593C67.5348 432.304 64.5952 429.364 64.5952 425.74C64.5952 422.115 67.5348 419.176 71.1593 419.176H145.975C149.599 419.176 152.539 422.115 152.539 425.74C152.539 429.364 149.599 432.304 145.975 432.304Z" fill="#494141"/>
<path d="M33.4446 419.48H45.9711V431.998H33.4446V419.48Z" fill="#494141"/>
<path d="M138.139 342.421H52.5866C48.9621 342.421 46.0225 339.482 46.0225 335.857C46.0225 332.233 48.9621 329.293 52.5866 329.293H138.139C141.763 329.293 144.703 332.233 144.703 335.857C144.703 339.482 141.764 342.421 138.139 342.421Z" fill="#EF5350"/>
<path d="M145.975 388.046H71.1593C67.5348 388.046 64.5952 385.107 64.5952 381.482C64.5952 377.858 67.5348 374.918 71.1593 374.918H145.975C149.599 374.918 152.539 377.858 152.539 381.482C152.539 385.107 149.599 388.046 145.975 388.046Z" fill="#494141"/>
<path d="M33.4443 375.223H45.9708V387.74H33.4443V375.223Z" fill="#494141"/>
<path d="M145.975 476.554H71.1596C67.5351 476.554 64.5955 473.614 64.5955 469.99C64.5955 466.365 67.5351 463.426 71.1596 463.426H145.975C149.599 463.426 152.539 466.365 152.539 469.99C152.539 473.614 149.599 476.554 145.975 476.554Z" fill="#494141"/>
<path d="M33.4446 463.734H45.9711V476.252H33.4446V463.734Z" fill="#494141"/>
<path d="M249.436 183.681C246.415 183.681 243.966 181.234 243.966 178.216V167.809C243.966 164.791 246.415 162.344 249.436 162.344C252.456 162.344 254.906 164.791 254.906 167.809V178.216C254.906 181.234 252.456 183.681 249.436 183.681Z" fill="#EEA0A0"/>
<path d="M291.009 148.121C294.634 148.121 297.573 144.448 297.573 139.916C297.573 135.384 294.634 131.711 291.009 131.711C287.383 131.711 284.445 135.384 284.445 139.916C284.445 144.448 287.383 148.121 291.009 148.121Z" fill="#5A2C42"/>
<path d="M303.747 114.866C302.8 114.866 301.848 114.573 301.061 113.973C295.237 109.524 286.781 109.524 280.957 113.973C279.161 115.344 276.504 115.111 275.019 113.456C273.535 111.799 273.786 109.346 275.581 107.976C284.521 101.148 297.498 101.149 306.437 107.976C309.551 110.353 307.38 114.866 303.747 114.866Z" fill="#5A2C42"/>
<path d="M207.863 147.574C211.489 147.574 214.428 144.145 214.428 139.916C214.428 135.686 211.489 132.258 207.863 132.258C204.238 132.258 201.299 135.686 201.299 139.916C201.299 144.145 204.238 147.574 207.863 147.574Z" fill="#5A2C42"/>
<path d="M220.602 114.866C219.654 114.866 218.703 114.573 217.916 113.973C212.091 109.524 203.636 109.524 197.811 113.973C196.016 115.344 193.359 115.111 191.874 113.456C190.389 111.799 190.641 109.346 192.435 107.976C201.376 101.148 214.353 101.149 223.292 107.976C226.406 110.353 224.235 114.866 220.602 114.866Z" fill="#5A2C42"/>
<path d="M292.649 184.987C298.691 184.987 303.589 179.109 303.589 171.859C303.589 164.608 298.691 158.73 292.649 158.73C286.607 158.73 281.709 164.608 281.709 171.859C281.709 179.109 286.607 184.987 292.649 184.987Z" fill="#FFC5B7"/>
<path d="M206.222 184.987C212.264 184.987 217.162 179.109 217.162 171.859C217.162 164.608 212.264 158.73 206.222 158.73C200.18 158.73 195.281 164.608 195.281 171.859C195.281 179.109 200.18 184.987 206.222 184.987Z" fill="#FFC5B7"/>
<path d="M236.697 201.012C237.644 201.012 238.596 201.304 239.383 201.904C245.207 206.347 253.663 206.347 259.487 201.904C261.283 200.535 263.94 200.767 265.425 202.421C266.909 204.076 266.658 206.525 264.863 207.894C255.923 214.712 242.946 214.71 234.007 207.894C230.89 205.516 233.068 201.012 236.697 201.012Z" fill="#BF5377"/>
</g>
<defs>
<clipPath id="clip0_698_12147">
<rect width="512" height="512" fill="white" transform="translate(0 0.332031)"/>
</clipPath>
</defs>
</svg>
