<svg width="512" height="512" viewBox="0 0 512 512" fill="none" xmlns="http://www.w3.org/2000/svg">
<path d="M248.001 96V496L216.001 455.152L184.001 496L152.001 455.152L120.001 496L88.001 455.152L56.001 496V56C56.001 45.3913 60.2153 35.2172 67.7167 27.7157C75.2182 20.2143 85.3923 16 96.001 16H280.001" fill="#FBD890"/>
<path d="M56.001 56V432H200.001C206.366 432 212.471 429.471 216.972 424.971C221.472 420.47 224.001 414.365 224.001 408V24C223.975 21.2684 223.477 18.5619 222.529 16H96.001C85.3923 16 75.2182 20.2143 67.7167 27.7157C60.2153 35.2172 56.001 45.3913 56.001 56Z" fill="#FAEBCB"/>
<path d="M248.001 304H436.001C447.049 304 456.001 292.8 456.001 279.04V120.96C456.001 107.2 447.049 96 436.001 96H248.001" fill="#E72B2B"/>
<path d="M264.001 96H248.001V280H412.001C423.049 280 432.001 268.8 432.001 255.04V96.96C432.001 96.632 431.937 96.328 431.921 96H264.001Z" fill="#FD4D4D"/>
<path d="M384.001 264H400.001V280H384.001V264Z" fill="#FAEBCB"/>
<path d="M352.001 264H368.001V280H352.001V264Z" fill="#FAEBCB"/>
<path d="M416.001 264H432.001V280H416.001V264Z" fill="#FAEBCB"/>
<path d="M248.001 304H344.001V384H248.001V304Z" fill="#FFE6B4"/>
<path d="M248.001 304H344.001V384H248.001V304Z" fill="#FBD890"/>
<path d="M152.001 104C150.419 104 148.872 103.531 147.556 102.652C146.241 101.773 145.215 100.523 144.61 99.0615C144.004 97.5997 143.846 95.9911 144.155 94.4393C144.463 92.8874 145.225 91.462 146.344 90.3431C147.463 89.2243 148.888 88.4624 150.44 88.1537C151.992 87.845 153.601 88.0035 155.062 88.609C156.524 89.2145 157.774 90.2398 158.653 91.5554C159.532 92.871 160.001 94.4177 160.001 96H176.001C175.98 91.0539 174.432 86.235 171.568 82.2024C168.704 78.1699 164.664 75.1207 160.001 73.472V56H144.001V73.472C138.668 75.3506 134.171 79.0561 131.308 83.9323C128.445 88.8084 127.4 94.5406 128.358 100.113C129.316 105.686 132.216 110.74 136.543 114.38C140.87 118.02 146.346 120.011 152.001 120C153.583 120 155.13 120.469 156.446 121.348C157.761 122.227 158.787 123.477 159.392 124.939C159.998 126.4 160.156 128.009 159.847 129.561C159.539 131.113 158.777 132.538 157.658 133.657C156.539 134.776 155.114 135.538 153.562 135.846C152.01 136.155 150.401 135.997 148.94 135.391C147.478 134.786 146.228 133.76 145.349 132.445C144.47 131.129 144.001 129.582 144.001 128H128.001C128.021 132.946 129.57 137.765 132.434 141.798C135.298 145.83 139.338 148.879 144.001 150.528V169.776H160.001V150.528C165.334 148.649 169.831 144.944 172.694 140.068C175.557 135.192 176.602 129.459 175.644 123.887C174.686 118.314 171.786 113.26 167.459 109.62C163.132 105.98 157.656 103.989 152.001 104Z" fill="#D07D10"/>
<path d="M96.001 240H120.001V216H96.001V240Z" fill="#666666"/>
<path d="M248.001 144H456.001V192H248.001V144Z" fill="black"/>
<path d="M248.001 232H280.001V272H248.001V232Z" fill="#FBA431"/>
<path d="M248.001 232V264H264.001C266.123 264 268.158 263.157 269.658 261.657C271.158 260.157 272.001 258.122 272.001 256V232H248.001Z" fill="#FFCF38"/>
<path d="M248.001 144H432.001V192H248.001V144Z" fill="#3D3D3D"/>
<path d="M312.001 96H248.001V48C248.001 39.5131 251.372 31.3737 257.374 25.3726C263.375 19.3714 271.514 16 280.001 16C288.488 16 296.627 19.3714 302.628 25.3726C308.63 31.3737 312.001 39.5131 312.001 48V96Z" fill="#BCAA84"/>
<path d="M376.001 304H312.001V352C312.001 360.487 315.372 368.626 321.374 374.627C327.375 380.629 335.514 384 344.001 384C352.488 384 360.627 380.629 366.628 374.627C372.63 368.626 376.001 360.487 376.001 352V304Z" fill="#BCAA84"/>
<path d="M248.001 304V368H280.001C284.244 368 288.314 366.314 291.315 363.314C294.315 360.313 296.001 356.243 296.001 352V304H248.001Z" fill="#FAEBCB"/>
<path d="M88.001 280H128.001V320H88.001V280Z" fill="#1E1E1E"/>
<path d="M88.001 352H128.001V392H88.001V352Z" fill="#1E1E1E"/>
<path d="M88.001 208H128.001V248H88.001V208Z" fill="#1E1E1E"/>
<path d="M152.001 216H224.001V232H152.001V216Z" fill="#1E1E1E"/>
<path d="M152.001 360H224.001V376H152.001V360Z" fill="#1E1E1E"/>
<path d="M152.001 288H224.001V304H152.001V288Z" fill="#1E1E1E"/>
</svg>
