<svg width="513" height="513" viewBox="0 0 513 513" fill="none" xmlns="http://www.w3.org/2000/svg">
<g clip-path="url(#clip0_697_12129)">
<path d="M497.151 230.294C497.151 236.898 495.863 243.513 493.287 249.736C492.009 252.816 491.041 256.01 490.402 259.266C489.753 262.511 489.423 265.829 489.423 269.167C489.423 275.905 488.083 282.499 485.559 288.609C483.024 294.718 479.305 300.324 474.545 305.094C472.186 307.453 470.074 310.029 468.229 312.79C466.385 315.551 464.809 318.488 463.531 321.568C460.955 327.791 457.184 333.375 452.517 338.053C447.85 342.721 442.266 346.481 436.043 349.057C429.871 351.612 424.277 355.352 419.558 360.071C414.798 364.841 409.193 368.55 403.083 371.085C396.974 373.609 390.38 374.949 383.642 374.949C380.304 374.949 376.986 375.279 373.73 375.928C370.474 376.577 367.28 377.535 364.2 378.813C357.977 381.389 351.372 382.687 344.758 382.687C338.154 382.687 331.55 381.389 325.327 378.813C322.885 377.803 320.381 376.989 317.826 376.382C317.156 376.217 316.476 376.063 315.797 375.929C312.541 375.28 309.223 374.95 305.885 374.95C299.157 374.95 292.553 373.611 286.454 371.086C280.344 368.551 274.739 364.842 269.969 360.072C267.61 357.713 265.034 355.601 262.272 353.756C259.511 351.912 256.575 350.336 253.494 349.058C247.271 346.482 241.687 342.722 237.009 338.054C232.331 333.376 228.581 327.792 225.995 321.569C224.728 318.489 223.151 315.552 221.307 312.791C219.463 310.03 217.35 307.454 214.991 305.095C210.221 300.325 206.512 294.719 203.977 288.61C201.453 282.5 200.113 275.906 200.113 269.168C200.113 265.83 199.783 262.512 199.134 259.267C198.485 256.011 197.516 252.817 196.239 249.737C193.663 243.514 192.375 236.899 192.375 230.295C192.375 223.691 193.663 217.076 196.239 210.853C197.516 207.773 198.485 204.579 199.134 201.323C199.783 198.078 200.113 194.76 200.113 191.422C200.113 184.684 201.453 178.09 203.977 171.98C206.512 165.871 210.221 160.265 214.991 155.495C217.35 153.136 219.463 150.56 221.307 147.799C223.151 145.038 224.727 142.101 225.995 139.021C228.581 132.798 232.331 127.214 237.009 122.536C241.687 117.868 247.271 114.108 253.494 111.532C256.575 110.254 259.511 108.678 262.272 106.834C265.033 104.99 267.609 102.878 269.969 100.518C271.576 98.9113 273.286 97.4173 275.079 96.0473C278.582 93.3783 282.404 91.1843 286.454 89.5043C292.553 86.9803 299.158 85.6403 305.885 85.6403C309.223 85.6403 312.541 85.3103 315.797 84.6613C319.052 84.0123 322.246 83.0543 325.327 81.7763C331.55 79.2003 338.154 77.9023 344.758 77.9023C351.372 77.9023 357.977 79.2003 364.2 81.7763C367.28 83.0533 370.474 84.0123 373.73 84.6613C376.986 85.3103 380.303 85.6403 383.642 85.6403C390.38 85.6403 396.974 86.9793 403.083 89.5043C409.193 92.0393 414.798 95.7483 419.558 100.518C421.917 102.877 424.493 104.989 427.254 106.834C430.015 108.678 432.952 110.254 436.043 111.532C442.266 114.108 447.85 117.868 452.517 122.536C457.185 127.214 460.956 132.798 463.531 139.021C464.808 142.101 466.384 145.038 468.229 147.799C470.073 150.56 472.186 153.136 474.545 155.495C479.305 160.265 483.025 165.871 485.559 171.98C488.083 178.09 489.423 184.684 489.423 191.422C489.423 194.76 489.753 198.078 490.402 201.323C491.041 204.579 492.009 207.773 493.287 210.853C495.863 217.075 497.151 223.69 497.151 230.294Z" fill="#FED89F"/>
<path d="M363.695 253.568C363.695 262.027 362.047 270.486 358.75 278.45C357.112 282.407 355.875 286.497 355.041 290.67C354.217 294.832 353.794 299.088 353.794 303.343C353.794 311.977 352.073 320.436 348.838 328.245C345.593 336.055 340.843 343.236 334.744 349.336C331.714 352.355 329.015 355.652 326.656 359.196C324.297 362.73 322.277 366.501 320.649 370.447C319.804 372.477 318.867 374.466 317.826 376.382C317.156 376.217 316.476 376.063 315.797 375.929C312.541 375.28 309.223 374.95 305.885 374.95C299.157 374.95 292.553 373.611 286.454 371.086C280.344 368.551 274.739 364.842 269.969 360.072C267.61 357.713 265.034 355.601 262.272 353.756C259.511 351.912 256.575 350.336 253.494 349.058C247.271 346.482 241.687 342.722 237.009 338.054C232.331 333.376 228.581 327.792 225.995 321.569C224.728 318.489 223.151 315.552 221.307 312.791C219.463 310.03 217.35 307.454 214.991 305.095C210.221 300.325 206.512 294.719 203.977 288.61C201.453 282.5 200.113 275.906 200.113 269.168C200.113 265.83 199.783 262.512 199.134 259.267C198.485 256.011 197.516 252.817 196.239 249.737C193.663 243.514 192.375 236.899 192.375 230.295C192.375 223.691 193.663 217.076 196.239 210.853C197.516 207.773 198.485 204.579 199.134 201.323C199.783 198.078 200.113 194.76 200.113 191.422C200.113 184.684 201.453 178.09 203.977 171.98C206.512 165.871 210.221 160.265 214.991 155.495C217.35 153.136 219.463 150.56 221.307 147.799C223.151 145.038 224.727 142.101 225.995 139.021C228.581 132.798 232.331 127.214 237.009 122.536C241.687 117.868 247.271 114.108 253.494 111.532C256.575 110.254 259.511 108.678 262.272 106.834C265.033 104.99 267.609 102.878 269.969 100.518C271.576 98.9109 273.286 97.4169 275.079 96.0469C278.355 98.1689 281.817 99.9929 285.444 101.497C293.408 104.794 300.559 109.616 306.545 115.602C312.541 121.578 317.343 128.728 320.65 136.692C322.278 140.638 324.297 144.399 326.657 147.933C329.016 151.477 331.715 154.774 334.745 157.793C340.844 163.892 345.594 171.074 348.839 178.904C352.074 186.714 353.795 195.152 353.795 203.786C353.795 208.062 354.218 212.307 355.042 216.469C355.877 220.642 357.113 224.732 358.751 228.678C362.047 236.64 363.695 245.099 363.695 253.568Z" fill="#F7BB86"/>
<path d="M320.958 253.569C320.958 260.173 319.67 266.778 317.094 273.001C315.817 276.092 314.848 279.285 314.199 282.541C313.55 285.797 313.221 289.114 313.221 292.442C313.221 299.18 311.881 305.785 309.357 311.884C306.822 317.983 303.113 323.599 298.343 328.359C295.984 330.718 293.871 333.294 292.027 336.055C290.183 338.816 288.607 341.763 287.339 344.844C284.753 351.067 281.003 356.651 276.325 361.318C271.647 365.996 266.063 369.756 259.84 372.332C255.719 374.042 251.855 376.278 248.332 378.988C246.59 380.328 244.932 381.78 243.366 383.346C238.596 388.106 232.991 391.825 226.881 394.35C220.782 396.885 214.177 398.224 207.45 398.224C204.112 398.224 200.794 398.554 197.538 399.193C194.283 399.842 191.089 400.81 188.008 402.088C181.785 404.664 175.181 405.952 168.577 405.952C161.963 405.952 155.358 404.664 149.135 402.088C146.055 400.811 142.861 399.842 139.605 399.193C136.349 398.554 133.032 398.224 129.693 398.224C122.955 398.224 116.361 396.885 110.251 394.35C104.141 391.826 98.5356 388.106 93.7756 383.346C91.4166 380.987 88.8406 378.875 86.0796 377.03C83.3186 375.186 80.3816 373.61 77.2906 372.332C71.0676 369.756 65.4836 365.996 60.8166 361.318C56.1486 356.651 52.3776 351.067 49.8026 344.844C48.5256 341.763 46.9496 338.817 45.1046 336.055C43.2606 333.294 41.1476 330.718 38.7886 328.359C34.0286 323.599 30.3086 317.983 27.7746 311.884C25.2506 305.785 23.9106 299.18 23.9106 292.442C23.9106 289.114 23.5806 285.797 22.9326 282.541C22.2936 279.285 21.3256 276.092 20.0476 273.001C17.4716 266.778 16.1836 260.173 16.1836 253.569C16.1836 246.955 17.4716 240.351 20.0476 234.127C21.3256 231.046 22.2936 227.852 22.9326 224.597C23.5816 221.341 23.9106 218.023 23.9106 214.685C23.9106 207.947 25.2506 201.353 27.7746 195.253C30.3096 189.144 34.0286 183.528 38.7886 178.768C41.1476 176.409 43.2596 173.833 45.1046 171.072C46.9486 168.311 48.5246 165.374 49.8026 162.294C52.3786 156.071 56.1496 150.487 60.8166 145.82C65.4836 141.142 71.0676 137.381 77.2906 134.806C80.3816 133.529 83.3176 131.952 86.0796 130.108C88.8406 128.264 91.4166 126.151 93.7756 123.792C98.5356 119.032 104.141 115.303 110.251 112.778C116.36 110.254 122.954 108.914 129.693 108.914C133.031 108.914 136.349 108.584 139.605 107.935C142.861 107.286 146.055 106.318 149.135 105.04C155.358 102.464 161.963 101.176 168.577 101.176C175.181 101.176 181.785 102.464 188.008 105.04C191.089 106.317 194.283 107.286 197.538 107.935C198.465 108.121 199.403 108.275 200.341 108.409C202.69 108.749 205.06 108.914 207.45 108.914C214.178 108.914 220.782 110.253 226.881 112.778C232.991 115.302 238.596 119.032 243.366 123.792C245.725 126.151 248.301 128.264 251.063 130.108C253.824 131.952 256.76 133.528 259.841 134.806C266.064 137.382 271.648 141.143 276.326 145.82C281.004 150.487 284.754 156.071 287.34 162.294C288.607 165.374 290.184 168.311 292.028 171.072C293.872 173.833 295.985 176.409 298.344 178.768C303.114 183.528 306.823 189.144 309.358 195.253C311.882 201.353 313.222 207.947 313.222 214.685C313.222 218.023 313.551 221.341 314.2 224.597C314.849 227.852 315.818 231.046 317.095 234.127C319.67 240.35 320.958 246.954 320.958 253.569Z" fill="#FFEBD3"/>
<path d="M248.332 378.988C246.59 380.328 244.932 381.78 243.366 383.346C238.596 388.106 232.991 391.825 226.881 394.35C220.782 396.885 214.177 398.224 207.45 398.224C204.112 398.224 200.794 398.554 197.538 399.193C194.283 399.842 191.089 400.81 188.008 402.088C181.785 404.664 175.181 405.952 168.577 405.952C161.963 405.952 155.358 404.664 149.135 402.088C146.055 400.811 142.861 399.842 139.605 399.193C136.349 398.554 133.032 398.224 129.693 398.224C122.955 398.224 116.361 396.885 110.251 394.35C104.141 391.826 98.5356 388.106 93.7756 383.346C91.4166 380.987 88.8406 378.875 86.0796 377.03C83.3186 375.186 80.3816 373.61 77.2906 372.332C71.0676 369.756 65.4836 365.996 60.8166 361.318C56.1486 356.651 52.3776 351.067 49.8026 344.844C48.5256 341.763 46.9496 338.817 45.1046 336.055C43.2606 333.294 41.1476 330.718 38.7886 328.359C34.0286 323.599 30.3086 317.983 27.7746 311.884C25.2506 305.785 23.9106 299.18 23.9106 292.442C23.9106 289.114 23.5806 285.797 22.9326 282.541C22.2936 279.285 21.3256 276.092 20.0476 273.001C17.4716 266.778 16.1836 260.173 16.1836 253.569C16.1836 246.955 17.4716 240.351 20.0476 234.127C21.3256 231.046 22.2936 227.852 22.9326 224.597C23.5816 221.341 23.9106 218.023 23.9106 214.685C23.9106 207.947 25.2506 201.353 27.7746 195.253C30.3096 189.144 34.0286 183.528 38.7886 178.768C41.1476 176.409 43.2596 173.833 45.1046 171.072C46.9486 168.311 48.5246 165.374 49.8026 162.294C52.3786 156.071 56.1496 150.487 60.8166 145.82C65.4836 141.142 71.0676 137.381 77.2906 134.806C80.3816 133.529 83.3176 131.952 86.0796 130.108C88.8406 128.264 91.4166 126.151 93.7756 123.792C98.5356 119.032 104.141 115.303 110.251 112.778C116.36 110.254 122.954 108.914 129.693 108.914C133.031 108.914 136.349 108.584 139.605 107.935C142.861 107.286 146.055 106.318 149.135 105.04C155.358 102.464 161.963 101.176 168.577 101.176C175.181 101.176 181.785 102.464 188.008 105.04C191.089 106.317 194.283 107.286 197.538 107.935C198.465 108.121 199.403 108.275 200.341 108.409C175.995 149.631 122.996 268.694 243.315 374.506C245.035 376.021 246.704 377.515 248.332 378.988Z" fill="#F8D6AD"/>
<path d="M324.235 231.171C322.051 225.916 320.948 220.373 320.948 214.686C320.948 199.056 314.869 184.364 303.814 173.309C299.796 169.291 296.654 164.583 294.48 159.338C288.494 144.893 277.243 133.642 262.808 127.667C257.553 125.483 252.845 122.35 248.827 118.322C237.782 107.277 223.079 101.188 207.45 101.188C206.574 101.188 205.699 101.157 204.833 101.105C200.063 100.827 195.406 99.7454 190.965 97.9114C176.53 91.9254 160.623 91.9254 146.177 97.9114C140.923 100.085 135.38 101.187 129.692 101.187C114.062 101.187 99.3598 107.276 88.3048 118.321C84.2868 122.35 79.5888 125.482 74.3338 127.666C59.8988 133.642 48.6478 144.892 42.6618 159.337C40.4878 164.582 37.3448 169.29 33.3268 173.308C22.2718 184.363 16.1828 199.056 16.1828 214.685C16.1828 220.372 15.0808 225.915 12.9068 231.17C6.9308 245.615 6.9308 261.523 12.9068 275.957C15.0808 281.212 16.1828 286.755 16.1828 292.442C16.1828 308.072 22.2718 322.775 33.3268 333.829C37.3448 337.848 40.4878 342.546 42.6618 347.8C48.6478 362.245 59.8988 373.486 74.3338 379.472C79.5878 381.646 84.2858 384.789 88.3048 388.807C99.3598 399.862 114.063 405.951 129.692 405.951C135.38 405.951 140.923 407.054 146.177 409.228C153.4 412.216 160.983 413.71 168.566 413.71C176.159 413.71 183.742 412.216 190.965 409.228C196.22 407.054 201.763 405.951 207.45 405.951C223.08 405.951 237.782 399.862 248.827 388.807C250.465 387.169 252.227 385.675 254.082 384.336C254.494 384.027 254.916 383.738 255.349 383.45C257.688 381.884 260.182 380.565 262.809 379.473C277.243 373.487 288.495 362.246 294.481 347.801C296.655 342.547 299.797 337.849 303.815 333.83C314.871 322.775 320.949 308.072 320.949 292.443C320.949 286.756 322.051 281.213 324.236 275.958C330.21 261.524 330.21 245.616 324.235 231.171ZM309.954 270.044C306.997 277.184 305.493 284.715 305.493 292.443C305.493 303.951 301.021 314.76 292.882 322.899C287.422 328.36 283.156 334.748 280.199 341.888C277.995 347.205 274.821 351.923 270.875 355.88C266.929 359.826 262.2 362.989 256.883 365.194C251.66 367.357 246.827 370.232 242.469 373.755C240.883 375.053 239.358 376.424 237.905 377.876C229.766 386.016 218.947 390.497 207.449 390.497C199.722 390.497 192.19 391.991 185.05 394.948C174.417 399.347 162.713 399.347 152.09 394.948C144.95 391.991 137.418 390.497 129.691 390.497C118.183 390.497 107.375 386.016 99.2358 377.876C93.7748 372.416 87.3868 368.15 80.2468 365.193C69.6238 360.794 61.3408 352.51 56.9408 341.887C56.9098 341.815 56.8788 341.733 56.8478 341.66L56.8368 341.65L30.9368 310.638L21.4678 242.277L39.8898 175.987L94.2488 122.504L174.397 103.907L196.281 115.57C199.938 116.291 203.668 116.642 207.449 116.642C218.947 116.642 229.766 121.124 237.905 129.253C243.365 134.713 249.754 138.979 256.883 141.936C267.516 146.346 275.789 154.619 280.199 165.252C283.156 172.382 287.422 178.769 292.882 184.24C301.021 192.369 305.493 203.187 305.493 214.686C305.493 222.413 306.997 229.945 309.954 237.085C314.354 247.718 314.354 259.422 309.954 270.044Z" fill="#F0A665"/>
<path d="M254.081 384.336C252.226 385.675 250.464 387.169 248.826 388.807C237.781 399.862 223.078 405.951 207.449 405.951C201.762 405.951 196.219 407.054 190.964 409.228C183.741 412.216 176.158 413.71 168.565 413.71C160.982 413.71 153.399 412.216 146.176 409.228C140.922 407.054 135.379 405.951 129.691 405.951C114.061 405.951 99.3588 399.862 88.3038 388.807C84.2858 384.789 79.5878 381.646 74.3328 379.472C59.8978 373.486 48.6468 362.245 42.6608 347.8C40.4868 342.546 37.3438 337.848 33.3258 333.829C22.2708 322.774 16.1818 308.071 16.1818 292.442C16.1818 286.755 15.0798 281.212 12.9058 275.957C6.92983 261.523 6.92983 245.615 12.9058 231.17C15.0798 225.915 16.1818 220.372 16.1818 214.685C16.1818 199.055 22.2708 184.363 33.3258 173.308C37.3438 169.29 40.4868 164.582 42.6608 159.337C48.6468 144.892 59.8978 133.641 74.3328 127.666C79.5868 125.482 84.2848 122.349 88.3038 118.321C99.3588 107.276 114.062 101.187 129.691 101.187C135.379 101.187 140.922 100.085 146.176 97.9114C160.621 91.9254 176.529 91.9254 190.964 97.9114C195.405 99.7454 200.062 100.826 204.832 101.105C202.483 104.752 199.505 109.626 196.281 115.571C192.448 114.829 188.698 113.696 185.051 112.181C179.734 109.987 174.15 108.884 168.566 108.884C162.981 108.884 157.408 109.986 152.091 112.181C144.951 115.138 137.419 116.642 129.692 116.642C118.184 116.642 107.376 121.124 99.2368 129.253C93.7758 134.713 87.3878 138.979 80.2478 141.936C69.6248 146.346 61.3418 154.619 56.9418 165.252C53.9848 172.382 49.7198 178.769 44.2588 184.24C36.1198 192.369 31.6378 203.187 31.6378 214.686C31.6378 222.413 30.1438 229.945 27.1868 237.085C22.7878 247.718 22.7878 259.422 27.1868 270.045C30.1438 277.185 31.6378 284.716 31.6378 292.444C31.6378 303.952 36.1198 314.761 44.2588 322.9C49.7198 328.361 53.9858 334.749 56.9418 341.889C61.3408 352.512 69.6248 360.795 80.2478 365.195C87.3878 368.152 93.7758 372.417 99.2368 377.878C107.376 386.018 118.184 390.499 129.692 390.499C137.419 390.499 144.951 391.993 152.091 394.95C162.714 399.349 174.418 399.349 185.051 394.95C192.191 391.993 199.722 390.499 207.45 390.499C218.948 390.499 229.767 386.018 237.906 377.878C239.359 376.426 240.884 375.055 242.47 373.757C242.749 374.004 243.026 374.262 243.315 374.51C247.127 377.855 250.712 381.131 254.081 384.336Z" fill="#D6843B"/>
<path d="M269.422 253.567C269.422 293.152 246.611 327.409 213.415 343.915C199.908 350.633 184.68 354.414 168.566 354.414C150.721 354.414 133.958 349.778 119.42 341.638L92.8477 307.164L87.4077 205.277L179.58 153.328C230.095 158.799 269.422 201.588 269.422 253.567Z" fill="#FC5A37"/>
<path d="M213.415 343.917C199.908 350.635 184.68 354.416 168.566 354.416C112.878 354.416 67.7192 309.268 67.7192 253.569C67.7192 197.87 112.877 152.723 168.566 152.723C172.285 152.723 175.963 152.929 179.58 153.331C162.734 202.044 155.449 273.939 213.415 343.917Z" fill="#DB3916"/>
<path d="M140.303 233.061C148.872 233.061 155.818 226.115 155.818 217.546C155.818 208.978 148.872 202.031 140.303 202.031C131.734 202.031 124.788 208.978 124.788 217.546C124.788 226.115 131.734 233.061 140.303 233.061Z" fill="#6D1236"/>
<path d="M210.121 264.085C218.69 264.085 225.636 257.138 225.636 248.57C225.636 240.001 218.69 233.055 210.121 233.055C201.552 233.055 194.606 240.001 194.606 248.57C194.606 257.138 201.552 264.085 210.121 264.085Z" fill="#982651"/>
<path d="M148.061 310.628C156.63 310.628 163.576 303.681 163.576 295.113C163.576 286.544 156.63 279.598 148.061 279.598C139.493 279.598 132.546 286.544 132.546 295.113C132.546 303.681 139.493 310.628 148.061 310.628Z" fill="#6D1236"/>
<path d="M473.876 372.695L465.654 394.641C456.598 418.771 433.539 434.761 407.772 434.761H105.562C79.794 434.761 56.736 418.771 47.68 394.641L39.458 372.695H473.876Z" fill="#982651"/>
<path d="M221.75 434.761H105.562C79.794 434.761 56.736 418.771 47.68 394.641L39.458 372.695H197.919C195.415 389.345 199.094 411.239 221.75 434.761Z" fill="#6D1236"/>
<path d="M512.667 364.935C512.667 371.364 510.061 377.185 505.857 381.389C501.643 385.603 495.822 388.21 489.393 388.21H197.599L119.677 380.029L45.268 388.21H23.941C11.083 388.209 0.666992 377.793 0.666992 364.935C0.666992 358.516 3.27299 352.695 7.47699 348.481C11.691 344.267 17.512 341.66 23.941 341.66H39.529L113.897 354.416L211.57 341.66H489.392C502.251 341.66 512.667 352.087 512.667 364.935Z" fill="#C92A53"/>
<path d="M197.599 388.209H23.941C11.083 388.209 0.666992 377.793 0.666992 364.935C0.666992 358.516 3.27299 352.695 7.47699 348.481C11.691 344.267 17.512 341.66 23.941 341.66H211.57C211.57 341.66 194.612 360.669 197.599 388.209Z" fill="#982651"/>
</g>
<defs>
<clipPath id="clip0_697_12129">
<rect width="512" height="512" fill="white" transform="translate(0.666992 0.332031)"/>
</clipPath>
</defs>
</svg>
