<svg width="513" height="513" viewBox="0 0 513 513" fill="none" xmlns="http://www.w3.org/2000/svg">
<g clip-path="url(#clip0_695_11751)">
<path d="M140.428 147.133H109.523L140.428 319.699C140.428 328.229 147.341 334.637 155.881 334.637C164.411 334.637 171.334 328.229 171.334 319.699L202.239 248.875L171.334 178.038C171.334 161.04 157.426 147.133 140.428 147.133Z" fill="#B8002E"/>
<path d="M31.5724 147.133H62.4779L31.5724 319.184C31.5724 327.714 24.6496 334.637 16.1197 334.637C7.58981 334.637 0.666992 327.714 0.666992 319.184V178.038C0.666992 161.04 14.5744 147.133 31.5724 147.133Z" fill="#FB527C"/>
<path d="M140.428 178.038C140.428 161.04 126.521 147.133 109.523 147.133H62.4777C45.4797 147.133 31.5723 161.04 31.5723 178.038V469.665C31.5723 480.427 40.2969 489.152 51.0602 489.152C61.8225 489.152 70.5481 480.427 70.5481 469.665V319.184H101.454V469.666C101.454 480.428 110.178 489.153 120.942 489.153C131.704 489.153 140.428 480.428 140.428 469.666V178.038Z" fill="#D5214E"/>
<path d="M311.094 147.133H280.189L311.094 319.699C311.094 328.229 318.007 334.637 326.547 334.637C335.077 334.637 342 328.229 342 319.699L372.905 248.875L342 178.038C342 161.04 328.092 147.133 311.094 147.133Z" fill="#FFAE46"/>
<path d="M202.239 147.133H233.145L202.239 319.184C202.239 327.714 195.317 334.637 186.787 334.637C178.257 334.637 171.334 327.714 171.334 319.184V178.038C171.334 161.04 185.241 147.133 202.239 147.133Z" fill="#FFE278"/>
<path d="M311.094 178.038C311.094 161.04 297.187 147.133 280.189 147.133H233.144C216.146 147.133 202.238 161.04 202.238 178.038V469.665C202.238 480.427 210.963 489.152 221.726 489.152C232.489 489.152 241.214 480.427 241.214 469.665V319.184H272.12V469.666C272.12 480.428 280.844 489.153 291.608 489.153C302.37 489.153 311.094 480.428 311.094 469.666V178.038Z" fill="#FFC85F"/>
<path d="M481.761 147.133H450.856L481.761 319.699C481.761 328.229 488.674 334.637 497.214 334.637C505.744 334.637 512.667 328.229 512.667 319.699V178.038C512.667 161.04 498.759 147.133 481.761 147.133Z" fill="#147974"/>
<path d="M372.905 147.133H403.811L372.905 319.184C372.905 327.714 365.983 334.637 357.453 334.637C348.923 334.637 342 327.714 342 319.184V178.038C342 161.04 355.907 147.133 372.905 147.133Z" fill="#30B5B9"/>
<path d="M481.761 178.038C481.761 161.04 467.854 147.133 450.856 147.133H403.811C386.813 147.133 372.905 161.04 372.905 178.038V469.665C372.905 480.427 381.63 489.152 392.393 489.152C403.156 489.152 411.881 480.427 411.881 469.665V319.184H442.787V469.666C442.787 480.428 451.511 489.153 462.275 489.153C473.037 489.153 481.761 480.428 481.761 469.666V178.038Z" fill="#13979B"/>
<path d="M257.006 23.5117V116.228C282.609 116.228 303.364 95.473 303.364 69.8699C303.364 44.2668 282.609 23.5117 257.006 23.5117Z" fill="#FFAE46"/>
<path d="M272.459 69.8699C272.459 44.2668 265.54 23.5117 257.006 23.5117C231.403 23.5117 210.648 44.2668 210.648 69.8699C210.648 95.473 231.403 116.228 257.006 116.228C265.54 116.228 272.459 95.473 272.459 69.8699Z" fill="#FFC85F"/>
<path d="M426.995 23.5117V116.228C452.598 116.228 473.353 95.473 473.353 69.8699C473.353 44.2668 452.597 23.5117 426.995 23.5117Z" fill="#147974"/>
<path d="M442.448 69.8699C442.448 44.2668 435.529 23.5117 426.995 23.5117C401.392 23.5117 380.637 44.2668 380.637 69.8699C380.637 95.473 401.392 116.228 426.995 116.228C435.529 116.228 442.448 95.473 442.448 69.8699Z" fill="#13979B"/>
<path d="M86.3389 23.5117V116.228C111.942 116.228 132.697 95.473 132.697 69.8699C132.697 44.2668 111.942 23.5117 86.3389 23.5117Z" fill="#B8002E"/>
<path d="M101.792 69.8699C101.792 44.2668 94.8731 23.5117 86.3391 23.5117C60.736 23.5117 39.981 44.2668 39.981 69.8699C39.981 95.473 60.736 116.228 86.3391 116.228C94.8742 116.228 101.792 95.473 101.792 69.8699Z" fill="#D5214E"/>
</g>
<defs>
<clipPath id="clip0_695_11751">
<rect width="512" height="512" fill="white" transform="translate(0.666992 0.332031)"/>
</clipPath>
</defs>
</svg>
