<svg width="300" height="300" viewBox="0 0 300 300" fill="none" xmlns="http://www.w3.org/2000/svg">
<g clip-path="url(#clip0_626_19752)">
<path d="M150 300C232.843 300 300 232.843 300 150C300 67.1573 232.843 0 150 0C67.1573 0 0 67.1573 0 150C0 232.843 67.1573 300 150 300Z" fill="#4A4646"/>
<path d="M195.361 237.3H171.199L153.871 203.671L156.422 175.07H179.47L163.604 202.915L176.585 228.109H186.416C191.356 228.109 195.361 232.224 195.361 237.3Z" fill="#101214"/>
<path d="M144.211 114.133C131.125 125.009 123.134 135.04 121.15 137.443C111.906 148.637 94.9492 163.958 33.3262 204.666H64.3463C70.1107 201.155 77.057 197.496 85.1693 194.257C97.7652 189.229 109.272 186.775 118.429 185.548C125.142 186.872 134.907 188.086 146.554 186.996C147.606 186.898 148.759 186.786 149.999 186.65L163.839 145.555L150 109.535C148.143 110.945 146.205 112.475 144.211 114.133Z" fill="#333940"/>
<path d="M213.145 142.324C214.17 138.905 216.023 130.78 217.005 121.299C217.315 118.304 217.471 115.818 217.556 114.13C220.978 110.157 222.69 106.524 223.622 103.928C225.045 99.965 224.848 97.8638 226.38 94.0013C228.058 89.7709 230.49 86.7574 232.274 84.8789C231.541 82.3488 230.85 79.807 230.078 77.2886C229.345 74.9015 228.613 72.5138 227.882 69.6984C225.084 67.7689 215.518 61.6904 202.392 62.8435C199.295 63.1154 189.422 63.982 181.849 71.1158C179.666 73.1724 178.876 74.6168 169.579 90.5548C167.296 94.4695 165.367 97.7695 164.121 99.9023C160.736 101.963 155.761 105.158 150 109.532V186.647C159.07 185.645 172.879 183.226 186.881 173.758C191.886 170.374 208.333 158.369 213.145 142.324Z" fill="#101214"/>
<path d="M214.799 78.6836C217.226 78.6836 219.193 76.7161 219.193 74.2891C219.193 71.862 217.226 69.8945 214.799 69.8945C212.372 69.8945 210.404 71.862 210.404 74.2891C210.404 76.7161 212.372 78.6836 214.799 78.6836Z" fill="#333940"/>
<path d="M235.788 84.4971L251.438 86.5115C249.705 83.6779 246.255 78.8803 240.271 74.9305C235.466 71.7588 230.885 70.3607 227.881 69.6992C227.146 71.6627 225.912 74.3984 223.898 77.099C221.566 80.2279 219.16 82.0039 217.557 82.9777L235.788 84.4971Z" fill="#555A65"/>
<path d="M224.967 85.2708C226.83 86.0372 228.48 86.8687 229.913 87.6855C232.65 87.082 235.814 86.5657 239.34 86.3044C243.937 85.964 248.028 86.1421 251.438 86.5112C248.127 84.8091 243.102 82.7173 236.684 81.7892C228.381 80.588 221.561 81.8864 217.557 82.9775C219.723 83.4398 222.247 84.1517 224.967 85.2708Z" fill="#333940"/>
<path d="M107.157 134.801C81.5969 155.523 62.5891 177.006 48.8359 195.22C72.8424 184.814 100.681 175.504 132.146 169.559C138.208 168.414 144.162 167.439 149.999 166.617L158.699 132.177L150 105.137C136.718 112.922 122.141 122.654 107.157 134.801Z" fill="#555A65"/>
<path d="M193.188 131.283C195.589 122.625 196.576 107.194 188.224 100.883C177.571 92.8331 155.633 102.578 152.208 104.1C151.301 104.503 150.547 104.865 150 105.135V166.616C152.784 165.966 185.846 157.749 193.188 131.283Z" fill="#333940"/>
<path d="M145.922 205.047L149.999 198.335L152.515 184.984L149.999 178.93H138.741L136.189 205.756L149.999 230.895L152.515 228.55L149.999 212.469L145.922 205.047Z" fill="#555A65"/>
<path d="M161.789 178.93H150V198.335L161.789 178.93Z" fill="#333940"/>
<path d="M177.68 237.299C177.68 232.538 173.675 228.678 168.734 228.678H158.903L150 212.469V230.895L153.518 237.299H177.68Z" fill="#333940"/>
</g>
<defs>
<clipPath id="clip0_626_19752">
<rect width="300" height="300" fill="white"/>
</clipPath>
</defs>
</svg>
