<svg width="300" height="300" viewBox="0 0 300 300" fill="none" xmlns="http://www.w3.org/2000/svg">
<g clip-path="url(#clip0_626_19842)">
<path d="M300 150C300 67.1573 232.843 0 150 0C67.1573 0 0 67.1573 0 150C0 232.843 67.1573 300 150 300C232.843 300 300 232.843 300 150Z" fill="#FFD6D6"/>
<path d="M235.176 114.588C233.804 114.588 232.492 113.801 231.887 112.469C231.062 110.654 231.864 108.513 233.681 107.687C237.549 105.929 241.112 103.669 244.066 101.385C243.944 101.248 243.825 101.106 243.707 100.967C240.729 97.448 239.491 92.6594 240.553 88.7663C241.408 85.6249 243.671 83.2668 246.927 82.1289C250.472 80.8802 254.286 81.702 256.879 84.2632C259.579 86.9338 260.398 90.8793 259.07 94.8216C258.392 96.8234 256.833 99.1234 254.672 101.475C258.271 104.341 261.565 106.211 261.615 106.237C263.359 107.208 263.987 109.407 263.017 111.15C262.045 112.898 259.846 113.524 258.105 112.552C258.043 112.519 253.799 110.137 249.319 106.428C245.575 109.434 241.147 112.227 236.669 114.263C236.185 114.483 235.677 114.588 235.176 114.588ZM250.243 88.784C249.942 88.784 249.628 88.8368 249.314 88.948C248.017 89.4014 247.675 90.1031 247.522 90.666C247.097 92.229 247.827 94.6523 249.222 96.2999C249.289 96.381 249.358 96.4604 249.427 96.5397C250.905 94.9329 251.884 93.5162 252.224 92.5109C252.656 91.2286 252.501 90.0943 251.799 89.4015C251.387 88.9954 250.84 88.784 250.243 88.784Z" fill="#FF9CA7"/>
<path d="M244.047 169.061C251.727 159.739 261.689 140.368 249.022 120.907C215.908 70.0322 117.621 98.8561 86.314 107.661C81.9213 108.897 72.584 112.025 67.2468 113.835C64.8828 114.637 63.0886 116.45 61.9875 118.69C57.2645 128.299 44.2633 135.165 38.5936 137.79C37.0298 138.514 36.2142 140.26 36.6322 141.932L38.9305 151.126C39.2859 152.548 40.4499 153.619 41.9016 153.824C42.9238 153.968 44.254 154.107 45.7075 154.201C47.6773 166.471 96.6242 172.609 96.6242 172.609L105.43 202.486L101.95 214.781C101.431 216.617 102.809 218.441 104.718 218.441H112.78C114.25 218.441 115.483 217.333 115.639 215.871L118.545 188.822C118.96 184.96 118.895 181.082 118.467 177.242C142.847 184.062 193.269 185.316 221.432 178.466L229.455 186.08L232.164 204.497L225.648 213.93C224.33 215.837 225.695 218.441 228.015 218.441H235.726C237.005 218.441 238.13 217.597 238.488 216.37L248.035 183.658C248.768 181.144 248.566 178.448 247.467 176.071L244.047 169.061Z" fill="#FFB6BF"/>
<path d="M74.725 97.4969C70.0916 107.701 71.3114 115.276 72.3854 118.768C72.7494 119.951 74.0574 120.532 75.186 120.024L89.2896 113.678C90.3685 113.192 90.8273 111.864 90.2595 110.826C85.4492 102.037 80.3136 98.1387 77.5902 96.5665C76.561 95.9721 75.2161 96.4149 74.725 97.4969Z" fill="#FF9CA7"/>
<path d="M66.4063 137.167C64.4112 137.167 62.7764 135.549 62.7764 133.554C62.7764 131.559 64.3761 129.941 66.3712 129.941H66.4067C68.4018 129.941 70.0192 131.559 70.0192 133.554C70.0188 135.549 68.4014 137.167 66.4063 137.167Z" fill="#6D342E"/>
<path d="M58.3476 151.333C56.0847 152.277 52.0555 153.541 45.708 154.206C46.0915 156.595 48.2705 158.748 51.5081 160.672C55.9074 159.889 59.0932 158.842 61.2819 157.917C63.3967 157.022 64.0679 154.373 62.6374 152.577L62.4486 152.339C61.4695 151.111 59.7975 150.728 58.3476 151.333Z" fill="#F4828A"/>
<path d="M38.5936 137.793C37.0298 138.517 36.2142 140.263 36.6322 141.935L38.9305 151.128C39.2859 152.551 40.45 153.623 41.9016 153.828C42.9238 153.971 44.254 154.11 45.7075 154.204L41.5785 136.332C40.4579 136.908 39.4398 137.401 38.5936 137.793Z" fill="#FF9CA7"/>
<path d="M221.432 178.467L216.241 173.96C214.257 172.238 211.627 171.476 209.019 171.789C169.765 176.506 135.234 169.452 122.443 166.275C119.871 165.637 117.473 167.749 117.749 170.384L118.467 177.243C142.847 184.064 193.268 185.317 221.432 178.467Z" fill="#FF9CA7"/>
<path d="M57.4443 163.531C72.501 169.582 96.625 172.614 96.625 172.614L95.3205 167.94C94.5328 165.117 91.82 163.288 88.9113 163.65C82.1955 164.487 69.6889 165.491 57.4443 163.531Z" fill="#FF9CA7"/>
<path d="M228.326 210.059L225.648 213.936C224.329 215.844 225.695 218.447 228.014 218.447H235.727C237.005 218.447 238.13 217.604 238.488 216.376L240.331 210.059H228.326Z" fill="#F17480"/>
<path d="M104.718 218.447H112.78C114.25 218.447 115.483 217.338 115.64 215.878L116.265 210.059H103.288L101.95 214.787C101.431 216.623 102.81 218.447 104.718 218.447Z" fill="#F17480"/>
</g>
<defs>
<clipPath id="clip0_626_19842">
<rect width="300" height="300" fill="white"/>
</clipPath>
</defs>
</svg>
