<svg width="300" height="300" viewBox="0 0 300 300" fill="none" xmlns="http://www.w3.org/2000/svg">
<g clip-path="url(#clip0_626_19894)">
<path d="M150 300.105C232.843 300.105 300 232.948 300 150.105C300 67.2627 232.843 0.105469 150 0.105469C67.1573 0.105469 0 67.2627 0 150.105C0 232.948 67.1573 300.105 150 300.105Z" fill="#FFFDF3"/>
<path d="M250.764 188.511V212.668L212.529 234.844L211.626 235.365C209.958 236.438 208.014 237.004 206.031 236.999H167.865C167.518 236.999 167.17 236.999 166.822 236.964L136.027 233.87L134.046 233.661C133.076 233.587 132.123 233.352 131.23 232.966L129.11 232.132L101.061 220.906L98.6612 219.968C98.1167 219.726 97.5445 219.551 96.9585 219.446L94.3515 218.89L49.166 209.192V185.035L250.764 188.511Z" fill="#B6DADA"/>
<path d="M90.9108 165.153L114.756 163.901C115.059 163.885 115.36 163.849 115.658 163.797L128.589 161.956L147.08 159.313L166.058 156.602L188.894 153.613C189.209 153.643 189.523 153.689 189.833 153.752L242.145 162.373C247.128 163.242 250.764 167.567 250.764 172.625V191.673L211.626 214.37C209.958 215.442 208.014 216.01 206.031 216.004H167.865C167.518 216.004 167.17 216.004 166.822 215.97L134.046 212.668C133.076 212.592 132.123 212.358 131.23 211.972L98.6612 198.973C98.1167 198.731 97.5445 198.556 96.9585 198.451L49.166 188.197V177.249C49.1629 173.493 51.1824 170.028 54.4493 168.177L90.9108 165.153Z" fill="#D0E7E6"/>
<path d="M74.1559 170.645C68.9387 171.18 63.6693 170.957 58.5152 169.985C50.0343 168.526 54.6916 162.443 55.9774 157.402C56.951 153.579 57.2986 147.045 53.9271 110.965C54.8315 111.591 59.3488 105.265 60.6008 105.855C62.4096 114.482 65.5519 122.773 69.9154 130.431C75.234 137.521 77.1797 138.598 78.3963 149.686C78.6409 152.05 78.9177 154.483 79.1623 156.812C79.7529 162.233 73.4268 167.309 74.1559 170.645Z" fill="#B3A291"/>
<path d="M144.751 163.695C140.963 171.169 152.572 168.945 152.12 173.428C151.703 177.912 139.26 177.633 130.78 176.174C122.297 174.714 126.956 168.631 128.242 163.592C129.215 159.768 131.578 143.397 132.725 135.542C138.982 133.873 145.69 120.874 149.339 119.414C150.462 122.496 151.945 125.436 153.754 128.173C155.284 129.841 157.265 142.667 159.211 145.343C152.503 149.167 148.506 156.257 144.751 163.695Z" fill="#B3A291"/>
<path d="M250.869 116.668C249.397 118.828 247.708 120.83 245.829 122.645C244.883 123.636 243.697 124.366 242.388 124.766C238.912 125.392 239.919 123.933 227.198 123.723C222.891 123.716 218.697 122.353 215.207 119.831C212.203 119.898 209.207 120.166 206.239 120.63C201.643 121.286 197.083 122.178 192.579 123.307C189.834 124.002 187.47 124.662 185.627 125.183C185.732 132.587 185.801 140.478 186.358 145.1C187.539 154.763 197.306 168.561 197.306 168.561C211.765 168.04 213.851 173.566 208.846 177.113C203.841 180.692 192.996 179.858 186.67 179.094C180.379 178.328 168.318 161.402 165.294 155.111C163.586 151.666 161.55 148.394 159.211 145.343C157.514 142.999 155.693 140.748 153.754 138.6C152.251 136.428 151.013 134.081 150.07 131.614L149.339 129.84C147.706 130.502 145.446 131.405 142.839 132.343H142.806C139.711 133.456 136.132 134.638 132.725 135.542C130.058 136.333 127.323 136.88 124.556 137.175C118.558 137.494 112.544 137.437 106.552 137.002C103.945 136.828 101.547 136.654 99.5658 136.514H99.5304C97.674 143.995 95.293 151.335 92.4061 158.482C90.3204 164.216 90.668 167.171 91.8493 168.354C93.0305 169.535 102.068 168.457 101.859 173.011C101.616 177.599 93.5873 177.599 88.7208 177.599C83.8205 177.599 77.2853 176.173 75.5473 174.435C74.8274 173.283 74.3537 171.993 74.1568 170.647C73.4278 167.311 72.8018 162.235 72.2112 156.813C71.9682 154.485 71.6898 152.052 71.4468 149.688C70.2301 138.6 68.2829 137.523 62.9658 130.432C59.7328 125.065 57.7379 119.045 57.1258 112.809C56.0107 112.285 54.9417 111.668 53.9281 110.967C44.4736 104.19 50.835 93.4142 57.2642 81.9094C64.6685 68.7004 84.7941 65.0859 113.608 69.5694C142.423 74.0544 141.275 73.4977 158.932 71.3074C167.645 70.6184 176.377 72.3887 184.132 76.4169C184.167 76.4861 184.203 76.4861 184.237 76.4523C188.617 76.9737 193.691 77.6335 198.765 78.4687C206.959 79.5515 214.989 81.6279 222.679 84.6548C231.723 88.5308 239.177 95.3721 243.812 104.05C244.612 106.205 249.965 115.173 250.764 116.494C250.803 116.55 250.837 116.608 250.869 116.668Z" fill="#F2E9C3"/>
<path d="M198.767 78.4695C198.908 79.3908 198.67 80.3321 198.107 81.0766C197.456 81.9579 196.423 82.4747 195.326 82.4654C194.586 82.4593 193.868 82.2147 193.276 81.7702C190.514 79.8107 187.582 78.1004 184.517 76.6608C184.409 76.6162 184.314 76.5439 184.238 76.4531C188.619 76.9745 193.693 77.6344 198.767 78.4695Z" fill="#C6B198"/>
<path d="M106.552 137.001C103.945 136.827 101.548 136.654 99.5665 136.514C101.177 130.511 101.355 124.212 100.088 118.128L95.9167 103.771C95.5752 102.573 95.8998 101.284 96.7657 100.389C97.6332 99.4938 98.9113 99.1292 100.12 99.4338C101.329 99.7368 102.284 100.661 102.626 101.859L106.762 116.216C108.33 123.063 108.258 130.186 106.552 137.001Z" fill="#C6B198"/>
<path d="M192.58 123.309C189.834 124.004 187.47 124.664 185.628 125.185C185.781 120.051 185.514 114.913 184.828 109.823C184.142 108.047 184.988 106.047 186.74 105.304C188.487 104.591 190.483 105.411 191.225 107.145C192.197 109.44 192.475 114.271 192.58 123.309Z" fill="#C6B198"/>
<path d="M149.34 129.841C147.706 130.503 145.447 131.405 142.84 132.344H142.806C139.087 123.272 135.159 112.115 134.985 111.594C134.568 110.426 134.807 109.126 135.61 108.182C136.412 107.238 137.658 106.795 138.878 107.018C140.096 107.241 141.104 108.097 141.519 109.265C141.59 109.403 145.656 120.874 149.34 129.841Z" fill="#C6B198"/>
<path d="M215.208 119.832C212.204 119.899 209.208 120.167 206.24 120.631C205.587 119.764 205.006 118.846 204.502 117.884C203.666 116.157 204.38 114.078 206.101 113.227C206.926 112.823 207.878 112.764 208.745 113.064C209.613 113.366 210.325 113.999 210.723 114.827C211.849 116.772 213.364 118.464 215.173 119.796L215.208 119.832Z" fill="#C6B198"/>
<path d="M216.322 96.8841C217.297 96.6549 218.128 96.0197 218.605 95.1384C219.081 94.2571 219.16 93.2127 218.818 92.2714C218.089 89.7059 215.89 87.8279 213.241 87.5126C210.614 87.2465 208.056 88.4678 206.611 90.678C205.588 92.316 205.402 94.3417 206.109 96.1381C206.712 97.7777 208.447 98.7052 210.145 98.2945L216.322 96.8841Z" fill="#C6B198"/>
<path d="M250.869 116.666C249.397 118.826 247.708 120.828 245.828 122.643L243.326 122.157C241.446 121.81 240.202 120.005 240.545 118.126C240.699 117.209 241.219 116.394 241.986 115.87C242.754 115.345 243.701 115.156 244.612 115.345L250.764 116.492C250.803 116.548 250.836 116.606 250.869 116.666Z" fill="#71788C"/>
<path d="M233.386 104.917C233.386 106.837 231.829 108.393 229.91 108.393C227.99 108.393 226.434 106.837 226.434 104.917C226.434 102.998 227.99 101.441 229.91 101.441C231.829 101.441 233.386 102.998 233.386 104.917Z" fill="#71788C"/>
<path d="M101.304 213.71V219.654C101.313 220.084 101.231 220.51 101.061 220.906L98.6612 219.967C98.1168 219.726 97.5446 219.55 96.9586 219.446L94.3516 218.889V213.71C94.3516 211.791 95.9081 210.234 97.8276 210.234C99.7471 210.234 101.304 211.791 101.304 213.71Z" fill="#9CC2C4"/>
<path d="M136.061 224.139V233.419C136.068 233.572 136.057 233.722 136.026 233.871L134.045 233.662C133.075 233.588 132.122 233.353 131.229 232.967L129.109 232.133V224.139C129.109 222.219 130.666 220.664 132.585 220.664C134.505 220.664 136.061 222.219 136.061 224.139Z" fill="#9CC2C4"/>
<path d="M212.529 227.617V234.847L211.626 235.369C209.957 236.441 208.013 237.007 206.031 237.002H205.612C205.583 236.853 205.571 236.702 205.578 236.55V227.617C205.578 225.697 207.135 224.141 209.054 224.141C210.974 224.141 212.529 225.697 212.529 227.617Z" fill="#9CC2C4"/>
</g>
<defs>
<clipPath id="clip0_626_19894">
<rect width="300" height="300" fill="white"/>
</clipPath>
</defs>
</svg>
