<svg id="Capa_1" enable-background="new 0 0 512 512" viewBox="0 0 512 512" xmlns="http://www.w3.org/2000/svg"><g><path d="m262.181 208.394c-70.863 25.682-256.699-110.813-198.979-207.983 47.605-2.205 114.474 3.358 155.29 44.174 43.308 43.309 46.934 115.988 43.689 163.809z" fill="#6dc847"/><path d="m262.181 208.394c-1.906 28.083-6.181 47.605-6.181 47.605s-142.68 31.225-211.413-37.509c-54.476-54.476-46.163-155.393-40.373-194.921 1.473-10.023 9.333-17.884 19.357-19.357 9.91-1.453 23.694-3.06 39.631-3.801-1.439 104.527 133.728 202.76 198.979 207.983z" fill="#4eb229"/><path d="m510.29 467.362c-109.278 8.908-234.005-128.729-195.157-218.152 47.368-1.834 112.321 4.337 152.281 44.298 46.471 46.472 47.254 126.723 42.876 173.854z" fill="#6dc847"/><path d="m510.29 467.362c-.752 8.118-1.659 15.257-2.504 21.067-1.473 10.024-9.333 17.884-19.357 19.357-39.528 5.79-140.445 14.103-194.921-40.373-68.733-68.733-37.508-211.414-37.508-211.414s25.013-5.47 59.132-6.789c-.381 88.823 103.668 193.325 195.158 218.152z" fill="#4eb229"/><path d="m447.332 375.916-76.152-15.344-35.812-35.812 71.395 2.842c4.183.155 7.628-3.059 7.793-7.195.165-4.14-3.057-7.628-7.195-7.793l-87.627-3.489-116.859-116.859-3.489-87.628c-.165-4.138-3.635-7.342-7.792-7.195-4.139.165-7.36 3.653-7.196 7.793l2.843 71.395-35.813-35.813-15.344-76.152c-.818-4.06-4.771-6.687-8.833-5.871-4.061.818-6.689 4.773-5.871 8.834l10.886 54.027-47.425-47.423c-2.929-2.928-7.678-2.928-10.606 0-2.929 2.93-2.929 7.678 0 10.607l47.423 47.423-54.027-10.887c-4.058-.816-8.015 1.811-8.833 5.871s1.81 8.016 5.871 8.834l76.153 15.345 35.812 35.812-71.396-2.842c-4.135-.171-7.628 3.058-7.792 7.195-.165 4.14 3.057 7.628 7.196 7.793l87.627 3.489 116.858 116.858 3.49 87.627c.161 4.037 3.484 7.201 7.489 7.201.101 0 .202-.002.304-.006 4.139-.165 7.36-3.653 7.195-7.793l-2.843-71.395 35.813 35.814 15.344 76.152c.718 3.561 3.847 6.02 7.345 6.02.491 0 .989-.048 1.489-.148 4.061-.818 6.688-4.773 5.871-8.834l-10.886-54.026 47.422 47.422c1.465 1.464 3.384 2.196 5.304 2.196 1.919 0 3.839-.732 5.304-2.196 2.929-2.93 2.929-7.678 0-10.607l-47.423-47.423 54.026 10.886c4.059.814 8.015-1.811 8.834-5.871.816-4.061-1.812-8.016-5.873-8.834z" fill="#3f8e20"/><path d="m405.871 229.41c-4.007 4.007-8.365 7.531-12.991 10.621-118.659 15.968-129.801-101.803-78.778-154.28 36.499-14.896 81.086-11.713 103.688-8.664 8.901 1.205 15.916 8.221 17.121 17.122 4.029 29.824 8.273 97.888-29.04 135.201z" fill="#8dd470"/><path d="m392.88 240.031c-41.513 27.808-104.669 21.246-127.9 17.589l-1.901-8.694-8.699-1.906c-4.066-25.82-11.725-100.958 28.209-140.892 9.024-9.024 19.862-15.628 31.513-20.377-33.841 71.258-11.424 145.998 78.778 154.28z" fill="#6dc847"/><path d="m231.21 404.01c-111.65 33.18-138.53-103.95-78.16-146.96 36.45-9.82 76.5-5.42 93.97-2.67l1.48 9.119 9.12 1.481c4 25.41 11.49 98.66-26.41 139.03z" fill="#8dd470"/><path d="m231.214 404.006c-.587.628-1.185 1.247-1.803 1.865-37.313 37.313-105.377 33.069-135.201 29.041-8.901-1.205-15.916-8.221-17.122-17.122-4.028-29.824-8.272-97.888 29.041-135.201 12.908-12.908 29.504-20.851 46.925-25.538-34.758 55.454-6.346 154.197 78.16 146.955z" fill="#6dc847"/><g fill="#4eb229"><path d="m367.89 197.3-53.33 10.75-49.58 49.57c-5.69-.9-8.98-1.62-8.98-1.62s-.72-3.29-1.62-8.98l49.57-49.58 10.75-53.34c.81-4.06 4.77-6.68 8.83-5.87 4.06.82 6.69 4.78 5.87 8.84l-6.29 31.21 36.84-36.84c2.93-2.93 7.68-2.93 10.61 0s2.93 7.68 0 10.61l-36.84 36.84 31.21-6.29c4.06-.82 8.02 1.81 8.84 5.87.81 4.06-1.81 8.01-5.88 8.83z"/><path d="m257.62 264.98-49.57 49.58-10.75 53.33c-.71 3.57-3.84 6.02-7.34 6.02-.49.01-.99-.04-1.49-.14-4.06-.82-6.69-4.78-5.87-8.84l6.29-31.21-36.84 36.84c-1.47 1.46-3.38 2.19-5.3 2.19s-3.84-.73-5.31-2.19c-2.93-2.93-2.93-7.68 0-10.61l36.84-36.84-31.21 6.29c-4.06.82-8.02-1.81-8.84-5.87-.81-4.06 1.81-8.02 5.88-8.83l53.33-10.75 49.58-49.57c5.69.9 8.98 1.62 8.98 1.62s.72 3.29 1.62 8.98z"/></g></g><g/><g/><g/><g/><g/><g/><g/><g/><g/><g/><g/><g/><g/><g/><g/></svg>