<svg id="Layer_1" enable-background="new 0 0 512 512" height="512" viewBox="0 0 512 512" width="512" xmlns="http://www.w3.org/2000/svg"><g id="_44_Maple"><path d="m444.9 149.1c72.1-49.2 32.4-57.9 4.1-55.5-1 .1-2-.3-2.8-1-1.4-1.4-1.4-3.6 0-5 23.4-13.9 41.4-20.2 41.4-28.4 0-2.4-1.6-5-5-8l7.6-7.6c5.9-5.9 5.5-16.4 0-22.7-6.4-5.5-15.9-5.1-21.8.9l-7.6 7.6c-13-15-18.3 5.7-35.8 35.5-.7 1.1-1.8 1.9-3.1 1.9-1.9-.2-3.5-1.9-3.4-3.8 2.4-28.3-6.3-68-55.5 4.1 0 0-22.7-106-47.3-12.6 0 0-36.5-56-28.1 47.3-1.7-12.4-53.5-77.5-36.2 44.2 0 0-28.1-6.6-18.9 7 8.5 12.6 61.5 37.6-32.6 131-4.2 4.2-11-.9-8.2-6.1 23.3-43.4 59.8-118.9 22.8-105-5.7 1.9 21.7-69.8-24.8-32.4-22.2 10 28.6-54.7-1-38.3 15.5-47-18.3-70-37.2-22.7-7.5-8.7-25.9-13.7-23.5 40.7-3.5-26.6-67.8-13.1-18.9 65.2-3.3-4.8-53.7-59-38.7-17.2-13.6-11-54.9-32.2-32.8 24-41.6-17.7-12.9 25.9 7.6 36-57.6 19.6 70.8 76.8 100.9 112.3l25.9 25.9c35.5 30.1 92.7 158.6 112.3 100.9 10 20.5 53.6 49.2 36 7.6 56.2 22.1 35-19.2 24-32.8 41.8 15-12.4-35.4-17.2-38.7 78.3 48.9 91.8-15.4 65.2-18.9 54.4 2.4 49.4-16 40.7-23.5 47.3-18.9 24.3-52.7-22.7-37.2 16.4-29.6-48.3 21.1-38.3-1 37.4-46.5-34.2-19.2-32.4-24.8 13.8-37-61.7-.5-105 22.8-5.2 2.8-10.3-4-6.1-8.2 93.4-94 118.4-41.1 131-32.6 13.6 9.2 7-18.9 7-18.9 121.7 17.2 56.6-34.6 44.2-36.2 103.4 8.4 47.3-28.1 47.3-28.1 92.9-25-13.1-47.7-13.1-47.7z" fill="#58d66d"/><g fill="#45ad54"><path d="m251.7 177.8c5.8 13.9 5.4 34.6-17.7 66.7-4.4 14.4 15.3 23.1 23.1 10.3 28.6-46.9 5.2-66.2-5.4-77z"/><path d="m369.7 57.5c.7 1.8 1.4 3.6 2 5.4 3.5 9.8 16.3 12.1 23 4.2 10.2-12.1 18-17.9 23.9-19.4-2-22.1-13.7-38.1-48.9 9.8z"/><path d="m251.2 146s-28.1-6.6-18.9 6.9c2.5 3.7 8.9 8.5 14.2 15.8.8-4.5 10.9-3.5 16.7-2.6 2 .3 3.7-1.4 3.5-3.4-9.6-72 6.3-74.8 20.1-63.6-6.6-16.5-51.8-67.9-35.6 46.9z"/><path d="m151.2 79.4c-7.5-8.7-25.9-13.7-23.5 40.7-3.5-26.6-67.8-13.1-18.9 65.2-3.3-4.8-53.7-59-38.7-17.2-13.6-11-54.9-32.2-32.8 24-34.1-14.5-21 12.2-3.9 27.8-3.6-8.5-1.1-14.1 13.8-9.1 2.4.8 4.6-1.5 3.8-3.8-14.3-41.5 12.2-32.7 28.2-22.7 2.2 1.4 5-.6 4.5-3.1-3.3-16.2 12.5-3.9 25.5 8.6 2.4 2.3 6.2-.4 4.8-3.4-22.4-50.4 11.1-65 24.6-54.4 2 1.6 4.9.2 4.9-2.3.6-42.1 16.8-37.2 23.7-29.2 7.3-18.3 16.8-26.1 24.9-26-2.8-26.2-26.3-31.7-40.9 4.9z"/></g><g><path d="m468.3 21.8-7.6 7.6c-11.4-13.1-16.8 1-29.7 24.7 3.7 7.3 4.3 19.4 3.4 29.9l55.1-63.5c-6.3-4.9-15.4-4.4-21.2 1.3z" fill="#45ad54"/></g><path d="m315.6 54.5s-36-55.3-28.3 45.2c3.6 3 7 7 9.8 10.8 1.7 2.4 5.6 1.1 5.4-1.9-3.1-66.5 17-48.3 25.4-38 1.5 1.9 4.5 1.3 5.2-1.1 7.3-25.1 14.3-33.3 20.7-32.5-8.8-22.2-23.2-39.7-38.2 17.5z" fill="#45ad54"/></g><path d="m469.6 45.3c-2-2-5.1-2-7.1 0l-108.1 108.2v-68.9c0-2.8-2.2-5-5-5s-5 2.2-5 5v78.7l-37.3 37.5v-68.9c0-2.8-2.2-5-5-5s-5 2.2-5 5v78.7l-121.1 121.2c-1.5-41.5-12.2-56.8-24.5-74.2-7.4-10.5-15-21.4-22.1-39.7-1-2.6-3.9-3.9-6.5-2.9s-3.9 3.9-2.9 6.5c7.5 19.4 15.9 31.3 23.2 41.8 12.7 18.1 22.8 32.4 22.8 78.3l-50.8 50.8c-2 1.9-2 5.1-.1 7.1s5.1 2 7.1.1l.1-.1 50.8-50.8c45.9 0 60.2 10.1 78.3 22.8 10.5 7.4 22.4 15.7 41.8 23.2 2.6 1 5.5-.3 6.5-2.9s-.3-5.5-2.9-6.5c-18.3-7.1-29.2-14.7-39.7-22.1-17.5-12.3-32.7-23-74.2-24.5l121.2-121h78.7c2.8 0 5-2.2 5-5s-2.2-5-5-5h-68.9l37.5-37.3h78.7c2.8 0 5-2.2 5-5s-2.2-5-5-5h-68.9l108.4-108c1.9-1.9 1.9-5.1 0-7.1z" fill="#378940"/></svg>