<svg width="512" height="512" viewBox="0 0 512 512" fill="none" xmlns="http://www.w3.org/2000/svg">
<path d="M237.82 100.699C237.44 137.619 235.98 177.159 231.78 191.599C229.58 199.129 225.94 210.089 221.79 222.129C212.33 249.499 200.18 282.459 196.15 293.429C177.2 344.979 170.04 424.149 196.15 463.989C197 465.289 197.873 466.553 198.77 467.779L198.69 467.839C161.58 487.649 110.64 472.119 94.0101 428.369C93.4301 426.829 92.8901 425.259 92.3901 423.659C78.1501 377.669 106.04 306.709 156.84 261.599C179.23 241.709 205.16 204.069 216.58 181.959C220.84 173.712 224.408 165.126 227.25 156.289C232.01 141.649 235.76 123.759 237.82 100.699Z" fill="#FFF5CC"/>
<path d="M114.01 428.369C113.43 426.829 112.89 425.259 112.39 423.659C98.1501 377.669 126.04 306.709 176.84 261.599C196.73 243.93 219.405 212.262 232.228 189.908C236.084 174.265 237.454 136.271 237.82 100.699C235.76 123.759 232.01 141.649 227.25 156.289C224.408 165.126 220.84 173.712 216.58 181.959C205.16 204.069 179.23 241.709 156.84 261.599C106.04 306.709 78.1501 377.669 92.3901 423.659C92.8901 425.259 93.4301 426.829 94.0101 428.369C107.183 463.024 141.881 479.95 174.184 475.653C148.536 472.25 124.477 455.905 114.01 428.369Z" fill="#EFECB4"/>
<path d="M318.11 293.43C352.32 352.13 343.8 423.28 318.11 463.99C316.37 466.75 314.55 469.353 312.65 471.8C280.51 513.43 228.67 509.17 198.77 467.78C197.87 466.55 196.997 465.287 196.15 463.99C170.04 424.15 177.2 344.98 196.15 293.43C200.18 282.46 212.33 249.5 221.79 222.13C243.57 161.91 264.17 145.85 272.83 69.5898C273.08 77.8998 273.34 86.6398 273.6 95.4998C274.78 134.33 276.06 175.33 276.77 191.6C279.01 243.07 303.03 267.55 318.11 293.43Z" fill="#FFF5CC"/>
<path d="M238.77 467.78C237.87 466.55 236.997 465.287 236.15 463.99C210.04 424.15 217.2 344.98 236.15 293.43C240.18 282.46 252.33 249.5 261.79 222.13C266.816 208.23 271.78 196.688 276.549 186.211C275.813 167.423 274.666 130.579 273.6 95.4998C273.34 86.6398 273.08 77.8998 272.83 69.5898C264.17 145.85 243.57 161.91 221.79 222.13C212.33 249.5 200.18 282.46 196.15 293.43C177.2 344.98 170.04 424.15 196.15 463.99C197 465.29 197.873 466.553 198.77 467.78C219.287 496.18 250.135 507.098 277.859 497.702C263.273 492.862 249.586 482.752 238.77 467.78Z" fill="#EFECB4"/>
<path d="M227.25 156.289C224.408 165.126 220.839 173.712 216.58 181.959C205.16 204.069 179.23 241.709 156.84 261.599C106.04 306.709 78.1499 377.669 92.3899 423.659C92.8899 425.259 93.4299 426.829 94.0099 428.369L93.8099 428.449C85.039 422.647 77.6156 415.03 72.0416 406.113C66.4675 397.195 62.8727 387.185 61.4999 376.759C54.8399 329.089 76.4999 275.989 145.51 237.029C167.66 224.519 206.22 200.099 227.25 156.289Z" fill="#FFF5CC"/>
<g opacity="0.5">
<path d="M139.928 324.059C135.885 295.334 137.272 266.105 144.018 237.893C76.195 276.773 54.888 329.444 61.5 376.767C62.8727 387.193 66.4676 397.203 72.0416 406.12C77.6157 415.038 85.039 422.655 93.81 428.457L94.01 428.377C110.64 472.127 161.58 487.657 198.69 467.847L198.77 467.787C219.154 496.005 249.735 506.958 277.319 497.887C208.012 477.035 151.778 409.944 139.928 324.059Z" fill="#D94B4B" fill-opacity="0.2"/>
<path d="M139.928 324.059C135.885 295.334 137.272 266.105 144.018 237.893C76.195 276.773 54.888 329.444 61.5 376.767C62.8727 387.193 66.4676 397.203 72.0416 406.12C77.6157 415.038 85.039 422.655 93.81 428.457L94.01 428.377C110.64 472.127 161.58 487.657 198.69 467.847L198.77 467.787C219.154 496.005 249.735 506.958 277.319 497.887C208.012 477.035 151.778 409.944 139.928 324.059Z" fill="black" fill-opacity="0.1"/>
</g>
<path d="M353.37 265.83C404.17 310.94 432.05 381.9 417.81 427.89C417.77 428.02 417.73 428.16 417.68 428.29C402.87 475.32 350.96 492.24 312.65 471.8C314.55 469.36 316.37 466.757 318.11 463.99C343.8 423.28 352.32 352.13 318.11 293.43C303.03 267.55 279.01 243.07 276.77 191.6C276.06 175.33 274.78 134.33 273.6 95.5H273.61C277.14 116.24 281.18 137.96 285.79 156.29C287.89 164.995 290.508 173.567 293.63 181.96C302.92 205.96 330.97 245.94 353.37 265.83Z" fill="#FFF5CC"/>
<path d="M353.37 265.83C404.17 310.94 432.05 381.9 417.81 427.89C417.77 428.02 417.73 428.16 417.68 428.29C402.87 475.32 350.96 492.24 312.65 471.8C314.55 469.36 316.37 466.757 318.11 463.99C343.8 423.28 352.32 352.13 318.11 293.43C303.03 267.55 279.01 243.07 276.77 191.6C276.06 175.33 274.78 134.33 273.6 95.5H273.61C277.14 116.24 281.18 137.96 285.79 156.29C287.89 164.995 290.508 173.567 293.63 181.96C302.92 205.96 330.97 245.94 353.37 265.83Z" fill="#FF7878" fill-opacity="0.1"/>
<path d="M332.65 471.8C334.55 469.36 336.37 466.757 338.11 463.99C363.8 423.28 372.32 352.13 338.11 293.43C323.03 267.55 299.01 243.07 296.77 191.6C296.735 190.791 296.698 189.9 296.66 188.976C295.504 186.521 294.486 184.176 293.63 181.96C290.508 173.567 287.89 164.995 285.79 156.29C281.18 137.96 277.14 116.24 273.61 95.5H273.6C274.78 134.33 276.06 175.33 276.77 191.6C279.01 243.07 303.03 267.55 318.11 293.43C352.32 352.13 343.8 423.28 318.11 463.99C316.37 466.75 314.55 469.353 312.65 471.8C326.274 479.01 341.819 481.753 357.088 479.643C348.54 478.503 340.265 475.847 332.65 471.8Z" fill="#EFECB4"/>
<path d="M332.65 471.8C334.55 469.36 336.37 466.757 338.11 463.99C363.8 423.28 372.32 352.13 338.11 293.43C323.03 267.55 299.01 243.07 296.77 191.6C296.735 190.791 296.698 189.9 296.66 188.976C295.504 186.521 294.486 184.176 293.63 181.96C290.508 173.567 287.89 164.995 285.79 156.29C281.18 137.96 277.14 116.24 273.61 95.5H273.6C274.78 134.33 276.06 175.33 276.77 191.6C279.01 243.07 303.03 267.55 318.11 293.43C352.32 352.13 343.8 423.28 318.11 463.99C316.37 466.75 314.55 469.353 312.65 471.8C326.274 479.01 341.819 481.753 357.088 479.643C348.54 478.503 340.265 475.847 332.65 471.8Z" fill="black" fill-opacity="0.1"/>
<path d="M366.49 237.029C435.5 275.989 457.16 329.089 450.5 376.759C449.127 387.185 445.532 397.195 439.958 406.113C434.384 415.03 426.961 422.647 418.19 428.449L417.68 428.289C417.73 428.159 417.77 428.019 417.81 427.889C432.05 381.899 404.17 310.939 353.37 265.829C330.97 245.939 302.92 205.959 293.63 181.959C290.508 173.566 287.89 164.994 285.79 156.289C306.83 200.099 344.34 224.519 366.49 237.029Z" fill="#FFF5CC"/>
<path d="M366.49 237.029C435.5 275.989 457.16 329.089 450.5 376.759C449.127 387.185 445.532 397.195 439.958 406.113C434.384 415.03 426.961 422.647 418.19 428.449L417.68 428.289C417.73 428.159 417.77 428.019 417.81 427.889C432.05 381.899 404.17 310.939 353.37 265.829C330.97 245.939 302.92 205.959 293.63 181.959C290.508 173.566 287.89 164.994 285.79 156.289C306.83 200.099 344.34 224.519 366.49 237.029Z" fill="#A00C0C" fill-opacity="0.1"/>
<path d="M272.83 69.58V69.59C264.17 145.85 243.57 161.91 221.79 222.13C225.94 210.09 229.58 199.13 231.78 191.6C235.98 177.16 237.44 137.62 237.82 100.7C238.23 61.42 237.42 25.1 237.42 25.1L271.13 11C271.13 11 271.87 36.96 272.83 69.58Z" fill="#AAD370"/>
</svg>
