<svg id="Capa_1" enable-background="new 0 0 512 512" viewBox="0 0 512 512" xmlns="http://www.w3.org/2000/svg"><g><g><path d="m68.063 147.226c-22.345 22.345-23.989 57.532-4.965 81.787l8.08.866 2.2 10.076 167.295 167.295 87.414-87.414-172.61-172.61c-24.139-24.138-63.275-24.138-87.414 0z" fill="#ffc247"/></g><g><path d="m364.793 148.819h9.999c10.968-16.043 9.341-38.112-4.901-52.355-16.092-16.092-42.183-16.092-58.276 0l-87.414 87.414 58.276 58.276 81.895-81.895z" fill="#ffd154"/></g><g><path d="m443.928 249.359c-22.734-22.734-58.766-24.048-83.048-3.961l-2.528 9.252-9.268 1.12c-11.6 7.664-25.929 6.813-36.591.012l-8.801-.397-2.465-11.602c-1.246-2.286-2.24-4.758-2.922-7.406l-6.834-6.498 5.751-9.051v-129.411l-7.733-5.758 7.447-10.021c-2.252-27.635-18.137-51.401-40.921-64.586-150.606 32.946-64.564 479.344 164.482 459.035 9.993-17.694 12.924-38.29 8.8-57.691l-6.541-6.316 2.72-8.229c-2.152-10.419-1.726-21.071 1.026-31.109l-3.746-9.048 9.592-5.436c3.06-5.611 6.932-10.84 11.58-15.487 24.138-24.137 24.138-63.273 0-87.412z" fill="#ffdf61"/></g><g><path d="m290.241 364.045c-48.299-48.299-75.433-113.807-75.433-182.112v-99.519c0-30.5 16.58-57.11 41.207-71.361-12.125-7.017-26.19-11.053-41.207-11.053-45.517 0-82.415 36.898-82.415 82.414v59.833l6.326 10.513-6.326 5.383v64.997c0 65.88 25.249 129.152 70.376 176.897l10.262 3.071 1.305 8.653 39.68 39.68 9.877-1.93.843 12.65 25.699 25.699c32.185 32.185 84.366 32.185 116.551 0 5.42-5.42 9.917-11.41 13.51-17.773-17.422-2.254-34.264-10.052-47.647-23.434z" fill="#ffd154"/></g><g><g><path d="m297.223 91.417v-9.003c0-2.282-.104-4.54-.286-6.775-5.5 2.03-53.946 18.919-111.508 7.282-4.065-.819-8.017 1.807-8.838 5.865-.82 4.061 1.806 8.017 5.865 8.838 15.819 3.197 30.904 4.417 44.722 4.417 33.177 0 59.009-7.031 70.045-10.624z" fill="#ffc247"/></g><g><path d="m374.792 148.819c-1.65-.785-18.313-9.059-32.6-29.419-2.379-3.389-7.056-4.209-10.448-1.831-3.391 2.38-4.21 7.058-1.831 10.448 12.831 18.283 27.295 28.129 34.459 32.241l5.519-5.519c1.849-1.849 3.476-3.836 4.901-5.92z" fill="#ffc247"/></g><g><path d="m133.174 142.509c-.258-.103-.519-.188-.78-.261v15.896c10.325 3.409 36.497 10.663 72.265 10.663 13.741 0 28.9-1.071 45.114-3.844 4.083-.698 6.827-4.573 6.129-8.656s-4.578-6.829-8.656-6.129c-65.301 11.166-113.355-7.387-114.072-7.669z" fill="#ffc247"/></g><g><path d="m298.305 236.377c-.673-2.616-1.057-5.392-1.08-8.323-.002-.215-.003-.431-.003-.647v-6.579c-.253.07-.505.153-.755.252-.561.22-56.755 21.959-113.783 7.994-4.019-.981-8.082 1.478-9.068 5.502-.984 4.022 1.479 8.083 5.502 9.068 15.331 3.753 30.458 5.174 44.589 5.174 35.455 0 64.57-8.944 74.598-12.441z" fill="#ffc247"/></g><g><path d="m312.493 255.782c-4.627-2.952-8.552-7.02-11.266-11.999-.589 1.911-9.226 28.246-41.055 41.773-3.812 1.62-5.589 6.023-3.969 9.836 1.213 2.855 3.987 4.568 6.905 4.568.979 0 1.974-.192 2.931-.6 27.973-11.887 41.095-32.357 46.454-43.578z" fill="#ffc247"/></g><g><path d="m413.746 293.859c-39.273-12.683-51.66-45.622-52.175-47.037-.183-.509-.417-.983-.691-1.424-1.501 1.241-2.961 2.556-4.366 3.961l-1.967 1.967c-1.726 1.726-3.562 3.188-5.463 4.445 4.892 10.62 21.48 39.907 60.053 52.362.766.248 1.543.365 2.307.365 3.166 0 6.109-2.021 7.135-5.197 1.273-3.942-.891-8.169-4.833-9.442z" fill="#ffc247"/></g><g><path d="m342.254 306.305c-2.329-3.426-6.995-4.313-10.419-1.984-3.426 2.329-4.314 6.994-1.985 10.419 28.38 41.735 81.633 50.37 96.652 52.004 1.376-5.018 3.335-9.88 5.846-14.484-.332-.066-.67-.119-1.017-.14-.603-.036-60.732-4.131-89.077-45.815z" fill="#ffc247"/></g><g><path d="m68.063 234.64 5.316 5.316c5.024-4.998 24.405-25.468 31.763-50.63 1.163-3.976-1.117-8.142-5.093-9.304-3.98-1.168-8.142 1.118-9.304 5.093-6.173 21.108-23.052 39.245-27.647 43.898 1.527 1.948 3.171 3.833 4.965 5.627z" fill="#ffac48"/></g><g><path d="m429.297 412.398c-.562-2.642-1.246-5.263-2.07-7.85-.705-2.215-1.287-4.45-1.751-6.695-9.797 3.127-58.319 20.476-89.659 65.983-2.35 3.411-1.488 8.081 1.923 10.431 1.299.895 2.78 1.324 4.247 1.324 2.385 0 4.729-1.135 6.184-3.247 27.625-40.113 71.317-56.641 81.126-59.946z" fill="#ffc247"/></g><g><path d="m361.712 386.084c-1.163-3.976-5.327-6.258-9.305-5.092-53.913 15.78-89.629 58.938-98.391 70.45l10.72 10.72c4.473-6.069 39.295-51.382 91.884-66.773 3.976-1.164 6.255-5.33 5.092-9.305z" fill="#ffc247"/></g><g><path d="m293.244 323.578c-3.79-1.667-8.218.051-9.886 3.843-23.55 53.502-77.635 71.664-80.589 72.616 1.661 1.758 3.342 3.5 5.057 5.215l6.509 6.509c17.396-7.029 61.019-28.924 82.751-78.298 1.67-3.79-.051-8.216-3.842-9.885z" fill="#ffc247"/></g></g></g><g/><g/><g/><g/><g/><g/><g/><g/><g/><g/><g/><g/><g/><g/><g/></svg>