<svg id="Capa_1" enable-background="new 0 0 511.995 511.995" height="300" viewBox="0 0 511.995 511.995" width="300" xmlns="http://www.w3.org/2000/svg" version="1.1" xmlns:xlink="http://www.w3.org/1999/xlink" xmlns:svgjs="http://svgjs.dev/svgjs"><g width="100%" height="100%" transform="matrix(1,0,0,1,0,0)"><g><g fill="#95d6a4"><path d="m255.994 256.124c-36.151 33.411-50.997 79.094-50.997 129.545 0 47.679 18.292 86.622 51 119.451l11.789-1.776c22.539-24.735 38.145-54.83 44.069-87.87l2.421-21.209c.144-2.849.222-5.715.222-8.596 0-50.45-22.353-96.133-58.504-129.545z" fill="#4eb268" fill-opacity="1" data-original-color="#95d6a4ff" stroke="none" stroke-opacity="1"/><path d="m173.056 140.685c-2.542-1.468-5.107-2.861-7.695-4.183l-19.588-8.484c-31.529-11.34-65.335-12.857-97.971-5.719l-6.056 11.446c12.084 44.717 37.226 78.92 78.5 102.75 43.692 25.226 88.736 34.231 135.747 19.629-10.859-48.013-39.245-90.213-82.937-115.439z" fill="#4eb268" fill-opacity="1" data-original-color="#95d6a4ff" stroke="none" stroke-opacity="1"/><path d="m469.664 130.995c-44.784-11.911-84.375-9.173-125.667 14.667-43.692 25.226-77.144 62.449-88.003 110.462 47.01 14.602 97.75 11.119 141.442-14.106 2.657-1.534 5.258-3.131 7.801-4.788l17.12-12.769c25.432-21.611 43.546-50.041 53.64-81.759z" fill="#4eb268" fill-opacity="1" data-original-color="#95d6a4ff" stroke="none" stroke-opacity="1"/></g><path d="m472.592 124.336c-44.784-11.911-92.37-7.491-133.661 16.349-40.151 23.182-67.192 60.768-79.768 103.957l-3.17 1.83-72.362-41.78-18.27-68.19c-6.417-3.284-12.935-6.086-19.588-8.484l17.388 64.856-55.388-31.979c-3.991-2.293-9.109-.935-11.418 3.061-.759 1.314-1.118 2.751-1.118 4.171 0 2.889 1.494 5.697 4.179 7.248l55.003 31.756-44.518 11.929c-30.953-22.422-52.672-56.164-62.098-96.76-2.804.613-5.594 1.313-8.38 2.045-4.374 1.149-7.031 5.755-5.852 10.121 12.081 44.729 39.699 83.717 80.982 107.553 40.207 23.213 86.377 27.98 130.122 17.22l2.962 5.149c-31.187 32.503-50.147 74.861-50.147 121.284 0 47.679 19.964 91.1 52.672 123.928 3.185 3.196 8.48 3.196 11.664 0 2.044-2.051 4.018-4.122 5.96-6.254-30.525-28.586-48.961-64.561-52.772-102.744l32.622-32.622v64.124c0 4.616 3.738 8.358 8.358 8.358s8.358-3.742 8.358-8.358v-64.124l47.495 47.495c1.244-6.965 2.071-14.004 2.429-21.208l-49.924-49.924v-83.394l72.746-42 68.135 18.274c6.032-3.923 11.741-8.195 17.125-12.762l-64.789-17.33 55.003-31.755c2.685-1.551 4.179-4.358 4.179-7.248 0-1.42-.359-2.857-1.118-4.171-1.551-2.681-4.358-4.179-7.248-4.179-1.42 0-2.857.359-4.171 1.118l-55.387 31.979 11.937-44.549c34.939-15.732 75.268-17.751 115.232-5.625.876-2.748 1.673-5.468 2.428-8.263 1.177-4.356-1.471-8.942-5.832-10.102zm-342.8 106.697 45.097-12.085 61.92 35.797s-29.496-7.046-36.812-7.048c-24.715-.005-48.551-5.603-70.205-16.664zm117.844 113.308-32.978 32.978c1.342-24.085 8.41-47.329 20.681-68.569l12.297-36.13zm80.72-139.648-54.859 31.677c2.959-7.149 14.339-18.613 18.139-25.127 12.249-20.997 28.757-38.538 48.794-51.61z" fill="#4a875b" fill-opacity="1" data-original-color="#78c2a4ff" stroke="none" stroke-opacity="1"/><path d="m267.796 8.658-11.799-1.329c-32.708 32.828-49.672 71.313-49.672 118.992 0 73.674 49.669 129.803 49.669 129.545 36.151-33.411 58.504-79.094 58.504-129.545 0-44.705-17.552-85.666-46.702-117.663z" fill="#7cd367" fill-opacity="1" data-original-color="#b3e59fff" stroke="none" stroke-opacity="1"/><path d="m120.497 274.495c-41.274 23.83-65.166 58.033-77.25 102.75l4.556 12.446c42.286 9.248 86.537 3.968 125.254-18.386 43.692-25.226 72.078-67.426 82.937-115.439 0 .258-91.805-6.596-135.497 18.629z" fill="#7cd367" fill-opacity="1" data-original-color="#b3e59fff" stroke="none" stroke-opacity="1"/><path d="m397.435 269.973c-43.692-25.226-94.431-28.708-141.442-14.106 0 .258 42.311 82.903 86.003 108.129 41.291 23.84 87.216 26.911 132 15l1.993-9.727c-13.132-41.252-39.832-76.94-78.554-99.296z" fill="#7cd367" fill-opacity="1" data-original-color="#b3e59fff" stroke="none" stroke-opacity="1"/><path d="m478.424 377.549c-.754-2.794-1.559-5.534-2.434-8.28-45.201 13.715-90.835 9.423-128.701-12.439-29.738-17.169-52.444-43.794-66.016-76.716l122.941 70.982c1.314.759 2.751 1.118 4.171 1.118 2.889 0 5.697-1.498 7.248-4.179.759-1.314 1.118-2.751 1.118-4.171 0-2.889-1.494-5.697-4.179-7.248l-144.22-83.264c-2.475-1.429-4-4.07-4-6.928v-166.251c0-4.455-3.365-8.342-7.811-8.624-4.868-.31-8.905 3.544-8.905 8.34v141.946c-21.719-28.212-33.431-61.179-33.431-95.513 0-43.724 19.113-85.376 53.591-117.663-1.93-2.119-3.901-4.187-5.931-6.226-3.243-3.257-8.522-3.235-11.765.023-32.671 32.821-52.611 76.217-52.611 123.867 0 45.382 18.098 86.897 48.045 119.1 1.003 1.079 1.434 2.62.97 4.018-.666 2.007-2.704 3.069-4.666 2.617-42.899-9.87-87.948-4.796-127.287 17.916-41.277 23.832-68.894 62.814-80.977 107.534-1.194 4.42 1.42 8.975 5.848 10.139 2.786.732 5.576 1.432 8.38 2.045 10.699-46.076 37.198-83.356 75.108-105.243 29.734-17.167 64.141-23.507 99.433-18.803l-122.927 70.97c-2.685 1.551-4.179 4.358-4.179 7.248 0 1.42.359 2.856 1.118 4.171 2.31 3.995 7.427 5.354 11.418 3.061l141.442-81.664c2.351-1.357 5.224-1.455 7.662-.261 1.99.975 3.478 2.725 4.173 4.829 13.349 40.406 39.786 75.312 77.881 97.306 41.282 23.835 88.856 28.258 133.632 16.357 4.415-1.174 7.051-5.703 5.861-10.114z" fill="#4eb268" fill-opacity="1" data-original-color="#95d6a4ff" stroke="none" stroke-opacity="1"/></g></g></svg>