<svg id="Capa_1" enable-background="new 0 0 512 512" height="300" viewBox="0 0 512 512" width="300" xmlns="http://www.w3.org/2000/svg" version="1.1" xmlns:xlink="http://www.w3.org/1999/xlink" xmlns:svgjs="http://svgjs.dev/svgjs"><g width="100%" height="100%" transform="matrix(1,0,0,1,0,0)"><g><circle cx="256" cy="256" fill="#fa5744" r="256" fill-opacity="0" data-original-color="#fa5744ff" stroke="none" stroke-opacity="1" style=""/><path d="m333.722 105.663-2.876 2.876-29.952-29.952-2.707 2.707-15.471-15.471-4.609 4.609-13.815-13.815-33.475 33.475 49.32 49.32-76.654 76.654-11.957-11.957-79.333 79.333-10.671-10.671-33.475 33.475 10.671 10.671-3.562 3.562 11.957 11.957-2.092 2.092 23.147 23.147-2.223 2.223 152.076 152.076c131.496-1.018 239.386-101.161 252.613-229.4z" fill="#f42520" fill-opacity="0" data-original-color="#f42520ff" stroke="none" stroke-opacity="1" style=""/><path d="m201.298 201.771c-.852 2.583-1.039 4.856-1.046 6.427-2.091-1.822-5.035-3.984-8.893-5.754-6.923-3.177-13.273-3.481-16.926-3.363-.786 2.873-2.903 12.057 1.457 22.195 2.454 5.705 6.04 9.578 8.737 11.93-1.264-.857-2.935-1.745-5.038-2.29-3.111-.806-5.737-.5-7.174-.224.146 3.732.818 9.225 3.325 15.32 2.295 5.579 5.385 9.858 8.181 12.961-6.709-6.038-18.059-14.321-34.187-18.79-19.831-5.495-36.39-2.309-43.791-.411 1.122 3.404 2.806 7.432 5.38 11.658 4.463 7.324 9.834 12.339 14.07 15.577-3.537-2.417-9.955-5.921-18.665-6.609-10.774-.852-18.766 3.102-21.709 4.745.763 1.837 1.837 4.001 3.363 6.277 1.995 2.977 4.131 5.209 5.904 6.8-1.466-.824-4.542-2.288-8.669-2.317-5.327-.037-9.109 2.341-10.462 3.288.142 1.156.511 2.943 1.569 4.857 1.513 2.737 3.614 4.253 4.708 4.932-1.413-.195-5.546-.578-9.864 1.793-5.305 2.913-7.09 7.896-7.473 9.061.383 1.165 2.168 6.148 7.473 9.061 4.318 2.371 8.451 1.989 9.864 1.793-1.094.679-3.195 2.195-4.708 4.932-1.058 1.915-1.427 3.701-1.569 4.857 1.353.947 5.135 3.325 10.462 3.288 4.127-.029 7.203-1.493 8.669-2.317-1.772 1.591-3.909 3.823-5.904 6.8-1.525 2.277-2.6 4.441-3.363 6.277 2.943 1.644 10.935 5.597 21.709 4.745 8.71-.689 15.128-4.192 18.665-6.609-4.235 3.238-9.607 8.253-14.07 15.577-2.575 4.226-4.258 8.253-5.38 11.658 7.401 1.898 23.961 5.084 43.791-.411 16.128-4.469 27.478-12.752 34.187-18.79-2.796 3.103-5.886 7.382-8.181 12.961-2.507 6.095-3.18 11.587-3.325 15.32 1.437.276 4.063.582 7.174-.224 2.103-.545 3.773-1.432 5.038-2.29-2.697 2.351-6.283 6.224-8.737 11.93-4.36 10.138-2.243 19.321-1.457 22.195 3.653.118 10.003-.186 16.926-3.363 3.858-1.77 6.802-3.932 8.893-5.754.007 1.571.194 3.844 1.046 6.427.775 2.351 1.836 4.154 2.69 5.381 4.823-2.631 11.85-7.172 18.234-14.647 11.342-13.278 12.527-26.294 19.729-50.218 2.79-9.269 7.224-22.635 14.049-38.579-6.825-15.944-11.259-29.31-14.049-38.579-7.202-23.924-8.386-36.94-19.729-50.218-6.385-7.475-13.411-12.016-18.234-14.647-.854 1.227-1.915 3.03-2.69 5.381z" fill="#73c432" fill-opacity="1" data-original-color="#9bc933ff" stroke="none" stroke-opacity="1" style=""/><path d="m310.702 201.771c.852 2.583 1.039 4.856 1.046 6.427 2.091-1.822 5.035-3.984 8.893-5.754 6.923-3.177 13.273-3.481 16.926-3.363.786 2.873 2.903 12.057-1.457 22.195-2.454 5.705-6.04 9.578-8.737 11.93 1.264-.857 2.935-1.745 5.038-2.29 3.111-.806 5.737-.5 7.174-.224-.146 3.732-.818 9.225-3.325 15.32-2.295 5.579-5.385 9.858-8.181 12.961 6.709-6.038 18.059-14.321 34.187-18.79 19.831-5.495 36.39-2.309 43.791-.411-1.122 3.404-2.806 7.432-5.38 11.658-4.463 7.324-9.834 12.339-14.07 15.577 3.537-2.417 9.955-5.921 18.665-6.609 10.774-.852 18.766 3.102 21.709 4.745-.763 1.837-1.837 4.001-3.363 6.277-1.995 2.977-4.131 5.209-5.904 6.8 1.466-.824 4.542-2.288 8.669-2.317 5.327-.037 9.109 2.341 10.462 3.288-.142 1.156-.511 2.943-1.569 4.857-1.513 2.737-3.614 4.253-4.708 4.932 1.413-.195 5.546-.578 9.864 1.793 5.305 2.913 7.09 7.896 7.473 9.061-.383 1.165-2.168 6.148-7.473 9.061-4.318 2.371-8.451 1.989-9.864 1.793 1.094.679 3.195 2.195 4.708 4.932 1.058 1.915 1.427 3.701 1.569 4.857-1.353.947-5.135 3.325-10.462 3.288-4.127-.029-7.203-1.493-8.669-2.317 1.772 1.591 3.909 3.823 5.904 6.8 1.525 2.277 2.6 4.441 3.363 6.277-2.943 1.644-10.935 5.597-21.709 4.745-8.71-.689-15.128-4.192-18.665-6.609 4.235 3.238 9.607 8.253 14.07 15.577 2.575 4.226 4.258 8.253 5.38 11.658-7.401 1.898-23.961 5.084-43.791-.411-16.128-4.469-27.478-12.752-34.187-18.79 2.796 3.103 5.886 7.382 8.181 12.961 2.507 6.095 3.18 11.587 3.325 15.32-1.437.276-4.063.582-7.174-.224-2.103-.545-3.773-1.432-5.038-2.29 2.697 2.351 6.283 6.224 8.737 11.93 4.36 10.138 2.243 19.321 1.457 22.195-3.653.118-10.003-.186-16.926-3.363-3.858-1.77-6.802-3.932-8.893-5.754-.007 1.571-.194 3.844-1.046 6.427-.775 2.351-1.836 4.154-2.69 5.381-4.823-2.631-11.85-7.172-18.234-14.647-11.342-13.278-12.527-26.294-19.729-50.218-2.79-9.269-7.224-22.635-14.049-38.579 6.825-15.944 11.259-29.31 14.049-38.579 7.202-23.924 8.386-36.94 19.729-50.218 6.385-7.475 13.411-12.016 18.234-14.647.854 1.227 1.915 3.03 2.69 5.381z" fill="#61a321" fill-opacity="1" data-original-color="#83b22dff" stroke="none" stroke-opacity="1" style=""/><path d="m224.016 284.04-4.001-40.786h-17.043l4.63 48.059h-15.919l-41.008-35.904-11.227 12.823 26.363 23.081h-56.722v17.044h56.406l-25.989 22.342 11.111 12.924 41.022-35.266h15.951l-4.618 47.371h17.043l4.705-47.371h31.28l5.778-8.522-5.778-8.522z" fill="#8de23a" fill-opacity="1" data-original-color="#a9d939ff" stroke="none" stroke-opacity="1" style=""/><path d="m287.984 284.04 4.001-40.786h17.043l-4.63 48.059h15.919l41.008-35.904 11.227 12.823-26.363 23.081h56.722v17.044h-56.406l25.989 22.342-11.111 12.924-41.022-35.266h-15.951l4.618 47.371h-17.043l-4.705-47.371h-31.28v-17.044z" fill="#73c432" fill-opacity="1" data-original-color="#9bc933ff" stroke="none" stroke-opacity="1" style=""/><path d="m244.275 61.181c-3.069 5.588-2.573 10.936-2.321 12.764-.879-1.415-2.84-4.134-6.382-6.092-2.477-1.369-4.789-1.847-6.285-2.031-1.225 1.75-4.302 6.645-4.255 13.538.037 5.34 1.932 9.32 2.998 11.217-2.059-2.293-4.947-5.058-8.8-7.639-2.946-1.974-5.746-3.365-8.123-4.351-2.127 3.809-7.242 14.15-6.14 28.091.891 11.271 5.425 19.576 8.552 24.153-4.19-5.48-10.679-12.431-20.156-18.206-5.468-3.332-10.68-5.51-15.085-6.962-2.456 9.577-6.579 31.005.532 56.666 5.783 20.87 16.501 35.557 24.314 44.238-4.015-3.618-9.552-7.617-16.771-10.587-7.887-3.244-14.994-4.115-19.823-4.303-.357 1.859-.753 5.258.29 9.283.705 2.721 1.853 4.883 2.963 6.519-3.043-3.49-8.054-8.13-15.437-11.305-13.118-5.642-25.002-2.902-28.72-1.886-.153 4.727.24 12.944 4.351 21.902 2.291 4.992 5.088 8.802 7.446 11.507-2.032.009-4.974.252-8.316 1.354-3.043 1.003-5.375 2.375-6.962 3.481 3.404 6.241 9.281 15.333 18.953 23.595 17.182 14.677 34.024 16.209 64.982 25.529 11.994 3.611 29.289 9.348 49.921 18.18l12.74-110.238-12.741-138.087c-1.507.496-7.955 2.804-11.725 9.67z" fill="#a1f75d" fill-opacity="1" data-original-color="#c3e54dff" stroke="none" stroke-opacity="1" style=""/><path d="m267.725 61.181c3.069 5.588 2.573 10.936 2.321 12.764.879-1.415 2.84-4.134 6.382-6.092 2.477-1.369 4.789-1.847 6.285-2.031 1.225 1.75 4.302 6.645 4.255 13.538-.037 5.34-1.932 9.32-2.998 11.217 2.059-2.293 4.947-5.058 8.8-7.639 2.946-1.974 5.746-3.365 8.123-4.351 2.127 3.809 7.242 14.15 6.14 28.091-.891 11.271-5.425 19.576-8.552 24.153 4.19-5.48 10.679-12.431 20.156-18.206 5.468-3.332 10.68-5.51 15.085-6.962 2.456 9.577 6.579 31.005-.532 56.666-5.783 20.87-16.501 35.557-24.314 44.238 4.015-3.618 9.552-7.617 16.771-10.587 7.887-3.244 14.994-4.115 19.823-4.303.357 1.859.753 5.258-.29 9.283-.705 2.721-1.853 4.883-2.963 6.519 3.043-3.49 8.054-8.13 15.437-11.305 13.118-5.642 25.002-2.902 28.72-1.886.153 4.727-.24 12.944-4.351 21.902-2.291 4.992-5.088 8.802-7.446 11.507 2.032.009 4.974.252 8.316 1.354 3.043 1.003 5.375 2.375 6.962 3.481-3.404 6.241-9.281 15.333-18.953 23.595-17.182 14.677-34.024 16.209-64.982 25.529-11.994 3.611-29.289 9.348-49.921 18.18v-248.325c1.508.496 7.956 2.804 11.726 9.67z" fill="#8de23a" fill-opacity="1" data-original-color="#a9d939ff" stroke="none" stroke-opacity="1" style=""/><path d="m256 460.489 5.778-178.471-5.778-168.523h-8.522v73.183l-34.863-38.859-12.686 11.382 47.549 52.999v36.696l-72.153-26.214-5.82 16.02 77.973 28.327v193.46z" fill="#8de23a" fill-opacity="1" data-original-color="#a9d939ff" stroke="none" stroke-opacity="1" style=""/><path d="m256 460.489v-346.994h8.522v73.183l34.863-38.859 12.686 11.382-47.549 52.999v36.696l72.153-26.214 5.82 16.02-77.973 28.327v193.46z" fill="#73c432" fill-opacity="1" data-original-color="#9bc933ff" stroke="none" stroke-opacity="1" style=""/></g></g></svg>