<svg id="Capa_1" enable-background="new 0 0 512 512" height="300" viewBox="0 0 512 512" width="300" xmlns="http://www.w3.org/2000/svg" version="1.1" xmlns:xlink="http://www.w3.org/1999/xlink" xmlns:svgjs="http://svgjs.dev/svgjs"><g width="100%" height="100%" transform="matrix(1,0,0,1,0,0)"><path d="m191.968 158.525h128.064c8.121 0 14.704 6.497 14.704 14.511 0 8.015-6.583 14.512-14.704 14.512h-128.064c-8.121 0-14.704-6.497-14.704-14.512 0-8.014 6.583-14.511 14.704-14.511z" fill="#443e3b" fill-opacity="1" data-original-color="#a95118ff" stroke="none" stroke-opacity="1"/><path d="m320.032 158.525h-18.265c8.121 0 14.704 6.497 14.704 14.511 0 8.015-6.583 14.512-14.704 14.512h18.265c8.121 0 14.704-6.497 14.704-14.512 0-8.014-6.583-14.511-14.704-14.511z" fill="#2a2624" fill-opacity="1" data-original-color="#994916ff" stroke="none" stroke-opacity="1"/><path d="m188.998 400.496h134.005c8.497 0 15.386 6.497 15.386 14.512 0 8.014-6.889 14.512-15.386 14.512h-134.005c-8.497 0-15.386-6.497-15.386-14.512 0-8.015 6.888-14.512 15.386-14.512z" fill="#443e3b" fill-opacity="1" data-original-color="#a95118ff" stroke="none" stroke-opacity="1"/><path d="m323.002 400.496h-18.265c8.497 0 15.386 6.497 15.386 14.512s-6.889 14.512-15.386 14.512h18.265c8.497 0 15.386-6.497 15.386-14.512s-6.888-14.512-15.386-14.512z" fill="#2a2624" fill-opacity="1" data-original-color="#994916ff" stroke="none" stroke-opacity="1"/><path d="m193.161 129.502h125.678v29.023h-125.678z" fill="#726155" fill-opacity="1" data-original-color="#d56723ff" stroke="none" stroke-opacity="1"/><path d="m300.574 129.502h18.265v29.023h-18.265z" fill="#494038" fill-opacity="1" data-original-color="#b6591eff" stroke="none" stroke-opacity="1"/><path d="m256 36.797c-4.203 0-7.611-3.407-7.611-7.611v-21.575c0-4.204 3.407-7.611 7.611-7.611s7.611 3.407 7.611 7.611v21.575c0 4.204-3.408 7.611-7.611 7.611z" fill="#443e3b" fill-opacity="1" data-original-color="#a95118ff" stroke="none" stroke-opacity="1"/><g fill="#eb966d"><path d="m318.839 129.502c48.052-56.095 0-100.292-62.839-100.292s-110.891 44.198-62.839 100.292z" fill="#8b7a71" fill-opacity="1" data-original-color="#eb966dff" stroke="none" stroke-opacity="1"/><path d="m318.839 400.496s19.549-26.39 19.549-63.354c0-53.195-32.97-72.771-32.97-95.406 0-25.056 8.925-54.187 8.925-54.187h-116.686s8.925 29.131 8.925 54.187c0 22.635-32.97 42.211-32.97 95.406 0 36.965 19.549 63.354 19.549 63.354z" fill="#8b7a71" fill-opacity="1" data-original-color="#eb966dff" stroke="none" stroke-opacity="1"/><path d="m303.44 429.519h-94.881c-19.301 0-34.948 15.647-34.948 34.948v42.459c0 2.802 2.272 5.074 5.074 5.074h154.628c2.802 0 5.074-2.272 5.074-5.074v-42.459c.001-19.301-15.645-34.948-34.947-34.948z" fill="#8b7a71" fill-opacity="1" data-original-color="#eb966dff" stroke="none" stroke-opacity="1"/></g><path d="m256 29.21c-3.083 0-6.13.11-9.132.319 58.19 4.051 99.401 46.631 53.707 99.973h18.265c48.052-56.094-.001-100.292-62.84-100.292z" fill="#60534d" fill-opacity="1" data-original-color="#e8834dff" stroke="none" stroke-opacity="1"/><path d="m305.418 241.736c0-25.056 8.925-54.187 8.925-54.187h-18.265s-8.925 29.131-8.925 54.187c0 22.635 32.97 42.211 32.97 95.406 0 36.965-19.549 63.354-19.549 63.354h18.265s19.549-26.39 19.549-63.354c0-53.195-32.97-72.771-32.97-95.406z" fill="#60534d" fill-opacity="1" data-original-color="#e8834dff" stroke="none" stroke-opacity="1"/><path d="m303.44 429.519h-18.265c19.301 0 34.948 15.647 34.948 34.948v47.533h13.191c2.802 0 5.074-2.272 5.074-5.074v-42.459c0-19.301-15.646-34.948-34.948-34.948z" fill="#60534d" fill-opacity="1" data-original-color="#e8834dff" stroke="none" stroke-opacity="1"/></g></svg>