<svg id="Capa_1" enable-background="new 0 0 497 497" height="300" viewBox="0 0 497 497" width="300" xmlns="http://www.w3.org/2000/svg" version="1.1" xmlns:xlink="http://www.w3.org/1999/xlink" xmlns:svgjs="http://svgjs.dev/svgjs"><g width="100%" height="100%" transform="matrix(1,0,0,1,0,0)"><g><path d="m301 .634-7.5 11.866-7.5-12.5h-22.5v60h75v-15c0-22.296-16.219-40.794-37.5-44.366z" fill="#9abbd0" fill-opacity="1" data-original-color="#9abbd0ff" stroke="none" stroke-opacity="1"/><path d="m263.5 0h-7.5l-7.5 12.5-7.5-12.5h-30l-7.5 12.5-7.5-11.866c-21.281 3.572-37.5 22.07-37.5 44.366v15h150v-15c0-24.853-20.147-45-45-45z" fill="#b6d7e0" fill-opacity="1" data-original-color="#acd5dfff" stroke="none" stroke-opacity="1"/><path d="m203.5 22.5c4.143 0 7.5-3.358 7.5-7.5v-15h-7.5c-2.557 0-5.06.224-7.5.634v14.366c0 4.142 3.357 7.5 7.5 7.5z" fill="#7587b3" fill-opacity="1" data-original-color="#7587b3ff" stroke="none" stroke-opacity="1"/><path d="m248.5 22.5c4.143 0 7.5-3.358 7.5-7.5v-15h-15v15c0 4.142 3.357 7.5 7.5 7.5z" fill="#7587b3" fill-opacity="1" data-original-color="#7587b3ff" stroke="none" stroke-opacity="1"/><path d="m278.5 90h60v60h-60z" fill="#8cb8c6" fill-opacity="1" data-original-color="#8ae7ffff" stroke="none" stroke-opacity="1"/><path d="m158.5 90h150v60h-150z" fill="#cce6ed" fill-opacity="1" data-original-color="#c4f3ffff" stroke="none" stroke-opacity="1"/><path d="m338.5 75-90-20 60 50h30c8.284 0 15-6.716 15-15s-6.716-15-15-15z" fill="#7587b3" fill-opacity="1" data-original-color="#7587b3ff" stroke="none" stroke-opacity="1"/><path d="m323.5 90c0-8.284-6.716-15-15-15l-60-20-90 20c-8.284 0-15 6.716-15 15s6.716 15 15 15h150c8.284 0 15-6.716 15-15z" fill="#87a1c1" fill-opacity="1" data-original-color="#87a1c1ff" stroke="none" stroke-opacity="1"/><path d="m338.5 45h-30v30h30c8.284 0 15-6.716 15-15s-6.716-15-15-15z" fill="#87a1c1" fill-opacity="1" data-original-color="#87a1c1ff" stroke="none" stroke-opacity="1"/><path d="m323.5 60c0-8.284-6.716-15-15-15h-150c-8.284 0-15 6.716-15 15s6.716 15 15 15h150c8.284 0 15-6.716 15-15z" fill="#9abbd0" fill-opacity="1" data-original-color="#9abbd0ff" stroke="none" stroke-opacity="1"/><path d="m412.945 444.945-44.815-284.648c-2.257-14.334-14.662-25.297-29.63-25.297h-30l30 362h30c24.853 0 45-20.147 45-45 0-2.401-.193-4.756-.555-7.055z" fill="#8cb8c6" fill-opacity="1" data-original-color="#8ae7ffff" stroke="none" stroke-opacity="1"/><path d="m383.5 452c0-2.401-.193-4.756-.555-7.055l-44.815-284.648c-2.257-14.334-14.662-25.297-29.63-25.297h-150c-14.968 0-27.373 10.963-29.63 25.297l-44.815 284.648c-.362 2.299-.555 4.654-.555 7.055 0 24.853 20.147 45 45 45h210c24.853 0 45-20.147 45-45z" fill="#cce6ed" fill-opacity="1" data-original-color="#c4f3ffff" stroke="none" stroke-opacity="1"/><path d="m383.311 449.611-25.355-161.04c-8.483-53.879-54.914-93.571-109.456-93.571l90 272h30c8.271 0 15-6.729 15-15 0-.787-.063-1.589-.189-2.389z" fill="#ffe7b5" fill-opacity="1" data-original-color="#ffe7b5ff" stroke="none" stroke-opacity="1"/><path d="m353.5 452c0-.787-.05-1.589-.148-2.389l-19.72-161.04c-6.598-53.879-42.711-93.571-85.132-93.571-54.542 0-100.974 39.693-109.456 93.572l-25.355 161.044c-.125.795-.189 1.598-.189 2.384 0 8.271 6.729 15 15 15h210c8.271 0 15-6.729 15-15z" fill="#ffffff" fill-opacity="1" data-original-color="#ffffffff" stroke="none" stroke-opacity="1"/><g fill="#ffe7b5"><circle cx="308.5" cy="270" r="7.5" fill="#ffe7b5" fill-opacity="1" data-original-color="#ffe7b5ff" stroke="none" stroke-opacity="1"/><circle cx="188.5" cy="437" r="7.5" fill="#ffe7b5" fill-opacity="1" data-original-color="#ffe7b5ff" stroke="none" stroke-opacity="1"/><circle cx="158.5" cy="407" r="7.5" fill="#ffe7b5" fill-opacity="1" data-original-color="#ffe7b5ff" stroke="none" stroke-opacity="1"/></g><path d="m293.5 22.5c4.143 0 7.5-3.358 7.5-7.5v-14.366c-2.44-.41-4.943-.634-7.5-.634h-7.5v15c0 4.142 3.357 7.5 7.5 7.5z" fill="#636da4" fill-opacity="1" data-original-color="#636da4ff" stroke="none" stroke-opacity="1"/></g></g></svg>