<svg width="512" height="512" viewBox="0 0 512 512" fill="none" xmlns="http://www.w3.org/2000/svg">
<path d="M356.055 56H20.0549C4.12851 172.793 4.12851 291.207 20.0549 408H356.055C371.981 291.207 371.981 172.793 356.055 56Z" fill="#FF5E8C"/>
<path d="M328.088 8L300.104 24L272.128 8L244.144 24L216.144 8L188.144 24L160.176 8L132.176 24L104.176 8L76.1679 24L48.1119 8L20.0559 24V56H356.056V24L328.088 8Z" fill="#FF85AD"/>
<path d="M48.0159 456L76.0079 440L103.984 456L131.968 440L159.968 456L187.968 440L215.936 456L243.936 440L271.936 456L299.944 440L328 456L356.056 440V408H20.0559V440L48.0159 456Z" fill="#FF85AD"/>
<path d="M144 184C141.878 184 139.843 184.843 138.343 186.343C136.843 187.843 136 189.878 136 192V240C136 242.122 135.157 244.157 133.657 245.657C132.157 247.157 130.122 248 128 248C125.878 248 123.843 247.157 122.343 245.657C120.843 244.157 120 242.122 120 240V192C120 189.878 119.157 187.843 117.657 186.343C116.157 184.843 114.122 184 112 184C109.878 184 107.843 184.843 106.343 186.343C104.843 187.843 104 189.878 104 192V240C104 246.365 106.529 252.47 111.029 256.971C115.53 261.471 121.635 264 128 264C134.365 264 140.47 261.471 144.971 256.971C149.471 252.47 152 246.365 152 240V192C152 189.878 151.157 187.843 149.657 186.343C148.157 184.843 146.122 184 144 184Z" fill="#FFDDDE"/>
<path d="M144 184C141.878 184 139.843 184.843 138.343 186.343C136.843 187.843 136 189.878 136 192V240C136 242.122 135.157 244.157 133.657 245.657C132.157 247.157 130.122 248 128 248C125.878 248 123.843 247.157 122.343 245.657C120.843 244.157 120 242.122 120 240V192C120 189.878 119.157 187.843 117.657 186.343C116.157 184.843 114.122 184 112 184C109.878 184 107.843 184.843 106.343 186.343C104.843 187.843 104 189.878 104 192V240C104 246.365 106.529 252.47 111.029 256.971C115.53 261.471 121.635 264 128 264C134.365 264 140.47 261.471 144.971 256.971C149.471 252.47 152 246.365 152 240V192C152 189.878 151.157 187.843 149.657 186.343C148.157 184.843 146.122 184 144 184Z" fill="#FFFEF8"/>
<path d="M188 200C190.122 200.002 192.155 200.845 193.655 202.345C195.155 203.845 195.999 205.879 196 208C196 210.122 196.843 212.157 198.344 213.657C199.844 215.157 201.879 216 204 216C206.122 216 208.157 215.157 209.657 213.657C211.158 212.157 212 210.122 212 208C212 201.635 209.472 195.53 204.971 191.029C200.47 186.529 194.366 184 188 184C181.635 184 175.531 186.529 171.03 191.029C166.529 195.53 164 201.635 164 208V239.145C163.928 244.935 165.896 250.566 169.558 255.052C173.22 259.538 178.344 262.592 184.032 263.68C185.331 263.893 186.645 264 187.961 264C191.117 264.006 194.242 263.39 197.159 262.187C200.076 260.984 202.727 259.217 204.96 256.987C207.193 254.758 208.964 252.11 210.172 249.195C211.381 246.28 212.002 243.155 212 240V230C212 227.878 211.158 225.843 209.657 224.343C208.157 222.843 206.122 222 204 222H196C193.879 222 191.844 222.843 190.344 224.343C188.843 225.843 188 227.878 188 230C188 232.122 188.843 234.157 190.344 235.657C191.844 237.157 193.879 238 196 238V240C196.001 241.16 195.748 242.306 195.262 243.359C194.775 244.412 194.064 245.346 193.18 246.098C192.28 246.857 191.225 247.41 190.089 247.719C188.953 248.028 187.763 248.085 186.602 247.886C184.664 247.41 182.95 246.281 181.748 244.689C180.545 243.097 179.928 241.139 180 239.145V208C180.002 205.879 180.846 203.845 182.346 202.345C183.846 200.845 185.879 200.002 188 200Z" fill="#FFDDDE"/>
<path d="M188 200C190.122 200.002 192.155 200.845 193.655 202.345C195.155 203.845 195.999 205.879 196 208C196 210.122 196.843 212.157 198.344 213.657C199.844 215.157 201.879 216 204 216C206.122 216 208.157 215.157 209.657 213.657C211.158 212.157 212 210.122 212 208C212 201.635 209.472 195.53 204.971 191.029C200.47 186.529 194.366 184 188 184C181.635 184 175.531 186.529 171.03 191.029C166.529 195.53 164 201.635 164 208V239.145C163.928 244.935 165.896 250.566 169.558 255.052C173.22 259.538 178.344 262.592 184.032 263.68C185.331 263.893 186.645 264 187.961 264C191.117 264.006 194.242 263.39 197.159 262.187C200.076 260.984 202.727 259.217 204.96 256.987C207.193 254.758 208.964 252.11 210.172 249.195C211.381 246.28 212.002 243.155 212 240V230C212 227.878 211.158 225.843 209.657 224.343C208.157 222.843 206.122 222 204 222H196C193.879 222 191.844 222.843 190.344 224.343C188.843 225.843 188 227.878 188 230C188 232.122 188.843 234.157 190.344 235.657C191.844 237.157 193.879 238 196 238V240C196.001 241.16 195.748 242.306 195.262 243.359C194.775 244.412 194.064 245.346 193.18 246.098C192.28 246.857 191.225 247.41 190.089 247.719C188.953 248.028 187.763 248.085 186.602 247.886C184.664 247.41 182.95 246.281 181.748 244.689C180.545 243.097 179.928 241.139 180 239.145V208C180.002 205.879 180.846 203.845 182.346 202.345C183.846 200.845 185.879 200.002 188 200Z" fill="#FFFEF8"/>
<path d="M68 200C70.1212 200.002 72.1549 200.845 73.6548 202.345C75.1546 203.845 75.9981 205.879 76 208C76 210.122 76.8429 212.157 78.3432 213.657C79.8434 215.157 81.8783 216 84 216C86.1217 216 88.1566 215.157 89.6569 213.657C91.1572 212.157 92 210.122 92 208C92 203.253 90.5924 198.613 87.9553 194.666C85.3181 190.72 81.5698 187.643 77.1844 185.827C72.799 184.01 67.9734 183.535 63.3178 184.461C58.6623 185.387 54.3859 187.673 51.0294 191.029C47.673 194.386 45.3872 198.662 44.4612 203.318C43.5351 207.973 44.0104 212.799 45.8269 217.184C47.6434 221.57 50.7195 225.318 54.6663 227.955C58.6131 230.592 63.2533 232 68 232C69.5823 232 71.129 232.469 72.4446 233.348C73.7602 234.227 74.7855 235.477 75.391 236.939C75.9965 238.4 76.155 240.009 75.8463 241.561C75.5376 243.113 74.7757 244.538 73.6569 245.657C72.538 246.776 71.1126 247.538 69.5607 247.846C68.0089 248.155 66.4003 247.997 64.9385 247.391C63.4767 246.786 62.2273 245.76 61.3483 244.445C60.4692 243.129 60 241.582 60 240C60 237.878 59.1572 235.843 57.6569 234.343C56.1566 232.843 54.1217 232 52 232C49.8783 232 47.8434 232.843 46.3432 234.343C44.8429 235.843 44 237.878 44 240C44 244.747 45.4076 249.387 48.0447 253.334C50.6819 257.28 54.4302 260.357 58.8156 262.173C63.201 263.99 68.0266 264.465 72.6822 263.539C77.3377 262.613 81.6141 260.327 84.9706 256.971C88.327 253.614 90.6128 249.338 91.5389 244.682C92.4649 240.027 91.9896 235.201 90.1731 230.816C88.3566 226.43 85.2805 222.682 81.3337 220.045C77.3869 217.408 72.7468 216 68 216C65.8783 216 63.8434 215.157 62.3432 213.657C60.8429 212.157 60 210.122 60 208C60 205.878 60.8429 203.843 62.3432 202.343C63.8434 200.843 65.8783 200 68 200Z" fill="#FFDDDE"/>
<path d="M68 200C70.1212 200.002 72.1549 200.845 73.6548 202.345C75.1546 203.845 75.9981 205.879 76 208C76 210.122 76.8429 212.157 78.3432 213.657C79.8434 215.157 81.8783 216 84 216C86.1217 216 88.1566 215.157 89.6569 213.657C91.1572 212.157 92 210.122 92 208C92 203.253 90.5924 198.613 87.9553 194.666C85.3181 190.72 81.5698 187.643 77.1844 185.827C72.799 184.01 67.9734 183.535 63.3178 184.461C58.6623 185.387 54.3859 187.673 51.0294 191.029C47.673 194.386 45.3872 198.662 44.4612 203.318C43.5351 207.973 44.0104 212.799 45.8269 217.184C47.6434 221.57 50.7195 225.318 54.6663 227.955C58.6131 230.592 63.2533 232 68 232C69.5823 232 71.129 232.469 72.4446 233.348C73.7602 234.227 74.7855 235.477 75.391 236.939C75.9965 238.4 76.155 240.009 75.8463 241.561C75.5376 243.113 74.7757 244.538 73.6569 245.657C72.538 246.776 71.1126 247.538 69.5607 247.846C68.0089 248.155 66.4003 247.997 64.9385 247.391C63.4767 246.786 62.2273 245.76 61.3483 244.445C60.4692 243.129 60 241.582 60 240C60 237.878 59.1572 235.843 57.6569 234.343C56.1566 232.843 54.1217 232 52 232C49.8783 232 47.8434 232.843 46.3432 234.343C44.8429 235.843 44 237.878 44 240C44 244.747 45.4076 249.387 48.0447 253.334C50.6819 257.28 54.4302 260.357 58.8156 262.173C63.201 263.99 68.0266 264.465 72.6822 263.539C77.3377 262.613 81.6141 260.327 84.9706 256.971C88.327 253.614 90.6128 249.338 91.5389 244.682C92.4649 240.027 91.9896 235.201 90.1731 230.816C88.3566 226.43 85.2805 222.682 81.3337 220.045C77.3869 217.408 72.7468 216 68 216C65.8783 216 63.8434 215.157 62.3432 213.657C60.8429 212.157 60 210.122 60 208C60 205.878 60.8429 203.843 62.3432 202.343C63.8434 200.843 65.8783 200 68 200Z" fill="#FFFEF8"/>
<path d="M332 208C331.993 201.637 329.462 195.537 324.963 191.037C320.464 186.538 314.363 184.007 308 184H292C289.878 184 287.843 184.843 286.343 186.343C284.843 187.843 284 189.878 284 192V256C284 258.122 284.843 260.157 286.343 261.657C287.843 263.157 289.878 264 292 264C294.122 264 296.157 263.157 297.657 261.657C299.157 260.157 300 258.122 300 256V233.371C304.676 235.031 308.724 238.096 311.589 242.148C314.454 246.199 315.994 251.038 316 256C316 258.122 316.843 260.157 318.343 261.657C319.843 263.157 321.878 264 324 264C326.122 264 328.157 263.157 329.657 261.657C331.157 260.157 332 258.122 332 256C331.991 245.642 327.944 235.695 320.72 228.272C324.164 226.126 327.006 223.139 328.979 219.593C330.952 216.047 331.992 212.058 332 208ZM300 200H308C310.122 200 312.157 200.843 313.657 202.343C315.157 203.843 316 205.878 316 208C316 210.122 315.157 212.157 313.657 213.657C312.157 215.157 310.122 216 308 216H300V200Z" fill="#FFDDDE"/>
<path d="M332 208C331.993 201.637 329.462 195.537 324.963 191.037C320.464 186.538 314.363 184.007 308 184H292C289.878 184 287.843 184.843 286.343 186.343C284.843 187.843 284 189.878 284 192V256C284 258.122 284.843 260.157 286.343 261.657C287.843 263.157 289.878 264 292 264C294.122 264 296.157 263.157 297.657 261.657C299.157 260.157 300 258.122 300 256V233.371C304.676 235.031 308.724 238.096 311.589 242.148C314.454 246.199 315.994 251.038 316 256C316 258.122 316.843 260.157 318.343 261.657C319.843 263.157 321.878 264 324 264C326.122 264 328.157 263.157 329.657 261.657C331.157 260.157 332 258.122 332 256C331.991 245.642 327.944 235.695 320.72 228.272C324.164 226.126 327.006 223.139 328.979 219.593C330.952 216.047 331.992 212.058 332 208ZM300 200H308C310.122 200 312.157 200.843 313.657 202.343C315.157 203.843 316 205.878 316 208C316 210.122 315.157 212.157 313.657 213.657C312.157 215.157 310.122 216 308 216H300V200Z" fill="#FFFEF8"/>
<path d="M248 184C241.637 184.007 235.537 186.538 231.037 191.037C226.538 195.537 224.007 201.637 224 208V256C224 258.122 224.843 260.157 226.343 261.657C227.843 263.157 229.878 264 232 264C234.122 264 236.157 263.157 237.657 261.657C239.157 260.157 240 258.122 240 256V238H256V256C256 258.122 256.843 260.157 258.343 261.657C259.843 263.157 261.878 264 264 264C266.122 264 268.157 263.157 269.657 261.657C271.157 260.157 272 258.122 272 256V208C271.993 201.637 269.462 195.537 264.963 191.037C260.464 186.538 254.363 184.007 248 184ZM240 222V208C240 205.878 240.843 203.843 242.343 202.343C243.843 200.843 245.878 200 248 200C250.122 200 252.157 200.843 253.657 202.343C255.157 203.843 256 205.878 256 208V222H240Z" fill="#FFDDDE"/>
<path d="M248 184C241.637 184.007 235.537 186.538 231.037 191.037C226.538 195.537 224.007 201.637 224 208V256C224 258.122 224.843 260.157 226.343 261.657C227.843 263.157 229.878 264 232 264C234.122 264 236.157 263.157 237.657 261.657C239.157 260.157 240 258.122 240 256V238H256V256C256 258.122 256.843 260.157 258.343 261.657C259.843 263.157 261.878 264 264 264C266.122 264 268.157 263.157 269.657 261.657C271.157 260.157 272 258.122 272 256V208C271.993 201.637 269.462 195.537 264.963 191.037C260.464 186.538 254.363 184.007 248 184ZM240 222V208C240 205.878 240.843 203.843 242.343 202.343C243.843 200.843 245.878 200 248 200C250.122 200 252.157 200.843 253.657 202.343C255.157 203.843 256 205.878 256 208V222H240Z" fill="#FFFEF8"/>
<path d="M384 400L324 380V300L384 320V400Z" fill="#FFDDDE"/>
<path d="M384 400L324 380V300L384 320V400Z" fill="black" fill-opacity="0.1"/>
<path d="M444 380L384 400V320L444 300V380Z" fill="#FFEDCE"/>
<path d="M444 380L384 400V320L444 300V380Z" fill="#DBBE53" fill-opacity="0.1"/>
<path d="M444 300L384 320L324 300L384 280L444 300Z" fill="white"/>
<path d="M324 500L264 480V400L324 420V500Z" fill="#FFDDDE"/>
<path d="M324 500L264 480V400L324 420V500Z" fill="black" fill-opacity="0.1"/>
<path d="M384 480L324 500V420L384 400V480Z" fill="#FFEDCE"/>
<path d="M384 480L324 500V420L384 400V480Z" fill="#DBBE53" fill-opacity="0.1"/>
<path d="M384 400L324 420L264 400L324 380L384 400Z" fill="white"/>
<path d="M444 500L384 480V400L444 420V500Z" fill="#FFDDDE"/>
<path d="M444 500L384 480V400L444 420V500Z" fill="black" fill-opacity="0.1"/>
<path d="M504 480L444 500V420L504 400V480Z" fill="#FFEDCE"/>
<path d="M504 480L444 500V420L504 400V480Z" fill="#DBBE53" fill-opacity="0.1"/>
<path d="M504 400L444 420L384 400L444 380L504 400Z" fill="white"/>
</svg>
