<svg id="Capa_1" enable-background="new 0 0 512 512" viewBox="0 0 512 512" xmlns="http://www.w3.org/2000/svg" width="300" height="300" version="1.1" xmlns:xlink="http://www.w3.org/1999/xlink" xmlns:svgjs="http://svgjs.dev/svgjs"><g width="100%" height="100%" transform="matrix(1,0,0,1,0,0)"><g><g><path d="m505.965 505.965c-8.046 8.046-21.092 8.046-29.138 0l-351.004-351.004 29.138-29.138 351.005 351.005c8.046 8.046 8.046 21.091-.001 29.137z" fill="#ba654b" fill-opacity="1" data-original-color="#b4d241ff" stroke="none" stroke-opacity="1"/></g><g><ellipse cx="203.473" cy="89.919" fill="#97b258" rx="92.716" ry="30.905" transform="matrix(.259 -.966 .966 .259 63.955 263.186)" fill-opacity="1" data-original-color="#c3dc4bff" stroke="none" stroke-opacity="1"/></g><g><ellipse cx="89.919" cy="203.473" fill="#97b258" rx="92.716" ry="30.905" transform="matrix(.966 -.259 .259 .966 -49.599 30.206)" fill-opacity="1" data-original-color="#c3dc4bff" stroke="none" stroke-opacity="1"/></g><g><ellipse cx="89.919" cy="155.48" fill="#c0d367" rx="30.905" ry="92.716" transform="matrix(.259 -.966 .966 .259 -83.535 202.094)" fill-opacity="1" data-original-color="#d2eb5aff" stroke="none" stroke-opacity="1"/></g><g><ellipse cx="155.48" cy="89.919" fill="#c0d367" rx="30.905" ry="92.716" transform="matrix(.966 -.259 .259 .966 -17.975 43.305)" fill-opacity="1" data-original-color="#d2eb5aff" stroke="none" stroke-opacity="1"/></g><g><ellipse cx="113.916" cy="113.916" fill="#e1f288" rx="30.905" ry="92.716" transform="matrix(.707 -.707 .707 .707 -47.186 113.916)" fill-opacity="1" data-original-color="#e1f573ff" stroke="none" stroke-opacity="1"/></g><g><ellipse cx="334.761" cy="221.207" fill="#97b258" rx="92.716" ry="30.905" transform="matrix(.259 -.966 .966 .259 34.449 487.309)" fill-opacity="1" data-original-color="#c3dc4bff" stroke="none" stroke-opacity="1"/></g><g><ellipse cx="221.207" cy="334.761" fill="#97b258" rx="92.716" ry="30.905" transform="matrix(.966 -.259 .259 .966 -79.105 68.659)" fill-opacity="1" data-original-color="#c3dc4bff" stroke="none" stroke-opacity="1"/></g><g><ellipse cx="221.207" cy="286.768" fill="#c0d367" rx="30.905" ry="92.716" transform="matrix(.259 -.966 .966 .259 -113.042 426.217)" fill-opacity="1" data-original-color="#d2eb5aff" stroke="none" stroke-opacity="1"/></g><g><ellipse cx="286.768" cy="221.207" fill="#e1f288" rx="30.905" ry="92.716" transform="matrix(.966 -.259 .259 .966 -47.481 81.758)" fill-opacity="1" data-original-color="#e1f573ff" stroke="none" stroke-opacity="1"/></g><g><ellipse cx="466.049" cy="352.496" fill="#97b258" rx="92.716" ry="30.905" transform="matrix(.259 -.966 .966 .259 4.942 711.432)" fill-opacity="1" data-original-color="#c3dc4bff" stroke="none" stroke-opacity="1"/></g><g><ellipse cx="352.496" cy="466.049" fill="#97b258" rx="92.716" ry="30.905" transform="matrix(.966 -.259 .259 .966 -108.612 107.113)" fill-opacity="1" data-original-color="#c3dc4bff" stroke="none" stroke-opacity="1"/></g><g><ellipse cx="352.496" cy="418.056" fill="#c0d367" rx="30.905" ry="92.716" transform="matrix(.259 -.966 .966 .259 -142.548 650.34)" fill-opacity="1" data-original-color="#d2eb5aff" stroke="none" stroke-opacity="1"/></g><g><ellipse cx="418.056" cy="352.496" fill="#e1f288" rx="30.905" ry="92.716" transform="matrix(.966 -.259 .259 .966 -76.988 120.212)" fill-opacity="1" data-original-color="#e1f573ff" stroke="none" stroke-opacity="1"/></g></g><g/><g/><g/><g/><g/><g/><g/><g/><g/><g/><g/><g/><g/><g/><g/></g></svg>