<svg width="513" height="513" viewBox="0 0 513 513" fill="none" xmlns="http://www.w3.org/2000/svg">
<g clip-path="url(#clip0_367_12686)">
<rect x="0.294922" y="0.644531" width="512" height="512" rx="256" fill="#289848"/>
<rect x="0.294922" y="0.644531" width="512" height="512" rx="256" fill="#289848"/>
<path d="M-62.9548 253.309C-64.7776 254.497 -64.769 257.17 -62.9386 258.346L254.669 462.465C255.654 463.098 256.919 463.1 257.906 462.469L577.26 258.364C579.104 257.185 579.106 254.492 577.263 253.311L256.128 47.4411C255.135 46.8041 253.86 46.809 252.871 47.4535L-62.9548 253.309Z" fill="#FFED27"/>
<path d="M259.866 388.314C334.513 388.314 395.027 327.8 395.027 253.153C395.027 178.506 334.513 117.992 259.866 117.992C185.219 117.992 124.705 178.506 124.705 253.153C124.705 327.8 185.219 388.314 259.866 388.314Z" fill="#1B3B87"/>
<path d="M259.866 388.314C334.513 388.314 395.027 327.8 395.027 253.153C395.027 178.506 334.513 117.992 259.866 117.992C185.219 117.992 124.705 178.506 124.705 253.153C124.705 327.8 185.219 388.314 259.866 388.314Z" fill="#1B3B87"/>
<path d="M393.239 275.766C393.239 275.766 346.837 236.929 284.036 214.974C220.858 192.888 141.274 187.696 139.029 192.297C133.987 201.426 130.387 213.662 130.387 213.662C130.387 213.662 193.643 210.509 266.732 234.666C306.518 247.815 352.712 270.359 385.631 303.066C391.145 289.944 393.221 275.766 393.221 275.766H393.239Z" fill="#F9F9F9"/>
<path d="M152.38 209.727C150.357 209.696 148.749 209.035 147.555 207.744C146.362 206.453 145.782 204.748 145.814 202.629C145.847 200.485 146.483 198.793 147.72 197.551C148.958 196.309 150.613 195.704 152.684 195.735C154.743 195.767 156.372 196.422 157.571 197.702C158.777 198.981 159.363 200.683 159.331 202.808C159.297 204.981 158.659 206.686 157.415 207.922C156.177 209.158 154.499 209.76 152.38 209.727ZM152.444 207.891C153.632 207.909 154.579 207.458 155.284 206.538C155.994 205.612 156.362 204.351 156.386 202.754C156.41 201.206 156.081 199.958 155.399 199.01C154.717 198.063 153.803 197.581 152.656 197.563C151.497 197.546 150.563 198 149.852 198.926C149.147 199.851 148.783 201.098 148.759 202.665C148.735 204.219 149.061 205.476 149.737 206.435C150.413 207.388 151.315 207.874 152.444 207.891Z" fill="#289848"/>
<path d="M165.251 209.715L166.115 196.414L171.094 196.737C173.796 196.913 175.076 198.1 174.933 200.299C174.88 201.12 174.6 201.854 174.095 202.501C173.596 203.142 172.933 203.616 172.107 203.924L176.053 210.416L172.683 210.197L169.738 204.546L168.211 204.447L167.857 209.884L165.251 209.715ZM168.329 202.622L168.967 202.664C170.974 202.794 172.031 202.048 172.136 200.424C172.213 199.238 171.356 198.586 169.565 198.47L168.603 198.408L168.329 202.622Z" fill="#289848"/>
<path d="M180.971 210.8L182.463 197.555L188.164 198.197C190.216 198.428 191.727 199.151 192.696 200.366C193.665 201.574 194.035 203.205 193.803 205.257C193.558 207.441 192.788 209.073 191.494 210.154C190.201 211.229 188.513 211.649 186.431 211.415L180.971 210.8ZM183.94 209.231L185.998 209.463C187.448 209.626 188.573 209.348 189.373 208.628C190.179 207.904 190.675 206.724 190.859 205.089C191.001 203.824 190.833 202.739 190.355 201.833C190.027 201.21 189.598 200.757 189.068 200.474C188.538 200.19 187.741 199.989 186.679 199.869L185.015 199.682L183.94 209.231Z" fill="#289848"/>
<path d="M198.855 212.943L200.917 199.776L209.147 201.065L208.864 202.871L203.375 202.011L202.799 205.686L207.301 206.391L207.025 208.153L202.523 207.447L201.888 211.504L207.796 212.43L207.503 214.298L198.855 212.943Z" fill="#289848"/>
<path d="M212.416 215.051L215.085 201.992L218.685 202.728L219.949 212.556L225.065 204.033L228.223 204.679L225.554 217.738L223.048 217.225L225.063 207.37L220.041 215.701L217.853 215.253L216.593 205.5L214.551 215.488L212.416 215.051Z" fill="#289848"/>
<path d="M261.678 226.75L265.849 214.09L270.263 215.545C271.803 216.052 272.815 216.673 273.3 217.408C273.792 218.139 273.839 219.109 273.441 220.318C272.99 221.687 272.196 222.607 271.061 223.08C269.933 223.55 268.576 223.523 266.991 223.001L265.896 222.64L264.261 227.601L261.678 226.75ZM266.468 220.903L266.981 221.073C267.882 221.369 268.661 221.395 269.317 221.15C269.981 220.901 270.431 220.417 270.667 219.698C271.083 218.438 270.489 217.544 268.887 217.016L267.86 216.678L266.468 220.903Z" fill="#289848"/>
<path d="M274.918 231.162L279.586 218.678L284.26 220.425C286.796 221.374 287.678 222.88 286.906 224.944C286.618 225.714 286.139 226.336 285.468 226.81C284.805 227.28 284.034 227.543 283.154 227.598L285.057 234.954L281.894 233.771L280.707 227.51L279.272 226.973L277.364 232.077L274.918 231.162ZM279.913 225.261L280.512 225.485C282.396 226.19 283.623 225.78 284.193 224.256C284.609 223.142 283.976 222.271 282.295 221.642L281.392 221.305L279.913 225.261Z" fill="#289848"/>
<path d="M294.876 239.333C293.015 238.538 291.777 237.317 291.162 235.67C290.547 234.023 290.655 232.225 291.488 230.277C292.33 228.306 293.559 226.98 295.176 226.299C296.792 225.618 298.552 225.685 300.457 226.499C302.351 227.308 303.611 228.531 304.236 230.169C304.867 231.81 304.765 233.608 303.93 235.562C303.076 237.561 301.839 238.896 300.22 239.569C298.606 240.244 296.825 240.165 294.876 239.333ZM295.631 237.658C296.724 238.125 297.771 238.066 298.771 237.481C299.78 236.894 300.598 235.865 301.225 234.397C301.834 232.972 302.002 231.693 301.729 230.558C301.457 229.423 300.793 228.63 299.739 228.18C298.673 227.725 297.636 227.791 296.628 228.379C295.625 228.969 294.816 229.984 294.2 231.425C293.589 232.855 293.415 234.142 293.677 235.285C293.941 236.423 294.593 237.214 295.631 237.658Z" fill="#289848"/>
<path d="M316.538 248.541C314.847 248.202 313.456 247.769 312.364 247.24C310.295 246.237 308.967 244.923 308.38 243.298C307.801 241.67 308.003 239.84 308.988 237.808C309.964 235.793 311.269 234.51 312.903 233.961C314.542 233.414 316.388 233.638 318.442 234.633C319.755 235.269 320.982 236.054 322.124 236.987L321.178 238.941C319.93 237.702 318.825 236.85 317.863 236.384C316.594 235.769 315.417 235.699 314.332 236.175C313.248 236.65 312.346 237.631 311.626 239.117C310.93 240.554 310.753 241.863 311.095 243.042C311.44 244.217 312.264 245.12 313.566 245.751C313.853 245.889 314.207 246.011 314.63 246.116L316.542 242.169L319.039 243.378L316.538 248.541Z" fill="#289848"/>
<path d="M322.061 251.668L328.384 239.934L332.776 242.301C335.16 243.585 335.829 245.197 334.784 247.137C334.394 247.861 333.834 248.412 333.105 248.79C332.385 249.166 331.585 249.321 330.706 249.257L331.591 256.803L328.618 255.201L328.293 248.836L326.945 248.11L324.36 252.907L322.061 251.668ZM327.812 246.501L328.375 246.804C330.146 247.758 331.417 247.519 332.189 246.086C332.753 245.04 332.244 244.091 330.664 243.239L329.816 242.782L327.812 246.501Z" fill="#289848"/>
<path d="M335.837 259.181L342.604 247.698L349.781 251.928L348.853 253.503L344.066 250.682L342.177 253.886L346.103 256.2L345.198 257.736L341.272 255.422L339.187 258.96L344.338 261.996L343.378 263.626L335.837 259.181Z" fill="#289848"/>
<path d="M347.005 265.675L348.234 263.746C349.122 265.023 349.996 265.936 350.857 266.484C351.459 266.868 352.018 267.035 352.534 266.986C353.054 266.94 353.461 266.687 353.754 266.226C353.987 265.861 354.073 265.486 354.013 265.099C353.957 264.707 353.734 264.145 353.346 263.414L352.86 262.517C352.213 261.308 351.847 260.313 351.761 259.532C351.677 258.746 351.857 258.006 352.299 257.312C352.889 256.385 353.702 255.857 354.739 255.727C355.78 255.6 356.861 255.893 357.98 256.606C358.876 257.177 359.804 257.95 360.764 258.924L359.618 260.724C358.742 259.562 357.97 258.768 357.302 258.342C356.785 258.013 356.296 257.865 355.834 257.898C355.379 257.929 355.033 258.132 354.794 258.507C354.598 258.816 354.534 259.156 354.603 259.528C354.673 259.899 354.901 260.447 355.287 261.17L355.807 262.131C356.504 263.429 356.895 264.464 356.979 265.237C357.063 266.009 356.872 266.763 356.404 267.497C355.74 268.541 354.832 269.112 353.68 269.211C352.527 269.31 351.27 268.926 349.908 268.058C349.007 267.484 348.039 266.69 347.005 265.675Z" fill="#289848"/>
<path d="M357.93 272.686L359.222 270.798C360.067 272.104 360.911 273.045 361.753 273.622C362.342 274.025 362.896 274.211 363.412 274.179C363.934 274.15 364.349 273.911 364.657 273.46C364.902 273.103 365 272.73 364.953 272.342C364.91 271.948 364.706 271.38 364.342 270.636L363.886 269.724C363.28 268.494 362.947 267.487 362.887 266.704C362.83 265.916 363.034 265.182 363.498 264.503C364.119 263.597 364.949 263.096 365.99 263C367.035 262.908 368.105 263.237 369.2 263.986C370.077 264.586 370.979 265.389 371.906 266.395L370.7 268.156C369.864 266.965 369.119 266.146 368.465 265.698C367.959 265.352 367.475 265.188 367.012 265.206C366.557 265.222 366.204 265.413 365.953 265.78C365.746 266.082 365.671 266.42 365.728 266.794C365.785 267.167 365.995 267.722 366.357 268.457L366.845 269.435C367.498 270.755 367.854 271.803 367.913 272.578C367.972 273.353 367.755 274.1 367.264 274.818C366.565 275.838 365.638 276.379 364.484 276.44C363.329 276.501 362.085 276.075 360.752 275.163C359.87 274.559 358.93 273.734 357.93 272.686Z" fill="#289848"/>
<path d="M373.731 284.322C372.108 283.114 371.19 281.637 370.978 279.892C370.766 278.146 371.293 276.424 372.559 274.724C373.839 273.005 375.344 272.004 377.075 271.721C378.805 271.438 380.501 271.915 382.162 273.153C383.814 274.383 384.752 275.867 384.976 277.606C385.205 279.349 384.685 281.073 383.415 282.777C382.117 284.52 380.602 285.529 378.87 285.804C377.144 286.082 375.43 285.588 373.731 284.322ZM374.857 282.87C375.81 283.581 376.842 283.769 377.951 283.435C379.069 283.1 380.105 282.292 381.059 281.011C381.984 279.769 382.447 278.564 382.448 277.397C382.449 276.23 381.99 275.304 381.07 274.619C380.141 273.927 379.117 273.748 377.999 274.083C376.886 274.422 375.862 275.22 374.926 276.476C373.997 277.723 373.526 278.933 373.513 280.107C373.504 281.275 373.952 282.196 374.857 282.87Z" fill="#289848"/>
<path d="M242.811 220.408L245.015 211.8L250.395 213.177L250.093 214.358L246.504 213.44L245.889 215.842L248.832 216.595L248.537 217.747L245.594 216.993L244.915 219.646L248.777 220.634L248.465 221.856L242.811 220.408Z" fill="#289848"/>
<path fill-rule="evenodd" clip-rule="evenodd" d="M306.772 213.17L310.299 214.96L309.565 211.075L312.375 208.265L308.437 207.745L306.629 204.219L304.928 207.799L301.025 208.426L303.908 211.147L303.281 215.067L306.772 213.17ZM149.471 233.955L153.356 236.443L152.98 231.842L156.561 228.924L152.067 227.85L150.402 223.554L147.986 227.492L143.385 227.761L146.392 231.269L145.211 235.727L149.471 233.955ZM210.155 262.531L214.219 264.5L213.324 260.079L216.457 256.82L211.963 256.301L209.833 252.327L207.953 256.444L203.514 257.232L206.843 260.276L206.235 264.751L210.155 262.531ZM165.293 292.522L161.23 290.552L157.309 292.79L157.918 288.315L154.588 285.271L159.028 284.466L160.889 280.366L163.02 284.34L167.513 284.842L164.38 288.1L165.293 292.522ZM142.184 301.426L145.013 302.679L144.279 299.672L146.355 297.362L143.258 297.13L141.719 294.444L140.537 297.309L137.512 297.953L139.857 299.976L139.535 303.055L142.184 301.426ZM177.233 282.397L175.282 281.144L173.151 282.039L173.742 279.801L172.238 278.047L174.548 277.921L175.747 275.952L176.589 278.1L178.826 278.637L177.036 280.087L177.233 282.397ZM189.083 300.064L191.554 301.478L191.178 298.65L193.308 296.752L190.498 296.215L189.334 293.602L187.973 296.108L185.127 296.412L187.096 298.489L186.505 301.282L189.083 300.064ZM186.187 316.407L183.716 314.975L181.138 316.21L181.729 313.399L179.76 311.323L182.606 311.036L183.967 308.53L185.13 311.144L187.941 311.663L185.811 313.579L186.187 316.407ZM210.692 330.119L214.219 331.91L213.503 328.025L216.295 325.214L212.357 324.713L210.549 321.186L208.848 324.767L204.945 325.393L207.828 328.114L207.219 332.017L210.692 330.119ZM264.956 277.619L260.892 275.65L256.954 277.887L257.58 273.412L254.232 270.368L258.69 269.563L260.552 265.445L262.682 269.437L267.176 269.939L264.043 273.197L264.956 277.619ZM294.241 256.139L297.767 257.929L297.033 254.044L299.844 251.233L295.906 250.714L294.098 247.188L292.397 250.768L288.494 251.395L291.376 254.116L290.75 258.036L294.241 256.139ZM250.63 288.361L248.16 286.929L245.582 288.164L246.172 285.372L244.203 283.295L247.05 282.991L248.41 280.484L249.574 283.098L252.384 283.617L250.254 285.533L250.63 288.361ZM274.588 289.072L276.879 290.147L276.342 287.676L278.079 285.814L275.555 285.564L274.319 283.344L273.299 285.671L270.811 286.154L272.708 287.837L272.404 290.361L274.588 289.072ZM260.766 300.889L258.475 299.815L256.291 301.104L256.595 298.579L254.697 296.897L257.186 296.413L258.206 294.086L259.441 296.306L261.966 296.556L260.229 298.418L260.766 300.889ZM263.862 319.193L267.926 321.162L267.031 316.74L270.164 313.482L265.671 312.981L263.54 309.007L261.66 313.106L257.221 313.912L260.55 316.955L259.942 321.431L263.862 319.193ZM352.224 325.896L355.053 327.149L354.337 324.141L356.395 321.832L353.316 321.599L351.759 318.914L350.577 321.778L347.552 322.423L349.915 324.428L349.592 327.507L352.224 325.896ZM314.469 328.331L312.177 327.256L309.993 328.545L310.297 326.039L308.4 324.356L310.888 323.873L311.909 321.546L313.144 323.766L315.668 324.016L313.931 325.86L314.469 328.331ZM292.986 330.121L290.695 329.047L288.51 330.336L288.815 327.829L286.917 326.146L289.406 325.663L290.426 323.336L291.661 325.556L294.185 325.806L292.449 327.65L292.986 330.121ZM329.846 327.686L331.78 328.939L331.601 326.63L333.391 325.18L331.135 324.643L330.294 322.494L329.095 324.464L326.785 324.589L328.289 326.343L327.716 328.581L329.846 327.686ZM343.112 329.53L341.178 328.277L339.048 329.172L339.639 326.934L338.135 325.18L340.427 325.054L341.644 323.085L342.467 325.233L344.723 325.771L342.933 327.239L343.112 329.53ZM263.752 359.373L261.98 358.478L260.243 359.427L260.547 357.475L259.115 356.097L261.067 355.792L261.926 354.002L262.821 355.757L264.79 356.025L263.394 357.421L263.752 359.373ZM302.461 353.985L305.952 355.794L305.272 351.927L308.082 349.188L304.198 348.633L302.443 345.124L300.725 348.633L296.84 349.206L299.65 351.945L299.006 355.811L302.461 353.985ZM330.584 355.191L328.651 353.956L326.52 354.833L327.111 352.613L325.607 350.859L327.899 350.733L329.116 348.746L329.94 350.912L332.195 351.431L330.405 352.899L330.584 355.191ZM329.651 341.94L331.781 342.656L331.065 340.544L332.408 338.753L330.17 338.771L328.863 336.945L328.201 339.076L326.07 339.756L327.896 341.045L327.861 343.283L329.651 341.94ZM360.426 314.623L358.135 313.549L355.933 314.838L356.255 312.314L354.357 310.631L356.846 310.148L357.866 307.82L359.084 310.04L361.626 310.291L359.889 312.135L360.426 314.623ZM355.631 304.061L358.638 305.672L358.083 302.307L360.554 299.944L357.188 299.425L355.702 296.363L354.163 299.407L350.779 299.872L353.214 302.271L352.605 305.619L355.631 304.061ZM375.34 301.48L373.049 300.406L370.865 301.695L371.169 299.189L369.271 297.506L371.76 297.023L372.78 294.695L374.016 296.915L376.54 297.166L374.803 299.01L375.34 301.48Z" fill="#F9F9F9"/>
</g>
<defs>
<clipPath id="clip0_367_12686">
<rect x="0.294922" y="0.644531" width="512" height="512" rx="256" fill="white"/>
</clipPath>
</defs>
</svg>
