<svg width="512" height="512" viewBox="0 0 512 512" fill="none" xmlns="http://www.w3.org/2000/svg">
<g clip-path="url(#clip0_671_10291)">
<path d="M41.2578 211.833C35.1508 208.114 27.6838 207.373 20.9648 209.818L5.12483 215.583C0.112832 217.407 -1.62117 223.616 1.71883 227.773L37.0818 271.79H42.2328L98.9498 251.05L101.32 248.409L41.2578 211.833Z" fill="#FFB509"/>
<path d="M28.2488 217.842C26.0518 215.107 25.0838 211.88 25.1608 208.723C23.7428 208.958 22.3378 209.318 20.9638 209.818L5.12483 215.583C0.112832 217.407 -1.62117 223.616 1.71883 227.773L37.0818 271.79H42.2328L64.9248 263.492L28.2488 217.842Z" fill="#FF9100"/>
<path d="M101.32 248.406L37.082 271.787L57.589 297.313L63.58 298.779L133.804 272.859L135.228 269.055L101.32 248.406Z" fill="#F7689B"/>
<path d="M63.783 262.07L37.082 271.789L57.589 297.315L63.58 298.781L86.484 290.327L63.783 262.07Z" fill="#FB1466"/>
<path d="M323.871 283.328L262.576 305.133L257.222 311.513L258.639 375.644L262.061 378.362L285.24 380.036L295.67 371.279L304.169 355.44L306.637 348.191L327.647 285.82L323.871 283.328Z" fill="#F7689B"/>
<path d="M290.346 295.254L262.576 305.133L257.222 311.513L258.639 375.644L262.061 378.362L282.947 379.87L290.346 295.254Z" fill="#FB1466"/>
<path d="M238.14 185.938C233.771 184.523 229.055 184.606 224.739 186.173L206.503 192.794C201.588 194.579 200.768 201.184 205.098 204.116L243.045 229.816H247.639L303.269 210.959L304.524 207.44L238.14 185.938Z" fill="#FB1466"/>
<path d="M225.815 193.102C223.606 191.606 222.508 189.328 222.396 187.023L206.503 192.794C201.588 194.579 200.768 201.184 205.098 204.116L243.045 229.816H247.639L269.223 222.5L225.815 193.102Z" fill="#E01058"/>
<path d="M483.848 217.532L485.609 208.983L472.904 174.3L466.823 170.006C457.929 166.851 447.918 165.919 438.686 166.033C424.306 166.211 410.079 169.018 396.564 173.937L48.4777 300.631C43.5537 302.423 41.0157 307.867 42.8077 312.79L45.3467 319.767C46.7077 323.507 50.2597 326 54.2397 326.009L177.551 326.288C193.118 326.323 208.568 323.617 223.196 318.293L455.375 233.787C465.734 230.016 475.348 224.503 483.848 217.532Z" fill="#FFB509"/>
<path d="M483.848 217.532L485.609 208.983L472.904 174.3L466.823 170.006C457.929 166.851 447.918 165.919 438.686 166.033C424.306 166.211 410.079 169.018 396.564 173.937L48.4777 300.631C43.5537 302.423 41.0157 307.867 42.8077 312.79L45.3467 319.767C46.7077 323.507 50.2597 326 54.2397 326.009L177.551 326.288C193.118 326.323 208.568 323.617 223.196 318.293L455.375 233.787C465.734 230.016 475.348 224.503 483.848 217.532Z" fill="#FFB509"/>
<path d="M471.08 196.391L209.599 291.562C193.125 297.558 175.725 300.606 158.194 300.566L49.3357 300.32L48.4777 300.632C43.5537 302.424 41.0157 307.868 42.8077 312.791L45.3467 319.768C46.7077 323.508 50.2597 326.001 54.2397 326.01L177.551 326.289C193.118 326.324 208.568 323.618 223.196 318.294L455.375 233.788C465.733 230.018 475.348 224.505 483.848 217.534L485.609 208.985L479.69 192.828C476.877 194.134 474.006 195.326 471.08 196.391Z" fill="#FF9100"/>
<path d="M439.203 202.192C436.047 202.192 433.084 200.244 431.942 197.107C430.483 193.097 432.55 188.663 436.56 187.204L443.638 184.628C447.648 183.17 452.081 185.236 453.541 189.246C455 193.256 452.933 197.69 448.923 199.149L441.845 201.725C440.974 202.041 440.081 202.192 439.203 202.192Z" fill="#8479C2"/>
<path d="M445.955 405.085C442.816 404.912 440.21 402.529 439.667 399.433C436.295 380.209 415.809 368.9 397.91 375.628C394.322 376.977 390.283 375.243 388.937 371.654C381.374 351.483 361.922 337.125 339.111 337.125C316.3 337.125 296.847 351.483 289.285 371.654C287.939 375.244 283.9 376.977 280.312 375.628C262.413 368.899 241.927 380.208 238.555 399.433C238.012 402.529 235.406 404.913 232.267 405.085C218.999 405.814 208.14 416.835 208.14 430.633C208.14 430.713 208.14 430.793 208.141 430.873C208.241 441.744 217.223 450.445 228.094 450.445H339.111H450.128C460.999 450.445 469.981 441.744 470.081 430.873C470.082 430.793 470.082 430.714 470.082 430.633C470.082 416.835 459.222 405.814 445.955 405.085Z" fill="#DBEDFF"/>
<path d="M287.372 108.297C285.213 108.178 283.421 106.539 283.048 104.41C280.729 91.1886 266.64 83.4106 254.331 88.0386C251.863 88.9666 249.086 87.7736 248.16 85.3056C242.959 71.4336 229.581 61.5586 213.893 61.5586C198.205 61.5586 184.827 71.4336 179.626 85.3056C178.7 87.7746 175.923 88.9666 173.455 88.0386C161.145 83.4106 147.057 91.1886 144.738 104.41C144.364 106.539 142.573 108.179 140.414 108.297C131.289 108.799 123.821 116.378 123.821 125.867C123.821 125.922 123.821 125.977 123.822 126.032C123.891 133.508 130.068 139.492 137.544 139.492H213.894H290.244C297.721 139.492 303.898 133.508 303.966 126.032C303.967 125.977 303.967 125.922 303.967 125.867C303.965 116.378 296.496 108.799 287.372 108.297Z" fill="#DBEDFF"/>
<path d="M279.32 430.872C279.319 430.792 279.319 430.713 279.319 430.633C279.319 416.835 290.179 405.814 303.446 405.085C306.585 404.912 309.19 402.529 309.734 399.433C313.106 380.209 333.592 368.9 351.491 375.628C355.08 376.977 359.118 375.243 360.464 371.654C363.489 363.587 368.419 356.454 374.701 350.794C365.275 342.3 352.8 337.125 339.111 337.125C316.299 337.125 296.847 351.484 289.284 371.654C287.938 375.244 283.899 376.977 280.311 375.628C262.412 368.899 241.926 380.208 238.554 399.433C238.011 402.529 235.405 404.913 232.266 405.085C218.998 405.814 208.139 416.835 208.139 430.633C208.139 430.713 208.139 430.793 208.14 430.872C208.24 441.743 217.222 450.444 228.093 450.444H299.272C288.401 450.444 279.419 441.743 279.32 430.872Z" fill="#B5DCFF"/>
<path d="M195 126.033C194.999 125.978 194.999 125.923 194.999 125.868C194.999 116.379 202.468 108.8 211.592 108.298C213.751 108.179 215.543 106.54 215.916 104.411C218.235 91.1896 232.324 83.4116 244.633 88.0396C246.345 88.6836 248.193 88.2886 249.481 87.1726C248.912 86.6806 248.442 86.0616 248.158 85.3056C242.957 71.4336 229.579 61.5586 213.891 61.5586C198.203 61.5586 184.825 71.4336 179.624 85.3056C178.698 87.7746 175.921 88.9666 173.453 88.0386C161.143 83.4106 147.055 91.1886 144.736 104.41C144.362 106.54 142.571 108.179 140.412 108.297C131.288 108.799 123.819 116.378 123.819 125.867C123.819 125.922 123.819 125.977 123.82 126.032C123.889 133.508 130.066 139.492 137.542 139.492H208.722C201.245 139.493 195.068 133.509 195 126.033Z" fill="#B5DCFF"/>
<path d="M502.901 176.764L487.781 174.913C480.638 174.039 473.605 172.411 466.823 170.005C466.722 169.969 466.616 169.942 466.514 169.906L483.848 217.53C485.462 216.207 487.05 214.85 488.579 213.421L508.45 194.866C511.07 192.42 512.47 188.833 511.856 185.302C511.058 180.712 507.376 177.312 502.901 176.764Z" fill="#F7689B"/>
<path d="M511.857 185.305C511.058 180.715 507.377 177.315 502.901 176.767L501.901 176.645C499.922 179.893 497.231 182.698 493.996 184.837C488.174 188.687 481.986 191.971 475.52 194.651L483.848 217.533C485.462 216.21 487.05 214.853 488.579 213.424L508.45 194.869C511.07 192.423 512.471 188.837 511.857 185.305Z" fill="#FB1466"/>
<path d="M331.295 245.407L260.276 271.317C257.938 272.17 256.403 274.417 256.458 276.906L257.223 311.513L327.648 285.819L338.796 252.723C340.352 248.104 335.874 243.736 331.295 245.407Z" fill="#FB1466"/>
<path d="M293.5 259.195L260.277 271.316C257.939 272.169 256.404 274.416 256.458 276.905L257.223 311.512L289.97 299.564L293.5 259.195Z" fill="#E01058"/>
<path d="M154.426 309.774C151.634 302.102 143.151 298.146 135.479 300.939L89.9906 317.495C82.3186 320.287 78.3626 328.77 81.1556 336.442C83.9476 344.114 92.4306 348.07 100.103 345.277L145.591 328.721C153.263 325.929 157.218 317.446 154.426 309.774Z" fill="#F7689B"/>
<path d="M118.76 322.711C116.492 316.481 118.338 309.756 122.91 305.512L89.9907 317.493C82.3187 320.285 78.3637 328.768 81.1557 336.44C83.9477 344.112 92.4307 348.068 100.103 345.275L133.227 333.219C126.907 332.994 121.055 329.018 118.76 322.711Z" fill="#FB1466"/>
</g>
<defs>
<clipPath id="clip0_671_10291">
<rect width="512" height="512" fill="white"/>
</clipPath>
</defs>
</svg>
