<svg width="513" height="512" viewBox="0 0 513 512" fill="none" xmlns="http://www.w3.org/2000/svg">
<g clip-path="url(#clip0_671_10108)">
<path d="M119.828 210.078H103.263L60.1537 228.75L35.8227 270.472L36.4848 287.087C46.4698 259.879 72.6367 240.415 103.263 240.415C142.47 240.415 174.366 272.312 174.366 311.519C174.366 350.725 142.469 382.622 103.263 382.622C70.6138 382.622 43.0528 360.495 34.7408 330.455L30.8438 337.691L52.5637 381.019L76.2578 398.214L96.9898 409.933L117.229 413.35C167.321 406.514 206.046 363.458 206.046 311.52C206.046 260.483 168.654 218.023 119.828 210.078Z" fill="#7B6C79"/>
<path d="M36.6625 336.399C33.7575 328.65 32.1595 320.268 32.1595 311.518C32.1595 302.767 33.7575 294.385 36.6625 286.636C46.5085 247.184 79.2085 216.686 119.827 210.076C114.432 209.198 108.9 208.734 103.262 208.734C46.5875 208.734 0.479492 254.842 0.479492 311.517C0.479492 368.192 46.5875 414.3 103.262 414.3C108.901 414.3 114.433 413.836 119.827 412.958C79.2085 406.349 46.5085 375.851 36.6625 336.399Z" fill="#665E68"/>
<path d="M224.104 303.791H127.043C126.198 301.196 124.942 298.783 123.348 296.637L196.25 194.284L189.99 176.438L110.769 287.662C108.399 286.915 105.878 286.511 103.264 286.511C89.4748 286.511 78.2568 297.729 78.2568 311.518C78.2568 325.307 89.4748 336.524 103.264 336.524C114.357 336.524 123.78 329.262 127.043 319.244H224.104C228.371 319.244 231.83 315.785 231.83 311.518C231.83 307.25 228.371 303.791 224.104 303.791ZM103.263 321.071C97.9948 321.071 93.7088 316.784 93.7088 311.516C93.7088 306.248 97.9948 301.963 103.263 301.963C108.531 301.963 112.817 306.248 112.817 311.516C112.817 316.784 108.531 321.071 103.263 321.071Z" fill="#0C8E81"/>
<path d="M426.261 210.078H407.2L366.587 231.068L341.269 268.154L335.861 283.914L342.914 287.1C352.896 259.885 379.065 240.415 409.697 240.415C448.904 240.415 480.8 272.312 480.8 311.519C480.8 350.725 448.903 382.622 409.697 382.622C377.264 382.622 349.853 360.785 341.343 331.048L335.862 333.571L342.816 351.857L366.589 388.747L393.552 407.487L420.265 413.763C471.993 408.454 512.479 364.626 512.479 311.519C512.479 260.483 475.087 218.023 426.261 210.078Z" fill="#7B6C79"/>
<path d="M174.112 134.747L185.25 166.497C187.516 166.425 199.831 161.382 199.831 161.382L190.487 134.746H174.112V134.747Z" fill="#665E68"/>
<path d="M250.1 281.477C250.1 281.477 250.452 285.933 250.881 290.296L259.371 292.02C259.371 292.02 263.247 289.872 264.002 288.84L353.805 166.151L347.769 150.453L250.1 281.477Z" fill="#0BB49A"/>
<path d="M248.281 289.768L348.625 152.677L345.406 144.305L330.953 147.685L230.596 284.793L232.243 286.511L248.281 289.768Z" fill="#0C8E81"/>
<path d="M343.096 336.399C340.191 328.65 338.593 320.268 338.593 311.518C338.593 302.767 340.191 294.385 343.096 286.636C352.942 247.184 385.642 216.686 426.261 210.076C420.866 209.198 415.334 208.734 409.696 208.734C353.022 208.734 306.913 254.842 306.913 311.517C306.913 368.192 353.021 414.3 409.696 414.3C415.335 414.3 420.867 413.836 426.261 412.958C385.643 406.348 352.942 375.851 343.096 336.399Z" fill="#665E68"/>
<path d="M350.151 143.196C349.18 139.041 345.023 136.458 340.868 137.432L197.946 170.859L203.091 185.525L344.387 152.478C348.543 151.507 351.123 147.351 350.151 143.196Z" fill="#0BB49A"/>
<path d="M402.688 301.015C399.583 301.015 396.656 299.131 395.475 296.059L323.247 108.204C321.716 104.221 323.703 99.7507 327.686 98.2197C331.667 96.6887 336.139 98.6757 337.67 102.659L409.898 290.514C411.429 294.497 409.442 298.967 405.459 300.498C404.548 300.849 403.61 301.015 402.688 301.015Z" fill="#0BB49A"/>
<path d="M237.049 298.547C233.859 298.547 230.874 296.557 229.758 293.376L185.249 166.497C183.837 162.471 185.955 158.061 189.982 156.649C194.008 155.236 198.418 157.355 199.83 161.382L244.339 288.261C245.751 292.287 243.633 296.697 239.606 298.109C238.761 298.406 237.898 298.547 237.049 298.547Z" fill="#0BB49A"/>
<path d="M256.176 283.914H252.039L241.344 293.006L236.587 306.656L235.225 319.244L243.405 336.274L248.844 337.948L256.177 339.122C266.868 334.521 274.355 323.895 274.355 311.518C274.354 299.141 266.867 288.515 256.176 283.914Z" fill="#DBEDFF"/>
<path d="M237.998 311.519C237.998 299.142 245.485 288.516 256.176 283.915C252.536 282.349 248.527 281.477 244.312 281.477C227.721 281.477 214.271 294.927 214.271 311.519C214.271 328.11 227.721 341.561 244.312 341.561C248.527 341.561 252.536 340.69 256.176 339.123C245.485 334.522 237.998 323.896 237.998 311.519Z" fill="#B4D1EB"/>
<path d="M244.312 383.288C240.045 383.288 236.586 379.829 236.586 375.562V317.468C236.586 313.201 240.045 309.742 244.312 309.742C248.579 309.742 252.038 313.201 252.038 317.468V375.562C252.039 379.829 248.579 383.288 244.312 383.288Z" fill="#665E68"/>
<path d="M260.313 388.745H228.312C224.045 388.745 220.586 385.286 220.586 381.019C220.586 376.752 224.045 373.293 228.312 373.293H260.313C264.58 373.293 268.039 376.752 268.039 381.019C268.039 385.286 264.58 388.745 260.313 388.745Z" fill="#7B6C79"/>
<path d="M393.19 152.681C388.923 152.681 385.464 149.222 385.464 144.955C385.464 140.688 388.923 137.229 393.19 137.229C399.394 137.229 404.542 132.575 405.165 126.404C405.511 122.975 404.429 119.679 402.118 117.123C399.807 114.567 396.636 113.159 393.19 113.159H330.459C326.192 113.159 322.733 109.7 322.733 105.433C322.733 101.166 326.192 97.707 330.459 97.707H393.19C400.947 97.707 408.379 101.007 413.58 106.76C418.781 112.513 421.318 120.239 420.539 127.957C419.116 142.051 407.358 152.681 393.19 152.681Z" fill="#665E68"/>
<path d="M409.696 336.526C395.907 336.526 384.69 325.308 384.69 311.519C384.69 297.73 395.908 286.512 409.696 286.512C423.484 286.512 434.703 297.73 434.703 311.519C434.703 325.308 423.485 336.526 409.696 336.526ZM409.696 301.965C404.428 301.965 400.142 306.251 400.142 311.519C400.142 316.787 404.428 321.073 409.696 321.073C414.964 321.073 419.25 316.787 419.25 311.519C419.25 306.251 414.964 301.965 409.696 301.965Z" fill="#0BB49A"/>
<path d="M215.352 113.455L174.118 106.531H168.587L162.921 114.268V123.282L170.905 137.223L176.408 140.166H213.125C218.158 140.166 222.77 137.356 225.077 132.883C229.255 124.785 224.339 114.964 215.352 113.455Z" fill="#938493"/>
<path d="M170.167 132.8L166.276 125.16C162.353 117.457 166.755 108.819 174.117 106.533L158.729 103.95C148.031 102.153 139.848 113.305 144.771 122.971L148.662 130.611C151.649 136.476 157.674 140.169 164.255 140.169H177.304C174.298 138.507 171.785 135.976 170.167 132.8Z" fill="#7B6C79"/>
</g>
<defs>
<clipPath id="clip0_671_10108">
<rect width="512" height="512" fill="white" transform="translate(0.479492)"/>
</clipPath>
</defs>
</svg>
