<svg id="Capa_1" enable-background="new 0 0 512 512" height="300" viewBox="0 0 512 512" width="300" xmlns="http://www.w3.org/2000/svg" version="1.1" xmlns:xlink="http://www.w3.org/1999/xlink" xmlns:svgjs="http://svgjs.dev/svgjs"><g width="100%" height="100%" transform="matrix(1,0,0,1,0,0)"><g><path d="m178.275 112.189-3.924-14.645c-.806-3.009-3.899-4.795-6.908-3.988l-50.655 13.573c1.752.193 15.674 23.175 15.674 23.175l41.825-11.207c3.009-.806 4.794-3.899 3.988-6.908z" fill="#c9333e" fill-opacity="1" data-original-color="#da4a54ff" stroke="none" stroke-opacity="1" style=""/><path d="m141.227 189.951-11.384-77.461c-.428-2.913-2.927-5.071-5.871-5.071h-1.902c-4.225 0-8.431-.554-12.512-1.647l-45.59-12.216c-3.009-.806-6.102.979-6.908 3.988l-3.924 14.645c-.806 3.009.979 6.102 3.988 6.908l36.37 9.745c3.11.833 5.102 3.864 4.634 7.05l-7.945 54.059 24.172 18.028z" fill="#e84b58" fill-opacity="1" data-original-color="#dd636eff" stroke="none" stroke-opacity="1" style=""/><path d="m272.776 172.953c-4.268 0-7.726-3.459-7.726-7.726v-34.54c0-4.267 3.459-7.726 7.726-7.726s7.726 3.459 7.726 7.726v34.54c0 4.267-3.459 7.726-7.726 7.726z" fill="#8ca8b2" fill-opacity="1" data-original-color="#d0e2e7ff" stroke="none" stroke-opacity="1" style=""/><path d="m331.333 172.953c-4.268 0-7.726-3.459-7.726-7.726v-63.908c0-4.267 3.459-7.726 7.726-7.726s7.726 3.459 7.726 7.726v63.908c0 4.267-3.458 7.726-7.726 7.726z" fill="#8ca8b2" fill-opacity="1" data-original-color="#d0e2e7ff" stroke="none" stroke-opacity="1" style=""/><path d="m357.088 172.953c-4.268 0-7.726-3.459-7.726-7.726v-38.403c0-4.267 3.459-7.726 7.726-7.726s7.726 3.459 7.726 7.726v38.403c0 4.267-3.459 7.726-7.726 7.726z" fill="#8ca8b2" fill-opacity="1" data-original-color="#d0e2e7ff" stroke="none" stroke-opacity="1" style=""/><path d="m40.11 215.706 3.273 11.437 186.16-1.163s4.794-36.028 4.794-36.028h-184.933c-1.413 0-2.65.949-3.015 2.314l-6.281 23.441z" fill="#b9d8fe" fill-opacity="1" data-original-color="#cbe2ffff" stroke="none" stroke-opacity="1" style=""/><path d="m80.206 226.008v-36.056h-15.452v36.056c0 .34.029.673.072 1.001l15.323-.096c.035-.297.057-.599.057-.905z" fill="#abcfff" fill-opacity="1" data-original-color="#bed8fbff" stroke="none" stroke-opacity="1" style=""/><path d="m194.239 189.951v36.056c0 .065.008.128.01.192l15.438-.097c0-.032.005-.063.005-.096v-36.056h-15.453z" fill="#abcfff" fill-opacity="1" data-original-color="#bed8fbff" stroke="none" stroke-opacity="1" style=""/><path d="m112.577 226.008v-36.056h-15.452v36.056c0 .27.014.536.041.799l15.376-.096c.021-.232.035-.466.035-.703z" fill="#abcfff" fill-opacity="1" data-original-color="#bed8fbff" stroke="none" stroke-opacity="1" style=""/><path d="m144.949 226.008v-36.056h-15.453v36.056c0 .201.015.399.03.597l15.397-.096c.011-.167.026-.332.026-.501z" fill="#abcfff" fill-opacity="1" data-original-color="#bed8fbff" stroke="none" stroke-opacity="1" style=""/><path d="m177.32 226.008v-36.056h-15.453v36.056c0 .133.013.263.02.395l15.418-.096c.004-.101.015-.199.015-.299z" fill="#abcfff" fill-opacity="1" data-original-color="#bed8fbff" stroke="none" stroke-opacity="1" style=""/><path d="m47.009 313.143h432.483l-34.311-59.428c-.501-.868.125-1.953 1.127-1.953h6.745c.719 0 1.302-.583 1.302-1.302v-33.453c0-.719-.583-1.302-1.302-1.302h-29.066c-.465 0-.895-.248-1.127-.651l-28.987-50.207c-.233-.403-.662-.651-1.127-.651h-150.509c-.589 0-1.105.396-1.257.965l-13.285 49.579c-.152.569-.668.965-1.257.965h-193.58c-.719 0-1.302.583-1.302 1.302v33.453c0 .719.583 1.302 1.302 1.302h12.849c.719 0 1.302.583 1.302 1.302z" fill="#d1edff" fill-opacity="1" data-original-color="#f1f4f6ff" stroke="none" stroke-opacity="1" style=""/><path d="m445.181 253.715c-.501-.868.125-1.953 1.127-1.953h6.745c.719 0 1.302-.583 1.302-1.302v-33.453c0-.719-.583-1.302-1.302-1.302h-29.065c-.465 0-.895-.248-1.127-.651l-28.987-50.207c-.233-.403-.662-.651-1.127-.651h-28.56l16.755 29.02c.674 1.167 1.918 1.885 3.266 1.885h17.152c6.511 0 11.79 5.279 11.79 11.79v20.496c0 2.083-1.688 3.771-3.771 3.771-2.903 0-4.717 3.142-3.266 5.656l11.591 20.077c9.147 15.844-2.287 35.648-20.581 35.648h-350.114v20.604l259.769 17.26 172.714-17.26z" fill="#7ac0dd" fill-opacity="1" data-original-color="#dfeaefff" stroke="none" stroke-opacity="1" style=""/><circle cx="272.776" cy="126.824" fill="#e84b58" r="13.273" fill-opacity="1" data-original-color="#dd636eff" stroke="none" stroke-opacity="1" style=""/><path d="m274.608 200.253h139.707l8.546 14.802c.233.403.662.651 1.127.651h-149.38c-4.268 0-7.726-3.459-7.726-7.726s3.458-7.727 7.726-7.727zm-.002-10.302h133.761l-8.922-15.453h-124.84c-4.268 0-7.726 3.459-7.726 7.726s3.459 7.727 7.727 7.727zm-188.881 77.264c4.268 0 7.726-3.459 7.726-7.726s-3.459-7.726-7.726-7.726h-40.013c.717.003 1.297.584 1.297 1.302v14.151h38.716zm376.172 15.452h-294.663c-4.268 0-7.726 3.459-7.726 7.726s3.459 7.726 7.726 7.726h303.584zm-302.389-23.179c0 4.267 3.459 7.726 7.726 7.726h285.741l-7.794-13.5c-.5-.867.124-1.95 1.124-1.953h-279.07c-4.268.001-7.727 3.46-7.727 7.727z" fill="#4893c1" fill-opacity="1" data-original-color="#407093ff" stroke="none" stroke-opacity="1" style=""/><path d="m445.181 253.715c-.5-.867.124-1.95 1.124-1.953h-31.563l2.961 5.129c1.928 3.339 2.942 6.855 3.169 10.323h32.103z" fill="#2a506d" fill-opacity="1" data-original-color="#365e7dff" stroke="none" stroke-opacity="1" style=""/><path d="m370.134 174.499 8.921 15.452h29.312l-8.922-15.452z" fill="#2a506d" fill-opacity="1" data-original-color="#365e7dff" stroke="none" stroke-opacity="1" style=""/><path d="m461.897 282.667h-45.492c-4.203 5.858-11.048 9.872-19.283 9.872h-237.312c.93 3.223 3.901 5.581 7.424 5.581h303.584z" fill="#2a506d" fill-opacity="1" data-original-color="#365e7dff" stroke="none" stroke-opacity="1" style=""/><path d="m414.315 200.253h-3.213c1.291 1.891 2.046 4.177 2.046 6.639v8.814h10.834c-.347-.001-.673-.141-.913-.379-.001-.001-.002-.003-.003-.004-.079-.079-.148-.169-.205-.268l-4.582-7.936z" fill="#2a506d" fill-opacity="1" data-original-color="#365e7dff" stroke="none" stroke-opacity="1" style=""/><path d="m0 317.577v43.497c0 3.239 2.625 5.864 5.864 5.864h12.305c.506 0 .949.34 1.08.829l9.898 36.941c2.202 8.217 9.648 13.93 18.154 13.93h360.2c27.452 0 52.819-14.646 66.545-38.42l37.81-65.489c.407-.705-.102-1.585-.915-1.585h-506.507c-2.449-.001-4.434 1.984-4.434 4.433z" fill="#e84b58" fill-opacity="1" data-original-color="#dd636eff" stroke="none" stroke-opacity="1" style=""/><path d="m400.677 341.08h-316.659c-2.033 0-3.829 1.322-4.434 3.263l-7.347 23.595h340.221l-7.347-23.595c-.604-1.941-2.401-3.263-4.434-3.263z" fill="#4893c1" fill-opacity="1" data-original-color="#407093ff" stroke="none" stroke-opacity="1" style=""/><path d="m177.918 341.08h15.453v26.858h-15.453z" fill="#2a506d" fill-opacity="1" data-original-color="#365e7dff" stroke="none" stroke-opacity="1" style=""/><path d="m215.72 341.08h15.453v26.858h-15.453z" fill="#2a506d" fill-opacity="1" data-original-color="#365e7dff" stroke="none" stroke-opacity="1" style=""/><path d="m140.116 341.08h15.453v26.858h-15.453z" fill="#2a506d" fill-opacity="1" data-original-color="#365e7dff" stroke="none" stroke-opacity="1" style=""/><path d="m102.313 341.08h15.453v26.858h-15.453z" fill="#2a506d" fill-opacity="1" data-original-color="#365e7dff" stroke="none" stroke-opacity="1" style=""/><path d="m253.522 341.08h15.453v26.858h-15.453z" fill="#2a506d" fill-opacity="1" data-original-color="#365e7dff" stroke="none" stroke-opacity="1" style=""/><path d="m366.93 341.08h15.453v26.858h-15.453z" fill="#2a506d" fill-opacity="1" data-original-color="#365e7dff" stroke="none" stroke-opacity="1" style=""/><path d="m329.127 341.08h15.453v26.858h-15.453z" fill="#2a506d" fill-opacity="1" data-original-color="#365e7dff" stroke="none" stroke-opacity="1" style=""/><path d="m291.325 341.08h15.453v26.858h-15.453z" fill="#2a506d" fill-opacity="1" data-original-color="#365e7dff" stroke="none" stroke-opacity="1" style=""/><path d="m510.942 313.143h-51.272l-26.83 46.471c-13.726 23.774-39.093 38.42-66.545 38.42h-338.936l1.788 6.673c2.202 8.217 9.648 13.93 18.154 13.93h360.2c27.452 0 52.819-14.646 66.546-38.42l37.81-65.489c.407-.704-.102-1.585-.915-1.585z" fill="#c9333e" fill-opacity="1" data-original-color="#da4a54ff" stroke="none" stroke-opacity="1" style=""/><path d="m425.886 366.938h-407.716c.506 0 .948.34 1.079.828l3.919 14.624h402.719c4.268 0 7.726-3.459 7.726-7.726s-3.459-7.726-7.727-7.726z" fill="#c9333e" fill-opacity="1" data-original-color="#da4a54ff" stroke="none" stroke-opacity="1" style=""/><path d="m412.763 382.391h13.124c4.268 0 7.726-3.459 7.726-7.726 0-3.589-2.447-6.607-5.765-7.475-4.332 5.799-9.422 10.901-15.085 15.201z" fill="#cb3341" fill-opacity="1" data-original-color="#d82e3dff" stroke="none" stroke-opacity="1" style=""/><path d="m87.69 392.693c0 4.267-3.459 7.726-7.726 7.726s-7.726-3.459-7.726-7.726 3.459-7.726 7.726-7.726 7.726 3.458 7.726 7.726zm30.076-7.727c-4.267 0-7.726 3.459-7.726 7.726s3.459 7.726 7.726 7.726 7.726-3.459 7.726-7.726-3.459-7.726-7.726-7.726zm37.802 0c-4.267 0-7.726 3.459-7.726 7.726s3.459 7.726 7.726 7.726 7.726-3.459 7.726-7.726c.001-4.267-3.459-7.726-7.726-7.726zm37.803 0c-4.267 0-7.726 3.459-7.726 7.726s3.459 7.726 7.726 7.726 7.726-3.459 7.726-7.726-3.459-7.726-7.726-7.726zm37.802 0c-4.267 0-7.726 3.459-7.726 7.726s3.459 7.726 7.726 7.726 7.726-3.459 7.726-7.726-3.459-7.726-7.726-7.726zm37.802 0c-4.267 0-7.726 3.459-7.726 7.726s3.459 7.726 7.726 7.726 7.726-3.459 7.726-7.726c.001-4.267-3.459-7.726-7.726-7.726zm37.803 0c-4.267 0-7.726 3.459-7.726 7.726s3.459 7.726 7.726 7.726 7.726-3.459 7.726-7.726-3.459-7.726-7.726-7.726zm37.802 0c-4.267 0-7.726 3.459-7.726 7.726s3.459 7.726 7.726 7.726 7.726-3.459 7.726-7.726-3.459-7.726-7.726-7.726zm37.802 0c-4.267 0-7.726 3.459-7.726 7.726s3.459 7.726 7.726 7.726 7.726-3.459 7.726-7.726c.001-4.267-3.459-7.726-7.726-7.726z" fill="#4893c1" fill-opacity="1" data-original-color="#407093ff" stroke="none" stroke-opacity="1" style=""/><g fill="#365e7d"><path d="m198.953 398.034h-11.165c1.407 1.47 3.388 2.385 5.583 2.385s4.176-.915 5.582-2.385z" fill="#2a506d" fill-opacity="1" data-original-color="#365e7dff" stroke="none" stroke-opacity="1" style=""/><path d="m161.151 398.034h-11.165c1.406 1.47 3.388 2.385 5.583 2.385 2.194 0 4.175-.915 5.582-2.385z" fill="#2a506d" fill-opacity="1" data-original-color="#365e7dff" stroke="none" stroke-opacity="1" style=""/><path d="m236.755 398.034h-11.165c1.406 1.47 3.387 2.385 5.582 2.385 2.196 0 4.177-.915 5.583-2.385z" fill="#2a506d" fill-opacity="1" data-original-color="#365e7dff" stroke="none" stroke-opacity="1" style=""/><path d="m123.348 398.034h-11.165c1.406 1.47 3.387 2.385 5.582 2.385 2.196 0 4.177-.915 5.583-2.385z" fill="#2a506d" fill-opacity="1" data-original-color="#365e7dff" stroke="none" stroke-opacity="1" style=""/><path d="m85.546 398.034h-11.165c1.407 1.47 3.388 2.385 5.583 2.385s4.176-.915 5.582-2.385z" fill="#2a506d" fill-opacity="1" data-original-color="#365e7dff" stroke="none" stroke-opacity="1" style=""/><path d="m274.558 398.034h-11.165c1.406 1.47 3.388 2.385 5.583 2.385 2.194 0 4.175-.915 5.582-2.385z" fill="#2a506d" fill-opacity="1" data-original-color="#365e7dff" stroke="none" stroke-opacity="1" style=""/><path d="m376.246 397.387c1.412 1.843 3.635 3.031 6.136 3.031 3.713 0 6.814-2.62 7.557-6.112-4.431 1.434-9.012 2.471-13.693 3.081z" fill="#2a506d" fill-opacity="1" data-original-color="#365e7dff" stroke="none" stroke-opacity="1" style=""/><path d="m350.162 398.034h-11.165c1.406 1.47 3.387 2.385 5.582 2.385s4.177-.915 5.583-2.385z" fill="#2a506d" fill-opacity="1" data-original-color="#365e7dff" stroke="none" stroke-opacity="1" style=""/><path d="m312.36 398.034h-11.165c1.407 1.47 3.388 2.385 5.582 2.385s4.176-.915 5.583-2.385z" fill="#2a506d" fill-opacity="1" data-original-color="#365e7dff" stroke="none" stroke-opacity="1" style=""/></g></g></g></svg>