<?xml version="1.0" encoding="iso-8859-1"?>
<!-- Generator: Adobe Illustrator 19.0.0, SVG Export Plug-In . SVG Version: 6.00 Build 0)  -->
<svg version="1.1" id="Layer_1" xmlns="http://www.w3.org/2000/svg" xmlns:xlink="http://www.w3.org/1999/xlink" x="0px" y="0px"
	 viewBox="0 0 512 512" style="enable-background:new 0 0 512 512;" xml:space="preserve">
<path style="fill:#4E5051;" d="M512,149.298v-13.443C512,60.824,451.177,0,376.148,0H135.852C60.823,0,0,60.824,0,135.855v362.182
	C0,505.748,6.252,512,13.964,512h484.073c7.711,0,13.964-6.252,13.964-13.964V179.553"/>
<path style="fill:#34393A;" d="M67.6,498.036V135.855C67.6,60.824,128.422,0,203.452,0h-67.6C60.823,0,0,60.824,0,135.855v362.182
	C0,505.748,6.252,512,13.964,512h67.6C73.853,512,67.6,505.748,67.6,498.036z"/>
<polyline style="fill:#7F8284;" points="74.689,512 144.802,395.759 367.201,395.759 437.313,512 "/>
<polygon style="fill:#656E72;" points="144.802,395.759 74.689,512 111,512 174.093,395.759 "/>
<g>
	<polygon style="fill:#7F5838;" points="128.65,422.536 109.699,453.952 402.3,453.952 383.35,422.536 	"/>
	<polyline style="fill:#7F5838;" points="339.414,480.584 93.637,480.584 74.687,512 437.313,512 418.363,480.584 369.671,480.584 	
		"/>
</g>
<g>
	<polygon style="fill:#664125;" points="129.814,422.536 110.863,453.952 142.279,453.952 159.144,422.536 	"/>
	<polygon style="fill:#664125;" points="94.8,480.584 75.85,512 111.12,512 127.984,480.584 	"/>
</g>
<path style="fill:#C7C8C9;" d="M374.77,381.665c-1.556-2.913-4.443-4.708-7.571-4.708H144.802c-3.128,0-6.015,1.796-7.571,4.708
	L67.6,512h20.122l62.135-116.304h212.289L424.28,512h20.122L374.77,381.665z"/>
<path style="fill:#FBB03B;" d="M326.682,76.745H136.152c-7.786,0-14.1,6.314-14.1,14.1v28.337v201.97v28.337
	c0,7.786,6.314,14.1,14.1,14.1h60.991h23.434h155.271c7.786,0,14.1-6.314,14.1-14.1v-28.337v-201.97V90.845
	c0-7.786-6.314-14.1-14.1-14.1h-19.686"/>
<path style="fill:#F99A1E;" d="M145.498,349.489v-28.337v-201.97V90.845c0-7.786,6.314-14.1,14.1-14.1h-23.445
	c-7.786,0-14.1,6.314-14.1,14.1v28.337v201.97v28.337c0,7.786,6.314,14.1,14.1,14.1h23.445
	C151.811,363.589,145.498,357.275,145.498,349.489z"/>
<path style="fill:#FCBD4C;" d="M375.848,76.745h-19.686h-29.48h-116.03c-2.207,14.37-3.357,29.089-3.357,44.076
	c0,102.013,53.062,191.63,133.086,242.767h35.466c7.786,0,14.1-6.314,14.1-14.1v-28.337v-201.97V90.845
	C389.947,83.059,383.635,76.745,375.848,76.745z"/>
<polygon style="fill:#A9DBED;" points="336.596,110.898 318.896,110.898 154.823,110.898 154.823,252.862 357.179,252.862 
	357.179,110.898 "/>
<path style="fill:#CEECF4;" d="M318.896,110.898H207.484c-0.112,3.295-0.189,6.601-0.189,9.923c0,47.596,11.56,92.488,32.01,132.04
	H357.18V110.898h-20.584C336.597,110.898,318.896,110.898,318.896,110.898z"/>
<rect x="154.822" y="110.895" style="fill:#1584B5;" width="202.356" height="35.686"/>
<polygon style="fill:#83C4D6;" points="175.729,110.898 173.693,110.898 154.823,110.898 154.823,252.862 178.096,252.862 
	178.096,110.898 "/>
<rect x="154.822" y="110.895" style="fill:#12789B;" width="23.273" height="35.686"/>
<path style="fill:#29ABE2;" d="M207.296,120.822c0,8.684,0.394,17.275,1.147,25.763h148.736v-35.686H207.474
	C207.361,114.193,207.296,117.499,207.296,120.822z"/>
<g>
	<circle style="fill:#FF5347;" cx="170.217" cy="308.678" r="15.393"/>
	<circle style="fill:#FF5347;" cx="341.783" cy="308.678" r="15.394"/>
</g>
<g>
	<path style="fill:#E53530;" d="M170.214,308.684c0-5.696,3.1-10.654,7.696-13.317c-2.266-1.313-4.888-2.076-7.695-2.076
		c-8.503,0-15.394,6.891-15.394,15.393c0,8.503,6.891,15.394,15.394,15.394c2.807,0,5.43-0.763,7.695-2.076
		C173.314,319.339,170.214,314.38,170.214,308.684z"/>
	<path style="fill:#E53530;" d="M341.786,308.684c0-5.696,3.1-10.654,7.696-13.317c-2.266-1.313-4.888-2.076-7.695-2.076
		c-8.503,0-15.393,6.891-15.393,15.393c0,8.503,6.891,15.394,15.393,15.394c2.807,0,5.43-0.763,7.695-2.076
		C344.885,319.339,341.786,314.38,341.786,308.684z"/>
</g>
<path style="fill:#C7C8C9;" d="M138.259,363.589v19.355c0,7.077,5.739,12.816,12.816,12.816h209.852
	c7.077,0,12.814-5.739,12.814-12.816v-19.355"/>
<path style="fill:#ACADAD;" d="M360.927,379.674H151.075c-7.077,0-12.816-5.739-12.816-12.816v16.085
	c0,7.077,5.739,12.816,12.816,12.816h209.852c7.077,0,12.814-5.739,12.814-12.816v-16.085
	C373.741,373.936,368.005,379.674,360.927,379.674z"/>
<g>
	<path style="fill:#F47621;" d="M297.955,304.5h-83.909c-4.821,0-8.727-3.906-8.727-8.727s3.906-8.727,8.727-8.727h83.909
		c4.821,0,8.727,3.906,8.727,8.727C306.682,300.593,302.775,304.5,297.955,304.5z"/>
	<path style="fill:#F47621;" d="M297.955,330.477h-83.909c-4.821,0-8.727-3.906-8.727-8.727s3.906-8.727,8.727-8.727h83.909
		c4.821,0,8.727,3.906,8.727,8.727S302.775,330.477,297.955,330.477z"/>
</g>
<g>
</g>
<g>
</g>
<g>
</g>
<g>
</g>
<g>
</g>
<g>
</g>
<g>
</g>
<g>
</g>
<g>
</g>
<g>
</g>
<g>
</g>
<g>
</g>
<g>
</g>
<g>
</g>
<g>
</g>
</svg>
