<svg height="512pt" viewBox="0 -120 512.00036 512" width="512pt" xmlns="http://www.w3.org/2000/svg"><path d="m302.5 81.949219 8.355469 6.238281c4.671875 3.488281 10.347656 5.371094 16.179687 5.371094h31.601563c6.894531 0 12.484375 5.589844 12.484375 12.484375 0 7.449219-2.40625 14.699219-6.859375 20.671875l-17.105469 22.914062-74.34375-55.484375 6.597656-8.84375c5.449219-7.300781 15.789063-8.800781 23.089844-3.351562zm0 0" fill="#838383"/><path d="m358.636719 93.558594h-21.464844c6.894531 0 12.484375 5.589844 12.484375 12.484375 0 7.449219-2.40625 14.699219-6.859375 20.667969l-9.425781 12.628906 13.785156 10.289062 17.101562-22.914062c4.457032-5.972656 6.863282-13.222656 6.863282-20.671875 0-6.894531-5.589844-12.484375-12.484375-12.484375zm0 0" fill="#5a5a5a"/><path d="m302.5 81.949219 8.355469 6.238281c4.671875 3.488281 10.347656 5.371094 16.179687 5.371094h31.601563c6.894531 0 12.484375 5.589844 12.484375 12.484375 0 7.449219-2.40625 14.699219-6.859375 20.671875l-17.105469 22.914062-74.34375-55.484375 6.597656-8.84375c5.449219-7.300781 15.789063-8.800781 23.089844-3.351562zm0 0" fill="#838383"/><path d="m358.636719 93.558594h-21.464844c6.894531 0 12.484375 5.589844 12.484375 12.484375 0 7.449219-2.40625 14.699219-6.859375 20.667969l-9.425781 12.628906 13.785156 10.289062 17.101562-22.914062c4.457032-5.972656 6.863282-13.222656 6.863282-20.671875 0-6.894531-5.589844-12.484375-12.484375-12.484375zm0 0" fill="#5a5a5a"/><path d="m355.445312 151.417969-140.859374-103.832031c-16.433594-12.109376-39.710938-7.542969-50.34375 9.882812v17.445312l35.273437 143.875c2.804687 11.433594 13.050781 19.472657 24.820313 19.472657h90.910156c10.800781 0 20.433594-6.789063 24.066406-16.960938l20.175781-56.492187c1.738281-4.867188.097657-10.300782-4.042969-13.390625zm0 0" fill="#9c9c9c"/><path d="m355.445312 151.417969-16.75-12.347657-20.121093 56.335938c-3.632813 10.171875-13.265625 16.960938-24.066407 16.960938h-90.90625c-2 0-3.945312-.25-5.828124-.6875l1.746093 7.109374c2.800781 11.433594 13.050781 19.472657 24.820313 19.472657h90.90625c10.800781 0 20.433594-6.789063 24.066406-16.960938l20.175781-56.492187c1.738281-4.867188.097657-10.300782-4.042969-13.390625zm0 0" fill="#838383"/><path d="m355.054688 196.1875c0 37.382812 30.300781 67.6875 67.683593 67.6875 37.382813 0 67.6875-30.304688 67.6875-67.6875s-30.304687-67.6875-67.6875-67.6875c-37.382812 0-67.683593 30.304688-67.683593 67.6875zm33.839843 0c0-18.691406 15.152344-33.84375 33.84375-33.84375 18.691407 0 33.84375 15.152344 33.84375 33.84375s-15.152343 33.84375-33.84375 33.84375c-18.691406 0-33.84375-15.152344-33.84375-33.84375zm0 0" fill="#9c9c9c"/><path d="m7.667969 196.1875c0 37.382812 30.304687 67.6875 67.683593 67.6875 37.382813 0 67.6875-30.304688 67.6875-67.6875s-30.304687-67.6875-67.6875-67.6875c-37.378906 0-67.683593 30.304688-67.683593 67.6875zm33.84375 0c0-18.691406 15.148437-33.84375 33.839843-33.84375 18.691407 0 33.84375 15.152344 33.84375 33.84375s-15.152343 33.84375-33.84375 33.84375c-18.691406 0-33.839843-15.152344-33.839843-33.84375zm0 0" fill="#9c9c9c"/><path d="m458.957031 139.019531c9.21875 11.566407 14.738281 26.203125 14.738281 42.140625 0 37.382813-30.304687 67.6875-67.683593 67.6875-13.328125 0-25.746094-3.867187-36.222657-10.519531 12.402344 15.5625 31.503907 25.546875 52.949219 25.546875 37.382813 0 67.6875-30.304688 67.6875-67.6875 0-24.054688-12.558593-45.164062-31.46875-57.167969zm0 0" fill="#838383"/><path d="m111.570312 139.019531c9.21875 11.566407 14.738282 26.203125 14.738282 42.140625 0 37.382813-30.300782 67.6875-67.683594 67.6875-13.328125 0-25.742188-3.867187-36.21875-10.519531 12.398438 15.5625 31.5 25.546875 52.945312 25.546875 37.382813 0 67.6875-30.304688 67.6875-67.6875 0-24.054688-12.558593-45.164062-31.46875-57.167969zm0 0" fill="#838383"/><path d="m422.738281 271.539062c-41.550781 0-75.351562-33.800781-75.351562-75.351562s33.800781-75.351562 75.351562-75.351562 75.355469 33.800781 75.355469 75.351562-33.804688 75.351562-75.355469 75.351562zm0-135.371093c-33.09375 0-60.019531 26.925781-60.019531 60.019531s26.925781 60.019531 60.019531 60.019531c33.097657 0 60.019531-26.925781 60.019531-60.019531s-26.921874-60.019531-60.019531-60.019531zm0 0" fill="#5a5a5a"/><path d="m75.351562 271.539062c-41.546874 0-75.351562-33.800781-75.351562-75.351562s33.804688-75.351562 75.351562-75.351562c41.550782 0 75.355469 33.800781 75.355469 75.351562s-33.804687 75.351562-75.355469 75.351562zm0-135.371093c-33.09375 0-60.015624 26.925781-60.015624 60.019531s26.921874 60.019531 60.015624 60.019531c33.097657 0 60.019532-26.925781 60.019532-60.019531s-26.921875-60.019531-60.019532-60.019531zm0 0" fill="#5a5a5a"/><path d="m270.335938 102.035156c5.746093 0 8.160156-7.339844 3.53125-10.75l-59.28125-43.699218c-16.429688-12.109376-39.707032-7.542969-50.34375 9.882812l.015624 12.578125c.023438 17.675781 14.355469 31.988281 32.027344 31.988281zm0 0" fill="#ff6930"/><path d="m273.867188 91.285156-14.082032-10.378906c-.648437 3.359375-3.441406 6.289062-7.574218 6.289062h-82.945313c5.6875 8.921876 15.660156 14.839844 27.019531 14.839844h74.050782c5.746093 0 8.160156-7.339844 3.53125-10.75zm0 0" fill="#ff5426"/><path d="m311.996094 224.78125h-119.769532c-4.234374 0-7.664062-3.433594-7.664062-7.667969s3.429688-7.667969 7.664062-7.667969h119.769532c4.234375 0 7.667968 3.433594 7.667968 7.667969s-3.433593 7.667969-7.667968 7.667969zm0 0" fill="#e7e7e7"/><path d="m257.488281 135.917969c0 14.257812-11.558593 25.816406-25.816406 25.816406s-25.8125-11.558594-25.8125-25.816406c0-14.257813 11.554687-25.8125 25.8125-25.8125s25.816406 11.554687 25.816406 25.8125zm0 0" fill="#e7e7e7"/><path d="m231.671875 110.105469c-2.386719 0-4.695313.328125-6.894531.9375 10.910156 3.015625 18.921875 13.007812 18.921875 24.875 0 11.867187-8.011719 21.859375-18.921875 24.875 2.195312.609375 4.507812.9375 6.894531.9375 14.257813 0 25.816406-11.554688 25.816406-25.8125 0-14.257813-11.558593-25.8125-25.816406-25.8125zm0 0" fill="#bfbfbf"/><path d="m241.507812 187.933594c0 5.433594-4.402343 9.835937-9.835937 9.835937-5.429687 0-9.835937-4.402343-9.835937-9.835937 0-5.429688 4.40625-9.835938 9.835937-9.835938 5.433594 0 9.835937 4.40625 9.835937 9.835938zm0 0" fill="#e7e7e7"/><path d="m458.957031 139.019531c9.21875 11.566407 14.738281 26.203125 14.738281 42.140625 0 37.382813-30.304687 67.6875-67.683593 67.6875-13.328125 0-25.746094-3.867187-36.222657-10.519531 12.402344 15.5625 31.503907 25.546875 52.949219 25.546875 37.382813 0 67.6875-30.304688 67.6875-67.6875 0-24.054688-12.558593-45.164062-31.46875-57.167969zm0 0" fill="#838383"/><path d="m422.738281 271.539062c-41.550781 0-75.351562-33.800781-75.351562-75.351562s33.800781-75.351562 75.351562-75.351562 75.355469 33.800781 75.355469 75.351562-33.804688 75.351562-75.355469 75.351562zm0-135.371093c-33.09375 0-60.019531 26.925781-60.019531 60.019531s26.925781 60.019531 60.019531 60.019531c33.097657 0 60.019531-26.925781 60.019531-60.019531s-26.921874-60.019531-60.019531-60.019531zm0 0" fill="#5a5a5a"/><path d="m75.351562 271.539062c-41.546874 0-75.351562-33.800781-75.351562-75.351562s33.804688-75.351562 75.351562-75.351562c41.550782 0 75.355469 33.800781 75.355469 75.351562s-33.804687 75.351562-75.355469 75.351562zm0-135.371093c-33.09375 0-60.015624 26.925781-60.015624 60.019531s26.921874 60.019531 60.015624 60.019531c33.097657 0 60.019532-26.925781 60.019532-60.019531s-26.921875-60.019531-60.019532-60.019531zm0 0" fill="#5a5a5a"/><g fill="#e7e7e7"><path d="m311.996094 224.78125h-119.769532c-4.234374 0-7.664062-3.433594-7.664062-7.667969s3.429688-7.667969 7.664062-7.667969h119.769532c4.234375 0 7.667968 3.433594 7.667968 7.667969s-3.433593 7.667969-7.667968 7.667969zm0 0"/><path d="m455.757812 203.277344h-182.378906c-6.375 0-12.085937-3.550782-14.902344-9.273438-2.8125-5.71875-2.148437-12.410156 1.742188-17.464844l18.222656-23.667968c2.582032-3.351563 7.394532-3.980469 10.75-1.394532 3.355469 2.582032 3.980469 7.394532 1.398438 10.75l-18.222656 23.664063c-.117188.15625-.480469.628906-.132813 1.34375.351563.710937.949219.710937 1.144531.710937h182.378906c4.234376 0 7.667969 3.429688 7.667969 7.667969 0 4.234375-3.433593 7.664063-7.667969 7.664063zm0 0"/><path d="m257.488281 135.917969c0 14.257812-11.558593 25.816406-25.816406 25.816406s-25.8125-11.558594-25.8125-25.816406c0-14.257813 11.554687-25.8125 25.8125-25.8125s25.816406 11.554687 25.816406 25.8125zm0 0"/></g><path d="m231.671875 110.105469c-2.386719 0-4.695313.328125-6.894531.9375 10.910156 3.015625 18.921875 13.007812 18.921875 24.875 0 11.867187-8.011719 21.859375-18.921875 24.875 2.195312.609375 4.507812.9375 6.894531.9375 14.257813 0 25.816406-11.554688 25.816406-25.8125 0-14.257813-11.558593-25.8125-25.816406-25.8125zm0 0" fill="#bfbfbf"/><path d="m241.507812 187.933594c0 5.433594-4.402343 9.835937-9.835937 9.835937-5.429687 0-9.835937-4.402343-9.835937-9.835937 0-5.429688 4.40625-9.835938 9.835937-9.835938 5.433594 0 9.835937 4.40625 9.835937 9.835938zm0 0" fill="#e7e7e7"/><path d="m128.894531 197.125c0-29.6875-24.066406-53.753906-53.75-53.753906h-70.871093c-2.40625 0-3.789063-2.757813-2.328126-4.671875 14.660157-19.261719 37.816407-31.699219 63.890626-31.699219h18.613281c44.335937 0 80.28125 35.941406 80.28125 80.28125v32.539062c0 1.609376-1.304688 2.910157-2.914063 2.910157h-20.296875c-6.972656 0-12.625-5.652344-12.625-12.621094zm0 0" fill="#ff6930"/><path d="m84.449219 107h-18.613281c-.898438 0-1.789063.019531-2.679688.046875 43.472656.996094 78.410156 36.523437 78.410156 80.230469v32.539062c0 1.285156-.832031 2.363282-1.988281 2.75.636719.097656 1.28125.164063 1.941406.164063h20.296875c1.609375 0 2.914063-1.304688 2.914063-2.914063v-32.539062c0-44.335938-35.945313-80.277344-80.28125-80.277344zm0 0" fill="#ff5426"/><path d="m413.210938 108.429688h18.613281c43.046875 0 78.167969 33.886718 80.171875 76.4375.078125 1.667968-1.246094 3.066406-2.917969 3.066406h-24.402344c-5.28125 0-9.980469-3.296875-11.832031-8.242188-7.636719-20.378906-27.28125-34.890625-50.328125-34.890625-17.554687 0-33.132813 8.421875-42.941406 21.4375-1.503907 1.992188-4.335938 2.386719-6.335938.894531l-24.644531-18.394531c-1.957031-1.460937-2.441406-4.222656-1.03125-6.21875 14.53125-20.617187 38.507812-34.089843 65.648438-34.089843zm0 0" fill="#ff6930"/><path d="m431.824219 108.429688h-18.613281c-.898438 0-1.789063.015624-2.679688.042968 42.1875.96875 76.328125 34.460938 78.304688 76.394532.078124 1.667968-1.246094 3.066406-2.917969 3.066406h23.164062c1.667969 0 2.992188-1.398438 2.914063-3.066406-2.003906-42.550782-37.125-76.4375-80.171875-76.4375zm0 0" fill="#ff5426"/><path d="m160.183594 19.335938c3.117187 10.085937-1.074219 22.164062-12.601563 26.859374l-18.253906 7.4375v8.875c0 3.058594 3.101563 5.140626 5.933594 3.984376l21.179687-8.628907c16.792969-6.839843 18.03125-29.347656 3.742188-38.527343zm0 0" fill="#bfbfbf"/><path d="m253.347656 45.679688c-2.015625 0-4.058594-.496094-5.945312-1.546876l-26.832032-14.90625c-5.921874-3.289062-8.054687-10.757812-4.765624-16.679687 3.292968-5.921875 10.757812-8.054687 16.683593-4.765625l26.828125 14.90625c5.921875 3.289062 8.054688 10.757812 4.765625 16.679688-2.242187 4.035156-6.421875 6.3125-10.734375 6.3125zm0 0" fill="#9c9c9c"/><path d="m259.316406 22.6875-5.421875-3.015625c.492188 2.699219.089844 5.578125-1.34375 8.164063-2.242187 4.035156-6.425781 6.308593-10.734375 6.308593-2.015625 0-4.058594-.496093-5.949218-1.542969l-21.402344-11.894531c.636718 3.484375 2.769531 6.664063 6.105468 8.519531l26.832032 14.90625c1.886718 1.050782 3.929687 1.546876 5.945312 1.546876 4.3125 0 8.492188-2.277344 10.734375-6.3125 3.289063-5.921876 1.15625-13.390626-4.765625-16.679688zm0 0" fill="#838383"/><path d="m157.523438 57.425781-22.390626 9.121094c-2.773437 1.128906-5.804687-.910156-5.804687-3.902344v-50.042969c0-2.992187 3.03125-5.027343 5.804687-3.902343l22.390626 9.125c17.75 7.234375 17.75 32.367187 0 39.601562zm0 0" fill="#cecece"/><path d="m158.226562 18.207031c3.808594 10.292969-.261718 23.117188-12.222656 27.988281l-16.675781 6.792969v9.519531c0 3.058594 3.101563 5.140626 5.933594 3.984376l21.179687-8.628907c17.527344-7.140625 18.121094-31.351562 1.785156-39.65625zm0 0" fill="#bfbfbf"/><path d="m160.183594 19.335938c3.117187 10.085937-1.074219 22.164062-12.601563 26.859374l-18.253906 7.4375v8.875c0 3.058594 3.101563 5.140626 5.933594 3.984376l21.179687-8.628907c16.792969-6.839843 18.03125-29.347656 3.742188-38.527343zm0 0" fill="#bfbfbf"/><path d="m75.347656 203.855469c-1.398437 0-2.8125-.378907-4.082031-1.179688-3.582031-2.257812-4.65625-6.992187-2.398437-10.574219l113.347656-179.949218c7.058594-11.628906 21.882812-15.5625 33.78125-8.945313l34.269531 19.035157c3.703125 2.058593 5.035156 6.726562 2.980469 10.425781-2.058594 3.703125-6.722656 5.035156-10.425782 2.980469l-34.269531-19.039063c-4.667969-2.59375-10.488281-1.042969-13.25 3.53125-.023437.042969-.050781.085937-.078125.128906l-113.382812 180.003907c-1.457032 2.3125-3.949219 3.582031-6.492188 3.582031zm0 0" fill="#5a5a5a"/><path d="m253.347656 45.679688c-2.015625 0-4.058594-.496094-5.945312-1.546876l-26.832032-14.90625c-5.921874-3.289062-8.054687-10.757812-4.765624-16.679687 3.292968-5.921875 10.757812-8.054687 16.683593-4.765625l26.828125 14.90625c5.921875 3.289062 8.054688 10.757812 4.765625 16.679688-2.242187 4.035156-6.421875 6.3125-10.734375 6.3125zm0 0" fill="#9c9c9c"/><path d="m259.316406 22.6875-5.421875-3.015625c.492188 2.699219.089844 5.578125-1.34375 8.164063-2.242187 4.035156-6.425781 6.308593-10.734375 6.308593-2.015625 0-4.058594-.496093-5.949218-1.542969l-21.402344-11.894531c.636718 3.484375 2.769531 6.664063 6.105468 8.519531l26.832032 14.90625c1.886718 1.050782 3.929687 1.546876 5.945312 1.546876 4.3125 0 8.492188-2.277344 10.734375-6.3125 3.289063-5.921876 1.15625-13.390626-4.765625-16.679688zm0 0" fill="#838383"/><path d="m157.523438 57.425781-22.390626 9.121094c-2.773437 1.128906-5.804687-.910156-5.804687-3.902344v-50.042969c0-2.992187 3.03125-5.027343 5.804687-3.902343l22.390626 9.125c17.75 7.234375 17.75 32.367187 0 39.601562zm0 0" fill="#cecece"/><path d="m157.523438 17.824219-2.070313-.839844c5.632813 10.40625 2.058594 24.898437-10.726563 30.109375l-15.398437 6.269531v9.285157c0 2.988281 3.03125 5.027343 5.804687 3.898437l22.390626-9.121094c17.75-7.234375 17.75-32.367187 0-39.601562zm0 0" fill="#bfbfbf"/></svg>