<?xml version="1.0" encoding="iso-8859-1"?>
<!-- Generator: Adobe Illustrator 19.0.0, SVG Export Plug-In . SVG Version: 6.00 Build 0)  -->
<svg version="1.1" id="Capa_1" xmlns="http://www.w3.org/2000/svg" xmlns:xlink="http://www.w3.org/1999/xlink" x="0px" y="0px"
	 viewBox="0 0 512 512" style="enable-background:new 0 0 512 512;" xml:space="preserve">
<path style="fill:#4F5F5F;" d="M296.117,0h-21.813H233.35h-21.813c-24.078,0-40.256,14.09-40.256,35.06v4.119
	c0,4.305,3.49,7.794,7.794,7.794s7.794-3.49,7.794-7.794V35.06c0-4.567,1.779-19.471,24.668-19.471h14.018V33.23
	c0,12.34,9.639,22.465,21.782,23.257v16.942c0,4.305,3.49,7.794,7.794,7.794s7.794-3.49,7.794-7.794V56.167
	c10.885-1.96,19.173-11.496,19.173-22.938v-17.64h14.018c13.602,0,24.668,11.066,24.668,24.668v4.12c0,4.305,3.49,7.794,7.794,7.794
	s7.794-3.49,7.794-7.794v-4.119C336.374,18.059,318.315,0,296.117,0z M266.51,33.23c0,4.26-3.465,7.725-7.725,7.725h-9.917
	c-4.26,0-7.725-3.465-7.725-7.725V15.589h25.366V33.23z"/>
<polygon style="fill:#798989;" points="510.616,512 1.384,509.922 83.423,429.867 121.604,392.6 389.367,393.681 425.117,428.559 
	"/>
<path style="fill:#6C7A7A;" d="M425.117,428.559c-9.135,13.936-24.89,23.144-42.807,23.144H125.335
	c-17.335,0-32.664-8.626-41.913-21.835l38.182-37.267l267.762,1.081L425.117,428.559z"/>
<polygon style="fill:#4F5F5F;" points="441.038,512 70.952,509.922 89.128,485.52 112.854,453.656 143.553,412.439 367.449,413.187 
	397.587,453.656 421.313,485.52 "/>
<path style="fill:#F2B400;" d="M353.039,428.95H154.615c-28.252,0-51.154-22.903-51.154-51.154V124.583
	c0-28.252,22.903-51.154,51.154-51.154H353.04c28.252,0,51.154,22.903,51.154,51.154v253.212
	C404.194,406.047,381.291,428.95,353.039,428.95z"/>
<path style="fill:#D39702;" d="M131.519,377.796V124.584c0-28.252,22.903-51.154,51.154-51.154h-28.059
	c-28.252,0-51.154,22.902-51.154,51.154v253.212c0,28.252,22.903,51.154,51.154,51.154h28.059
	C154.422,428.95,131.519,406.047,131.519,377.796z"/>
<polyline style="fill:#A0D9F2;" points="285.002,142.023 372.299,142.023 372.299,291.674 135.361,291.674 135.361,142.023 
	222.647,142.023 "/>
<path style="fill:#D39702;" d="M372.299,299.469H135.361c-4.305,0-7.794-3.49-7.794-7.794V142.023c0-4.305,3.49-7.794,7.794-7.794
	h87.286v15.589h-79.492V283.88h221.349V149.817h-79.502v-15.589h87.297c4.305,0,7.794,3.49,7.794,7.794v149.652
	C380.094,295.979,376.604,299.469,372.299,299.469z"/>
<circle style="fill:#FFFFFF;" cx="253.826" cy="142.024" r="31.176"/>
<path style="fill:#4F5F5F;" d="M253.827,180.995c-21.489,0-38.971-17.482-38.971-38.971s17.482-38.971,38.971-38.971
	s38.971,17.482,38.971,38.971S275.315,180.995,253.827,180.995z M253.827,118.644c-12.893,0-23.382,10.489-23.382,23.382
	c0,12.893,10.489,23.382,23.382,23.382c12.893,0,23.382-10.489,23.382-23.382S266.72,118.644,253.827,118.644z"/>
<path style="fill:#EAEAEA;" d="M186.706,351.944h-41.66c-5.349,0-9.686-4.337-9.686-9.686v-11.8c0-5.349,4.337-9.686,9.686-9.686
	h41.66c5.349,0,9.686,4.337,9.686,9.686v11.8C196.392,347.608,192.055,351.944,186.706,351.944z"/>
<path style="fill:#2F2F37;" d="M280.646,386.756h-53.639c-12.307,0-22.283,9.977-22.283,22.283v19.91h98.204v-19.91
	C302.929,396.733,292.953,386.756,280.646,386.756z"/>
<path style="fill:#EAEAEA;" d="M372.302,330.463v11.795c0,5.352-4.344,9.686-9.686,9.686h-41.663c-5.352,0-9.686-4.334-9.686-9.686
	v-11.795c0-5.352,4.334-9.686,9.686-9.686h41.663C367.958,320.778,372.302,325.111,372.302,330.463z"/>
<g>
	<path style="fill:#FFFFFF;" d="M372.302,330.463v11.795c0,5.352-4.344,9.686-9.686,9.686h-23.518c-5.352,0-9.686-4.334-9.686-9.686
		v-11.795c0-5.352,4.334-9.686,9.686-9.686h23.518C367.958,320.778,372.302,325.111,372.302,330.463z"/>
	<path style="fill:#FFFFFF;" d="M196.392,330.463v11.795c0,5.352-4.344,9.686-9.686,9.686h-23.518c-5.352,0-9.686-4.334-9.686-9.686
		v-11.795c0-5.352,4.334-9.686,9.686-9.686h23.518C192.048,320.778,196.392,325.111,196.392,330.463z"/>
</g>
<polygon style="fill:#2F2F37;" points="421.313,485.52 89.128,485.52 112.854,453.656 397.587,453.656 "/>
<g>
</g>
<g>
</g>
<g>
</g>
<g>
</g>
<g>
</g>
<g>
</g>
<g>
</g>
<g>
</g>
<g>
</g>
<g>
</g>
<g>
</g>
<g>
</g>
<g>
</g>
<g>
</g>
<g>
</g>
</svg>
