<svg height="512pt" viewBox="-74 0 512 512" width="512pt" xmlns="http://www.w3.org/2000/svg"><path d="m253.371094 0h-144.023438c-12.660156 0-22.957031 10.296875-22.957031 22.953125v5.808594c0 4.199219 3.402344 7.601562 7.597656 7.601562 4.199219 0 7.601563-3.402343 7.601563-7.601562v-5.808594c0-4.273437 3.480468-7.753906 7.757812-7.753906h4.480469s58.582031 67.242187 59.929687 68.046875v64.1875c0 4.199218 3.402344 7.601562 7.601563 7.601562 4.195313 0 7.597656-3.402344 7.597656-7.601562v-64.105469c1.402344-.820313 60.066407-68.128906 60.066407-68.128906h4.347656c4.277344 0 7.757812 3.480469 7.757812 7.753906v5.808594c0 4.199219 3.398438 7.601562 7.597656 7.601562 4.195313 0 7.597657-3.402343 7.597657-7.601562v-5.808594c0-12.65625-10.296875-22.953125-22.953125-22.953125zm-71.945313 70.039062-45.886719-52.988281h91.777344zm0 0" fill="#5a5a5a"/><path d="m87.332031 512c-7.386719 0-13.371093-5.988281-13.371093-13.371094v-20.941406c0-7.386719 5.984374-13.375 13.371093-13.375s13.371094 5.988281 13.371094 13.375v20.941406c0 7.382813-5.984375 13.371094-13.371094 13.371094zm0 0" fill="#9c9c9c"/><path d="m87.332031 464.3125c-2.089843 0-4.0625.496094-5.824219 1.351562 4.460938 2.167969 7.546876 6.730469 7.546876 12.023438v20.941406c0 5.292969-3.085938 9.855469-7.546876 12.019532 1.761719.859374 3.730469 1.351562 5.824219 1.351562 7.386719 0 13.371094-5.988281 13.371094-13.371094v-20.941406c0-7.386719-5.984375-13.375-13.371094-13.375zm0 0" fill="#838383"/><path d="m275.382812 512c-7.386718 0-13.371093-5.988281-13.371093-13.371094v-20.941406c0-7.386719 5.984375-13.375 13.371093-13.375 7.386719 0 13.375 5.988281 13.375 13.375v20.941406c0 7.382813-5.988281 13.371094-13.375 13.371094zm0 0" fill="#9c9c9c"/><path d="m275.382812 464.3125c-2.089843 0-4.0625.496094-5.824218 1.351562 4.460937 2.167969 7.546875 6.730469 7.546875 12.023438v20.941406c0 5.292969-3.085938 9.855469-7.546875 12.019532 1.761718.859374 3.734375 1.351562 5.824218 1.351562 7.386719 0 13.375-5.988281 13.375-13.371094v-20.941406c0-7.386719-5.988281-13.375-13.375-13.375zm0 0" fill="#838383"/><path d="m340.605469 319.253906h14.046875c4.792968 0 8.679687-3.886718 8.679687-8.679687v-48.863281c0-4.796876-3.886719-8.683594-8.679687-8.683594h-14.046875c-4.792969 0-8.679688 3.886718-8.679688 8.683594v48.863281c-.003906 4.792969 3.882813 8.679687 8.679688 8.679687zm0 0" fill="#9c9c9c"/><path d="m354.535156 253.027344h-12.664062c4.859375 0 8.796875 3.941406 8.796875 8.796875v48.636719c0 4.855468-3.9375 8.796874-8.796875 8.796874h12.664062c4.859375 0 8.796875-3.941406 8.796875-8.796874v-48.636719c0-4.859375-3.9375-8.796875-8.796875-8.796875zm0 0" fill="#838383"/><path d="m347.628906 264.863281c-4.199218 0-7.601562-3.402343-7.601562-7.601562v-19.265625c0-4.613282-.847656-9.132813-2.523438-13.433594l-14.394531-36.914062c-2.109375-5.410157-7.222656-8.902344-13.027344-8.902344h-32.871093c-4.195313 0-7.597657-3.402344-7.597657-7.601563 0-4.195312 3.402344-7.597656 7.597657-7.597656h32.871093c12.113281 0 22.785157 7.292969 27.1875 18.582031l14.390625 36.910156c2.367188 6.066407 3.566406 12.445313 3.566406 18.957032v19.265625c0 4.199219-3.402343 7.601562-7.597656 7.601562zm0 0" fill="#ff6930"/><path d="m265.761719 140.753906h-168.808594c-4.933594 0-9.378906 2.980469-11.25 7.546875l-30.027344 73.261719c-3.101562 7.574219-4.699219 15.679688-4.699219 23.867188v223.488281c0 10.398437 8.429688 18.828125 18.832032 18.828125h223.101562c10.398438 0 18.828125-8.429688 18.828125-18.828125v-223.488281c0-8.1875-1.59375-16.292969-4.699219-23.867188l-30.027343-73.261719c-1.871094-4.566406-6.316407-7.546875-11.25-7.546875zm0 0" fill="#ff6930"/><path d="m232.675781 208.132812h-97.566406c-6.351563 0-11.5-5.148437-11.5-11.5v-13.988281c0-6.347656 5.148437-11.5 11.5-11.5h97.566406c6.351563 0 11.5 5.152344 11.5 11.5v13.988281c0 6.351563-5.148437 11.5-11.5 11.5zm0 0" fill="#5a5a5a"/><path d="m232.523438 171.148438h-29.292969c6.433593 0 11.652343 5.214843 11.652343 11.648437v13.6875c0 6.433594-5.21875 11.648437-11.652343 11.648437h29.292969c6.433593 0 11.652343-5.214843 11.652343-11.648437v-13.6875c0-6.433594-5.21875-11.648437-11.652343-11.648437zm0 0" fill="#444"/><path d="m307.039062 221.5625-30.027343-73.261719c-1.871094-4.566406-6.316407-7.546875-11.25-7.546875h-25.96875l22.667969 55.308594c3.105468 7.574219 4.703124 15.679688 4.703124 23.863281v223.488281c0 10.398438-8.433593 18.832032-18.832031 18.832032h-197.355469v6.671875c0 10.398437 8.429688 18.828125 18.832032 18.828125h223.101562c10.398438 0 18.832032-8.429688 18.832032-18.828125v-223.488281c-.003907-8.1875-1.597657-16.292969-4.703126-23.867188zm0 0" fill="#ff5426"/><path d="m208.292969 449.769531h-53.871094c-4.953125 0-8.96875-4.015625-8.96875-8.96875v-22.589843c0-4.953126 4.015625-8.96875 8.96875-8.96875h53.871094c4.953125 0 8.96875 4.015624 8.96875 8.96875v22.589843c0 4.953125-4.015625 8.96875-8.96875 8.96875zm0 0" fill="#9c9c9c"/><path d="m208.175781 409.242188h-14.777343c5.015624 0 9.085937 4.066406 9.085937 9.085937v22.355469c0 5.015625-4.070313 9.085937-9.085937 9.085937h14.777343c5.015625 0 9.085938-4.070312 9.085938-9.085937v-22.355469c0-5.019531-4.070313-9.085937-9.085938-9.085937zm0 0" fill="#838383"/><path d="m176.714844 429.503906c0 5.597656-4.539063 10.132813-10.132813 10.132813-5.597656 0-10.132812-4.535157-10.132812-10.132813 0-5.59375 4.535156-10.132812 10.132812-10.132812 5.59375 0 10.132813 4.539062 10.132813 10.132812zm0 0" fill="#e7e7e7"/><path d="m206.265625 429.503906c0 5.597656-4.535156 10.132813-10.128906 10.132813-5.597657 0-10.132813-4.535157-10.132813-10.132813 0-5.59375 4.535156-10.132812 10.132813-10.132812 5.59375 0 10.128906 4.539062 10.128906 10.132812zm0 0" fill="#e7e7e7"/><path d="m22.726562 319.253906h-14.046874c-4.792969 0-8.679688-3.886718-8.679688-8.679687v-48.863281c0-4.796876 3.886719-8.683594 8.679688-8.683594h14.046874c4.792969 0 8.679688 3.886718 8.679688 8.683594v48.863281c.003906 4.792969-3.882812 8.679687-8.679688 8.679687zm0 0" fill="#9c9c9c"/><path d="m22.613281 253.027344h-13.816406c-.035156 0-.070313.007812-.109375.007812 4.808594.058594 8.691406 3.96875 8.691406 8.789063v48.636719c0 4.820312-3.882812 8.730468-8.691406 8.789062.039062 0 .074219.003906.109375.003906h13.816406c4.859375 0 8.796875-3.9375 8.796875-8.796875v-48.632812c0-4.859375-3.9375-8.796875-8.796875-8.796875zm0 0" fill="#838383"/><path d="m15.703125 264.863281c-4.195313 0-7.597656-3.402343-7.597656-7.601562v-19.265625c0-6.511719 1.199219-12.890625 3.566406-18.957032l14.390625-36.910156c4.402344-11.289062 15.074219-18.582031 27.1875-18.582031h32.867188c4.199218 0 7.601562 3.402344 7.601562 7.601563 0 4.195312-3.402344 7.597656-7.601562 7.597656h-32.867188c-5.804688 0-10.917969 3.496094-13.027344 8.902344l-14.394531 36.914062c-1.675781 4.300781-2.527344 8.820312-2.527344 13.4375v19.265625c.003907 4.195313-3.398437 7.597656-7.597656 7.597656zm0 0" fill="#ff6930"/><path d="m50.976562 263.34375h260.761719v104.359375h-260.761719zm0 0" fill="#d5f3f7"/><path d="m267.164062 263.34375v72.09375c0 6.070312-4.921874 10.988281-10.988281 10.988281h-205.199219v21.277344h260.761719v-104.359375zm0 0" fill="#a7e8f1"/><path d="m104.863281 263.34375h15.199219v104.359375h-15.199219zm0 0" fill="#ff6930"/><path d="m242.65625 263.34375h15.195312v104.359375h-15.195312zm0 0" fill="#ff6930"/><g fill="#9c9c9c"><path d="m187.515625 367.703125h22.628906l-59.894531-59.894531c-3.125-3.121094-8.1875-3.121094-11.3125 0-3.125 3.125-3.125 8.1875 0 11.3125zm0 0"/><path d="m218.707031 367.703125h22.628907l-59.894532-59.894531c-3.121094-3.121094-8.1875-3.121094-11.3125 0-3.125 3.125-3.125 8.1875 0 11.3125zm0 0"/></g></svg>