<svg width="16" height="18" viewBox="0 0 16 18" fill="none" xmlns="http://www.w3.org/2000/svg">
<path d="M5.81511 12.5556H1.37067V17M9.37067 5.44444H13.8151V1M1 6.336C1.49848 5.10262 2.33295 4.0338 3.40856 3.25099C4.48417 2.46819 5.7578 2.0028 7.0847 1.90771C8.4116 1.81262 9.73858 2.09165 10.9148 2.71307C12.0911 3.3345 13.0694 4.27341 13.7387 5.42311M14.1867 11.664C13.6883 12.8976 12.8538 13.9667 11.7781 14.7496C10.7024 15.5326 9.42864 15.9981 8.10157 16.0932C6.77449 16.1883 5.44735 15.9092 4.27101 15.2876C3.09466 14.666 2.11629 13.7268 1.44711 12.5769" stroke="#FFEBD2" stroke-width="2" stroke-linecap="round" stroke-linejoin="round"/>
</svg>
