<svg width="32" height="32" viewBox="0 0 32 32" fill="none" xmlns="http://www.w3.org/2000/svg">
<path d="M15.4634 0.409175C15.6323 -0.136393 16.3677 -0.136391 16.5366 0.409177L19.9269 11.3603C20.0024 11.6043 20.2191 11.7695 20.4635 11.7695H31.4347C31.9813 11.7695 32.2085 12.5036 31.7663 12.8408L22.8904 19.6089C22.6927 19.7597 22.6099 20.027 22.6855 20.271L26.0758 31.2222C26.2447 31.7677 25.6497 32.2214 25.2075 31.8842L16.3316 25.116C16.1339 24.9652 15.8661 24.9652 15.6684 25.116L6.79247 31.8842C6.35028 32.2214 5.75533 31.7677 5.92423 31.2222L9.31452 20.271C9.39005 20.027 9.30731 19.7597 9.10956 19.6089L0.233659 12.8407C-0.208524 12.5036 0.018729 11.7695 0.565296 11.7695H11.5365C11.7809 11.7695 11.9976 11.6043 12.0731 11.3603L15.4634 0.409175Z" fill="white"/>
<path d="M15.4634 0.409175C15.6323 -0.136393 16.3677 -0.136391 16.5366 0.409177L19.9269 11.3603C20.0024 11.6043 20.2191 11.7695 20.4635 11.7695H31.4347C31.9813 11.7695 32.2085 12.5036 31.7663 12.8408L22.8904 19.6089C22.6927 19.7597 22.6099 20.027 22.6855 20.271L26.0758 31.2222C26.2447 31.7677 25.6497 32.2214 25.2075 31.8842L16.3316 25.116C16.1339 24.9652 15.8661 24.9652 15.6684 25.116L6.79247 31.8842C6.35028 32.2214 5.75533 31.7677 5.92423 31.2222L9.31452 20.271C9.39005 20.027 9.30731 19.7597 9.10956 19.6089L0.233659 12.8407C-0.208524 12.5036 0.018729 11.7695 0.565296 11.7695H11.5365C11.7809 11.7695 11.9976 11.6043 12.0731 11.3603L15.4634 0.409175Z" fill="url(#paint0_radial_2700_11771)"/>
<defs>
<radialGradient id="paint0_radial_2700_11771" cx="0" cy="0" r="1" gradientTransform="matrix(7.62238 20 -20 8.39632 17.1355 17.8333)" gradientUnits="userSpaceOnUse">
<stop stop-color="#FFF3D3"/>
<stop offset="0.0913462" stop-color="#FFEEC1"/>
<stop offset="0.71875" stop-color="#B5A26F"/>
<stop offset="1" stop-color="#B5A26F"/>
</radialGradient>
</defs>
</svg>
