<svg width="24" height="23" viewBox="0 0 24 23" fill="none" xmlns="http://www.w3.org/2000/svg">
<path d="M11.8088 1.1401C11.8687 0.955836 12.1294 0.955836 12.1892 1.1401L14.6483 8.70829C14.6751 8.79069 14.7519 8.84648 14.8385 8.84648H22.7962C22.9899 8.84648 23.0705 9.09441 22.9137 9.20829L16.4758 13.8857C16.4057 13.9366 16.3764 14.0269 16.4032 14.1093L18.8622 21.6775C18.9221 21.8617 18.7112 22.015 18.5545 21.9011L12.1166 17.2237C12.0465 17.1728 11.9516 17.1728 11.8815 17.2237L5.44358 21.9011C5.28684 22.015 5.07594 21.8617 5.13581 21.6775L7.59487 14.1093C7.62164 14.0269 7.59231 13.9366 7.52221 13.8857L1.08433 9.20829C0.927583 9.09441 1.00814 8.84648 1.20188 8.84648H9.15955C9.24619 8.84648 9.32298 8.79069 9.34976 8.70829L11.8088 1.1401Z" fill="black" fill-opacity="0.2"/>
<path d="M11.333 0.985352C11.5295 0.380979 12.3434 0.34337 12.6172 0.87207L12.665 0.985352L15.0566 8.34668H22.7959C23.474 8.34668 23.7566 9.21469 23.208 9.61328L16.9453 14.1611L19.3379 21.5234C19.5469 22.1681 18.8092 22.704 18.2607 22.3057L11.999 17.7559L5.7373 22.3057C5.18885 22.704 4.45113 22.1681 4.66016 21.5234L7.05176 14.1611L0.790039 9.61328C0.241477 9.21469 0.524051 8.34668 1.20215 8.34668H8.94141L11.333 0.985352Z" stroke="black" stroke-opacity="0.8"/>
</svg>
