<svg width="42" height="41" viewBox="0 0 42 41" fill="none" xmlns="http://www.w3.org/2000/svg">
<g filter="url(#filter0_d_2705_11791)">
<path d="M18.51 6.8901C18.5699 6.70584 18.8305 6.70584 18.8904 6.8901L21.574 15.1493C21.6007 15.2317 21.6775 15.2875 21.7642 15.2875H30.4484C30.6421 15.2875 30.7227 15.5354 30.566 15.6493L23.5403 20.7537C23.4702 20.8046 23.4408 20.8949 23.4676 20.9773L26.1512 29.2365C26.2111 29.4208 26.0002 29.574 25.8434 29.4601L18.8178 24.3557C18.7477 24.3047 18.6527 24.3047 18.5826 24.3557L11.557 29.4601C11.4002 29.574 11.1893 29.4208 11.2492 29.2365L13.9328 20.9773C13.9595 20.8949 13.9302 20.8046 13.8601 20.7537L6.83444 15.6493C6.6777 15.5354 6.75825 15.2875 6.952 15.2875H15.6362C15.7228 15.2875 15.7996 15.2317 15.8264 15.1493L18.51 6.8901Z" fill="black" fill-opacity="0.2"/>
<path d="M18.51 6.8901C18.5699 6.70584 18.8305 6.70584 18.8904 6.8901L21.574 15.1493C21.6007 15.2317 21.6775 15.2875 21.7642 15.2875H30.4484C30.6421 15.2875 30.7227 15.5354 30.566 15.6493L23.5403 20.7537C23.4702 20.8046 23.4408 20.8949 23.4676 20.9773L26.1512 29.2365C26.2111 29.4208 26.0002 29.574 25.8434 29.4601L18.8178 24.3557C18.7477 24.3047 18.6527 24.3047 18.5826 24.3557L11.557 29.4601C11.4002 29.574 11.1893 29.4208 11.2492 29.2365L13.9328 20.9773C13.9595 20.8949 13.9302 20.8046 13.8601 20.7537L6.83444 15.6493C6.6777 15.5354 6.75825 15.2875 6.952 15.2875H15.6362C15.7228 15.2875 15.7996 15.2317 15.8264 15.1493L18.51 6.8901Z" fill="url(#paint0_radial_2705_11791)" fill-opacity="0.5"/>
<path d="M18.51 6.8901C18.5699 6.70584 18.8305 6.70584 18.8904 6.8901L21.574 15.1493C21.6007 15.2317 21.6775 15.2875 21.7642 15.2875H30.4484C30.6421 15.2875 30.7227 15.5354 30.566 15.6493L23.5403 20.7537C23.4702 20.8046 23.4408 20.8949 23.4676 20.9773L26.1512 29.2365C26.2111 29.4208 26.0002 29.574 25.8434 29.4601L18.8178 24.3557C18.7477 24.3047 18.6527 24.3047 18.5826 24.3557L11.557 29.4601C11.4002 29.574 11.1893 29.4208 11.2492 29.2365L13.9328 20.9773C13.9595 20.8949 13.9302 20.8046 13.8601 20.7537L6.83444 15.6493C6.6777 15.5354 6.75825 15.2875 6.952 15.2875H15.6362C15.7228 15.2875 15.7996 15.2317 15.8264 15.1493L18.51 6.8901Z" fill="#E9911D"/>
<path d="M18.51 6.8901C18.5699 6.70584 18.8305 6.70584 18.8904 6.8901L21.574 15.1493C21.6007 15.2317 21.6775 15.2875 21.7642 15.2875H30.4484C30.6421 15.2875 30.7227 15.5354 30.566 15.6493L23.5403 20.7537C23.4702 20.8046 23.4408 20.8949 23.4676 20.9773L26.1512 29.2365C26.2111 29.4208 26.0002 29.574 25.8434 29.4601L18.8178 24.3557C18.7477 24.3047 18.6527 24.3047 18.5826 24.3557L11.557 29.4601C11.4002 29.574 11.1893 29.4208 11.2492 29.2365L13.9328 20.9773C13.9595 20.8949 13.9302 20.8046 13.8601 20.7537L6.83444 15.6493C6.6777 15.5354 6.75825 15.2875 6.952 15.2875H15.6362C15.7228 15.2875 15.7996 15.2317 15.8264 15.1493L18.51 6.8901Z" fill="#A16920"/>
<path d="M18.51 6.8901C18.5699 6.70584 18.8305 6.70584 18.8904 6.8901L21.574 15.1493C21.6007 15.2317 21.6775 15.2875 21.7642 15.2875H30.4484C30.6421 15.2875 30.7227 15.5354 30.566 15.6493L23.5403 20.7537C23.4702 20.8046 23.4408 20.8949 23.4676 20.9773L26.1512 29.2365C26.2111 29.4208 26.0002 29.574 25.8434 29.4601L18.8178 24.3557C18.7477 24.3047 18.6527 24.3047 18.5826 24.3557L11.557 29.4601C11.4002 29.574 11.1893 29.4208 11.2492 29.2365L13.9328 20.9773C13.9595 20.8949 13.9302 20.8046 13.8601 20.7537L6.83444 15.6493C6.6777 15.5354 6.75825 15.2875 6.952 15.2875H15.6362C15.7228 15.2875 15.7996 15.2317 15.8264 15.1493L18.51 6.8901Z" stroke="#A16920" stroke-width="1.5"/>
</g>
<defs>
<filter id="filter0_d_2705_11791" x="0" y="0" width="41.4004" height="40.25" filterUnits="userSpaceOnUse" color-interpolation-filters="sRGB">
<feFlood flood-opacity="0" result="BackgroundImageFix"/>
<feColorMatrix in="SourceAlpha" type="matrix" values="0 0 0 0 0 0 0 0 0 0 0 0 0 0 0 0 0 0 127 0" result="hardAlpha"/>
<feOffset dx="2" dy="2"/>
<feGaussianBlur stdDeviation="4"/>
<feComposite in2="hardAlpha" operator="out"/>
<feColorMatrix type="matrix" values="0 0 0 0 0 0 0 0 0 0 0 0 0 0 0 0 0 0 0.25 0"/>
<feBlend mode="normal" in2="BackgroundImageFix" result="effect1_dropShadow_2705_11791"/>
<feBlend mode="normal" in="SourceGraphic" in2="effect1_dropShadow_2705_11791" result="shape"/>
</filter>
<radialGradient id="paint0_radial_2705_11791" cx="0" cy="0" r="1" gradientTransform="matrix(6.19319 16.25 -16.25 6.82201 19.6228 20.7943)" gradientUnits="userSpaceOnUse">
<stop stop-color="#FFF3D3"/>
<stop offset="0.0913462" stop-color="#FFEEC1"/>
<stop offset="0.71875" stop-color="#B5A26F"/>
<stop offset="1" stop-color="#B5A26F"/>
</radialGradient>
</defs>
</svg>
