<svg id="Capa_1" enable-background="new 0 0 511.971 511.971" height="512" viewBox="0 0 511.971 511.971" width="512" xmlns="http://www.w3.org/2000/svg"><g><path d="m255.985 11.818c-5.304 0-10.607 2.83-13.175 8.491l-64.118 141.363c-2.105 4.642-6.498 7.833-11.563 8.401l-154.258 17.297c-5.819.652-9.997 4.391-11.833 9.039l296.742 114.893z" fill="#ffe96d"/><path d="m97.794 497.018c4.317 3.385 10.491 4.387 16.081 1.211l134.964-76.678c4.432-2.518 9.861-2.518 14.292 0l134.964 76.678c5.59 3.176 11.764 2.175 16.081-1.211l-82.626-176.989-75.566-50.521-64.637 50.862z" fill="#ffe96d"/><g fill="#ffbf26"><path d="m510.932 196.41c-1.835-4.648-6.014-8.387-11.833-9.039l-154.258-17.297c-5.065-.568-9.457-3.759-11.563-8.401l-64.118-141.364c-2.568-5.661-7.871-8.491-13.175-8.491v257.689z"/><path d="m1.039 196.41c-2.061 5.22-1.166 11.587 3.69 16.021l114.631 104.663c3.764 3.437 5.442 8.6 4.417 13.593l-31.219 152.053c-1.207 5.879 1.206 11.117 5.236 14.277l158.191-227.51z"/><path d="m263.132 421.551 134.964 76.678c5.59 3.176 11.764 2.175 16.081-1.211l-82.626-176.989-75.566-50.521v150.154c2.466 0 4.931.63 7.147 1.889z"/></g><path d="m255.985 269.508 158.191 227.51c4.03-3.16 6.443-8.398 5.236-14.277l-31.218-152.053c-1.025-4.993.653-10.156 4.417-13.593l114.631-104.665c4.856-4.434 5.751-10.801 3.69-16.021z" fill="#ff9100"/></g></svg>