<svg id="Capa_1" enable-background="new 0 0 493.334 493.334" height="300" viewBox="0 0 493.334 493.334" width="300" xmlns="http://www.w3.org/2000/svg" version="1.1" xmlns:xlink="http://www.w3.org/1999/xlink" xmlns:svgjs="http://svgjs.dev/svgjs"><g width="100%" height="100%" transform="matrix(1,0,0,1,0,0)"><g><path d="m237.366 48.523v-1.857c0-16.397-6.233-32.182-17.437-44.154l-1.717-1.834c-.886-.947-2.403-.894-3.22.113l-9.418 11.594h-74.286c-26.546 0-48.066 21.52-48.066 48.066v4.908s-46.596 32.46-44.88 60.326l3.676 59.722 2.358 20.142h212.399l6.34-105.325z" fill="#c47142" fill-opacity="1" data-original-color="#b3adb5ff" stroke="none" stroke-opacity="1"/><path d="m33.35 426.535-18.094 31.9-.16-.01-.861 27.323c-.131 4.151 3.199 7.587 7.351 7.587h51.11l22.395-10.124v-56.675h-61.741z" fill="#e8c0a5" fill-opacity="1" data-original-color="#e8b2a5ff" stroke="none" stroke-opacity="1"/><path d="m55.265 447.806c.23-7.269 1.239-14.389 2.945-21.271h-24.86l-18.094 31.9-.16-.01-.861 27.323c-.131 4.151 3.198 7.587 7.351 7.587h32.243z" fill="#e0ad86" fill-opacity="1" data-original-color="#e0a090ff" stroke="none" stroke-opacity="1"/><path d="m72.696 466.357c0-4.376-3.547-7.923-7.923-7.923h-49.517l-.16-.01.83-26.29c1.26-39.81 25.63-75.23 62.36-90.64l41.91-17.59 21.79-7.81h25.55l19.66 3.77 97.73 13.36 59.09 22.66-10.11 56.62-48.98 80.83h-212.23z" fill="#64c4ab" fill-opacity="1" data-original-color="#cdf8e4ff" stroke="none" stroke-opacity="1"/><path d="m55.043 220.048c-10.872 0-19.686-8.814-19.686-19.686 0-10.872 8.814-19.686 19.686-19.686h42.566v39.648z" fill="#e0ad86" fill-opacity="1" data-original-color="#e0a090ff" stroke="none" stroke-opacity="1"/><path d="m187.196 319.864-19.66-3.77h-8.575-.845-16.13l-21.79 7.81-41.91 17.59c-36.73 15.41-61.1 50.83-62.36 90.64l-.83 26.29.16.01h39.674l.335-10.629c1.007-31.809 16.773-60.808 41.805-79.042 6.397-4.659 15.256-4.374 21.198.853 9.525 8.378 22.069 13.399 35.772 13.185 29.084-.454 52.157-24.771 52.157-53.859v-6.481z" fill="#458e7e" fill-opacity="1" data-original-color="#b1f5d5ff" stroke="none" stroke-opacity="1"/><path d="m186.198 329.809c0 18.225-14.774 32.999-32.999 32.999-18.225 0-32.999-14.774-32.999-32.999v-87.944h65.998z" fill="#e8c0a5" fill-opacity="1" data-original-color="#e8b2a5ff" stroke="none" stroke-opacity="1"/><path d="m120.199 326.909c10.557 3.837 21.904 5.945 33.685 5.945 11.271 0 22.147-1.925 32.314-5.451v-85.538h-65.998v85.044z" fill="#e0ad86" fill-opacity="1" data-original-color="#e0a090ff" stroke="none" stroke-opacity="1"/><path d="m233.378 219.272v7.118c0 5.779-.361 11.553-1.082 17.287-4.966 39.526-38.575 69.176-78.412 69.176-39.837 0-73.446-29.65-78.412-69.176l-9.103-72.451c-1.821-14.496 9.48-27.305 24.089-27.305h91.085c2.98 0 5.837-1.184 7.944-3.291l11.005-11.005c2.244-2.244 5.812-2.452 8.301-.484l15.567 12.303 9.016 9.886v67.942z" fill="#e8c0a5" fill-opacity="1" data-original-color="#e8b2a5ff" stroke="none" stroke-opacity="1"/><path d="m98.565 176.593h97.02c12.455 0 24.4-4.948 33.207-13.755l3.637-3.637c.297-.297.617-.56.948-.798v-7.073l-9.016-9.886-15.567-12.302c-2.489-1.967-6.058-1.759-8.301.485l-11.005 11.005c-2.107 2.107-4.965 3.291-7.945 3.291h-91.084c-14.61 0-25.91 12.809-24.089 27.305l3.503 27.878c3.129-12.783 14.65-22.513 28.692-22.513z" fill="#e0ad86" fill-opacity="1" data-original-color="#e0a090ff" stroke="none" stroke-opacity="1"/><path d="m478.246 458.424-14.084-18.893h-58.766v44.401l15.26 9.401h50.853c4.288 0 7.725-3.547 7.59-7.833z" fill="#e5b581" fill-opacity="1" data-original-color="#f8d3aaff" stroke="none" stroke-opacity="1"/><path d="m212.708 437.339-10.502 21.095-.16-.01-.834 26.468c-.146 4.619 3.559 8.442 8.18 8.442h50.254v-34.9-21.095z" fill="#e5b581" fill-opacity="1" data-original-color="#f8d3aaff" stroke="none" stroke-opacity="1"/><path d="m242.838 450.948c.146-4.604.614-9.146 1.361-13.609h-31.491l-10.502 21.095-.16-.01-.834 26.468c-.146 4.619 3.559 8.442 8.18 8.442h32.109z" fill="#bf8556" fill-opacity="1" data-original-color="#fabf8eff" stroke="none" stroke-opacity="1"/><path d="m420.656 469.152v24.182h-161.01v-24.509c0-5.739-4.652-10.391-10.391-10.391h-47.049l-.16-.01.83-26.29c1.26-39.81 25.63-75.23 62.35-90.64l41.92-17.59 24.79-7.81h20.75l20.46 7.81 41.92 17.59c2.45 1.03 4.85 2.15 7.19 3.36l29.41 17.26c3.46 2.03 6.16 5.16 7.66 8.89l12.63 31.35c3.24 9.45 5.13 19.46 5.46 29.78l.83 26.29-.16.01h-46.712c-5.919 0-10.718 4.799-10.718 10.718z" fill="#91a7fc" fill-opacity="1" data-original-color="#d9f2f6ff" stroke="none" stroke-opacity="1"/><path d="m234.524 134.994-8.917 18.609 3.119 30.471 4.65 25.5 25.22 3.63 2.422-28.592c-.809-6.441 2.692-17.946 4.53-23.972l8.108-4.761v-23.524z" fill="#5b3724" fill-opacity="1" data-original-color="#8f8390ff" stroke="none" stroke-opacity="1"/><path d="m241.992 220.048c-10.872 0-19.686-8.814-19.686-19.686 0-10.872 8.814-19.686 19.686-19.686h52.853v39.373h-52.853z" fill="#bf8556" fill-opacity="1" data-original-color="#fabf8eff" stroke="none" stroke-opacity="1"/><path d="m439.673 217.735c10.872 0 19.686-8.814 19.686-19.686 0-10.872-8.814-19.686-19.686-19.686h-69.524v39.373h69.524z" fill="#bf8556" fill-opacity="1" data-original-color="#fabf8eff" stroke="none" stroke-opacity="1"/><path d="m380.335 326.921-10.428-4.376-44.613 16.403v-20.761l-18.148 5.717-41.92 17.59c-36.72 15.41-61.09 50.83-62.35 90.64l-.83 26.29.16.01h40.396l.236-7.486c.904-28.558 13.703-54.852 34.421-73.123 9.693-8.549 23.927-9.909 34.881-3.051 8.128 5.089 17.728 8.034 28.008 8.034 28.398 0 51.646-22.453 52.937-50.538z" fill="#5b61bf" fill-opacity="1" data-original-color="#b3e5eeff" stroke="none" stroke-opacity="1"/><path d="m307.148 329.809c0 18.225 14.774 32.999 32.999 32.999 18.225 0 32.999-14.774 32.999-32.999v-92.171h-65.998z" fill="#e5b581" fill-opacity="1" data-original-color="#f8d3aaff" stroke="none" stroke-opacity="1"/><path d="m307.148 324.809c10.694 3.959 22.086 6.045 33.688 6.045 11.285 0 22.163-1.975 32.31-5.576v-87.64h-65.998z" fill="#bf8556" fill-opacity="1" data-original-color="#fabf8eff" stroke="none" stroke-opacity="1"/><path d="m331.063 94.818-66.488 16.942-7.352 36.6-2.232 33.392 3.97 31.56 3.83 30.47c2.48 19.77 12.12 37.06 26.12 49.41 14.01 12.36 32.37 19.77 52.29 19.77 39.83 0 73.44-29.65 78.41-69.18l7.19-57.22.7-6.91 5.532-57.984z" fill="#e5b581" fill-opacity="1" data-original-color="#f8d3aaff" stroke="none" stroke-opacity="1"/><path d="m286.673 160.495.293-.249c8.506-7.217 20.865-7.345 29.664-.489 31.051 24.196 68.432 39.809 107.664 44.639.034.004.327.037.362.041l18.049-82.888-111.795-26.799-66.488 16.942-7.766 45.899-1.818 24.094 3.97 31.56c-.861-6.852 22.602-48.284 27.865-52.75z" fill="#bf8556" fill-opacity="1" data-original-color="#fabf8eff" stroke="none" stroke-opacity="1"/><path d="m477.406 171.734-7.66-17.75c-5.99-13.87-9.65-28.62-10.84-43.67-2.32-29.17-15.64-54.99-35.7-73.52-20.07-18.54-46.86-29.78-76.12-29.78h-31.16c-56.35 0-100.33 48.72-94.6 104.77l4.281 41.819c9.482 2.849 20.806 6.239 30.654 9.15v.001c2.5-8.196 7.295-15.648 14.026-21.359l29.65-25.16c1.86-1.58 4.63-1.46 6.35.27l7.27 7.33c30.7 30.94 70.77 50.44 113.58 55.71 7.8.96 15.69 1.45 23.63 1.45h20.55c4.769-.001 7.989-4.881 6.089-9.261z" fill="#5b3724" fill-opacity="1" data-original-color="#8f8390ff" stroke="none" stroke-opacity="1"/><g><path d="m475.066 376.362c-7.74-11.626-16.976-21.91-27.705-30.851-7.691-6.409-18.922-6.209-26.37.479l-2.877 2.584c-11.866 10.656-12.848 28.914-2.191 40.781l12.184 13.568c10.656 11.866 28.914 12.847 40.78 2.191l2.878-2.584c7.447-6.69 8.849-17.835 3.301-26.168z" fill="#e8c0a5" fill-opacity="1" data-original-color="#e8b2a5ff" stroke="none" stroke-opacity="1"/><g><path d="m340.147 288.265c-10.735 0-21.471-3.846-30.031-11.537-3.081-2.769-3.334-7.511-.566-10.592 2.769-3.081 7.511-3.334 10.591-.566 11.405 10.248 28.605 10.248 40.011 0 3.08-2.769 7.823-2.516 10.591.566 2.769 3.081 2.515 7.823-.566 10.592-8.559 7.691-19.294 11.537-30.03 11.537z" fill="#c9706a" fill-opacity="1" data-original-color="#ea9a98ff" stroke="none" stroke-opacity="1"/></g><g><path d="m303.175 205.548c-4.142 0-7.5-3.357-7.5-7.5v-4.627c0-4.143 3.358-7.5 7.5-7.5s7.5 3.357 7.5 7.5v4.627c0 4.143-3.358 7.5-7.5 7.5z" fill="#5b3724" fill-opacity="1" data-original-color="#8f8390ff" stroke="none" stroke-opacity="1"/></g><g><path d="m378.491 205.548c-4.142 0-7.5-3.357-7.5-7.5v-4.627c0-4.143 3.358-7.5 7.5-7.5s7.5 3.357 7.5 7.5v4.627c0 4.143-3.358 7.5-7.5 7.5z" fill="#5b3724" fill-opacity="1" data-original-color="#8f8390ff" stroke="none" stroke-opacity="1"/></g><g><path d="m153.199 288.265c-10.735 0-21.471-3.846-30.031-11.537-3.081-2.769-3.334-7.511-.566-10.592s7.511-3.334 10.591-.566c11.405 10.248 28.605 10.248 40.011 0 3.08-2.769 7.823-2.516 10.591.566 2.769 3.081 2.515 7.823-.566 10.592-8.559 7.691-19.295 11.537-30.03 11.537z" fill="#c9706a" fill-opacity="1" data-original-color="#ea9a98ff" stroke="none" stroke-opacity="1"/></g><g><path d="m116.226 205.548c-4.142 0-7.5-3.357-7.5-7.5v-4.627c0-4.143 3.358-7.5 7.5-7.5s7.5 3.357 7.5 7.5v4.627c0 4.143-3.358 7.5-7.5 7.5z" fill="#5b3724" fill-opacity="1" data-original-color="#8f8390ff" stroke="none" stroke-opacity="1"/></g><g><path d="m190.543 205.548c-4.142 0-7.5-3.357-7.5-7.5v-4.627c0-4.143 3.358-7.5 7.5-7.5s7.5 3.357 7.5 7.5v4.627c0 4.143-3.358 7.5-7.5 7.5z" fill="#5b3724" fill-opacity="1" data-original-color="#8f8390ff" stroke="none" stroke-opacity="1"/></g></g></g></g></svg>