<svg id="Capa_1" enable-background="new 0 0 512 512" height="512" viewBox="0 0 512 512" width="512" xmlns="http://www.w3.org/2000/svg"><path d="m263.956 477.97-23.739-23.56-.387-.017c-2.588-.109-5.086-.385-7.422-.816l-.515-.095-24.661 24.488z" fill="#b3dafe"/><path d="m186.959 417.081-1.397-.572c-1.115-.458-2.111-1.115-2.96-1.954l-17.323-17.132c-1.73-1.711-2.684-3.996-2.684-6.435s.953-4.724 2.684-6.435l3.585-3.545c1.733-1.715 4.048-2.659 6.521-2.659s4.788.944 6.522 2.659l1.406-1.422c-1.731-1.712-2.683-3.997-2.683-6.436 0-2.438.953-4.723 2.683-6.434l3.584-3.544c1.733-1.714 4.05-2.658 6.522-2.658 2.473 0 4.789.944 6.523 2.658l1.406-1.422c-1.73-1.711-2.683-3.996-2.683-6.435-.001-2.438.953-4.724 2.683-6.436l3.585-3.543c1.733-1.715 4.049-2.659 6.521-2.659s4.789.944 6.523 2.659l1.406-1.422c-1.731-1.712-2.685-3.998-2.684-6.436 0-2.438.954-4.723 2.685-6.434l3.583-3.545c1.733-1.714 4.05-2.658 6.522-2.658.28 0 .557.016.831.04-8.825-6.292-19.559-9.999-31.136-9.999h-49.739v15.347c0 10.3-8.245 18.68-18.378 18.68h-8.612c-10.134 0-18.378-8.38-18.378-18.68v-15.347h-49.741c-29.961.003-54.336 24.757-54.336 55.184v101.148c0 3.73 3.025 6.755 6.755 6.755h118.725z" fill="#b3dafe"/><path d="m36.056 471.215v-101.149c0-30.428 24.375-55.182 54.336-55.182h-36.056c-29.961.001-54.336 24.755-54.336 55.182v101.148c0 3.73 3.025 6.755 6.755 6.755h36.057c-3.731.001-6.756-3.024-6.756-6.754z" fill="#8ac9fe"/><path d="m29.086 146.237c-2.318 1.081-4.369 2.493-6.109 4.212-4.009 3.961-6.216 9.415-6.216 15.365 0 7.326 3.476 14.817 9.683 19.129 2.529-1.334 5.394-2.102 8.435-2.102h17.889v-20.113c0-4.316 3.451-7.828 7.692-7.828h49.765c11.908 0 23.545-4.188 32.768-11.792 1.366-1.125 3.086-1.744 4.842-1.744s3.477.62 4.844 1.745c9.222 7.604 20.859 11.791 32.766 11.791h7.617c4.241 0 7.691 3.512 7.691 7.828v20.113h17.889c3.047 0 5.917.77 8.449 2.109 2.572-1.774 4.77-4.152 6.453-7.064 4.158-7.201 4.292-16.273.343-23.115-2.17-3.761-5.391-6.641-9.448-8.538 2.318-1.083 4.368-2.492 6.108-4.21 4.009-3.96 6.217-9.416 6.217-15.364 0-11.212-8.135-22.81-21.749-22.81-.068 0-.135 0-.203 0 5.954-7.348 4.931-15.236 4.274-18.114-2.363-10.353-11.78-18.16-21.906-18.16-2.624 0-5.917.509-9.482 2.265 1.47-6.199-.011-11.134-1.438-14.097-3.739-7.763-12.201-12.98-21.058-12.98-2.952 0-10.864.762-16.704 8.193-.854-3.88-2.507-6.769-4.143-8.819-4.109-5.152-10.521-8.106-17.593-8.106s-13.485 2.958-17.594 8.106c-1.635 2.051-3.288 4.939-4.142 8.819-5.839-7.432-13.753-8.193-16.704-8.193-8.858 0-17.321 5.218-21.059 12.978-1.428 2.966-2.908 7.9-1.438 14.1-3.566-1.756-6.858-2.265-9.482-2.265-10.126 0-19.545 7.808-21.908 18.16-.656 2.878-1.678 10.764 4.276 18.114-.068 0-.135 0-.203 0-13.616 0-21.752 11.598-21.752 22.81 0 5.948 2.208 11.404 6.217 15.364 1.743 1.717 3.794 3.126 6.113 4.213z" fill="#fe9901"/><path d="m29.086 146.237c-2.318 1.081-4.369 2.493-6.109 4.212-4.009 3.961-6.216 9.415-6.216 15.365 0 7.326 3.476 14.817 9.683 19.129 2.529-1.334 5.394-2.102 8.435-2.102h9.121v-22.341c0-57.99 47.01-105 105-105 13.872 0 27.113 2.696 39.235 7.583-.243-3.056-1.117-5.558-1.975-7.34-3.739-7.763-12.201-12.98-21.058-12.98-2.952 0-10.864.762-16.704 8.193-.854-3.88-2.507-6.769-4.143-8.819-4.109-5.152-10.521-8.106-17.593-8.106s-13.485 2.958-17.594 8.106c-1.635 2.051-3.288 4.939-4.142 8.819-5.839-7.432-13.753-8.193-16.704-8.193-8.858 0-17.321 5.218-21.059 12.978-1.428 2.966-2.908 7.9-1.438 14.1-3.566-1.756-6.858-2.265-9.482-2.265-10.126 0-19.545 7.808-21.908 18.16-.656 2.878-1.678 10.764 4.276 18.114-.068 0-.135 0-.203 0-13.616 0-21.752 11.598-21.752 22.81 0 5.948 2.208 11.404 6.217 15.364 1.743 1.717 3.794 3.126 6.113 4.213z" fill="#fb8801"/><path d="m139.711 298.52h-25.898c-3.664 0-7.248-.348-10.736-.98v32.692c0 10.825 8.721 19.68 19.378 19.68h8.612c10.658 0 19.378-8.854 19.378-19.68v-32.692c-3.487.632-7.07.98-10.734.98z" fill="#ffbd86"/><path d="m123.68 330.231v-31.711h-9.868c-3.664 0-7.248-.348-10.736-.98v32.692c0 10.825 8.721 19.68 19.378 19.68h8.612c2.092 0 4.104-.351 5.996-.981-7.744-2.581-13.382-9.999-13.382-18.7z" fill="#f6a96c"/><path d="m52.768 236.512v-54.67h-17.889c-10.658 0-19.378 8.856-19.378 19.681v19.055c0 10.825 8.721 19.681 19.378 19.681h18.01c-.073-1.241-.121-2.489-.121-3.747z" fill="#fed2a4"/><path d="m218.642 181.842h-17.889v54.67c0 1.259-.048 2.506-.122 3.746h18.01c10.657 0 19.378-8.855 19.378-19.681v-19.055c.001-10.824-8.72-19.68-19.377-19.68z" fill="#ffbd86"/><path d="m113.812 299.52c-34.214 0-62.044-28.264-62.044-63.008v-73.783c0-4.875 3.891-8.828 8.692-8.828h49.765c11.676 0 23.088-4.107 32.131-11.564 1.597-1.314 3.537-1.973 5.478-1.973s3.882.658 5.48 1.973c9.043 7.456 20.455 11.564 32.131 11.564h7.617c4.8 0 8.691 3.953 8.691 8.828v73.783c0 34.744-27.831 63.008-62.042 63.008z" fill="#fed2a4"/><path d="m77.522 236.512v-73.783c0-4.875 3.891-8.828 8.692-8.828h-25.754c-4.801 0-8.692 3.953-8.692 8.828v73.783c0 34.744 27.831 63.008 62.044 63.008h25.754c-34.213 0-62.044-28.264-62.044-63.008z" fill="#ffbd86"/><g fill="#6d3326"><path d="m94.764 207.342c-4.142 0-7.5-3.357-7.5-7.5v-10.746c0-4.143 3.358-7.5 7.5-7.5s7.5 3.357 7.5 7.5v10.746c0 4.142-3.358 7.5-7.5 7.5z"/><path d="m158.759 207.342c-4.142 0-7.5-3.357-7.5-7.5v-10.746c0-4.143 3.358-7.5 7.5-7.5s7.5 3.357 7.5 7.5v10.746c0 4.142-3.358 7.5-7.5 7.5z"/><path d="m126.761 277.68c-17.643 0-31.997-14.523-31.997-32.376 0-4.143 3.358-7.5 7.5-7.5s7.5 3.357 7.5 7.5c0 9.581 7.625 17.376 16.997 17.376 9.371 0 16.995-7.795 16.995-17.376 0-4.143 3.358-7.5 7.5-7.5s7.5 3.357 7.5 7.5c0 17.852-14.353 32.376-31.995 32.376z"/><path d="m133.229 230h-7.461c-5.839 0-10.59-4.751-10.59-10.591v-14.078c0-4.143 3.358-7.5 7.5-7.5s7.5 3.357 7.5 7.5v9.669h3.051c4.142 0 7.5 3.357 7.5 7.5s-3.357 7.5-7.5 7.5z"/></g><path d="m457.664 314.885h-49.739v16.419c0 10.301-8.245 18.681-18.378 18.681h-8.613c-10.134 0-18.378-8.38-18.378-18.681v-16.419h-49.739c-20.414 0-38.225 11.496-47.51 28.443l.425.43c2.022-1.998 4.723-3.099 7.606-3.099s5.584 1.101 7.606 3.099l2.215 2.19c2.02 1.998 3.131 4.665 3.131 7.51 0 2.844-1.112 5.508-3.131 7.503l-3.324 3.287 1.406 1.422c2.022-2 4.723-3.102 7.605-3.102s5.583 1.102 7.605 3.102l2.217 2.19c2.019 1.998 3.13 4.666 3.129 7.511 0 2.843-1.112 5.508-3.13 7.503l-3.324 3.286 1.406 1.422c2.022-1.999 4.723-3.101 7.605-3.101 2.883 0 5.584 1.102 7.607 3.101l2.215 2.191c2.019 1.996 3.13 4.661 3.13 7.505.001 2.844-1.111 5.51-3.13 7.507l-21.239 21.004 52.41 52.182h159.895c3.731 0 6.755-3.024 6.755-6.755v-101.15c.003-30.427-24.372-55.181-54.333-55.181z" fill="#d4f2f6"/><path d="m265.731 343.758c2.022-1.998 4.723-3.099 7.606-3.099s5.584 1.101 7.606 3.099l2.215 2.19c2.02 1.998 3.131 4.665 3.131 7.51 0 2.844-1.112 5.508-3.131 7.503l-3.324 3.287 1.406 1.422c2.022-2 4.723-3.102 7.605-3.102s5.583 1.102 7.605 3.102l.789.779c1.842-28.746 25.443-51.564 54.207-51.564h-38.632c-20.414 0-38.225 11.496-47.51 28.443z" fill="#a6e7f0"/><path d="m293.358 183.914h17.889v-20.113c0-4.316 3.451-7.828 7.692-7.828h49.765c11.907 0 23.544-4.188 32.768-11.792 1.366-1.125 3.085-1.744 4.841-1.744 1.757 0 3.477.619 4.844 1.745 9.223 7.604 20.86 11.791 32.768 11.791h7.616c4.241 0 7.691 3.512 7.691 7.828v20.113h17.888c4.565 0 8.736 1.711 11.954 4.521v-77.678c0-29.415-23.697-53.481-52.66-53.481h-102.35c-28.962 0-52.66 24.066-52.66 53.481v77.678c3.218-2.81 7.39-4.521 11.954-4.521z" fill="#5a5a5a"/><path d="m293.358 183.914h17.889v-20.113c0-3.802 2.678-6.977 6.214-7.68v-45.364c0-29.415 23.698-53.481 52.659-53.481h-36.056c-28.962 0-52.66 24.066-52.66 53.481v77.678c3.218-2.81 7.39-4.521 11.954-4.521z" fill="#444"/><path d="m398.189 299.594h-25.898c-3.664 0-7.247-.348-10.736-.98v32.69c0 10.825 8.721 19.681 19.378 19.681h8.613c10.658 0 19.378-8.855 19.378-19.681v-32.69c-3.488.632-7.071.98-10.735.98z" fill="#ca6e59"/><path d="m382.159 331.304v-31.71h-9.868c-3.664 0-7.247-.348-10.736-.98v32.69c0 10.825 8.721 19.681 19.378 19.681h8.613c2.092 0 4.104-.352 5.996-.982-7.745-2.581-13.383-9.999-13.383-18.699z" fill="#bb5d4c"/><path d="m311.247 237.586v-54.672h-17.889c-10.657 0-19.378 8.856-19.378 19.681v19.056c0 10.824 8.721 19.68 19.378 19.68h18.01c-.073-1.241-.121-2.487-.121-3.745z" fill="#d78878"/><path d="m477.121 182.914h-17.888v54.672c0 1.258-.048 2.504-.122 3.744h18.01c10.658 0 19.378-8.855 19.378-19.68v-19.056c0-10.824-8.721-19.68-19.378-19.68z" fill="#ca6e59"/><path d="m372.291 300.594c-34.213 0-62.044-28.266-62.044-63.008v-73.785c0-4.875 3.891-8.828 8.692-8.828h49.765c11.676 0 23.088-4.107 32.132-11.564 1.596-1.314 3.537-1.973 5.478-1.973 1.942 0 3.883.658 5.48 1.973 9.043 7.456 20.456 11.564 32.132 11.564h7.616c4.8 0 8.691 3.953 8.691 8.828v73.785c0 34.742-27.831 63.008-62.043 63.008z" fill="#d78878"/><path d="m336.001 237.586v-73.785c0-4.875 3.891-8.828 8.692-8.828h-25.755c-4.801 0-8.692 3.953-8.692 8.828v73.785c0 34.742 27.831 63.008 62.044 63.008h25.755c-34.213 0-62.044-28.266-62.044-63.008z" fill="#ca6e59"/><path d="m353.242 208.416c-4.142 0-7.5-3.357-7.5-7.5v-10.747c0-4.143 3.358-7.5 7.5-7.5s7.5 3.357 7.5 7.5v10.747c0 4.143-3.358 7.5-7.5 7.5z" fill="#6d3326"/><path d="m417.238 208.416c-4.142 0-7.5-3.357-7.5-7.5v-10.747c0-4.143 3.358-7.5 7.5-7.5s7.5 3.357 7.5 7.5v10.747c0 4.143-3.358 7.5-7.5 7.5z" fill="#6d3326"/><path d="m385.239 278.754c-17.643 0-31.996-14.524-31.996-32.377 0-4.143 3.358-7.5 7.5-7.5s7.5 3.357 7.5 7.5c0 9.582 7.624 17.377 16.996 17.377s16.997-7.795 16.997-17.377c0-4.143 3.358-7.5 7.5-7.5s7.5 3.357 7.5 7.5c0 17.852-14.354 32.377-31.997 32.377z" fill="#6d3326"/><path d="m391.708 231.072h-7.46c-5.84 0-10.591-4.751-10.591-10.59v-14.078c0-4.143 3.358-7.5 7.5-7.5s7.5 3.357 7.5 7.5v9.668h3.051c4.142 0 7.5 3.357 7.5 7.5s-3.358 7.5-7.5 7.5z" fill="#6d3326"/><path d="m293.65 425.085-14.192 14.036c-10.003 9.893-23.276 15.341-37.372 15.341-.001 0-.001 0-.001 0-1.119 0-2.239-.049-3.358-.119l23.893 23.627h84.201z" fill="#d78878"/><path d="m314.881 389.061-2.215-2.191c-4.57-4.518-12.047-4.52-16.619 0l3.324-3.286c4.57-4.52 4.568-11.914 0-16.436l-2.216-2.189c-4.569-4.521-12.047-4.521-16.617 0l3.324-3.287c4.57-4.517 4.57-11.914 0-16.435l-2.215-2.19c-4.57-4.518-12.049-4.518-16.619 0l3.324-3.287c4.57-4.519 4.57-11.912 0-16.433l-2.214-2.19c-4.571-4.52-12.047-4.52-16.619 0l-9.972 9.861 17.688 17.494c1.731 1.712 2.685 3.998 2.684 6.437-.001 2.436-.954 4.721-2.684 6.432l-3.583 3.544c-1.733 1.714-4.05 2.658-6.521 2.658-.001 0-.001 0-.001 0-2.472 0-4.789-.943-6.523-2.656l-1.406 1.422 4.358 4.311c1.731 1.713 2.684 3.999 2.683 6.438 0 2.436-.953 4.721-2.683 6.432l-3.583 3.545c-1.733 1.715-4.049 2.659-6.522 2.659-2.47 0-4.785-.943-6.518-2.655l-1.406 1.423 2.77 2.739c1.73 1.711 2.684 3.996 2.684 6.434.001 2.438-.953 4.724-2.684 6.437l-3.584 3.544c-1.733 1.714-4.05 2.658-6.522 2.658s-4.788-.944-6.521-2.658l-11.036-10.914-1.406 1.422c1.73 1.713 2.684 3.998 2.683 6.436 0 2.438-.953 4.722-2.683 6.433l-3.584 3.545c-1.733 1.714-4.05 2.658-6.523 2.658-1.098 0-2.161-.196-3.159-.553l-61.994 61.31h84.582l23.672-23.41c16.797 3.106 34.87-1.808 47.935-14.728l34.72-34.337c4.571-4.522 4.571-11.918.001-16.437z" fill="#fed2a4"/><path d="m257.938 347.781-21.224-20.99c-3.974-3.93-10.476-3.93-14.451 0l-3.583 3.545c-3.976 3.93-3.976 10.361 0 14.292v.001l-.001-.001c-3.975-3.931-10.477-3.931-14.451 0l-3.584 3.543c-3.974 3.931-3.974 10.362 0 14.292-3.974-3.93-10.477-3.93-14.451 0l-3.584 3.544c-3.973 3.93-3.973 10.36 0 14.291-3.973-3.931-10.477-3.931-14.449 0l-3.585 3.545c-3.974 3.93-3.974 10.361 0 14.291l17.323 17.132c3.975 3.93 10.478 3.93 14.452 0l3.584-3.545c3.974-3.93 3.974-10.359 0-14.29v-.001l11.036 10.914c3.973 3.93 10.476 3.93 14.45 0l3.583-3.544c3.974-3.932 3.974-10.362 0-14.292l-2.77-2.739c3.975 3.926 10.474 3.924 14.446-.005l3.583-3.545c3.974-3.929 3.974-10.359 0-14.291l-4.359-4.311h.001c3.975 3.928 10.477 3.928 14.451-.002l3.583-3.544c3.976-3.929 3.975-10.359 0-14.29z" fill="#ca6e59"/><path d="m199.935 397.431c3.974 3.931 3.974 10.36 0 14.29l-3.584 3.545c-3.974 3.93-10.477 3.93-14.452 0l-17.323-17.132c-3.974-3.93-3.974-10.361 0-14.291l3.585-3.545c3.972-3.931 10.476-3.931 14.449 0z" fill="#d78878"/><path d="m244.263 369.928c3.974 3.932 3.974 10.362 0 14.291l-3.583 3.545c-3.974 3.931-10.477 3.931-14.452 0l-25.583-25.301c-3.974-3.93-3.974-10.361 0-14.292l3.584-3.543c3.974-3.931 10.476-3.931 14.451 0z" fill="#d78878"/></svg>