<svg width="512" height="512" viewBox="0 0 512 512" fill="none" xmlns="http://www.w3.org/2000/svg">
<path d="M413.73 249.731H306.931C282.139 249.731 262.041 229.633 262.041 204.841V138.851C262.041 84.5665 306.047 40.5615 360.33 40.5615C414.614 40.5615 458.619 84.5675 458.619 138.851V204.841C458.62 229.633 438.522 249.731 413.73 249.731Z" fill="#FF8F40"/>
<path d="M346.283 106.614C341.98 106.614 338.491 103.125 338.491 98.8216V87.0176C338.491 82.7146 341.98 79.2256 346.283 79.2256C350.586 79.2256 354.075 82.7146 354.075 87.0176V98.8216C354.075 103.126 350.586 106.614 346.283 106.614Z" fill="#F26D25"/>
<path d="M458.618 138.849V204.845C458.618 229.63 438.52 249.728 413.725 249.728H385.808C410.603 249.728 430.701 229.63 430.701 204.845V138.849C430.701 111.71 419.694 87.1335 401.911 69.3505C387.231 54.6705 367.931 44.6125 346.372 41.5475C350.936 40.8925 355.595 40.5605 360.33 40.5605C387.469 40.5605 412.045 51.5675 429.828 69.3505C447.62 87.1335 458.618 111.71 458.618 138.849Z" fill="#F26D25"/>
<path d="M436.735 164.131H421.464C417.161 164.131 413.672 160.642 413.672 156.339C413.672 152.036 417.161 148.547 421.464 148.547H436.735C441.038 148.547 444.527 152.036 444.527 156.339C444.527 160.642 441.038 164.131 436.735 164.131Z" fill="#F98824"/>
<path d="M504.213 419.518H216.447L233.683 329.535L315.988 303.021C317.879 325.846 337.016 343.779 360.33 343.779C383.644 343.779 402.781 325.847 404.672 303.021L450.281 317.712C472.909 325.005 489.75 344.049 494.228 367.394L504.213 419.518Z" fill="#70CE94"/>
<path d="M412.131 305.426C410.214 332.358 387.752 353.607 360.331 353.607C332.909 353.607 310.448 332.357 308.531 305.426L360.331 288.741L412.131 305.426Z" fill="#FFCDA0"/>
<path d="M504.213 419.519H473.481L461.897 359.053C457.72 337.214 443.518 318.867 423.913 309.225L450.281 317.713C472.909 325.006 489.75 344.05 494.228 367.405L504.213 419.519Z" fill="#32B088"/>
<path d="M218.438 409.127L206.489 471.494H501.603C508.125 471.494 513.034 465.555 511.807 459.15L502.223 409.127H218.438Z" fill="#C5F9C7"/>
<path d="M471.494 409.127L483.441 471.496H501.607C508.129 471.496 513.038 465.557 511.811 459.151L502.226 409.127H471.494Z" fill="#70CE94"/>
<path d="M331.519 243.776H389.141V314.458H331.519V243.776Z" fill="#FFCDA0"/>
<path d="M389.142 243.776V287.37C380.249 290.986 370.521 292.976 360.331 292.976C350.141 292.976 340.413 290.986 331.52 287.37V243.776H389.142Z" fill="#FFBA7E"/>
<path d="M404.724 303.033V310.16C404.724 314.461 401.233 317.952 396.932 317.952C392.631 317.952 389.14 314.461 389.14 310.16V298.015L404.724 303.033Z" fill="#FFBA7E"/>
<path d="M331.52 298.015V310.16C331.52 314.461 328.029 317.952 323.728 317.952C319.427 317.952 315.936 314.461 315.936 310.16V303.033L331.52 298.015Z" fill="#FFBA7E"/>
<path d="M444.229 199.793C455.504 199.793 464.643 190.653 464.643 179.379C464.643 168.105 455.503 158.965 444.229 158.965H430.7V199.794H444.229V199.793Z" fill="#FFBA7E"/>
<path d="M276.432 199.793C265.157 199.793 256.018 190.653 256.018 179.379C256.018 168.105 265.158 158.965 276.432 158.965H289.961V199.794H276.432V199.793Z" fill="#FFBA7E"/>
<path d="M360.331 91.127C318.134 91.127 283.927 125.334 283.927 167.531V195.982C283.927 235.077 318.134 271.406 360.331 271.406C402.528 271.406 436.735 235.077 436.735 195.982V167.531C436.735 125.335 402.528 91.127 360.331 91.127Z" fill="#FFCDA0"/>
<path d="M329.693 187.936C325.39 187.936 321.901 184.447 321.901 180.144V174.183C321.901 169.88 325.39 166.391 329.693 166.391C333.996 166.391 337.485 169.88 337.485 174.183V180.144C337.485 184.447 333.996 187.936 329.693 187.936Z" fill="#873F30"/>
<path d="M390.969 187.936C386.666 187.936 383.177 184.447 383.177 180.144V174.183C383.177 169.88 386.666 166.391 390.969 166.391C395.272 166.391 398.761 169.88 398.761 174.183V180.144C398.761 184.447 395.272 187.936 390.969 187.936Z" fill="#873F30"/>
<path d="M436.727 167.193H403.8C376.339 167.193 354.077 144.932 354.077 117.471V91.3849C356.136 91.2139 358.224 91.1289 360.33 91.1289C402.414 91.1289 436.547 125.156 436.727 167.193Z" fill="#FFBA7E"/>
<path d="M441.033 148.549H403.802C376.338 148.549 354.075 126.285 354.075 98.8217V82.7207H381.351C414.312 82.7207 441.033 109.441 441.033 142.403V148.549Z" fill="#FF8F40"/>
<path d="M441.035 142.398V148.547H430.701V138.849C430.701 124.644 427.684 111.15 422.265 98.957C433.823 109.831 441.035 125.28 441.035 142.398Z" fill="#F26D25"/>
<path d="M235.564 199.733C246.839 199.733 255.978 190.593 255.978 179.319C255.978 168.044 246.838 158.905 235.564 158.905H222.035V199.734L235.564 199.733Z" fill="#6C3328"/>
<path d="M67.767 199.733C56.492 199.733 47.353 190.593 47.353 179.319C47.353 168.044 56.493 158.905 67.767 158.905H81.296V199.734L67.767 199.733Z" fill="#6C3328"/>
<path d="M180.438 471.435V406.21H122.902V471.435H10.3928C3.87081 471.435 -1.03819 465.496 0.188811 459.09L17.7708 367.343C22.2378 343.988 39.0898 324.944 61.7178 317.651L107.317 302.96C109.208 325.786 128.345 343.718 151.669 343.718C174.983 343.718 194.12 325.786 196.011 302.96L241.62 317.651C264.238 324.944 281.089 343.988 285.567 367.343L303.14 459.091C304.367 465.496 299.458 471.435 292.936 471.435H180.438Z" fill="#20B69F"/>
<path d="M105.003 337.923L103.409 331.778C101.435 324.169 93.6658 319.601 86.0568 321.575L39.2548 333.717C31.1688 335.815 26.3148 344.07 28.4128 352.156L33.5178 371.832C35.5448 379.645 43.5208 384.335 51.3338 382.308L76.1088 375.881C83.9208 373.854 88.6118 365.878 86.5848 358.065L86.0208 355.892L95.9528 353.315C102.702 351.564 106.754 344.673 105.003 337.923Z" fill="#17998C"/>
<path d="M292.942 471.437H274.776L253.236 358.992C249.051 337.148 234.846 318.796 215.232 309.156L241.612 317.658C264.243 324.946 281.086 343.99 285.565 367.343L303.146 459.093C304.374 465.498 299.464 471.437 292.942 471.437Z" fill="#17998C"/>
<path d="M203.466 305.367C201.549 332.299 179.087 353.548 151.665 353.548C124.243 353.548 101.781 332.298 99.8638 305.367L151.665 288.682L203.466 305.367Z" fill="#873F30"/>
<path d="M122.854 243.717H180.477V314.4H122.854V243.717Z" fill="#873F30"/>
<path d="M180.477 243.717V287.312C171.584 290.928 161.856 292.918 151.666 292.918C141.476 292.918 131.748 290.928 122.855 287.312V243.717H180.477Z" fill="#6C3328"/>
<path d="M196.063 302.981V310.098C196.063 314.41 192.572 317.89 188.271 317.89C183.97 317.89 180.479 314.41 180.479 310.098V297.963L196.063 302.981Z" fill="#6C3328"/>
<path d="M122.849 297.973V310.097C122.849 314.409 119.369 317.889 115.057 317.889C110.756 317.889 107.265 314.409 107.265 310.097V302.991L122.849 297.973Z" fill="#6C3328"/>
<path d="M151.666 86.3223C109.469 86.3223 75.2607 120.53 75.2607 162.727V195.923C75.2607 235.018 109.469 271.347 151.666 271.347C193.863 271.347 228.071 235.018 228.071 195.923V162.727C228.071 120.529 193.863 86.3223 151.666 86.3223Z" fill="#873F30"/>
<path d="M121.028 187.875C116.725 187.875 113.236 184.386 113.236 180.083V174.122C113.236 169.819 116.725 166.33 121.028 166.33C125.331 166.33 128.82 169.819 128.82 174.122V180.083C128.82 184.387 125.331 187.875 121.028 187.875Z" fill="#6C3328"/>
<path d="M182.304 187.875C178.001 187.875 174.512 184.386 174.512 180.083V174.122C174.512 169.819 178.001 166.33 182.304 166.33C186.607 166.33 190.096 169.819 190.096 174.122V180.083C190.096 184.387 186.607 187.875 182.304 187.875Z" fill="#6C3328"/>
<path d="M228.072 162.653C226.763 162.615 225.453 162.473 224.162 162.255C205.535 159.029 176.403 156.865 151.665 156.865C126.927 156.865 97.7948 159.028 79.1678 162.255C77.8768 162.473 76.5678 162.615 75.2578 162.653C75.2958 120.493 109.495 86.3232 151.664 86.3232C193.833 86.3232 228.034 120.493 228.072 162.653Z" fill="#6C3328"/>
<path d="M231.916 119.391C231.78 75.7999 195.906 40.5029 151.666 40.5029C107.426 40.5029 71.5505 75.7999 71.4155 119.391H231.916Z" fill="#E01058"/>
<path d="M231.915 119.39H203.106C202.992 80.6458 174.629 48.4588 137.261 41.7878C141.93 40.9428 146.75 40.5068 151.665 40.5068C195.904 40.5068 231.782 75.7968 231.915 119.39Z" fill="#CF0E50"/>
<path d="M64.8746 133.292C64.6026 139.332 69.9766 144.107 75.9336 143.075C96.3916 139.533 126.629 137.405 151.666 137.405C176.703 137.405 206.941 139.533 227.398 143.075C233.355 144.106 238.729 139.332 238.457 133.292L237.576 113.721C237.385 109.47 234.392 105.866 230.247 104.901C209.183 100 184.049 97 151.666 97C119.283 97 94.1486 100 73.0836 104.902C68.9386 105.867 65.9466 109.471 65.7546 113.722L64.8746 133.292Z" fill="#FB1466"/>
<path d="M238.452 133.291C238.727 139.335 233.356 144.108 227.397 143.074C223.041 142.324 218.24 141.632 213.144 141.015C215.668 139.155 217.291 136.109 217.129 132.665L216.218 108.999C216.076 105.839 214.434 103.021 211.919 101.322C218.381 102.356 224.464 103.552 230.243 104.899C234.39 105.867 237.379 109.473 237.578 113.724L238.452 133.291Z" fill="#E01058"/>
<path d="M99.2446 122.133V140.013C93.7796 140.553 88.5336 141.177 83.6606 141.862V122.133C83.6606 117.832 87.1406 114.341 91.4526 114.341C95.7536 114.341 99.2446 117.831 99.2446 122.133Z" fill="#E01058"/>
<path d="M129.27 118.465V137.914C124.075 138.132 118.839 138.433 113.686 138.797V118.465C113.686 114.153 117.177 110.673 121.478 110.673C125.79 110.673 129.27 114.153 129.27 118.465Z" fill="#E01058"/>
<path d="M219.679 122.133V141.862C214.806 141.176 209.56 140.563 204.095 140.013V122.133C204.095 117.832 207.586 114.341 211.887 114.341C216.188 114.341 219.679 117.831 219.679 122.133Z" fill="#E01058"/>
<path d="M219.679 122.133V141.873C217.57 141.572 215.388 141.291 213.144 141.021C215.669 139.151 217.289 136.107 217.134 132.668L216.479 115.848C218.421 117.26 219.679 119.556 219.679 122.133Z" fill="#CF0E50"/>
<path d="M189.643 118.465V138.797C184.49 138.433 179.254 138.132 174.059 137.914V118.465C174.059 114.153 177.55 110.673 181.851 110.673C186.152 110.673 189.643 114.153 189.643 118.465Z" fill="#E01058"/>
<path d="M159.462 117.79V137.468C156.823 137.426 154.215 137.406 151.67 137.406C149.125 137.406 146.517 137.427 143.878 137.468V117.79C143.878 113.489 147.358 109.998 151.67 109.998C155.971 109.998 159.462 113.489 159.462 117.79Z" fill="#E01058"/>
<path d="M70.5488 303.109L78.8878 335.253L95.9528 330.826C102.703 329.075 106.755 322.184 105.004 315.434L103.41 309.289C101.436 301.68 93.6668 297.112 86.0578 299.086L70.5488 303.109Z" fill="#FFBA7E"/>
<path d="M28.4128 329.666L33.5178 349.342C35.5448 357.155 43.5208 361.845 51.3338 359.818L76.1088 353.391C83.9218 351.364 88.6118 343.388 86.5848 335.575L77.6818 301.258L39.2558 311.227C31.1688 313.325 26.3148 321.58 28.4128 329.666Z" fill="#FFCDA0"/>
<path d="M112.512 414.562H190.827V471.497H112.512V414.562Z" fill="#F8F3F1"/>
<path d="M190.825 424.949V406.213C190.825 400.475 186.174 395.824 180.436 395.824H122.897C117.159 395.824 112.508 400.475 112.508 406.213V424.949H190.825Z" fill="#FB1466"/>
</svg>
