<svg width="512" height="512" viewBox="0 0 512 512" fill="none" xmlns="http://www.w3.org/2000/svg">
<g clip-path="url(#clip0_645_7165)">
<path d="M145.522 147.679V90.967C145.522 74.632 147.724 59.861 156.523 46.099C167.357 29.156 184.129 18.43 203.59 17.348L209.899 19.716L218.415 17.689C233.129 6.225 251.247 0 269.899 0H289.808C335.324 0 372.222 36.898 372.222 82.414V154.238L145.522 147.679Z" fill="#FA5974"/>
<path d="M204.055 17.1317C201.243 18.2747 198.513 19.6347 195.886 21.1907C187.552 26.1557 180.299 33.1507 174.881 41.8557C166.083 55.9997 161.406 72.4317 161.406 89.2237V148.264L140.802 147.677V90.9647C140.802 74.6367 145.479 58.6377 154.277 44.8747C159.696 36.4067 166.948 29.5967 175.282 24.7657C183.616 19.9447 193.032 17.1007 202.757 16.5547L204.055 17.1317Z" fill="#E24861"/>
<path d="M232.571 80.4161C231.149 82.9191 228.533 84.3311 225.844 84.3311C224.556 84.3311 223.248 84.0121 222.043 83.3321C212.421 77.8931 204.427 51.4071 202.583 35.1921C201.769 28.0431 201.831 21.8191 202.758 16.5541C203.891 16.4821 205.024 16.4531 206.168 16.4531C210.227 16.4531 214.325 16.8651 218.415 17.6891C217.817 20.0791 217.448 22.8811 217.479 26.3121C217.561 36.0681 219.859 46.4931 222.692 54.8891C225.237 62.4611 228.234 68.4361 229.945 70.0531C233.436 72.2361 234.621 76.8001 232.571 80.4161Z" fill="#E24861"/>
<path d="M441.434 368.194V471.82L423.392 500.887L361.595 511.997H238.14L214.879 505.707L76.3999 506.387L79.0289 371.141C79.0289 351.547 92.8129 334.673 112.005 330.758L209.01 311.002C211.555 310.477 211.116 303.23 211.116 303.23C211.116 303.23 241.344 315.471 257.916 315.003C273.136 314.573 300.886 303.23 300.886 303.23C302.339 305.198 304.512 306.63 307.057 307.155L408.458 327.81C427.65 331.726 441.434 348.6 441.434 368.194Z" fill="#63B9A6"/>
<path d="M300.882 303.234C274.715 324.384 237.279 324.384 211.112 303.234C219.014 301.394 218.561 297.908 218.561 295.61L213.183 249.304H298.812L294.095 265.669L298.812 278.036V297.063C298.811 299.36 299.574 301.503 300.882 303.234Z" fill="#FFD0AE"/>
<path d="M228.852 313.752C224.453 320.582 217.427 325.64 209.052 327.35L107.662 348.005C98.1019 349.952 91.1689 358.441 91.1689 368.197V471.823L79.1749 477.754L70.5649 471.823V368.197C70.5649 348.603 84.3489 331.729 103.541 327.814L204.942 307.159C207.487 306.634 209.66 305.202 211.113 303.234L222.645 302.528L228.852 313.752Z" fill="#468173"/>
<path d="M298.811 249.304V278.036L290.25 283.702C281.483 289.502 271.439 293.231 260.972 294.076C253.503 294.673 246.096 293.911 239.081 291.871C236.433 291.098 233.786 293.056 233.786 295.817V297.063C233.786 303.141 231.994 308.9 228.851 313.752C222.577 311.177 216.592 307.674 211.111 303.234C212.419 301.503 213.182 299.361 213.182 297.063V249.304H298.811Z" fill="#F3B88C"/>
<path d="M342.473 190.068H169.519C151.849 190.068 137.525 175.744 137.525 158.074V157.755C137.525 147.153 146.119 138.559 156.721 138.559H355.27C365.872 138.559 374.466 147.153 374.466 157.755V158.074C374.467 175.744 360.143 190.068 342.473 190.068Z" fill="#F3B88C"/>
<path d="M233.257 267.852L194.476 242.194C180.059 232.656 171.388 216.522 171.388 199.236V129.255C171.388 119.782 176.669 111.099 185.081 106.742L196.558 101.145C210.365 94.4122 219.124 80.3952 219.124 65.0332V56.2902C219.124 54.4192 221.412 53.5202 222.685 54.8902C237.6 70.9352 259.785 80.9682 282.175 80.8292H290.603C306.131 80.8292 320.777 88.0432 330.242 100.352L330.249 100.362C336.964 109.095 340.605 119.797 340.604 130.814L340.606 199.232C340.607 216.52 331.934 232.656 317.515 242.194L278.726 267.853C264.943 276.973 247.042 276.973 233.257 267.852Z" fill="#FFD0AE"/>
<path d="M304.918 175.807C303.737 175.807 302.54 175.536 301.416 174.963C297.166 172.798 292.091 172.798 287.841 174.963C284.039 176.9 279.386 175.388 277.449 171.586C275.512 167.784 277.024 163.131 280.826 161.194C289.469 156.791 299.789 156.791 308.432 161.194C312.234 163.131 313.746 167.784 311.809 171.586C310.444 174.266 307.731 175.807 304.918 175.807Z" fill="#50776E"/>
<path d="M227.654 175.807C226.473 175.807 225.276 175.536 224.152 174.963C219.901 172.798 214.827 172.798 210.577 174.963C206.776 176.9 202.122 175.388 200.185 171.586C198.248 167.784 199.76 163.131 203.562 161.194C212.205 156.791 222.525 156.791 231.168 161.194C234.97 163.131 236.482 167.784 234.545 171.586C233.18 174.266 230.467 175.807 227.654 175.807Z" fill="#50776E"/>
<path d="M256.789 236.717C248.51 236.717 240.231 234.794 232.684 230.949C228.882 229.012 227.37 224.359 229.307 220.557C231.244 216.754 235.897 215.243 239.699 217.18C250.401 222.633 263.177 222.633 273.878 217.18C277.678 215.242 282.333 216.754 284.27 220.557C286.207 224.359 284.696 229.012 280.893 230.949C273.347 234.794 265.068 236.717 256.789 236.717Z" fill="#FA5974"/>
<path d="M441.43 471.823V506.849C441.43 509.694 439.124 512 436.279 512H377.044L369.318 471.823H441.43Z" fill="#468173"/>
<path d="M142.162 471.823V505.937L134.951 512H91.1678L81.8398 507.411V471.823H142.162Z" fill="#468173"/>
<path d="M91.168 471.823V512H75.715C72.87 512 70.564 509.694 70.564 506.849V471.823H91.168Z" fill="#416C62"/>
<path d="M150.403 412.588V471.823L142.346 477.754L134.95 471.823V412.588C134.95 408.323 138.411 404.862 142.676 404.862C146.942 404.861 150.403 408.323 150.403 412.588Z" fill="#468173"/>
<path d="M377.043 433.191V471.823L368.616 477.073L361.59 471.823V433.191C361.59 428.926 365.051 425.465 369.316 425.465C373.582 425.465 377.043 428.926 377.043 433.191Z" fill="#468173"/>
<path d="M134.951 471.823H150.404V512H134.951V471.823Z" fill="#416C62"/>
<path d="M361.591 471.823H377.044V512H361.591V471.823Z" fill="#416C62"/>
<path d="M368.616 416.336L367.994 416.527C364.898 412.837 360.46 412.549 356.189 413.248C354.208 413.572 350.499 414.4 350.499 414.4C355.946 409.835 361.311 405.342 365.703 401.669C371.377 396.924 372.001 388.345 367.204 382.629L366.416 382.84C363.744 379.655 360.112 378.452 356.457 378.48C354.196 378.498 349.856 380.084 349.856 380.084C352.252 378.073 354.512 376.178 356.541 374.475C362.138 369.779 362.861 361.44 358.124 355.794L357.265 356.003C352.71 350.574 344.916 350.852 339.487 355.408L331.551 360.907C337.164 356.103 337.872 347.67 333.069 341.946L332.851 341.686C326.742 337.01 318.827 338.169 313.288 342.818L243.453 400.766C242.58 401.498 241.464 400.179 240.753 399.522C240.717 399.488 240.689 399.457 240.655 399.421C240.291 399.032 240.065 398.492 240.111 397.869C240.448 393.332 240.976 386.235 241.493 379.273C241.959 373.005 239.869 367.102 236.075 362.629C236.075 362.629 228.658 357.814 222.922 356.958L222.615 356.912C220.232 356.556 217.956 358.024 217.296 360.34L209.598 392.238C206.116 404.46 205.167 418.434 207.443 430.937C209.443 441.919 205.655 453.158 197.415 460.69L149.705 508.374L164.465 511.999H238.136C252.276 502.118 264.489 502.536 275.33 500.345C287.819 497.821 299.47 492.207 309.224 484.01C325.928 469.971 352.607 447.55 367.13 435.347C372.785 430.595 373.406 422.045 368.616 416.336Z" fill="#FFD0AE"/>
<path d="M225.308 400.74C223.196 408.157 222.135 415.812 222.135 423.476C222.135 428.441 222.578 433.417 223.474 438.331C225.473 449.313 221.681 460.552 213.44 468.083L164.465 512H135.579L194.897 458.812C203.138 451.281 206.93 440.042 204.931 429.06C204.035 424.146 203.592 419.17 203.592 414.205C203.592 406.54 204.653 398.886 206.765 391.469L216.263 358.122C216.922 355.804 219.199 354.331 221.579 354.691L221.878 354.732C227.616 355.587 232.576 358.498 236.079 362.629L225.308 400.74Z" fill="#F3B88C"/>
<path d="M358.125 355.795L301.263 403.491C298.482 405.819 294.34 405.459 292.002 402.677C290.972 401.441 290.467 399.947 290.467 398.453C290.467 396.578 291.27 394.713 292.816 393.415L331.613 360.861L340.287 353.588L340.328 353.557C345.747 349.447 353.504 350.271 357.913 355.535L358.125 355.795Z" fill="#F3B88C"/>
<path d="M332.89 341.731L258.37 404.258C252.396 409.27 243.255 406.774 240.658 399.421C241.359 400.163 242.584 400.359 243.491 399.596L306.435 346.758L314.409 340.072C319.951 335.426 328.203 336.147 332.849 341.689L332.89 341.731Z" fill="#F3B88C"/>
<path d="M367.205 382.629L318.282 423.671C315.501 426.01 311.359 425.639 309.021 422.857C307.991 421.621 307.486 420.127 307.486 418.644C307.486 416.769 308.29 414.904 309.835 413.606L349.816 380.115C355.266 376.386 362.765 377.334 367.102 382.505L367.205 382.629Z" fill="#F3B88C"/>
<path d="M368.616 416.336L335.321 444.275C332.54 446.614 328.398 446.243 326.06 443.461C325.03 442.225 324.525 440.731 324.525 439.248C324.525 437.373 325.328 435.519 326.863 434.221L326.873 434.211L344.963 419.036C346.168 418.026 347.384 417.007 348.6 415.987L350.702 414.236C356.172 410.033 364.033 410.867 368.514 416.204L368.616 416.336Z" fill="#F3B88C"/>
</g>
<defs>
<clipPath id="clip0_645_7165">
<rect width="512" height="512" fill="white"/>
</clipPath>
</defs>
</svg>
