<svg id="Capa_1" enable-background="new 0 0 512 512" viewBox="0 0 512 512" xmlns="http://www.w3.org/2000/svg"><g><g><g><g><path d="m307.509 315.866v-41.948c-7.313 2.804-15.242 4.356-23.53 4.356h-55.958c-8.288 0-16.217-1.552-23.53-4.356v41.948z" fill="#9857bd"/></g><g><path d="m278.141 278.274v37.592h29.368v-41.948c-7.313 2.804-15.242 4.356-23.53 4.356z" fill="#814aa0"/></g><path d="m392.499 314.835h-272.998c-34.137 0-61.811 27.674-61.811 61.811v125.052c0 5.689 4.612 10.302 10.302 10.302h56.768l35.549-35.549c8.571-8.57 13.345-19.965 13.442-32.085l.488-67.756c0-7.555 6.14-13.694 13.686-13.694.22 0 .441.005.664.016 7.304.344 13.024 6.531 13.024 14.086v28.457l57.949-57.949c2.586-2.585 6.022-4.009 9.679-4.009s7.093 1.424 9.679 4.009c5.336 5.336 5.336 14.02 0 19.356l1.414 1.414 8.678-8.678c2.585-2.585 6.022-4.008 9.679-4.008 3.655 0 7.093 1.423 9.678 4.008 5.336 5.337 5.336 14.02 0 19.356l-8.678 8.678 1.414 1.414c2.585-2.585 6.022-4.008 9.679-4.008 3.655 0 7.093 1.423 9.678 4.008s4.01 6.022 4.01 9.678-1.425 7.093-4.01 9.679l-12.686 12.686 1.414 1.414c2.585-2.585 6.021-4.008 9.678-4.008 3.655 0 7.093 1.423 9.678 4.008s4.01 6.022 4.01 9.678-1.425 7.093-4.01 9.678l-51.813 51.814c-8.142 8.142-18.297 14.14-29.367 17.346l-.991.287.218.673h197.417c5.689 0 10.302-4.612 10.302-10.302v-125.051c-.002-34.137-27.676-61.811-61.813-61.811z" fill="#af66da"/><g fill="#9857bd"><path d="m127.001 415.793c0-4.142-3.357-7.5-7.5-7.5s-7.5 3.358-7.5 7.5v96.207h11.345l3.655-3.655z"/><path d="m392.499 408.293c-4.143 0-7.5 3.358-7.5 7.5v96.207h15v-96.207c0-4.142-3.357-7.5-7.5-7.5z"/><g><path d="m57.69 483.155v18.543c0 5.689 4.612 10.302 10.302 10.302h55.354l28.845-28.845z"/><path d="m425.465 324.37v148.483c0 5.69-4.612 10.302-10.302 10.302h-126.479l-11.246 11.246c-8.317 8.317-18.579 14.351-29.796 17.599h196.366c5.69 0 10.302-4.612 10.302-10.302v-125.052c0-22.013-11.517-41.325-28.845-52.276z"/></g></g><path d="m329.252 421.816c-5.736-5.736-15.035-5.736-20.771 0l12.686-12.686c5.736-5.736 5.736-15.035 0-20.771s-15.035-5.736-20.77 0l8.677-8.677c5.736-5.736 5.736-15.035 0-20.771s-15.035-5.736-20.771 0l-8.678 8.678c5.735-5.736 5.735-15.035 0-20.77-5.736-5.736-15.035-5.736-20.771 0l-38.94 38.94-17.302 17.302v-26.043c0-7.908-6.078-14.713-13.977-15.085-8.434-.397-15.397 6.323-15.397 14.67l-.488 67.755c-.095 11.782-4.818 23.055-13.149 31.386l-36.255 36.256h124.297c11.217-3.249 21.479-9.283 29.796-17.599l51.814-51.814c5.735-5.736 5.735-15.036-.001-20.771z" fill="#ffdfcf"/><path d="m112.001 483.155h15v28.845h-15z" fill="#814aa0"/><g><g><g><path d="m279.627 346.817c-.146-.146-.303-.272-.453-.41l-47.017 47.017c-2.987 2.987-2.987 7.83 0 10.817 2.987 2.987 7.83 2.987 10.817 0l36.654-36.654c5.734-5.735 5.734-15.034-.001-20.77z" fill="#ffcebf"/></g></g><g><path d="m320.728 387.936-47.03 47.03c-2.987 2.987-2.987 7.83 0 10.817 2.987 2.987 7.83 2.987 10.817 0l36.653-36.654c5.879-5.878 5.732-15.501-.44-21.193z" fill="#ffcebf"/></g><g><g><path d="m308.635 358.487-55.708 55.708c-2.987 2.987-2.987 7.83 0 10.817 2.987 2.987 7.83 2.987 10.817 0l45.331-45.331c5.879-5.879 5.732-15.502-.44-21.194z" fill="#ffcebf"/></g></g></g><g><path d="m148.436 145.307h23.664c4.358 0 8.244-2.742 9.705-6.847l10.673-29.982c2.046-5.747 7.487-9.586 13.587-9.586h99.871c6.087 0 11.546 3.853 13.588 9.587l10.428 29.297c1.605 4.505 5.895 7.532 10.677 7.532h22.937c4.828 0 9.402 1.11 13.482 3.086v-55.678c-.002-51.205-41.512-92.716-92.718-92.716h-56.66c-51.206 0-92.716 41.511-92.716 92.716v55.676c4.079-1.975 8.653-3.085 13.482-3.085z" fill="#d88a55"/></g><g><g><path d="m284.33 0h-12.484c25.871 16.45 43.038 45.366 43.038 78.294v23.728c2.075 1.643 3.712 3.853 4.639 6.456l10.428 29.297c1.605 4.505 5.895 7.532 10.677 7.532h22.937c4.828 0 9.402 1.11 13.482 3.086v-55.677c-.001-51.205-41.511-92.716-92.717-92.716z" fill="#c57a44"/></g></g><g><g><path d="m162.09 144.277h-13.654c-17.706 0-32.06 14.354-32.06 32.06 0 17.706 14.354 32.06 32.06 32.06h13.654z" fill="#ffcebf"/></g></g><g><path d="m363.564 144.277h-13.654v64.121h13.654c17.706 0 32.06-14.354 32.06-32.06.001-17.707-14.353-32.061-32.06-32.061z" fill="#ffb09e"/></g><path d="m340.627 144.277c-4.358 0-8.244-2.742-9.705-6.847l-10.428-29.297c-2.192-6.158-8.021-10.271-14.558-10.271h-99.871c-6.537 0-12.366 4.113-14.558 10.271l-10.428 29.297c-1.461 4.105-5.348 6.847-9.705 6.847h-10.314v68.065c0 36.982 29.98 66.962 66.962 66.962h55.958c36.982 0 66.962-29.98 66.962-66.962v-68.065z" fill="#ffdfcf"/><g><path d="m340.627 144.277c-4.358 0-8.244-2.742-9.705-6.847l-10.428-29.297c-1.09-3.062-3.081-5.618-5.61-7.414v118.835c0 26.105-14.949 48.705-36.744 59.75h5.838c36.982 0 66.962-29.98 66.962-66.962v-68.065z" fill="#ffcebf"/></g><g><g><path d="m89.561 210.985 11.091 20.279c.284.519.71.945 1.229 1.229l20.279 11.091c2.143 1.172 2.143 4.251 0 5.423l-20.279 11.091c-.519.284-.945.71-1.229 1.229l-11.091 20.279c-1.172 2.143-4.251 2.143-5.423 0l-11.091-20.279c-.284-.519-.71-.945-1.229-1.229l-20.279-11.091c-2.143-1.172-2.143-4.251 0-5.423l20.279-11.091c.519-.284.945-.71 1.229-1.229l11.091-20.279c1.172-2.143 4.251-2.143 5.423 0z" fill="#ffe177"/></g><g><path d="m427.862 210.985 11.091 20.279c.284.519.71.945 1.229 1.229l20.279 11.091c2.143 1.172 2.143 4.251 0 5.423l-20.279 11.091c-.519.284-.945.71-1.229 1.229l-11.091 20.279c-1.172 2.143-4.251 2.143-5.423 0l-11.091-20.279c-.284-.519-.71-.945-1.229-1.229l-20.279-11.091c-2.143-1.172-2.143-4.251 0-5.423l20.279-11.091c.519-.284.945-.71 1.229-1.229l11.091-20.279c1.172-2.143 4.251-2.143 5.423 0z" fill="#ffe177"/></g><g><g><path d="m460.461 243.584-15.439-8.444-17.41 9.522c-1.729.945-3.15 2.367-4.095 4.095l-9.522 17.41 8.444 15.439c1.172 2.143 4.251 2.143 5.423 0l11.091-20.279c.284-.519.71-.945 1.229-1.229l20.279-11.091c2.143-1.172 2.143-4.251 0-5.423z" fill="#ffd15b"/></g></g><g><g><path d="m122.16 243.584-15.439-8.444-17.41 9.522c-1.729.945-3.15 2.367-4.095 4.095l-9.522 17.41 8.444 15.439c1.172 2.143 4.251 2.143 5.423 0l11.091-20.279c.284-.519.71-.945 1.229-1.229l20.279-11.091c2.143-1.172 2.143-4.251 0-5.423z" fill="#ffd15b"/></g></g></g></g><g><path d="m328.823 421.403c-.01 0-.017 0-.027 0l-54.233 54.212c-4.83 4.828-11.379 7.54-18.208 7.54h-104.164l-28.845 28.845h124.297c11.217-3.249 21.479-9.283 29.796-17.599l51.814-51.814c5.875-5.876 5.732-15.491-.43-21.184z" fill="#ffcebf"/></g></g><g><g><path d="m255.995 208.04c-1.081 0-2.179-.235-3.22-.73l-7.589-3.614c-6.765-3.221-11.055-9.875-11.197-17.366-.144-7.491 3.891-14.304 10.527-17.78 2.457-1.287 3.983-3.809 3.983-6.582v-5.032c0-4.142 3.357-7.5 7.5-7.5s7.5 3.358 7.5 7.5v5.032c0 8.371-4.606 15.985-12.022 19.869-2.298 1.204-2.508 3.343-2.491 4.208.017.864.308 2.994 2.649 4.109l7.589 3.614c3.739 1.781 5.328 6.256 3.547 9.996-1.285 2.697-3.973 4.276-6.776 4.276z" fill="#ffb09e"/></g><g><path d="m256 246.143c-9.683 0-19.366-2.396-28.192-7.188-3.641-1.976-4.989-6.529-3.014-10.169 1.977-3.641 6.53-4.989 10.17-3.013 13.172 7.15 28.9 7.15 42.072 0 3.639-1.976 8.193-.628 10.17 3.013 1.976 3.64.627 8.193-3.014 10.169-8.826 4.793-18.509 7.188-28.192 7.188z" fill="#ffb09e"/></g><g><g><g><path d="m296.281 167.13c-6.088 0-12.177-2.317-16.812-6.952-2.93-2.929-2.93-7.678-.001-10.607 2.93-2.929 7.679-2.929 10.606 0 3.421 3.421 8.99 3.422 12.413 0 2.929-2.929 7.678-2.927 10.606 0 2.929 2.929 2.929 7.678-.001 10.607-4.633 4.635-10.722 6.952-16.811 6.952z" fill="#ffb09e"/></g></g><g><g><path d="m215.719 167.13c-6.089 0-12.178-2.317-16.812-6.952-2.93-2.929-2.93-7.678-.001-10.607 2.93-2.929 7.679-2.929 10.606 0 3.423 3.423 8.992 3.421 12.413 0 2.929-2.929 7.678-2.927 10.606 0 2.929 2.929 2.929 7.678-.001 10.607-4.634 4.635-10.723 6.952-16.811 6.952z" fill="#ffb09e"/></g></g></g><g><g><g id="_x3C_Radial_Repeat_x3E__00000036211706476293506340000015927137848727092120_"><g><path d="m92.066 128.088c-2.592 0-5.113-1.345-6.502-3.751-2.071-3.587-.842-8.174 2.745-10.245l9.688-5.593c3.589-2.072 8.175-.843 10.245 2.745 2.071 3.587.842 8.174-2.745 10.245l-9.688 5.593c-1.181.682-2.47 1.006-3.743 1.006z" fill="#ffe177"/></g></g><g id="_x3C_Radial_Repeat_x3E__00000073688322479258471290000017122812742621708179_"><g><path d="m91.42 83.949h-11.187c-4.143 0-7.5-3.358-7.5-7.5s3.357-7.5 7.5-7.5h11.187c4.143 0 7.5 3.358 7.5 7.5s-3.358 7.5-7.5 7.5z" fill="#ffe177"/></g></g><g id="_x3C_Radial_Repeat_x3E__00000127738968450044070860000001916289975468927914_"><g><path d="m101.741 45.406c-1.272 0-2.562-.324-3.743-1.006l-9.688-5.593c-3.587-2.071-4.816-6.658-2.745-10.245 2.07-3.588 6.658-4.817 10.245-2.745l9.688 5.593c3.587 2.071 4.816 6.658 2.745 10.245-1.389 2.406-3.91 3.751-6.502 3.751z" fill="#ffe177"/></g></g></g><g><g id="_x3C_Radial_Repeat_x3E__00000044888618218257827180000009298593603997777595_"><g><path d="m419.934 128.088c-1.272 0-2.562-.324-3.743-1.006l-9.688-5.593c-3.587-2.071-4.816-6.658-2.745-10.245 2.07-3.587 6.655-4.817 10.245-2.745l9.688 5.593c3.587 2.071 4.816 6.658 2.745 10.245-1.389 2.406-3.911 3.751-6.502 3.751z" fill="#ffe177"/></g></g><g id="_x3C_Radial_Repeat_x3E__00000081633396098155136410000008754224370506960277_"><g><path d="m431.767 83.949h-11.187c-4.143 0-7.5-3.358-7.5-7.5s3.357-7.5 7.5-7.5h11.187c4.143 0 7.5 3.358 7.5 7.5s-3.358 7.5-7.5 7.5z" fill="#ffe177"/></g></g><g id="_x3C_Radial_Repeat_x3E__00000130628416982447104900000010727289424375941791_"><g><path d="m410.259 45.406c-2.592 0-5.112-1.345-6.502-3.751-2.071-3.587-.842-8.174 2.745-10.245l9.688-5.593c3.585-2.071 8.173-.842 10.245 2.745 2.071 3.587.842 8.174-2.745 10.245l-9.688 5.593c-1.181.682-2.471 1.006-3.743 1.006z" fill="#ffe177"/></g></g></g></g></g><path d="m384.999 483.155h15v28.845h-15z" fill="#814aa0"/></g><g/><g/><g/><g/><g/><g/><g/><g/><g/><g/><g/><g/><g/><g/><g/></svg>