<svg width="512" height="512" viewBox="0 0 512 512" fill="none" xmlns="http://www.w3.org/2000/svg">
<g opacity="0.4">
<path d="M49.0733 431.301C49.0213 431.301 48.9773 431.301 48.9253 431.301C36.1843 431.301 25.8613 420.969 25.8613 408.237C25.8613 395.496 36.1843 385.164 48.9253 385.164C49.0913 385.164 49.2573 385.164 49.4223 385.173H215.29C215.456 385.164 215.622 385.164 215.787 385.164C228.528 385.164 238.851 395.496 238.851 408.237C238.851 420.969 228.528 431.301 215.787 431.301C215.735 431.301 215.691 431.301 215.639 431.301" fill="#F1B986"/>
<path d="M215.013 440.784C213.804 464.402 194.903 483.207 171.277 484.321C152.281 485.22 133.293 485.443 114.305 485.005L114.297 484.997C107.869 484.846 101.45 484.623 95.0296 484.321C71.4116 483.207 52.5106 464.402 51.2936 440.784C50.9196 433.474 50.8166 417.095 50.8246 400.899C50.8326 379.803 51.0156 359.017 51.0156 359.017H215.291C215.291 359.017 215.371 367.791 215.418 379.731C215.522 400.262 215.554 430.14 215.013 440.784Z" fill="#F1D0A5"/>
<path d="M114.297 484.996C107.869 484.845 101.45 484.622 95.0296 484.32C71.4116 483.206 52.5106 464.401 51.2936 440.783C50.9196 433.473 50.8166 417.094 50.8246 400.898C50.8326 379.802 51.0156 359.016 51.0156 359.016H93.5976C93.0096 439.065 89.0076 473.279 114.297 484.996Z" fill="#F1B986"/>
<path d="M133.154 450.595C123.678 450.595 114.93 445.063 110.868 436.501C109.427 433.463 110.72 429.831 113.759 428.389C116.799 426.948 120.43 428.241 121.871 431.28C123.927 435.615 128.357 438.417 133.154 438.417C137.951 438.417 142.381 435.615 144.439 431.28C145.881 428.241 149.512 426.948 152.551 428.39C155.589 429.832 156.883 433.464 155.44 436.502C151.377 445.063 142.628 450.595 133.154 450.595Z" fill="#DA4A54"/>
<path d="M99.2637 281.544H166.918C193.635 281.544 215.293 303.202 215.293 329.919V359.013H50.8887V329.919C50.8887 303.202 72.5467 281.544 99.2637 281.544Z" fill="#8078BC"/>
<path d="M130.214 281.544C103.494 281.544 93.5977 303.205 93.5977 329.917V359.016H50.8877V329.917C50.8877 303.205 72.5407 281.544 99.2607 281.544H130.214Z" fill="#5E54AC"/>
<path d="M68.803 359.016H7.611C3.407 359.016 0 355.608 0 351.404C0 347.2 3.407 343.793 7.611 343.793H68.802C73.006 343.793 76.413 347.201 76.413 351.404C76.414 355.608 73.007 359.016 68.803 359.016Z" fill="#5E54AC"/>
<path d="M166.966 323.036H152.028C141.982 323.036 133.837 331.18 133.837 341.227V359.013H185.156V341.227C185.156 331.181 177.012 323.036 166.966 323.036Z" fill="#E27D47"/>
<path d="M257.703 469.358C268.036 459.026 272.362 446.601 267.367 441.605C262.372 436.61 249.946 440.937 239.614 451.269C229.282 461.601 224.956 474.026 229.951 479.021C234.946 484.016 247.371 479.69 257.703 469.358Z" fill="#934D36"/>
<path d="M468.116 479.043C473.111 474.048 468.785 461.623 458.452 451.291C448.12 440.958 435.695 436.632 430.7 441.627C425.705 446.622 430.031 459.048 440.363 469.38C450.695 479.712 463.121 484.038 468.116 479.043Z" fill="#AA593D"/>
<path d="M463.74 379.384C463.74 432.752 412.42 476.016 349.115 476.016C344.837 476.016 340.622 475.818 336.471 475.429C279.119 470.127 234.498 429.149 234.498 379.385C234.498 326.009 285.818 282.745 349.115 282.745C412.421 282.744 463.74 326.008 463.74 379.384Z" fill="#AA593D"/>
<path d="M302.709 369.105L336.473 475.428C279.121 470.126 234.5 429.148 234.5 379.384C234.5 326.008 285.82 282.744 349.117 282.744C310.05 290.967 302.709 342.62 302.709 369.105Z" fill="#934D36"/>
<path d="M430.794 441.625C429.588 465.19 410.73 483.952 387.157 485.064C367.188 486.009 347.218 486.207 327.241 485.659H327.233C321.852 485.516 316.463 485.318 311.081 485.064C287.516 483.953 268.658 465.19 267.444 441.625C266.587 424.83 267.166 360.042 267.166 360.042C267.166 360.042 281.024 367.606 302.707 369.106C324.835 370.63 355.122 365.844 387.124 340.247C387.124 340.247 407.792 370.447 431.19 378.431C431.302 398.916 431.358 430.6 430.794 441.625Z" fill="#F1D0A5"/>
<path d="M327.234 485.659C321.853 485.516 316.464 485.318 311.082 485.064C287.517 483.953 268.659 465.19 267.445 441.625C266.588 424.83 267.167 360.042 267.167 360.042C267.167 360.042 281.025 367.606 302.708 369.106C303.359 445.744 311.733 485.071 327.234 485.659Z" fill="#F1B986"/>
<path d="M349.121 451.428C339.662 451.428 330.93 445.905 326.873 437.358C325.431 434.32 326.724 430.688 329.762 429.246C332.801 427.805 336.432 429.098 337.875 432.136C339.926 436.457 344.34 439.249 349.121 439.249C353.902 439.249 358.317 436.457 360.367 432.136C361.809 429.098 365.439 427.804 368.479 429.245C371.517 430.687 372.811 434.318 371.37 437.357C367.314 445.905 358.581 451.428 349.121 451.428Z" fill="#DA4A54"/>
<path d="M400.059 437.371C406.764 437.371 412.2 433.944 412.2 429.717C412.2 425.489 406.764 422.062 400.059 422.062C393.354 422.062 387.918 425.489 387.918 429.717C387.918 433.944 393.354 437.371 400.059 437.371Z" fill="#EAAC9D"/>
<path d="M298.18 437.371C304.885 437.371 310.321 433.944 310.321 429.717C310.321 425.489 304.885 422.062 298.18 422.062C291.475 422.062 286.039 425.489 286.039 429.717C286.039 433.944 291.475 437.371 298.18 437.371Z" fill="#EAAC9D"/>
<path d="M94.9572 390.734C90.7932 390.734 87.4072 395.758 87.4072 401.934C87.4072 408.11 90.7942 413.134 94.9572 413.134C99.1202 413.134 102.508 408.11 102.508 401.934C102.508 395.758 99.1212 390.734 94.9572 390.734Z" fill="#454045"/>
<path d="M171.354 413.134C175.524 413.134 178.905 408.12 178.905 401.934C178.905 395.749 175.524 390.734 171.354 390.734C167.183 390.734 163.803 395.749 163.803 401.934C163.803 408.12 167.183 413.134 171.354 413.134Z" fill="#454045"/>
<path d="M311.012 391.688C306.857 391.688 303.478 396.701 303.478 402.863C303.478 409.025 306.858 414.038 311.012 414.038C315.166 414.038 318.547 409.025 318.547 402.863C318.547 396.701 315.166 391.688 311.012 391.688Z" fill="#454045"/>
<path d="M387.235 414.038C391.396 414.038 394.769 409.035 394.769 402.863C394.769 396.692 391.396 391.688 387.235 391.688C383.074 391.688 379.701 396.692 379.701 402.863C379.701 409.035 383.074 414.038 387.235 414.038Z" fill="#454045"/>
</g>
<path d="M512 280.087C512 280.087 483.042 312.02 410.798 304.918H281.768C209.513 312.02 180.555 280.087 180.555 280.087C197.621 263.021 197.102 226.308 197.102 161.145C197.102 95.982 222.96 26.04 346.278 26.04C469.596 26.04 495.453 95.983 495.453 161.146C495.453 226.309 494.934 263.021 512 280.087Z" fill="#E27D47"/>
<path d="M296.49 159.3V304.919H281.767C209.512 312.021 180.554 280.088 180.554 280.088C197.62 263.022 197.101 226.309 197.101 161.146C197.101 95.983 222.96 26.04 346.278 26.04C289.16 26.04 296.49 101.602 296.49 159.3Z" fill="#DD542E"/>
<path d="M452.965 233.587C451.399 264.37 426.765 288.88 395.962 290.331C371.732 291.472 347.502 291.783 323.261 291.254C323.23 291.254 323.188 291.254 323.157 291.244C314.303 291.057 305.448 290.746 296.594 290.332C265.801 288.881 241.167 264.371 239.591 233.588C238.461 211.649 238.347 189.721 239.218 167.782H239.228C239.228 167.782 264.536 166.496 296.491 159.301C324.889 152.914 358.533 141.852 384.318 122.878C384.318 122.878 411.213 167.782 453.338 167.782C454.219 189.72 454.095 211.648 452.965 233.587Z" fill="#F1D0A5"/>
<path d="M264.553 170.199L105.744 170.879L26.884 171.211C20.873 116.322 3.42401 45.0379 67.531 32.3339C82.922 29.2809 96.783 27.4699 109.24 26.6199C192.683 20.9569 213.44 58.6349 213.44 58.6349C213.44 58.6349 228.542 45.3699 244.962 46.7219C250.897 47.2069 257.011 49.6129 262.64 55.2419C292.334 84.9359 264.553 170.199 264.553 170.199Z" fill="#AA593D"/>
<path d="M244.962 46.7217C225.455 60.1227 212.692 100.225 206.782 123.082C201 99.7997 208.066 74.1707 213.44 58.6347C213.44 58.6347 228.542 45.3697 244.962 46.7217Z" fill="#934D36"/>
<path d="M96.952 111.721L105.744 170.879L26.884 171.211C20.873 116.322 3.42401 45.0381 67.531 32.3341C82.922 29.2811 96.783 27.4701 109.24 26.6201C109.24 26.6291 109.232 26.6291 109.232 26.6291C77.131 46.3731 87.046 81.5431 96.952 111.721Z" fill="#934D36"/>
<path d="M254.045 214.546H254.195C267.111 214.546 277.576 204.072 277.576 191.165C277.576 178.249 267.111 167.775 254.195 167.775C254.027 167.775 253.859 167.775 253.691 167.784H39.5891C39.4211 167.775 39.2531 167.775 39.0851 167.775C26.1691 167.775 15.7041 178.249 15.7041 191.165C15.7041 204.072 26.1691 214.546 39.0851 214.546H39.2351" fill="#F1B986"/>
<path opacity="0.4" d="M323.157 291.243C314.303 291.056 305.448 290.745 296.594 290.331C265.801 288.88 241.167 264.37 239.591 233.587C238.461 211.648 238.347 189.72 239.218 167.781H239.228C239.228 167.781 264.536 166.495 296.491 159.3V159.31C289.357 220.481 296.573 290.144 323.157 291.243Z" fill="#F1B986"/>
<path d="M254.273 196.644C254.273 208.957 253.958 221.278 253.329 233.591C251.756 264.373 227.122 288.88 196.323 290.334C174.792 291.354 153.253 291.703 131.723 291.397H131.714C120.124 291.235 108.542 290.878 96.9519 290.334C66.1609 288.88 41.5269 264.373 39.9449 233.591C38.8229 211.652 38.7039 189.722 39.5789 167.784H39.5879C51.5949 163.337 58.7379 149.51 62.9809 134.136C67.3349 118.362 82.4449 109.74 96.9519 111.721C102.607 112.495 108.176 114.884 112.972 119.085C122.606 127.52 134.622 131.738 146.637 131.738C158.652 131.738 170.676 127.52 180.31 119.085C186.279 113.855 193.431 111.44 200.471 111.44C213.609 111.44 226.355 119.858 230.301 134.135C234.536 149.509 241.679 163.335 253.694 167.783C254.086 177.41 254.273 187.027 254.273 196.644Z" fill="#F1D0A5"/>
<path d="M131.714 291.397C120.124 291.235 108.542 290.878 96.9519 290.334C66.1609 288.88 41.5269 264.373 39.9449 233.591C38.8229 211.652 38.7039 189.722 39.5789 167.784H39.5879C51.5949 163.337 58.7379 149.51 62.9809 134.136C67.3349 118.362 82.4449 109.74 96.9519 111.721C85.9399 210.046 96.9519 290.317 131.714 291.397Z" fill="#F1B986"/>
<path d="M279.737 228.03C288.496 228.03 295.597 223.554 295.597 218.031C295.597 212.509 288.496 208.032 279.737 208.032C270.978 208.032 263.877 212.509 263.877 218.031C263.877 223.554 270.978 228.03 279.737 228.03Z" fill="#EAAC9D"/>
<path d="M412.822 228.03C421.581 228.03 428.682 223.554 428.682 218.031C428.682 212.509 421.581 208.032 412.822 208.032C404.063 208.032 396.962 212.509 396.962 218.031C396.962 223.554 404.063 228.03 412.822 228.03Z" fill="#EAAC9D"/>
<path d="M296.494 173.615C291.11 173.615 286.73 180.128 286.73 188.135C286.73 196.142 291.111 202.655 296.494 202.655C301.879 202.655 306.259 196.141 306.259 188.135C306.259 180.129 301.878 173.615 296.494 173.615Z" fill="#454045"/>
<path d="M396.066 173.615C390.682 173.615 386.302 180.128 386.302 188.135C386.302 196.142 390.683 202.655 396.066 202.655C401.451 202.655 405.831 196.141 405.831 188.135C405.831 180.129 401.451 173.615 396.066 173.615Z" fill="#454045"/>
<path d="M96.8538 168.432C91.4698 168.432 87.0898 174.946 87.0898 182.952C87.0898 190.958 91.4708 197.472 96.8538 197.472C102.239 197.472 106.619 190.958 106.619 182.952C106.619 174.946 102.239 168.432 96.8538 168.432Z" fill="#454045"/>
<path d="M196.426 168.432C191.041 168.432 186.661 174.946 186.661 182.952C186.661 190.958 191.042 197.472 196.426 197.472C201.81 197.472 206.19 190.958 206.19 182.952C206.19 174.946 201.81 168.432 196.426 168.432Z" fill="#454045"/>
<path d="M346.28 246.049C334.055 246.049 322.769 238.911 317.527 227.865C315.724 224.067 317.342 219.528 321.139 217.725C324.936 215.923 329.476 217.54 331.279 221.338C334.014 227.101 339.902 230.825 346.28 230.825C352.658 230.825 358.546 227.101 361.281 221.338C363.083 217.539 367.622 215.924 371.421 217.725C375.219 219.527 376.836 224.067 375.033 227.865C369.792 238.911 358.505 246.049 346.28 246.049Z" fill="#DA4A54"/>
<path d="M94.2314 252.854H120.256C134.826 252.854 146.637 241.043 146.637 226.473V216.307H120.612C106.042 216.307 94.2314 228.118 94.2314 242.688V252.854Z" fill="#AA593D"/>
<path d="M199.044 252.854H173.019C158.449 252.854 146.638 241.043 146.638 226.473V216.307H172.663C187.233 216.307 199.044 228.118 199.044 242.688V252.854Z" fill="#AA593D"/>
</svg>
