<svg id="Capa_1" enable-background="new 0 0 511.965 511.965" height="300" viewBox="0 0 511.965 511.965" width="300" xmlns="http://www.w3.org/2000/svg" version="1.1" xmlns:xlink="http://www.w3.org/1999/xlink" xmlns:svgjs="http://svgjs.dev/svgjs"><g width="100%" height="100%" transform="matrix(1,0,0,1,0,0)"><g><path d="m342.657 511.22h-59.69l-7.497-4.979-7.503 4.979h-38.06l-50.86-4.392-50.86 4.392h-38.07l-7.5-3.61-7.5 3.61h-59.68c-9.38 0-16.59-8.3-15.28-17.58l15.74-111.99c3.85-27.4 24.18-49.59 51.14-55.83l46.19-10.69 131.95.08 45.88 10.61c26.95 6.24 47.29 28.43 51.14 55.83l15.74 111.99c1.3 9.28-5.9 17.58-15.28 17.58z" fill="#7a6d79" fill-opacity="1" data-original-color="#7a6d79ff" stroke="none" stroke-opacity="1"/><path d="m267.967 511.22v-88.84c0-4.15 3.36-7.5 7.5-7.5s7.5 3.35 7.5 7.5v88.84z" fill="#685e68" fill-opacity="1" data-original-color="#685e68ff" stroke="none" stroke-opacity="1"/><path d="m127.507 331.15-34.76 8.04c-26.95 6.24-47.28 28.43-51.13 55.84l-13.96 99.29c-1.08 7.68 3.69 14.74 10.74 16.9h-22.96c-9.38 0-16.59-8.3-15.28-17.58l15.74-111.99c3.85-27.4 24.18-49.59 51.14-55.83l46.19-10.69 9.12.01z" fill="#685e68" fill-opacity="1" data-original-color="#685e68ff" stroke="none" stroke-opacity="1"/><path d="m247.118 315.66-58.793 36.124h-18.112l-53.284-37.503 18.113.937c5.606-1.296 16.435-24.423 16.435-30.172l65.709 3.572v10.296c0 5.75 3.96 10.739 9.566 12.035z" fill="#ffbd86" fill-opacity="1" data-original-color="#ffbd86ff" stroke="none" stroke-opacity="1"/><path d="m204.842 226.44h-51.594c-6.817 0-12.343 5.526-12.343 12.343v60.135c0 5.748-3.966 10.736-9.566 12.031l-14.411 3.333 20.664 14.544 19.461-4.505c5.606-1.296 9.566-6.285 9.566-12.035v-11.671c0-2.422 2.079-4.294 4.493-4.093 2.571.214 5.172.324 7.799.324 13.649 0 26.6-2.942 38.274-8.229v-49.835c0-6.816-5.526-12.342-12.343-12.342z" fill="#f6a96c" fill-opacity="1" data-original-color="#f6a96cff" stroke="none" stroke-opacity="1"/><path d="m245.066 30.83h-78.289c-6.873 0-12.444 5.571-12.444 12.444v115.364l151.15-5.636v-61.754c.001-33.368-27.049-60.418-60.417-60.418z" fill="#bc7c63" fill-opacity="1" data-original-color="#bc7c63ff" stroke="none" stroke-opacity="1"/><path d="m269.827 36.13v118.2l-28.57 1.07v-124.57h3.81c8.82 0 17.21 1.89 24.76 5.3z" fill="#aa6a51" fill-opacity="1" data-original-color="#aa6a51ff" stroke="none" stroke-opacity="1"/><path d="m220.608.005h-85.713c-45.446 0-82.288 36.841-82.288 82.288v70.71l192.167-3.874v-124.958c0-13.346-10.819-24.166-24.166-24.166z" fill="#bc7c63" fill-opacity="1" data-original-color="#bc7c63ff" stroke="none" stroke-opacity="1"/><path d="m134.897 0c-45.45 0-82.29 36.85-82.29 82.29v70.71l25.19-.51v-70.09c0-41.03 29.49-75.19 68.45-82.4z" fill="#aa6a51" fill-opacity="1" data-original-color="#aa6a51ff" stroke="none" stroke-opacity="1"/><path d="m277.349 181.942h-196.607c-15.538 0-28.135-12.596-28.135-28.135v-1.609c0-15.538 12.596-28.135 28.135-28.135h196.607c15.538 0 28.135 12.596 28.135 28.135v1.609c0 15.538-12.597 28.135-28.135 28.135z" fill="#f6a96c" fill-opacity="1" data-original-color="#f6a96cff" stroke="none" stroke-opacity="1"/><path d="m176.325 276.277h5.166c49.883 0 90.321-40.438 90.321-90.321v-60.191c0-29.708-24.083-53.79-53.79-53.79h-78.228c-29.708 0-53.79 24.083-53.79 53.79v60.191c0 49.882 40.438 90.321 90.321 90.321z" fill="#fed2a4" fill-opacity="1" data-original-color="#fed2a4ff" stroke="none" stroke-opacity="1"/><path d="m186.237 276.15c-1.57.09-3.16.13-4.75.13h-5.16c-49.89 0-90.32-40.44-90.32-90.32v-60.2c0-29.7 24.08-53.79 53.79-53.79h13.11c-24.02 6.46-41.71 28.39-41.71 54.45v57.13c0 45.55 32.18 83.58 75.04 92.6z" fill="#ffbd86" fill-opacity="1" data-original-color="#ffbd86ff" stroke="none" stroke-opacity="1"/><path d="m229.907 350.11v161.11h-44.39l-7.5-3.18-7.5 3.18h-42.33v-160.98l42.33-.05 15-.02z" fill="#b7e9ff" fill-opacity="1" data-original-color="#f2fbffff" stroke="none" stroke-opacity="1"/><path d="m185.517 350.17v161.05h-15v-161.03z" fill="#685e68" fill-opacity="1" data-original-color="#685e68ff" stroke="none" stroke-opacity="1"/><path d="m96.742 319.268 23.241-23.241c1.562-1.562 4.095-1.562 5.657 0l52.282 52.282c1.562 1.562 1.562 4.095 0 5.657l-21.827 21.827c-1.562 1.562-4.095 1.562-5.657 0l-53.696-53.696c-.781-.782-.781-2.048 0-2.829z" fill="#6dbfd8" fill-opacity="1" data-original-color="#dff6fdff" stroke="none" stroke-opacity="1"/><path d="m166.197 365.69-10.1 10.1c-1.56 1.56-4.1 1.56-5.66 0l-53.7-53.69c-.78-.78-.78-2.05 0-2.83l23.25-23.24c1.56-1.57 4.09-1.57 5.65 0l9.67 9.67-13.06 13.05c-.82.83-.82 2.17 0 2.99z" fill="#c8effe" fill-opacity="1" data-original-color="#c8effeff" stroke="none" stroke-opacity="1"/><path d="m261.349 319.268-23.241-23.241c-1.562-1.562-4.095-1.562-5.657 0l-52.282 52.282c-1.562 1.562-1.562 4.095 0 5.657l21.827 21.827c1.562 1.562 4.095 1.562 5.657 0l53.696-53.696c.781-.782.781-2.048 0-2.829z" fill="#6dbfd8" fill-opacity="1" data-original-color="#dff6fdff" stroke="none" stroke-opacity="1"/><path d="m205.747 354.57 11.56 11.57-9.65 9.65c-1.57 1.56-4.1 1.56-5.66 0l-21.83-21.82c-1.56-1.57-1.56-4.1 0-5.66l52.28-52.28c1.57-1.57 4.1-1.57 5.66 0l10.1 10.1-42.46 42.45c-1.66 1.66-1.66 4.34 0 5.99z" fill="#c8effe" fill-opacity="1" data-original-color="#c8effeff" stroke="none" stroke-opacity="1"/><path d="m324.846 504.485-4.128-1.925c-22.759-10.613-38.145-30.612-43.698-53.239-.663-2.703 4.943-4.782 4.565-7.548-.3-2.196-6.639-5.07-6.756-7.293-.48-9.185.63-18.55 3.478-27.69 1.056-3.39 5.864-3.663 7.406-6.97l-.694-9.129 38.51-82.585 8.273-1.431-.654-14.909 24.863-53.32c18.587-39.859 65.966-57.104 105.825-38.517l4.128 1.925c39.859 18.587 57.104 65.966 38.517 105.825l-73.811 158.289c-18.586 39.858-65.965 57.103-105.824 38.517z" fill="#b7e9ff" fill-opacity="1" data-original-color="#f2fbffff" stroke="none" stroke-opacity="1"/><path d="m475.277 206.97c-38.06-10.94-79.65 7.37-96.92 44.41l-31.138 66.771-11.842 1.731 4.223 14.609-24.208 51.911-15.154 9.882 7.587 6.345-1.358 2.911c-3.834 8.218-6.184 16.764-7.161 25.33-.273 2.397-4.747 5.086-4.808 7.479-.068 2.684 4.305 5.07 4.497 7.731 1.79 24.684 14.659 47.983 35.881 62.29-3.38-1.06-6.73-2.35-10.03-3.89l-4.13-1.92c-22.758-10.614-38.143-30.614-43.696-53.238-.657-2.676 4.942-4.81 4.565-7.548-.307-2.223-6.639-5.042-6.756-7.292-.481-9.185.629-18.551 3.477-27.691 1.056-3.388 10.478-5.179 12.019-8.484l-5.306-7.615 38.513-82.583 10.293 1.6-2.673-17.94 24.865-53.318c18.58-39.86 65.96-57.11 105.82-38.52l4.13 1.92c3.25 1.51 6.34 3.22 9.28 5.09.01.009.02.019.03.029z" fill="#6dbfd8" fill-opacity="1" data-original-color="#dff6fdff" stroke="none" stroke-opacity="1"/><path d="m450.407 423.74-.05.01-173.33 25.57c-.428-1.746 4.477-4.208 4.167-5.982-.552-3.154-6.191-5.645-6.357-8.858l173.38-25.58c3.04-.44 5.93 1 7.45 3.45.54.85.91 1.82 1.07 2.88.6 4.1-2.23 7.91-6.33 8.51z" fill="#70b4d3" fill-opacity="1" data-original-color="#8795deff" stroke="none" stroke-opacity="1"/><path d="m398.319 338.14 2.6 1.212c25.104 11.706 54.945.845 66.651-24.259l10.185-21.843c9.147-19.617.66-42.935-18.956-52.082l-22.471-10.478c-19.617-9.147-42.935-.66-52.082 18.956l-10.185 21.843c-11.708 25.104-.846 54.945 24.258 66.651z" fill="#ffeee6" fill-opacity="1" data-original-color="#ffeee6ff" stroke="none" stroke-opacity="1"/><path d="m460.387 381.1-182.08 25.69c1.05-3.39 17-2.174 18.54-5.484l-11.83-10.616 173.27-24.45c4.1-.57 7.9 2.28 8.48 6.38.57 4.11-2.28 7.9-6.38 8.48z" fill="#70b4d3" fill-opacity="1" data-original-color="#8795deff" stroke="none" stroke-opacity="1"/><path d="m397.971 281.057 9.106-19.527c9.185-19.697 32.257-28.475 52.121-20.131-.467-.24-.935-.48-1.416-.704l-20.44-9.531c-20.178-9.409-44.162-.68-53.571 19.498l-9.106 19.528c-12.041 25.822-.869 56.516 24.953 68.556 4.023 1.876 8.165 3.188 12.336 3.969-17.769-14.589-24.148-39.86-13.983-61.658z" fill="#ffdfcf" fill-opacity="1" data-original-color="#ffdfcfff" stroke="none" stroke-opacity="1"/><path d="m431.93 404.836 13.632-29.234c4.347-9.322 15.427-13.355 24.749-9.008l7.423 3.461c9.322 4.347 13.355 15.427 9.008 24.749l-13.632 29.234c-4.347 9.322-15.427 13.355-24.749 9.008l-7.423-3.461c-9.322-4.347-13.355-15.427-9.008-24.749z" fill="#ffeee6" fill-opacity="1" data-original-color="#ffeee6ff" stroke="none" stroke-opacity="1"/><path d="m219.261 167.472c-4.143 0-7.5-3.357-7.5-7.5v-13.941c0-4.143 3.357-7.5 7.5-7.5s7.5 3.357 7.5 7.5v13.941c0 4.143-3.357 7.5-7.5 7.5z" fill="#685e68" fill-opacity="1" data-original-color="#685e68ff" stroke="none" stroke-opacity="1"/><path d="m138.83 167.472c-4.143 0-7.5-3.357-7.5-7.5v-13.941c0-4.143 3.357-7.5 7.5-7.5s7.5 3.357 7.5 7.5v13.941c0 4.143-3.358 7.5-7.5 7.5z" fill="#685e68" fill-opacity="1" data-original-color="#685e68ff" stroke="none" stroke-opacity="1"/><path d="m178.016 191.398c-4.245 0-8.491-1.316-12.114-3.949-3.352-2.435-4.094-7.125-1.659-10.476 2.435-3.352 7.128-4.093 10.476-1.659 1.974 1.433 4.625 1.433 6.595 0 3.35-2.432 8.041-1.693 10.477 1.658 2.435 3.352 1.692 8.041-1.658 10.477-3.625 2.633-7.871 3.949-12.117 3.949z" fill="#ffbd86" fill-opacity="1" data-original-color="#ffbd86ff" stroke="none" stroke-opacity="1"/><path d="m448.33 291.03c-1.062 0-2.14-.227-3.165-.704-3.754-1.751-5.378-6.213-3.628-9.968l2.019-4.329c1.752-3.754 6.216-5.375 9.968-3.628 3.754 1.751 5.378 6.213 3.628 9.968l-2.019 4.329c-1.273 2.728-3.979 4.332-6.803 4.332z" fill="#685e68" fill-opacity="1" data-original-color="#685e68ff" stroke="none" stroke-opacity="1"/><path d="m410.598 273.436c-1.062 0-2.14-.227-3.165-.704-3.754-1.751-5.378-6.213-3.628-9.968l2.019-4.329c1.751-3.754 6.216-5.374 9.968-3.628 3.754 1.751 5.378 6.213 3.628 9.968l-2.019 4.329c-1.273 2.729-3.979 4.332-6.803 4.332z" fill="#685e68" fill-opacity="1" data-original-color="#685e68ff" stroke="none" stroke-opacity="1"/><path d="m422.401 315.737c-7.863 0-15.175-3.491-20.127-9.63-2.602-3.224-2.096-7.945 1.128-10.546 3.224-2.603 7.946-2.096 10.546 1.128 2.127 2.636 5.272 4.12 8.677 4.045.049-.001.099-.001.147-.001 4.075 0 7.417 3.264 7.496 7.355.079 4.142-3.213 7.563-7.354 7.644-.171.003-.343.005-.513.005z" fill="#ffdfcf" fill-opacity="1" data-original-color="#ffdfcfff" stroke="none" stroke-opacity="1"/><path d="m382.427 390.38c-1.22.75-2.57 1.1-3.9 1.1-2.53 0-5-1.28-6.41-3.6l-48.58-79.77 10.092 4.043-2.472-20.384 53.77 88.31c2.16 3.531 1.04 8.151-2.5 10.301z" fill="#70b4d3" fill-opacity="1" data-original-color="#8795deff" stroke="none" stroke-opacity="1"/><path d="m90.117 422.38v88.84h-15v-88.84c0-4.15 3.36-7.5 7.5-7.5 4.15 0 7.5 3.35 7.5 7.5z" fill="#685e68" fill-opacity="1" data-original-color="#685e68ff" stroke="none" stroke-opacity="1"/><g fill="#6c7fd8"><path d="m298.997 446.08-21.97 3.24c-1.19-4.85-1.93-9.82-2.19-14.84l24.47-3.61c-.58 5.08-.68 10.17-.31 15.21z" fill="#2a90ad" fill-opacity="1" data-original-color="#6c7fd8ff" stroke="none" stroke-opacity="1"/><path d="m315.387 386.4-7.56 16.23-29.52 4.16c1.05-3.39 2.35-6.74 3.89-10.05l2.82-6.05z" fill="#2a90ad" fill-opacity="1" data-original-color="#6c7fd8ff" stroke="none" stroke-opacity="1"/><path d="m347.217 318.15-7.62 16.34-16.06-26.38 7.62-16.34z" fill="#2a90ad" fill-opacity="1" data-original-color="#6c7fd8ff" stroke="none" stroke-opacity="1"/></g><g><path d="m179.045 238.316c-8.837 0-17.671-3.232-24.557-9.698-3.02-2.835-3.168-7.582-.333-10.602 2.835-3.019 7.583-3.167 10.602-.333 8.012 7.523 20.564 7.524 28.577 0 3.019-2.835 7.765-2.688 10.602.333 2.835 3.02 2.686 7.766-.334 10.601-6.884 6.466-15.722 9.699-24.557 9.699z" fill="#f79595" fill-opacity="1" data-original-color="#f79595ff" stroke="none" stroke-opacity="1"/></g></g></g></svg>