<svg id="Capa_1" enable-background="new 0 0 512 512" height="300" viewBox="0 0 512 512" width="300" xmlns="http://www.w3.org/2000/svg" version="1.1" xmlns:xlink="http://www.w3.org/1999/xlink" xmlns:svgjs="http://svgjs.dev/svgjs"><g width="100%" height="100%" transform="matrix(1,0,0,1,0,0)"><g><g><g><g><path d="m266.488 151.948c6.308-23.43 12.982-48.409 9.072-72.829-3.936-24.584-21.663-43.494-42.517-56.012-11.835-7.104-24.678-12.46-37.791-16.702-21.083-6.821-43.856-8.149-65.639-4.197-16.07 2.916-31.027 6.297-44.024 16.423-2.064 1.608-13.15 10.656-19.731 19.707-11.002-6.192-27.007-6.203-37.498 1.322-9.216 6.611-13.642 19.912-14.751 30.76-2.613 25.544-.208 51.591 7.038 76.224l5.793 23.417h234.837z" fill="#4c3c27" fill-opacity="1" data-original-color="#537983ff" stroke="none" stroke-opacity="1"/><path d="m266.483 151.945-5.21 18.113h-21.908l4.38-15.21c6.574-24.441 13.539-50.503 9.457-75.98-4.103-25.652-22.595-45.375-44.349-58.431-12.35-7.417-25.755-13.007-39.427-17.427-3.446-1.118-6.933-2.092-10.462-2.923 12.308.421 24.564 2.523 36.288 6.318 13.108 4.246 25.959 9.6 37.795 16.698 20.852 12.523 38.575 31.436 42.513 56.021 3.908 24.42-2.769 49.395-9.077 72.821z" fill="#443a1e" fill-opacity="1" data-original-color="#3e5959ff" stroke="none" stroke-opacity="1"/><path d="m258.048 511.966h-226.927v-132.388c0-38.411 19.086-72.363 48.292-92.892 1.409-.99 4.59-.2 6.045-1.126 17.59-11.205 36.726-15.937 59.127-15.937 22.848 0 42.168 6.002 59.974 17.622 1.096.715 4.129-1.31 5.198-.559 29.206 20.528 48.292 54.481 48.292 92.892v132.388z" fill="#ffd6eb" fill-opacity="1" data-original-color="#eaf6ffff" stroke="none" stroke-opacity="1"/><path d="m258.05 379.574v132.396h-20.92v-132.396c0-59.143-45.242-107.702-103-112.972 3.445-.322 6.934-.483 10.455-.483 31.332 0 59.701 12.698 80.234 33.231 20.533 20.534 33.231 48.893 33.231 80.224z" fill="#ff95b7" fill-opacity="1" data-original-color="#d8ecfeff" stroke="none" stroke-opacity="1"/><g><g><path d="m93.721 395.776v116.186h-15.384v-116.186c0-4.257 3.446-7.692 7.692-7.692s7.692 3.435 7.692 7.692z" fill="#fc5d95" fill-opacity="1" data-original-color="#c4e2ffff" stroke="none" stroke-opacity="1"/></g></g><path d="m144.584 266.119v17.573c-6.24 10.728-38.16 66.291-55.605 46.787-4.085-4.563-6.006-11.259-7.64-17.021-2.441-8.585-2.939-17.87-1.921-26.763 18.443-12.968 40.919-20.576 65.166-20.576z" fill="#fc5d95" fill-opacity="1" data-original-color="#c4e2ffff" stroke="none" stroke-opacity="1"/><path d="m207.83 313.457c-1.634 5.762-3.555 12.458-7.64 17.021-17.456 19.504-49.365-36.058-55.605-46.787v-17.573c24.248 0 46.723 7.609 65.166 20.576 1.018 8.893.52 18.178-1.921 26.763z" fill="#fc5d95" fill-opacity="1" data-original-color="#c4e2ffff" stroke="none" stroke-opacity="1"/><path d="m207.826 313.454c-1.631 5.764-3.549 12.462-7.641 17.026-8.092 9.046-19.303 1.939-29.611-9.344 3.374.236 6.544-.964 9.333-4.082 4.092-4.564 6.01-11.262 7.641-17.016 2.246-7.887 2.851-16.369 2.133-24.595 7.087 3.077 13.816 6.851 20.072 11.251 1.017 8.893.514 18.176-1.927 26.76z" fill="#db3e85" fill-opacity="1" data-original-color="#b3dafeff" stroke="none" stroke-opacity="1"/><circle cx="144.585" cy="353.282" fill="#4c3c27" r="7.692" fill-opacity="1" data-original-color="#537983ff" stroke="none" stroke-opacity="1"/><path d="m144.648 285.243c-55.81 0-101.052-45.242-101.052-101.052v-78.659h202.104v78.659c0 55.809-45.242 101.052-101.052 101.052z" fill="#e5be95" fill-opacity="1" data-original-color="#fed2a4ff" stroke="none" stroke-opacity="1"/><path d="m245.704 105.534v78.657c0 55.806-45.242 101.047-101.058 101.047-3.518 0-6.985-.185-10.41-.533 50.913-5.21 90.637-48.226 90.637-100.514v-87.211z" fill="#a07958" fill-opacity="1" data-original-color="#ffbd86ff" stroke="none" stroke-opacity="1"/><path d="m44.622 193.347h-14.064c-12.078 0-21.87-9.792-21.87-21.87 0-12.078 9.792-21.87 21.87-21.87h14.064z" fill="#e5be95" fill-opacity="1" data-original-color="#fed2a4ff" stroke="none" stroke-opacity="1"/><g><g><path d="m95.361 190.964c-4.249 0-7.692-3.444-7.692-7.692v-18.874c0-4.249 3.444-7.692 7.692-7.692s7.692 3.444 7.692 7.692v18.874c.001 4.249-3.443 7.692-7.692 7.692z" fill="#4c3c27" fill-opacity="1" data-original-color="#537983ff" stroke="none" stroke-opacity="1"/></g><g><path d="m193.935 190.964c-4.249 0-7.692-3.444-7.692-7.692v-18.874c0-4.249 3.444-7.692 7.692-7.692s7.692 3.444 7.692 7.692v18.874c0 4.249-3.443 7.692-7.692 7.692z" fill="#4c3c27" fill-opacity="1" data-original-color="#537983ff" stroke="none" stroke-opacity="1"/></g></g><g><path d="m144.999 235.352c-8.797 0-17.124-3.367-23.446-9.48-3.054-2.954-3.135-7.824-.182-10.878s7.823-3.137 10.878-.182c3.438 3.324 7.966 5.155 12.751 5.155 4.534 0 8.886-1.667 12.255-4.694 3.16-2.84 8.024-2.578 10.863.581 2.84 3.16 2.579 8.024-.581 10.863-6.197 5.569-14.201 8.635-22.538 8.635z" fill="#4c3c27" fill-opacity="1" data-original-color="#537983ff" stroke="none" stroke-opacity="1"/></g><path d="m43.596 149.607s20.893-25.227 26.282-38.752c0 0 15.018 21.025 46.439 26.112 4.048.655 7.57-2.831 6.985-6.89-.549-3.809-1.189-8.696-1.713-13.933 0 0 24.723 23.914 77.894 23.367 3.792-.039 6.643-3.485 5.953-7.213l-2.853-15.418 43.117 27.62 2.517-28.647-2.517-31.435h-202.104l-7.655 31.435z" fill="#4c3c27" fill-opacity="1" data-original-color="#537983ff" stroke="none" stroke-opacity="1"/></g><g><path d="m501.246 340.243c-3.348-12.656-9.416-21.107-15.252-26.63-9.607-9.092-15.123-21.677-15.123-34.903v-74.353h-224.94v74.353c0 13.227-5.516 25.812-15.123 34.903-5.837 5.524-11.904 13.974-15.252 26.63-4.649 17.572-1.466 36.455 9.689 50.806 8.107 10.43 21.452 20.094 43.334 21.975h89.822 89.822c21.882-1.881 35.227-11.545 43.334-21.975 11.154-14.351 14.337-33.234 9.689-50.806z" fill="#4c3c27" fill-opacity="1" data-original-color="#537983ff" stroke="none" stroke-opacity="1"/><path d="m491.555 391.049c-8.103 10.431-21.446 20.093-43.334 21.97h-21.569c21.877-1.877 35.231-11.539 43.334-21.97 11.159-14.349 14.339-33.231 9.692-50.811-3.354-12.657-9.415-21.098-15.251-26.626-9.61-9.087-15.128-21.672-15.128-34.903v-74.35h21.57v74.35c0 13.231 5.518 25.816 15.128 34.903 5.836 5.528 11.898 13.969 15.251 26.626 4.646 17.58 1.466 36.463-9.693 50.811z" fill="#443a1e" fill-opacity="1" data-original-color="#3e5959ff" stroke="none" stroke-opacity="1"/><path d="m469.103 511.991h-225.932v-106.136c0-63.639 51.589-110.452 115.228-110.452 23.977 0 44.853 5.779 63.294 18.311 1.518 1.032 7.63 5.913 9.095 7.014 27.974 21.023 38.314 47.44 38.314 85.127v106.136z" fill="#95d6cc" fill-opacity="1" data-original-color="#8ac9feff" stroke="none" stroke-opacity="1"/><path d="m473.63 405.852v106.144h-21.245v-106.144c0-60.062-45.946-109.376-104.602-114.729 3.499-.327 7.042-.49 10.617-.49 31.819 0 60.629 12.895 81.482 33.748 20.852 20.853 33.748 49.652 33.748 81.471z" fill="#52b5a8" fill-opacity="1" data-original-color="#60b7ffff" stroke="none" stroke-opacity="1"/><path d="m399.402 354.739c-14.956 2.42-30.369-5.505-40.289-18.313-9.909 12.808-25.322 20.733-40.278 18.313-24.025-3.881-29.203-21.997-28.102-42.153 19-13.811 42.382-21.954 67.66-21.954h.011c25.954 0 49.892 8.579 69.153 23.055.852 19.708-4.577 37.236-28.155 41.052z" fill="#fc5d95" fill-opacity="1" data-original-color="#c4e2ffff" stroke="none" stroke-opacity="1"/><path d="m399.4 354.741c-11.713 1.897-23.713-2.554-33.129-10.739 3.99.677 8.051.738 12.082.082 24.441-3.959 30.4-21.857 29.754-42.195 6.882 3.292 13.395 7.251 19.446 11.795.853 19.713-4.573 37.242-28.153 41.057z" fill="#db3e85" fill-opacity="1" data-original-color="#b3dafeff" stroke="none" stroke-opacity="1"/><g fill="#fed2a4"><path d="m453.708 207.078h13.384c11.494 0 20.812-9.318 20.812-20.812 0-11.494-9.318-20.812-20.812-20.812h-13.384z" fill="#e5be95" fill-opacity="1" data-original-color="#fed2a4ff" stroke="none" stroke-opacity="1"/><path d="m262.683 205.967h-13.027c-11.187 0-20.257-9.069-20.257-20.257 0-11.187 9.069-20.257 20.257-20.257h13.027z" fill="#e5be95" fill-opacity="1" data-original-color="#fed2a4ff" stroke="none" stroke-opacity="1"/><path d="m358.269 305.954c-53.274 0-96.461-43.187-96.461-96.461v-75.086l122.135-65.297 70.787 76.176v64.207c0 53.274-43.187 96.461-96.461 96.461z" fill="#e5be95" fill-opacity="1" data-original-color="#fed2a4ff" stroke="none" stroke-opacity="1"/></g><path d="m454.734 145.283v64.206c0 53.283-43.19 96.463-96.463 96.463-3.467 0-6.882-.185-10.257-.544 48.452-5.118 86.206-46.103 86.206-95.919v-86.278z" fill="#a07958" fill-opacity="1" data-original-color="#ffbd86ff" stroke="none" stroke-opacity="1"/><g><g><path d="m311.221 216.308c-4.249 0-7.692-3.444-7.692-7.692v-18.017c0-4.249 3.444-7.692 7.692-7.692 4.249 0 7.692 3.444 7.692 7.692v18.017c0 4.249-3.443 7.692-7.692 7.692z" fill="#4c3c27" fill-opacity="1" data-original-color="#537983ff" stroke="none" stroke-opacity="1"/></g><g><path d="m405.316 216.308c-4.249 0-7.692-3.444-7.692-7.692v-18.017c0-4.249 3.444-7.692 7.692-7.692s7.692 3.444 7.692 7.692v18.017c0 4.249-3.444 7.692-7.692 7.692z" fill="#4c3c27" fill-opacity="1" data-original-color="#537983ff" stroke="none" stroke-opacity="1"/></g></g><g><path d="m358.603 258.679c-8.489 0-16.523-3.249-22.623-9.149-3.054-2.954-3.135-7.824-.182-10.878s7.823-3.136 10.878-.182c3.216 3.111 7.453 4.824 11.928 4.824 4.242 0 8.313-1.56 11.464-4.391 3.16-2.84 8.024-2.578 10.864.581 2.84 3.16 2.579 8.024-.581 10.864-5.98 5.373-13.704 8.331-21.748 8.331z" fill="#4c3c27" fill-opacity="1" data-original-color="#537983ff" stroke="none" stroke-opacity="1"/></g><path d="m471.377 165.901-16.643-.447c-55.586-1.495-95.039-11.655-127.253-59.298 0 0-11.151 48.588-65.824 59.746h-16.233v-34.285c0-62.44 50.137-113.986 112.577-114.202 62.579-.217 113.376 50.447 113.376 112.975z" fill="#4c3c27" fill-opacity="1" data-original-color="#537983ff" stroke="none" stroke-opacity="1"/><path d="m471.38 130.39v35.514l-16.646-.447c-1.303-.031-2.585-.072-3.867-.113v-34.954c0-58.924-45.108-107.314-102.678-112.504 3.231-.308 6.503-.462 9.815-.472 62.576-.215 113.376 50.442 113.376 112.976z" fill="#443a1e" fill-opacity="1" data-original-color="#3e5959ff" stroke="none" stroke-opacity="1"/><path d="m307.537 60.682c-29.038 22.714-38.363 57.189-38.363 57.189 9.233-9.868 19.884-17.521 30.542-23.439 36.554-20.297 80.815-20.297 117.369 0 10.658 5.918 21.309 13.571 30.542 23.439 0 0-9.325-34.475-38.363-57.189-29.989-23.458-71.738-23.458-101.727 0z" fill="#fc5d95" fill-opacity="1" data-original-color="#c4e2ffff" stroke="none" stroke-opacity="1"/><path d="m447.616 117.846c-9.231-9.857-19.887-17.498-30.534-23.416-1.518-.841-3.046-1.651-4.595-2.421-5.6-8.164-12.872-16.646-22.164-23.918-20.687-16.185-46.975-21.2-71.139-15.046 28.513-15.467 63.806-12.913 90.083 7.641 28.585 22.35 38.062 56.104 38.349 57.16z" fill="#db3e85" fill-opacity="1" data-original-color="#b3dafeff" stroke="none" stroke-opacity="1"/></g></g><g><g fill="#fed2a4"><path d="m256.722 511.995c-46.636 0-84.442-37.806-84.442-84.442v-40.514c0-46.636 37.806-84.442 84.442-84.442 46.636 0 84.442 37.806 84.442 84.442v40.514c.001 46.636-37.806 84.442-84.442 84.442z" fill="#e5be95" fill-opacity="1" data-original-color="#fed2a4ff" stroke="none" stroke-opacity="1"/><path d="m340.139 431.138h11.302c9.706 0 17.574-7.868 17.574-17.574 0-9.706-7.868-17.574-17.574-17.574h-11.302z" fill="#e5be95" fill-opacity="1" data-original-color="#fed2a4ff" stroke="none" stroke-opacity="1"/><path d="m173.306 430.408h-11.404c-9.793 0-17.733-7.939-17.733-17.733 0-9.793 7.939-17.733 17.733-17.733h11.404z" fill="#e5be95" fill-opacity="1" data-original-color="#fed2a4ff" stroke="none" stroke-opacity="1"/></g><path d="m341.169 387.034v40.524c0 46.626-37.806 84.442-84.442 84.442-3.467 0-6.892-.205-10.257-.626 41.795-5.056 74.185-40.657 74.185-83.816v-40.524c0-23.323-9.446-44.431-24.728-59.714-13.005-13.005-30.236-21.785-49.457-24.113 3.364-.41 6.79-.615 10.257-.615 23.323 0 44.431 9.446 59.714 24.728 15.281 15.283 24.728 36.391 24.728 59.714z" fill="#a07958" fill-opacity="1" data-original-color="#ffbd86ff" stroke="none" stroke-opacity="1"/><g><g><path d="m215.537 434.478c-4.249 0-7.692-3.444-7.692-7.692v-15.772c0-4.249 3.444-7.692 7.692-7.692 4.249 0 7.692 3.444 7.692 7.692v15.772c0 4.248-3.443 7.692-7.692 7.692z" fill="#4c3c27" fill-opacity="1" data-original-color="#537983ff" stroke="none" stroke-opacity="1"/></g><g><path d="m297.908 434.478c-4.249 0-7.692-3.444-7.692-7.692v-15.772c0-4.249 3.444-7.692 7.692-7.692 4.249 0 7.692 3.444 7.692 7.692v15.772c0 4.248-3.444 7.692-7.692 7.692z" fill="#4c3c27" fill-opacity="1" data-original-color="#537983ff" stroke="none" stroke-opacity="1"/></g></g><g><path d="m257.016 471.569c-7.681 0-14.952-2.941-20.471-8.279-3.054-2.954-3.135-7.824-.181-10.877 2.953-3.055 7.824-3.135 10.877-.181 2.635 2.549 6.107 3.952 9.776 3.952 3.477 0 6.813-1.278 9.395-3.598 3.161-2.842 8.025-2.579 10.863.58 2.84 3.16 2.58 8.023-.58 10.863-5.412 4.863-12.401 7.54-19.679 7.54z" fill="#4c3c27" fill-opacity="1" data-original-color="#537983ff" stroke="none" stroke-opacity="1"/></g></g><g><path d="m233.448 300.656c-7.495 4.965-12.383 13.423-13.924 22.188-5.448 30.981 36.436 47.084 55.643 23.712 10.723-13.049 8.285-33.605 15.591-48.553.195-.4.889-1.915 1.742-3.614 1.404-2.798-.568-6.117-3.697-6.212-16.248-.492-40.188 2.432-55.355 12.479z" fill="#4c3c27" fill-opacity="1" data-original-color="#537983ff" stroke="none" stroke-opacity="1"/><path d="m292.497 294.387c-.847 1.703-1.544 3.217-1.743 3.615-7.301 14.95-4.861 35.507-15.587 48.555-11.643 14.163-31.623 13.824-44.342 4.462 8.456-.239 16.872-3.675 22.988-11.115 10.727-13.048 8.287-33.605 15.587-48.555.149-.299.578-1.215 1.135-2.381 6.534-.737 12.828-.956 18.267-.797 3.127.101 5.099 3.417 3.695 6.216z" fill="#443a1e" fill-opacity="1" data-original-color="#3e5959ff" stroke="none" stroke-opacity="1"/></g></g><g><g><path d="m420.7 395.776v116.186h-15.385v-116.186c0-4.257 3.446-7.692 7.692-7.692s7.693 3.435 7.693 7.692z" fill="#13687a" fill-opacity="1" data-original-color="#26a6feff" stroke="none" stroke-opacity="1"/></g></g></g></g></svg>