<svg id="Capa_1" enable-background="new 0 0 512 512" viewBox="0 0 512 512" xmlns="http://www.w3.org/2000/svg" width="300" height="300" version="1.1" xmlns:xlink="http://www.w3.org/1999/xlink" xmlns:svgjs="http://svgjs.dev/svgjs"><g width="100%" height="100%" transform="matrix(1,0,0,1,0,0)"><g><path d="m484.216 172.802c-6.325 70.124-57.989 93.139-100.422 100.37-58.216-6.15-103.574-55.403-103.574-115.246 0-56.969 41.104-104.337 95.281-114.051 0-.001 119.625 7.86 108.715 128.927z" fill="#5b5555" fill-opacity="1" data-original-color="#5b5555ff" stroke="none" stroke-opacity="1"/><path d="m512 157.925c0 64.005-51.89 115.895-115.895 115.895-7.036 0-13.918-.629-20.604-1.834 22.841-4.096 44.031-19.653 60.126-35.034 22.082-21.102 35.166-46.077 35.166-79.028 0-56.969-41.115-104.337-95.292-114.051 6.686-1.205 13.567-1.834 20.604-1.834 64.005.001 115.895 51.88 115.895 115.886z" fill="#433f43" fill-opacity="1" data-original-color="#433f43ff" stroke="none" stroke-opacity="1"/><g><g><g><g><path d="m437.786 268.011v49.356l-27.764 31.791-40.805 10.436v-19.635l41.403-76.038z" fill="#a34f41" fill-opacity="1" data-original-color="#a34f41ff" stroke="none" stroke-opacity="1"/><g><path d="m369.216 217.332v122.627c23.881-7.923 41.113-30.423 41.113-56.963v-1.801c0-5.69 4.612-10.302 10.302-10.302h6.455c3.902 0 7.549-1.061 10.699-2.886v-50.675z" fill="#873f30" fill-opacity="1" data-original-color="#873f30ff" stroke="none" stroke-opacity="1"/></g><path d="m427.087 173.564h-1.945c-11.818 0-21.397 9.58-21.397 21.397-.135-20.492-16.785-37.033-37.277-37.033h-86.25l1.893 112.51c.377 22.429 18.667 40.413 41.099 40.413h27.1c33.148 0 60.019-26.872 60.019-60.019v-12.103h16.757c11.818 0 21.397-9.58 21.397-21.397v-22.37c.001-11.818-9.579-21.398-21.396-21.398z" fill="#ba5d4f" fill-opacity="1" data-original-color="#ba5d4fff" stroke="none" stroke-opacity="1"/><g fill="#433f43"><path d="m444.148 152.74h-.795c-4.268 0-7.726-3.459-7.726-7.726 0-4.268 3.459-7.726 7.726-7.726h.795c4.268 0 7.726 3.459 7.726 7.726 0 4.268-3.459 7.726-7.726 7.726z" fill="#433f43" fill-opacity="1" data-original-color="#433f43ff" stroke="none" stroke-opacity="1"/><path d="m400.12 93.045h-.795c-4.268 0-7.726-3.459-7.726-7.726 0-4.268 3.459-7.726 7.726-7.726h.795c4.268 0 7.726 3.459 7.726 7.726s-3.459 7.726-7.726 7.726z" fill="#433f43" fill-opacity="1" data-original-color="#433f43ff" stroke="none" stroke-opacity="1"/><path d="m375.898 109.576h-.795c-4.268 0-7.726-3.459-7.726-7.726 0-4.268 3.459-7.726 7.726-7.726h.795c4.268 0 7.726 3.459 7.726 7.726.001 4.268-3.458 7.726-7.726 7.726z" fill="#433f43" fill-opacity="1" data-original-color="#433f43ff" stroke="none" stroke-opacity="1"/></g><path d="m325.614 215.68c-5.305 0-10.963-1.486-16.405-5.488-3.438-2.527-4.175-7.364-1.647-10.802s7.362-4.176 10.802-1.647c8.747 6.434 18.486-1.667 18.582-1.751 3.256-2.76 8.131-2.359 10.89.894 2.761 3.255 2.36 8.13-.894 10.89-4.162 3.532-12.227 7.904-21.328 7.904z" fill="#873f30" fill-opacity="1" data-original-color="#873f30ff" stroke="none" stroke-opacity="1"/></g><g><path d="m456.308 474.706h-76.604l.01-.01-8.458-5.367-6.995 5.367v.01h-27.104c-6.109 0-10.889-5.295-10.25-11.373 5.233-50.19 42.309-103.739 42.309-103.739l43.865-27.011s19.748 14.608 40.867 30.04c7.522 29.288 12.745 69.764 2.36 112.083z" fill="#f85221" fill-opacity="1" data-original-color="#21c1f8ff" stroke="none" stroke-opacity="1"/><g><g><path d="m364.266 474.698c0-41.201 47.85-65.664 49.887-66.686 3.817-1.909 8.457-.369 10.37 3.445 1.91 3.812.372 8.451-3.437 10.366-.507.257-41.368 21.283-41.368 52.875z" fill="#ac1212" fill-opacity="1" data-original-color="#127cacff" stroke="none" stroke-opacity="1"/></g></g><path d="m489.098 474.698h-33.613c0-81.754-24.296-122.846-42.402-142.119l24.703-15.21s58.388 25.534 61.614 146.762c.155 5.789-4.511 10.567-10.302 10.567z" fill="#ee1f1f" fill-opacity="1" data-original-color="#1faaeeff" stroke="none" stroke-opacity="1"/></g></g></g><g><path d="m200.782 189.666h-57.072l-47.677-129.463s21.181-14.835 48.676-20.635h.01c1.071.093 65.19 5.851 72.071 80.643 2.7 29.329-5.325 52.271-16.008 69.455z" fill="#fcb44d" fill-opacity="1" data-original-color="#fcb44dff" stroke="none" stroke-opacity="1"/><path d="m209.787 189.666h-40.204c39.983 0 63.171-86.409 4.664-135.057-9.428-7.84-19.459-12.554-29.54-15.036 21.751-4.583 47.441-3.508 69.745 15.036 58.506 48.648 35.318 135.057-4.665 135.057z" fill="#fb9927" fill-opacity="1" data-original-color="#fb9927ff" stroke="none" stroke-opacity="1"/><circle cx="94.388" cy="140.011" fill="#fcb44d" r="94.388" fill-opacity="1" data-original-color="#fcb44dff" stroke="none" stroke-opacity="1"/><path d="m150.9 59.411c-12.195-8.117-25.86-13.446-40.187-15.747-4.724-.759-9.022 2.844-9.022 7.629 0 3.814 2.787 7.029 6.552 7.634 12.239 1.963 23.906 6.525 34.3 13.487 3.808 2.551 9.062 1.266 11.204-2.948 1.795-3.529.447-7.863-2.847-10.055z" fill="#fb9927" fill-opacity="1" data-original-color="#fb9927ff" stroke="none" stroke-opacity="1"/><g><g><g><g><g><path d="m130.318 339.959v19.635l-42.849-19.636-25.72-22.591v-49.356l20.429-12.012z" fill="#fdb9a0" fill-opacity="1" data-original-color="#fdb0a0ff" stroke="none" stroke-opacity="1"/><path d="m61.753 217.332v50.675c3.15 1.825 6.797 2.886 10.699 2.886h6.456c5.69 0 10.302 4.612 10.302 10.302v1.801c0 26.539 17.233 49.04 41.113 56.963v-122.627z" fill="#f6a783" fill-opacity="1" data-original-color="#f69583ff" stroke="none" stroke-opacity="1"/><g><path d="m218.778 195.403-10.198 77.217c-2.889 21.879-21.543 38.232-43.612 38.232h-15.74c-33.148 0-60.019-26.872-60.019-60.019v-12.103h-16.757c-11.818 0-21.397-9.58-21.397-21.397v-22.37c0-11.818 9.58-21.397 21.397-21.397h1.945c11.817 0 21.397 9.58 21.397 21.397s.008.124.02.095c8.853-20.313 23.819-37.128 45.978-37.128h44.134c20.024-.002 35.473 17.621 32.852 37.473z" fill="#ffd7c0" fill-opacity="1" data-original-color="#ffcec0ff" stroke="none" stroke-opacity="1"/></g><g><path d="m218.78 195.402-10.199 77.222c-2.895 21.871-21.541 38.23-43.618 38.23h-15.731c-4.739 0-9.344-.546-13.763-1.587 16.668-4.595 29.546-18.78 31.905-36.643l10.199-77.222c2.617-19.852-12.826-37.478-32.852-37.478h41.207c20.026.001 35.468 17.627 32.852 37.478z" fill="#fdb9a0" fill-opacity="1" data-original-color="#fdb0a0ff" stroke="none" stroke-opacity="1"/></g><path d="m173.926 215.68c-9.104 0-17.167-4.372-21.329-7.902-3.255-2.761-3.655-7.636-.894-10.89 2.751-3.241 7.6-3.651 10.853-.926 1.042.857 10.188 7.98 18.622 1.782 3.438-2.529 8.274-1.792 10.801 1.648 2.528 3.438 1.791 8.274-1.648 10.801-5.443 4.001-11.102 5.487-16.405 5.487z" fill="#5b5555" fill-opacity="1" data-original-color="#5b5555ff" stroke="none" stroke-opacity="1"/></g><g><path d="m135.191 459.068-15.37 15.628.01.01h-109.385c-5.8 0-10.456-4.78-10.312-10.57 2.04-76.285 25.899-114.67 43.319-132.656 0 0 59.009 31.925 90.388 48.728 2.761 19.769 5.512 50.675 1.35 78.86z" fill="#f85221" fill-opacity="1" data-original-color="#21c1f8ff" stroke="none" stroke-opacity="1"/><path d="m162.38 474.705-27.107-.007c0-10.434-4.891-21.203-7.553-31.784-11.475-45.613-40.835-84.691-80.885-109.352l-3.382-2.082c10.271-10.601 18.296-14.113 18.296-14.113l68.569 42.227s37.076 53.546 42.315 103.747c.634 6.076-4.143 11.364-10.253 11.364z" fill="#ee1f1f" fill-opacity="1" data-original-color="#1faaeeff" stroke="none" stroke-opacity="1"/><g><path d="m119.82 474.698c0-13.032-6.821-25.818-20.272-38.003-10.503-9.513-20.983-14.816-21.088-14.869-3.815-1.912-5.356-6.554-3.444-10.369 1.911-3.815 6.553-5.357 10.369-3.444 2.037 1.021 49.886 25.484 49.886 66.685z" fill="#ac1212" fill-opacity="1" data-original-color="#127cacff" stroke="none" stroke-opacity="1"/></g></g></g></g></g></g></g><g><path d="m291.552 278.642c0 30.596-59.544 63.933-59.544 63.933l-40.373-40.383c-7.119-7.119-10.673-16.442-10.673-25.775s3.554-18.657 10.673-25.775c14.237-14.237 37.313-14.237 51.55 0l6.583 6.583 6.583-6.583c2.452-2.452 5.151-4.471 8.035-6.078.865.124 27.166 3.997 27.166 34.078z" fill="#fb3a82" fill-opacity="1" data-original-color="#fb3a82ff" stroke="none" stroke-opacity="1"/><path d="m307.907 302.191-41.471 41.471c-4.209 4.209-8.063 8.774-11.509 13.631-1.261 1.776-3.215 2.664-5.159 2.664s-3.898-.888-5.159-2.664c-3.446-4.858-7.3-9.422-11.509-13.631l-1.092-1.092 40.379-40.379c14.235-14.235 14.235-37.315 0-51.55-2.442-2.442-5.142-4.467-8.019-6.074 5.506-3.064 11.642-4.6 17.77-4.6 9.324 0 18.649 3.552 25.771 10.674 14.234 14.235 14.234 37.315-.002 51.55z" fill="#fb1466" fill-opacity="1" data-original-color="#fb1466ff" stroke="none" stroke-opacity="1"/><path d="m256.354 250.644h.01z" fill="#000000" fill-opacity="1" data-original-color="#000000ff" stroke="none" stroke-opacity="1"/></g></g></g><g/><g/><g/><g/><g/><g/><g/><g/><g/><g/><g/><g/><g/><g/><g/></g></svg>