<svg id="Capa_1" enable-background="new 0 0 512 512" viewBox="0 0 512 512" xmlns="http://www.w3.org/2000/svg"><g><path d="m368.52 51.513c-8.447-6.147-8.316-26.435-17.689-31.22-9.276-4.735-25.613 7.258-35.655 3.997-9.868-3.204-16.034-22.534-26.508-24.181-10.204-1.603-22.014 14.863-32.668 14.863s-22.465-16.465-32.669-14.861c-10.476 1.646-16.644 20.978-26.513 24.183-10.042 3.261-26.381-8.731-35.657-3.995-9.373 4.786-9.241 25.073-17.688 31.221-8.487 6.177-27.743-.184-35.148 7.221-7.404 7.405-1.042 26.661-7.218 35.147-6.147 8.447-26.435 8.315-31.219 17.688-4.735 9.276 7.258 25.614 3.997 35.655-3.204 9.868-22.535 16.034-24.181 26.508-1.604 10.204 14.862 22.014 14.862 32.668s-16.465 22.465-14.861 32.669c1.646 10.476 20.977 16.644 24.182 26.513 3.261 10.042-8.731 26.381-3.995 35.657 4.786 9.373 25.074 9.242 31.222 17.688 6.177 8.486-.184 27.743 7.221 35.147s26.66 1.042 35.147 7.218c8.447 6.147 8.316 26.435 17.689 31.22 9.276 4.734 25.613-7.259 35.655-3.998 2.943.956 7.404 5.108 9.901 8.035l197.918-169.737-34.33-174.248c-.64-.304-1.24-.654-1.795-1.058z" fill="#a46a5a"/><path d="m447.436 206.407c0-10.654 16.465-22.465 14.861-32.669-1.646-10.476-20.977-16.644-24.182-26.513-3.261-10.042 8.731-26.381 3.995-35.657-4.786-9.373-25.074-9.242-31.222-17.688-6.177-8.486.184-27.742-7.221-35.147-6.946-6.945-24.219-1.733-33.351-6.161-10.138 11.354-19.606 26.548-23.496 46.615-6.088 31.408-25.997 30.216-61.117 26.588l-19.647 269.021 39.465 2.088c2.851-3.828 6.459-7.323 9.662-8.363 10.042-3.261 26.381 8.731 35.657 3.995 9.373-4.786 9.241-25.074 17.688-31.222 8.487-6.176 27.742.184 35.148-7.221 7.404-7.404 1.042-26.66 7.218-35.146 6.147-8.447 26.435-8.316 31.22-17.689 4.735-9.275-7.258-25.613-3.997-35.655 3.204-9.868 22.535-16.035 24.181-26.508 1.603-10.203-14.862-22.014-14.862-32.668z" fill="#845252"/><path d="m295.503 371.147-89.041-1.802v20.103c0 14.002-8.83 26.482-22.034 31.143l-18.714 6.605-1.01 17.757c23.148 23.77 55.496 38.535 91.295 38.535 36.852 0 70.045-15.646 93.312-40.654.001.001-52.07-10.004-53.808-71.687z" fill="#c6805d"/><path d="m327.572 420.591c-13.204-4.66-22.034-17.14-22.034-31.143v-56.826h-99.075v36.723c15.242 6.74 31.995 10.554 49.538 10.554 6.687 0 13.259-.555 19.679-1.61 6.988-1.148 13.346 4.086 13.346 11.167 0 21.002 13.245 39.72 33.049 46.709l22.78 8.039 1.43-17.008z" fill="#a46a5a"/><path d="m322.05 161.858c-16.319-6.989-31.411-16.039-36.348-36.083-2.245-.23-4.551-.471-6.935-.717-30.485-3.138-53.797 6.725-76.66 32.205-17.871 19.917-32.911 23.401-47.28 24.671-6.177.546-11.584 4.643-13.826 10.425-5.35 13.801-2.009 25.819-.147 30.672h-3.394c-10.797 0-20.635 7.768-21.711 18.511-1.237 12.355 8.432 22.771 20.534 22.771h12.802c3.697 48.441 39.474 87.905 86.162 97.063 0 0 112.056 2.605 112.056-97.063z" fill="#e29a6c"/><path d="m374.539 223.03h-2.385c8.737-43.414-22.447-49.328-50.104-61.172v94.197c0 52.251-37.353 95.734-86.803 105.319 6.714 1.317 13.651 2.012 20.753 2.012 56.49 0 102.686-43.668 106.914-99.075h12.802c12.102 0 21.771-10.415 20.534-22.77-1.076-10.743-10.915-18.511-21.711-18.511z" fill="#c6805d"/><g fill="#845252"><path d="m198.198 206.538c-4.096 0-7.652-3.044-8.184-7.208-.572-4.523 2.62-8.659 7.144-9.236l18.552-2.37c4.572-.617 8.667 2.624 9.24 7.14.572 4.523-2.62 8.659-7.144 9.236l-18.552 2.37c-.355.048-.709.068-1.056.068z"/><path d="m313.802 206.538c-.347 0-.701-.02-1.056-.069l-18.552-2.37c-4.523-.576-7.716-4.713-7.144-9.236.581-4.515 4.741-7.744 9.24-7.14l18.552 2.37c4.523.576 7.716 4.713 7.144 9.236-.532 4.165-4.088 7.209-8.184 7.209z"/><path d="m222.983 239.543c-2.653 0-5.249-1.274-6.845-3.632-3.854-5.708-15.497-5.708-19.351 0-2.556 3.769-7.684 4.773-11.457 2.217-3.781-2.556-4.773-7.688-2.217-11.465 5.031-7.446 13.763-11.889 23.35-11.889s18.319 4.443 23.35 11.889c2.556 3.777 1.564 8.909-2.217 11.465-1.412.955-3.025 1.415-4.613 1.415z"/><path d="m322.058 239.543c-2.653 0-5.249-1.274-6.845-3.632-3.854-5.708-15.497-5.708-19.351 0-2.556 3.769-7.692 4.773-11.457 2.217-3.781-2.556-4.773-7.688-2.217-11.465 5.031-7.446 13.763-11.889 23.35-11.889s18.319 4.443 23.35 11.889c2.556 3.777 1.564 8.909-2.217 11.465-1.412.955-3.024 1.415-4.613 1.415z"/></g><path d="m219.499 272.568c-6.556 0-11.094 6.83-8.31 12.766 7.897 16.844 24.975 28.515 44.811 28.515s36.914-11.671 44.811-28.515c2.783-5.936-1.754-12.766-8.31-12.766z" fill="#fff"/><path d="m363.268 440.866-107.268 47.892-122.876-50.059-33.968 11.989c-12.573 4.438-23.179 15.032-28.906 28.084-3.242 7.388-2.02 15.994 2.533 22.655 4.522 6.616 12.019 10.573 20.034 10.573h326.366c3.285 0 6.483-.663 9.425-1.903 0 0 14.153-15.149 5.194-35.348z" fill="#ffaa5a"/><path d="m441.75 478.771c-5.727-13.052-16.333-23.646-28.906-28.084l-33.968-11.989-25.472 8.522 53.943 19.035c30.365 11.099 21.262 43.841 21.262 43.841 4.21-1.789 7.954-4.785 10.61-8.67 4.551-6.661 5.773-15.266 2.531-22.655z" fill="#ff8b57"/><path d="m357.497 439.49-23.513.87c-20.549 18.839-47.906 30.359-77.984 30.359-36.563 0-69.105-17.022-90.285-43.523l-32.591 11.502c26.749 39.254 71.792 65.045 122.876 65.045 44.839 0 85.014-19.878 112.258-51.281z" fill="#ffc263"/><path d="m333.984 440.36 34.274 12.103c3.795-4.374 7.347-8.965 10.618-13.764l-32.591-11.503c-3.777 4.726-7.843 9.084-12.301 13.164z" fill="#ffaa5a"/><path d="m144.179 278.751-14.986 13.575c-7.167 0-12.567-5.848-12.567-5.848-.64-1.762-.99-3.663-.99-5.646 0-9.124 7.396-16.52 16.52-16.52 1.978 0 3.817.541 5.633.985 0 0 6.39 5.744 6.39 13.454z" fill="#ffe077"/><path d="m137.789 265.297c.638 1.759 1.02 3.689 1.02 5.668 0 9.124-7.397 16.52-16.52 16.52-1.979 0-3.905-.369-5.663-1.007 2.304 6.349 8.386 10.875 15.531 10.875 9.124 0 16.52-7.397 16.52-16.52-.001-7.146-4.539-13.233-10.888-15.536z" fill="#ffd05b"/><path d="m391.867 278.751-14.986 13.575c-7.167 0-12.567-5.848-12.567-5.848-.641-1.762-.99-3.663-.99-5.646 0-9.124 7.396-16.52 16.52-16.52 1.978 0 3.817.541 5.633.985 0 0 6.39 5.744 6.39 13.454z" fill="#ffe077"/><path d="m385.477 265.297c.638 1.759 1.02 3.689 1.02 5.668 0 9.124-7.397 16.52-16.52 16.52-1.979 0-3.905-.369-5.663-1.007 2.303 6.349 8.386 10.875 15.531 10.875 9.124 0 16.52-7.397 16.52-16.52 0-7.146-4.538-13.233-10.888-15.536z" fill="#ffd05b"/></g><g/><g/><g/><g/><g/><g/><g/><g/><g/><g/><g/><g/><g/><g/><g/></svg>