<svg id="Capa_1" enable-background="new 0 0 512 512" viewBox="0 0 512 512" xmlns="http://www.w3.org/2000/svg"><g><path d="m421.161 24.41c-33.879-1.581-39.239-7.869-82.603-7.869-49.56 0-49.56 8.258-99.12 8.258-49.526 0-53.395-8.258-102.92-8.258v46.107l296.687 7.9z" fill="#ff5f7a"/><path d="m421.222 57.448c-33.879-1.581-39.299-7.903-82.664-7.903-49.56 0-49.56 8.258-99.12 8.258-49.526 0-53.395-8.258-102.92-8.258v51.411h294.95z" fill="#ffaa5a"/><path d="m421.771 24.445c-.214-.01-.398-.024-.609-.034v45.704l16.516-12.308v-16.862c-.001-8.876-7.039-16.104-15.907-16.5z" fill="#fb4455"/><path d="m421.161 98.133 16.516-7.294v-33.033c-6.222 0-11.6-.131-16.456-.358z" fill="#ff8b57"/><path d="m421.161 90.48c-33.879-1.581-39.239-7.903-82.603-7.903-49.56 0-49.56 8.258-99.12 8.258-49.526 0-53.395-8.258-102.92-8.258v52.696h293.864z" fill="#ffe077"/><path d="m421.161 133.101 16.516-9.23v-33.032c-6.222 0-11.66-.131-16.516-.358z" fill="#ffd05b"/><path d="m421.161 123.519c-33.879-1.581-39.239-7.903-82.603-7.903-49.56 0-49.56 8.258-99.12 8.258-49.526 0-53.395-8.258-102.92-8.258v52.696h293.864z" fill="#98db7c"/><path d="m421.161 166.139 16.516-9.23v-33.032c-6.222 0-11.66-.131-16.516-.358z" fill="#77cc7d"/><path d="m421.161 156.548c-33.879-1.581-39.239-7.903-82.603-7.903-49.56 0-49.56 8.258-99.12 8.258-49.526 0-53.395-8.258-102.92-8.258v52.696h293.864z" fill="#1badde"/><path d="m421.161 199.169 16.516-9.23v-33.032c-6.222 0-11.66-.131-16.516-.358z" fill="#008cdf"/><path d="m338.558 181.677c-49.56 0-49.56 8.258-99.119 8.258-49.526 0-49.526-8.258-99.051-8.258l-9.733 24.789c49.526 0 59.259 8.258 108.785 8.258 49.559 0 49.559-8.258 99.119-8.258 42.934 0 55.36 6.425 88.349 8.083l-5.745-24.971c-33.826-1.586-39.266-7.901-82.605-7.901z" fill="#cbb0f2"/><path d="m421.161 189.578c-.032 9.077-8.093 16.158-17.096 14.998-4.692-.604-8.902-1.306-13.227-2.027-12.847-2.141-26.137-4.355-52.282-4.355s-39.427 2.214-52.274 4.355c-12.048 2.008-23.427 3.903-46.847 3.903-23.395 0-34.766-1.895-46.807-3.903-12.839-2.141-34.609-4.886-62.301-4.355l10.059 16.516c49.526 0 49.526 8.258 99.051 8.258 49.56 0 49.56-8.258 99.12-8.258 42.933 0 48.674 6.198 81.662 7.855 9.468.475 17.457-7.017 17.457-16.496v-16.133c-6.246 0-11.644-.129-16.515-.358z" fill="#b896e8"/><path d="m123.871 0h-8.258c-4.561 0-8.258 3.697-8.258 8.258v396.387l-8.846 20.799 33.62 3.475v-420.661c0-4.561-3.697-8.258-8.258-8.258z" fill="#e29a6c"/><path d="m132.129 0h-8.258v404.645c0 9.122-7.395 16.516-16.516 16.516l-8.411 41.29h41.444v-454.193c-.001-4.561-3.698-8.258-8.259-8.258z" fill="#c6805d"/><path d="m300.538 394.739h-69.125v6.596c0 6.945-4.345 13.148-10.872 15.522l-2.178.792-5.819 14.09c14.513 16.848 35.991 27.521 59.973 27.521 20.865 0 39.829-8.085 53.966-21.28z" fill="#fbbd80"/><path d="m324.491 416.856c-6.527-2.374-10.872-8.577-10.872-15.522v-37.98h-82.207v31.384c12.353 6.287 26.292 9.906 41.103 9.906 2.207 0 4.516-.132 6.796-.345 9.167-.852 17.357 4.462 21.702 12.579 3.766 7.036 10.033 12.66 17.833 15.496l7.823-14.726z" fill="#f4aa73"/><path d="m399.54 466.06-41.15-36.876-31.721-11.535c-3.368 4.819-7.36 9.169-11.858 12.932l-4.973 35.261-123.197-36.659-24.324 8.845c-13.054 4.747-21.744 17.153-21.744 31.043v18.154c0 13.682 11.092 24.774 24.774 24.774h214.336c2.896 0 5.676-.497 8.26-1.411z" fill="#7ad7ee"/><path d="m382.715 438.029-24.324-8.845c-2.855 4.96-6.134 9.644-9.772 14.018l28.454 10.347c6.527 2.373 10.871 8.576 10.871 15.521v41.52c9.599-3.413 16.515-12.593 16.515-23.364v-18.154c-.001-13.89-8.69-26.296-21.744-31.043z" fill="#4bc3ef"/><path d="m348.585 443.189-29.738-10.814c-1.278-.465-2.788-1.156-4.036-1.794-11.453 9.581-26.193 15.355-42.295 15.355-22.427 0-42.212-11.201-54.154-28.287l-31.721 11.535c17.108 29.723 49.117 49.784 85.875 49.784 30.665 0 58.017-13.969 76.178-35.855-.065.045-.109.076-.109.076z" fill="#a5e3f0"/><path d="m286.382 222.968h-46.898c-27.365 0-49.548 22.184-49.548 49.548v16.516c-10.03 0-17.973 8.941-16.29 19.289 1.32 8.121 8.946 13.743 17.173 13.743h7.859c3.5 31.625 26.82 57.274 57.271 64.21 0 0 10.872.183 16.567.183 38.253 0 54.387-34.517 58.499-71.674 0 .001 5.213-91.815-44.633-91.815z" fill="#ffd18d"/><path d="m355.097 289.032v-16.516c0-27.365-22.183-49.548-49.548-49.548h-41.29c27.365 0 49.548 22.183 49.548 49.548v41.29c0 35.352-24.785 64.939-57.857 72.468 5.311 1.206 10.891 1.854 16.567 1.854 38.253 0 69.726-28.908 73.838-66.065h7.859c8.227 0 15.853-5.622 17.173-13.743 1.683-10.347-6.26-19.288-16.29-19.288z" fill="#fbbd80"/><path d="m239.298 313.806c-4.565 0-8.258-3.698-8.258-8.258v-8.258c0-4.56 3.694-8.258 8.258-8.258s8.258 3.698 8.258 8.258v8.258c0 4.561-3.693 8.258-8.258 8.258z" fill="#845252"/><path d="m305.363 313.806c-4.565 0-8.258-3.698-8.258-8.258v-8.258c0-4.56 3.694-8.258 8.258-8.258 4.565 0 8.258 3.698 8.258 8.258v8.258c0 4.561-3.694 8.258-8.258 8.258z" fill="#845252"/><path d="m107.355 429.419v-24.774c-18.243 0-33.032 14.789-33.032 33.032v41.29c0 6.017 1.611 11.657 4.422 16.516l21.262 10.35h16.516c13.682 0 24.774-11.092 24.774-24.774v-24.774l-9.167-17.202c-2.583-.913-5.363-1.406-8.258-1.406h-8.258c-4.562 0-8.259-3.697-8.259-8.258z" fill="#ffd18d"/><path d="m272.516 354.181c-8.008 0-15.597-2.048-21.927-5.923-3.895-2.379-5.121-7.464-2.742-11.355 2.395-3.887 7.476-5.113 11.355-2.734 7.371 4.508 19.258 4.508 26.629 0 3.879-2.379 8.968-1.153 11.355 2.734 2.379 3.891 1.153 8.976-2.742 11.355-6.331 3.875-13.92 5.923-21.928 5.923z" fill="#f4aa73"/><path d="m239.484 189.935c-22.804 0-41.29 18.486-41.29 41.29 0 4.56 3.697 8.258 8.258 8.258h66.064c57.806 0 49.548-49.548 49.548-49.548z" fill="#c6805d"/><path d="m330.323 181.677h-8.258c-4.561 0-8.258 3.697-8.258 8.258v8.258c0 22.804-18.486 41.29-41.29 41.29h33.032c22.975 0 41.567-18.764 41.287-41.803-.109-8.909-7.603-16.003-16.513-16.003z" fill="#a46a5a"/><path d="m132.129 439.083v31.626c0 13.682-11.092 24.774-24.774 24.774h-28.61c5.721 9.833 16.414 16.517 28.61 16.517h16.516c13.682 0 24.774-11.092 24.774-24.774v-24.774c0-10.772-6.916-19.956-16.516-23.369z" fill="#fbbd80"/></g><g/><g/><g/><g/><g/><g/><g/><g/><g/><g/><g/><g/><g/><g/><g/></svg>