<svg width="512" height="512" viewBox="0 0 512 512" fill="none" xmlns="http://www.w3.org/2000/svg">
<g clip-path="url(#clip0_645_7022)">
<path d="M148.042 426.354C146.731 426.354 145.404 426.011 144.198 425.289C101.298 399.615 68.4608 359.626 51.7358 312.689C50.3458 308.787 52.3818 304.497 56.2828 303.106C60.1848 301.716 64.4748 303.752 65.8658 307.653C81.4248 351.32 111.98 388.526 151.901 412.417C155.455 414.544 156.612 419.15 154.485 422.704C153.08 425.053 150.593 426.354 148.042 426.354Z" fill="#194769"/>
<path d="M171.372 57.4349C168.483 57.4349 165.73 55.7559 164.497 52.9399C162.836 49.1459 164.566 44.7229 168.36 43.0619C195.611 31.1339 224.632 25.0859 254.617 25.0859C270.646 25.0859 286.633 26.8569 302.132 30.3479C306.173 31.2579 308.711 35.2719 307.8 39.3129C306.89 43.3539 302.88 45.8919 298.835 44.9809C284.417 41.7329 269.54 40.0859 254.617 40.0859C226.715 40.0859 199.717 45.7109 174.374 56.8029C173.396 57.2319 172.375 57.4349 171.372 57.4349Z" fill="#194769"/>
<path d="M413.089 382.348C411.373 382.348 409.649 381.763 408.238 380.565C405.081 377.884 404.695 373.151 407.376 369.993C438.044 333.879 454.935 287.857 454.935 240.404C454.935 236.262 458.293 232.904 462.435 232.904C466.577 232.904 469.935 236.262 469.935 240.404C469.935 291.409 451.778 340.88 418.81 379.702C417.326 381.45 415.214 382.348 413.089 382.348Z" fill="#194769"/>
<path d="M266.358 284.679H289.209C337.782 284.679 377.157 324.055 377.157 372.627V500.509H178.41V372.627C178.41 324.055 217.786 284.679 266.358 284.679Z" fill="#B13D46"/>
<path d="M273.346 284.677C254.468 284.677 233.508 338.6 233.508 387.175L239.17 500.51H178.412V372.629C178.412 324.054 217.789 284.677 266.358 284.677H273.346Z" fill="#5F1824"/>
<path d="M192.831 451.706C178.168 451.706 166.282 439.82 166.282 425.157C166.282 423.139 166.507 421.174 166.934 419.285C170.378 404.032 192.831 406.533 192.831 422.171H362.744C362.744 406.534 385.197 404.032 388.641 419.285C389.068 421.174 389.293 423.139 389.293 425.157C389.293 439.82 377.407 451.706 362.744 451.706" fill="#F4D5B9"/>
<path d="M362.741 391.923V438.589C362.741 472.783 335.021 500.51 300.82 500.51H254.748C220.554 500.51 192.827 472.79 192.827 438.589V392.456C203.371 392.15 217.879 390.351 233.508 387.175C265.536 380.664 302.301 368.358 319.404 351.255C319.404 351.255 336.324 385.829 362.741 391.923Z" fill="#F9E0C7"/>
<path d="M295.429 500.51H254.748C220.554 500.51 192.827 472.79 192.827 438.589V392.456C203.371 392.15 217.879 390.351 233.508 387.175V438.589C233.508 472.783 261.228 500.51 295.429 500.51Z" fill="#F4D5B9"/>
<path d="M327.832 451.445C335.512 451.445 341.739 447.659 341.739 442.989C341.739 438.319 335.512 434.533 327.832 434.533C320.151 434.533 313.925 438.319 313.925 442.989C313.925 447.659 320.151 451.445 327.832 451.445Z" fill="#EAA598"/>
<path d="M227.743 451.445C235.424 451.445 241.65 447.659 241.65 442.989C241.65 438.319 235.424 434.533 227.743 434.533C220.063 434.533 213.836 438.319 213.836 442.989C213.836 447.659 220.063 451.445 227.743 451.445Z" fill="#EAA598"/>
<path d="M239.288 403.672C239.007 403.672 229.262 403.745 229.264 403.745C226.596 403.745 224.425 405.916 224.425 408.584C224.425 411.252 226.596 413.423 229.264 413.423H231.419C231.208 414.635 231.102 415.888 231.102 417.151C231.102 424.583 234.775 430.63 239.289 430.63C243.803 430.63 247.476 424.583 247.476 417.151C247.475 409.719 243.802 403.672 239.288 403.672Z" fill="#146662"/>
<path d="M326.305 403.745C326.168 403.744 315.947 403.672 315.668 403.672C311.154 403.672 307.481 409.719 307.481 417.151C307.481 424.583 311.154 430.63 315.668 430.63C320.182 430.63 323.855 424.583 323.855 417.151C323.855 415.887 323.748 414.635 323.538 413.423H326.305C328.973 413.423 331.144 411.252 331.144 408.584C331.143 405.916 328.972 403.746 326.305 403.745Z" fill="#146662"/>
<path d="M277.783 466.585C272.33 466.585 266.876 464.509 262.725 460.358C260.39 458.023 260.39 454.237 262.725 451.902C265.06 449.567 268.846 449.567 271.181 451.902C274.822 455.543 280.745 455.543 284.386 451.902C286.721 449.567 290.507 449.567 292.842 451.902C295.177 454.237 295.177 458.023 292.842 460.358C288.689 464.509 283.236 466.585 277.783 466.585Z" fill="#B13D46"/>
<path d="M25.972 251.86C11.628 251.86 0 240.232 0 225.888C0 223.914 0.22 221.991 0.638 220.143C4.007 205.221 25.972 207.669 25.972 222.966H192.191C192.191 207.669 214.156 205.221 217.525 220.143C217.942 221.991 218.163 223.914 218.163 225.888C218.163 240.232 206.535 251.86 192.191 251.86" fill="#F4CEB9"/>
<path d="M25.9757 238.117C24.2497 238.117 22.5517 237.307 21.4807 235.793C21.3637 235.634 17.8907 230.96 14.5367 232.313C11.7207 233.449 8.51466 232.087 7.37766 229.27C6.24066 226.453 7.60366 223.248 10.4207 222.111C15.2827 220.149 20.5557 220.924 25.2677 224.292C28.3727 226.512 30.2747 229.172 30.4817 229.468C32.2207 231.959 31.6107 235.388 29.1197 237.126C28.1607 237.795 27.0627 238.117 25.9757 238.117Z" fill="#EAAC9D"/>
<path d="M192.186 238.139C191.096 238.139 189.995 237.815 189.032 237.143C186.541 235.404 185.942 231.959 187.681 229.468C187.888 229.172 189.789 226.512 192.895 224.292C197.606 220.924 202.879 220.15 207.742 222.111C210.559 223.248 211.921 226.453 210.785 229.27C209.648 232.087 206.444 233.449 203.626 232.313C200.232 230.943 196.714 235.748 196.679 235.797C195.612 237.325 193.914 238.139 192.186 238.139Z" fill="#EAAC9D"/>
<path d="M131.616 299.601H86.5457C53.0917 299.601 25.9707 272.481 25.9707 239.026V153.594H192.19V239.026C192.191 272.48 165.071 299.601 131.616 299.601Z" fill="#F9DDC7"/>
<path d="M126.337 299.602H86.5467C53.0957 299.602 25.9717 272.478 25.9717 239.027V153.592H65.7617V239.027C65.7617 272.478 92.8797 299.602 126.337 299.602Z" fill="#F4CEB9"/>
<path d="M70.1114 224.365C74.4507 224.365 77.9684 218.529 77.9684 211.331C77.9684 204.132 74.4507 198.297 70.1114 198.297C65.7721 198.297 62.2544 204.132 62.2544 211.331C62.2544 218.529 65.7721 224.365 70.1114 224.365Z" fill="#194769"/>
<path d="M148.052 224.365C152.391 224.365 155.909 218.529 155.909 211.331C155.909 204.132 152.391 198.297 148.052 198.297C143.713 198.297 140.195 204.132 140.195 211.331C140.195 218.529 143.713 224.365 148.052 224.365Z" fill="#194769"/>
<path d="M163.907 245.733C171.42 245.733 177.511 242.03 177.511 237.461C177.511 232.893 171.42 229.189 163.907 229.189C156.393 229.189 150.303 232.893 150.303 237.461C150.303 242.03 156.393 245.733 163.907 245.733Z" fill="#EAA598"/>
<path d="M54.2549 245.733C61.7682 245.733 67.8589 242.03 67.8589 237.461C67.8589 232.893 61.7682 229.189 54.2549 229.189C46.7416 229.189 40.6509 232.893 40.6509 237.461C40.6509 242.03 46.7416 245.733 54.2549 245.733Z" fill="#EAA598"/>
<path d="M67.4226 94.293H41.7026C25.7226 94.293 12.7686 107.247 12.7686 123.227V162.41C12.7686 170.377 19.2266 176.835 27.1936 176.835H45.2766C69.0956 176.835 88.4046 157.526 88.4046 133.707V115.274C88.4036 103.686 79.0106 94.293 67.4226 94.293Z" fill="#A86B4E"/>
<path d="M67.2676 94.2891C51.2906 94.2891 38.3366 107.243 38.3366 123.226V176.832H27.1936C19.2266 176.832 12.7686 170.374 12.7686 162.407V123.225C12.7686 107.242 25.7226 94.2881 41.6996 94.2881L67.2676 94.2891Z" fill="#734433"/>
<path d="M153.775 169.788H113.722C92.0365 169.788 74.4565 152.208 74.4565 130.523V105.77C74.4565 84.0849 92.0365 66.5049 113.722 66.5049H230.935V92.6289C230.935 135.243 196.389 169.788 153.775 169.788Z" fill="#A86B4E"/>
<path d="M148.345 169.787H113.721C92.0325 169.787 74.4565 152.211 74.4565 130.523V105.771C74.4565 84.0828 92.0325 66.5068 113.721 66.5068H148.345C126.657 66.5068 109.081 84.0828 109.081 105.771V130.524C109.081 152.212 126.657 169.787 148.345 169.787Z" fill="#734433"/>
<path d="M109.081 265.95C103.636 265.95 98.192 263.877 94.047 259.732C91.899 257.584 91.899 254.101 94.047 251.953C96.195 249.805 99.678 249.805 101.826 251.953C105.827 255.954 112.337 255.954 116.338 251.953C118.486 249.805 121.969 249.805 124.117 251.953C126.265 254.101 126.265 257.584 124.117 259.732C119.971 263.878 114.526 265.95 109.081 265.95Z" fill="#B74E56"/>
<path d="M319.802 180.353C305.458 180.353 293.829 168.725 293.829 154.38C293.829 152.406 294.049 150.483 294.467 148.635C297.836 133.713 319.802 136.16 319.802 151.458H486.027C486.027 136.16 507.993 133.713 511.362 148.635C511.779 150.483 512 152.406 512 154.38C512 168.724 500.372 180.353 486.027 180.353" fill="#BE7A4A"/>
<path d="M319.808 166.61C318.082 166.61 316.383 165.8 315.312 164.286C314.664 163.388 312.305 160.792 309.986 160.556C306.964 160.248 304.763 157.549 305.071 154.527C305.379 151.505 308.066 149.303 311.101 149.612C318.827 150.398 323.775 157.19 324.314 157.962C326.052 160.453 325.443 163.882 322.952 165.621C321.992 166.289 320.894 166.61 319.808 166.61Z" fill="#9A5428"/>
<path d="M486.023 166.61C484.936 166.61 483.839 166.289 482.88 165.619C480.389 163.88 479.779 160.451 481.518 157.96C482.164 157.035 488.061 148.942 497.143 149.57C500.174 149.78 502.461 152.407 502.251 155.437C502.04 158.468 499.4 160.754 496.384 160.545C493.801 160.358 490.989 163.61 490.54 164.256C489.469 165.79 487.759 166.61 486.023 166.61Z" fill="#9A5428"/>
<path d="M425.451 228.095H380.38C346.924 228.095 319.803 200.974 319.803 167.518V88.4873L322.696 80.3053L402.918 30.9883L482.81 80.1043L486.029 88.4863V167.517C486.028 200.974 458.907 228.095 425.451 228.095Z" fill="#D19260"/>
<path d="M420.167 228.091H380.381C346.926 228.091 319.803 200.968 319.803 167.522V88.487C319.803 88.487 331.928 64.54 351.097 64.54C354.184 64.54 356.982 65.152 359.597 66.187V167.521C359.598 200.968 386.712 228.091 420.167 228.091Z" fill="#BE7A4A"/>
<path d="M486.033 52.8473V88.4873C486.033 88.4873 473.916 68.5403 454.739 68.5403C435.57 68.5403 427.765 92.2283 402.918 92.2283C378.08 92.2283 370.266 68.5403 351.097 68.5403C331.928 68.5403 319.803 88.4873 319.803 88.4873V52.8473C319.803 30.0033 338.326 11.4883 361.17 11.4883H444.666C467.509 11.4883 486.033 30.0033 486.033 52.8473Z" fill="#13979B"/>
<path d="M361.169 11.4883H401.171C378.327 11.4883 359.804 30.0033 359.804 52.8473V70.2703C357.131 69.1863 354.267 68.5403 351.097 68.5403C331.928 68.5403 319.803 88.4873 319.803 88.4873V52.8473C319.802 30.0033 338.326 11.4883 361.169 11.4883Z" fill="#146662"/>
<path d="M363.943 126.786C359.611 126.786 356.086 132.633 356.086 139.821C356.086 147.008 359.611 152.855 363.943 152.855C368.275 152.855 371.801 147.008 371.801 139.821C371.8 132.634 368.275 126.786 363.943 126.786Z" fill="#3F0518"/>
<path d="M441.887 126.786C437.555 126.786 434.03 132.633 434.03 139.821C434.03 147.008 437.555 152.855 441.887 152.855C446.219 152.855 449.745 147.008 449.745 139.821C449.744 132.634 446.219 126.786 441.887 126.786Z" fill="#3F0518"/>
<path d="M402.915 194.455C397.235 194.455 391.896 192.243 387.88 188.227C385.731 186.079 385.731 182.596 387.879 180.448C390.028 178.3 393.511 178.3 395.658 180.448C397.597 182.386 400.174 183.454 402.915 183.454C405.656 183.454 408.232 182.386 410.17 180.448C412.319 178.3 415.802 178.3 417.949 180.448C420.098 182.596 420.098 186.079 417.95 188.227C413.934 192.243 408.595 194.455 402.915 194.455Z" fill="#B13D46"/>
</g>
<defs>
<clipPath id="clip0_645_7022">
<rect width="512" height="512" fill="white"/>
</clipPath>
</defs>
</svg>
