<svg id="Capa_1" enable-background="new 0 0 512 512" height="300" viewBox="0 0 512 512" width="300" xmlns="http://www.w3.org/2000/svg" version="1.1" xmlns:xlink="http://www.w3.org/1999/xlink" xmlns:svgjs="http://svgjs.dev/svgjs"><g width="100%" height="100%" transform="matrix(1,0,0,1,0,0)"><g><path d="m277.209 129.587-1.357 333.881c0 10.488 8.274 15.388 3.841 24.893l-66.347 23.538h-164.708c-3.488 0-6.66-2.021-8.135-5.182l-8.562-18.356c-4.433-9.505-6.731-19.866-6.731-30.354v-20.593l9.093-.072 2.961-236.837-12.054-7.662v-70.723c0-4.957 4.019-8.976 8.976-8.976h224.834l9.212 7.468c4.958-.001 8.977 4.017 8.977 8.975z" fill="#eef9e9" fill-opacity="1" data-original-color="#c2f6f8ff" stroke="none" stroke-opacity="1"/><path d="m286.421 122.12v78.384l-27.4-3.389v-83.976h18.429c4.952 0 8.971 4.019 8.971 8.981z" fill="#bdd3ae" fill-opacity="1" data-original-color="#72ecf4ff" stroke="none" stroke-opacity="1"/><path d="m286.421 200.504c-11.333 15.425-42.458 21.92-65.159 21.92-22.448 0-48.335-7.321-68.936-17.956-1.198-.609-2.405-1.248-3.592-1.908-2.781-1.543-3.017-6.724-5.879-8.063 38.757-18.734 79.022-22.503 116.167-8.245 7.47 9.287 16.83 13.757 27.399 14.252z" fill="#ffe380" fill-opacity="1" data-original-color="#ffdc00ff" stroke="none" stroke-opacity="1"/><path d="m220.438 216.639c-22.448 0-44.926-5.277-65.526-15.912-1.198-.609-2.405-1.248-3.592-1.908-2.781-1.543-5.602-2.984-8.464-4.323-37.254-17.475-80.15-17.972-117.647-1.654v245.187c0 19.829 16.075 35.904 35.904 35.904h189.404c9.888 0 18.842-3.999 25.335-10.465v-258.011c-17.677 7.44-36.529 11.182-55.414 11.182z" fill="#fff1b6" fill-opacity="1" data-original-color="#ffe766ff" stroke="none" stroke-opacity="1"/><path d="m286.421 200.504v111.688h-27.4v-100.86c8.999-9.73 15.303-14.314 27.4-10.828z" fill="#ffe380" fill-opacity="1" data-original-color="#ffdc00ff" stroke="none" stroke-opacity="1"/><path d="m286.421 200.504c-8.809 4.587-17.993 8.21-27.4 10.828v-25.076c9.356 3.592 18.52 8.321 27.4 14.248z" fill="#eacf7b" fill-opacity="1" data-original-color="#ffd000ff" stroke="none" stroke-opacity="1"/><path d="m139.639 113.139v79.906c-9.346 8.939-19.279 5.119-28.425-9.083v-70.824l14.212-14.498z" fill="#bdd3ae" fill-opacity="1" data-original-color="#72ecf4ff" stroke="none" stroke-opacity="1"/><path d="m139.639 193.045v157.284l-28.425 26.943v-193.31c9.681 2 19.22 5.034 28.425 9.083z" fill="#ffe380" fill-opacity="1" data-original-color="#ffdc00ff" stroke="none" stroke-opacity="1"/><g><path d="m405.142 226.876c-13.598 13.598-32.481 18.676-50.029 15.234-3.447-17.543 1.632-36.435 15.23-50.033 12.838-12.838 30.391-18.078 47.08-15.727 1.786.252 3.199 1.665 3.45 3.45 2.351 16.689-2.893 34.238-15.731 47.076z" fill="#93b27a" fill-opacity="1" data-original-color="#a4ea6eff" stroke="none" stroke-opacity="1"/><g><path d="m357.954 290.983c-4.204 0-7.611-3.408-7.611-7.611v-19.968c0-22.43-12.281-42.947-32.05-53.544-3.705-1.986-5.099-6.599-3.113-10.304 1.986-3.703 6.597-5.099 10.304-3.112 24.723 13.252 40.081 38.91 40.081 66.961v19.968c0 4.202-3.407 7.61-7.611 7.61z" fill="#934338" fill-opacity="1" data-original-color="#da7e71ff" stroke="none" stroke-opacity="1"/></g><g><path d="m484.019 321.708c-8.388-24.216-20.788-40.119-37.765-53.171-3.277-1.529-6.677-2.798-10.195-3.789-16.212-4.562-33.755-2.813-50.734 5.06-17.089 7.926-36.693 7.926-53.78.001-1.236-.573-2.475-1.114-3.716-1.622 0 0-31.643-4.723-46.676-.491-23.845 6.712-42.743 23.106-52.583 51.512-9.505 27.438-9.746 60.286-.68 92.492 5.886 20.913 15.278 39.987 27.267 55.861 27.145 17.424 63.236 19.721 95.308 22.012 53.138 3.603 98.133-21.588 125.913-66.315 1.343-3.783 2.573-7.637 3.677-11.557 9.066-32.207 13.469-62.555 3.964-89.993z" fill="#e8324d" fill-opacity="1" data-original-color="#ff6c81ff" stroke="none" stroke-opacity="1"/></g><g><path d="m488.977 411.696c-4.536 16.105-11.143 31.134-19.413 44.449-8.271 13.304-18.206 24.893-29.419 34.118-17.384 14.309-36.3 21.737-54.709 21.737-6.17 0-12.279-.832-18.267-2.517-1.157-.325-2.304-.69-3.43-1.076-3.42-1.167-7.185-1.167-10.605 0-1.126.386-2.283.741-3.44 1.076-23.848 6.708-49.756-.112-72.975-19.22-9.499-7.814-18.084-17.333-25.512-28.151 20.499 13.396 42.5 17.607 62.969 11.843 1.157-.325 2.314-.68 3.44-1.066 3.42-1.167 7.175-1.167 10.595 0 1.126.386 2.283.741 3.44 1.066 5.977 1.685 12.087 2.517 18.256 2.517 18.419 0 37.325-7.418 54.719-21.727 11.213-9.235 21.148-20.824 29.419-34.128s14.877-28.333 19.403-44.439c9.072-32.21 8.829-65.049-.68-92.49-1.867-5.389-4.049-10.442-6.515-15.151 18.936 8.829 33.651 26.456 42.044 50.669 9.499 27.441 9.742 60.29.68 92.49z" fill="#c61135" fill-opacity="1" data-original-color="#f95877ff" stroke="none" stroke-opacity="1"/></g><path d="m363.959 409.638c-17.883 63.536-68.216 104.957-112.416 92.515-1.026-.29-2.04-.605-3.041-.947-5.025-1.713-10.481-1.714-15.506-.002-1.004.342-2.021.658-3.05.948-44.2 12.442-94.533-28.979-112.416-92.515-17.883-63.526 3.452-125.121 47.652-137.563 14.955-4.209 30.609-2.253 45.474 4.64 19.145 8.878 41.039 8.876 60.184-.002 14.861-6.891 30.515-8.847 45.469-4.638 44.199 12.443 65.533 74.038 47.65 137.564z" fill="#fff1b6" fill-opacity="1" data-original-color="#ffe766ff" stroke="none" stroke-opacity="1"/><path d="m363.963 409.636c-17.881 63.537-68.216 104.962-112.421 92.52-1.025-.294-2.04-.609-3.044-.954-5.023-1.705-10.473-1.715-15.506 0-.994.345-2.019.66-3.044.954-32.789 9.225-68.936-11.173-92.723-48.254 20.986 15.019 46.691 23.858 74.467 23.858 70.763 0 128.12-57.357 128.12-128.12 0-29.521-9.986-56.708-26.761-78.374 1.086.233 2.172.507 3.258.812 44.203 12.442 65.534 74.031 47.654 137.558z" fill="#ffe380" fill-opacity="1" data-original-color="#ffdc00ff" stroke="none" stroke-opacity="1"/><g><path d="m267.743 511.995c-6.168 0-12.279-.832-18.262-2.516-1.153-.325-2.306-.684-3.434-1.068-3.418-1.165-7.181-1.165-10.597-.002-1.127.384-2.286.745-3.443 1.07-23.846 6.712-49.763-.111-72.975-19.215-22.422-18.452-39.764-46.353-48.83-78.564-9.066-32.206-8.825-65.054.68-92.492 9.84-28.407 28.391-47.748 52.237-54.46 16.211-4.563 33.756-2.814 50.738 5.061 17.088 7.925 36.692 7.924 53.78-.001 16.978-7.872 34.521-9.621 50.734-5.06 23.845 6.713 42.396 26.054 52.236 54.46 9.505 27.438 9.746 60.286.68 92.492-9.066 32.21-26.408 60.111-48.83 78.564-17.389 14.31-36.298 21.731-54.714 21.731zm-26.997-19.677c3.46 0 6.919.561 10.212 1.684.871.297 1.764.574 2.652.825 18.908 5.322 39.921-.473 59.174-16.317 20.044-16.496 35.617-41.688 43.849-70.935 8.232-29.243 8.087-58.856-.41-83.385-8.161-23.561-23.068-39.467-41.977-44.79-12.666-3.566-26.569-2.107-40.205 4.217-21.16 9.812-45.43 9.813-66.588.001-13.64-6.325-27.546-7.783-40.209-4.218-18.909 5.323-33.817 21.229-41.978 44.79-8.497 24.529-8.643 54.142-.41 83.385 8.231 29.247 23.804 54.439 43.849 70.935 19.252 15.844 40.269 21.638 59.178 16.316.893-.252 1.786-.529 2.656-.826 3.291-1.121 6.749-1.682 10.207-1.682z" fill="#ff647c" fill-opacity="1" data-original-color="#ff8c9cff" stroke="none" stroke-opacity="1"/></g><path d="m287.32 395.628c-6.76 24.017-25.786 39.674-42.494 34.971-.014-.004-.028-.008-.043-.012-2.648-.753-5.425-.754-8.073-.002-.016.005-.032.009-.048.014-16.708 4.703-35.734-10.954-42.494-34.971-6.76-24.013 1.305-47.297 18.013-52 5.653-1.591 11.571-.852 17.189 1.754 7.248 3.361 15.502 3.361 22.75-.001 5.618-2.605 11.535-3.344 17.187-1.753 16.709 4.703 24.773 27.987 18.013 52z" fill="#ffe380" fill-opacity="1" data-original-color="#ffdc00ff" stroke="none" stroke-opacity="1"/><g><g><path d="m226.242 405.723c-1.948 0-3.896-.743-5.382-2.23-9.228-9.23-9.55-23.925-.717-32.759 2.973-2.972 7.791-2.972 10.765 0 2.972 2.972 2.972 7.791 0 10.764-2.9 2.899-2.578 7.938.717 11.233 2.972 2.973 2.972 7.791-.001 10.764-1.486 1.485-3.434 2.228-5.382 2.228z" fill="#934338" fill-opacity="1" data-original-color="#da7e71ff" stroke="none" stroke-opacity="1"/></g><g><path d="m255.25 405.723c-1.947 0-3.895-.743-5.381-2.229-2.973-2.972-2.973-7.791-.001-10.764 3.294-3.295 3.616-8.334.717-11.233-2.972-2.972-2.972-7.791 0-10.764 2.973-2.972 7.791-2.972 10.765 0 8.833 8.833 8.512 23.529-.717 32.759-1.486 1.488-3.436 2.231-5.383 2.231z" fill="#934338" fill-opacity="1" data-original-color="#da7e71ff" stroke="none" stroke-opacity="1"/></g></g></g><path d="m139.639 53.884v59.255h-28.425v-47.524c0-1.249-.763-2.372-1.925-2.831l-91.6-36.209c-1.045-.416-1.563-1.593-1.147-2.639l8.961-22.651c.406-1.045 1.593-1.553 2.628-1.147l102.516 40.532c5.42 2.143 8.992 7.379 8.992 13.214z" fill="#7aafa2" fill-opacity="1" data-original-color="#b7f77fff" stroke="none" stroke-opacity="1"/></g></g></svg>