<svg version="1.1" xmlns="http://www.w3.org/2000/svg" style="display: block;" viewBox="0 0 2048 2048" width="512" height="512">
<path transform="translate(0,0)" fill="rgb(221,117,50)" d="M 1196.45 428.347 C 1205.17 391.228 1226.21 355.284 1259.23 334.902 A 153.314 153.314 0 0 1 1376.48 317.353 C 1405.75 324.531 1457.07 346.641 1483.31 362.501 C 1494.4 369.201 1505.36 377.712 1514.48 386.932 C 1536.15 408.837 1552.24 432.51 1579.21 449.17 C 1597.73 460.613 1618.17 465.392 1638.93 471.024 C 1690.5 485.007 1732.49 507.411 1760.78 554.581 C 1775.84 579.688 1785.15 607.264 1798.29 633.322 C 1801.36 639.417 1803.87 646.117 1808.31 651.37 C 1838.31 686.785 1879.91 697.14 1912.83 727.836 A 165.618 165.618 0 0 1 1937.46 756.624 C 1959.95 790.433 1978.52 830.86 1998.85 866.446 C 2009.73 885.504 2024.84 903.221 2032.62 923.82 C 2040.21 943.9 2047.55 984.883 2044.26 1006.22 C 2043.8 1005.86 2043.33 1005.52 2042.87 1005.16 C 2037.67 1000.97 2033.88 992.779 2029.75 987.366 C 2015.97 969.313 1992.43 960.443 1970 962.136 C 1951.59 963.525 1934.18 972.986 1922.29 987 C 1912.55 998.478 1907.84 1011.41 1905.71 1026.15 C 1905.09 1030.42 1905.15 1035.04 1904.09 1039.19 C 1875.14 1001.21 1887.44 970.776 1880.94 929.531 A 142.948 142.948 0 0 0 1855.8 868.981 A 164.747 164.747 0 0 0 1800.95 821.178 C 1767.87 803.034 1730.89 793.823 1707.02 762.132 C 1673.77 717.992 1684.8 664.214 1639.4 621.349 C 1595.46 579.861 1539.53 589.316 1492.08 554.903 C 1475.92 543.188 1460.58 527.433 1448.85 511.304 C 1430 485.377 1415.36 456.818 1388.6 437.681 C 1344.52 406.173 1285.22 402.639 1233.99 415.223 C 1221.77 418.225 1208.63 426.626 1197.38 428.239 C 1197.07 428.283 1196.76 428.311 1196.45 428.347 z"/>
<path transform="translate(0,0)" fill="rgb(221,52,65)" d="M 1196.45 428.347 C 1196.76 428.311 1197.07 428.283 1197.38 428.239 C 1208.63 426.626 1221.77 418.225 1233.99 415.223 C 1285.22 402.639 1344.52 406.173 1388.6 437.681 C 1415.36 456.818 1430 485.377 1448.85 511.304 C 1460.58 527.433 1475.92 543.188 1492.08 554.903 C 1539.53 589.316 1595.46 579.861 1639.4 621.349 C 1684.8 664.214 1673.77 717.992 1707.02 762.132 C 1730.89 793.823 1767.87 803.034 1800.95 821.178 A 164.747 164.747 0 0 1 1855.8 868.981 A 142.948 142.948 0 0 1 1880.94 929.531 C 1887.44 970.776 1875.14 1001.21 1904.09 1039.19 C 1908.52 1051.05 1910.09 1063.81 1910.39 1076.39 C 1911.92 1138.9 1870.21 1191.32 1875.14 1253.96 C 1880.22 1318.5 1930.3 1359.44 1898.44 1428.78 C 1883.85 1460.51 1857.07 1481.36 1824.76 1493.2 C 1801.24 1501.82 1773.32 1506.99 1748.21 1507 C 1749.34 1485.58 1748.72 1463.87 1748.72 1442.42 L 1748.66 1333.63 L 1748.88 969.834 C 1746.18 962.997 1739.09 955.318 1734.72 949.315 A 1903.69 1903.69 0 0 0 1689.21 889.091 A 1652.53 1652.53 0 0 0 1302.47 528.923 C 1265.46 504.522 1227.73 481.471 1188.06 461.587 C 1191.6 450.623 1191.03 439.035 1196.45 428.347 z"/>
<path transform="translate(0,0)" fill="rgb(230,230,230)" d="M 324.431 1515.79 C 326.08 1521.25 325.658 1528.7 325.771 1534.47 C 326.364 1564.81 321.898 1593.9 344.886 1617.71 C 359.861 1633.22 380.656 1641.49 402.005 1641.87 C 440.279 1642.54 478.667 1641.77 516.952 1641.76 L 744.983 1641.8 L 1425.59 1641.79 L 1788.79 1641.78 L 1899.27 1641.88 C 1920.08 1641.94 1941.77 1643.31 1962.45 1641.3 A 89.5165 89.5165 0 0 0 2016.38 1616.5 C 2031.34 1601.84 2039.88 1580.61 2043.07 1560.17 C 2046.51 1538.19 2044.78 1514.72 2044.55 1492.5 A 8378.96 8378.96 0 0 1 2044.45 1406.65 L 2045.18 1040.16 L 2045.9 1040.67 L 2046.28 1044.29 L 2048 1045.2 L 2048 1702.14 C 2011.52 1708.88 1973.45 1711.48 1936.52 1715 A 4458.09 4458.09 0 0 1 1719.01 1731.39 A 8029.19 8029.19 0 0 1 1411 1743.8 C 1325.96 1745.13 1240.74 1744.04 1155.68 1744.07 A 7277.08 7277.08 0 0 1 588.335 1727.25 A 4062.72 4062.72 0 0 1 259.555 1694.65 C 192.676 1685.09 95.9276 1672.04 35.2724 1642.89 C 24.7502 1637.83 11.2744 1629.95 7.52758 1618.23 C 5.88267 1613.08 6.70391 1607.83 9.16014 1603.1 C 31.7974 1559.5 209.172 1533.2 258.75 1525.81 C 277.077 1523.07 306.613 1521.67 323.189 1516.22 C 323.605 1516.08 324.017 1515.93 324.431 1515.79 z"/>
<path transform="translate(0,0)" fill="rgb(247,189,115)" d="M 1904.09 1039.19 C 1905.15 1035.04 1905.09 1030.42 1905.71 1026.15 C 1907.84 1011.41 1912.55 998.478 1922.29 987 C 1934.18 972.986 1951.59 963.525 1970 962.136 C 1992.43 960.443 2015.97 969.313 2029.75 987.366 C 2033.88 992.779 2037.67 1000.97 2042.87 1005.16 C 2043.33 1005.52 2043.8 1005.86 2044.26 1006.22 C 2044.91 1015.49 2044.48 1027.79 2048 1036.36 L 2048 1045.2 L 2046.28 1044.29 L 2045.9 1040.67 L 2045.18 1040.16 L 2044.45 1406.65 A 8378.96 8378.96 0 0 0 2044.55 1492.5 C 2044.78 1514.72 2046.51 1538.19 2043.07 1560.17 C 2039.88 1580.61 2031.34 1601.84 2016.38 1616.5 A 89.5165 89.5165 0 0 1 1962.45 1641.3 C 1941.77 1643.31 1920.08 1641.94 1899.27 1641.88 L 1788.79 1641.78 L 1425.59 1641.79 L 744.983 1641.8 L 516.952 1641.76 C 478.667 1641.77 440.279 1642.54 402.005 1641.87 C 380.656 1641.49 359.861 1633.22 344.886 1617.71 C 321.898 1593.9 326.364 1564.81 325.771 1534.47 C 325.658 1528.7 326.08 1521.25 324.431 1515.79 C 323.899 1510.48 324.356 1504.86 324.445 1499.51 C 324.742 1495.95 324.332 1493.66 326.61 1490.83 C 332.748 1487.95 342.079 1490.25 348.966 1489.92 C 363.395 1489.21 377.305 1487.34 391.352 1483.87 C 409.254 1479.44 426.376 1473.27 443.691 1467.01 C 465.327 1459.18 487.077 1449.78 509.121 1443.31 C 558.586 1428.77 607.185 1434.7 654.937 1451.99 C 688.411 1464.11 721.133 1482.59 755.916 1490.22 C 875.115 1516.36 939.105 1431.81 1045.54 1437.15 C 1136.3 1441.7 1182.75 1508.99 1286.75 1501.8 C 1362.75 1496.54 1418.33 1444.22 1498.48 1445.57 C 1524.81 1446.01 1551.79 1450.98 1576.12 1461.21 C 1587.18 1465.87 1597.78 1471.62 1608.9 1476.13 C 1638.18 1488.02 1677.05 1502.66 1708.13 1506.2 C 1721.44 1507.71 1734.85 1507.34 1748.21 1507 C 1773.32 1506.99 1801.24 1501.82 1824.76 1493.2 C 1857.07 1481.36 1883.85 1460.51 1898.44 1428.78 C 1930.3 1359.44 1880.22 1318.5 1875.14 1253.96 C 1870.21 1191.32 1911.92 1138.9 1910.39 1076.39 C 1910.09 1063.81 1908.52 1051.05 1904.09 1039.19 z"/>
<path transform="translate(0,0)" fill="rgb(254,227,132)" d="M 1188.06 461.587 C 1227.73 481.471 1265.46 504.522 1302.47 528.923 A 1652.53 1652.53 0 0 1 1689.21 889.091 A 1903.69 1903.69 0 0 1 1734.72 949.315 C 1739.09 955.318 1746.18 962.997 1748.88 969.834 L 675.328 969.926 L 462.33 969.949 C 440.745 969.959 345.83 972.695 330.46 967.451 C 335.892 959.609 349.065 952.51 357.311 947.31 C 366.65 941.421 376.383 936.329 385.859 930.691 L 497.357 864.869 L 751.835 715.745 A 33711.8 33711.8 0 0 1 1188.06 461.587 z"/>
<path transform="translate(0,0)" fill="rgb(134,203,70)" d="M 869.027 803.996 C 883.873 806.266 897.256 813.532 906.051 825.999 A 46.3019 46.3019 0 0 1 914.254 854.698 C 911.688 860.729 911.291 867.394 907.455 873.007 C 900.027 883.875 888.714 893.264 875.507 895.561 C 863.055 897.727 850.258 894.237 840.15 886.78 C 830.095 879.362 822.715 867.785 821.011 855.327 C 819.362 843.282 823.301 830.453 831.016 821.112 C 841.026 808.994 854.097 805.412 869.027 803.996 z"/>
<path transform="translate(0,0)" fill="rgb(134,203,70)" d="M 1188.52 556.281 A 52.8175 52.8175 0 0 1 1217.52 562.865 A 50.6668 50.6668 0 0 1 1241.97 594.272 C 1245.4 607.63 1242.89 621.545 1235.77 633.285 C 1227.37 647.148 1215.13 654.116 1199.9 658.053 C 1186.24 659.004 1174.41 656.712 1163 648.788 A 50.019 50.019 0 0 1 1141.95 615.126 C 1139.88 601.591 1144.12 587.646 1152.23 576.76 C 1161.51 564.305 1173.5 558.407 1188.52 556.281 z"/>
<path transform="translate(0,0)" fill="rgb(221,52,65)" d="M 869.027 803.996 C 869.303 785.455 874.21 769.567 887.847 756.358 C 907.521 737.304 930.47 738.751 955.851 738.95 C 966.405 739.032 977.045 738.593 987.582 738.925 C 1004.23 739.451 1018.81 746.254 1030.05 758.463 C 1040.66 769.99 1046.76 785.153 1045.9 800.939 A 57.2422 57.2422 0 0 1 1026.06 841.24 A 55.3705 55.3705 0 0 1 1003.8 853.019 C 985.217 857.805 935.297 855.52 914.254 854.698 A 46.3019 46.3019 0 0 0 906.051 825.999 C 897.256 813.532 883.873 806.266 869.027 803.996 z"/>
<path transform="translate(0,0)" fill="rgb(250,161,35)" d="M 330.46 967.451 C 345.83 972.695 440.745 969.959 462.33 969.949 L 675.328 969.926 L 1748.88 969.834 L 1748.66 1333.63 L 1748.72 1442.42 C 1748.72 1463.87 1749.34 1485.58 1748.21 1507 C 1734.85 1507.34 1721.44 1507.71 1708.13 1506.2 C 1677.05 1502.66 1638.18 1488.02 1608.9 1476.13 C 1597.78 1471.62 1587.18 1465.87 1576.12 1461.21 C 1551.79 1450.98 1524.81 1446.01 1498.48 1445.57 C 1418.33 1444.22 1362.75 1496.54 1286.75 1501.8 C 1182.75 1508.99 1136.3 1441.7 1045.54 1437.15 C 939.105 1431.81 875.115 1516.36 755.916 1490.22 C 721.133 1482.59 688.411 1464.11 654.937 1451.99 C 607.185 1434.7 558.586 1428.77 509.121 1443.31 C 487.077 1449.78 465.327 1459.18 443.691 1467.01 C 426.376 1473.27 409.254 1479.44 391.352 1483.87 C 377.305 1487.34 363.395 1489.21 348.966 1489.92 C 342.079 1490.25 332.748 1487.95 326.61 1490.83 C 324.332 1493.66 324.742 1495.95 324.445 1499.51 L 324.539 1144.62 L 324.391 1038.53 C 324.313 1018.44 322.873 997.065 325.104 977.118 C 325.628 972.428 326.725 970.294 330.46 967.451 z"/>
<path transform="translate(0,0)" fill="rgb(134,203,70)" d="M 1232.29 1100.31 C 1247.05 1099.36 1261.23 1100.92 1274.23 1108.51 A 73.8665 73.8665 0 0 1 1308.1 1154.33 C 1312.32 1170.92 1308.69 1187.28 1300.01 1201.75 C 1288.9 1220.27 1272.01 1229.91 1251.58 1235.18 A 69.7984 69.7984 0 0 1 1203.08 1224.18 C 1187.84 1214.1 1178.11 1199.15 1174.49 1181.28 C 1170.88 1163.47 1175.35 1144.71 1185.47 1129.74 C 1196.47 1113.44 1213.25 1104.01 1232.29 1100.31 z"/>
<path transform="translate(0,0)" fill="rgb(221,117,50)" d="M 1569.98 1196.43 C 1590.56 1194.16 1612.25 1201.22 1628.63 1213.55 C 1646.55 1227.04 1659.34 1248.4 1662.28 1270.68 C 1665.39 1294.29 1659.29 1316.71 1644.63 1335.49 C 1628.91 1355.63 1606.89 1365.55 1581.96 1368.6 C 1581.68 1368.64 1581.4 1368.69 1581.12 1368.71 C 1559.55 1370.55 1534.72 1361.07 1518.4 1347.21 A 82.8833 82.8833 0 0 1 1489.23 1290.27 C 1487.29 1266.27 1494.19 1243.8 1510.08 1225.57 C 1525.84 1207.48 1546.33 1198.14 1569.98 1196.43 z"/>
<path transform="translate(0,0)" fill="rgb(221,117,50)" d="M 573.098 1097.45 C 579.334 1097.86 585.275 1098.47 591.296 1100.22 C 623.891 1109.73 626.382 1132.84 640.471 1158.49 L 641.098 1159.61 C 650.603 1161.97 659.741 1163.01 668.269 1168.4 C 676.462 1173.57 682.105 1181.59 683.808 1191.17 C 690.394 1228.19 652.053 1230.51 636.462 1253.31 C 628.956 1264.28 629.373 1278.55 621.446 1289.09 C 615.314 1297.25 606.6 1299.86 596.928 1301.37 C 565.241 1301.14 565.157 1275.47 542.175 1264.89 C 533.486 1260.9 523.202 1262.75 513.985 1260.93 C 504.219 1259 496.855 1254.5 491.519 1246 C 486.319 1237.7 484.047 1228.15 486.457 1218.53 C 489.982 1204.46 501.336 1195.49 513.293 1188.62 C 512.378 1183.76 511.616 1178.93 511.238 1173.99 C 509.711 1154.05 514.099 1134.35 527.45 1118.95 C 539.558 1104.98 554.9 1098.71 573.098 1097.45 z"/>
</svg>