<svg id="Capa_1" enable-background="new 0 0 512 512" height="300" viewBox="0 0 512 512" width="300" xmlns="http://www.w3.org/2000/svg" version="1.1" xmlns:xlink="http://www.w3.org/1999/xlink" xmlns:svgjs="http://svgjs.dev/svgjs"><g width="100%" height="100%" transform="matrix(1,0,0,1,0,0)"><g><g><circle cx="245" cy="256" fill="#512375" r="245" fill-opacity="0" data-original-color="#512375ff" stroke="none" stroke-opacity="1"/></g><g><circle cx="240" cy="256" fill="#351356" r="200" fill-opacity="0" data-original-color="#351356ff" stroke="none" stroke-opacity="1"/></g><g><g><path d="m381.419 86.007-342.689 142.286c-24.661 10.24-24.661 45.174 0 55.413l78.946 32.779c5.599 2.325 9.248 7.791 9.248 13.853v104.987c0 8.284 6.716 15 15 15 8.284 0 15-6.716 15-15v-80.074c0-10.696 10.874-17.955 20.752-13.853 5.599 2.325 9.248 7.791 9.248 13.853v40.074c0 8.284 6.716 15 15 15 8.284 0 15-6.716 15-15v-15.162c0-10.696 10.874-17.955 20.752-13.853l143.743 59.683 86.581-60v-219.986z" fill="#ffe38b" fill-opacity="1" data-original-color="#fecf32ff" stroke="none" stroke-opacity="1"/></g><g><path d="m142.802 185.082-104.072 43.211c-24.661 10.24-24.661 45.174 0 55.413l78.946 32.779c5.599 2.325 9.248 7.791 9.248 13.853v104.987c0 8.284 6.716 15 15 15s15-6.716 15-15v-80.074c0-10.696 10.874-17.955 20.752-13.853 5.599 2.325 9.248 7.791 9.248 13.853v40.074c0 8.284 6.716 15 15 15s15-6.716 15-15v-15.162c0-10.696 10.874-17.955 20.752-13.854-46.22-19.19-94.243-80.627-94.874-181.227z" fill="#ffc566" fill-opacity="1" data-original-color="#fdae2fff" stroke="none" stroke-opacity="1"/></g><g><g><path d="m379.036 183.081c-20.565 20.565-23.081 52.344-7.547 75.653 3.472 5.21 10.899 5.847 15.326 1.421l69.295-69.295c4.427-4.427 3.789-11.854-1.421-15.326-23.309-15.534-55.088-13.018-75.653 7.547z" fill="#fb3a4a" fill-opacity="1" data-original-color="#fb3a4aff" stroke="none" stroke-opacity="1"/></g><g><path d="m379.036 183.081c-20.565 20.565-23.081 52.344-7.547 75.653 3.472 5.21 10.899 5.847 15.326 1.421l34.647-34.648-31.82-31.82c-2.929 2.929-7.678 2.929-10.607 0s-2.928-7.677.001-10.606z" fill="#dd104f" fill-opacity="1" data-original-color="#dd104fff" stroke="none" stroke-opacity="1"/></g><g><path d="m389.642 257.327c-17.546-17.546-17.546-46.094 0-63.64s46.094-17.546 63.64 0z" fill="#dd104f" fill-opacity="1" data-original-color="#dd104fff" stroke="none" stroke-opacity="1"/></g><g><path d="m404.833 199.538c-.387-7.632-9.609-11.381-15.038-6.003-.051.05-.102.101-.153.152-17.546 17.546-17.546 46.094 0 63.64l28.284-28.284c-8.186-8.186-12.548-18.765-13.093-29.505z" fill="#c80c4a" fill-opacity="1" data-original-color="#c80c4aff" stroke="none" stroke-opacity="1"/></g><g><circle cx="405.552" cy="209.598" fill="#fb3a4a" r="5" fill-opacity="1" data-original-color="#fb3a4aff" stroke="none" stroke-opacity="1"/></g><g><circle cx="423.891" cy="198.329" fill="#fb3a4a" r="5" fill-opacity="1" data-original-color="#fb3a4aff" stroke="none" stroke-opacity="1"/></g><g><circle cx="394.283" cy="227.937" fill="#fb3a4a" r="5" fill-opacity="1" data-original-color="#fb3a4aff" stroke="none" stroke-opacity="1"/></g></g><g><g><path d="m255.64 194.594c-15.621 15.621-15.621 40.947 0 56.569 15.621 15.621 40.948 15.621 56.569 0s15.621-40.948 0-56.569-40.948-15.62-56.569 0zm45.962 45.963c-9.748 9.748-25.608 9.748-35.355 0-9.748-9.748-9.748-25.608 0-35.355s25.608-9.748 35.355 0c9.748 9.747 9.748 25.607 0 35.355z" fill="#a3b52e" fill-opacity="1" data-original-color="#3fc37cff" stroke="none" stroke-opacity="1"/></g><g><path d="m301.602 251.163c-2.928-2.928-2.929-7.675-.002-10.604-9.748 9.745-25.606 9.745-35.353-.002-9.748-9.748-9.748-25.608 0-35.355-2.929 2.929-7.678 2.929-10.607 0s-2.929-7.678 0-10.607c-15.621 15.621-15.621 40.948 0 56.569s40.948 15.621 56.569 0c-2.929 2.928-7.678 2.928-10.607-.001z" fill="#758424" fill-opacity="1" data-original-color="#17a388ff" stroke="none" stroke-opacity="1"/></g></g><g><g><path d="m438.836 313.611c-15.621-15.621-40.947-15.621-56.569 0-15.621 15.621-15.621 40.948 0 56.569s40.948 15.621 56.569 0 15.621-40.948 0-56.569zm-45.962 45.962c-9.748-9.748-9.748-25.608 0-35.355 9.748-9.748 25.608-9.748 35.355 0 9.748 9.748 9.748 25.608 0 35.355-9.747 9.748-25.607 9.748-35.355 0z" fill="#a3b52e" fill-opacity="1" data-original-color="#3fc37cff" stroke="none" stroke-opacity="1"/></g><g><path d="m382.268 359.573c2.928-2.928 7.675-2.929 10.604-.002-9.745-9.748-9.745-25.606.002-35.353 9.748-9.748 25.608-9.748 35.355 0-2.929-2.929-2.929-7.678 0-10.607s7.678-2.929 10.607 0c-15.621-15.621-40.948-15.621-56.569 0s-15.621 40.948 0 56.569c-2.928-2.929-2.928-7.678.001-10.607z" fill="#758424" fill-opacity="1" data-original-color="#17a388ff" stroke="none" stroke-opacity="1"/></g></g><g><g><path d="m111.062 243.601c-22.091 0-40 17.908-40 40 0 22.091 17.909 40 40 40s40-17.909 40-40c0-22.092-17.908-40-40-40zm0 65c-13.785 0-25-11.215-25-25s11.215-25 25-25 25 11.215 25 25-11.214 25-25 25z" fill="#a3b52e" fill-opacity="1" data-original-color="#3fc37cff" stroke="none" stroke-opacity="1"/></g><g><path d="m103.562 316.101c0-4.141 3.356-7.498 7.497-7.5-13.784-.002-24.997-11.216-24.997-25 0-13.785 11.215-25 25-25-4.142 0-7.5-3.358-7.5-7.5s3.358-7.5 7.5-7.5c-22.091 0-40 17.909-40 40s17.909 40 40 40c-4.142 0-7.5-3.358-7.5-7.5z" fill="#758424" fill-opacity="1" data-original-color="#17a388ff" stroke="none" stroke-opacity="1"/></g></g><g><path d="m388.206 41.184c-16.929 8.737-20.28 31.375-6.787 44.823.096.096.192.191.287.287 45.33 45.33 70.294 105.6 70.294 169.706s-24.964 124.376-70.294 169.706c-.096.096-.192.191-.287.287-13.493 13.448-10.142 36.085 6.787 44.823 13.191 6.808 29.316 4.208 39.628-6.471 52.105-53.963 84.166-127.406 84.166-208.345s-32.061-154.382-84.167-208.345c-10.311-10.679-26.436-13.279-39.627-6.471z" fill="#ffc566" fill-opacity="1" data-original-color="#fdae2fff" stroke="none" stroke-opacity="1"/></g><g><g><path d="m260.03 225.432c-20.565-20.565-52.344-23.081-75.653-7.547-5.21 3.472-5.847 10.899-1.421 15.326l69.295 69.295c4.427 4.427 11.854 3.789 15.326-1.421 15.534-23.309 13.018-55.088-7.547-75.653z" fill="#fb3a4a" fill-opacity="1" data-original-color="#fb3a4aff" stroke="none" stroke-opacity="1"/></g><g><path d="m260.03 225.432c-20.565-20.565-52.344-23.081-75.653-7.547-5.21 3.472-5.847 10.899-1.421 15.326l34.647 34.648 31.82-31.82c-2.929-2.929-2.929-7.678 0-10.607 2.93-2.929 7.678-2.929 10.607 0z" fill="#dd104f" fill-opacity="1" data-original-color="#dd104fff" stroke="none" stroke-opacity="1"/></g><g><path d="m185.784 236.038c17.546-17.546 46.094-17.546 63.64 0s17.546 46.094 0 63.64z" fill="#dd104f" fill-opacity="1" data-original-color="#dd104fff" stroke="none" stroke-opacity="1"/></g><g><path d="m243.573 251.229c7.632-.387 11.381-9.609 6.003-15.038-.05-.051-.101-.102-.152-.153-17.546-17.546-46.094-17.546-63.64 0l28.284 28.284c8.186-8.185 18.765-12.548 29.505-13.093z" fill="#c80c4a" fill-opacity="1" data-original-color="#c80c4aff" stroke="none" stroke-opacity="1"/></g><g><circle cx="233.514" cy="251.948" fill="#fb3a4a" r="5" fill-opacity="1" data-original-color="#fb3a4aff" stroke="none" stroke-opacity="1"/></g><g><circle cx="244.782" cy="270.288" fill="#fb3a4a" r="5" fill-opacity="1" data-original-color="#fb3a4aff" stroke="none" stroke-opacity="1"/></g><g><circle cx="215.174" cy="240.68" fill="#fb3a4a" r="5" fill-opacity="1" data-original-color="#fb3a4aff" stroke="none" stroke-opacity="1"/></g></g><g><g><circle cx="291.988" cy="361.129" fill="#fb3a4a" r="40" fill-opacity="1" data-original-color="#fb3a4aff" stroke="none" stroke-opacity="1"/></g><g><path d="m291.988 361.129c0-8.988 2.966-17.279 7.972-23.955 4.909-6.547.536-15.978-7.647-16.044-1.148-.009-2.308.03-3.477.12-19.612 1.51-35.407 17.437-36.752 37.061-1.601 23.366 16.88 42.818 39.903 42.818.109 0 .217 0 .326-.001 8.183-.066 12.556-9.497 7.647-16.044-5.005-6.675-7.972-14.967-7.972-23.955z" fill="#dd104f" fill-opacity="1" data-original-color="#dd104fff" stroke="none" stroke-opacity="1"/></g><g><circle cx="275.092" cy="349.895" fill="#c80c4a" r="10" fill-opacity="1" data-original-color="#c80c4aff" stroke="none" stroke-opacity="1"/></g><g><circle cx="313.668" cy="363.683" fill="#c80c4a" r="5" fill-opacity="1" data-original-color="#c80c4aff" stroke="none" stroke-opacity="1"/></g><g><circle cx="296.988" cy="378.746" fill="#c80c4a" r="7.5" fill-opacity="1" data-original-color="#c80c4aff" stroke="none" stroke-opacity="1"/></g></g><g><g><circle cx="344.488" cy="128.667" fill="#fb3a4a" r="40" fill-opacity="1" data-original-color="#fb3a4aff" stroke="none" stroke-opacity="1"/></g><g><path d="m344.488 128.667c0-8.988 2.966-17.279 7.972-23.955 4.909-6.547.536-15.978-7.647-16.044-1.148-.009-2.308.03-3.477.12-19.612 1.51-35.407 17.437-36.752 37.061-1.601 23.366 16.88 42.818 39.903 42.818.109 0 .217 0 .326-.001 8.183-.066 12.556-9.497 7.647-16.044-5.005-6.676-7.972-14.968-7.972-23.955z" fill="#dd104f" fill-opacity="1" data-original-color="#dd104fff" stroke="none" stroke-opacity="1"/></g><g><circle cx="327.592" cy="117.433" fill="#c80c4a" r="10" fill-opacity="1" data-original-color="#c80c4aff" stroke="none" stroke-opacity="1"/></g><g><circle cx="366.168" cy="131.22" fill="#c80c4a" r="5" fill-opacity="1" data-original-color="#c80c4aff" stroke="none" stroke-opacity="1"/></g><g><circle cx="349.488" cy="146.284" fill="#c80c4a" r="7.5" fill-opacity="1" data-original-color="#c80c4aff" stroke="none" stroke-opacity="1"/></g></g><g><circle cx="194.872" cy="305.45" fill="#ffc566" r="12.5" fill-opacity="1" data-original-color="#fdae2fff" stroke="none" stroke-opacity="1"/></g><g><circle cx="224.184" cy="179.679" fill="#ffc566" r="12.5" fill-opacity="1" data-original-color="#fdae2fff" stroke="none" stroke-opacity="1"/></g><g><circle cx="347.446" cy="326.907" fill="#ffc566" r="10" fill-opacity="1" data-original-color="#fdae2fff" stroke="none" stroke-opacity="1"/></g><g><circle cx="417.926" cy="273.1" fill="#ffc566" r="10" fill-opacity="1" data-original-color="#fdae2fff" stroke="none" stroke-opacity="1"/></g><g><circle cx="54.863" cy="247.867" fill="#e59446" r="10" fill-opacity="1" data-original-color="#fd9430ff" stroke="none" stroke-opacity="1"/></g><g><circle cx="370.552" cy="392.95" fill="#ffc566" r="7.5" fill-opacity="1" data-original-color="#fdae2fff" stroke="none" stroke-opacity="1"/></g><g><circle cx="224.184" cy="334.407" fill="#ffc566" r="7.5" fill-opacity="1" data-original-color="#fdae2fff" stroke="none" stroke-opacity="1"/></g><g><circle cx="270.083" cy="158.008" fill="#ffc566" r="7.5" fill-opacity="1" data-original-color="#fdae2fff" stroke="none" stroke-opacity="1"/></g><g><circle cx="329.506" cy="283.601" fill="#ffc566" r="15" fill-opacity="1" data-original-color="#fdae2fff" stroke="none" stroke-opacity="1"/></g><g><circle cx="142.787" cy="218.928" fill="#e59446" r="15" fill-opacity="1" data-original-color="#fd9430ff" stroke="none" stroke-opacity="1"/></g><g><path d="m482 286c-16.569 0-30-13.431-30-30 0 64.106-24.964 124.376-70.294 169.706-.096.096-.192.191-.287.287-13.493 13.448-10.142 36.085 6.787 44.823 13.191 6.808 29.316 4.208 39.628-6.471 52.105-53.963 84.166-127.407 84.166-208.345 0 16.569-13.431 30-30 30z" fill="#e59446" fill-opacity="1" data-original-color="#fd9430ff" stroke="none" stroke-opacity="1"/></g></g></g></g></svg>