<svg id="Layer_1" height="300" viewBox="0 0 512 512" width="300" xmlns="http://www.w3.org/2000/svg" data-name="Layer 1" version="1.1" xmlns:xlink="http://www.w3.org/1999/xlink" xmlns:svgjs="http://svgjs.dev/svgjs"><g width="100%" height="100%" transform="matrix(1,0,0,1,0,0)"><path d="m294.378 19.829a3 3 0 0 0 -3.933-1.591c-5.565 2.362-9.484 5.983-11.645 10.772l5.988 1.437a15.662 15.662 0 0 1 8-6.685 3 3 0 0 0 1.59-3.933z" fill="#4e722f" fill-opacity="1" data-original-color="#436f1eff" stroke="none" stroke-opacity="1"/><ellipse cx="259" cy="316.5" fill="#ffd06c" rx="184" ry="49.5" fill-opacity="1" data-original-color="#ffefccff" stroke="none" stroke-opacity="1"/><path d="m442.63 315.08s13.78 151.85-127.15 177.16c-27.91 5.01-85.51 5.01-113.42 0-138.77-24.92-127.53-172.53-127.15-177.05-1.15 19.63 32.33 33.04 79.5 40.43 16.88 2.65 35.51 4.52 54.93 5.63q3.69.225 7.42.39 8.64.405 17.43.61c16.03.39 32.32.28 48.37-.32 8.27-.3 16.47-.74 24.54-1.31 10.84-.75 21.45-1.74 31.64-2.96q7.41-.885 14.53-1.94c5.88-.87 11.59-1.82 17.09-2.86a.01.01 0 0 0 .01-.01c7.75-1.45 15.09-3.08 21.89-4.87 29.76-7.85 49.4-18.85 50.37-32.9z" fill="#4b93b7" fill-opacity="1" data-original-color="#5d74f1ff" stroke="none" stroke-opacity="1"/><path d="m400.11 191.41a19.029 19.029 0 1 1 -24.13 28.08c-11.39 17.25-38.89 2.26-33.04-17.05-2.78.88-7.15.94-10.11-.59-9.36-4.82-11.65-15.59-6.83-24.93s16.77-15.07 26.11-10.25l25.75-24.69 28.69 14.94z" fill="#ffde8d" fill-opacity="1" data-original-color="#ffde8dff" stroke="none" stroke-opacity="1"/><path d="m339.19 61.54a28.29 28.29 0 1 1 -28.29 28.29 28.282 28.282 0 0 1 28.29-28.29z" fill="#f98797" fill-opacity="1" data-original-color="#f98797ff" stroke="none" stroke-opacity="1"/><path d="m356.17 137.89c-16.36 5.66-35.62 17.24-54.32 31.22l-2.69-1.63 3.32-8.11-8.27-2.89.5-2.82c23.27-9.23 45.9-16.61 60.38-18.15a1.316 1.316 0 0 1 1.08 2.38z" fill="#e94253" fill-opacity="1" data-original-color="#e94253ff" stroke="none" stroke-opacity="1"/><path d="m298.34 199.76a9.53 9.53 0 0 1 -2.21 13.3l-17.24 12.32-.58.42a10.416 10.416 0 0 0 -2.41 14.52l4.17 5.83c-.17.08-.34.15-.51.22-14.14 5.61-27.95 2.33-35.29-7.94s-5.99-24.4 3.88-35.97c.12-.14.25-.28.38-.41l4.17 5.83a10.406 10.406 0 0 0 14.52 2.41l.58-.42 17.24-12.32a9.531 9.531 0 0 1 13.3 2.21z" fill="#f3a38d" fill-opacity="1" data-original-color="#f3a38dff" stroke="none" stroke-opacity="1"/><path d="m286.73 169.05-9.56 4.3-1.7-3.8 9.41-4.23a4.953 4.953 0 0 0 1.85 3.73z" fill="#81df6b" fill-opacity="1" data-original-color="#81df6bff" stroke="none" stroke-opacity="1"/><path d="m283.7 232.1a9.45 9.45 0 0 1 -3.63 14.05l-4.17-5.83a10.416 10.416 0 0 1 2.41-14.52l.58-.42z" fill="#ffde8d" fill-opacity="1" data-original-color="#ffde8dff" stroke="none" stroke-opacity="1"/><path d="m276.53 50.61a8.017 8.017 0 0 1 2.31.34 81.034 81.034 0 0 1 -6.25 14.59 7.987 7.987 0 0 1 3.94-14.93z" fill="#bdf4ae" fill-opacity="1" data-original-color="#bdf4aeff" stroke="none" stroke-opacity="1"/><path d="m266.45 63.21a7.95 7.95 0 0 1 5.95 2.67 71.612 71.612 0 0 1 -9.01 12.7h-.01a7.992 7.992 0 0 1 3.07-15.37z" fill="#bdf4ae" fill-opacity="1" data-original-color="#bdf4aeff" stroke="none" stroke-opacity="1"/><path d="m267.8 209.87-.58.42a10.406 10.406 0 0 1 -14.52-2.41l-4.17-5.83a9.448 9.448 0 0 1 14.47 1.11z" fill="#ffde8d" fill-opacity="1" data-original-color="#ffde8dff" stroke="none" stroke-opacity="1"/><circle cx="256.2" cy="123.98" fill="#ff9933" r="8.07" fill-opacity="1" data-original-color="#ff9933ff" stroke="none" stroke-opacity="1"/><path d="m256.36 75.82a8 8 0 0 1 6.5 3.34 73.781 73.781 0 0 1 -11.9 10.53 7.99 7.99 0 0 1 5.4-13.87z" fill="#bdf4ae" fill-opacity="1" data-original-color="#bdf4aeff" stroke="none" stroke-opacity="1"/><path d="m243.75 85.91a8 8 0 0 1 6.92 3.98 85.831 85.831 0 0 1 -13.87 7.91 7.838 7.838 0 0 1 -1.03-3.91 7.976 7.976 0 0 1 7.98-7.98z" fill="#bdf4ae" fill-opacity="1" data-original-color="#bdf4aeff" stroke="none" stroke-opacity="1"/><path d="m250.67 89.89a7.989 7.989 0 0 0 -14.9 4 7.838 7.838 0 0 0 1.03 3.91 118.362 118.362 0 0 1 -25.55 8.13s37.82-57.15 72.28-80.68a108.188 108.188 0 0 1 -4.69 25.7 7.986 7.986 0 0 0 -6.25 14.59 3.718 3.718 0 0 1 -.19.34 7.987 7.987 0 1 0 -9.02 12.7c-.17.2-.34.39-.52.58a7.987 7.987 0 1 0 -11.9 10.53c-.1.07-.19.14-.29.2z" fill="#81df6b" fill-opacity="1" data-original-color="#81df6bff" stroke="none" stroke-opacity="1"/><path d="m228.06 168.45a8.065 8.065 0 1 1 -8.06 8.06 8.064 8.064 0 0 1 8.06-8.06z" fill="#ff9933" fill-opacity="1" data-original-color="#ff9933ff" stroke="none" stroke-opacity="1"/><path d="m227.96 136.09a8.065 8.065 0 1 1 -8.07 8.06 8.07 8.07 0 0 1 8.07-8.06z" fill="#ff9933" fill-opacity="1" data-original-color="#ff9933ff" stroke="none" stroke-opacity="1"/><path d="m211.25 105.93a118.362 118.362 0 0 0 25.55-8.13 85.831 85.831 0 0 0 13.87-7.91c.1-.06.19-.13.29-.2a73.781 73.781 0 0 0 11.9-10.53c.18-.19.35-.38.52-.58h.01a71.612 71.612 0 0 0 9.01-12.7 3.718 3.718 0 0 0 .19-.34 81.034 81.034 0 0 0 6.25-14.59 108.188 108.188 0 0 0 4.69-25.7c17.65 48.74-13.45 84.88-72.28 80.68z" fill="#50b568" fill-opacity="1" data-original-color="#50b568ff" stroke="none" stroke-opacity="1"/><path d="m175.52 161.03a26.6 26.6 0 1 1 -26.6 26.59 26.592 26.592 0 0 1 26.6-26.59z" fill="#f98797" fill-opacity="1" data-original-color="#f98797ff" stroke="none" stroke-opacity="1"/><path d="m141 243.25v.01a70.092 70.092 0 0 0 -13.85 5.72 338.044 338.044 0 0 0 -15.42-30.67c-4.39-7.91-8.83-15.86-14.22-23.14a13.262 13.262 0 0 1 .38-5.53c3.03-9.92 16.36-12.03 22.5-3.83 5.97 7.98 9.16 17.55 12.27 26.9 3.34 10.02 6.67 20.09 8.34 30.54z" fill="#81df6b" fill-opacity="1" data-original-color="#81df6bff" stroke="none" stroke-opacity="1"/><path d="m97.51 195.17c5.39 7.28 9.83 15.23 14.22 23.14a338.044 338.044 0 0 1 15.42 30.67 64.913 64.913 0 0 0 -12.8 9.13c-3.58-3.94-7.37-8.22-10.69-12.37-3.95-4.94-3.95-4.94-9-11.08-3.64-4.42-7.51-11.5-13.33-12.34-4.74-5.58-10.81-11.02-12.09-18.55-1.15-6.78 1.81-14.34 8.41-17.09a14.072 14.072 0 0 1 16.37 4.02q1.815 2.19 3.49 4.47z" fill="#50b568" fill-opacity="1" data-original-color="#50b568ff" stroke="none" stroke-opacity="1"/><path d="m114.35 258.11a69.872 69.872 0 0 0 -9.31 10.46c-5.7-4.01-11.33-8.08-17.19-11.89-6.68-4.35-15.28-9.48-17.42-17.73-1.49-5.76.47-14.01 6.72-16.18a8.727 8.727 0 0 1 4.18-.45c5.82.84 9.69 7.92 13.33 12.34 5.05 6.14 5.05 6.14 9 11.08 3.32 4.15 7.11 8.43 10.69 12.37z" fill="#81df6b" fill-opacity="1" data-original-color="#81df6bff" stroke="none" stroke-opacity="1"/><circle cx="339.19" cy="89.83" fill="#ffb8c4" r="17.29" fill-opacity="1" data-original-color="#ffb8c4ff" stroke="none" stroke-opacity="1"/><path d="m175.52 171.37a16.255 16.255 0 1 1 -16.25 16.25 16.25 16.25 0 0 1 16.25-16.25z" fill="#ffb8c4" fill-opacity="1" data-original-color="#ffb8c4ff" stroke="none" stroke-opacity="1"/><path d="m105.04 268.57a69.872 69.872 0 0 1 9.31-10.46 64.913 64.913 0 0 1 12.8-9.13 70.092 70.092 0 0 1 13.85-5.72 79.809 79.809 0 0 1 8.78-2.1 27.962 27.962 0 0 1 28.77 12.7q5.385 8.655 9.84 17.09 14.88 28.125 19.45 53.88a74.142 74.142 0 0 0 1.82 14.95 144.812 144.812 0 0 1 -.32 21.47c-19.42-1.11-38.05-2.98-54.93-5.63-16.94-10.39-35.52-26.84-51.91-45.84a28.05 28.05 0 0 1 -3.56-31.4 80.862 80.862 0 0 1 6.1-9.81z" fill="#ff9933" fill-opacity="1" data-original-color="#ff9933ff" stroke="none" stroke-opacity="1"/><path d="m426.01 295.22c-1.43-4.39-4.75-8.95-10.55-13.89a26.353 26.353 0 0 0 -6.04-3.88l-23.07-19.59a20.077 20.077 0 0 0 -5.46-6.58c-23.53-17.69-32.65-.58-49.35 19.93h-.01c-1.4 1.73-2.87 3.48-4.39 5.24-8.5 9.78-16.76 19.1-21.87 27.82a44.108 44.108 0 0 1 7.06 11.75 56.178 56.178 0 0 1 1.85 5.43 47.309 47.309 0 0 1 1.89 13.03c0 1.14-.04 2.26-.13 3.37a37.448 37.448 0 0 1 4.16.8c2.24 9.78 7.5 15.47 17.29 15.04a40.942 40.942 0 0 1 1.35 3.97q7.41-.885 14.53-1.94c5.88-.87 11.59-1.82 17.09-2.86a.01.01 0 0 0 .01-.01c7.75-1.45 15.09-3.08 21.89-4.87v-.01c2.31-2.6 5.27-5.9 7.47-8.42 15.1-17.37 31.01-29.84 26.28-44.33z" fill="#e94253" fill-opacity="1" data-original-color="#e94253ff" stroke="none" stroke-opacity="1"/><path d="m417.2 239.84a9.185 9.185 0 0 1 .91 12.96l-11.9 13.69a20.923 20.923 0 0 0 -7.67-6.99v-.01c2.11-2.37 6.52-7.31 9.35-10.5a3.592 3.592 0 0 0 -.33-5.1s-3.74-2.28-4.13-3.59c-1.06-3.49 2.84-7.67 6.16-7.08 2.48.43 7.61 6.62 7.61 6.62z" fill="#50b568" fill-opacity="1" data-original-color="#50b568ff" stroke="none" stroke-opacity="1"/><path d="m406.21 266.49a19.9 19.9 0 0 1 3.26 9.2 8.027 8.027 0 0 1 -.05 1.76c-.52 3.99-3.75 8.39-7.43 9.73a7.147 7.147 0 0 1 -.79.23 8.407 8.407 0 0 1 -8.43-3c-.45-.57-.91-1.12-1.39-1.66a36.305 36.305 0 0 0 -6.99-6.17c-.67-.47-1.35-.9-2.05-1.32a8.157 8.157 0 0 1 -3.81-8.4 6.956 6.956 0 0 1 .42-1.53 14.708 14.708 0 0 1 7.4-7.47 7.265 7.265 0 0 1 2.03-.5 18.324 18.324 0 0 1 10.16 2.14 20.923 20.923 0 0 1 7.67 6.99z" fill="#81df6b" fill-opacity="1" data-original-color="#81df6bff" stroke="none" stroke-opacity="1"/><path d="m391.38 282.75c-1.11 7-7.69 18.54-17.6 29.94-13.65 15.71-25.77 21.94-30.37 17.94s.04-16.73 13.7-32.44c9.95-11.44 20.51-19.58 27.28-21.61a36.305 36.305 0 0 1 6.99 6.17z" fill="#ffde8d" fill-opacity="1" data-original-color="#ffde8dff" stroke="none" stroke-opacity="1"/><path d="m232.06 492.24c-102.223-18.357-123.043-103.282-126.768-148.552-19.462-7.321-31.067-16.806-30.382-28.5-.38 4.52-11.62 152.13 127.15 177.05 17.241 3.095 45.807 4.275 71.71 3.547-16.029-.449-31.041-1.63-41.71-3.545z" fill="#466b84" fill-opacity="1" data-original-color="#475ebfff" stroke="none" stroke-opacity="1"/><path d="m184.41 355.62c-16.94-10.39-35.52-26.84-51.91-45.84a28.05 28.05 0 0 1 -3.56-31.4 80.862 80.862 0 0 1 6.1-9.81 69.872 69.872 0 0 1 9.31-10.46 64.913 64.913 0 0 1 12.8-9.13 69.139 69.139 0 0 1 11.109-4.833 28.01 28.01 0 0 0 -18.479-2.987 79.809 79.809 0 0 0 -8.78 2.1 70.092 70.092 0 0 0 -13.85 5.72 64.913 64.913 0 0 0 -12.8 9.13 69.872 69.872 0 0 0 -9.31 10.46 80.862 80.862 0 0 0 -6.1 9.81 28.05 28.05 0 0 0 3.56 31.4c16.39 19 34.97 35.45 51.91 45.84 16.88 2.65 35.51 4.52 54.93 5.63.077-.768.144-1.568.2-2.386-8.696-.909-17.115-1.986-25.13-3.244z" fill="#d1792a" fill-opacity="1" data-original-color="#d1792aff" stroke="none" stroke-opacity="1"/><path d="m148.316 455.25a2.985 2.985 0 0 1 -1.945-.717 142.941 142.941 0 0 1 -34.7-44.637 3 3 0 1 1 5.353-2.709 136.979 136.979 0 0 0 33.241 42.78 3 3 0 0 1 -1.948 5.283z" fill="#f4f8fc" fill-opacity="1" data-original-color="#f4f8fcff" stroke="none" stroke-opacity="1"/><path d="m109.053 399.97a3 3 0 0 1 -2.775-1.858c-.8-1.944-1.584-3.946-2.327-5.954a3 3 0 0 1 5.627-2.084c.718 1.94 1.474 3.876 2.248 5.753a3 3 0 0 1 -2.773 4.143z" fill="#f4f8fc" fill-opacity="1" data-original-color="#f4f8fcff" stroke="none" stroke-opacity="1"/><path d="m301.855 279.608a3 3 0 0 0 -3.952-1.544l-13.659 5.985 5.265-12.169a3 3 0 0 0 -5.509-2.38l-5.265 12.169-4.989-14.055a3 3 0 0 0 -5.654 2.007l5.568 15.687a3 3 0 0 0 3.831 1.824l.011-.006a2.971 2.971 0 0 0 3.518 1.6v.012a3 3 0 0 0 3.953 1.544l15.333-6.717a3 3 0 0 0 1.549-3.957z" fill="#bc868f" fill-opacity="1" data-original-color="#bc868fff" stroke="none" stroke-opacity="1"/><path d="m275.176 175.346a3 3 0 0 1 -1.232-5.737l9.558-4.3a3 3 0 1 1 2.46 5.473l-9.558 4.3a3 3 0 0 1 -1.228.264z" fill="#4e722f" fill-opacity="1" data-original-color="#436f1eff" stroke="none" stroke-opacity="1"/><path d="m314.18 321.45a56.178 56.178 0 0 0 -1.85-5.43 44.108 44.108 0 0 0 -7.06-11.75 67.062 67.062 0 0 0 -21.5-16.74c-1.17-.59-2.36-1.16-3.57-1.69-1.22-.55-2.46-1.06-3.71-1.53-14.01-5.37-29.39-6.63-41.58-1.8-19.62 7.77-27.39 23.8-27.07 42.32a74.142 74.142 0 0 0 1.82 14.95 101.565 101.565 0 0 0 5.64 17.55c.41.97.9 2.78 1.46 4.31q8.64.405 17.43.61c16.03.39 32.32.28 48.37-.32 8.27-.3 16.47-.74 24.54-1.31a43.305 43.305 0 0 0 8.84-22.77c.09-1.11.13-2.23.13-3.37a47.309 47.309 0 0 0 -1.89-13.03z" fill="#f98797" fill-opacity="1" data-original-color="#f98797ff" stroke="none" stroke-opacity="1"/><path d="m297.46 320.11a35.621 35.621 0 0 1 2.64 13.11c0 11.81-6.77 21.81-17.54 28.71-16.05.6-32.34.71-48.37.32-2.23-5-4.45-10-5.63-12.8-9.06-21.57-7.82-44.52 13.92-53.13 18.59-7.35 47.62 5.2 54.98 23.79zm-16.55 11.61a18.088 18.088 0 0 0 -1.35-6.68c-3.74-9.46-18.51-15.85-27.97-12.11-11.06 4.39-11.69 16.06-7.08 27.03 1.51 3.59 6.33 14.24 6.33 14.24s11.39-3.6 15.13-4.95c8.85-3.19 14.94-9.55 14.94-17.53z" fill="#fcc5ce" fill-opacity="1" data-original-color="#fcc5ceff" stroke="none" stroke-opacity="1"/><path d="m306.03 171.64c-10.87.86-16.65-.35-19.3-2.59a4.953 4.953 0 0 1 -1.85-3.73c-.27-6.36 9.65-15.15 10.6-16.03l-.77 4.37-.5 2.82 8.27 2.89-3.32 8.11 2.69 1.63z" fill="#50b568" fill-opacity="1" data-original-color="#50b568ff" stroke="none" stroke-opacity="1"/></g></svg>