<svg width="512" height="512" viewBox="0 0 512 512" fill="none" xmlns="http://www.w3.org/2000/svg">
<path d="M367.048 423.481C369.323 421.66 372.737 422.001 374.557 424.391C376.491 426.78 377.97 429.283 378.994 431.9C380.018 434.631 380.587 437.361 380.587 440.092C380.587 454.769 365.91 467.513 342.244 476.273C320.171 484.465 289.793 489.472 256.342 489.472C222.891 489.472 192.513 484.352 170.44 476.273C146.774 467.513 132.097 454.769 132.097 440.092C132.097 437.361 132.666 434.631 133.69 431.9C134.714 429.283 136.193 426.78 138.127 424.391C172.829 343.609 208.783 469.561 367.048 423.481Z" fill="#7EAAB3"/>
<path d="M489.245 238.475C489.472 236.086 491.293 234.038 493.796 233.583C496.754 233.128 499.485 235.176 499.826 238.134C512.911 327.45 466.034 388.89 396.516 422.34C355.101 442.365 305.607 452.378 256.228 452.378C206.848 452.378 157.355 442.365 115.94 422.34C46.5355 388.89 -0.340945 327.563 12.7435 238.248C13.1986 235.29 15.9293 233.242 18.7737 233.697C21.2768 234.038 23.0973 236.086 23.3248 238.589H489.245V238.475Z" fill="#CCE6EB"/>
<path d="M256.341 298.78C390.877 298.78 499.94 271.986 499.94 238.933C499.94 205.88 390.877 179.086 256.341 179.086C121.806 179.086 12.7432 205.88 12.7432 238.933C12.7432 271.986 121.806 298.78 256.341 298.78Z" fill="#7EAAB3"/>
<path d="M256.341 277.276C379.001 277.276 478.436 260.109 478.436 238.933C478.436 217.757 379.001 200.59 256.341 200.59C133.682 200.59 34.2471 217.757 34.2471 238.933C34.2471 260.109 133.682 277.276 256.341 277.276Z" fill="#FDB775"/>
<path fill-rule="evenodd" clip-rule="evenodd" d="M67.2429 31.8547C65.9913 29.2378 67.1291 25.9383 69.8598 24.6867C72.5905 23.4352 75.7762 24.5729 77.0278 27.3036C89.5433 53.7 80.8962 74.8627 73.3869 93.0672C65.65 111.84 59.3922 126.973 89.5433 141.309C92.1602 142.56 93.4118 145.746 92.1602 148.477C90.9087 151.208 87.7229 152.345 84.9922 151.094C45.6251 132.434 53.5896 113.092 63.4882 89.1987C69.9736 72.7009 77.7105 54.0414 67.2429 31.8547Z" fill="#FDD9A4"/>
<path fill-rule="evenodd" clip-rule="evenodd" d="M124.928 31.8547C123.677 29.2378 124.815 25.9383 127.545 24.6867C130.276 23.4352 133.348 24.5729 134.713 27.3036C147.229 53.7 138.582 74.8627 131.072 93.0672C123.336 111.84 117.078 126.973 147.229 141.309C149.96 142.56 151.097 145.746 149.846 148.477C148.594 151.208 145.408 152.345 142.678 151.094C103.311 132.434 111.275 113.092 121.174 89.1987C127.773 72.7009 135.51 54.0414 124.928 31.8547Z" fill="#FDD9A4"/>
<path fill-rule="evenodd" clip-rule="evenodd" d="M281.486 27.1917C282.738 24.5748 285.924 23.3232 288.654 24.5748C291.385 25.8263 292.523 29.0121 291.271 31.7428C280.804 53.9294 288.427 72.589 295.14 88.8592C305.038 112.866 313.003 132.209 273.636 150.754C270.905 152.006 267.833 150.868 266.468 148.137C265.102 145.407 266.354 142.335 269.084 140.969C299.236 126.747 292.978 111.615 285.241 92.7277C277.732 74.7508 268.971 53.7019 281.486 27.1917Z" fill="#FDD9A4"/>
<path fill-rule="evenodd" clip-rule="evenodd" d="M223.801 27.1917C225.052 24.5748 228.238 23.3232 230.969 24.5748C233.699 25.8263 234.837 29.0121 233.586 31.7428C223.118 53.9294 230.855 72.589 237.454 88.8592C247.353 112.866 255.317 132.209 215.95 150.754C213.219 152.006 210.147 150.868 208.782 148.137C207.417 145.407 208.668 142.335 211.399 140.969C241.55 126.747 235.292 111.615 227.555 92.7277C219.932 74.7508 211.171 53.7019 223.801 27.1917Z" fill="#FDD9A4"/>
<path d="M447.943 80.5532L283.079 245.417C283.421 246.441 283.762 247.579 283.99 248.603C274.091 246.214 264.42 243.142 255.09 239.387C238.592 232.674 221.867 227.213 205.369 222.775C209.351 220.841 213.447 219.248 217.43 218.111C230.628 214.128 243.826 213.787 255.09 217.542C310.045 162.587 364.999 107.632 419.954 52.6777C423.822 48.8092 428.829 46.875 433.949 46.875C439.069 46.875 444.075 48.8092 447.943 52.6777C451.812 56.5461 453.632 61.5523 453.632 66.6723C453.746 71.6786 451.812 76.6848 447.943 80.5532Z" fill="#E6E6E6"/>
<path fill-rule="evenodd" clip-rule="evenodd" d="M478.208 240.183C474.112 260.777 376.264 277.161 256.228 277.161C133.576 277.275 34.1338 260.094 34.1338 238.931C34.1338 226.302 69.5187 215.152 124.018 208.098C165.206 212.307 210.831 221.523 255.09 239.387C322.56 266.693 408.918 256.795 478.208 240.183Z" fill="#FDCB82"/>
<path fill-rule="evenodd" clip-rule="evenodd" d="M415.972 283.99C366.82 325.746 298.781 376.15 217.999 416.313C200.705 424.847 182.842 433.039 164.523 440.434C193.764 448.399 224.939 452.381 256.228 452.381C298.554 452.381 340.879 444.985 378.198 430.308C384.456 427.805 390.6 425.188 396.516 422.343C466.035 388.779 512.911 327.453 499.827 238.137V238.023V238.82C499.827 256.911 467.4 273.067 415.972 283.99Z" fill="#B2D2D9"/>
</svg>
