<svg id="Capa_1" enable-background="new 0 0 512 512" height="512" viewBox="0 0 512 512" width="512" xmlns="http://www.w3.org/2000/svg"><g><path d="m462.452 388.129h-332.629l-16.516 8.258c0 36.486 29.578 66.064 66.064 66.064h233.532c30.785 0 56.653-21.057 63.985-49.554l2.08-16.51z" fill="#ffc269"/><path d="m181.692 412.903h295.19c1.364-5.288 2.085-10.802 2.085-16.516l-16.516-8.258h-412.903l-16.516 8.258c0 36.486 29.578 66.065 66.065 66.065h80.274c-6.41-5.645-11.727-12.502-15.577-20.216-6.719-13.465 2.85-29.333 17.898-29.333z" fill="#ffa95f"/><path d="m107.355 363.355h-90.839c-9.121 0-16.516 7.394-16.516 16.516 0 9.121 7.395 16.516 16.516 16.516h74.323z" fill="#95d6a4"/><path d="m421.161 396.387h74.323c9.121 0 16.516-7.394 16.516-16.516 0-9.121-7.395-16.516-16.516-16.516h-90.839z" fill="#b3e59f"/><path d="m421.161 189.936-292.709-6.436c-18.243 0-33.032 21.225-33.032 39.468 0 18.243 14.789 24.532 33.032 24.532h292.709l28.614-8.017c2.81-4.858 4.419-10.499 4.419-16.515 0-18.243-14.789-33.032-33.033-33.032z" fill="#c35f5f"/><path d="m421.161 330.323-292.709-9.989c-18.243 0-33.032 24.778-33.032 43.021 0 18.243 14.789 28.312 33.032 28.312h292.709l28.613-11.795c2.811-4.858 4.42-10.5 4.42-16.517 0-18.243-14.789-33.032-33.033-33.032z" fill="#c35f5f"/><path d="m156.903 379.871c-18.243 0-33.032-14.789-33.032-33.032 0-6.048 1.754-12.839 5.379-17.839l-38.411 1.323c-18.243 0-33.032 14.789-33.032 33.032s14.789 33.032 33.032 33.032h330.323c12.196 0 22.889-6.684 28.611-16.516z" fill="#b4484d"/><path d="m156.903 239.484c-18.243 0-33.032-14.789-33.032-33.032 0-6.048 1.462-16.118 5.462-21.118l-38.495 4.602c-18.243 0-33.032 14.789-33.032 33.032s14.789 33.032 33.032 33.032l169.162 13.5 161.161-13.5c12.196 0 22.893-6.684 28.615-16.516z" fill="#b4484d"/><path d="m437.265 305.549-17.322-9.549h-270.443l23.918 67.355c9.122 0 16.516-7.395 16.516-16.516s7.394-16.516 16.516-16.516 16.516 7.395 16.516 16.516v33.032c0 9.122 7.395 16.516 16.516 16.516 9.122 0 16.516-7.395 16.516-16.516v-33.032c0-9.122 7.395-16.516 16.516-16.516h143.34c10.799 0 20.64-7.771 21.716-18.516.217-2.161.1-4.262-.305-6.258z" fill="#fff0af"/><path d="m437.57 167.16c-.068-.679-.176-1.345-.312-1.999l-21.404-11.161h-243.612c-12.104 0-21.775 5.061-20.538 17.419 1.076 10.746 10.916 18.516 21.715 18.516h66.065c9.122 0 16.516 7.395 16.516 16.516v33.032c0 9.122 7.395 16.516 16.516 16.516 9.122 0 16.516-7.395 16.516-16.516v-33.032c0-9.122 7.395-16.516 16.516-16.516 9.122 0 16.516 7.395 16.516 16.516 0 9.122 7.395 16.516 16.516 16.516 9.122 0 16.516-7.395 16.516-16.516s7.395-16.516 16.516-16.516h45.419c12.106.001 21.777-10.417 20.539-22.775z" fill="#fff0af"/><path d="m198.194 305.548h239.072c-1.928-9.404-10.259-16.516-20.233-16.516l-25.033-10.532h-270l-25.854 10.532c-10.799 0-20.64 7.77-21.716 18.516-1.237 12.358 8.434 22.775 20.538 22.775h46.077c9.154 0 15.678 7.7 15.861 16.852.179 8.966 7.504 16.18 16.513 16.18h.002v-33.032c-.002-13.683 11.09-24.775 24.773-24.775z" fill="#ffe07d"/><path d="m417.032 148.645-10.532-10.145h-296.5l-13.854 10.145c-10.799 0-20.641 7.77-21.716 18.516-1.237 12.357 8.433 22.775 20.538 22.775h78.452c0-13.682 11.092-24.774 24.774-24.774h239.065c-1.928-9.405-10.252-16.517-20.227-16.517z" fill="#ffe07d"/><path d="m379.871 49.548h-178.148c-51.66 0-94.087 39.529-98.684 89.99l365.294 3.462 9.264-10.872c-7.863-46.867-48.624-82.58-97.726-82.58z" fill="#ffc269"/><path d="m179.909 132.129c-13.097 0-22.736-12.401-19.424-25.072 6.242-23.879 21.199-44.219 41.238-57.509h-69.594c-51.66 0-94.087 39.529-98.684 89.991-.444 4.87 3.375 9.106 8.265 9.106h428.579c4.944 0 8.714-4.297 8.255-9.22-.23-2.466-.545-4.885-.95-7.296z" fill="#ffa95f"/><g fill="#f5ebcd"><path d="m132.129 123.871c-2.113 0-4.226-.806-5.839-2.419-3.226-3.226-3.226-8.452 0-11.677l8.258-8.258c3.226-3.226 8.452-3.226 11.677 0 3.226 3.226 3.226 8.452 0 11.677l-8.258 8.258c-1.612 1.613-3.725 2.419-5.838 2.419z"/><path d="m173.419 90.839c-2.113 0-4.226-.806-5.839-2.419l-8.258-8.258c-3.226-3.226-3.226-8.452 0-11.677 3.226-3.226 8.452-3.226 11.677 0l8.258 8.258c3.226 3.226 3.226 8.452 0 11.677-1.612 1.612-3.725 2.419-5.838 2.419z"/><path d="m239.484 123.871h-8.258c-4.565 0-8.258-3.698-8.258-8.258s3.694-8.258 8.258-8.258h8.258c4.565 0 8.258 3.698 8.258 8.258s-3.694 8.258-8.258 8.258z"/></g><path d="m247.742 99.097c-2.113 0-4.226-.806-5.839-2.419-3.226-3.226-3.226-8.452 0-11.677l8.258-8.258c3.226-3.226 8.452-3.226 11.677 0s3.226 8.452 0 11.677l-8.258 8.258c-1.612 1.612-3.725 2.419-5.838 2.419z" fill="#faf5dc"/><path d="m330.323 99.097c-2.113 0-4.226-.806-5.839-2.419l-8.258-8.258c-3.226-3.226-3.226-8.452 0-11.677s8.452-3.226 11.677 0l8.258 8.257c3.226 3.226 3.226 8.452 0 11.677-1.613 1.613-3.726 2.42-5.838 2.42z" fill="#f5ebcd"/><path d="m355.097 132.129c-2.113 0-4.226-.806-5.839-2.419-3.226-3.226-3.226-8.452 0-11.677l8.258-8.258c3.226-3.226 8.452-3.226 11.677 0s3.226 8.452 0 11.677l-8.258 8.258c-1.612 1.613-3.725 2.419-5.838 2.419z" fill="#f5ebcd"/><path d="m404.645 107.355c-2.113 0-4.226-.806-5.839-2.419l-8.258-8.258c-3.226-3.226-3.226-8.452 0-11.677 3.226-3.226 8.452-3.226 11.677 0l8.258 8.258c3.226 3.226 3.226 8.452 0 11.677-1.612 1.612-3.725 2.419-5.838 2.419z" fill="#f5ebcd"/><path d="m429.5 123.871c-4.565 0-8.298-3.698-8.298-8.258s3.653-8.258 8.218-8.258h.081c4.564 0 8.258 3.698 8.258 8.258-.001 4.56-3.695 8.258-8.259 8.258z" fill="#faf5dc"/><path d="m363.435 90.839c-4.565 0-8.298-3.698-8.298-8.258s3.653-8.258 8.218-8.258h.081c4.564 0 8.258 3.698 8.258 8.258s-3.694 8.258-8.259 8.258z" fill="#faf5dc"/><path d="m280.855 115.613c-4.565 0-8.298-3.698-8.298-8.258s3.653-8.258 8.218-8.258h.081c4.564 0 8.258 3.698 8.258 8.258-.001 4.56-3.695 8.258-8.259 8.258z" fill="#f5ebcd"/><path d="m313.806 123.871c-4.565 0-8.298-3.698-8.298-8.258s3.653-8.258 8.218-8.258h.081c4.565 0 8.258 3.698 8.258 8.258s-3.694 8.258-8.259 8.258z" fill="#faf5dc"/><path d="m214.79 99.097c-4.565 0-8.298-3.698-8.298-8.258s3.653-8.258 8.218-8.258h.081c4.564 0 8.258 3.698 8.258 8.258-.001 4.56-3.694 8.258-8.259 8.258z" fill="#f5ebcd"/><path d="m82.581 123.871c-4.565 0-8.298-3.698-8.298-8.258s3.653-8.258 8.218-8.258h.081c4.565 0 8.258 3.698 8.258 8.258-.001 4.56-3.695 8.258-8.259 8.258z" fill="#f5ebcd"/><path d="m181.758 123.871c-4.565 0-8.298-3.698-8.298-8.258s3.653-8.258 8.218-8.258h.081c4.564 0 8.258 3.698 8.258 8.258-.001 4.56-3.695 8.258-8.259 8.258z" fill="#faf5dc"/><path d="m107.435 99.097c-4.565 0-8.298-3.698-8.298-8.258s3.653-8.258 8.218-8.258h.081c4.564 0 8.258 3.698 8.258 8.258s-3.694 8.258-8.259 8.258z" fill="#faf5dc"/><path d="m454.194 289.032h-396.388c-9.122 0-16.516-7.395-16.516-16.516 0-9.122 7.395-16.516 16.516-16.516h396.387c9.122 0 16.516 7.395 16.516 16.516.001 9.122-7.394 16.516-16.515 16.516z" fill="#ff8086"/></g></svg>