<svg height="300" viewBox="0 0 511.99968 511" width="300" xmlns="http://www.w3.org/2000/svg" version="1.1" xmlns:xlink="http://www.w3.org/1999/xlink" xmlns:svgjs="http://svgjs.dev/svgjs"><g width="100%" height="100%" transform="matrix(1,0,0,1,0,0)"><path d="m53.554688 341.746094c-23.121094 23.121094-26.148438 97.761718 85.109374 87.136718 69.714844-6.660156 147.417969-52.664062 186.03125-92.375 50.230469-50.234374 88.824219-118.417968 95.578126-189.246093 10.609374-111.242188-64.042969-108.203125-87.160157-85.082031-30.511719 30.511718-38.199219 93.863281-112.144531 167.8125-73.945312 73.949218-130.054688 74.390624-167.414062 111.753906zm0 0" fill="#ffce81" fill-opacity="1" data-original-color="#fba72dff" stroke="none" stroke-opacity="1"/><path d="m421.566406.5c-31.191406.003906-54.066406 25.378906-56.472656 56.472656-6.390625 82.574219-41.277344 152.257813-97.15625 208.140625-51.464844 51.46875-127.613281 88.71875-211.46875 100.496094-30.886719 4.335937-56.47265625 25.285156-56.46875 56.472656.00390625 31.035157 25.050781 56.210938 56.03125 56.449219 105.660156-7.375 217.019531-53.121094 292.570312-128.675781 66.746094-66.75 136.453126-195.855469 129.429688-293.34375-.242188-30.976563-25.425781-56.015625-56.464844-56.011719zm0 0" fill="#ed8f4b" fill-opacity="1" data-original-color="#e5646eff" stroke="none" stroke-opacity="1"/><path d="m478.03125 56.511719c-.242188-30.976563-25.425781-56.015625-56.464844-56.011719-8.128906 0-15.683594 1.738281-22.464844 4.835938 19.660157 8.71875 33.421876 28.324218 33.601563 51.175781 7.023437 97.488281-62.683594 226.59375-129.429687 293.34375-68.894532 68.898437-167.5625 112.992187-264.539063 125.824219 5.449219 1.800781 11.257813 2.804687 17.296875 2.851562 105.660156-7.375 217.019531-53.121094 292.570312-128.675781 66.746094-66.75 136.453126-195.855469 129.429688-293.34375zm0 0" fill="#dd7740" fill-opacity="1" data-original-color="#e04955ff" stroke="none" stroke-opacity="1"/><path d="m291.699219 332.253906c-1.054688 1.070313-2.179688 2.128906-3.378907 3.191406-.207031.183594-.421874.359376-.640624.535157-19.953126 15.832031-37.683594 12.582031-50.632813 10.210937-10.003906-1.832031-15.109375-2.53125-21.738281 1.539063-.246094.152343-.5.296875-.753906.433593-6.90625 3.738282-9.015626 8.660157-12.765626 18.550782-4.726562 12.453125-11.199218 29.515625-34.65625 38.679687-.265624.105469-.535156.203125-.808593.292969-24.050781 7.933594-39.257813-1.5-50.363281-8.390625-8.582032-5.320313-12.679688-7.613281-19.949219-6.15625-8.65625 1.734375-17.078125-3.871094-18.8125-12.527344-1.734375-8.652343 3.871093-17.074219 12.527343-18.808593 19.96875-4.003907 33.328126 4.285156 43.085938 10.335937 9.550781 5.925781 13.875 8.261719 23.089844 5.328125 9.488281-3.820312 11.785156-8.976562 15.996094-20.089844 4.09375-10.789062 9.6875-25.535156 27.046874-35.105468 17.214844-10.398438 32.605469-7.582032 43.863282-5.519532 10.445312 1.914063 16.261718 2.980469 24.671875-3.550781 8.003906-7.234375 8.046875-13.25 8.101562-24.082031.058594-11.480469.140625-27.175782 13.359375-42.246094 12.5625-15.5 28.039063-18.351562 39.363282-20.4375 10.804687-1.992188 16.816406-3.097656 22.566406-12.222656 4.871094-9.164063 2.925781-14.261719-.902344-24.28125-4.070312-10.660156-9.636719-25.234375-2.339844-43.980469 6.394532-18.605469 19.964844-26.621094 29.894532-32.480469 10.320312-6.09375 14.964843-9.210937 16.96875-19.285156 1.722656-8.652344 10.132812-14.277344 18.789062-12.554688 8.660156 1.71875 14.28125 10.132813 12.5625 18.789063-4.878906 24.515625-20.589844 33.792969-32.066406 40.570313-9.074219 5.355468-13.542969 8.253906-15.980469 15.535156-.09375.28125-.195313.558594-.304687.835937-2.808594 7.050781-1.222657 11.84375 2.335937 21.167969 4.675781 12.242188 11.082031 29.011719-1.089844 51.34375-.132812.246094-.273437.492188-.421875.730469-13.265625 21.558593-31.15625 24.855469-44.214844 27.261719-10.324218 1.902343-15.503906 3.09375-20.445312 9.277343-.179688.222657-.363281.445313-.554688.65625-5.246093 5.894531-5.5 11.132813-5.554687 21.484375-.0625 12.394532-.148437 29.074219-15.847656 44.96875zm0 0" fill="#feca0f" fill-opacity="1" data-original-color="#fff7d7ff" stroke="none" stroke-opacity="1"/><path d="m144.234375 424.207031c-23.121094 23.117188-26.15625 97.757813 85.101563 87.140625 69.71875-6.65625 147.425781-52.652344 186.039062-92.359375 50.238281-50.226562 88.835938-118.410156 95.597656-189.238281 10.621094-111.238281-64.03125-108.207031-87.152344-85.089844-30.515624 30.511719-38.207031 93.859375-112.160156 167.804688-73.953125 73.941406-130.0625 74.382812-167.425781 111.742187zm0 0" fill="#ffce81" fill-opacity="1" data-original-color="#fba72dff" stroke="none" stroke-opacity="1"/><path d="m434.976562 136.957031c20.101563 10.355469 35.957032 37.410157 30.667969 92.792969-6.761719 70.828125-45.359375 139.011719-95.597656 189.238281-37.960937 39.035157-113.699219 84.125-182.492187 91.960938 11.679687 1.667969 25.5 1.953125 41.78125.398437 69.71875-6.65625 147.421874-52.652344 186.039062-92.359375 50.234375-50.226562 88.835938-118.410156 95.597656-189.238281 9.257813-96.96875-46.28125-107.101562-75.996094-92.792969zm0 0" fill="#f9bb72" fill-opacity="1" data-original-color="#e38906ff" stroke="none" stroke-opacity="1"/></g></svg>