<svg width="683" height="683" viewBox="0 0 683 683" fill="none" xmlns="http://www.w3.org/2000/svg">
<g clip-path="url(#clip0_623_19722)">
<path d="M321.405 74.6362C319.671 74.6362 317.916 74.1987 316.306 73.2716C311.364 70.4539 309.65 64.157 312.473 59.2196C328.947 30.3915 362.249 3.50612 406.322 14.5269C411.837 15.9071 415.197 21.5009 413.817 27.0217C412.436 32.5425 406.843 35.8967 401.322 34.5165C390.848 31.8967 354.791 26.6832 330.358 69.4383C328.457 72.7664 324.983 74.6362 321.405 74.6362Z" fill="#D08711"/>
<path d="M635.181 282.545C635.181 257.072 614.535 236.426 589.061 236.426H93.6041C68.1302 236.426 47.4844 257.077 47.4844 282.545C47.4844 307.973 68.0625 328.592 93.4739 328.665C68.0625 328.733 47.4844 349.353 47.4844 374.78C47.4844 400.254 68.1302 420.899 93.6041 420.899C68.1302 420.899 47.4844 441.55 47.4844 467.019C47.4844 492.493 68.1302 513.139 93.6041 513.139C68.1302 513.139 47.4844 533.79 47.4844 559.258C47.4844 584.732 68.1302 605.378 93.6041 605.378H589.061C614.535 605.378 635.181 584.732 635.181 559.258C635.181 533.79 614.535 513.139 589.061 513.139C614.535 513.139 635.181 492.488 635.181 467.019C635.181 441.55 614.535 420.899 589.061 420.899C614.535 420.899 635.181 400.254 635.181 374.78C635.181 349.353 614.603 328.733 589.192 328.665C614.603 328.592 635.181 307.973 635.181 282.545Z" fill="#FFDFA9"/>
<path d="M635.181 282.545C635.181 257.072 614.535 236.426 589.061 236.426H545.473C570.941 236.426 591.592 257.077 591.592 282.545C591.592 307.973 571.009 328.592 545.598 328.665C571.009 328.733 591.592 349.353 591.592 374.78C591.592 400.254 570.941 420.899 545.473 420.899C570.941 420.899 591.592 441.55 591.592 467.019C591.592 492.493 570.941 513.139 545.473 513.139C570.941 513.139 591.592 533.79 591.592 559.258C591.592 584.732 570.941 605.378 545.473 605.378H589.061C614.535 605.378 635.181 584.732 635.181 559.258C635.181 533.79 614.535 513.139 589.061 513.139C614.535 513.139 635.181 492.488 635.181 467.019C635.181 441.55 614.535 420.899 589.061 420.899C614.535 420.899 635.181 400.254 635.181 374.78C635.181 349.353 614.603 328.733 589.191 328.665C614.603 328.592 635.181 307.973 635.181 282.545Z" fill="#FFCF83"/>
<path d="M589.061 328.665H93.6041C68.1302 328.665 47.4844 308.019 47.4844 282.545C47.4844 257.072 68.1302 236.426 93.6041 236.426H589.061C614.535 236.426 635.181 257.072 635.181 282.545C635.181 308.019 614.535 328.665 589.061 328.665Z" fill="#FFCF83"/>
<path d="M589.061 513.138H93.6041C68.1302 513.138 47.4844 492.492 47.4844 467.018C47.4844 441.544 68.1302 420.898 93.6041 420.898H589.061C614.535 420.898 635.181 441.544 635.181 467.018C635.181 492.487 614.535 513.138 589.061 513.138Z" fill="#FFCF83"/>
<path d="M591.592 282.545C591.592 307.973 571.009 328.592 545.598 328.665H545.717H589.306C589.269 328.665 589.233 328.665 589.191 328.665C614.603 328.592 635.181 307.973 635.181 282.545C635.181 257.072 614.535 236.426 589.061 236.426H545.473C570.941 236.426 591.592 257.077 591.592 282.545Z" fill="#FDC260"/>
<path d="M591.592 467.022C591.592 492.496 570.941 513.142 545.473 513.142H589.061C614.535 513.142 635.181 492.491 635.181 467.022C635.181 441.553 614.535 420.902 589.061 420.902H545.473C570.941 420.902 591.592 441.548 591.592 467.022Z" fill="#FDC260"/>
<path d="M493.239 177.965H176.51C144.224 177.965 118.047 204.142 118.047 236.428H301.26C321.526 236.428 337.958 252.861 337.958 273.126V366.751C337.958 382.756 350.406 396.391 366.406 396.964C383.203 397.558 397.01 384.121 397.01 367.459V314.084C398.489 298.845 411.39 286.527 426.953 286.824C442.994 287.126 455.906 300.225 455.906 316.34V439.428C455.906 455.438 468.353 469.074 484.353 469.641C501.15 470.24 514.952 456.798 514.952 440.136V273.137C514.952 252.871 531.385 236.439 551.65 236.439H551.723C551.718 236.439 551.702 235.97 551.687 235.126C550.957 203.35 525.015 177.965 493.239 177.965Z" fill="#F89B45"/>
<path d="M661.905 596.074H18.0889L42.5263 646.454C49.3596 660.548 63.6513 669.496 79.3127 669.496H600.676C616.343 669.496 630.629 660.543 637.463 646.454L661.905 596.074Z" fill="#9CC7CC"/>
<path d="M617.624 596.074L593.187 646.454C586.353 660.548 572.067 669.496 556.4 669.496H600.682C616.343 669.496 630.629 660.543 637.468 646.454L661.905 596.074H617.624Z" fill="#84ADB8"/>
<path d="M662.962 619.475H19.7031C8.81769 619.475 0 610.652 0 599.772C0 588.892 8.81769 580.074 19.7031 580.074H662.967C673.848 580.074 682.665 588.892 682.665 599.772C682.665 610.652 673.848 619.475 662.962 619.475Z" fill="#75A0AF"/>
<path d="M323.484 58.8716C274.541 43.1581 231.885 55.658 216.604 103.246C201.328 150.84 213.453 217.319 262.396 233.033C311.338 248.746 378.567 207.736 393.843 160.147C409.119 112.554 372.427 74.5851 323.484 58.8716Z" fill="#FB606B"/>
<path d="M323.484 58.8693C301.473 51.8016 280.744 50.4631 263.192 55.4371C267.333 56.3693 271.525 57.5048 275.775 58.8693C324.718 74.5828 361.411 112.552 346.135 160.145C335.499 193.265 299.697 223.192 262.416 233.036C311.353 248.734 378.567 207.728 393.843 160.145C409.119 112.552 372.426 74.5828 323.484 58.8693Z" fill="#E94652"/>
<path d="M255.109 127.486C254.067 127.486 253.005 127.324 251.958 126.991C246.541 125.251 243.562 119.449 245.297 114.032C251.849 93.6315 267.604 81.4544 288.531 80.6211C294.213 80.4023 299.01 84.8242 299.234 90.5065C299.463 96.1939 295.036 100.986 289.349 101.21C277.052 101.699 268.833 108.131 264.916 120.335C263.515 124.699 259.468 127.486 255.109 127.486Z" fill="#FFF5F5"/>
</g>
<defs>
<clipPath id="clip0_623_19722">
<rect width="682.667" height="682.667" fill="white"/>
</clipPath>
</defs>
</svg>
