<svg height="300" viewBox="0 -11 512.00001 512" width="300" xmlns="http://www.w3.org/2000/svg" version="1.1" xmlns:xlink="http://www.w3.org/1999/xlink" xmlns:svgjs="http://svgjs.dev/svgjs"><g width="100%" height="100%" transform="matrix(1,0,0,1,0,0)"><path d="m11 245c0-135.308594 109.691406-245 245-245 135.375 0 245.550781 110.648438 244.996094 246.023438-.359375 88.730468-47.898438 166.316406-118.824219 209.011718-1.199219.722656-2.609375 1.011719-4 .835938-39.082031-4.890625-80.011719-7.492188-122.171875-7.492188-42.011719 0-82.800781 2.582032-121.757812 7.441406-1.65625.207032-3.339844-.136718-4.769532-1-71-42.90625-118.472656-120.8125-118.472656-209.820312zm0 0" fill="#a7dde2" fill-opacity="0" data-original-color="#a7dde2ff" stroke="none" stroke-opacity="1" style=""/><path d="m115.730469 119.714844c14.246093 14.242187 18.746093 28.074218 17.097656 41.03125-2.125 16.75-14.332031 28.957031-31.082031 31.082031-12.957032 1.648437-26.789063-2.851563-41.03125-17.097656-22.792969-22.789063-38.773438-62.664063-26.417969-81.433594 18.769531-12.355469 58.644531 3.625 81.433594 26.417969zm0 0" fill="#22b27f" fill-opacity="1" data-original-color="#22b27fff" stroke="none" stroke-opacity="1" style=""/><path d="m115.730469 119.714844c6.667969 6.664062 11.175781 13.238281 13.945312 19.679687-2.109375 9.277344-7.453125 16.886719-14.957031 21.761719-.996094.644531-2.320312.40625-3.027344-.542969-3.707031-4.980469-44.3125-40.914062-47.652344-37.574219-3.339843 3.339844 25.980469 37.949219 28.222657 39.957032 1.617187 1.449218.4375 4.078125-1.722657 3.875-10.371093-.972656-21.21875-6.152344-32.3125-17.25-10.890624-10.890625-20.222656-25.679688-25.65625-40.207032-1.980468-5.296874-1.417968-11.292968 1.667969-16.03125.019531-.027343.039063-.058593.058594-.085937 18.769531-12.355469 58.644531 3.625 81.433594 26.417969zm0 0" fill="#04d481" fill-opacity="1" data-original-color="#04d481ff" stroke="none" stroke-opacity="1" style=""/><path d="m121.820312 189c-1.191406-6.484375-1.820312-13.167969-1.820312-20 0-60.75 49.25-110 110-110s110 49.25 110 110c0 6.832031-.628906 13.515625-1.820312 20zm0 0" fill="#fdf7bd" fill-opacity="1" data-original-color="#fdf7bdff" stroke="none" stroke-opacity="1" style=""/><path d="m280 169c0 7.113281-1.496094 13.875-4.171875 20h-23.472656c4.75-5.308594 7.644531-12.316406 7.644531-20 0-16.566406-13.429688-30-30-30s-30 13.433594-30 30c0 7.683594 2.894531 14.691406 7.644531 20h-23.472656c-2.675781-6.125-4.171875-12.886719-4.171875-20 0-27.613281 22.386719-50 50-50s50 22.386719 50 50zm-50-90c-49.707031 0-90 40.292969-90 90 0 6.875.773438 13.566406 2.234375 20h20.679687c-1.886718-6.339844-2.914062-13.046875-2.914062-20 0-38.660156 31.339844-70 70-70s70 31.339844 70 70c0 6.953125-1.027344 13.660156-2.914062 20h20.683593c1.457031-6.433594 2.234375-13.125 2.234375-20-.003906-49.707031-40.296875-90-90.003906-90zm0 0" fill="#f5dc90" fill-opacity="1" data-original-color="#f5dc90ff" stroke="none" stroke-opacity="1" style=""/><path d="m390.113281 123.867188c-8.578125 26.941406-37.855469 41.535156-64.695312 31.832031-24.433594-8.839844-37.660157-35.3125-31.101563-60.457031 6.675782-25.601563 30.089844-29.570313 47.214844-19.589844 3.113281 1.816406 6.472656 3.320312 10.046875 4.457031 3.574219 1.140625 7.183594 1.855469 10.773437 2.175781 19.734376 1.757813 35.351563 17.761719 27.761719 41.582032zm0 0" fill="#ea5569" fill-opacity="1" data-original-color="#ea5569ff" stroke="none" stroke-opacity="1" style=""/><path d="m375.824219 119.316406c-3.132813 9.082032-9.269531 16.53125-17.890625 20.777344-4.132813 2.039062-8.527344 3.21875-12.984375 3.535156-2.8125.195313-4.933594-2.527344-4.078125-5.214844l11.28125-35.425781c1.136718-3.5625 2.207031-5.460937 8.863281-5.761719 7.890625-.359374 19.347656 8.929688 14.808594 22.089844zm-41.847657-30.703125c-1.214843-.570312-20.121093-8.972656-25.214843 10.675781-3.550781 13.679688 1.210937 27.871094 11.519531 36.4375 2.160156 1.792969 5.460938.761719 6.3125-1.910156l11.273438-35.40625c1.195312-3.75.410156-7.777344-3.890626-9.796875zm0 0" fill="#d00041" fill-opacity="1" data-original-color="#d00041ff" stroke="none" stroke-opacity="1" style=""/><path d="m41.820312 299c-1.191406-6.484375-1.820312-13.167969-1.820312-20 0-60.75 49.25-110 110-110s110 49.25 110 110c0 6.832031-.628906 13.515625-1.820312 20zm0 0" fill="#f4aa39" fill-opacity="1" data-original-color="#f4aa39ff" stroke="none" stroke-opacity="1" style=""/><path d="m200 279c0 7.113281-1.496094 13.875-4.171875 20h-23.472656c4.75-5.308594 7.644531-12.316406 7.644531-20 0-16.566406-13.429688-30-30-30s-30 13.433594-30 30c0 7.683594 2.894531 14.691406 7.644531 20h-23.472656c-2.675781-6.125-4.171875-12.886719-4.171875-20 0-27.613281 22.386719-50 50-50s50 22.386719 50 50zm-50-90c-49.707031 0-90 40.292969-90 90 0 6.875.773438 13.566406 2.234375 20h20.679687c-1.886718-6.339844-2.914062-13.046875-2.914062-20 0-38.660156 31.339844-70 70-70s70 31.339844 70 70c0 6.953125-1.027344 13.660156-2.914062 20h20.679687c1.460937-6.433594 2.234375-13.125 2.234375-20 0-49.707031-40.292969-90-90-90zm0 0" fill="#d98800" fill-opacity="1" data-original-color="#d98800ff" stroke="none" stroke-opacity="1" style=""/><path d="m150.089844 289c-.054688-1.679688-.089844-3.363281-.089844-5.054688 0-85.574218 69.371094-154.945312 154.945312-154.945312 85.570313 0 154.941407 69.371094 154.941407 154.945312 0 1.691407-.035157 3.375-.089844 5.054688zm0 0" fill="#fdf385" fill-opacity="1" data-original-color="#fdf385ff" stroke="none" stroke-opacity="1" style=""/><path d="m170.105469 289c-.0625-1.679688-.105469-3.363281-.105469-5.054688 0-74.53125 60.417969-134.945312 134.945312-134.945312 74.527344 0 134.941407 60.417969 134.941407 134.945312 0 1.691407-.039063 3.375-.101563 5.054688h-20.015625c.074219-1.675781.117188-3.359375.117188-5.054688 0-63.484374-51.460938-114.945312-114.941407-114.945312-63.484374 0-114.945312 51.460938-114.945312 114.945312 0 1.695313.042969 3.378907.117188 5.054688zm59.894531-5.054688c0-41.390624 33.554688-74.945312 74.945312-74.945312 41.390626 0 74.941407 33.554688 74.941407 74.945312 0 1.699219-.074219 3.382813-.1875 5.054688h20.054687c.085938-1.675781.132813-3.359375.132813-5.054688 0-52.4375-42.507813-94.945312-94.945313-94.945312-52.433594 0-94.941406 42.507812-94.941406 94.945312 0 1.695313.046875 3.378907.132812 5.054688h20.054688c-.109375-1.671875-.1875-3.355469-.1875-5.054688zm40 0c0-19.300781 15.644531-34.945312 34.945312-34.945312 19.296876 0 34.941407 15.644531 34.941407 34.945312 0 1.714844-.128907 3.402344-.367188 5.054688h20.128907c.152343-1.664062.238281-3.351562.238281-5.054688 0-30.347656-24.597657-54.945312-54.941407-54.945312-30.347656 0-54.945312 24.597656-54.945312 54.945312 0 1.703126.089844 3.390626.242188 5.054688h20.125c-.238282-1.652344-.367188-3.339844-.367188-5.054688zm0 0" fill="#f5c02c" fill-opacity="1" data-original-color="#f5c02cff" stroke="none" stroke-opacity="1" style=""/><path d="m512 299c0 11.046875-8.953125 20-20 20h-47c-10.480469 53.726562-32.636719 100.851562-62.457031 135.832031-36.9375 22.328125-80.230469 35.167969-126.542969 35.167969-13.792969 0-27.039062-1.054688-39.621094-3.183594-29.667968-5.011718-56.273437-15.804687-82.214844-31.484375-29.816406-34.980469-51.683593-87.605469-62.164062-141.332031 0 0-30.796875-35-19.75-35h439.75c11.046875 0 20 8.953125 20 20zm0 0" fill="#fd8e82" fill-opacity="1" data-original-color="#fd8e82ff" stroke="none" stroke-opacity="1" style=""/><path d="m350 309.007812c0 5.519532-4.476562 10-10 10h-194.75c-13.222656 0-22.492188 12.519532-19.28125 25.34375 19.363281 77.320313 64.839844 123.429688 90.410156 142.464844-31.371094-5.101562-60.742187-16.164062-86.914062-31.980468-11.5625-13.5625-51.464844-63.828126-62.464844-135.828126h-47c-11.289062 0-20.390625-9.351562-19.9882812-20.730468.3867192-10.839844 8.9062502-19.269532 20.4687502-19.269532 0 0 48.734375.007813 48.34375.03125-12.746094.738282-11.902344 19.96875.867187 19.96875h270.308594c5.523438 0 10 4.476563 10 10zm0 0" fill="#fd6c55" fill-opacity="1" data-original-color="#fd6c55ff" stroke="none" stroke-opacity="1" style=""/><path d="m512 410.875c0 5.523438-4.476562 10-10 10s-10-4.476562-10-10c0-23.570312-19.179688-42.75-42.75-42.75-49.144531 0-89.667969-39.980469-89.667969-89.125 0-5.523438 5.019531-10 10.542969-10s9.601562 4.476562 9.601562 10c0 38.117188 31.40625 69.125 69.523438 69.125 34.601562 0 62.75 28.148438 62.75 62.75zm0 0" fill="#fdf385" fill-opacity="1" data-original-color="#fdf385ff" stroke="none" stroke-opacity="1" style=""/><path d="m250.628906 145.917969c19.992188 19.992187 19.515625 52.703125-1.433594 72.089843-19.070312 17.648438-48.660156 17.238282-67.984374-.128906-19.675782-17.691406-12.453126-40.3125 4.277343-50.941406 3.042969-1.929688 5.917969-4.222656 8.570313-6.878906 2.65625-2.652344 4.949218-5.53125 6.878906-8.570313 10.625-16.722656 32.015625-23.246093 49.691406-5.570312zm0 0" fill="#ea5569" fill-opacity="1" data-original-color="#ea5569ff" stroke="none" stroke-opacity="1" style=""/><path d="m240.023438 156.527344c6.628906 6.953125 10.429687 15.824218 10.242187 25.429687-.085937 4.609375-1.058594 9.054688-2.824219 13.15625-1.113281 2.589844-4.507812 3.222657-6.503906 1.230469l-26.289062-26.289062c-2.644532-2.644532-3.839844-4.46875-1.050782-10.519532 3.304688-7.171875 16.820313-13.085937 26.425782-3.007812zm-46.492188 23.074218c-1.0625.816407-17.207031 13.753907-2.09375 27.300782 10.523438 9.433594 25.316406 11.722656 37.660156 6.496094 2.585938-1.09375 3.183594-4.5 1.199219-6.484376l-26.273437-26.273437c-2.785157-2.785156-6.722657-3.933594-10.492188-1.039063zm0 0" fill="#d00041" fill-opacity="1" data-original-color="#d00041ff" stroke="none" stroke-opacity="1" style=""/><path d="m327.863281 113.046875c-.101562 2.195313-3.746093 3.808594-8.136719 3.605469-4.386718-.207032-7.867187-2.152344-7.761718-4.347656.101562-2.195313 3.742187-3.808594 8.132812-3.605469 4.390625.207031 7.867188 2.152343 7.765625 4.347656zm34.734375 2.710937c4.390625.203126 8.03125-1.410156 8.132813-3.605468.105469-2.195313-3.371094-4.140625-7.761719-4.34375-4.390625-.207032-8.035156 1.40625-8.136719 3.601562-.101562 2.195313 3.375 4.140625 7.765625 4.347656zm-1.875 5.882813c-3.699218-2.375-7.660156-2.796875-8.84375-.945313-1.1875 1.847657.851563 5.273438 4.550782 7.644532 3.699218 2.371094 7.660156 2.796875 8.847656.945312 1.183594-1.851562-.851563-5.273437-4.554688-7.644531zm-34.457031-25.523437c-3.699219-2.371094-7.660156-2.792969-8.84375-.945313-1.1875 1.851563.851563 5.273437 4.550781 7.644531 3.699219 2.375 7.660156 2.796875 8.847656.949219 1.183594-1.851563-.851562-5.273437-4.554687-7.648437zm-113.835937 100.132812c1.902343 1.101562 1.664062 5.074219-.53125 8.882812-2.199219 3.804688-5.523438 6-7.425782 4.902344-1.902344-1.101562-1.664062-5.074218.53125-8.882812 2.199219-3.804688 5.523438-6 7.425782-4.902344zm18.359374-29.609375c2.195313-3.804687 2.433594-7.785156.53125-8.882813-1.902343-1.097656-5.226562 1.097657-7.425781 4.902344-2.195312 3.804688-2.433593 7.78125-.53125 8.882813 1.902344 1.097656 5.226563-1.097657 7.425781-4.902344zm4.363282 4.363281c-3.804688 2.199219-6 5.523438-4.902344 7.425782 1.101562 1.902343 5.074219 1.664062 8.882812-.53125 3.804688-2.199219 6-5.523438 4.902344-7.425782s-5.074218-1.664062-8.882812.53125zm-38.492188 18.890625c-3.804687 2.199219-6 5.523438-4.902344 7.425781 1.097657 1.902344 5.074219 1.664063 8.882813-.53125 3.804687-2.199218 6-5.523437 4.902344-7.425781-1.101563-1.902343-5.074219-1.664062-8.882813.53125zm0 0" fill="#fd6c55" fill-opacity="1" data-original-color="#fd6c55ff" stroke="none" stroke-opacity="1" style=""/><path d="m80 239c0 5.523438-4.476562 10-10 10s-10-4.476562-10-10 4.476562-10 10-10 10 4.476562 10 10zm60-60c-5.523438 0-10 4.476562-10 10s4.476562 10 10 10 10-4.476562 10-10-4.476562-10-10-10zm230 0c-5.523438 0-10 4.476562-10 10s4.476562 10 10 10 10-4.476562 10-10-4.476562-10-10-10zm-75 75c-5.523438 0-10 4.476562-10 10s4.476562 10 10 10 10-4.476562 10-10-4.476562-10-10-10zm155-25c-5.523438 0-10 4.476562-10 10s4.476562 10 10 10 10-4.476562 10-10-4.476562-10-10-10zm0 0" fill="#925b44" fill-opacity="1" data-original-color="#925b44ff" stroke="none" stroke-opacity="1" style=""/><path d="m160 249c0 5.523438-4.476562 10-10 10s-10-4.476562-10-10 4.476562-10 10-10 10 4.476562 10 10zm230 0c-5.523438 0-10 4.476562-10 10s4.476562 10 10 10 10-4.476562 10-10-4.476562-10-10-10zm-150-180c-5.523438 0-10 4.476562-10 10s4.476562 10 10 10 10-4.476562 10-10-4.476562-10-10-10zm0 0" fill="#22b27f" fill-opacity="1" data-original-color="#22b27fff" stroke="none" stroke-opacity="1" style=""/></g></svg>