<svg width="512" height="512" viewBox="0 0 512 512" fill="none" xmlns="http://www.w3.org/2000/svg">
<g clip-path="url(#clip0_623_19691)">
<path d="M256.444 122.359V282.359C256.444 286.502 253.086 289.859 248.944 289.859C244.802 289.859 241.444 286.502 241.444 282.359V122.359C241.444 118.216 244.802 114.859 248.944 114.859C253.086 114.859 256.444 118.217 256.444 122.359ZM311.243 130.124C303.542 126.272 294.347 126.272 286.645 130.124C277.269 134.812 271.444 144.237 271.444 154.721V352.359C271.444 356.502 274.801 359.859 278.944 359.859C283.087 359.859 286.444 356.502 286.444 352.359V154.721C286.444 149.955 289.091 145.671 293.354 143.54C296.854 141.79 301.034 141.79 304.534 143.54C308.241 145.394 312.745 143.892 314.597 140.186C316.449 136.481 314.947 131.977 311.243 130.124ZM211.242 157.762C203.542 153.914 194.347 153.915 186.647 157.762C182.942 159.615 181.44 164.119 183.292 167.825C185.144 171.529 189.646 173.032 193.354 171.18C196.854 169.43 201.034 169.428 204.534 171.179C208.797 173.311 211.445 177.595 211.445 182.36V379.999C211.445 384.142 214.803 387.499 218.945 387.499C223.087 387.499 226.445 384.142 226.445 379.999V182.359C226.444 171.877 220.62 162.452 211.242 157.762Z" fill="#FF9744"/>
<path d="M357.574 237.07L322.219 201.715C318.314 197.81 318.314 191.478 322.219 187.573L357.574 152.218C361.479 148.313 367.811 148.313 371.716 152.218L407.071 187.573C410.976 191.478 410.976 197.81 407.071 201.715L371.716 237.07C367.81 240.975 361.479 240.975 357.574 237.07Z" fill="#FFCF65"/>
<path d="M210 40C198.954 40 190 31.046 190 20C190 8.954 198.954 0 210 0C221.046 0 230 8.954 230 20C230 31.046 221.046 40 210 40Z" fill="#8CE16E"/>
<path d="M67.2398 276.841C69.5378 280.287 68.6068 284.944 65.1598 287.241C63.8818 288.094 62.4358 288.502 61.0068 288.502C58.5828 288.502 56.2048 287.329 54.7598 285.161L14.7598 225.161C12.4618 221.715 13.3928 217.058 16.8398 214.761C20.2858 212.464 24.9428 213.395 27.2398 216.841L67.2398 276.841ZM495.16 214.761C491.714 212.463 487.057 213.394 484.76 216.841L444.76 276.841C442.462 280.287 443.394 284.944 446.84 287.241C448.118 288.094 449.564 288.502 450.993 288.502C453.417 288.502 455.795 287.329 457.24 285.161L497.24 225.161C499.538 221.715 498.606 217.059 495.16 214.761Z" fill="#916050"/>
<path d="M472 286C472 294.284 465.284 301 457 301H447.106L365.768 399.34C338.707 432.059 298.46 451 256 451C213.54 451 173.293 432.059 146.232 399.34L64.894 301H55C46.716 301 40 294.284 40 286C40 277.716 46.716 271 55 271H457C465.284 271 472 277.716 472 286Z" fill="#B2B1B0"/>
<path d="M447.106 301L365.768 399.34C338.707 432.059 298.46 451 256 451C213.54 451 173.294 432.059 146.232 399.34L64.8936 301H447.106Z" fill="#66626D"/>
<path d="M447.106 301L365.768 399.34C338.707 432.059 298.46 451 256 451C250.131 451 244.308 450.625 238.553 449.915C274.437 445.488 307.553 427.537 330.874 399.34L412.212 301H447.106Z" fill="#534D5C"/>
<path d="M178.813 208.219C180.366 209.772 180.408 212.307 178.857 213.862C178.847 213.872 178.838 213.881 178.828 213.891C157.349 235.37 122.525 235.37 101.046 213.891C79.5668 192.412 79.5668 157.588 101.046 136.109C101.056 136.099 101.065 136.09 101.075 136.08C102.63 134.528 105.165 134.57 106.718 136.124L178.813 208.219Z" fill="#7DB764"/>
<path d="M160.089 189.494C159.178 190.868 158.119 192.173 156.908 193.384C147.145 203.147 131.316 203.147 121.553 193.384C111.79 183.621 111.79 167.792 121.553 158.029C122.764 156.818 124.068 155.758 125.443 154.848L160.089 189.494Z" fill="#8CE16E"/>
<path d="M318.219 11.1862C319.772 9.63322 322.307 9.59122 323.862 11.1422C323.872 11.1522 323.881 11.1612 323.891 11.1712C345.37 32.6502 345.37 67.4742 323.891 88.9532C302.412 110.432 267.588 110.432 246.109 88.9532C246.099 88.9432 246.09 88.9342 246.08 88.9242C244.528 87.3692 244.57 84.8342 246.124 83.2812L318.219 11.1862Z" fill="#FF4B4B"/>
<path d="M299.495 29.9102C300.869 30.8212 302.174 31.8802 303.385 33.0912C313.148 42.8542 313.148 58.6832 303.385 68.4462C293.622 78.2092 277.793 78.2092 268.03 68.4462C266.819 67.2352 265.759 65.9312 264.849 64.5562L299.495 29.9102Z" fill="#C83741"/>
<path d="M205.303 114.696C208.232 117.626 208.232 122.374 205.303 125.303C203.839 126.767 201.919 127.499 200 127.499C198.081 127.499 196.161 126.767 194.697 125.303L156.893 87.5H130C125.858 87.5 122.5 84.143 122.5 80C122.5 75.857 125.858 72.5 130 72.5H141.893L134.697 65.304C133.29 63.896 132.5 61.989 132.5 60V40C132.5 35.857 135.858 32.5 140 32.5C144.142 32.5 147.5 35.857 147.5 40V56.894L165.302 74.696L165.305 74.699L172.5 81.894V70C172.5 65.857 175.858 62.5 180 62.5C184.142 62.5 187.5 65.857 187.5 70V96.893L205.303 114.696ZM420 92.5H408.107L415.303 85.304C416.709 83.897 417.499 81.99 417.499 80V60C417.499 55.857 414.142 52.5 409.999 52.5C405.856 52.5 402.499 55.857 402.499 60V76.894L384.696 94.697L364.696 114.697C361.767 117.627 361.767 122.375 364.696 125.304C366.161 126.768 368.081 127.5 370 127.5C371.919 127.5 373.839 126.768 375.304 125.304L393.108 107.5H420C424.143 107.5 427.5 104.143 427.5 100C427.5 95.857 424.143 92.5 420 92.5Z" fill="#7DB764"/>
<path d="M154 467V507C154 509.761 151.761 512 149 512H66C63.239 512 61 509.761 61 507V467C61 464.239 63.239 462 66 462H149C151.761 462 154 464.239 154 467ZM446 462H363C360.239 462 358 464.239 358 467V507C358 509.761 360.239 512 363 512H446C448.761 512 451 509.761 451 507V467C451 464.239 448.761 462 446 462Z" fill="#D5945E"/>
<path d="M0 221C0 209.954 8.954 201 20 201C31.046 201 40 209.954 40 221C40 232.046 31.046 241 20 241C8.954 241 0 232.046 0 221ZM492 241C503.046 241 512 232.046 512 221C512 209.954 503.046 201 492 201C480.954 201 472 209.954 472 221C472 232.046 480.954 241 492 241ZM507 432H5C2.239 432 0 434.239 0 437V477C0 479.761 2.239 482 5 482H507C509.761 482 512 479.761 512 477V437C512 434.239 509.761 432 507 432Z" fill="#E6AF78"/>
<path d="M512 437V477C512 479.761 509.761 482 507 482H477C479.761 482 482 479.761 482 477V437C482 434.239 479.761 432 477 432H507C509.761 432 512 434.239 512 437Z" fill="#D5945E"/>
</g>
<defs>
<clipPath id="clip0_623_19691">
<rect width="512" height="512" fill="white"/>
</clipPath>
</defs>
</svg>
