<?xml version="1.0" encoding="iso-8859-1"?>
<!-- Generator: Adobe Illustrator 19.0.0, SVG Export Plug-In . SVG Version: 6.00 Build 0)  -->
<svg version="1.1" id="Capa_1" xmlns="http://www.w3.org/2000/svg" xmlns:xlink="http://www.w3.org/1999/xlink" x="0px" y="0px"
	 viewBox="0 0 512 512" style="enable-background:new 0 0 512 512;" xml:space="preserve">
<g>
	<path style="fill:#A0D755;" d="M178.13,106.321c-2.278,0-4.548-0.952-6.151-2.81c-2.929-3.393-2.571-8.512,0.817-11.448
		c0.635-0.548,15.738-13.512,35.992-18.671c4.341-1.103,8.77,1.516,9.881,5.873c1.111,4.349-1.516,8.774-5.865,9.881
		c-16.429,4.179-29.238,15.095-29.365,15.202C181.9,105.675,180.011,106.321,178.13,106.321z"/>
	<path style="fill:#A0D755;" d="M333.884,106.329c-1.889,0-3.786-0.651-5.317-1.984c-0.31-0.258-13.056-11.048-29.365-15.198
		c-4.349-1.107-6.976-5.532-5.865-9.881c1.103-4.357,5.532-6.984,9.881-5.873c20.254,5.159,35.357,18.123,35.992,18.671
		c3.389,2.944,3.754,8.075,0.81,11.464C338.416,105.381,336.154,106.329,333.884,106.329z"/>
	<path style="fill:#A0D755;" d="M256.003,81.27c-3.325,0-6.31-2.024-7.548-5.111c-11.373-28.44-27.492-35.885-28.175-36.187
		c-4.063-1.81-5.968-6.571-4.206-10.659c1.754-4.083,6.429-6.008,10.548-4.31c0.77,0.321,16.119,6.956,29.381,29.599
		c13.262-22.643,28.611-29.278,29.381-29.599c4.135-1.718,8.897,0.234,10.627,4.377c1.714,4.119-0.206,8.841-4.294,10.595
		c-0.817,0.365-16.849,7.869-28.167,36.183C262.313,79.246,259.329,81.27,256.003,81.27z"/>
</g>
<path style="fill:#87BE4B;" d="M344.733,53.679c-1.778-4.115-6.54-6.04-10.659-4.258c-2.023,0.867-41.873,18.41-69.944,57.962V8.127
	c0-4.488-3.635-8.127-8.127-8.127s-8.127,3.639-8.127,8.127v99.256c-28.072-39.552-67.922-57.095-69.944-57.962
	c-4.095-1.758-8.897,0.135-10.667,4.266c-1.77,4.127,0.143,8.905,4.27,10.671c0.54,0.234,54.126,23.706,76.979,76.959
	c0.002,0.004,0.004,0.009,0.006,0.013c0.004,0.011,0.01,0.02,0.015,0.031c0.371,0.868,0.9,1.608,1.504,2.266
	c0.063,0.068,0.106,0.145,0.171,0.211c0.142,0.145,0.33,0.228,0.482,0.362c0.534,0.469,1.106,0.858,1.736,1.17
	c0.068,0.034,0.118,0.093,0.187,0.125c0.072,0.034,0.117,0.1,0.19,0.131c0.002,0.001,0.004,0.001,0.006,0.001
	c0.114,0.049,0.249,0.043,0.366,0.087c0.905,0.339,1.846,0.574,2.826,0.574s1.921-0.236,2.825-0.574
	c0.117-0.044,0.253-0.038,0.368-0.087c0.002-0.001,0.003,0,0.005-0.001c0.066-0.028,0.105-0.087,0.17-0.117
	c0.077-0.035,0.132-0.102,0.208-0.14c0.629-0.312,1.201-0.701,1.735-1.17c0.152-0.134,0.34-0.217,0.482-0.362
	c0.065-0.066,0.109-0.143,0.171-0.211c0.604-0.658,1.133-1.398,1.504-2.266c0.004-0.01,0.009-0.019,0.014-0.029
	c0.003-0.006,0.006-0.011,0.008-0.018c22.758-53.046,76.454-76.727,76.994-76.961C344.598,62.575,346.503,57.798,344.733,53.679z"/>
<path style="fill:#6EAF69;" d="M256.003,121.905c-5.742,0-11.302,0.729-16.662,1.98c3.379,5.423,6.5,11.204,9.173,17.432
	c0.002,0.004,0.004,0.009,0.006,0.013c0.004,0.011,0.01,0.02,0.015,0.031c0.371,0.868,0.9,1.608,1.504,2.266
	c0.063,0.068,0.106,0.145,0.171,0.211c0.142,0.145,0.33,0.228,0.482,0.362c0.534,0.469,1.106,0.858,1.736,1.17
	c0.068,0.034,0.118,0.093,0.187,0.125c0.072,0.034,0.117,0.1,0.19,0.131c0.002,0.001,0.004,0.001,0.006,0.001
	c0.114,0.049,0.249,0.043,0.366,0.087c0.905,0.339,1.846,0.574,2.826,0.574c0.98,0,1.921-0.236,2.825-0.574
	c0.117-0.044,0.253-0.038,0.368-0.087c0.002-0.001,0.003,0,0.005-0.001c0.066-0.028,0.105-0.087,0.17-0.117
	c0.077-0.035,0.132-0.102,0.208-0.14c0.629-0.312,1.201-0.701,1.735-1.17c0.152-0.134,0.34-0.217,0.482-0.362
	c0.065-0.066,0.109-0.143,0.171-0.211c0.604-0.658,1.133-1.398,1.504-2.266c0.004-0.01,0.009-0.019,0.014-0.029
	c0.003-0.006,0.006-0.011,0.008-0.018c2.67-6.222,5.794-12.004,9.179-17.428C267.31,122.634,261.747,121.905,256.003,121.905z"/>
<path style="fill:#FFAF50;" d="M321.019,203.175c0,89.397-24.381,308.825-65.016,308.825s-65.016-219.429-65.016-308.825
	c0-35.907,29.109-65.016,65.016-65.016S321.019,167.267,321.019,203.175z"/>
<path style="fill:#FF913C;" d="M237.04,212.597c0-33.999,16.192-62.613,38.29-71.517c-6.106-1.898-12.597-2.922-19.327-2.922
	c-35.907,0-65.016,29.109-65.016,65.016c0,89.397,24.381,308.825,65.016,308.825c2.713,0,5.347-1.045,7.913-2.897
	C246.761,428.803,237.04,284.258,237.04,212.597z"/>
<path style="fill:#D77332;" d="M247.876,292.571h-16.254c-4.492,0-8.127-3.639-8.127-8.127s3.635-8.127,8.127-8.127h16.254
	c4.492,0,8.127,3.639,8.127,8.127C256.003,288.933,252.368,292.571,247.876,292.571z"/>
<path style="fill:#FF913C;" d="M280.384,341.333h-40.635c-4.492,0-8.127-3.639-8.127-8.127s3.635-8.127,8.127-8.127h40.635
	c4.492,0,8.127,3.639,8.127,8.127S284.876,341.333,280.384,341.333z"/>
<path style="fill:#D77332;" d="M247.876,390.095h-8.127c-4.492,0-8.127-3.639-8.127-8.127s3.635-8.127,8.127-8.127h8.127
	c4.492,0,8.127,3.639,8.127,8.127S252.368,390.095,247.876,390.095z"/>
<g>
	<path style="fill:#FF913C;" d="M288.511,211.302H264.13c-4.492,0-8.127-3.639-8.127-8.127s3.635-8.127,8.127-8.127h24.381
		c4.492,0,8.127,3.639,8.127,8.127S293.003,211.302,288.511,211.302z"/>
	<path style="fill:#FF913C;" d="M280.384,276.317c-4.492,0-8.127,3.639-8.127,8.127s3.635,8.127,8.127,8.127h35.874
		c0.497-5.489,0.966-10.925,1.386-16.254L280.384,276.317L280.384,276.317z"/>
	<path style="fill:#FF913C;" d="M280.384,422.603c-4.492,0-8.127,3.639-8.127,8.127s3.635,8.127,8.127,8.127h13.8
		c1.249-5.235,2.45-10.682,3.618-16.254L280.384,422.603L280.384,422.603z"/>
</g>
<g>
	<path style="fill:#D77332;" d="M247.876,227.556h-56.389c0.188,5.209,0.425,10.614,0.723,16.254h55.666
		c4.492,0,8.127-3.639,8.127-8.127S252.368,227.556,247.876,227.556z"/>
	<path style="fill:#D77332;" d="M237.043,422.603h-22.838c1.168,5.572,2.369,11.019,3.618,16.254h19.22
		c4.492,0,8.127-3.639,8.127-8.127S241.535,422.603,237.043,422.603z"/>
</g>
<g>
</g>
<g>
</g>
<g>
</g>
<g>
</g>
<g>
</g>
<g>
</g>
<g>
</g>
<g>
</g>
<g>
</g>
<g>
</g>
<g>
</g>
<g>
</g>
<g>
</g>
<g>
</g>
<g>
</g>
</svg>
