<svg width="512" height="512" viewBox="0 0 512 512" fill="none" xmlns="http://www.w3.org/2000/svg">
<g clip-path="url(#clip0_622_19651)">
<path d="M299.112 107.085C301.292 97.8055 306.552 88.8195 314.807 83.724C319.157 81.0835 323.99 79.3356 329.022 78.5824C334.055 77.8291 339.187 78.0856 344.12 79.3368C351.437 81.1313 364.267 86.6588 370.827 90.6238C373.6 92.2988 376.34 94.4265 378.62 96.7315C384.037 102.208 388.06 108.126 394.802 112.291C399.432 115.152 404.542 116.347 409.732 117.755C422.625 121.25 433.122 126.851 440.195 138.644C443.96 144.921 446.287 151.815 449.572 158.329C450.34 159.853 450.967 161.528 452.077 162.841C459.577 171.695 469.977 174.284 478.207 181.958C480.528 184.113 482.594 186.528 484.365 189.155C489.987 197.607 494.63 207.714 499.712 216.61C502.432 221.375 506.21 225.804 508.155 230.954C510.052 235.974 511.887 246.219 511.065 251.554C510.95 251.464 510.832 251.379 510.717 251.289C509.417 250.241 508.47 248.193 507.437 246.84C503.992 242.327 498.107 240.109 492.5 240.533C487.897 240.88 483.545 243.245 480.572 246.749C478.137 249.618 476.96 252.851 476.427 256.536C476.272 257.604 476.287 258.759 476.022 259.796C468.785 250.301 471.86 242.693 470.235 232.381C469.341 226.917 467.189 221.735 463.95 217.244C460.327 212.288 455.642 208.205 450.237 205.293C441.967 200.757 432.722 198.454 426.755 190.532C418.442 179.497 421.2 166.052 409.85 155.336C398.865 144.964 384.882 147.328 373.02 138.724C368.98 135.796 365.145 131.857 362.212 127.825C357.5 121.343 353.84 114.203 347.15 109.419C336.13 101.542 321.305 100.658 308.497 103.804C305.442 104.555 302.157 106.655 299.345 107.058C299.267 107.069 299.19 107.076 299.112 107.085Z" fill="#E48648"/>
<path d="M299.112 107.086C299.19 107.077 299.267 107.07 299.345 107.059C302.157 106.656 305.442 104.555 308.497 103.805C321.305 100.659 336.13 101.542 347.15 109.419C353.84 114.204 357.5 121.343 362.212 127.825C365.145 131.857 368.98 135.796 373.02 138.725C384.882 147.328 398.865 144.964 409.85 155.336C421.2 166.053 418.442 179.497 426.755 190.532C432.722 198.455 441.967 200.758 450.237 205.294C455.641 208.206 460.327 212.289 463.95 217.244C467.189 221.735 469.341 226.917 470.235 232.382C471.86 242.693 468.785 250.302 476.022 259.797C477.13 262.762 477.522 265.952 477.597 269.097C477.98 284.724 467.552 297.829 468.785 313.489C470.055 329.624 482.575 339.859 474.61 357.194C470.962 365.127 464.267 370.339 456.19 373.299C450.31 375.454 443.33 376.747 437.052 376.749C437.335 371.394 437.18 365.967 437.18 360.604L437.165 333.407L437.22 242.458C436.545 240.748 434.772 238.829 433.68 237.328C429.987 232.235 426.194 227.215 422.302 222.272C395.113 187.266 362.467 156.863 325.617 132.23C316.365 126.13 306.932 120.367 297.015 115.396C297.9 112.655 297.757 109.758 299.112 107.086Z" fill="#D54B32"/>
<path d="M476.022 259.799C476.287 258.761 476.272 257.606 476.427 256.539C476.96 252.854 478.137 249.621 480.572 246.751C483.545 243.248 487.897 240.883 492.5 240.535C498.107 240.112 503.992 242.33 507.437 246.843C508.47 248.196 509.417 250.244 510.717 251.291C510.832 251.381 510.95 251.466 511.065 251.556C511.227 253.874 511.12 256.949 512 259.091V261.301L511.57 261.074L511.475 260.169L511.295 260.041L511.112 351.664C511.084 358.818 511.092 365.972 511.137 373.126C511.195 378.681 511.627 384.549 510.767 390.044C509.97 395.154 507.835 400.461 504.095 404.126C500.436 407.666 495.681 409.853 490.612 410.326C485.442 410.829 480.02 410.486 474.817 410.471L447.197 410.446L356.397 410.449L186.245 410.451L129.238 410.441C119.666 410.444 110.069 410.636 100.501 410.469C95.1635 410.374 89.9648 408.306 86.221 404.429C80.474 398.476 81.5905 391.204 81.4423 383.619C81.414 382.176 81.5195 380.314 81.1073 378.949C80.9743 377.621 81.0885 376.216 81.1108 374.879C81.185 373.989 81.0825 373.416 81.652 372.709C83.1865 371.989 85.5193 372.564 87.241 372.481C90.8483 372.304 94.3258 371.836 97.8375 370.969C102.313 369.861 106.594 368.319 110.922 366.754C116.331 364.796 121.769 362.446 127.28 360.829C139.646 357.194 151.796 358.676 163.734 362.999C172.102 366.029 180.283 370.649 188.979 372.556C218.778 379.091 234.776 357.954 261.385 359.289C284.075 360.426 295.687 377.249 321.687 375.451C340.687 374.136 354.582 361.056 374.62 361.394C381.202 361.504 387.947 362.746 394.03 365.304C396.795 366.469 399.445 367.906 402.225 369.034C409.545 372.006 419.262 375.666 427.032 376.551C430.36 376.929 433.712 376.836 437.052 376.751C443.33 376.749 450.31 375.456 456.19 373.301C464.267 370.341 470.962 365.129 474.61 357.196C482.575 339.861 470.055 329.626 468.785 313.491C467.552 297.831 477.98 284.726 477.597 269.099C477.522 265.954 477.13 262.764 476.022 259.799Z" fill="#F7BD73"/>
<path d="M297.015 115.398C306.933 120.369 316.365 126.132 325.618 132.232C362.468 156.865 395.113 187.268 422.303 222.274C426.194 227.217 429.988 232.237 433.68 237.33C434.773 238.831 436.545 240.751 437.22 242.46L168.832 242.483L115.583 242.489C110.186 242.491 86.4577 243.175 82.6152 241.864C83.9732 239.904 87.2665 238.129 89.328 236.829C91.6627 235.357 94.096 234.084 96.465 232.674L124.339 216.219L187.959 178.938C224.152 157.486 260.505 136.306 297.015 115.398Z" fill="#FEE384"/>
<path d="M217.257 201C220.968 201.567 224.314 203.384 226.513 206.501C227.97 208.6 228.691 211.123 228.564 213.676C227.922 215.183 227.823 216.85 226.864 218.253C225.007 220.97 222.179 223.317 218.877 223.891C215.764 224.433 212.565 223.56 210.038 221.696C207.524 219.842 205.679 216.947 205.253 213.833C204.841 210.822 205.825 207.614 207.754 205.279C210.257 202.25 213.524 201.354 217.257 201Z" fill="#9A9A31"/>
<path d="M297.13 139.068C299.655 138.911 302.171 139.483 304.38 140.714C305.876 141.543 307.189 142.666 308.24 144.015C309.29 145.364 310.057 146.913 310.493 148.566C311.35 151.906 310.723 155.384 308.943 158.319C306.843 161.785 303.783 163.527 299.975 164.511C296.56 164.749 293.603 164.176 290.75 162.195C289.345 161.226 288.153 159.979 287.248 158.532C286.343 157.085 285.744 155.467 285.488 153.78C284.97 150.396 286.03 146.91 288.058 144.188C290.378 141.074 293.375 139.6 297.13 139.068Z" fill="#9A9A31"/>
<path d="M217.257 200.998C217.326 196.363 218.553 192.391 221.962 189.089C226.88 184.325 232.618 184.687 238.963 184.737C241.601 184.757 244.261 184.648 246.896 184.731C251.058 184.862 254.703 186.563 257.513 189.615C260.165 192.497 261.69 196.288 261.475 200.234C261.37 202.161 260.877 204.047 260.025 205.779C259.172 207.51 257.979 209.051 256.515 210.309C254.911 211.705 253.007 212.713 250.95 213.254C246.304 214.451 233.824 213.879 228.564 213.674C228.691 211.122 227.97 208.599 226.513 206.499C224.314 203.382 220.968 201.566 217.257 200.998Z" fill="#D54B32"/>
<path d="M82.6153 241.863C86.4578 243.174 110.187 242.49 115.583 242.488L168.832 242.482L437.22 242.459L437.165 333.408L437.18 360.606C437.18 365.968 437.335 371.396 437.053 376.751C433.713 376.836 430.36 376.928 427.033 376.551C419.263 375.666 409.545 372.006 402.225 369.033C399.445 367.906 396.795 366.468 394.03 365.303C387.948 362.746 381.203 361.503 374.62 361.393C354.583 361.056 340.688 374.136 321.688 375.451C295.688 377.248 284.075 360.426 261.385 359.288C234.777 357.953 218.779 379.091 188.979 372.556C180.284 370.648 172.103 366.028 163.735 362.998C151.797 358.676 139.647 357.193 127.281 360.828C121.77 362.446 116.332 364.796 110.923 366.753C106.594 368.318 102.314 369.861 97.8383 370.968C94.3265 371.836 90.849 372.303 87.2418 372.481C85.52 372.563 83.1873 371.988 81.6528 372.708C81.0833 373.416 81.1858 373.988 81.1115 374.878L81.135 286.156L81.098 259.633C81.0785 254.611 80.7185 249.267 81.2763 244.28C81.4073 243.108 81.6815 242.574 82.6153 241.863Z" fill="#F5A738"/>
<path d="M308.072 275.078C311.762 274.841 315.307 275.231 318.557 277.128C320.657 278.382 322.486 280.04 323.94 282.006C325.393 283.973 326.442 286.208 327.025 288.583C328.08 292.73 327.172 296.821 325.002 300.438C322.225 305.068 318.002 307.478 312.895 308.796C308.652 309.399 304.336 308.42 300.77 306.046C296.96 303.526 294.527 299.788 293.622 295.321C292.72 290.868 293.837 286.178 296.367 282.436C299.117 278.361 303.312 276.003 308.072 275.078Z" fill="#9A9A31"/>
<path d="M392.495 299.109C397.64 298.542 403.062 300.307 407.157 303.389C411.637 306.762 414.835 312.102 415.57 317.672C416.347 323.574 414.822 329.179 411.157 333.874C407.227 338.909 401.722 341.389 395.49 342.152C395.42 342.162 395.35 342.174 395.28 342.179C389.887 342.639 383.68 340.269 379.6 336.804C377.502 335.033 375.777 332.863 374.525 330.419C373.273 327.975 372.519 325.307 372.307 322.569C371.822 316.569 373.547 310.952 377.52 306.394C381.46 301.872 386.582 299.537 392.495 299.109Z" fill="#E48648"/>
<path d="M143.275 274.363C144.834 274.466 146.319 274.618 147.824 275.056C155.973 277.433 156.596 283.211 160.118 289.623L160.275 289.903C162.651 290.493 164.936 290.753 167.068 292.101C169.116 293.393 170.527 295.398 170.952 297.793C172.599 307.048 163.014 307.628 159.116 313.328C157.239 316.071 157.344 319.638 155.362 322.273C153.829 324.313 151.65 324.966 149.232 325.343C141.311 325.286 141.29 318.868 135.544 316.223C133.372 315.226 130.801 315.688 128.497 315.233C126.055 314.751 124.214 313.626 122.88 311.501C121.58 309.426 121.012 307.038 121.615 304.633C122.496 301.116 125.334 298.873 128.324 297.156C128.095 295.941 127.904 294.733 127.81 293.498C127.428 288.513 128.525 283.588 131.863 279.738C134.89 276.246 138.725 274.678 143.275 274.363Z" fill="#E48648"/>
</g>
<defs>
<clipPath id="clip0_622_19651">
<rect width="512" height="512" fill="white"/>
</clipPath>
</defs>
</svg>
