<svg id="Capa_1" enable-background="new 0 0 497 497" height="512" viewBox="0 0 497 497" width="512" xmlns="http://www.w3.org/2000/svg"><g><path d="m321.952 0h20.096c3.003 0 5.717 1.792 6.897 4.554l13.055 30.559h-60l13.055-30.56c1.18-2.761 3.893-4.553 6.897-4.553z" fill="#be4e28"/><path d="m486.376 273.622s-70.171-185.465-70.178-185.465c-12.861-33.988-45.704-58.157-84.198-58.157v467c91.127 0 165-73.873 165-165 0-20.555-3.77-40.228-10.624-58.378z" fill="#2d2d2d"/><path d="m467 332c0-20.555-3.084-40.228-8.693-58.378 0 0-57.412-185.465-57.418-185.465-10.523-33.988-37.394-58.157-68.889-58.157-38.494 0-71.337 24.169-84.205 58.158 0 0-70.171 185.465-70.158 185.465-6.867 18.149-10.637 37.822-10.637 58.377 0 91.127 73.873 165 165 165 74.558 0 135-73.873 135-165z" fill="#424242"/><path d="m319.362 273.622c.013 0-70.158-185.465-70.158-185.465-12.867-33.988-45.71-58.157-84.204-58.157s-71.337 24.169-84.198 58.158c-.007 0-70.178 185.465-70.178 185.465-6.854 18.149-10.624 37.822-10.624 58.377 0 91.127 73.873 165 165 165s165-73.873 165-165c0-20.555-3.77-40.228-10.638-58.378z" fill="#379030"/><path d="m165 467c74.439 0 135-60.561 135-135 0-16.436-2.924-32.51-8.69-47.778-.551-1.457-70.171-185.447-70.171-185.447-8.776-23.192-31.336-38.775-56.139-38.775-24.802 0-47.367 15.584-56.148 38.78-18.984 50.175-51.617 136.431-64.579 170.705.004.006-5.577 14.754-5.577 14.754-5.77 15.25-8.696 31.319-8.696 47.761 0 74.439 60.561 135 135 135z" fill="#b9e871"/><path d="m165 437c57.897 0 105-47.103 105-105 0-12.801-2.273-25.31-6.755-37.179-.546-1.443-70.164-185.429-70.164-185.429-4.389-11.599-15.674-19.392-28.081-19.392-12.409 0-23.698 7.797-28.092 19.402-16.737 44.237-59.207 156.506-59.207 156.506l-10.947 28.948c-4.481 11.845-6.754 24.342-6.754 37.144 0 57.897 47.103 105 105 105z" fill="#fff7d6"/><path d="m165 257v150c41.421 0 75-33.579 75-75s-33.579-75-75-75z" fill="#9d4528"/><path d="m210 332c0-41.421-20.147-75-45-75-41.421 0-75 33.579-75 75s33.579 75 75 75c24.853 0 45-33.579 45-75z" fill="#be4e28"/><g fill="#2d2d2d"><circle cx="444.5" cy="332" r="7.5"/><circle cx="414.5" cy="302" r="7.5"/><circle cx="414.5" cy="362" r="7.5"/><circle cx="332" cy="75" r="7.5"/><circle cx="362" cy="105" r="7.5"/></g></g></svg>