<svg id="Capa_1" enable-background="new 0 0 512 512" height="300" viewBox="0 0 512 512" width="300" xmlns="http://www.w3.org/2000/svg" version="1.1" xmlns:xlink="http://www.w3.org/1999/xlink" xmlns:svgjs="http://svgjs.dev/svgjs"><g width="100%" height="100%" transform="matrix(1,0,0,1,0,0)"><g><g><path d="m312.367 263.608c13.302 14.687 21.852 32.74 24.849 51.964 10.199-3.499 21.133-5.402 32.503-5.402 14.98 0 29.202 3.303 41.984 9.21 5.475-12.456 8.52-26.212 8.52-40.668 0-50.997-37.839-93.317-86.915-100.374-.099.033-.195.07-.294.102l-.863.277.191.886c1.756 8.122.433 16.562-3.726 23.763-5.953 10.312-17.057 16.718-28.976 16.718-.001 0 0 0-.002 0-5.832-.001-11.6-1.551-16.68-4.484-1.8-1.043-3.771-1.579-5.753-1.579-1.896 0-3.757.496-5.383 1.436l-26.328 15.199 3.052.326c24.469 2.614 47.133 14.201 63.821 32.626z" fill="#e03d9c" fill-opacity="1" data-original-color="#e03d9cff" stroke="none" stroke-opacity="1"/><path d="m312.367 263.608c13.302 14.687 21.852 32.74 24.849 51.964 10.199-3.499 21.133-5.402 32.503-5.402 2.767 0 5.506.117 8.217.338 5.116-9.469 8.025-20.297 8.025-31.796 0-36.009-28.491-65.479-64.113-67.076-6.041 5.348-13.925 8.448-22.208 8.448-.001 0 0 0-.002 0-3.521 0-7.017-.575-10.354-1.669-8.229 4.046-15.505 9.73-21.421 16.62 16.937 5.331 32.317 15.118 44.504 28.573z" fill="#c12765" fill-opacity="1" data-original-color="#c53287ff" stroke="none" stroke-opacity="1"/><path d="m318.809 219.061c32.893 0 59.653 26.76 59.653 59.652 0 11.543-3.302 22.324-9.003 31.461.087 0 .174-.003.261-.003 5.495 0 10.886.451 16.143 1.304 4.858-9.896 7.599-21.012 7.599-32.762 0-38.107-28.708-69.615-65.629-74.087-6.109 9.566-16.769 15.459-28.192 15.459-.001 0 0 0-.002 0-5.832-.001-11.6-1.551-16.68-4.484-.746-.432-1.526-.756-2.32-1.012-7.99 4.774-15.008 11.001-20.708 18.309 5.323 1.204 10.527 2.823 15.558 4.868 10.883-11.506 26.271-18.705 43.32-18.705z" fill="#96055a" fill-opacity="1" data-original-color="#98246aff" stroke="none" stroke-opacity="1"/><path d="m318.809 245.822c-7.083 0-13.645 2.258-19.018 6.081 4.477 3.52 8.694 7.419 12.577 11.705 11.313 12.49 19.187 27.417 23.139 43.427 9.683-5.731 16.194-16.277 16.194-28.322-.001-18.137-14.755-32.891-32.892-32.891z" fill="#e03d9c" fill-opacity="1" data-original-color="#e03d9cff" stroke="none" stroke-opacity="1"/><path d="m318.809 238.322c-9.599 0-18.422 3.372-25.361 8.986 4.317 2.883 8.439 6.09 12.302 9.639 3.818-2.299 8.286-3.625 13.058-3.625 14.001 0 25.392 11.391 25.392 25.391 0 8.597-4.298 16.204-10.854 20.8 1.643 4.952 2.879 10.037 3.731 15.207 13.114-6.681 22.123-20.307 22.123-36.007 0-22.272-18.119-40.391-40.391-40.391z" fill="#96055a" fill-opacity="1" data-original-color="#98246aff" stroke="none" stroke-opacity="1"/></g><g><g><path d="m179.693 198.658c-18.509 0-33.503-14.994-33.503-33.424 0-8.315 3.074-16.285 8.656-22.441l.608-.672-.608-.672c-5.582-6.156-8.656-14.126-8.656-22.441s3.074-16.285 8.656-22.441l.608-.672-.608-.672c-5.582-6.156-8.656-14.126-8.656-22.441 0-8.021 2.782-15.384 7.472-21.147-10.006-10.326-25.688-13.472-39.078-7.302-.533-1.241-1.135-2.466-1.827-3.665-9.506-16.465-30.559-22.106-47.024-12.6s-22.106 30.559-12.6 47.024c.692 1.198 1.452 2.333 2.26 3.415-14.362 10.153-18.879 29.763-9.912 45.295 4.448 7.704 11.425 13.038 19.277 15.559-1.742 8.061-.612 16.77 3.836 24.474s11.425 13.038 19.277 15.559c-1.742 8.061-.612 16.77 3.837 24.474 9.506 16.465 30.559 22.106 47.024 12.6.017-.01.034-.02.051-.029 3.127-1.813 6.955-1.922 10.085-.115l25.153 14.522c3.064-.282 6.166-.434 9.303-.434h3.877v-28.894c-2.011-1.8-4.674-2.86-7.508-2.86z" fill="#2d9672" fill-opacity="1" data-original-color="#05e39cff" stroke="none" stroke-opacity="1"/><g><g><path d="m135.007 203.867c-4.448-7.704-5.579-16.413-3.837-24.474-7.852-2.521-14.828-7.855-19.277-15.559-4.448-7.704-5.579-16.413-3.837-24.474-7.852-2.521-14.828-7.855-19.277-15.559-8.967-15.532-4.45-35.142 9.912-45.295-.808-1.082-1.568-2.216-2.26-3.415-8.593-14.883-4.806-33.514 8.161-43.977-10.754-8.693-26.168-10.374-38.859-3.047-16.465 9.506-22.106 30.559-12.6 47.024.692 1.198 1.452 2.332 2.26 3.415-14.362 10.153-18.879 29.763-9.912 45.295 4.448 7.704 11.425 13.038 19.277 15.559-1.742 8.061-.612 16.769 3.837 24.474 4.448 7.704 11.425 13.038 19.277 15.559-1.742 8.061-.612 16.769 3.836 24.474 9.506 16.465 30.559 22.106 47.024 12.6.017-.01.034-.019.051-.029 2.07-1.2 4.443-1.636 6.721-1.281-4.181-2.829-7.804-6.624-10.497-11.29z" fill="#226d53" fill-opacity="1" data-original-color="#0ed290ff" stroke="none" stroke-opacity="1"/></g></g><path d="m146.19 165.234c0-3.463.541-6.863 1.566-10.1l-47.841-82.863c-2.07-3.588-6.66-4.814-10.245-2.745-3.587 2.071-4.816 6.658-2.745 10.245l87.217 151.063c3.025-.275 6.087-.424 9.183-.424h7.893l-18.794-32.552c-15.01-3.318-26.234-16.681-26.234-32.624z" fill="#05ba81" fill-opacity="1" data-original-color="#00c285ff" stroke="none" stroke-opacity="1"/></g><g><path d="m365.798 78.506c.808-1.082 1.568-2.216 2.26-3.415 9.506-16.465 3.865-37.518-12.6-47.024s-37.518-3.865-47.024 12.6c-.692 1.198-1.294 2.424-1.827 3.665-13.389-6.171-29.072-3.024-39.078 7.302 4.69 5.764 7.472 13.126 7.472 21.147 0 8.315-3.073 16.286-8.655 22.441l-.608.672.608.672c5.582 6.155 8.655 14.126 8.655 22.441s-3.073 16.286-8.655 22.441l-.608.672.608.672c5.582 6.155 8.655 14.126 8.655 22.441 0 18.43-14.994 33.424-33.424 33.424-2.89 0-5.571 1.061-7.586 2.861v28.892h3.877c3.112 0 6.211.153 9.29.441l25.166-14.53c3.13-1.807 6.958-1.698 10.085.115.017.01.034.02.051.029 16.465 9.506 37.518 3.865 47.024-12.6 4.448-7.704 5.579-16.413 3.837-24.474 7.852-2.521 14.828-7.855 19.277-15.559 4.448-7.704 5.579-16.413 3.836-24.474 7.852-2.521 14.829-7.855 19.277-15.559 8.966-15.53 4.449-35.14-9.913-45.293z" fill="#2d9672" fill-opacity="1" data-original-color="#05e39cff" stroke="none" stroke-opacity="1"/><g><path d="m355.458 28.067c-16.465-9.506-37.518-3.864-47.024 12.6-.692 1.198-1.294 2.424-1.827 3.664-13.096-6.035-28.384-3.156-38.411 6.635 4.874 5.938 7.805 13.532 7.805 21.815 0 1.66-.118 3.292-.345 4.889 9.093-9.575 23.013-13.128 35.615-9.004 2.12.694 4.393-.242 5.506-2.176.007-.012.014-.024.021-.036 9.506-16.465 30.559-22.106 47.024-12.6 3.37 1.946 6.279 4.382 8.705 7.157 1.174-12.95-5.067-26.014-17.069-32.944z" fill="#226d53" fill-opacity="1" data-original-color="#0ed290ff" stroke="none" stroke-opacity="1"/></g><path d="m331.522 69.526c-3.589-2.07-8.175-.843-10.245 2.745l-47.842 82.864c1.025 3.237 1.565 6.637 1.565 10.099 0 15.963-11.252 29.341-26.24 32.638l-18.786 32.539h7.893c3.096 0 6.157.148 9.183.424l87.217-151.063c2.072-3.587.842-8.174-2.745-10.246z" fill="#226d53" fill-opacity="1" data-original-color="#0ed290ff" stroke="none" stroke-opacity="1"/></g></g><g><path d="m179.615 199.658h.058c3.615-.007 6.984 1.812 8.792 4.943l14.901 25.81h14.46l14.901-25.81c1.807-3.13 5.177-4.949 8.792-4.943h.058c19.012 0 34.424-15.412 34.424-34.424 0-8.896-3.375-17.004-8.914-23.113 5.539-6.11 8.914-14.217 8.914-23.113s-3.375-17.004-8.914-23.113c5.539-6.11 8.914-14.217 8.914-23.113 0-17.935-13.717-32.659-31.231-34.271.159-1.341.25-2.703.25-4.087 0-19.012-15.412-34.424-34.424-34.424s-34.424 15.412-34.424 34.424c0 1.384.091 2.746.25 4.087-17.514 1.611-31.231 16.336-31.231 34.271 0 8.896 3.375 17.004 8.914 23.113-5.539 6.109-8.914 14.217-8.914 23.113s3.375 17.004 8.914 23.113c-5.539 6.109-8.914 14.217-8.914 23.113 0 19.012 15.412 34.424 34.424 34.424z" fill="#05ba81" fill-opacity="1" data-original-color="#00c285ff" stroke="none" stroke-opacity="1"/><path d="m179.615 199.658h.059c3.615-.007 6.984 1.812 8.792 4.943l14.901 25.81h14.46l10.069-17.44-4.832-8.37c-1.807-3.13-5.177-4.95-8.792-4.943-.02 0-.039 0-.059 0-19.012 0-34.424-15.412-34.424-34.424 0-8.896 3.375-17.003 8.914-23.113-5.539-6.11-8.914-14.217-8.914-23.113s3.375-17.004 8.914-23.113c-5.539-6.109-8.914-14.217-8.914-23.113 0-17.935 13.717-32.66 31.231-34.271-.159-1.342-.25-2.703-.25-4.087 0-12.704 6.886-23.792 17.125-29.757-5.084-2.962-10.991-4.667-17.299-4.667-19.012 0-34.424 15.412-34.424 34.424 0 1.384.091 2.746.25 4.087-17.514 1.611-31.231 16.336-31.231 34.271 0 8.896 3.375 17.004 8.914 23.113-5.539 6.11-8.914 14.217-8.914 23.113s3.375 17.003 8.914 23.113c-5.539 6.11-8.914 14.217-8.914 23.113 0 19.012 15.412 34.424 34.424 34.424z" fill="#0baa77" fill-opacity="1" data-original-color="#07b27bff" stroke="none" stroke-opacity="1"/><path d="m184.614 124.455c-2.502-3.303-7.203-3.952-10.507-1.452-3.303 2.501-3.952 7.205-1.452 10.507l30.44 40.201v56.7h15v-56.7l30.441-40.201c2.5-3.302 1.851-8.006-1.452-10.507-3.303-2.5-8.006-1.851-10.507 1.452l-18.482 24.408v-27.336l30.441-40.201c2.5-3.302 1.851-8.006-1.452-10.507-3.303-2.5-8.006-1.851-10.507 1.452l-18.482 24.408v-41.307c0-4.143-3.357-7.5-7.5-7.5s-7.5 3.357-7.5 7.5v41.307l-18.481-24.408c-2.502-3.303-7.203-3.952-10.507-1.452-3.303 2.501-3.952 7.205-1.452 10.507l30.44 40.201v27.336z" fill="#226d53" fill-opacity="1" data-original-color="#0ed290ff" stroke="none" stroke-opacity="1"/></g><path d="m269.305 410.585c0-44.363 28.922-82.094 68.899-95.343-7.619-48.459-49.823-85.832-100.335-85.832h-54.544c-55.86 0-101.564 45.704-101.564 101.564 0 48.2 34.028 88.838 79.248 99.077 11.623 2.632 21.897 9.384 28.593 19.242l17.988 60.462c.89 2.991 5.126 2.991 6.016 0l17.988-60.462c6.695-9.859 16.969-16.611 28.593-19.242 3.569-.808 7.059-1.827 10.478-3.002-.891-5.358-1.36-10.857-1.36-16.464z" fill="#c12765" fill-opacity="1" data-original-color="#c53287ff" stroke="none" stroke-opacity="1"/><path d="m228.924 418.295c-6.695-9.859-16.969-16.611-28.593-19.243-45.219-10.239-79.248-50.877-79.248-99.077 0-23.207 7.898-44.652 21.126-61.802-35.526 15.861-60.45 51.556-60.45 92.802 0 48.2 34.028 88.838 79.248 99.077 11.623 2.632 21.897 9.384 28.593 19.243l17.988 60.462c.89 2.991 5.126 2.991 6.015 0l17.988-60.462c1.438-2.118 3.052-4.083 4.8-5.902z" fill="#96055a" fill-opacity="1" data-original-color="#98246aff" stroke="none" stroke-opacity="1"/><g><g><circle cx="369.72" cy="410.585" fill="#96055a" r="101.415" fill-opacity="1" data-original-color="#98246aff" stroke="none" stroke-opacity="1"/></g><g><circle cx="369.72" cy="410.585" fill="#c12765" r="67.153" fill-opacity="1" data-original-color="#c53287ff" stroke="none" stroke-opacity="1"/></g><g><path d="m369.72 485.238c-41.164 0-74.653-33.489-74.653-74.653 0-41.163 33.489-74.652 74.653-74.652 41.163 0 74.652 33.489 74.652 74.652 0 41.164-33.489 74.653-74.652 74.653zm0-134.305c-32.893 0-59.653 26.76-59.653 59.652s26.761 59.653 59.653 59.653 59.652-26.761 59.652-59.653-26.76-59.652-59.652-59.652z" fill="#e03d9c" fill-opacity="1" data-original-color="#e03d9cff" stroke="none" stroke-opacity="1"/></g><g><circle cx="369.72" cy="410.585" fill="#c12765" r="32.891" fill-opacity="1" data-original-color="#c53287ff" stroke="none" stroke-opacity="1"/></g><g><path d="m369.72 450.977c-22.272 0-40.392-18.119-40.392-40.392 0-22.271 18.119-40.391 40.392-40.391 22.271 0 40.391 18.119 40.391 40.391-.001 22.272-18.12 40.392-40.391 40.392zm0-65.783c-14.001 0-25.392 11.391-25.392 25.391 0 14.001 11.391 25.392 25.392 25.392 14 0 25.391-11.391 25.391-25.392-.001-14-11.391-25.391-25.391-25.391z" fill="#e03d9c" fill-opacity="1" data-original-color="#e03d9cff" stroke="none" stroke-opacity="1"/></g></g></g></g></svg>