<svg id="Capa_1" enable-background="new 0 0 512 512" height="512" viewBox="0 0 512 512" width="512" xmlns="http://www.w3.org/2000/svg"><g><g><path d="m415.211 0c-9.652 0-18.282 4.358-24.041 11.21-1.237 1.472-3.02 2.374-4.943 2.374h-.315c-37.283 0-67.508 30.224-67.508 67.508v46.185c0 3.497 2.835 6.333 6.333 6.333h22.965c3.497 0 6.333-2.835 6.333-6.333v-46.185c0-17.606 14.272-31.878 31.878-31.878h.314c1.923 0 3.706.902 4.943 2.374 5.759 6.852 14.39 11.21 24.041 11.21 17.341 0 20.168-14.058 20.168-31.399s-2.826-31.399-20.168-31.399z" fill="#89c627"/></g><g><path d="m422.045.912c.651 4.01.863 8.474.863 13.183 0 17.341-2.827 31.399-20.168 31.399-9.652 0-18.282-4.358-24.041-11.21-1.237-1.472-3.02-2.374-4.943-2.374h-.314c-17.606 0-31.878 14.272-31.878 31.878v46.185c0 3.498-2.835 6.333-6.333 6.333h-16.827v10.971c0 3.498 2.835 6.333 6.333 6.333h22.965c3.497 0 6.333-2.835 6.333-6.333v-46.185c0-17.606 14.272-31.878 31.878-31.878h.314c1.922 0 3.706.902 4.943 2.374 5.759 6.852 14.39 11.21 24.041 11.21 17.341 0 20.168-14.058 20.168-31.399.001-14.75-2.051-27.118-13.334-30.487z" fill="#78a61f"/></g><g><path d="m496.723 163.612c-1.059-34.7-29.502-62.509-64.458-62.509-15.084 0-28.955 5.181-39.939 13.857-4.712 3.722-11.453 3.722-16.165 0-10.984-8.676-24.855-13.857-39.939-13.857s-28.955 5.181-39.939 13.857c-4.712 3.722-11.453 3.722-16.165 0-10.984-8.676-24.855-13.857-39.94-13.857-34.957 0-63.399 27.81-64.458 62.509h-.05s-.932 47.878 15.765 122.034c14.288 63.456 33.424 97.984 33.424 97.984h.209c7.323 15.96 23.432 27.051 42.141 27.051 10.28 0 19.777-3.349 27.462-9.013 4.161-3.067 9.927-3.067 14.089 0 7.686 5.664 17.182 9.013 27.462 9.013s19.777-3.349 27.462-9.014c4.161-3.067 9.927-3.067 14.089 0 7.686 5.664 17.182 9.013 27.462 9.013 18.71 0 34.819-11.091 42.141-27.051h.2s19.137-34.528 33.424-97.984c14.683-65.213 15.921-110.098 15.774-119.976-.024-1.445-.051-2.057-.051-2.057z" fill="#c73044"/></g><g><path d="m337.337 260.567c-1.012-33.152-28.186-59.721-61.583-59.721-14.411 0-27.664 4.95-38.158 13.239-4.502 3.556-10.942 3.556-15.444 0-10.494-8.289-23.746-13.239-38.158-13.239-14.411 0-27.664 4.95-38.158 13.239-4.502 3.556-10.942 3.556-15.444 0-10.494-8.289-23.746-13.239-38.158-13.239-33.397 0-60.571 26.569-61.583 59.721h-.048s-.89 45.742 15.062 116.59c13.65 60.625 31.933 93.612 31.933 93.612h.2c6.996 15.248 22.386 25.845 40.261 25.845 9.822 0 18.894-3.2 26.237-8.611 3.975-2.93 9.485-2.93 13.46 0 7.343 5.412 16.415 8.611 26.237 8.611s18.894-3.2 26.237-8.611c3.975-2.93 9.485-2.93 13.46 0 7.343 5.412 16.415 8.611 26.237 8.611 17.875 0 33.265-10.596 40.261-25.845h.191s18.283-32.988 31.933-93.612c14.028-62.304 15.211-105.187 15.07-114.624-.019-1.381-.045-1.966-.045-1.966z" fill="#aa2439"/></g><g><path d="m337.384 262.533c-.021-1.381-.047-1.966-.047-1.966-1.012-33.148-28.18-59.715-61.573-59.72 0 .024.001.043.001.068.141 9.437-1.041 52.32-15.07 114.624-13.65 60.625-31.933 93.612-31.933 93.612h-.191c-6.996 15.248-22.386 25.845-40.261 25.845-9.822 0-18.894-3.199-26.237-8.611-3.976-2.93-9.484-2.93-13.46 0-7.343 5.412-16.416 8.611-26.237 8.611-9.822 0-18.894-3.199-26.237-8.611-3.976-2.93-9.485-2.93-13.46 0-5.883 4.336-12.878 7.247-20.478 8.235 8.491 23.674 15.398 36.151 15.398 36.151h.2c6.996 15.248 22.386 25.845 40.261 25.845 9.822 0 18.894-3.2 26.237-8.611 3.975-2.93 9.484-2.93 13.46 0 7.343 5.412 16.415 8.611 26.237 8.611s18.894-3.2 26.237-8.611c3.976-2.93 9.484-2.93 13.46 0 7.343 5.412 16.415 8.611 26.237 8.611 17.875 0 33.265-10.596 40.261-25.845h.191s18.283-32.988 31.933-93.612c14.029-62.305 15.211-105.188 15.071-114.626z" fill="#952436"/></g><g><g><path d="m496.772 165.67c-.021-1.446-.049-2.058-.049-2.058-1.059-34.7-29.502-62.509-64.458-62.509-11.038 0-21.42 2.784-30.502 7.671 19.674 10.591 33.219 31.099 33.943 54.838 0 0 .028.612.049 2.058.147 9.878-1.09 54.763-15.774 119.976-14.288 63.456-33.424 97.984-33.424 97.984h-.2c-2.884 6.287-7.148 11.8-12.38 16.195 1.342.378 2.632.986 3.794 1.843 7.686 5.664 17.182 9.013 27.462 9.013 18.71 0 34.819-11.091 42.141-27.051h.2s19.137-34.528 33.424-97.984c14.684-65.212 15.921-110.098 15.774-119.976z" fill="#aa2439"/></g></g><g><path d="m185.641 494.593c-4.249 0-7.693-3.444-7.693-7.693v-91.16c0-4.249 3.444-7.693 7.693-7.693s7.693 3.444 7.693 7.693v91.16c0 4.249-3.444 7.693-7.693 7.693z" fill="#f07181"/></g><g><path d="m244.612 261.466c0 33.479-27.14 40.7-60.619 40.7s-60.619-7.221-60.619-40.7 32.777-60.619 60.619-60.619 60.619 27.14 60.619 60.619z" fill="#fbcb80"/></g><g><path d="m192.61 201.683c14.869 11.083 26.077 28.477 26.077 48.049 0 33.479-27.14 40.7-60.619 40.7-8.853 0-17.253-.514-24.835-1.876 10.823 10.688 29.508 13.609 50.759 13.609 33.479 0 60.619-7.221 60.619-40.699.001-30.071-26.441-55.013-52.001-59.783z" fill="#e7b467"/></g><g><g><path d="m249.928 512c-8.954 0-17.617-1.956-25.537-5.721-4.699-2.234-10.16-2.234-14.859 0-7.92 3.765-16.583 5.721-25.538 5.721-8.954 0-17.617-1.956-25.537-5.721-4.699-2.234-10.16-2.234-14.859 0-7.92 3.765-16.583 5.721-25.538 5.721-19.772 0-38.127-9.881-49.144-25.844h-.381l-4.394-7.928c-.79-1.425-19.512-35.63-33.486-97.691-16.175-71.838-15.421-114.097-15.435-120.269s1.961-15.087 1.961-15.087c3.812-16.663 13.108-31.689 26.892-42.81 13.762-11.104 30.855-16.993 48.539-16.909 14.49.068 28.284 4.067 40.365 11.643 3.137 1.967 7.108 1.989 10.243.021 12.193-7.655 26.134-11.664 40.774-11.664 14.642 0 28.581 4.009 40.774 11.664 3.136 1.969 7.107 1.947 10.244-.021 12.153-7.621 26.04-11.622 40.627-11.643 17.852-.026 35.288 6.155 49.042 17.536 17.302 14.316 27.327 34.865 28.031 57.003.011.288.037 1.021.055 2.31.029 1.894.514 47.361-15.443 118.227-13.974 62.062-32.696 96.266-33.486 97.691l-4.394 7.928h-.372c-11.017 15.962-29.372 25.843-49.144 25.843zm-32.967-41.543c5.595 0 11.19 1.72 15.858 5.161 4.98 3.671 10.896 5.611 17.109 5.611 11.26 0 21.574-6.624 26.277-16.874l4.116-8.97h.474c5.869-12.786 17.305-40.73 26.509-81.607 15.162-67.337 14.702-110.585 14.696-111.014-.014-.935-.03-1.408-.035-1.53l-.007-.197c-.766-25.123-21.061-44.804-46.203-44.804-10.503 0-20.4 3.433-28.621 9.927-10.162 8.026-24.355 8.027-34.519 0-8.222-6.494-18.119-9.927-28.621-9.927s-20.399 3.433-28.622 9.927c-10.163 8.027-24.357 8.025-34.518-.002-8.221-6.493-18.118-9.926-28.621-9.926-25.142 0-45.437 19.68-46.204 44.804l-.046 1.497c.054 8.698 1.064 50.719 14.692 111.243 9.201 40.867 20.635 68.807 26.509 81.607h.483l4.116 8.97c4.703 10.251 15.017 16.874 26.277 16.874 6.212 0 12.128-1.94 17.108-5.61 9.34-6.883 22.381-6.88 31.717-.001 4.981 3.671 10.897 5.611 17.11 5.611s12.128-1.94 17.108-5.61c4.668-3.44 10.264-5.16 15.858-5.16z" fill="#f5a2ad"/></g></g><g><g><path d="m352.767 262.31c-.018-1.289-.044-2.022-.055-2.31-.704-22.137-10.729-42.687-28.031-57.003-.897-.742-1.811-1.46-2.739-2.157 8.096 11.943 12.699 25.936 13.167 40.642.011.288.037 1.021.055 2.31.029 1.894.514 47.361-15.443 118.227-13.974 62.062-32.696 96.266-33.486 97.691l-4.394 7.928h-.372c-11.017 15.963-29.372 25.844-49.144 25.844-8.954 0-17.617-1.956-25.537-5.721-4.699-2.234-10.16-2.234-14.859 0-7.92 3.765-16.583 5.721-25.538 5.721-8.954 0-17.617-1.956-25.537-5.721-4.699-2.234-10.16-2.234-14.859 0-7.92 3.765-16.583 5.721-25.538 5.721-12.228 0-23.908-3.787-33.651-10.447l1.73 3.121h.381c11.016 15.963 29.371 25.844 49.143 25.844 8.955 0 17.618-1.956 25.538-5.721 4.699-2.234 10.16-2.234 14.859 0 7.92 3.765 16.583 5.721 25.537 5.721 8.955 0 17.618-1.956 25.538-5.721 4.699-2.234 10.16-2.234 14.859 0 7.92 3.765 16.583 5.721 25.537 5.721 19.772 0 38.127-9.881 49.144-25.844h.372l4.394-7.928c.79-1.425 19.512-35.63 33.486-97.691 15.957-70.866 15.472-116.333 15.443-118.227z" fill="#f07181"/></g></g><g><ellipse cx="205.874" cy="280.092" fill="#e7b467" rx="10.259" ry="16.316"/></g><g><ellipse cx="175.657" cy="260.609" fill="#e7b467" rx="10.259" ry="16.316"/></g><g><ellipse cx="126.615" cy="290.2" fill="#e7b467" rx="10.259" ry="16.316"/></g><g><ellipse cx="149.694" cy="306.516" fill="#e7b467" rx="10.259" ry="16.316"/></g><g><ellipse cx="185.916" cy="331.822" fill="#e7b467" rx="10.259" ry="16.316"/></g></g></svg>