<svg id="Capa_1" enable-background="new 0 0 512 512" height="512" viewBox="0 0 512 512" width="512" xmlns="http://www.w3.org/2000/svg"><g><path d="m277.333 239.393v-97.171h-99.556v100.945c0 46.977-11.823 92.991-32.895 134.977-6.092 12.139-9.59 25.805-9.765 40.27-.614 50.739 40.384 92.871 91.122 93.576 51.658.718 93.76-40.942 93.76-92.435 0-14.546-3.36-28.307-9.345-40.55-21.304-43.578-33.321-91.105-33.321-139.612z" fill="#fece85"/><path d="m310.655 379.005c-21.305-43.578-33.322-91.105-33.322-139.612v-97.171h-41.207v76.567c0 48.507 12.017 96.034 33.322 139.612 5.985 12.243 9.345 26.004 9.345 40.55 0 51.493-42.101 93.154-93.76 92.436-6.118-.085-12.094-.773-17.873-2.005 15.904 13.798 36.53 22.295 59.08 22.609 51.658.718 93.76-40.942 93.76-92.436 0-14.545-3.359-28.306-9.345-40.55z" fill="#fec165"/><path d="m438.806 410.771-24.122-20.561c-5.933-5.057-9.35-12.46-9.35-20.255v-42.844h-56.889v47.015c0 24.727 8.843 48.639 24.931 67.417l16.051 18.734c13.293 15.515 36.981 16.427 51.427 1.98 14.472-14.472 13.528-38.21-2.048-51.486z" fill="#fece85"/><path d="m277.74 312.889c-.269 2.342-.406 4.714-.406 7.111 0 2.403.138 4.78.408 7.127.934 8.123 7.907 14.206 16.083 14.206h166.129c8.177 0 15.15-6.083 16.084-14.206.27-2.347.408-4.725.408-7.127 0-2.397-.138-4.769-.406-7.111l-99.149-14.222z" fill="#f3f0f3"/><path d="m227.556 0c-106.039 0-192 70.043-192 156.444 0 0 159.838 39.111 181.333 39.111s202.667-39.111 202.667-39.111c0-86.401-85.962-156.444-192-156.444z" fill="#9b5e5e"/><path d="m306.448 13.775c43.837 28.673 71.9 72.699 71.9 122.066 0 8.206-.776 16.264-2.27 24.128-.476 2.507-2.678 4.316-5.229 4.316h-32.532c-32.28 0-64.397 5.769-94.297 17.932-14.019 5.703-30.735 9.382-48.842 10.291 10.294 1.9 18.03 3.047 21.711 3.047 21.495 0 202.667-39.111 202.667-39.111 0-63.49-46.417-118.146-113.108-142.669z" fill="#855151"/><path d="m285.227 174.377c-16.272 6.619-36.176 10.512-57.672 10.512s-41.4-3.893-57.672-10.512c-29.9-12.163-62.017-17.932-94.297-17.932h-40.031c0 8.206.776 16.264 2.27 24.128.476 2.507 2.678 4.316 5.23 4.316h32.532c32.28 0 64.397 5.769 94.297 17.932 16.272 6.619 36.176 10.512 57.672 10.512s41.4-3.893 57.672-10.512c29.9-12.163 62.017-17.932 94.297-17.932h32.532c2.551 0 4.753-1.81 5.229-4.316 1.495-7.865 2.27-15.923 2.27-24.128h-40.031c-32.28-.001-64.397 5.768-94.298 17.932z" fill="#f3f0f3"/><path d="m379.524 156.444c-.943 0-1.887.005-2.83.015-.19 1.174-.395 2.344-.617 3.51-.476 2.507-2.678 4.316-5.229 4.316h-32.532c-9.299 0-18.584.479-27.807 1.451-8.568 2.399-17.01 5.275-25.283 8.64-13.688 5.568-29.947 9.207-47.56 10.222-14.986 5.161-32.546 8.131-51.319 8.131-21.495 0-41.4-3.893-57.672-10.512-29.464-11.986-61.08-17.762-92.883-17.929.334 5.508 1.017 10.94 2.032 16.284.476 2.507 2.678 4.316 5.23 4.316h32.531c32.28 0 64.397 5.769 94.297 17.932 16.272 6.619 36.176 10.512 57.672 10.512s41.4-3.893 57.672-10.512c29.901-12.163 62.017-17.932 94.297-17.932h32.532c2.551 0 4.753-1.81 5.229-4.316 1.495-7.865 2.27-15.923 2.27-24.128z" fill="#e2dee2"/><path d="m376.889 241.778c-51.932 0-94.577 31.243-99.149 71.111h198.299c-4.573-39.868-47.218-71.111-99.15-71.111z" fill="#9b5e5e"/><g fill="#855151"><path d="m111.224 121.279c-.53 0-1.068-.057-1.608-.174-4.047-.885-6.61-4.882-5.726-8.929 4.76-21.776 12.863-41.735 24.087-59.322 2.229-3.492 6.864-4.516 10.357-2.288 3.491 2.228 4.516 6.865 2.287 10.357-10.269 16.091-17.696 34.413-22.077 54.456-.766 3.507-3.872 5.9-7.32 5.9zm234.272-.174c4.046-.884 6.61-4.882 5.726-8.928-6.171-28.235-18.235-53.914-34.89-74.261-2.623-3.206-7.348-3.676-10.555-1.053-3.205 2.624-3.677 7.349-1.053 10.554 15.164 18.525 26.175 42.026 31.843 67.962.767 3.507 3.871 5.9 7.32 5.9.53 0 1.069-.056 1.609-.174zm-154.888-34.568c3.568-21.94 8.809-40.96 15.155-55.005 1.705-3.775.028-8.217-3.747-9.923-3.775-1.707-8.217-.028-9.923 3.746-6.881 15.229-12.514 35.552-16.29 58.773-.665 4.088 2.11 7.942 6.198 8.607.408.066.813.098 1.213.098 3.613.001 6.795-2.615 7.394-6.296zm82.502 6.199c4.089-.665 6.863-4.519 6.198-8.607-2.663-16.372-6.189-31.127-10.48-43.859-1.324-3.925-5.58-6.038-9.503-4.711-3.926 1.323-6.035 5.578-4.712 9.503 4.031 11.956 7.358 25.911 9.891 41.475.599 3.681 3.781 6.297 7.394 6.297.398 0 .805-.031 1.212-.098zm-38.055 35.264v-42.667c0-4.142-3.357-7.5-7.5-7.5s-7.5 3.358-7.5 7.5v42.667c0 4.142 3.357 7.5 7.5 7.5s7.5-3.358 7.5-7.5z"/><path d="m422.282 282.422c-1.117-3.988-5.251-6.317-9.245-5.2-3.988 1.117-6.316 5.255-5.2 9.244 2.295 8.198 3.719 17.188 4.205 26.423h15.017c-.505-10.611-2.124-20.988-4.777-30.467z"/><path d="m338.723 291.946c-.669 0-1.35-.09-2.026-.28-3.988-1.117-6.316-5.256-5.2-9.245 1.517-5.416 3.371-10.561 5.511-15.291 1.706-3.773 6.148-5.45 9.924-3.743 3.774 1.707 5.45 6.15 3.742 9.924-1.827 4.041-3.419 8.466-4.731 13.154-.929 3.314-3.941 5.481-7.22 5.481z"/><path d="m376.889 291.944c-4.143 0-7.5-3.358-7.5-7.5v-14.222c0-4.142 3.357-7.5 7.5-7.5s7.5 3.358 7.5 7.5v14.222c0 4.142-3.357 7.5-7.5 7.5z"/></g><path d="m272.74 462.613c-.625 0-1.261-.079-1.894-.244-4.009-1.043-6.413-5.139-5.369-9.147 6.331-24.331 5.722-49.834-1.718-71.812-1.327-3.923.776-8.181 4.7-9.508 3.925-1.329 8.181.776 9.509 4.7 8.365 24.717 9.085 53.27 2.024 80.398-.877 3.375-3.92 5.613-7.252 5.613zm-80.663 15.556c3.746-1.768 5.35-6.238 3.581-9.984-9.481-20.089-12.61-44.466-8.81-68.641.644-4.092-2.152-7.93-6.244-8.574-4.102-.646-7.932 2.153-8.574 6.245-4.262 27.113-.688 54.591 10.063 77.372 1.279 2.712 3.976 4.301 6.787 4.301 1.073.001 2.162-.231 3.197-.719zm42.979-37.28v-42.667c0-4.142-3.357-7.5-7.5-7.5s-7.5 3.358-7.5 7.5v42.667c0 4.142 3.357 7.5 7.5 7.5s7.5-3.358 7.5-7.5zm182.693-.677c2.929-2.929 2.929-7.678-.001-10.606l-14.223-14.222c-2.928-2.93-7.677-2.929-10.606 0s-2.929 7.678.001 10.606l14.223 14.222c1.464 1.465 3.384 2.197 5.303 2.197s3.838-.733 5.303-2.197z" fill="#fec165"/><path d="m275.033 372.771c2.447 8.301 3.76 17.088 3.76 26.181 0 15.865-3.997 30.797-11.038 43.843-.62 3.491-1.379 6.971-2.278 10.428-1.044 4.008 1.36 8.104 5.369 9.147.633.165 1.269.244 1.894.244 3.332 0 6.375-2.238 7.253-5.613 7.061-27.129 6.341-55.682-2.024-80.398-.552-1.63-1.608-2.946-2.936-3.832z" fill="#fdb441"/></g></svg>