<svg id="Flat" viewBox="0 0 64 64" xmlns="http://www.w3.org/2000/svg" width="300" height="300" version="1.1" xmlns:xlink="http://www.w3.org/1999/xlink" xmlns:svgjs="http://svgjs.dev/svgjs"><g width="100%" height="100%" transform="matrix(1,0,0,1,0,0)"><path d="m24 39-.219 1.533a12.129 12.129 0 0 1 -5.417 8.467l.636 7h-4l-1-11" fill="#844a20" fill-opacity="1" data-original-color="#e6f3ffff" stroke="none" stroke-opacity="1"/><path d="m15 59h6l-2-3h-4z" fill="#5b2a0a" fill-opacity="1" data-original-color="#b26552ff" stroke="none" stroke-opacity="1"/><path d="m41 59h6l-2-3h-4z" fill="#5b2a0a" fill-opacity="1" data-original-color="#b26552ff" stroke="none" stroke-opacity="1"/><path d="m47.346 38-4.346 11 2 7h-4l-2-7v-9z" fill="#844a20" fill-opacity="1" data-original-color="#e6f3ffff" stroke="none" stroke-opacity="1"/><path d="m3.25 39h-1.5v-9a11.763 11.763 0 0 1 11.75-11.75h4v1.5h-4a10.261 10.261 0 0 0 -10.25 10.25z" fill="#844a20" fill-opacity="1" data-original-color="#e6f3ffff" stroke="none" stroke-opacity="1"/><path d="m2.5 37.25c-1.026 0-2.25.477-2.25 2.75 0 1.268.533 4.75 2.25 4.75s2.25-3.482 2.25-4.75c0-2.273-1.224-2.75-2.25-2.75z" fill="#562100" fill-opacity="1" data-original-color="#4a5c7cff" stroke="none" stroke-opacity="1"/><path d="m17 42h25a10 10 0 0 0 10-10v-18l-2.285 1.143a30 30 0 0 1 -20.288 2.369l-4.807-1.131a14.354 14.354 0 0 0 -3.284-.381 14.335 14.335 0 0 0 -14.336 14.336 31.762 31.762 0 0 0 1.34 9.131l1.66 5.533" fill="#f2d6bb" fill-opacity="1" data-original-color="#f8fbffff" stroke="none" stroke-opacity="1"/><path d="m39 18.181v3.819h3.848a6.159 6.159 0 0 0 6.152-6.152v-.367a29.969 29.969 0 0 1 -10 2.7z" fill="#844a20" fill-opacity="1" data-original-color="#e6f3ffff" stroke="none" stroke-opacity="1"/><path d="m49.715 15.143a30.059 30.059 0 0 1 -6.266 2.3l1.551 7.757v1.8a5.006 5.006 0 0 0 5 5h2v-18z" fill="#844a20" fill-opacity="1" data-original-color="#e6f3ffff" stroke="none" stroke-opacity="1"/><g fill="#4a5c7c"><path d="m30.24 17.685a3.825 3.825 0 0 0 -.24 1.315 4 4 0 0 0 4 4 3 3 0 1 0 3.819-2.873 3.961 3.961 0 0 0 .181-1.127 3.762 3.762 0 0 0 -.082-.741 30 30 0 0 1 -7.678-.574z" fill="#562100" fill-opacity="1" data-original-color="#4a5c7cff" stroke="none" stroke-opacity="1"/><path d="m46.012 5a6.1 6.1 0 0 0 4.1 11.276 10.814 10.814 0 0 1 -4.1-11.276z" fill="#562100" fill-opacity="1" data-original-color="#4a5c7cff" stroke="none" stroke-opacity="1"/><path d="m57.988 5a6.1 6.1 0 0 1 -4.1 11.276 10.814 10.814 0 0 0 4.1-11.276z" fill="#562100" fill-opacity="1" data-original-color="#4a5c7cff" stroke="none" stroke-opacity="1"/></g><path d="m45.153 14h1.847a0 0 0 0 1 0 0v1.847a4.153 4.153 0 0 1 -4.153 4.153h-1.847a0 0 0 0 1 0 0v-1.847a4.153 4.153 0 0 1 4.153-4.153z" fill="#f2d6bb" fill-opacity="1" data-original-color="#f8fbffff" stroke="none" stroke-opacity="1"/><path d="m57 14h1.848a4.153 4.153 0 0 1 4.152 4.153v1.847a0 0 0 0 1 0 0h-1.847a4.153 4.153 0 0 1 -4.153-4.153v-1.847a0 0 0 0 1 0 0z" fill="#844a20" fill-opacity="1" data-original-color="#e6f3ffff" stroke="none" stroke-opacity="1"/><path d="m57 25 1.8-9.019a5 5 0 0 0 -4.9-5.981h-3.8a5 5 0 0 0 -4.9 5.981l1.8 9.019z" fill="#f2d6bb" fill-opacity="1" data-original-color="#f8fbffff" stroke="none" stroke-opacity="1"/><path d="m57 25a7.25 7.25 0 0 0 -10 0v2a3 3 0 0 0 3 3h4a3 3 0 0 0 3-3z" fill="#e0985e" fill-opacity="1" data-original-color="#ffdcbdff" stroke="none" stroke-opacity="1"/><path d="m49 17.75a.75.75 0 0 1 -.75-.75v-1a.75.75 0 0 1 1.5 0v1a.75.75 0 0 1 -.75.75z" fill="#562100" fill-opacity="1" data-original-color="#4a5c7cff" stroke="none" stroke-opacity="1"/><path d="m55 17.75a.75.75 0 0 1 -.75-.75v-1a.75.75 0 0 1 1.5 0v1a.75.75 0 0 1 -.75.75z" fill="#562100" fill-opacity="1" data-original-color="#4a5c7cff" stroke="none" stroke-opacity="1"/><circle cx="53.5" cy="27" fill="#683e24" r=".75" fill-opacity="1" data-original-color="#ffc9a4ff" stroke="none" stroke-opacity="1"/><circle cx="50.5" cy="27" fill="#683e24" r=".75" fill-opacity="1" data-original-color="#ffc9a4ff" stroke="none" stroke-opacity="1"/><g fill="#4a5c7c"><path d="m32 40a3.961 3.961 0 0 0 -.181-1.127 2.994 2.994 0 1 0 -3.819-2.873 4 4 0 0 0 -4 4 3.955 3.955 0 0 0 .555 2h6.89a3.955 3.955 0 0 0 .555-2z" fill="#562100" fill-opacity="1" data-original-color="#4a5c7cff" stroke="none" stroke-opacity="1"/><path d="m21 23a5 5 0 0 0 5-5 4.932 4.932 0 0 0 -.206-1.343l-1.174-.276a14.256 14.256 0 0 0 -8.52.619 5 5 0 0 0 4.9 6z" fill="#562100" fill-opacity="1" data-original-color="#4a5c7cff" stroke="none" stroke-opacity="1"/><path d="m12.907 29.155a3.965 3.965 0 0 0 -5.307-2.888 14.315 14.315 0 0 0 -.6 4.069 31.787 31.787 0 0 0 .182 3.208 3.773 3.773 0 0 0 2.537.383 2.99 2.99 0 1 0 3.188-4.772z" fill="#562100" fill-opacity="1" data-original-color="#4a5c7cff" stroke="none" stroke-opacity="1"/></g><path d="m21.266 40.745.219-1.533a.75.75 0 1 0 -1.485-.212l-.219 1.533a12.068 12.068 0 0 1 -.314 1.467h1.552c.1-.413.186-.831.247-1.255z" fill="#a36f4d" fill-opacity="1" data-original-color="#d0e7f7ff" stroke="none" stroke-opacity="1"/><path d="m20 39-.219 1.533a12.129 12.129 0 0 1 -5.417 8.467l.636 7h-4l-1-11" fill="#f2d6bb" fill-opacity="1" data-original-color="#f8fbffff" stroke="none" stroke-opacity="1"/><path d="m11 59h6l-2-3h-4z" fill="#d88e57" fill-opacity="1" data-original-color="#be7864ff" stroke="none" stroke-opacity="1"/><path d="m37 59h6l-2-3h-4z" fill="#d88e57" fill-opacity="1" data-original-color="#be7864ff" stroke="none" stroke-opacity="1"/><path d="m35 42v-1.25a.75.75 0 0 0 -.75-.75.75.75 0 0 0 -.75.75v1.25z" fill="#a36f4d" fill-opacity="1" data-original-color="#d0e7f7ff" stroke="none" stroke-opacity="1"/><path d="m35 40v9l2 7h4l-2-7 3.556-9" fill="#f2d6bb" fill-opacity="1" data-original-color="#f8fbffff" stroke="none" stroke-opacity="1"/></g></svg>