<svg width="512" height="512" viewBox="0 0 512 512" fill="none" xmlns="http://www.w3.org/2000/svg">
<path d="M458.76 155.238L490.291 214.51C490.291 214.51 512.001 196.246 512.001 182.979C512.001 174.708 497.872 158.684 458.76 155.238Z" fill="#DFDDE0"/>
<path d="M471.165 311.173L418.958 306.004L460.898 388.385C461.849 390.254 462.055 392.414 461.474 394.429L443.49 456.783C442.422 460.484 445.2 464.177 449.053 464.177H473.687C476.659 464.177 479.148 461.927 479.447 458.971L486.514 389.185C486.962 384.761 486.694 380.294 485.719 375.955L471.165 311.173Z" fill="#9C969E"/>
<path d="M188.073 324.958L197.397 359.978C198.528 364.226 199.101 368.603 199.101 372.999V419.396C199.101 421.658 198.637 423.897 197.737 425.973L184.687 456.087C183.03 459.91 185.833 464.178 189.999 464.178H217.225C220.228 464.178 222.732 461.882 222.993 458.89L234.939 321.512L188.073 324.958Z" fill="#9C969E"/>
<path d="M361.064 142.317C340.106 146.049 237.006 164.372 185.316 101.826C134.089 39.8412 82.4523 39.2802 54.5393 60.2152C40.9483 70.4092 34.3803 88.6452 35.4143 101.826C37.2333 125.021 45.2773 140.42 63.3273 160.236C126.734 229.846 152.757 298.051 177.046 324.268C220.466 371.134 259.363 317.247 259.678 308.683C301.104 327.714 353.897 326.986 409.432 309.927C414.95 308.231 420.752 321.963 435.844 333.571C444.804 340.463 453.473 339.889 462.895 337.534C474.095 334.734 483.375 330.086 485.657 318.769C489.728 298.572 495.461 253.936 495.461 232.602C495.46 132.668 411.376 133.357 361.064 142.317Z" fill="#FFFDF8"/>
<path d="M155.68 238.807C124.804 150.296 85.0363 130.602 83.3133 92.0055C81.8503 59.2295 119.152 52.7205 137.99 60.5445C104.183 41.5895 73.7453 45.8115 54.5393 60.2155C40.9483 70.4085 34.3803 88.6455 35.4143 101.827C37.2333 125.022 45.2773 140.421 63.3273 160.237C126.734 229.847 152.757 298.052 177.046 324.269C197.068 345.88 216.116 346.049 230.875 339.136C194.093 336.412 176.356 298.079 155.68 238.807Z" fill="#DFDDE0"/>
<path d="M117.093 86.8888C117.54 83.4018 114.883 80.3428 111.369 80.2318C94.9088 79.7098 80.2108 84.4238 80.2108 84.4238C53.3318 76.1528 40.5808 92.0048 40.5808 92.0048L2.5238 145.285C0.323801 148.365 -0.492199 152.204 0.290801 155.907C1.6948 162.554 4.5918 172.685 9.5668 175.399C17.7208 179.847 53.3498 171.579 67.6718 167.987C72.9328 166.667 77.7008 163.72 80.9038 159.343C85.9178 152.491 91.5298 139.93 90.5498 118.539C111.202 107.755 116.116 94.5258 117.093 86.8888Z" fill="#9C969E"/>
<path d="M62.6441 121.21H62.5591C57.9921 121.21 54.2881 117.507 54.2881 112.939C54.2881 108.371 57.9911 104.668 62.5591 104.668C67.1271 104.668 70.8701 108.371 70.8701 112.939C70.8701 117.507 67.2111 121.21 62.6441 121.21Z" fill="#4B3F4E"/>
<path d="M117.093 86.887C117.236 85.767 116.972 84.742 116.549 83.793C109.283 84.479 97.67 87.08 88.064 95.211C86.682 96.38 86.189 98.319 86.785 100.028C87.915 103.266 89.661 109.436 90.549 118.538C111.202 107.753 116.116 94.524 117.093 86.887Z" fill="#867E88"/>
<path d="M16.1458 126.215L2.52478 145.285C0.324778 148.365 -0.491222 152.204 0.291778 155.907C1.69578 162.554 4.59278 172.685 9.56778 175.399C14.7968 178.251 31.3098 175.872 46.2698 172.853C47.8188 146.021 24.0408 142.316 16.1458 126.215Z" fill="#867E88"/>
<path d="M11.7279 152.67C10.7439 149.365 5.83495 147.947 0.629946 149.304C-0.00605392 151.431 -0.178054 153.684 0.291946 155.907C0.685946 157.774 1.21295 159.918 1.85595 162.093C2.50295 161.986 3.12695 161.973 3.78695 161.776C9.19095 160.167 12.7459 156.09 11.7279 152.67Z" fill="#6F6571"/>
<path d="M189.999 464.177H217.225C220.228 464.177 222.733 461.881 222.993 458.889L224.617 440.206L195.848 430.328L184.686 456.086C183.03 459.908 185.833 464.177 189.999 464.177Z" fill="#5D5360"/>
<path d="M451.105 430.383L443.49 456.784C442.423 460.485 445.201 464.178 449.053 464.178H473.687C476.659 464.178 479.147 461.928 479.447 458.972L481.478 438.92L451.105 430.383Z" fill="#5D5360"/>
<path d="M409.432 309.926C410.866 309.485 412.329 310.121 413.96 311.457C413.979 311.443 414.001 311.429 414.02 311.415C405.001 298.249 401.211 272.748 345.902 278.434C306.351 282.5 281.288 273.734 272.846 279.812C266.385 284.464 265.437 295.147 259.678 308.681C301.103 327.712 353.897 326.985 409.432 309.926Z" fill="#DFDDE0"/>
</svg>
