<svg width="512" height="512" viewBox="0 0 512 512" fill="none" xmlns="http://www.w3.org/2000/svg">
<g clip-path="url(#clip0_660_8190)">
<path d="M329.445 256L256 402.891H164.656C134.031 402.891 109.109 377.969 109.109 347.344V164.656C109.109 134.031 134.031 109.109 164.656 109.109H256L329.445 256Z" fill="#1AC278"/>
<path d="M402.891 164.656V347.344C402.891 377.969 377.969 402.891 347.344 402.891H256V109.109H347.344C377.969 109.109 402.891 134.031 402.891 164.656Z" fill="#1D8164"/>
<path d="M493 415.234C482.775 415.234 474.484 423.524 474.484 433.75V448.3L446.842 420.657C439.612 413.427 427.888 413.427 420.657 420.657C413.426 427.887 413.426 439.611 420.657 446.842L448.3 474.484H433.75C423.525 474.484 415.234 482.774 415.234 493C415.234 503.226 423.525 511.516 433.75 511.516H493C503.226 511.516 511.516 503.226 511.516 493V433.75C511.516 423.524 503.226 415.234 493 415.234Z" fill="#12CA79"/>
<path d="M78.25 474.484H63.7004L91.343 446.842C98.574 439.612 98.574 427.888 91.343 420.657C84.1133 413.427 72.3892 413.427 65.1582 420.657L37.5156 448.3V433.75C37.5156 423.524 29.2256 415.234 19 415.234C8.77444 415.234 0.484375 423.524 0.484375 433.75V493C0.484375 503.226 8.77444 511.516 19 511.516H78.25C88.4756 511.516 96.7656 503.226 96.7656 493C96.7656 482.774 88.4756 474.484 78.25 474.484Z" fill="#12CA79"/>
<path d="M78.2505 0.482422H19.0005C8.77493 0.482422 0.484863 8.77248 0.484863 18.998V78.248C0.484863 88.4736 8.77493 96.7637 19.0005 96.7637C29.2261 96.7637 37.5161 88.4736 37.5161 78.248V63.6985L65.1587 91.3411C68.773 94.9553 73.5117 96.7637 78.2505 96.7637C82.9893 96.7637 87.728 94.9553 91.3423 91.3398C98.5732 84.1101 98.5732 72.386 91.3423 65.155L63.7009 37.5137H78.2505C88.4761 37.5137 96.7661 29.2236 96.7661 18.998C96.7661 8.77248 88.4761 0.482422 78.2505 0.482422Z" fill="#12CA79"/>
<path d="M493 0.482422H433.75C423.525 0.482422 415.234 8.77248 415.234 18.998C415.234 29.2236 423.525 37.5137 433.75 37.5137H448.3L420.657 65.1563C413.426 72.386 413.426 84.1101 420.657 91.3411C424.273 94.9553 429.011 96.7637 433.75 96.7637C438.489 96.7637 443.228 94.9553 446.842 91.3398L474.484 63.6985V78.248C474.484 88.4736 482.775 96.7637 493 96.7637C503.226 96.7637 511.516 88.4736 511.516 78.248V18.998C511.516 8.77248 503.226 0.482422 493 0.482422Z" fill="#12CA79"/>
</g>
<defs>
<clipPath id="clip0_660_8190">
<rect width="512" height="512" fill="white"/>
</clipPath>
</defs>
</svg>
