<svg height="512" viewBox="0 0 58 58" width="512" xmlns="http://www.w3.org/2000/svg"><g id="Page-1" fill="none" fill-rule="evenodd"><g id="050---Bouncy-Mattress"><path id="Path" d="m58 45.16v10.84c-.0032948 1.1032019-.8967981 1.9967052-2 2h-54c-1.10320187-.0032948-1.9967052-.8967981-2-2v-10.84c.00182401-.3927379.05905481-.783254.17-1.16l28.83-2 28.83 2c.1109452.376746.168176.7672621.17 1.16z" fill="#f3d55b"/><path id="Path" d="m57.83 44h-57.66c.10223739-.3465526.25378907-.6765985.45-.98l10.79-17.09c.3679277-.5778622 1.0049504-.9284131 1.69-.93h31.8c.6850496.0015869 1.3220723.3521378 1.69.93l10.79 17.09c.1962109.3034015.3477626.6334474.45.98z" fill="#f9eab0"/><path id="Path" d="m58 47v2h-47c-.5522847 0-1-.4477153-1-1s.4477153-1 1-1z" fill="#f0c419"/><path id="Path" d="m7 48c0 .5522847-.44771525 1-1 1h-6v-2h6c.55228475 0 1 .4477153 1 1z" fill="#f0c419"/><g fill="#e4c05c"><circle id="Oval" cx="16" cy="29" r="1"/><circle id="Oval" cx="24" cy="34" r="1"/><circle id="Oval" cx="23" cy="39" r="1"/><circle id="Oval" cx="14" cy="34" r="1"/><circle id="Oval" cx="12" cy="39" r="1"/><circle id="Oval" cx="42" cy="29" r="1"/><circle id="Oval" cx="34" cy="34" r="1"/><circle id="Oval" cx="35" cy="39" r="1"/><circle id="Oval" cx="44" cy="34" r="1"/><circle id="Oval" cx="46" cy="39" r="1"/></g><path id="Path" d="m28.807 19.588-6 8c-.1881545.2589567-.4889052.4121914-.809.4121914s-.6208455-.1532347-.809-.4121914l-6-8c-.2213666-.3045132-.2529507-.7075476-.0817218-1.0428268.1712288-.3352791.5162503-.5459791.8927218-.5451732h3v-17c0-.55228475.4477153-1 1-1h4c.5522847 0 1 .44771525 1 1v17h3c.3757518.0006988.7193974.2119766.8896292.5469557.1702319.3349792.1383139.7371133-.0826292 1.0410443z" fill="#ff5364"/><path id="Path" d="m42.807 8.412-6-8c-.1881545-.25895671-.4889052-.41219136-.809-.41219136s-.6208455.15323465-.809.41219136l-6 8c-.2213666.30451316-.2529507.70754759-.0817218 1.04282677.1712288.33527918.5162503.54597913.8927218.54517323h3v17c0 .5522847.4477153 1 1 1h4c.5522847 0 1-.4477153 1-1v-17h3c.3757518-.00069878.7193974-.21197659.8896292-.54695574.1702319-.33497914.1383139-.73711325-.0826292-1.04104426z" fill="#df4d60"/></g></g></svg>