<svg id="Capa_1" enable-background="new 0 0 504.499 504.499" height="512" viewBox="0 0 504.499 504.499" width="512" xmlns="http://www.w3.org/2000/svg"><g><path d="m170.998 359.999v121.592l-24.87 8.29c-3.93 1.31-6.053 5.557-4.744 9.487 1.31 3.93 5.559 6.054 9.487 4.744l29.998-10c3.063-1.021 5.128-3.887 5.128-7.115v-126.998z" fill="#a45e43"/><path d="m245.998 359.999v121.592l24.87 8.29c3.93 1.31 6.053 5.557 4.744 9.487-1.31 3.93-5.559 6.054-9.487 4.744l-29.998-10c-3.063-1.021-5.128-3.887-5.128-7.115v-126.998z" fill="#85453d"/><path d="m93.5 227.5c4.142 0 7.5 3.358 7.5 7.5 0 34.462 28.038 62.5 62.5 62.5h30v15s-25.858 0-30 0c-42.733 0-77.5-34.767-77.5-77.5 0-4.142 3.358-7.5 7.5-7.5z" fill="#ff8646"/><path d="m328.5 390 90 60v47h-30z" fill="#4f4f4f"/><path d="m388.5 390-90 60v47h90z" fill="#696969"/><path d="m418.5 450h-30l-45-225 45-225h30z" fill="#ffa754"/><path d="m388.5 450h-90v-22.5l7.5-7.5-7.5-7.5v-15l7.5-7.5-7.5-7.5v-15l7.5-7.5-7.5-7.5v-15l7.5-7.5-7.5-7.5v-15l7.5-7.5-7.5-7.5v-15l7.5-7.5-7.5-7.5v-15l7.5-7.5-7.5-7.5v-15l7.5-7.5-7.5-7.5v-15l7.5-7.5-7.5-7.5v-15l7.5-7.5-7.5-7.5v-15l7.5-7.5-7.5-7.5v-15l7.5-7.5-7.5-7.5v-15l7.5-7.5-7.5-7.5v-15l7.5-7.5-7.5-7.5v-22.5h90z" fill="#ffcb63"/><path d="m208.5 327.429 15 60v17.571c0 8.284 6.716 15 15 15s15-6.716 15-15v-47.571z" fill="#ccc"/><path d="m163.5 357.429v47.571c0 8.284 6.716 15 15 15s15-6.716 15-15v-17.571c4.693 1.659 9.739 2.571 15 2.571s10.307-.912 15-2.571v-60z" fill="#ebebeb"/><path d="m253.5 305c0-11.046-8.954-20-20-20h-30l20 72.429h30z" fill="#ff6337"/><path d="m223.5 305c0-11.046-8.954-20-20-20h-20c-11.046 0-20 8.954-20 20v52.429h60z" fill="#ff8646"/><path d="m236.783 175.008h-28.283v79.992c24.853 0 45-20.147 45-45 0-14.135-6.523-26.742-16.717-34.992z" fill="#85453d"/><path d="m222.201 191.686-41.984-16.678c-10.195 8.25-16.717 20.857-16.717 34.992 0 24.853 20.147 45 45 45 8.284 0 15-20.147 15-45 0-6.524-.467-12.718-1.299-18.314z" fill="#a45e43"/><path d="m208.5 165v26.686h13.701c6.754-3.473 12.02-9.436 14.583-16.678-7.73-6.255-17.567-10.008-28.284-10.008z" fill="#60312c"/><path d="m208.5 165c-10.718 0-20.554 3.753-28.283 10.008 4.121 11.646 15.225 19.992 28.283 19.992 4.938 0 9.593-1.2 13.701-3.314-2.339-15.722-7.592-26.686-13.701-26.686z" fill="#85453d"/><g fill="#ffa754"><path d="m358.5 292.5h-60v15h60c4.142 0 7.5-3.357 7.5-7.5s-3.358-7.5-7.5-7.5z"/><path d="m328.5 322.5h-30v15h30c4.142 0 7.5-3.357 7.5-7.5s-3.358-7.5-7.5-7.5z"/><path d="m328.5 382.5h-30v15h30c4.142 0 7.5-3.357 7.5-7.5s-3.358-7.5-7.5-7.5z"/><path d="m328.5 412.5h-30v15h30c4.142 0 7.5-3.357 7.5-7.5s-3.358-7.5-7.5-7.5z"/><path d="m328.5 352.5h-30v15h30c4.142 0 7.5-3.357 7.5-7.5s-3.358-7.5-7.5-7.5z"/><path d="m336 30c0-4.143-3.358-7.5-7.5-7.5h-30v15h30c4.142 0 7.5-3.357 7.5-7.5z"/><path d="m336 60c0-4.143-3.358-7.5-7.5-7.5h-30v15h30c4.142 0 7.5-3.357 7.5-7.5z"/><path d="m336 90c0-4.143-3.358-7.5-7.5-7.5h-30v15h30c4.142 0 7.5-3.357 7.5-7.5z"/><path d="m336 120c0-4.143-3.358-7.5-7.5-7.5h-30v15h30c4.142 0 7.5-3.357 7.5-7.5z"/><path d="m366 150c0-4.143-3.358-7.5-7.5-7.5h-60v15h60c4.142 0 7.5-3.357 7.5-7.5z"/><path d="m336 180c0-4.143-3.358-7.5-7.5-7.5h-30v15h30c4.142 0 7.5-3.357 7.5-7.5z"/><path d="m336 210c0-4.143-3.358-7.5-7.5-7.5h-30v15h30c4.142 0 7.5-3.357 7.5-7.5z"/><path d="m336 240c0-4.143-3.358-7.5-7.5-7.5h-30v15h30c4.142 0 7.5-3.357 7.5-7.5z"/><path d="m336 270c0-4.143-3.358-7.5-7.5-7.5h-30v15h30c4.142 0 7.5-3.357 7.5-7.5z"/></g></g></svg>