<svg id="Capa_1" enable-background="new 0 0 512 512" height="512" viewBox="0 0 512 512" width="512" xmlns="http://www.w3.org/2000/svg"><path d="m412.903 24.774h16.516v132.129h-16.516z" fill="#ecbd83"/><path d="m478.968 24.774h16.516v132.129h-16.516z" fill="#ecbd83"/><circle cx="421.161" cy="16.516" fill="#f6d190" r="16.516"/><circle cx="487.226" cy="16.516" fill="#f6d190" r="16.516"/><path d="m465.023 132.168c-28.063-.852-53.099 12.301-68.641 32.992l-11.048 53.173.333 114-319.602 113.602-37.87 37.869c-10.405 10.405-3.036 28.196 11.678 28.196h315.223c68.412 0 123.871-55.459 123.871-123.871v-117.86c0-19.712 7.83-38.616 21.769-52.554l6.426-6.426c3.097-3.097 4.837-7.298 4.837-11.679v-17.934c.001-26.362-20.625-48.707-46.976-49.508z" fill="#f6d190"/><path d="m338.581 445.935c31.926 0 57.806-25.881 57.806-57.806v-222.964c-10.326 13.786-16.516 30.995-16.516 49.545v107.355l-297.29 107.354-16.516 16.516z" fill="#ecbd83"/><path d="m379.205 305.96c-7.67-92.939-83.895-167.578-176.965-173.443-53.13-3.348-101.933 15.161-138.283 47.4-39.232 34.796-57.624 85.584-57.624 142.148 0 30.616 7.257 59.529 20.131 85.137 6.918 13.761 14.93 15.798 30.333 15.798h266.253l33.151-10.095c1.379-1.855 2.609-3.845 3.666-5.956 15.025-29.997 22.348-64.518 19.338-100.989z" fill="#e2a975"/><path d="m327.632 377.762c10.078-24.734 13.809-52.708 8.611-82.098-11.444-64.698-65.764-115.02-131.147-121.492-88.902-8.8-163.806 60.799-163.806 147.893 0 19.719 3.937 38.485 10.943 55.684 2.551 6.263 8.63 10.38 15.392 10.38h244.619c6.759 0 12.838-4.109 15.388-10.367z" fill="#e5646e"/><path d="m319.979 298.54c-10.219-57.77-58.13-102.154-116.511-107.933-4.502-.446-9.055-.672-13.533-.672-72.856 0-132.129 59.273-132.129 132.129 0 12.824 1.867 25.456 5.562 37.696 2.108 6.983 8.588 11.759 15.882 11.762l221.308.085c7.267.003 13.741-4.737 15.868-11.686 6.078-19.853 7.259-40.43 3.553-61.381z" fill="#ff8086"/><path d="m232.766 340.218c-.613 0-1.242-.065-1.863-.21l-140.419-32.419c-4.444-1.024-7.218-5.46-6.194-9.903 1.032-4.444 5.492-7.234 9.903-6.194l140.419 32.419c4.444 1.024 7.218 5.46 6.194 9.903-.887 3.823-4.282 6.404-8.04 6.404z" fill="#fff"/><circle cx="189.935" cy="322.065" fill="#f6d190" r="16.516"/><g fill="#5d5360"><path d="m66.065 330.323h-8.258c-4.565 0-8.258-3.694-8.258-8.258s3.694-8.258 8.258-8.258h8.258c4.565 0 8.258 3.694 8.258 8.258s-3.694 8.258-8.258 8.258z"/><path d="m322.065 330.323h-8.258c-4.565 0-8.258-3.694-8.258-8.258s3.694-8.258 8.258-8.258h8.258c4.565 0 8.258 3.694 8.258 8.258s-3.694 8.258-8.258 8.258z"/><path d="m189.935 206.452c-4.565 0-8.258-3.694-8.258-8.258v-8.258c0-4.565 3.694-8.258 8.258-8.258s8.258 3.694 8.258 8.258v8.258c.001 4.564-3.693 8.258-8.258 8.258z"/><path d="m102.347 242.734c-2.113 0-4.226-.806-5.839-2.419l-5.839-5.839c-3.226-3.226-3.226-8.452 0-11.677 3.226-3.226 8.452-3.226 11.677 0l5.839 5.839c3.226 3.226 3.226 8.452 0 11.677-1.612 1.612-3.725 2.419-5.838 2.419z"/><path d="m277.524 242.734c-2.113 0-4.226-.806-5.839-2.419-3.226-3.226-3.226-8.452 0-11.677l5.839-5.839c3.226-3.226 8.452-3.226 11.677 0 3.226 3.226 3.226 8.452 0 11.677l-5.839 5.839c-1.612 1.612-3.725 2.419-5.838 2.419z"/><path d="m304.379 282.919c-3.234 0-6.315-1.919-7.629-5.097-1.742-4.21.258-9.048 4.468-10.79l7.629-3.161c4.194-1.726 9.048.258 10.79 4.468s-.258 9.048-4.468 10.79l-7.629 3.161c-1.032.428-2.105.629-3.161.629z"/><path d="m142.532 215.879c-3.234 0-6.315-1.919-7.629-5.097l-3.161-7.629c-1.742-4.21.258-9.048 4.468-10.79 4.202-1.726 9.04.25 10.79 4.468l3.161 7.629c1.742 4.21-.258 9.048-4.468 10.79-1.032.427-2.104.629-3.161.629z"/><path d="m75.492 282.919c-1.056 0-2.129-.202-3.161-.629l-7.629-3.161c-4.21-1.742-6.21-6.581-4.468-10.79s6.597-6.202 10.79-4.468l7.629 3.161c4.21 1.742 6.21 6.581 4.468 10.79-1.315 3.178-4.395 5.097-7.629 5.097z"/><path d="m237.339 215.879c-1.056 0-2.129-.202-3.161-.629-4.21-1.742-6.21-6.581-4.468-10.79l3.161-7.629c1.742-4.218 6.589-6.202 10.79-4.468 4.21 1.742 6.21 6.581 4.468 10.79l-3.161 7.629c-1.315 3.178-4.395 5.097-7.629 5.097z"/></g><path d="m73.313 412.903c-15.403 0-29.748-8.457-36.667-22.219-12.873-25.607-20.13-54.52-20.13-85.136 0-48.166 17.893-92.149 47.441-125.63-39.244 34.795-63.957 85.573-63.957 142.147 0 30.616 7.257 59.529 20.131 85.137 6.918 13.762 21.263 22.218 36.666 22.218h266.253c13.128 0 25.468-6.213 33.151-16.517z" fill="#d19a6e"/></svg>