<svg width="512" height="512" viewBox="0 0 512 512" fill="none" xmlns="http://www.w3.org/2000/svg">
<g clip-path="url(#clip0_660_8168)">
<path d="M256 180C214.6 180 180 214.6 180 256C180 297.4 214.6 332 256 332C297.4 332 332 297.4 332 256C332 214.6 297.4 180 256 180Z" fill="#DE4343"/>
<path d="M507.499 486.5L486.5 507.499C480.5 513.499 470.899 513.499 465.199 507.499C436.398 479 414.499 456.799 385.698 428.3L357.498 456.5C353.299 460.699 346.999 461.9 341.299 459.499C335.599 457.399 331.999 451.999 331.999 445.698V347C331.999 342.8 333.799 339.2 336.199 336.2C339.198 333.799 342.798 332 346.999 332H445.698C451.999 332 457.398 335.6 459.499 341.3C461.9 347 460.698 353.301 456.5 357.499L428.3 385.699C456.799 414.5 479 436.399 507.499 465.2C513.499 470.9 513.499 480.5 507.499 486.5Z" fill="#FF5F5F"/>
<path d="M180 346.999V445.698C180 451.999 176.4 457.398 170.7 459.499C165 461.9 158.699 460.698 154.501 456.5L126.301 428.3C97.5 456.798 75.6 478.999 46.799 507.498C41.099 513.498 31.499 513.498 25.498 507.498L4.5 486.499C-1.5 480.499 -1.5 470.898 4.5 465.198C32.999 436.397 55.2 414.498 83.699 385.697L55.499 357.497C51.3 353.299 50.099 346.999 52.5 341.298C54.6 335.598 60 331.998 66.301 331.998H165C169.2 331.998 172.8 333.798 175.8 336.198C178.2 339.198 180 342.798 180 346.999Z" fill="#FF5F5F"/>
<path d="M507.499 46.799C479 75.6 456.799 97.5 428.3 126.3L456.5 154.5C460.699 158.699 461.9 164.999 459.499 170.699C457.399 176.399 451.999 179.999 445.698 179.999H347C342.8 179.999 339.2 178.199 336.2 175.799C333.799 172.8 332 169.2 332 164.999V66.3C332 59.999 335.6 54.6 341.3 52.499C347 50.098 353.301 51.3 357.499 55.498L385.699 83.698C414.5 55.2 436.399 32.999 465.2 4.5C470.9 -1.5 480.5 -1.5 486.501 4.5L507.5 25.499C513.499 31.499 513.499 41.099 507.499 46.799Z" fill="#FF5F5F"/>
<path d="M180 66.3V165C180 169.2 178.2 172.8 175.8 175.8C172.8 178.2 169.2 180 165 180H66.3C59.999 180 54.6 176.4 52.499 170.7C50.098 165 51.3 158.699 55.498 154.501L83.698 126.301C55.2 97.5 32.999 75.6 4.5 46.799C-1.5 41.099 -1.5 31.499 4.5 25.498L25.499 4.5C31.499 -1.5 41.1 -1.5 46.8 4.5C75.6 32.999 97.5 55.2 126.3 83.699L154.5 55.499C158.699 51.3 165 50.099 170.7 52.5C176.4 54.6 180 60 180 66.3Z" fill="#FF5F5F"/>
<path d="M332 256C332 297.4 297.4 332 256 332V180C297.4 180 332 214.599 332 256Z" fill="#BD2727"/>
</g>
<defs>
<clipPath id="clip0_660_8168">
<rect width="511.999" height="511.999" fill="white"/>
</clipPath>
</defs>
</svg>
