<svg height="512" viewBox="0 0 58 48" width="512" xmlns="http://www.w3.org/2000/svg"><g id="Page-1" fill="none" fill-rule="evenodd"><g id="012---Soft-Mattress" fill-rule="nonzero" transform="translate(0 -1)"><path id="Shape" d="m57.83 35-28.83 3-28.83-3c.10223739-.3465526.25378907-.6765985.45-.98l10.79-17.09c.3679277-.5778622 1.0049504-.9284131 1.69-.93h31.8c.6850496.0015869 1.3220723.3521378 1.69.93l10.79 17.09c.1962109.3034015.3477626.6334474.45.98z" fill="#f9eab0"/><g fill="#e4c05c"><circle id="Oval" cx="24" cy="25" r="1"/><circle id="Oval" cx="23" cy="30" r="1"/><circle id="Oval" cx="14" cy="25" r="1"/><circle id="Oval" cx="12" cy="30" r="1"/><circle id="Oval" cx="34" cy="25" r="1"/><circle id="Oval" cx="35" cy="30" r="1"/><circle id="Oval" cx="44" cy="25" r="1"/><circle id="Oval" cx="46" cy="30" r="1"/></g><path id="Shape" d="m58 36.16v10.84c-.0032948 1.1032019-.8967981 1.9967052-2 2h-54c-1.10320187-.0032948-1.9967052-.8967981-2-2v-10.84c.00182401-.3927379.05905481-.783254.17-1.16h57.66c.1109452.376746.168176.7672621.17 1.16z" fill="#f3d55b"/><path id="Shape" d="m58 38v2h-47c-.5522847 0-1-.4477153-1-1s.4477153-1 1-1z" fill="#f0c419"/><path id="Shape" d="m7 39c0 .5522847-.44771525 1-1 1h-6v-2h6c.55228475 0 1 .4477153 1 1z" fill="#f0c419"/><path id="Shape" d="m45.57 15.31c-1.9593446 1.8635546-4.1709959 3.4423437-6.57 4.69-1.4478696.787601-3.0834613 1.1645132-4.73 1.09-.7943366-.0465244-1.5720732-.246902-2.29-.59 0 0 0 .01-.01 0-3.514192 1.0477975-7.2762931.9036422-10.7-.41-.01 0-.01-.01-.02-.01-.7784017-.297564-1.5309498-.6587871-2.25-1.08-.9402445-.5642161-1.9575622-.98866-3.02-1.26-1.6122669-.4213113-3.2944853-.5030385-4.94-.24-.695449.0957349-1.37910198.2632969-2.04.5 0 0 .04-.28.16-.77.17033688-.7331368.38744781-1.4546132.65-2.16 1.1654467-3.2728693 3.3310077-6.09614521 6.19-8.07 2.0656134-1.35076723 4.6149026-1.74100176 6.99-1.07l.02-.01 2.64-1.02 2.35-.9s13-5 19 2c2.88 3.36 1.15 6.73-1.43 9.31z" fill="#b0d3f0"/><path id="Shape" d="m27.22 8.33c-1.2711975-1.01483399-2.6911958-1.82770711-4.21-2.41l2.64-1.02c1.014863.54456138 1.9758269 1.18408787 2.87 1.91.2715219.23222263.3985291.59166038.3331793.94291652s-.3131284.6409665-.65.76-.7116575.04930612-.9831793-.18291652z" fill="#84b5cb"/><path id="Shape" d="m36.07 18.75c-.5186421.8393352-1.1217812 1.6234161-1.8 2.34-.7943366-.0465244-1.5720732-.246902-2.29-.59.9333405-.8112501 1.7390591-1.7585595 2.39-2.81.2927109-.469442.910558-.6127109 1.38-.32s.6127109.910558.32 1.38z" fill="#84b5cb"/><path id="Shape" d="m26.845 14.312c-1.039409.011958-2.0763972-.1028898-3.088-.342-2.1090058-.5642753-4.3283596-.5715112-6.441-.021-.5246705.174522-1.091478-.1093295-1.266-.634s.1093295-1.091478.634-1.266c2.4740382-.6711633 5.0812709-.6784065 7.559-.021 4.605 1.153 14.747-1 28.166-10.837.2883133-.21114396.6673698-.2524357.9943825-.10832101.3270127.14411468.5523006.45174135.591.807s-.1150692.70417705-.4033825.91532101c-11.623 8.525-20.919 11.507-26.746 11.507z" fill="#84b5cb"/></g></g></svg>