<svg id="Capa_1" enable-background="new 0 0 504.5 504.5" height="512" viewBox="0 0 504.5 504.5" width="512" xmlns="http://www.w3.org/2000/svg"><g><path d="m241 285v196.592l-24.87 8.29c-3.93 1.31-6.053 5.557-4.744 9.487 1.31 3.93 5.559 6.054 9.487 4.744l29.998-10c3.063-1.021 5.128-3.887 5.128-7.115v-201.998z" fill="#116f97"/><path d="m316 285v196.592l24.87 8.29c3.93 1.31 6.053 5.557 4.744 9.487-1.31 3.93-5.559 6.054-9.487 4.744l-29.998-10c-3.063-1.021-5.128-3.887-5.128-7.115v-201.998z" fill="#084f6d"/><path d="m428.5 87.5c-4.143 0-7.5 3.357-7.5 7.5 0 45.49-37.01 82.5-82.5 82.5h-45v15h45c53.762 0 97.5-43.738 97.5-97.5 0-4.143-3.357-7.5-7.5-7.5z" fill="#ff1b7c"/><path d="m188.5 0v497h-30l-23.5-30v-437l23.5-30z" fill="#ffa754"/><path d="m68.5 0v91l7.5 7.5-7.5 7.5v15l7.5 7.5-7.5 7.5v15l7.5 7.5-7.5 7.5v15l7.5 7.5-7.5 7.5v15l7.5 7.5-7.5 7.5v15l7.5 7.5-7.5 7.5v15l7.5 7.5-7.5 7.5v15l7.5 7.5-7.5 7.5v15l7.5 7.5-7.5 7.5v15l7.5 7.5-7.5 7.5v15l7.5 7.5-7.5 7.5v91h90v-497zm45 467c-8.284 0-15-6.716-15-15s6.716-15 15-15 15 6.716 15 15-6.716 15-15 15zm0-407c-8.284 0-15-6.716-15-15s6.716-15 15-15 15 6.716 15 15-6.716 15-15 15z" fill="#ffcb63"/><path d="m278.5 255v75c24.853 0 45-20.147 45-45v-30z" fill="#084f6d"/><path d="m293.5 285v-30h-60v30c0 24.853 20.147 45 45 45 8.284 0 15-20.147 15-45z" fill="#116f97"/><path d="m318.5 165h-30l5 120h30c8.284 0 15-6.716 15-15v-85c0-11.046-8.954-20-20-20z" fill="#ff1b7c"/><path d="m238.5 165c-11.046 0-20 8.954-20 20v85c0 8.284 6.716 15 15 15h60c8.284 0 15-6.716 15-15v-85c0-11.046-8.954-20-20-20z" fill="#ff4996"/><path d="m314.057 62.435h-50.557l15 72.565c24.853 0 45-20.147 45-45 0-10.389-3.53-19.948-9.443-27.565z" fill="#ffd9d4"/><path d="m292.739 75.847-49.795-13.412c-5.914 7.617-9.444 17.176-9.444 27.565 0 24.853 20.147 45 45 45 8.284 0 15-20.147 15-45 0-4.946-.27-9.701-.761-14.153z" fill="#fff0d3"/><path d="m278.5 45 14.239 30.847c7.748-3.47 14.916-8.001 21.318-13.412-8.233-10.603-21.093-17.435-35.557-17.435z" fill="#ff6337"/><path d="m292.739 75.847c-1.978-17.916-7.604-30.847-14.239-30.847-14.464 0-27.324 6.831-35.557 17.435 10.169 8.594 22.268 14.975 35.557 18.396 4.923-1.267 9.681-2.943 14.239-4.984z" fill="#ff8646"/><g fill="#ffa754"><path d="m112.5 391h-44v15h44c4.142 0 7.5-3.358 7.5-7.5s-3.358-7.5-7.5-7.5z"/><path d="m106 368.5c0-4.142-3.358-7.5-7.5-7.5h-30v15h30c4.142 0 7.5-3.358 7.5-7.5z"/><path d="m112.5 331h-44v15h44c4.142 0 7.5-3.358 7.5-7.5s-3.358-7.5-7.5-7.5z"/><path d="m120 98.5c0-4.142-3.358-7.5-7.5-7.5h-44v15h44c4.142 0 7.5-3.358 7.5-7.5z"/><path d="m106 128.5c0-4.142-3.358-7.5-7.5-7.5h-30v15h30c4.142 0 7.5-3.358 7.5-7.5z"/><path d="m106 188.5c0-4.142-3.358-7.5-7.5-7.5h-30v15h30c4.142 0 7.5-3.358 7.5-7.5z"/><path d="m112.5 211h-44v15h44c4.142 0 7.5-3.358 7.5-7.5s-3.358-7.5-7.5-7.5z"/><path d="m112.5 271h-44v15h44c4.142 0 7.5-3.358 7.5-7.5s-3.358-7.5-7.5-7.5z"/><path d="m106 308.5c0-4.142-3.358-7.5-7.5-7.5h-30v15h30c4.142 0 7.5-3.358 7.5-7.5z"/><path d="m112.5 151h-44v15h44c4.142 0 7.5-3.358 7.5-7.5s-3.358-7.5-7.5-7.5z"/><path d="m106 248.5c0-4.142-3.358-7.5-7.5-7.5h-30v15h30c4.142 0 7.5-3.358 7.5-7.5z"/></g></g></svg>