<svg width="498" height="512" viewBox="0 0 498 512" fill="none" xmlns="http://www.w3.org/2000/svg">
<path d="M140.068 84.5158C139.429 84.5158 138.792 84.4655 138.158 84.5158C119.177 83.0756 84.1262 101.614 51.4844 131.801C11.844 168.462 -9.22666 208.413 4.42128 221.035C15.7317 231.495 54.2395 219.904 87.2941 194.763C84.5873 213.783 83.1009 234.423 83.1009 255.998C83.1009 350.751 104.793 427.563 140.068 427.563C175.344 427.563 197.036 350.75 197.036 255.998C197.036 161.246 175.344 84.5158 140.068 84.5158Z" fill="#B13D46"/>
<path d="M140.068 84.5151C139.429 84.5151 138.792 84.4648 138.157 84.5151C133.719 84.178 128.395 84.9466 122.437 86.6877C151.774 99.762 169.419 170.545 169.419 255.997C169.419 337.671 153.301 406.008 126.26 423.32C130.59 426.092 135.199 427.563 140.068 427.563C175.344 427.563 197.035 350.75 197.035 255.998C197.035 161.244 175.344 84.5151 140.068 84.5151Z" fill="#5F1824"/>
<path d="M75.6204 147.549C74.2338 147.549 72.8513 146.996 71.8313 145.901C69.8818 143.809 69.997 140.533 72.0893 138.582C73.2092 137.54 99.8825 112.912 132.615 102.329C135.336 101.453 138.255 102.943 139.135 105.663C140.015 108.384 138.522 111.304 135.801 112.184C105.236 122.066 79.4075 145.92 79.1502 146.16C78.1516 147.09 76.8843 147.549 75.6204 147.549Z" fill="white"/>
<path d="M463.02 238.307C474.826 222.667 481.699 203.964 481.699 183.864C481.699 128.952 430.453 84.4375 367.239 84.4375C304.025 84.4375 252.779 128.952 252.779 183.864C252.779 203.964 259.652 222.667 271.457 238.307C250.216 258.407 237.246 285.208 237.246 314.644C237.246 377.007 295.446 427.563 367.239 427.563C439.032 427.563 497.232 377.007 497.232 314.644C497.232 285.208 484.261 258.407 463.02 238.307ZM367.239 351.164C350.079 351.164 336.168 337.253 336.168 320.093C336.168 302.933 350.078 289.022 367.239 289.022C384.399 289.022 398.31 302.933 398.31 320.093C398.31 337.253 384.398 351.164 367.239 351.164ZM367.239 217.308C350.079 217.308 336.168 203.397 336.168 186.237C336.168 169.078 350.078 155.166 367.239 155.166C384.399 155.166 398.31 169.077 398.31 186.237C398.31 203.397 384.398 217.308 367.239 217.308Z" fill="#B13D46"/>
<path d="M463.02 238.307C474.826 222.667 481.698 203.964 481.698 183.864C481.698 128.952 430.453 84.4375 367.239 84.4375C362.565 84.4375 357.958 84.6868 353.43 85.1599C410.133 91.0835 454.083 133.013 454.083 183.864C454.083 203.964 447.21 222.667 435.405 238.307C456.645 258.407 469.616 285.208 469.616 314.644C469.616 372.956 418.731 420.939 353.431 426.929C357.968 427.345 362.574 427.563 367.239 427.563C439.031 427.563 497.231 377.007 497.231 314.644C497.231 285.208 484.261 258.407 463.02 238.307Z" fill="#5F1824"/>
<path d="M307.125 393.777C306.256 393.777 305.377 393.559 304.569 393.099C279.16 378.64 265.972 355.994 260.372 343.783C259.18 341.184 260.321 338.11 262.921 336.918C265.519 335.725 268.594 336.867 269.785 339.467C274.865 350.545 286.805 371.075 309.69 384.099C312.175 385.513 313.044 388.674 311.629 391.159C310.675 392.837 308.926 393.777 307.125 393.777Z" fill="white"/>
</svg>
