<svg width="435" height="512" viewBox="0 0 435 512" fill="none" xmlns="http://www.w3.org/2000/svg">
<path d="M140.597 84.5158C139.957 84.5158 139.321 84.4655 138.686 84.5158C119.705 83.0756 84.6545 101.614 52.0127 131.801C12.3724 168.462 -8.69834 208.413 4.9496 221.035C16.26 231.495 54.7678 219.904 87.8224 194.763C85.1156 213.783 83.6292 234.423 83.6292 255.998C83.6292 350.751 105.321 427.563 140.597 427.563C175.872 427.563 197.564 350.75 197.564 255.998C197.564 161.246 175.872 84.5158 140.597 84.5158Z" fill="#F85221"/>
<path d="M140.596 84.5151C139.957 84.5151 139.32 84.4648 138.686 84.5151C134.248 84.178 128.923 84.9466 122.965 86.6877C152.303 99.762 169.948 170.545 169.948 255.997C169.948 337.671 153.829 406.008 126.788 423.32C131.118 426.092 135.727 427.563 140.596 427.563C175.872 427.563 197.564 350.75 197.564 255.998C197.564 161.244 175.872 84.5151 140.596 84.5151Z" fill="#EE1F1F"/>
<path d="M76.1487 147.549C74.7622 147.549 73.3796 146.996 72.3596 145.901C70.4101 143.809 70.5254 140.533 72.6176 138.582C73.7375 137.54 100.411 112.912 133.143 102.329C135.864 101.453 138.783 102.943 139.664 105.663C140.543 108.384 139.051 111.304 136.33 112.184C105.765 122.066 79.9358 145.92 79.6785 146.16C78.68 147.09 77.4127 147.549 76.1487 147.549Z" fill="white"/>
<path d="M377.577 84.5158C376.938 84.5158 376.301 84.4655 375.667 84.5158C356.685 83.0756 321.635 101.614 288.993 131.801C249.353 168.462 228.282 208.413 241.93 221.035C253.24 231.495 291.748 219.904 324.803 194.763C322.096 213.783 320.61 234.423 320.61 255.998C320.61 350.751 342.302 427.563 377.577 427.563C412.853 427.563 434.545 350.75 434.545 255.998C434.545 161.246 412.853 84.5158 377.577 84.5158Z" fill="#F85221"/>
<path d="M377.577 84.5151C376.937 84.5151 376.301 84.4648 375.666 84.5151C371.228 84.178 365.904 84.9466 359.945 86.6877C389.283 99.762 406.928 170.545 406.928 255.997C406.928 337.671 390.81 406.008 363.769 423.32C368.099 426.092 372.707 427.563 377.577 427.563C412.852 427.563 434.544 350.75 434.544 255.998C434.544 161.244 412.852 84.5151 377.577 84.5151Z" fill="#EE1F1F"/>
<path d="M313.129 147.549C311.743 147.549 310.36 146.996 309.34 145.901C307.391 143.809 307.506 140.533 309.598 138.582C310.718 137.54 337.391 112.912 370.124 102.329C372.844 101.453 375.764 102.943 376.644 105.663C377.524 108.384 376.031 111.304 373.31 112.184C342.745 122.066 316.916 145.92 316.659 146.16C315.66 147.09 314.393 147.549 313.129 147.549Z" fill="white"/>
</svg>
