<svg width="487" height="512" viewBox="0 0 487 512" fill="none" xmlns="http://www.w3.org/2000/svg">
<path d="M139.897 84.5158C139.257 84.5158 138.621 84.4655 137.986 84.5158C119.005 83.0756 83.9543 101.614 51.3125 131.801C11.6722 168.462 -9.39854 208.413 4.24941 221.035C15.5598 231.495 54.0676 219.904 87.1222 194.763C84.4154 213.783 82.929 234.423 82.929 255.998C82.929 350.751 104.621 427.563 139.897 427.563C175.172 427.563 196.864 350.75 196.864 255.998C196.864 161.246 175.172 84.5158 139.897 84.5158Z" fill="#FF8B1B"/>
<path d="M139.896 84.5151C139.257 84.5151 138.62 84.4648 137.985 84.5151C133.548 84.178 128.223 84.9466 122.265 86.6877C151.603 99.762 169.247 170.545 169.247 255.997C169.247 337.671 153.129 406.008 126.088 423.32C130.418 426.092 135.027 427.563 139.896 427.563C175.172 427.563 196.864 350.75 196.864 255.998C196.864 161.244 175.172 84.5151 139.896 84.5151Z" fill="#FB601F"/>
<path d="M75.4485 147.549C74.062 147.549 72.6794 146.996 71.6594 145.901C69.7099 143.809 69.8252 140.533 71.9174 138.582C73.0373 137.54 99.7106 112.912 132.443 102.329C135.164 101.453 138.083 102.943 138.964 105.663C139.843 108.384 138.35 111.304 135.63 112.184C105.065 122.066 79.2357 145.92 78.9783 146.16C77.9798 147.09 76.7125 147.549 75.4485 147.549Z" fill="white"/>
<path d="M475.548 248.582C448.192 186.757 382.992 182.153 326.77 205.063C327.102 185.336 325.535 172.205 320.81 153.008C320.81 153.008 335.019 159.691 361.944 159.691C413.983 159.691 455.555 142.251 455.555 124.138C455.555 106.025 413.369 84.4375 361.33 84.4375C318.514 84.4375 282.374 94.3781 270.906 107.99C257.323 119.509 245.209 159.428 247.158 191.465C249.421 228.657 268.28 262.213 281.516 268.572C299.205 277.07 317.304 267.052 337.519 262.906C372.301 255.772 395.928 265.565 400.821 290.825C408.369 329.78 366.087 349.893 329.737 342.359C292.886 334.721 270.97 313.717 250.404 320.638C230.938 327.189 229.092 367.425 270.158 399.697C294.918 419.156 329.498 427.563 360.548 427.563C402.04 427.562 447.534 411.59 469.761 373.911C491.124 337.697 491.678 285.034 475.548 248.582Z" fill="#FF8B1B"/>
<path d="M427.939 124.138C427.939 140.451 394.217 156.215 349.499 159.187C353.289 159.5 357.434 159.69 361.944 159.69C413.984 159.69 455.555 142.25 455.555 124.138C455.555 106.025 413.369 84.4375 361.33 84.4375C356.198 84.4375 351.166 84.5843 346.256 84.859C392.365 87.9452 427.939 107.505 427.939 124.138Z" fill="#FB601F"/>
<path d="M475.549 248.584C455.523 203.327 415.218 188.735 373 193.15C404.487 196.725 432.35 213.368 447.933 248.584C464.063 285.037 463.508 337.699 442.145 373.914C422.313 407.534 383.957 423.86 346.448 426.99C351.197 427.374 355.913 427.566 360.548 427.566C402.04 427.565 447.534 411.593 469.76 373.914C491.124 337.699 491.678 285.037 475.549 248.584Z" fill="#FB601F"/>
<path d="M330.842 405.068C330.611 405.068 330.377 405.053 330.142 405.021C287.86 399.307 262.632 366.637 261.579 365.249C259.85 362.972 260.295 359.723 262.573 357.994C264.849 356.268 268.093 356.711 269.824 358.983C270.057 359.29 293.612 389.633 331.529 394.758C334.363 395.141 336.35 397.749 335.967 400.583C335.615 403.182 333.393 405.068 330.842 405.068Z" fill="white"/>
</svg>
