<svg width="502" height="512" viewBox="0 0 502 512" fill="none" xmlns="http://www.w3.org/2000/svg">
<path d="M140.013 84.5158C139.374 84.5158 138.737 84.4655 138.103 84.5158C119.121 83.0756 84.071 101.614 51.4292 131.801C11.7889 168.462 -9.28184 208.413 4.36611 221.035C15.6765 231.495 54.1843 219.904 87.2389 194.763C84.5321 213.783 83.0457 234.423 83.0457 255.998C83.0457 350.751 104.738 427.563 140.013 427.563C175.289 427.563 196.981 350.75 196.981 255.998C196.981 161.246 175.289 84.5158 140.013 84.5158Z" fill="#FFB509"/>
<path d="M140.013 84.5151C139.373 84.5151 138.737 84.4648 138.102 84.5151C133.664 84.178 128.34 84.9466 122.381 86.6877C151.719 99.762 169.364 170.545 169.364 255.997C169.364 337.671 153.246 406.008 126.205 423.32C130.535 426.092 135.143 427.563 140.013 427.563C175.288 427.563 196.98 350.75 196.98 255.998C196.98 161.244 175.288 84.5151 140.013 84.5151Z" fill="#FF9100"/>
<path d="M75.5652 147.553C74.1787 147.553 72.7961 147 71.7761 145.905C69.8266 143.813 69.9419 140.537 72.0341 138.586C73.154 137.544 99.8273 112.916 132.56 102.333C135.28 101.457 138.2 102.947 139.08 105.667C139.96 108.388 138.467 111.308 135.746 112.188C105.181 122.07 79.3524 145.924 79.095 146.164C78.0965 147.093 76.8292 147.553 75.5652 147.553Z" fill="white"/>
<path d="M454.254 168.218C433.953 168.218 416.655 203.669 410.064 253.339C385.505 250.167 360.491 249.808 335.835 252.049C341.27 243.275 346.526 233.862 351.473 223.928C383.373 159.876 390.397 98.4913 367.16 86.8224C342.199 74.2869 310.96 114.484 298.857 130.368C270.759 167.243 248.932 212.425 240.57 258.172C237.262 276.273 231.959 305.976 249.887 317.756C270.398 333.918 315.153 345.127 367.072 345.127C382.147 345.127 396.614 344.178 410.064 342.442C416.655 392.112 433.953 427.563 454.254 427.563C480.234 427.563 501.295 369.507 501.295 297.891C501.295 226.275 480.234 168.218 454.254 168.218Z" fill="#FFB509"/>
<path d="M323.858 223.93C318.911 233.864 313.655 243.277 308.22 252.051C317.676 251.191 327.185 250.718 336.701 250.636C341.828 242.266 346.79 233.335 351.473 223.93C383.373 159.878 390.397 98.4933 367.161 86.8243C359.189 82.8208 350.577 84.2013 342.152 88.4455C362.183 103.355 354.498 162.408 323.858 223.93Z" fill="#FF9100"/>
<path d="M454.255 168.219C449.449 168.219 444.812 170.208 440.445 173.899C459.688 190.161 473.68 239.52 473.68 297.891C473.68 356.263 459.687 405.621 440.445 421.883C444.812 425.574 449.449 427.563 454.255 427.563C480.234 427.563 501.296 369.507 501.296 297.891C501.296 226.275 480.234 168.219 454.255 168.219Z" fill="#FF9100"/>
<path d="M260.574 288.294C260.539 288.294 260.503 288.293 260.468 288.292C257.609 288.235 255.338 285.871 255.395 283.012C255.428 281.327 256.495 241.253 280.274 197.889C281.649 195.382 284.795 194.462 287.303 195.839C289.81 197.213 290.729 200.361 289.354 202.869C266.785 244.025 265.756 282.833 265.748 283.22C265.692 286.043 263.385 288.294 260.574 288.294Z" fill="white"/>
</svg>
