<svg width="474" height="512" viewBox="0 0 474 512" fill="none" xmlns="http://www.w3.org/2000/svg">
<path d="M139.833 84.5158C139.193 84.5158 138.557 84.4655 137.922 84.5158C118.941 83.0756 83.8904 101.614 51.2486 131.801C11.6082 168.462 -9.4625 208.413 4.18544 221.035C15.4958 231.495 54.0036 219.904 87.0583 194.763C84.3515 213.783 82.865 234.423 82.865 255.998C82.865 350.751 104.557 427.563 139.833 427.563C175.108 427.563 196.8 350.75 196.8 255.998C196.8 161.246 175.108 84.5158 139.833 84.5158Z" fill="#683C68"/>
<path d="M139.832 84.5151C139.193 84.5151 138.556 84.4648 137.921 84.5151C133.484 84.178 128.159 84.9466 122.201 86.6877C151.539 99.762 169.183 170.545 169.183 255.997C169.183 337.671 153.065 406.008 126.024 423.32C130.354 426.092 134.963 427.563 139.832 427.563C175.108 427.563 196.8 350.75 196.8 255.998C196.8 161.244 175.108 84.5151 139.832 84.5151Z" fill="#3F163F"/>
<path d="M75.3846 147.553C73.998 147.553 72.6155 147 71.5955 145.905C69.6459 143.813 69.7612 140.537 71.8535 138.586C72.9733 137.544 99.6466 112.916 132.379 102.333C135.1 101.457 138.019 102.947 138.9 105.667C139.779 108.388 138.286 111.308 135.566 112.188C105.001 122.07 79.1717 145.924 78.9143 146.164C77.9158 147.093 76.6485 147.553 75.3846 147.553Z" fill="white"/>
<path d="M466.353 176.356C433.386 41.7177 241.873 61.5419 237.084 193.124C235.048 249.027 275.203 301.588 349.233 298.157C367.546 297.308 380.98 292.601 390.105 287.817C396.906 284.252 404.98 289.548 404.373 297.206C404.364 297.312 404.356 297.418 404.347 297.524C402.679 318.236 393.434 345.528 358.27 355.512C307.762 369.852 278.413 329.563 259.302 343.22C236.839 359.273 263.659 430.845 352.768 427.446C405.879 425.42 446.273 389.558 462.461 332.079C475.082 287.267 478.368 225.425 466.353 176.356ZM349.233 238C329.815 238 314.073 218.532 314.073 194.518C314.073 170.503 329.815 151.035 349.233 151.035C368.651 151.035 384.392 170.503 384.392 194.518C384.392 218.532 368.651 238 349.233 238Z" fill="#683C68"/>
<path d="M466.353 176.355C449.557 107.758 391.604 79.2609 338.16 85.2079C382.625 90.1919 424.816 119.502 438.737 176.356C450.752 225.426 447.466 287.268 434.846 332.079C419.446 386.763 382.136 421.878 332.809 426.909C339.078 427.512 345.728 427.714 352.769 427.446C405.88 425.42 446.274 389.558 462.462 332.079C475.082 287.267 478.368 225.425 466.353 176.355Z" fill="#3F163F"/>
<path d="M263.373 173.581C262.822 173.581 262.262 173.492 261.712 173.306C259.006 172.389 257.554 169.458 258.466 166.75C259.037 165.057 272.91 125.101 312.257 110.361C314.935 109.36 317.92 110.715 318.923 113.393C319.926 116.071 318.568 119.056 315.89 120.059C281.241 133.038 268.403 169.698 268.277 170.067C267.543 172.221 265.529 173.581 263.373 173.581Z" fill="white"/>
</svg>
