<svg width="504" height="512" viewBox="0 0 504 512" fill="none" xmlns="http://www.w3.org/2000/svg">
<path d="M140.025 84.5158C139.386 84.5158 138.749 84.4655 138.114 84.5158C119.133 83.0756 84.0828 101.614 51.441 131.801C11.8006 168.462 -9.27012 208.413 4.37783 221.035C15.6882 231.495 54.196 219.904 87.2506 194.763C84.5438 213.783 83.0574 234.423 83.0574 255.998C83.0574 350.751 104.749 427.563 140.025 427.563C175.301 427.563 196.992 350.75 196.992 255.998C196.992 161.246 175.301 84.5158 140.025 84.5158Z" fill="#70CE94"/>
<path d="M140.024 84.5151C139.385 84.5151 138.748 84.4648 138.114 84.5151C133.676 84.178 128.352 84.9466 122.393 86.6877C151.731 99.762 169.376 170.545 169.376 255.997C169.376 337.671 153.258 406.008 126.216 423.32C130.546 426.092 135.155 427.563 140.024 427.563C175.3 427.563 196.992 350.75 196.992 255.998C196.992 161.244 175.3 84.5151 140.024 84.5151Z" fill="#32B088"/>
<path d="M75.577 147.549C74.1904 147.549 72.8078 146.996 71.7878 145.901C69.8383 143.809 69.9536 140.533 72.0459 138.582C73.1657 137.54 99.839 112.912 132.571 102.329C135.292 101.453 138.211 102.943 139.092 105.663C139.971 108.384 138.479 111.304 135.758 112.184C105.193 122.066 79.3641 145.92 79.1067 146.16C78.1082 147.09 76.8409 147.549 75.577 147.549Z" fill="white"/>
<path d="M500.669 134.486C495.435 114.608 454.372 84.4375 368.949 84.4375C296.187 84.4375 237.203 107.215 237.203 135.313C237.203 163.41 296.187 186.188 368.949 186.188C376.255 186.188 390.491 185.954 397.473 185.513C388.64 199.951 380.098 215.949 372.19 233.128C370.486 233.078 368.764 233.052 367.028 233.052C329.726 233.052 299.487 244.837 299.487 259.375C299.487 271.863 321.8 282.32 351.737 285.02C328.571 355.542 321.224 414.802 346.645 425.783C376.914 438.859 432.144 378.538 470.007 291.054C497.321 227.937 509.394 167.625 500.669 134.486Z" fill="#70CE94"/>
<path d="M500.669 134.486C495.436 114.608 454.372 84.4375 368.95 84.4375C364.289 84.4375 359.685 84.5327 355.148 84.7149C431.199 87.7622 468.11 115.713 473.053 134.486C481.779 167.625 469.706 227.938 442.39 291.053C413.164 358.585 373.59 409.919 343.135 423.813C344.228 424.581 345.395 425.242 346.645 425.782C376.914 438.858 432.144 378.537 470.007 291.053C497.321 227.937 509.394 167.625 500.669 134.486Z" fill="#32B088"/>
<path d="M329.72 164.918C329.6 164.918 329.478 164.914 329.356 164.906C287.792 162.02 260.461 144.641 259.319 143.902C256.916 142.351 256.226 139.145 257.779 136.744C259.33 134.342 262.533 133.654 264.934 135.201C265.293 135.431 291.382 151.888 330.074 154.574C332.926 154.772 335.078 157.246 334.881 160.098C334.691 162.829 332.417 164.918 329.72 164.918Z" fill="white"/>
</svg>
