<svg width="475" height="512" viewBox="0 0 475 512" fill="none" xmlns="http://www.w3.org/2000/svg">
<path d="M140.417 84.5158C139.777 84.5158 139.141 84.4655 138.506 84.5158C119.525 83.0756 84.4744 101.614 51.8326 131.801C12.1922 168.462 -8.87852 208.413 4.76943 221.035C16.0798 231.495 54.5876 219.904 87.6422 194.763C84.9354 213.783 83.449 234.423 83.449 255.998C83.449 350.751 105.141 427.563 140.417 427.563C175.692 427.563 197.384 350.75 197.384 255.998C197.384 161.246 175.692 84.5158 140.417 84.5158Z" fill="#FB1466"/>
<path d="M140.416 84.5151C139.777 84.5151 139.14 84.4648 138.505 84.5151C134.068 84.178 128.743 84.9466 122.785 86.6877C152.123 99.762 169.767 170.545 169.767 255.997C169.767 337.671 153.649 406.008 126.608 423.32C130.938 426.092 135.547 427.563 140.416 427.563C175.692 427.563 197.384 350.75 197.384 255.998C197.384 161.244 175.692 84.5151 140.416 84.5151Z" fill="#E01058"/>
<path d="M75.9686 147.549C74.582 147.549 73.1994 146.996 72.1794 145.901C70.2299 143.809 70.3452 140.533 72.4375 138.582C73.5573 137.54 100.231 112.912 132.963 102.329C135.684 101.453 138.603 102.943 139.484 105.663C140.363 108.384 138.87 111.304 136.15 112.184C105.585 122.066 79.7557 145.92 79.4983 146.16C78.4998 147.09 77.2325 147.549 75.9686 147.549Z" fill="white"/>
<path d="M362.201 213.843C343.888 214.692 330.454 219.399 321.329 224.183C314.528 227.749 306.454 222.452 307.061 214.794C307.069 214.688 307.077 214.582 307.086 214.476C308.754 193.764 317.999 166.472 353.163 156.488C403.671 142.148 433.021 182.437 452.132 168.78C474.594 152.727 447.774 81.1556 358.665 84.5546C305.553 86.5806 265.16 122.443 248.972 179.921C236.351 224.733 233.066 286.576 245.081 335.645C278.047 470.283 469.56 450.459 474.35 318.876C476.385 262.973 436.231 210.412 362.201 213.843ZM362.201 360.965C342.783 360.965 327.042 341.497 327.042 317.482C327.042 293.468 342.783 274 362.201 274C381.619 274 397.36 293.468 397.36 317.482C397.36 341.497 381.619 360.965 362.201 360.965Z" fill="#FB1466"/>
<path d="M426.254 167.32C436.637 171.513 445.081 173.817 452.13 168.78C474.593 152.727 447.773 81.1556 358.665 84.5546C356.082 84.6532 353.53 84.8341 351.009 85.0915C421.897 91.9111 443.884 150.331 426.254 167.32Z" fill="#E01058"/>
<path d="M362.2 213.843C359.763 213.956 357.419 214.142 355.153 214.382C416.001 220.642 448.571 268.393 446.734 318.875C444.384 383.417 397.11 421.066 345.658 426.792C406.492 433.611 471.582 394.895 474.349 318.875C476.384 262.973 436.231 210.412 362.2 213.843Z" fill="#E01058"/>
<path d="M274.103 355.701C272.198 355.701 270.367 354.647 269.463 352.824C268.769 351.424 252.503 318.039 255.061 272.757C255.222 269.902 257.665 267.725 260.523 267.879C263.378 268.04 265.562 270.485 265.401 273.341C263.004 315.768 278.586 347.908 278.743 348.228C280.007 350.79 278.958 353.895 276.395 355.162C275.658 355.527 274.874 355.701 274.103 355.701Z" fill="white"/>
</svg>
