<svg width="512" height="512" viewBox="0 0 512 512" fill="none" xmlns="http://www.w3.org/2000/svg">
<path d="M139.799 84.5158C139.16 84.5158 138.523 84.4655 137.888 84.5158C118.907 83.0756 83.8567 101.614 51.2149 131.801C11.5745 168.462 -9.49619 208.413 4.15175 221.035C15.4622 231.495 53.9699 219.904 87.0246 194.763C84.3178 213.783 82.8313 234.423 82.8313 255.998C82.8313 350.751 104.523 427.563 139.799 427.563C175.074 427.563 196.766 350.75 196.766 255.998C196.766 161.246 175.074 84.5158 139.799 84.5158Z" fill="#A338A3"/>
<path d="M139.798 84.5151C139.159 84.5151 138.522 84.4648 137.888 84.5151C133.45 84.178 128.125 84.9466 122.167 86.6877C151.505 99.762 169.15 170.545 169.15 255.997C169.15 337.671 153.032 406.008 125.99 423.32C130.32 426.092 134.929 427.563 139.798 427.563C175.074 427.563 196.766 350.75 196.766 255.998C196.766 161.244 175.074 84.5151 139.798 84.5151Z" fill="#6E1E72"/>
<path d="M75.3509 147.549C73.9643 147.549 72.5818 146.996 71.5618 145.901C69.6123 143.809 69.7275 140.533 71.8198 138.582C72.9396 137.54 99.6129 112.912 132.345 102.329C135.066 101.453 137.985 102.943 138.866 105.663C139.745 108.384 138.253 111.304 135.532 112.184C104.967 122.066 79.138 145.92 78.8807 146.16C77.8821 147.09 76.6148 147.549 75.3509 147.549Z" fill="white"/>
<path d="M374.486 84.4375C298.541 84.4375 236.977 161.249 236.977 256C236.977 350.752 298.541 427.563 374.486 427.563C450.431 427.563 511.996 350.752 511.996 256C511.996 161.249 450.431 84.4375 374.486 84.4375ZM374.486 304.504C353.015 304.504 335.61 282.788 335.61 256C335.61 229.212 353.015 207.496 374.486 207.496C395.957 207.496 413.362 229.212 413.362 256C413.362 282.788 395.957 304.504 374.486 304.504Z" fill="#A338A3"/>
<path d="M374.486 84.4375C369.825 84.4375 365.219 84.7304 360.678 85.2953C430.139 93.9364 484.38 167.064 484.38 256C484.38 344.937 430.139 418.064 360.678 426.705C365.219 427.27 369.825 427.563 374.486 427.563C450.43 427.563 511.996 350.752 511.996 256C511.996 161.249 450.43 84.4375 374.486 84.4375Z" fill="#6E1E72"/>
<path d="M276.862 186.3C276.238 186.3 275.604 186.186 274.987 185.946C272.322 184.911 271.001 181.911 272.037 179.245C272.281 178.615 278.185 163.631 291.619 147.058C309.502 124.996 332.345 110.673 357.679 105.635C360.484 105.079 363.21 106.899 363.768 109.704C364.325 112.508 362.504 115.234 359.699 115.793C304.103 126.846 281.908 182.436 281.69 182.996C280.894 185.045 278.936 186.3 276.862 186.3Z" fill="white"/>
</svg>
