<svg width="464" height="512" viewBox="0 0 464 512" fill="none" xmlns="http://www.w3.org/2000/svg">
<path d="M140.265 84.5158C139.625 84.5158 138.989 84.4655 138.354 84.5158C119.373 83.0756 84.3225 101.614 51.6807 131.801C12.0403 168.462 -9.03037 208.413 4.61757 221.035C15.928 231.495 54.4358 219.904 87.4904 194.763C84.7836 213.783 83.2972 234.423 83.2972 255.998C83.2972 350.751 104.989 427.563 140.265 427.563C175.54 427.563 197.232 350.75 197.232 255.998C197.232 161.246 175.54 84.5158 140.265 84.5158Z" fill="#8C79F8"/>
<path d="M140.264 84.5151C139.625 84.5151 138.988 84.4648 138.354 84.5151C133.916 84.178 128.591 84.9466 122.633 86.6877C151.971 99.762 169.616 170.545 169.616 255.997C169.616 337.671 153.497 406.008 126.456 423.32C130.786 426.092 135.395 427.563 140.264 427.563C175.54 427.563 197.232 350.75 197.232 255.998C197.232 161.244 175.54 84.5151 140.264 84.5151Z" fill="#6651DD"/>
<path d="M75.8167 147.553C74.4301 147.553 73.0476 147 72.0276 145.905C70.0781 143.813 70.1933 140.537 72.2856 138.586C73.4054 137.544 100.079 112.916 132.811 102.333C135.532 101.457 138.451 102.947 139.332 105.667C140.211 108.388 138.719 111.308 135.998 112.188C105.433 122.07 79.6038 145.924 79.3465 146.164C78.3479 147.093 77.0806 147.553 75.8167 147.553Z" fill="white"/>
<path d="M300.46 256.469C300.46 275.921 328.867 280.814 348.204 288.21C385.253 302.382 381.01 343.373 348.041 350.734C304.318 360.498 268.879 298.162 242.78 328.439C222.748 351.677 258.687 427.563 357.602 427.563C409.811 427.563 454.813 394.363 462.464 341.151C466.803 310.979 456.001 278.373 435.292 256C456.001 233.628 466.802 201.021 462.464 170.849C454.813 117.637 409.812 84.4375 357.602 84.4375C258.687 84.4375 222.748 160.324 242.78 183.563C268.879 213.838 304.318 151.503 348.042 161.267C381.011 168.629 385.253 209.619 348.204 223.791C332.894 229.647 299.776 234.426 300.46 256.469Z" fill="#8C79F8"/>
<path d="M462.464 170.849C454.812 117.637 409.811 84.4375 357.601 84.4375C352.346 84.4375 347.281 84.664 342.38 85.0728C389.166 89.8893 427.809 121.9 434.848 170.849C439.187 201.021 428.385 233.627 407.675 256C428.384 278.372 439.186 310.979 434.848 341.151C427.809 390.1 389.166 422.112 342.38 426.928C347.281 427.336 352.346 427.563 357.601 427.563C409.811 427.563 454.812 394.363 462.464 341.151C466.802 310.979 456 278.373 435.291 256C456 233.628 466.802 201.021 462.464 170.849Z" fill="#6651DD"/>
<path d="M286.782 133.583C285.232 133.583 283.7 132.892 282.68 131.571C280.934 129.31 281.345 126.066 283.603 124.316C284.638 123.515 309.242 104.766 344.572 104.766C344.743 104.766 344.913 104.766 345.085 104.767C347.945 104.782 350.251 107.112 350.236 109.971C350.222 112.823 347.906 115.123 345.059 115.123C344.891 115.123 344.739 115.122 344.583 115.122C312.904 115.122 290.167 132.334 289.94 132.509C288.998 133.232 287.886 133.583 286.782 133.583Z" fill="white"/>
</svg>
