<svg width="469" height="512" viewBox="0 0 469 512" fill="none" xmlns="http://www.w3.org/2000/svg">
<path d="M140.146 84.5158C139.506 84.5158 138.87 84.4655 138.235 84.5158C119.254 83.0756 84.2034 101.614 51.5616 131.801C11.9212 168.462 -9.14951 208.413 4.49843 221.035C15.8088 231.495 54.3166 219.904 87.3712 194.763C84.6644 213.783 83.178 234.423 83.178 255.998C83.178 350.751 104.87 427.563 140.146 427.563C175.421 427.563 197.113 350.75 197.113 255.998C197.113 161.246 175.421 84.5158 140.146 84.5158Z" fill="#0BB49A"/>
<path d="M140.145 84.5151C139.506 84.5151 138.869 84.4648 138.234 84.5151C133.797 84.178 128.472 84.9466 122.514 86.6877C151.852 99.762 169.496 170.545 169.496 255.997C169.496 337.671 153.378 406.008 126.337 423.32C130.667 426.092 135.276 427.563 140.145 427.563C175.421 427.563 197.113 350.75 197.113 255.998C197.113 161.244 175.421 84.5151 140.145 84.5151Z" fill="#0C8E81"/>
<path d="M75.6976 147.549C74.311 147.549 72.9284 146.996 71.9084 145.901C69.9589 143.809 70.0742 140.533 72.1665 138.582C73.2863 137.54 99.9596 112.912 132.692 102.329C135.413 101.453 138.332 102.943 139.213 105.663C140.092 108.384 138.599 111.304 135.879 112.184C105.314 122.066 79.4847 145.92 79.2273 146.16C78.2288 147.09 76.9615 147.549 75.6976 147.549Z" fill="white"/>
<path d="M392.969 342.597C431.361 307.312 461.213 260.389 461.213 206.744C461.213 135.209 414.154 84.5322 352.993 84.4377C299.22 84.3546 263.611 115.775 250.345 141.386C228.599 183.368 250.259 201.405 281.566 180.688C297.46 170.17 317.936 158.13 336.35 160.892C359.278 164.332 375.483 186.213 367.196 215.216C345.327 291.756 237.323 340.522 237.323 378.633C237.323 403.344 287.09 427.563 348.08 427.563C414.154 427.563 468.663 407.53 468.663 382.819C468.663 365.146 439.196 349.868 392.969 342.597Z" fill="#0BB49A"/>
<path d="M392.97 342.597C431.361 307.312 461.214 260.389 461.214 206.744C461.214 135.209 414.155 84.5322 352.994 84.4377C347.911 84.4296 342.992 84.7044 338.237 85.2278C393.01 91.8765 433.598 140.311 433.598 206.744C433.598 260.389 403.746 307.312 365.354 342.597C411.581 349.867 441.048 365.146 441.048 382.819C441.048 405.629 394.605 424.451 335.493 427.213C339.627 427.44 343.825 427.562 348.081 427.562C414.155 427.562 468.664 407.53 468.664 382.819C468.664 365.146 439.197 349.868 392.97 342.597Z" fill="#0C8E81"/>
<path d="M269.755 372C268.305 372 266.864 371.396 265.84 370.214C263.967 368.053 264.2 364.782 266.361 362.91C266.614 362.691 291.834 340.804 313.572 319.892C315.632 317.909 318.911 317.973 320.894 320.034C322.876 322.094 322.812 325.373 320.752 327.356C298.816 348.458 273.4 370.514 273.146 370.735C272.165 371.584 270.957 372 269.755 372Z" fill="white"/>
</svg>
