<svg height="300" viewBox="0 0 512.35452 512" width="300" xmlns="http://www.w3.org/2000/svg" version="1.1" xmlns:xlink="http://www.w3.org/1999/xlink" xmlns:svgjs="http://svgjs.dev/svgjs"><g width="100%" height="100%" transform="matrix(1,0,0,1,0,0)"><path d="m17.746094.175781h476.6875c9.75 0 17.65625 7.90625 17.65625 17.65625v476.691407c0 9.75-7.90625 17.652343-17.65625 17.652343h-476.6875c-9.75 0-17.6562502-7.902343-17.6562502-17.652343v-476.691407c0-9.75 7.9062502-17.65625 17.6562502-17.65625zm0 0" fill="#4482c3" fill-opacity="0" data-original-color="#4482c3ff" stroke="none" stroke-opacity="1"/><path d="m512.089844 353.722656v61.351563l-97.105469 56.320312-2.292969 1.324219c-4.238281 2.722656-9.175781 4.160156-14.210937 4.148438h-96.929688c-.882812 0-1.765625 0-2.648437-.089844l-78.210938-7.855469-5.03125-.53125c-2.464844-.1875-4.882812-.785156-7.152344-1.765625l-5.382812-2.117188-71.238281-28.511718-6.09375-2.382813c-1.382813-.613281-2.835938-1.058593-4.324219-1.324219l-6.621094-1.414062-114.7578122-24.628906v-61.351563zm0 0" fill="#acd1d1" fill-opacity="1" data-original-color="#95a5a5ff" stroke="none" stroke-opacity="1"/><path d="m106.109375 294.402344 60.558594-3.179688c.769531-.042968 1.535156-.132812 2.292969-.265625l32.839843-4.675781 46.960938-6.710938 48.199219-6.886718 57.996093-7.589844c.800781.074219 1.597657.191406 2.386719.351562l132.855469 21.894532c12.65625 2.207031 21.890625 13.191406 21.890625 26.039062v48.375l-99.398438 57.644532c-4.238281 2.722656-9.175781 4.164062-14.210937 4.148437h-96.929688c-.882812 0-1.765625 0-2.648437-.085937l-83.242188-8.386719c-2.464844-.191407-4.882812-.785157-7.152344-1.765625l-82.714843-33.015625c-1.382813-.613281-2.835938-1.058594-4.324219-1.324219l-121.3789062-26.042969v-27.804687c-.0078126-9.539063 5.1210942-18.339844 13.4179682-23.039063zm0 0" fill="#e4fffe" fill-opacity="1" data-original-color="#ffffffff" stroke="none" stroke-opacity="1"/><path d="m63.558594 308.347656c-13.25 1.359375-26.632813.792969-39.722656-1.675781-21.539063-3.707031-9.710938-19.15625-6.445313-31.957031 2.472656-9.710938 3.355469-26.304688-5.207031-117.9375 2.296875 1.589844 13.769531-14.476563 16.949218-12.976563 4.59375 21.910157 12.574219 42.964844 23.65625 62.414063 13.507813 18.007812 18.449219 20.742187 21.539063 48.902344.621094 6.003906 1.324219 12.183593 1.945313 18.097656 1.5 13.769531-14.566407 26.660156-12.714844 35.132812zm0 0" fill="#7f6e5d" fill-opacity="1" data-original-color="#7f6e5dff" stroke="none" stroke-opacity="1"/><path d="m242.847656 290.691406c-9.621094 18.980469 19.863282 13.332032 18.714844 24.71875-1.058594 11.386719-32.660156 10.679688-54.199219 6.972656-21.542969-3.707031-9.710937-19.15625-6.445312-31.953124 2.472656-9.710938 8.472656-51.289063 11.386719-71.238282 15.890624-4.238281 32.925781-37.253906 42.195312-40.960937 2.851562 7.828125 6.617188 15.292969 11.210938 22.246093 3.886718 4.234376 8.917968 36.808594 13.859374 43.605469-17.035156 9.710938-27.1875 27.71875-36.722656 46.609375zm0 0" fill="#7f6e5d" fill-opacity="1" data-original-color="#7f6e5dff" stroke="none" stroke-opacity="1"/><path d="m512.355469 171.257812c-3.738281 5.484376-8.027344 10.570313-12.800781 15.179688-2.402344 2.515625-5.414063 4.371094-8.738282 5.386719-8.828125 1.589843-6.269531-2.117188-38.578125-2.648438-10.9375-.019531-21.589843-3.480469-30.453125-9.886719-7.628906.171876-15.238281.851563-22.777344 2.03125-11.671874 1.664063-23.253906 3.929688-34.691406 6.796876-6.972656 1.765624-12.976562 3.441406-17.65625 4.765624.265625 18.804688.441406 38.84375 1.855469 50.582032 3 24.542968 27.804687 59.585937 27.804687 59.585937 36.722657-1.324219 42.019532 12.710938 29.308594 21.71875-12.710937 9.089844-40.253906 6.972657-56.320312 5.03125-15.976563-1.945312-46.609375-44.933593-54.289063-60.910156-4.335937-8.75-9.507812-17.058594-15.449219-24.808594-4.308593-5.953125-8.933593-11.667969-13.859374-17.125-3.816407-5.515625-6.960938-11.476562-9.355469-17.742187l-1.855469-4.503906c-4.148438 1.679687-9.886719 3.972656-16.507812 6.355468h-.085938c-7.859375 2.828125-16.949219 5.828125-25.601562 8.125-6.773438 2.007813-13.71875 3.398438-20.746094 4.148438-15.234375.808594-30.507813.664062-45.726563-.441406-6.621093-.441407-12.710937-.882813-17.742187-1.238282h-.089844c-4.714844 19-10.761719 37.640625-18.09375 55.792969-5.296875 14.5625-4.414062 22.066406-1.414062 25.070313 3 3 25.953124.261718 25.421874 11.828124-.617187 11.652344-21.007812 11.652344-33.367187 11.652344-12.445313 0-29.042969-3.621094-33.457031-8.035156-1.828125-2.925781-3.03125-6.203125-3.53125-9.621094-1.851563-8.472656-3.441406-21.363281-4.941406-35.132812-.617188-5.914063-1.324219-12.09375-1.941407-18.097656-3.089843-28.160157-8.035156-30.894532-21.539062-48.902344-8.210938-13.632813-13.277344-28.921875-14.832031-44.757813-2.832032-1.332031-5.546876-2.898437-8.121094-4.679687-24.011719-17.210938-7.855469-44.578125 8.472656-73.796875 18.804688-33.546875 69.917969-42.726563 143.097656-31.339844 73.179688 11.390625 70.265625 9.976563 115.109375 4.414063 22.128907-1.75 44.304688 2.746093 64 12.976562.089844.175781.179688.175781.265625.089844 11.125 1.324218 24.011719 3 36.898438 5.121094 20.808594 2.75 41.203125 8.023437 60.734375 15.710937 22.96875 9.84375 41.898437 27.21875 53.671875 49.257813 2.03125 5.472656 15.625 28.25 17.65625 31.605468.097656.140625.183594.289063.265625.441406zm0 0" fill="#f5efca" fill-opacity="1" data-original-color="#f5efcaff" stroke="none" stroke-opacity="1"/><g fill="#cbb292"><path d="m380.027344 74.242188c.359375 2.339843-.246094 4.730468-1.675782 6.621093-1.652343 2.238281-4.277343 3.550781-7.0625 3.527344-1.878906-.015625-3.703124-.636719-5.207031-1.765625-7.015625-4.976562-14.460937-9.320312-22.246093-12.976562-.273438-.113282-.515626-.296876-.707032-.527344 11.125 1.324218 24.011719 3 36.898438 5.121094zm0 0" fill="#cbb292" fill-opacity="1" data-original-color="#cbb292ff" stroke="none" stroke-opacity="1"/><path d="m145.832031 222.898438c-6.621093-.441407-12.710937-.882813-17.742187-1.238282 4.089844-15.246094 4.542968-31.242187 1.324218-46.695312l-10.59375-36.460938c-.867187-3.042968-.042968-6.316406 2.15625-8.589844 2.203126-2.273437 5.449219-3.199218 8.519532-2.425781 3.070312.769531 5.496094 3.117188 6.363281 6.160157l10.503906 36.460937c3.984375 17.390625 3.800781 35.480469-.53125 52.789063zm0 0" fill="#cbb292" fill-opacity="1" data-original-color="#cbb292ff" stroke="none" stroke-opacity="1"/><path d="m364.316406 188.117188c-6.972656 1.765624-12.976562 3.441406-17.65625 4.765624.390625-13.039062-.289062-26.089843-2.03125-39.015624-1.742187-4.511719.40625-9.589844 4.855469-11.476563 4.4375-1.8125 9.507813.269531 11.390625 4.675781 2.46875 5.828125 3.175781 18.097656 3.441406 41.050782zm0 0" fill="#cbb292" fill-opacity="1" data-original-color="#cbb292ff" stroke="none" stroke-opacity="1"/><path d="m254.5 204.710938c-4.148438 1.679687-9.886719 3.972656-16.507812 6.355468h-.085938c-9.445312-23.039062-19.421875-51.375-19.863281-52.699218-1.058594-2.964844-.453125-6.265626 1.585937-8.664063 2.039063-2.398437 5.203125-3.523437 8.300782-2.957031 3.09375.566406 5.652343 2.742187 6.707031 5.707031.179687.351563 10.507812 29.484375 19.863281 52.257813zm0 0" fill="#cbb292" fill-opacity="1" data-original-color="#cbb292ff" stroke="none" stroke-opacity="1"/><path d="m421.785156 179.289062c-7.628906.171876-15.238281.851563-22.777344 2.03125-1.65625-2.203124-3.132812-4.535156-4.414062-6.976562-2.121094-4.386719-.308594-9.667969 4.0625-11.828125 2.09375-1.027344 4.511719-1.175781 6.714844-.414063 2.203125.765626 4.011718 2.375 5.023437 4.476563 2.859375 4.941406 6.707031 9.238281 11.300781 12.621094zm0 0" fill="#cbb292" fill-opacity="1" data-original-color="#cbb292ff" stroke="none" stroke-opacity="1"/><path d="m424.613281 121.015625c2.476563-.582031 4.585938-2.195313 5.796875-4.433594 1.210938-2.238281 1.410156-4.890625.542969-7.28125-1.851563-6.515625-7.4375-11.285156-14.164063-12.085937-6.671874-.675782-13.167968 2.425781-16.839843 8.039062-2.597657 4.160156-3.070313 9.304688-1.273438 13.867188 1.53125 4.164062 5.9375 6.519531 10.25 5.476562zm0 0" fill="#cbb292" fill-opacity="1" data-original-color="#cbb292ff" stroke="none" stroke-opacity="1"/></g><path d="m512.355469 171.257812c-3.738281 5.484376-8.027344 10.570313-12.800781 15.179688l-6.355469-1.234375c-4.773438-.882813-7.933594-5.464844-7.0625-10.238281.390625-2.328125 1.710937-4.398438 3.660156-5.730469s4.355469-1.8125 6.667969-1.332031l15.625 2.914062c.097656.140625.183594.289063.265625.441406zm0 0" fill="#2c2f38" fill-opacity="1" data-original-color="#2c2f38ff" stroke="none" stroke-opacity="1"/><path d="m467.953125 141.417969c0 4.875-3.953125 8.828125-8.828125 8.828125s-8.828125-3.953125-8.828125-8.828125 3.953125-8.828125 8.828125-8.828125 8.828125 3.953125 8.828125 8.828125zm0 0" fill="#2c2f38" fill-opacity="1" data-original-color="#2c2f38ff" stroke="none" stroke-opacity="1"/><path d="m132.503906 417.722656v15.09375c.023438 1.09375-.183594 2.175782-.617187 3.179688l-6.09375-2.382813c-1.382813-.613281-2.835938-1.058593-4.324219-1.324219l-6.621094-1.414062v-13.152344c0-4.875 3.953125-8.828125 8.828125-8.828125s8.828125 3.953125 8.828125 8.828125zm0 0" fill="#84a4a5" fill-opacity="1" data-original-color="#7f8c8dff" stroke="none" stroke-opacity="1"/><path d="m220.78125 444.203125v23.570313c.015625.386718-.011719.769531-.089844 1.148437l-5.03125-.53125c-2.464844-.1875-4.882812-.785156-7.152344-1.765625l-5.382812-2.117188v-20.304687c0-4.875 3.953125-8.824219 8.828125-8.824219s8.828125 3.949219 8.828125 8.824219zm0 0" fill="#84a4a5" fill-opacity="1" data-original-color="#7f8c8dff" stroke="none" stroke-opacity="1"/><path d="m414.984375 453.03125v18.363281l-2.292969 1.324219c-4.238281 2.722656-9.175781 4.160156-14.210937 4.148438h-1.0625c-.074219-.378907-.105469-.761719-.085938-1.148438v-22.6875c0-4.875 3.953125-8.828125 8.828125-8.828125s8.824219 3.953125 8.824219 8.828125zm0 0" fill="#84a4a5" fill-opacity="1" data-original-color="#7f8c8dff" stroke="none" stroke-opacity="1"/></g></svg>