<svg width="300" height="300" viewBox="0 0 300 300" fill="none" xmlns="http://www.w3.org/2000/svg">
<g clip-path="url(#clip0_634_20399)">
<path d="M221.18 67.34C197.06 71.8971 116.965 80.9585 102.015 4.50965C102.015 4.50965 104.063 4.06562 107.737 3.69941C123.138 2.17963 167.127 2.12012 208.319 42.6734C213.572 47.8439 218.786 53.6803 223.887 60.2607C225.918 62.886 224.441 66.7289 221.18 67.34Z" fill="#6E7A3F"/>
<path d="M208.318 42.6734C181.677 46.0609 130.338 46.3126 107.736 3.69941C123.138 2.17963 167.127 2.12012 208.318 42.6734Z" fill="#AAC672"/>
<path d="M183.309 145.466C147.219 133.046 119.677 104.596 110.064 63.8577C105.095 42.7983 105.21 23.2609 105.798 12.8857C118.185 21.7388 145.914 40.2874 170.381 47.646C170.816 47.7765 171.251 47.8382 171.681 47.8382C173.618 47.8382 175.405 46.5794 175.994 44.6316C176.708 42.249 175.357 39.7381 172.977 39.0194C139.638 28.9944 105.763 0.491743 102.71 0.0568669C100.941 -0.226947 99.1373 0.564985 98.1668 2.13283C81.7858 28.6145 70.5797 54.9977 64.8554 80.5455C60.2503 101.106 59.1631 121.177 61.6281 140.199C65.8602 172.842 81.827 196.129 82.3832 196.886C83.2644 198.081 84.6262 198.715 86.0064 198.715C86.931 198.715 87.8649 198.429 88.6683 197.841C90.671 196.371 91.1036 193.554 89.6387 191.549C89.5151 191.379 74.3174 168.995 70.4882 138.464C67.2838 112.923 69.6436 73.0542 96.4731 23.0618C96.4685 34.2953 97.4344 49.4313 101.234 65.6521C105.731 84.8599 113.294 101.561 123.712 115.285C136.804 132.534 158.768 146.546 180.379 153.982C182.734 154.792 185.293 153.538 186.103 151.188C186.911 148.837 185.662 146.273 183.309 145.466Z" fill="#7D9456"/>
<path d="M145.77 257.689C139.501 280.081 119.547 297.336 94.8988 299.288L88.2338 299.817C56.1514 302.358 27.944 278.176 26.4288 246.028C25.7284 231.047 30.9447 217.074 40.0725 206.459C46.0829 199.468 53.7802 193.939 62.6082 190.535C64.0776 189.97 65.6157 189.695 67.1515 189.695C69.6738 189.695 72.1846 190.439 74.3521 191.863C79.09 194.973 85.2972 194.671 89.7169 191.123L91.3809 189.791C94.377 187.383 98.2794 186.404 102.051 187.136C125.75 191.76 144.587 211.286 147.457 236.247C148.311 243.675 147.668 250.917 145.77 257.689Z" fill="#CE0F2C"/>
<path d="M145.77 257.689C136.198 268.852 122.321 276.4 106.512 277.655L99.8474 278.183C67.7651 280.722 39.5508 256.536 38.0379 224.389C37.7495 218.186 38.4682 212.151 40.0726 206.459C46.0831 199.468 53.7804 193.939 62.6084 190.535C64.0778 189.97 65.6159 189.695 67.1517 189.695C69.6739 189.695 72.1848 190.439 74.3523 191.863C79.0901 194.973 85.2974 194.671 89.7171 191.123L91.3811 189.791C94.3772 187.383 98.2796 186.404 102.052 187.136C125.75 191.76 144.587 211.286 147.457 236.247C148.311 243.675 147.668 250.917 145.77 257.689Z" fill="#FF3F5A"/>
<path d="M272.872 191.908C270.938 199.184 267.546 206.197 262.653 212.502L258.551 217.78C238.803 243.191 201.924 247.73 177.154 227.178C158.02 211.301 151.899 185.259 160.553 163.055C161.309 161.116 162.522 159.429 164.053 158.095C165.584 156.763 167.427 155.783 169.445 155.268C169.915 155.147 170.37 155.003 170.814 154.836C175.589 153.046 178.932 148.603 179.258 143.421L179.395 141.295C179.635 137.457 181.544 133.916 184.632 131.627C204.02 117.235 231.136 116.484 251.509 131.19C271.149 145.367 278.727 169.827 272.872 191.908Z" fill="#CE0F2C"/>
<path d="M272.873 191.908L272.562 192.304C252.811 217.714 215.932 222.253 191.169 201.699C176.843 189.811 169.819 172.235 170.815 154.836C175.589 153.046 178.933 148.603 179.258 143.421L179.395 141.295C179.636 137.457 181.545 133.916 184.632 131.627C204.021 117.235 231.136 116.484 251.509 131.19C271.15 145.367 278.728 169.827 272.873 191.908Z" fill="#FF3F5A"/>
</g>
<defs>
<clipPath id="clip0_634_20399">
<rect width="300" height="300" fill="white"/>
</clipPath>
</defs>
</svg>
