<svg id="icons" height="512" viewBox="0 0 340 340" width="512" xmlns="http://www.w3.org/2000/svg"><path d="m97.03 37.323a22.662 22.662 0 0 0 -13.642 7.477l-7.25 8.254c-22.146 7.072-49.786 24.783-60.164 68.823-12.774 54.215-6.009 107.088 14.006 140.683 12.872 21.607 35.548 34.522 59.746 34.522 36.093-3.065 56.425-14.763 70.349-29.971 39.206-95.627 33.232-159.7-37.715-225.3-5.053-2.446-9.905-4.946-25.33-4.488z" fill="#bc8875"/><path d="m55.752 105.238a3.495 3.495 0 0 1 -3.316-4.586l1-3.037a3.491 3.491 0 1 1 6.633 2.185l-1 3.037a3.493 3.493 0 0 1 -3.317 2.401z" fill="#7f4c45"/><path d="m44.883 135.155a3.555 3.555 0 0 1 -.661-.063 3.491 3.491 0 0 1 -2.772-4.086l.773-4.038a3.491 3.491 0 1 1 6.858 1.313l-.773 4.038a3.493 3.493 0 0 1 -3.425 2.836z" fill="#7f4c45"/><path d="m41.185 205.877a3.492 3.492 0 0 1 -3.425-2.835l-.773-4.042a3.491 3.491 0 1 1 6.858-1.313l.773 4.038a3.494 3.494 0 0 1 -3.433 4.148z" fill="#7f4c45"/><path d="m66.137 135.154c-.111 0-.223 0-.337-.016a3.492 3.492 0 0 1 -3.143-3.808l.387-4.038a3.491 3.491 0 0 1 6.951.665l-.387 4.043a3.49 3.49 0 0 1 -3.471 3.154z" fill="#7f4c45"/><path d="m40.058 169.019a3.491 3.491 0 0 1 -3.491-3.492v-4.038a3.492 3.492 0 1 1 6.983 0v4.038a3.491 3.491 0 0 1 -3.492 3.492z" fill="#7f4c45"/><path d="m62.842 169.019a3.491 3.491 0 0 1 -3.492-3.492v-4.038a3.492 3.492 0 1 1 6.983 0v4.038a3.491 3.491 0 0 1 -3.491 3.492z" fill="#7f4c45"/><path d="m86.95 135.154a3.491 3.491 0 0 1 -3.492-3.491v-4.038a3.492 3.492 0 1 1 6.983 0v4.038a3.491 3.491 0 0 1 -3.491 3.491z" fill="#7f4c45"/><path d="m198.294 121.872c-9.688-41.11-34.416-59.277-55.677-67.264 0 0 .2.09.565.284l-.565-.284a19.694 19.694 0 0 1 -9.617-7.854 22.321 22.321 0 0 0 -18.22-10.462 98.722 98.722 0 0 0 -17.75 1.031s11.985-.287 18.261 6.945c2.856 3.293 2.322 8.68-2.129 8.989l-4.564.317a1.723 1.723 0 0 0 -.321 3.386c21.985 5.669 61.168 24.954 61.743 90.42a61.252 61.252 0 0 1 -8.651 32.092l-.108.179c-8.731 14.434-19.179 37.745-19.164 66.63a48.047 48.047 0 0 1 -28.262 43.642 101.089 101.089 0 0 1 -24.109 7.159h34.816c24.2 0 46.874-12.915 59.746-34.522 20.012-33.595 26.782-86.468 14.006-140.688z" fill="#7f4c45"/><path d="m260.453 125.273s83.2 33.674 68.288 106.972a84.933 84.933 0 0 1 -5.935 18.484c-22.7 49.474-70.756 64.853-114.47 43.934a155.293 155.293 0 0 1 -27.644-16.8z" fill="#bc8875"/><path d="m245.649 274.6-46.1-32.8-18.852 36.063a155.329 155.329 0 0 0 27.644 16.8c30.088 14.4 62.23 11.6 86.748-7.677-24.295 5.14-49.44-12.386-49.44-12.386z" fill="#7f4c45"/><path d="m231.465 124.161a31.634 31.634 0 0 1 44.3 21.752c4.629 20.541 4.519 51.421-16.321 90.577-10.613 19.943-23.167 32.967-35.626 41.411-29.3 19.859-61.42-2.973-58.359-40.14 1.206-14.645 5.469-32.361 14.867-52.034 18.207-38.114 35.045-53.934 51.139-61.566z" fill="#a9db89"/><path d="m221.781 181.576c-7.9 6.934-17.443 19.234-20.714 39.594a7.152 7.152 0 0 0 12.253 6.019c2-2.106 3.433-6.118 5.107-9.984 5.825-13.449 12.841-12.51 14.094-30.176.453-6.387-5.929-9.678-10.74-5.453z" fill="#eaffdc"/><g fill="#333"><path d="m232.354 169.119c2 1.208 4.035-.458 4.616-1.751a50.709 50.709 0 0 0 3.561-11.455 3.491 3.491 0 0 0 -6.892-1.122 44.337 44.337 0 0 1 -3.039 9.709 3.659 3.659 0 0 0 1.754 4.619z"/><path d="m220.224 157.7a3.492 3.492 0 0 0 -6.937.808l.817 7.008c.207 1.778 1.995 3.525 3.872 3.064a3.666 3.666 0 0 0 3.064-3.872z"/><path d="m204.917 170.546a3.492 3.492 0 0 0 -5.746 3.969l2.753 3.985a4.2 4.2 0 0 0 4.858.888c1.752-.806 1.984-3.27.888-4.857z"/><path d="m191.47 192.3 3.71 2.2a3.491 3.491 0 0 0 3.56-6.007l-3.71-2.2a3.491 3.491 0 1 0 -3.56 6.007z"/><path d="m192.97 227.375a3.493 3.493 0 0 0 -4.65-1.66l-5.221 2.473a3.492 3.492 0 0 0 1.5 6.648c.5 0 6.714-2.81 6.714-2.81a3.493 3.493 0 0 0 1.657-4.651z"/><path d="m200.639 239.181a3.493 3.493 0 0 0 -4.773 1.262l-4.4 7.558a3.461 3.461 0 0 0 1.263 4.774 3.4 3.4 0 0 0 4.773-1.262l4.4-7.558a3.493 3.493 0 0 0 -1.263-4.774z"/><path d="m217.309 241.639a3.492 3.492 0 0 0 -6.894 1.119 49.231 49.231 0 0 0 2.422 9.166c.559 1.341 1.906 2.514 3.224 2.15 2.846-.786 3.964-3.055 3.222-4.835a42.826 42.826 0 0 1 -1.974-7.6z"/><path d="m229.974 230.289a3.491 3.491 0 1 0 -5.016 4.858l4.26 4.4c.685.707 2.664 1.467 4.937.079 1.645-1 1.419-3.553.078-4.937z"/><path d="m251.425 203.423c-4.16-.555-7.454-.832-7.591-.843a3.492 3.492 0 1 0 -.581 6.959 33.5 33.5 0 0 0 7.248.806 3.748 3.748 0 0 0 3.923-3 3.492 3.492 0 0 0 -2.999-3.922z"/><path d="m255.443 188.06a36.231 36.231 0 0 0 -11.708 0 3.492 3.492 0 0 0 1.259 6.869 28.226 28.226 0 0 1 9.185 0 3.246 3.246 0 0 0 4.066-2.8 3.492 3.492 0 0 0 -2.802-4.069z"/><path d="m248.144 176.808a3.553 3.553 0 1 0 -5.025-.035 3.554 3.554 0 0 0 5.025.035z"/><path d="m235.414 218.508a3.553 3.553 0 1 0 5.025.035 3.552 3.552 0 0 0 -5.025-.035z"/><circle cx="189.814" cy="209.613" r="3.553" transform="matrix(.95 -.311 .311 .95 -55.81 69.486)"/></g></svg>