<svg id="icons" height="512" viewBox="0 0 340 340" width="512" xmlns="http://www.w3.org/2000/svg"><path d="m216.738 26c-6.387 11.1-13.738 27.684-15.208 46.973h-31.53s3.049-38.788 38.533-55.735a6.287 6.287 0 0 1 8.205 8.762z" fill="#719b56"/><path d="m194.709 86.853 15.872-1.986c10.4-17.081 31.242-24.846 41.7-27.785a2.58 2.58 0 0 0 .424-4.806c-14.761-7.047-29.493-4.516-47.332 9.553a56.8 56.8 0 0 1 -13.488 7.892z" fill="#a9db89"/><path d="m135.161 11.681c11.069 3.854 25.147 11 35.512 24.037 6.179 9.689 2.135 18.329-2.576 26.9-13.285 6.16-22.953 4.334-28.819-5.886-1.69-10.9-5.1-23.912-11.9-35.8a6.459 6.459 0 0 1 7.783-9.251z" fill="#a9db89"/><path d="m162.947 57.915a19.248 19.248 0 0 1 -22.719-.387c-.359-.281-.667-.544-.952-.8a124.558 124.558 0 0 1 1.482 24.742h44.212c.284-20.234-5.752-34.988-14.309-45.745 4.681 10.631-1.386 17.86-7.714 22.19z" fill="#719b56"/><path d="m147.482 86.853.63-17.132a56.8 56.8 0 0 1 -13.488-7.892c-17.839-14.069-32.571-16.6-47.332-9.553a2.58 2.58 0 0 0 .424 4.806c10.461 2.939 31.3 10.7 41.7 27.785z" fill="#a9db89"/><path d="m196.137 80.032a45.1 45.1 0 0 0 -4.249-10.311 57.379 57.379 0 0 1 -43.776 0 45.1 45.1 0 0 0 -4.249 10.311 5.439 5.439 0 0 1 -5.387 3.994 47.074 47.074 0 0 0 -9.057.841 41.96 41.96 0 0 1 5.777 16.227l30.4 11.68h8.804l30.4-11.68a41.96 41.96 0 0 1 5.777-16.227 47.074 47.074 0 0 0 -9.057-.841 5.439 5.439 0 0 1 -5.383-3.994z" fill="#719b56"/><path d="m168.045 60.537c-10.966 7.238-15.754 17.529-17.763 26.315l19.78 14.589 19.656-14.589c-2.009-8.786-6.8-19.077-17.763-26.315a3.559 3.559 0 0 0 -3.91 0z" fill="#a9db89"/><path d="m170 109.06 20.78-4.74a52.761 52.761 0 0 0 -1.068-17.467 29.359 29.359 0 0 0 -9.7 4.711 3.633 3.633 0 0 1 -4.682-.194 27.84 27.84 0 0 0 -3.592-2.817 3.148 3.148 0 0 0 -3.472 0 27.84 27.84 0 0 0 -3.592 2.817 3.633 3.633 0 0 1 -4.682.194 29.359 29.359 0 0 0 -9.7-4.711 52.761 52.761 0 0 0 -1.068 17.467z" fill="#719b56"/><path d="m154.4 115.831 3.991-16.843c-9.254-5.95-23.234-10.7-38.947-1.5a2.58 2.58 0 0 0 .613 4.729 46.141 46.141 0 0 1 20 10.78z" fill="#a9db89"/><path d="m181.609 98.988 3.784 16.843 14.547-2.831a46.141 46.141 0 0 1 20-10.78 2.58 2.58 0 0 0 .613-4.729c-15.71-9.201-29.69-4.453-38.944 1.497z" fill="#a9db89"/><path d="m186.627 109.846a41.258 41.258 0 0 0 -5.018-10.858 53.168 53.168 0 0 0 -11.609 10.072 53.168 53.168 0 0 0 -11.609-10.072 41.258 41.258 0 0 0 -5.018 10.858 4.342 4.342 0 0 1 -4.616 3.154 41.911 41.911 0 0 0 -8.7-.005 38.777 38.777 0 0 1 11.068 19.675h37.744a38.777 38.777 0 0 1 11.071-19.67 41.911 41.911 0 0 0 -8.7.005 4.342 4.342 0 0 1 -4.613-3.159z" fill="#719b56"/><path d="m172.371 97.019a3.643 3.643 0 0 0 -4.742 0c-12.806 10.765-13.372 31.772-10.332 40.957h25.403c3.043-9.185 2.28-30.412-10.329-40.957z" fill="#a9db89"/><path d="m168.362 130.372c-4.24-5.265-16.953-17.125-40.9-8.946a2.578 2.578 0 0 0 -.007 4.875c8.471 2.881 21.395 9.771 22.534 25.151h40.02c1.139-15.38 14.063-22.27 22.534-25.151a2.578 2.578 0 0 0 -.007-4.875c-23.946-8.179-36.659 3.681-40.9 8.946a2.1 2.1 0 0 1 -3.274 0z" fill="#719b56"/><path d="m177.019 142.491h-23.313q-1.44 0-2.863.049c-3.2 1.843-6.52 2.523-10.055 1.006-11.893 2-22.431 6.826-30.353 14.223a8.183 8.183 0 0 1 -4.756 5.152c-6.092 7.687-9.821 17.438-10.255 29.068-.176 4.721-.32 9.6-.412 14.6a35.81 35.81 0 0 1 -.1 14.229c.019 4.029.082 8.093.2 12.164a9.953 9.953 0 0 1 .264 7.2 296.281 296.281 0 0 0 3.855 37.563q.538 3.054 1.34 5.92a15.66 15.66 0 0 1 3.135 8.586c5.742 12.518 15.542 21.727 27.355 27.757a11.223 11.223 0 0 1 6.7 3 81.245 81.245 0 0 0 13.026 3.835s82.213 8.211 82.213-92.178c0-88.724-55.981-92.174-55.981-92.174z" fill="#ffd066"/><g fill="#ed9d3e"><path d="m240.773 277.741c4.775-27.1 4.8-59.028 3.8-85.752-1.185-31.756-26.938-49.5-58.282-49.5h-9.275c10.182 5.988 36.188 25.617 39.167 71.178 3.648 55.8-1.58 108.944-65.4 113.159a90.952 90.952 0 0 0 19.217 1.867c32.3.293 64.637-16.136 70.773-50.952z"/><path d="m206.771 312.033a26.464 26.464 0 0 0 -11.841-15.95 3.491 3.491 0 0 0 -2.433-.349 24.674 24.674 0 0 0 -12.508 6.686 3.5 3.5 0 0 0 .562 5.442 3.513 3.513 0 0 0 4.381-.529 16.569 16.569 0 0 1 3.287-2.566 6.139 6.139 0 0 1 7.751 1.271 18.8 18.8 0 0 1 4.063 7.836 3.484 3.484 0 0 0 4.233 2.57 3.661 3.661 0 0 0 2.505-4.411z"/><path d="m198.273 289.235c2.059-5.9 9.164-13.9 18.563-17.831a43.369 43.369 0 0 1 8.789 9.01 3.627 3.627 0 0 0 4.8 1.083 3.491 3.491 0 0 0 .994-4.983 50.1 50.1 0 0 0 -10.306-10.632 50.763 50.763 0 0 0 .427-8.689 43.412 43.412 0 0 1 13.76-13.055 3.618 3.618 0 0 0 1.481-4.68 3.489 3.489 0 0 0 -4.877-1.425 50.368 50.368 0 0 0 -12.068 9.955 44.6 44.6 0 0 0 -15.623-23.635 11.712 11.712 0 0 1 -4.413-7.623c-2.876-19.454-13.847-29.99-21.339-35.04a8.181 8.181 0 0 1 -3.369-8.975 38.2 38.2 0 0 1 14.37-20.971 6.848 6.848 0 0 1 8.149.081c13.559 10.259 17.5 30.886 18.5 38.094a34.922 34.922 0 0 0 -13.8 11.454 3.589 3.589 0 0 0 .166 4.561 3.5 3.5 0 0 0 5.388-.325 27.313 27.313 0 0 1 11.8-9.633 36.831 36.831 0 0 1 13.841 11.55 3.49 3.49 0 0 0 4.95.712 3.633 3.633 0 0 0 .549-5.022 43.68 43.68 0 0 0 -15.805-13.261c-.206-3.959-.112-13.617 4.822-21.065a3.632 3.632 0 0 0 -.664-4.872 3.491 3.491 0 0 0 -5.024.815 32.641 32.641 0 0 0 -3.451 6.748c-3.11-8.85-8.316-18.671-16.979-25.262a13.822 13.822 0 0 0 -16.6-.188 44.052 44.052 0 0 0 -9.379 9.345 7.029 7.029 0 0 1 -11.53-.275c-4.924-7.334-10.308-11.132-13.555-12.66a76.754 76.754 0 0 0 -10.052 1.018c-8.5 4.863-13.527 12.764-16.965 20.79a4.137 4.137 0 0 1 -7.3.61 31.276 31.276 0 0 0 -6.082-7.178 47 47 0 0 0 -4.756 5.148c6.585 5.557 9.211 14.617 10.254 21.177a7.793 7.793 0 0 1 -4.043 8.076 51.592 51.592 0 0 0 -16.886 14.4c-.086 4.665-.122 9.422-.1 14.229a44.066 44.066 0 0 1 20.374-22.532 9.729 9.729 0 0 1 10.448.74c3.922 2.916 8.737 8.15 11.808 17.3a8.417 8.417 0 0 1 -2.442 8.983 52.126 52.126 0 0 0 -11.242 14.175 7.008 7.008 0 0 1 -10.556 2.113 42.558 42.558 0 0 0 -18.184-8.613c.068 2.4.149 4.8.258 7.2a36.3 36.3 0 0 1 20.848 14.753 9.421 9.421 0 0 1 1.6 4.6l.156 2.128a7.64 7.64 0 0 1 -3.21 7.04 51.328 51.328 0 0 0 -14.186 14.961 57.705 57.705 0 0 0 3.136 8.583 49.8 49.8 0 0 1 10.373-14.105 12.047 12.047 0 0 1 15.841-.481 39.678 39.678 0 0 1 8.9 10.515 11.965 11.965 0 0 1 -.632 13 41.728 41.728 0 0 0 -7.134 18.824c2.17 1.107 4.4 2.12 6.693 3.014a37.548 37.548 0 0 1 3.9-14.161 7.724 7.724 0 0 1 10.7-3.095c11.846 6.826 13.257 14.64 15.385 19.8a3.512 3.512 0 0 0 4.424 1.98c2.082-.771 2.472-2.929 1.883-4.94-2.575-8.791-6.216-15.273-18.487-23.434-4.232-2.815-5.606-8.412-3.959-13.22a56.132 56.132 0 0 1 10.295-18.396 12.321 12.321 0 0 1 17.395-1.316 34.73 34.73 0 0 1 12.221 22.283zm-73.4-105c1.934-9.283 6.613-24.154 17.5-32.4a6.91 6.91 0 0 1 8.217-.1 38.191 38.191 0 0 1 14.256 20.76 8.234 8.234 0 0 1 -3.241 9.15 48.857 48.857 0 0 0 -19.623 26.98 38.7 38.7 0 0 0 -13.752-16.356 7.712 7.712 0 0 1 -3.353-8.031zm11.87 90.149a46.143 46.143 0 0 0 -8.15-6.2 7.488 7.488 0 0 1 -3.575-5.886l-.166-2.264a19.31 19.31 0 0 1 .909-7.394c3.838-11.755 9.917-18.652 14.123-22.267a7.029 7.029 0 0 1 7.512-1.065 32.226 32.226 0 0 1 17.653 19.677 7.256 7.256 0 0 1 -2.637 8.065 57.432 57.432 0 0 0 -14.927 15.987 6.955 6.955 0 0 1 -10.738 1.35zm77.771-17.732c.008.13.017.26.024.389a11.7 11.7 0 0 1 -5.843 10.663 44.345 44.345 0 0 0 -6.1 4.365 7.055 7.055 0 0 1 -10.453-1.7 47.3 47.3 0 0 0 -13.973-13.651 7.282 7.282 0 0 1 -2.888-8.588 32.483 32.483 0 0 1 17.888-19.08 6.625 6.625 0 0 1 6.694.751c4.937 3.747 12.593 11.828 14.655 26.854zm-28.314-31.878a38.8 38.8 0 0 0 -10.782 9.151 6.975 6.975 0 0 1 -10.84 0 39.13 39.13 0 0 0 -12.612-10.15 8.336 8.336 0 0 1 -4.31-9.093c3.232-15.4 12.327-23.647 18.231-27.51a7.423 7.423 0 0 1 8.17.019 42.649 42.649 0 0 1 17.551 24.55 11.544 11.544 0 0 1 -5.408 13.033z"/><path d="m218.627 219.543-.268 3.742a3.493 3.493 0 0 0 3.234 3.732c.085 0 .169.008.253.008a3.491 3.491 0 0 0 3.479-3.242l.267-3.742a3.491 3.491 0 1 0 -6.965-.5z"/><path d="m216.486 285.981a3.493 3.493 0 0 0 -3.779 3.179l-.275 3.181a3.492 3.492 0 0 0 3.179 3.779c.1.009.2.013.3.013a3.492 3.492 0 0 0 3.475-3.192l.274-3.181a3.491 3.491 0 0 0 -3.174-3.779z"/><path d="m145.056 179.479a3.491 3.491 0 0 0 3.492-3.492v-4.108a3.492 3.492 0 1 0 -6.983 0v4.108a3.491 3.491 0 0 0 3.491 3.492z"/><path d="m121.641 223.285-.268-3.742a3.491 3.491 0 1 0 -6.965.5l.267 3.742a3.491 3.491 0 0 0 3.479 3.242c.084 0 .168 0 .253-.008a3.493 3.493 0 0 0 3.234-3.734z"/><path d="m143.437 246a3.491 3.491 0 0 0 -3.2 3.764l.353 4.336a3.491 3.491 0 0 0 3.476 3.207c.095 0 .192 0 .288-.012a3.49 3.49 0 0 0 3.2-3.763l-.354-4.332a3.485 3.485 0 0 0 -3.763-3.2z"/><path d="m123.514 285.981a3.491 3.491 0 0 0 -3.178 3.779l.274 3.181a3.492 3.492 0 0 0 3.475 3.192c.1 0 .2 0 .3-.013a3.492 3.492 0 0 0 3.179-3.779l-.275-3.181a3.485 3.485 0 0 0 -3.775-3.179z"/><path d="m189.457 171.879v4.108a3.492 3.492 0 1 0 6.983 0v-4.108a3.492 3.492 0 1 0 -6.983 0z"/><path d="m192.8 249.2-.354 4.336a3.49 3.49 0 0 0 3.2 3.763c.1.008.192.012.288.012a3.492 3.492 0 0 0 3.476-3.207l.353-4.336a3.491 3.491 0 1 0 -6.959-.568z"/><path d="m166.509 209.055v4.614a3.492 3.492 0 1 0 6.983 0v-4.614a3.492 3.492 0 0 0 -6.983 0z"/><path d="m170 276.307a3.491 3.491 0 0 0 -3.491 3.491v5.033a3.492 3.492 0 1 0 6.983 0v-5.031a3.491 3.491 0 0 0 -3.492-3.493z"/><path d="m191.511 288.51s.218 5.5-2.491 8.219l9.395 1.883s-1.733-2.848-.142-9.377z"/></g></svg>