<svg width="129" height="129" viewBox="0 0 129 129" fill="none" xmlns="http://www.w3.org/2000/svg">
<g clip-path="url(#clip0_369_12772)">
<rect x="0.589844" y="0.0664062" width="128" height="128" rx="64" fill="#289848"/>
<rect x="0.589844" y="0.0664062" width="128" height="128" rx="64" fill="#289848"/>
<path d="M-15.2226 63.2365C-15.6783 63.5335 -15.6761 64.2016 -15.2185 64.4957L64.1832 115.525C64.4297 115.684 64.7458 115.684 64.9926 115.526L144.831 64.5002C145.292 64.2055 145.293 63.5322 144.832 63.2369L64.5482 11.7695C64.2998 11.6102 63.9811 11.6114 63.7339 11.7725L-15.2226 63.2365Z" fill="#FFED27"/>
<path d="M65.4816 96.9867C84.1434 96.9867 99.2718 81.8583 99.2718 63.1965C99.2718 44.5346 84.1434 29.4062 65.4816 29.4062C46.8198 29.4062 31.6914 44.5346 31.6914 63.1965C31.6914 81.8583 46.8198 96.9867 65.4816 96.9867Z" fill="#1B3B87"/>
<path d="M65.4816 96.9867C84.1434 96.9867 99.2718 81.8583 99.2718 63.1965C99.2718 44.5346 84.1434 29.4062 65.4816 29.4062C46.8198 29.4062 31.6914 44.5346 31.6914 63.1965C31.6914 81.8583 46.8198 96.9867 65.4816 96.9867Z" fill="#1B3B87"/>
<path d="M98.8264 68.8496C98.8264 68.8496 87.2258 59.1404 71.5256 53.6516C55.7311 48.1302 35.8351 46.8323 35.2739 47.9825C34.0134 50.2648 33.1133 53.3237 33.1133 53.3237C33.1133 53.3237 48.9274 52.5354 67.1996 58.5747C77.146 61.862 88.6947 67.498 96.9243 75.6748C98.3027 72.3942 98.8219 68.8496 98.8219 68.8496H98.8264Z" fill="#F9F9F9"/>
<path d="M38.6197 51.8381C38.1139 51.8304 37.7119 51.6651 37.4136 51.3423C37.1153 51.0195 36.9702 50.5932 36.9783 50.0634C36.9865 49.5277 37.1454 49.1045 37.4548 48.794C37.7643 48.4835 38.178 48.3322 38.6957 48.3402C39.2105 48.348 39.6178 48.5119 39.9176 48.8317C40.2189 49.1516 40.3655 49.5771 40.3574 50.1084C40.3491 50.6517 40.1895 51.0778 39.8785 51.3868C39.5691 51.6958 39.1494 51.8462 38.6197 51.8381ZM38.6357 51.379C38.9329 51.3836 39.1695 51.2709 39.3457 51.0409C39.5233 50.8094 39.6152 50.4941 39.6213 50.0949C39.6273 49.7077 39.545 49.3957 39.3745 49.1589C39.2039 48.9221 38.9754 48.8015 38.6887 48.7972C38.3991 48.7927 38.1654 48.9062 37.9877 49.1377C37.8116 49.3692 37.7205 49.6808 37.7145 50.0725C37.7085 50.4612 37.79 50.7754 37.959 51.0152C38.128 51.2534 38.3536 51.3747 38.6357 51.379Z" fill="#289848"/>
<path d="M41.8632 51.835L42.0794 48.5098L43.3241 48.5907C43.9996 48.6345 44.3195 48.9313 44.2837 49.481C44.2704 49.6862 44.2006 49.8697 44.0742 50.0315C43.9495 50.1918 43.7838 50.3104 43.5773 50.3873L44.5638 52.0104L43.7213 51.9557L42.9851 50.5428L42.6031 50.518L42.5148 51.8773L41.8632 51.835ZM42.6328 50.0619L42.7923 50.0723C43.2941 50.1049 43.5581 49.9182 43.5845 49.5123C43.6038 49.2158 43.3895 49.0529 42.9417 49.0238L42.7013 49.0082L42.6328 50.0619Z" fill="#289848"/>
<path d="M45.8159 52.1074L46.1888 48.7961L47.614 48.9566C48.1271 49.0144 48.5048 49.1951 48.747 49.4988C48.9894 49.801 49.0817 50.2087 49.0239 50.7218C48.9624 51.2677 48.77 51.6758 48.4465 51.946C48.1232 52.2147 47.7013 52.3197 47.1807 52.2611L45.8159 52.1074ZM46.5579 51.7152L47.0725 51.7731C47.435 51.8139 47.7162 51.7444 47.9162 51.5645C48.1179 51.3833 48.2417 51.0884 48.2877 50.6797C48.3234 50.3635 48.2814 50.0921 48.1619 49.8657C48.0797 49.7099 47.9724 49.5966 47.8399 49.5258C47.7074 49.455 47.5084 49.4047 47.2429 49.3748L46.8268 49.3279L46.5579 51.7152Z" fill="#289848"/>
<path d="M50.3082 52.6491L50.8238 49.3571L52.8813 49.6795L52.8105 50.131L51.4382 49.916L51.2943 50.8346L52.4198 51.011L52.3508 51.4514L51.2253 51.2751L51.0665 52.2893L52.5434 52.5207L52.4703 52.9878L50.3082 52.6491Z" fill="#289848"/>
<path d="M53.7221 53.1782L54.3896 49.9135L55.2896 50.0975L55.6054 52.5545L56.8844 50.4237L57.6741 50.5852L57.0067 53.8499L56.3802 53.7218L56.8839 51.2578L55.6285 53.3405L55.0815 53.2287L54.7664 50.7903L54.256 53.2874L53.7221 53.1782Z" fill="#289848"/>
<path d="M66.093 56.1169L67.1359 52.952L68.2393 53.3156C68.6242 53.4424 68.8773 53.5977 68.9985 53.7814C69.1216 53.9642 69.1333 54.2067 69.0338 54.5089C68.921 54.8511 68.7227 55.0813 68.4388 55.1995C68.1567 55.3168 67.8176 55.3101 67.4212 55.1796L67.1475 55.0894L66.7388 56.3297L66.093 56.1169ZM67.2906 54.6553L67.4189 54.6976C67.6441 54.7718 67.8387 54.7782 68.0028 54.7169C68.1687 54.6546 68.2813 54.5336 68.3404 54.354C68.4443 54.039 68.2959 53.8154 67.8953 53.6834L67.6386 53.5989L67.2906 54.6553Z" fill="#289848"/>
<path d="M69.4226 57.2284L70.5898 54.1073L71.7581 54.5442C72.3922 54.7813 72.6128 55.1579 72.4198 55.6739C72.3478 55.8665 72.2279 56.022 72.0603 56.1404C71.8945 56.2579 71.7017 56.3236 71.4817 56.3375L71.9575 58.1764L71.1667 57.8806L70.8698 56.3153L70.5113 56.1813L70.0342 57.4571L69.4226 57.2284ZM70.6714 55.7532L70.8212 55.8092C71.2921 55.9853 71.5989 55.8829 71.7413 55.5019C71.8454 55.2235 71.6873 55.0057 71.2669 54.8485L71.0413 54.7641L70.6714 55.7532Z" fill="#289848"/>
<path d="M74.4329 59.2816C73.9678 59.0829 73.6583 58.7777 73.5045 58.366C73.3507 57.9543 73.3779 57.5048 73.5861 57.0175C73.7966 56.5248 74.1039 56.1933 74.508 56.0232C74.912 55.853 75.3521 55.8697 75.8283 56.0731C76.3018 56.2753 76.6167 56.5812 76.773 56.9908C76.9308 57.4009 76.9052 57.8503 76.6965 58.3389C76.483 58.8386 76.1738 59.1725 75.769 59.3407C75.3655 59.5094 74.9202 59.4898 74.4329 59.2816ZM74.6217 58.8628C74.895 58.9795 75.1567 58.9649 75.4068 58.8187C75.659 58.6718 75.8634 58.4148 76.0203 58.0476C76.1725 57.6915 76.2145 57.3716 76.1464 57.0879C76.0783 56.8042 75.9124 56.606 75.6487 56.4934C75.3824 56.3796 75.1231 56.3961 74.871 56.5431C74.6202 56.6906 74.4179 56.9444 74.264 57.3047C74.1113 57.6622 74.0677 57.9839 74.1332 58.2698C74.1994 58.5543 74.3622 58.7519 74.6217 58.8628Z" fill="#289848"/>
<path d="M79.869 61.5895C79.4463 61.5049 79.0986 61.3965 78.8257 61.2643C78.3083 61.0136 77.9763 60.6851 77.8295 60.2788C77.6848 59.8718 77.7355 59.4143 77.9815 58.9064C78.2256 58.4025 78.5519 58.0819 78.9603 57.9446C79.3701 57.8078 79.8317 57.8638 80.345 58.1125C80.6732 58.2715 80.9801 58.4677 81.2657 58.7011L81.0291 59.1895C80.7171 58.8799 80.4409 58.6668 80.2004 58.5503C79.883 58.3966 79.5887 58.3791 79.3177 58.498C79.0466 58.6168 78.8211 58.862 78.6411 59.2335C78.4671 59.5928 78.4228 59.9199 78.5084 60.2149C78.5947 60.5086 78.8006 60.7342 79.1261 60.8919C79.1977 60.9266 79.2864 60.9571 79.3921 60.9833L79.8701 59.9965L80.4942 60.2988L79.869 61.5895Z" fill="#289848"/>
<path d="M81.2701 62.383L82.8507 59.4496L83.9487 60.0412C84.5447 60.3623 84.712 60.7654 84.4507 61.2503C84.3531 61.4313 84.2133 61.5691 84.0311 61.6636C83.8509 61.7575 83.6509 61.7964 83.4311 61.7802L83.6525 63.6667L82.9092 63.2662L82.8279 61.6751L82.491 61.4936L81.8449 62.6927L81.2701 62.383ZM82.7078 61.0912L82.8485 61.167C83.2912 61.4056 83.609 61.3458 83.8019 60.9877C83.9429 60.7261 83.8158 60.4888 83.4207 60.2759L83.2087 60.1616L82.7078 61.0912Z" fill="#289848"/>
<path d="M84.7301 64.2707L86.4221 61.4001L88.2163 62.4575L87.9842 62.8513L86.7874 62.1459L86.3153 62.947L87.2967 63.5255L87.0704 63.9095L86.0889 63.331L85.5676 64.2155L86.8555 64.9746L86.6155 65.3819L84.7301 64.2707Z" fill="#289848"/>
<path d="M87.5374 65.9023L87.8446 65.42C88.0665 65.7393 88.2851 65.9675 88.5004 66.1045C88.651 66.2005 88.7908 66.2423 88.9196 66.2301C89.0497 66.2186 89.1514 66.1553 89.2248 66.04C89.2828 65.9489 89.3044 65.855 89.2894 65.7582C89.2753 65.6603 89.2197 65.5199 89.1226 65.337L89.0011 65.1128C88.8395 64.8106 88.7479 64.5618 88.7263 64.3665C88.7055 64.17 88.7504 63.985 88.8608 63.8116C89.0084 63.5799 89.2117 63.4478 89.4708 63.4153C89.7312 63.3836 90.0013 63.4569 90.2811 63.6351C90.5052 63.7778 90.7372 63.9709 90.9772 64.2145L90.6906 64.6646C90.4717 64.374 90.2787 64.1754 90.1116 64.069C89.9825 63.9867 89.8601 63.9497 89.7445 63.958C89.631 63.9658 89.5444 64.0165 89.4848 64.1102C89.4356 64.1874 89.4197 64.2725 89.437 64.3654C89.4544 64.4583 89.5114 64.5952 89.608 64.7759L89.738 65.0162C89.9121 65.3407 90.0098 65.5995 90.0309 65.7927C90.052 65.9859 90.0041 66.1743 89.8872 66.3578C89.7211 66.6187 89.4941 66.7614 89.206 66.7862C88.918 66.811 88.6037 66.7149 88.2631 66.498C88.0378 66.3545 87.7959 66.1559 87.5374 65.9023Z" fill="#289848"/>
<path d="M90.2825 67.6641L90.6055 67.1922C90.8168 67.5187 91.0277 67.754 91.2382 67.8981C91.3856 67.999 91.5239 68.0454 91.6531 68.0374C91.7835 68.0303 91.8872 67.9703 91.9644 67.8576C92.0254 67.7684 92.0501 67.6753 92.0384 67.5781C92.0275 67.4798 91.9766 67.3376 91.8856 67.1516L91.7716 66.9236C91.6201 66.6162 91.5368 66.3645 91.5217 66.1687C91.5075 65.9716 91.5584 65.7882 91.6746 65.6185C91.8297 65.3919 92.0373 65.2666 92.2974 65.2427C92.5587 65.2197 92.8263 65.3019 93.1 65.4892C93.3192 65.6393 93.5447 65.84 93.7764 66.0913L93.475 66.5316C93.2659 66.2339 93.0797 66.0291 92.9162 65.9172C92.7898 65.8307 92.6688 65.7897 92.553 65.7941C92.4393 65.7982 92.351 65.846 92.2883 65.9376C92.2366 66.0132 92.2178 66.0977 92.2321 66.1911C92.2464 66.2845 92.2988 66.4232 92.3894 66.607L92.5113 66.8514C92.6746 67.1815 92.7636 67.4434 92.7783 67.6371C92.793 67.8309 92.7389 68.0176 92.6159 68.1972C92.4413 68.4523 92.2096 68.5875 91.9209 68.6027C91.6322 68.6179 91.3213 68.5115 90.9881 68.2834C90.7676 68.1325 90.5324 67.9261 90.2825 67.6641Z" fill="#289848"/>
<path d="M94.2484 70.5839C93.8427 70.2817 93.6134 69.9125 93.5603 69.4762C93.5072 69.0399 93.6389 68.6093 93.9554 68.1844C94.2755 67.7547 94.6518 67.5044 95.0845 67.4336C95.5171 67.3628 95.9411 67.4821 96.3563 67.7914C96.7692 68.099 97.0037 68.4701 97.0598 68.9049C97.1171 69.3406 96.987 69.7715 96.6696 70.1976C96.3451 70.6334 95.9663 70.8856 95.5334 70.9543C95.1016 71.0238 94.6733 70.9004 94.2484 70.5839ZM94.53 70.2209C94.7683 70.3984 95.0262 70.4455 95.3036 70.362C95.5831 70.2782 95.8421 70.0762 96.0805 69.756C96.3119 69.4455 96.4276 69.1443 96.4279 68.8525C96.4281 68.5607 96.3132 68.3292 96.0833 68.158C95.851 67.9849 95.5951 67.9403 95.3156 68.0241C95.0373 68.1088 94.7812 68.3082 94.5472 68.6224C94.315 68.9341 94.1972 69.2367 94.194 69.53C94.1917 69.822 94.3037 70.0524 94.53 70.2209Z" fill="#289848"/>
<path d="M61.2184 55.0103L61.7693 52.8583L63.1143 53.2026L63.0388 53.4977L62.1416 53.2681L61.9879 53.8686L62.7237 54.057L62.65 54.3449L61.9142 54.1565L61.7445 54.8196L62.71 55.0667L62.6318 55.3721L61.2184 55.0103Z" fill="#289848"/>
<path fill-rule="evenodd" clip-rule="evenodd" d="M77.2081 53.1987L78.0898 53.6463L77.9063 52.6751L78.609 51.9724L77.6244 51.8426L77.1723 50.9609L76.7471 51.856L75.7715 52.0127L76.492 52.693L76.3354 53.6731L77.2081 53.1987ZM37.882 58.3963L38.8532 59.0184L38.7592 57.8682L39.6543 57.1387L38.531 56.8702L38.1148 55.796L37.5106 56.7806L36.3604 56.8478L37.1122 57.725L36.8169 58.8394L37.882 58.3963ZM53.054 65.5385L54.0699 66.0308L53.8461 64.9253L54.6294 64.1108L53.506 63.981L52.9734 62.9874L52.5035 64.0168L51.3936 64.2137L52.226 64.9746L52.0738 66.0935L53.054 65.5385ZM41.8375 73.038L40.8216 72.5457L39.8414 73.1052L39.9936 71.9863L39.1611 71.2255L40.2711 71.0241L40.7365 69.9992L41.2691 70.9927L42.3925 71.118L41.6092 71.9326L41.8375 73.038ZM36.0607 75.2641L36.7678 75.5774L36.5843 74.8255L37.1035 74.2482L36.3292 74.19L35.9443 73.5187L35.6489 74.2348L34.8926 74.3959L35.4789 74.9016L35.3983 75.6714L36.0607 75.2641ZM44.8229 70.5049L44.3351 70.1916L43.8025 70.4154L43.9502 69.8559L43.5742 69.4173L44.1516 69.386L44.4514 68.8937L44.6618 69.4308L45.2212 69.565L44.7737 69.9275L44.8229 70.5049ZM47.786 74.9223L48.4036 75.2759L48.3096 74.5687L48.8422 74.0943L48.1395 73.9601L47.8486 73.3066L47.5085 73.9332L46.7969 74.0093L47.2892 74.5285L47.1415 75.2266L47.786 74.9223ZM47.0608 79.0075L46.4432 78.6494L45.7987 78.9582L45.9464 78.2556L45.4541 77.7364L46.1657 77.6648L46.5059 77.0382L46.7968 77.6917L47.4994 77.8214L46.9668 78.3003L47.0608 79.0075ZM53.1886 82.4356L54.0703 82.8831L53.8913 81.9119L54.5894 81.2093L53.6048 81.084L53.1528 80.2023L52.7276 81.0974L51.752 81.254L52.4725 81.9343L52.3203 82.91L53.1886 82.4356ZM66.7541 69.3109L65.7381 68.8186L64.7535 69.3781L64.9102 68.2592L64.0732 67.4983L65.1877 67.2969L65.6531 66.2676L66.1857 67.2656L67.309 67.3909L66.5258 68.2055L66.7541 69.3109ZM74.0753 63.9409L74.957 64.3884L74.7735 63.4173L75.4762 62.7146L74.4915 62.5848L74.0395 61.7031L73.6143 62.5982L72.6387 62.7549L73.3592 63.4352L73.2026 64.4153L74.0753 63.9409ZM63.1726 71.9966L62.555 71.6385L61.9105 71.9473L62.0582 71.2492L61.5659 70.73L62.2775 70.6539L62.6177 70.0273L62.9086 70.6808L63.6112 70.8106L63.0786 71.2894L63.1726 71.9966ZM69.1621 72.1744L69.735 72.4429L69.6007 71.8253L70.0348 71.3598L69.4038 71.2971L69.095 70.7422L68.8399 71.324L68.2178 71.4448L68.6922 71.8655L68.6161 72.4966L69.1621 72.1744ZM65.7067 75.1284L65.1338 74.8599L64.5878 75.1821L64.6639 74.5511L64.1895 74.1304L64.8116 74.0095L65.0667 73.4277L65.3755 73.9827L66.0065 74.0454L65.5724 74.5108L65.7067 75.1284ZM66.4817 79.7059L67.4977 80.1982L67.2739 79.0927L68.0571 78.2782L66.9337 78.1529L66.4011 77.1593L65.9312 78.1842L64.8213 78.3856L65.6537 79.1465L65.5016 80.2653L66.4817 79.7059ZM88.5711 81.3802L89.2783 81.6935L89.0993 80.9416L89.6139 80.3643L88.8442 80.3061L88.4548 79.6348L88.1594 80.3509L87.403 80.512L87.9938 81.0132L87.9132 81.783L88.5711 81.3802ZM79.1323 81.9889L78.5594 81.7204L78.0134 82.0426L78.0895 81.416L77.6151 80.9953L78.2372 80.8745L78.4923 80.2927L78.8011 80.8476L79.4321 80.9103L78.998 81.3713L79.1323 81.9889ZM73.7616 82.4364L73.1888 82.1679L72.6428 82.4902L72.7188 81.8636L72.2444 81.4429L72.8665 81.322L73.1216 80.7402L73.4305 81.2952L74.0615 81.3578L73.6274 81.8188L73.7616 82.4364ZM82.9767 81.8278L83.4601 82.1411L83.4153 81.5637L83.8629 81.2012L83.299 81.0669L83.0886 80.5299L82.7888 81.0222L82.2114 81.0535L82.5874 81.4921L82.4442 82.0515L82.9767 81.8278ZM86.2931 82.2887L85.8098 81.9755L85.2772 82.1992L85.4249 81.6398L85.0489 81.2012L85.6218 81.1699L85.9261 80.6776L86.132 81.2146L86.6959 81.3489L86.2483 81.7159L86.2931 82.2887ZM66.4531 89.7495L66.01 89.5257L65.5759 89.7629L65.652 89.275L65.2939 88.9304L65.7818 88.8544L65.9966 88.4068L66.2204 88.8454L66.7127 88.9125L66.3636 89.2616L66.4531 89.7495ZM76.1299 88.402L77.0027 88.8541L76.8326 87.8874L77.5352 87.2026L76.564 87.0639L76.1254 86.1867L75.6958 87.0639L74.7246 87.2071L75.4273 87.8918L75.2661 88.8586L76.1299 88.402ZM83.1612 88.704L82.6778 88.3951L82.1452 88.6144L82.2929 88.0595L81.917 87.6209L82.4899 87.5896L82.7942 87.0928L83.0001 87.6343L83.564 87.7641L83.1164 88.1311L83.1612 88.704ZM82.9278 85.3913L83.4604 85.5703L83.2814 85.0422L83.6171 84.5946L83.0576 84.5991L82.7309 84.1426L82.5653 84.6752L82.0327 84.8452L82.4892 85.1675L82.4803 85.7269L82.9278 85.3913ZM90.6217 78.562L90.0488 78.2935L89.4983 78.6157L89.5789 77.9847L89.1045 77.564L89.7266 77.4431L89.9817 76.8613L90.286 77.4163L90.9216 77.4789L90.4874 77.9399L90.6217 78.562ZM89.4228 75.9215L90.1747 76.3243L90.036 75.4829L90.6536 74.8922L89.8122 74.7624L89.4407 73.9971L89.0558 74.7579L88.21 74.8743L88.8186 75.474L88.6665 76.3109L89.4228 75.9215ZM94.3502 75.2763L93.7773 75.0078L93.2313 75.33L93.3074 74.7034L92.833 74.2827L93.4551 74.1619L93.7102 73.5801L94.019 74.135L94.6501 74.1977L94.2159 74.6587L94.3502 75.2763Z" fill="#F9F9F9"/>
</g>
<defs>
<clipPath id="clip0_369_12772">
<rect x="0.589844" y="0.0664062" width="128" height="128" rx="64" fill="white"/>
</clipPath>
</defs>
</svg>
