<svg width="524" height="860" viewBox="0 0 524 860" fill="none" xmlns="http://www.w3.org/2000/svg">
<path d="M182 18.8C182 11.7308 187.731 6 194.8 6H329.2C336.269 6 342 11.7308 342 18.8V153.2C342 160.269 336.269 166 329.2 166H194.8C187.731 166 182 160.269 182 153.2V18.8Z" fill="#343434"/>
<path d="M182 190.8C182 183.731 187.731 178 194.8 178H329.2C336.269 178 342 183.731 342 190.8V325.2C342 332.269 336.269 338 329.2 338H194.8C187.731 338 182 332.269 182 325.2V190.8Z" fill="#343434"/>
<path d="M182 362.8C182 355.731 187.731 350 194.8 350H329.2C336.269 350 342 355.731 342 362.8V497.2C342 504.269 336.269 510 329.2 510H194.8C187.731 510 182 504.269 182 497.2V362.8Z" fill="#343434"/>
<path d="M6 534.8C6 527.731 11.7308 522 18.8 522H153.2C160.269 522 166 527.731 166 534.8V669.2C166 676.269 160.269 682 153.2 682H18.8C11.7308 682 6 676.269 6 669.2V534.8Z" fill="#343434"/>
<path d="M6 706.8C6 699.731 11.7308 694 18.8 694H153.2C160.269 694 166 699.731 166 706.8V841.2C166 848.269 160.269 854 153.2 854H18.8C11.7308 854 6 848.269 6 841.2V706.8Z" fill="#343434"/>
<path d="M182 534.8C182 527.731 187.731 522 194.8 522H329.2C336.269 522 342 527.731 342 534.8V669.2C342 676.269 336.269 682 329.2 682H194.8C187.731 682 182 676.269 182 669.2V534.8Z" fill="#343434"/>
<path d="M182 706.8C182 699.731 187.731 694 194.8 694H329.2C336.269 694 342 699.731 342 706.8V841.2C342 848.269 336.269 854 329.2 854H194.8C187.731 854 182 848.269 182 841.2V706.8Z" fill="#343434"/>
<path d="M358 534.8C358 527.731 363.731 522 370.8 522H505.2C512.269 522 518 527.731 518 534.8V669.2C518 676.269 512.269 682 505.2 682H370.8C363.731 682 358 676.269 358 669.2V534.8Z" fill="#343434"/>
<path d="M358 706.8C358 699.731 363.731 694 370.8 694H505.2C512.269 694 518 699.731 518 706.8V841.2C518 848.269 512.269 854 505.2 854H370.8C363.731 854 358 848.269 358 841.2V706.8Z" fill="#343434"/>
<path d="M6 18.8C6 11.7308 11.7308 6 18.8 6H153.2C160.269 6 166 11.7308 166 18.8V153.2C166 160.269 160.269 166 153.2 166H18.8C11.7308 166 6 160.269 6 153.2V18.8Z" fill="#343434"/>
<path d="M6 190.8C6 183.731 11.7308 178 18.8 178H153.2C160.269 178 166 183.731 166 190.8V325.2C166 332.269 160.269 338 153.2 338H18.8C11.7308 338 6 332.269 6 325.2V190.8Z" fill="#343434"/>
<path d="M6 362.8C6 355.731 11.7308 350 18.8 350H153.2C160.269 350 166 355.731 166 362.8V497.2C166 504.269 160.269 510 153.2 510H18.8C11.7308 510 6 504.269 6 497.2V362.8Z" fill="#343434"/>
<path d="M358 18.8C358 11.7308 363.731 6 370.8 6H505.2C512.269 6 518 11.7308 518 18.8V153.2C518 160.269 512.269 166 505.2 166H370.8C363.731 166 358 160.269 358 153.2V18.8Z" fill="#343434"/>
<path d="M358 190.8C358 183.731 363.731 178 370.8 178H505.2C512.269 178 518 183.731 518 190.8V325.2C518 332.269 512.269 338 505.2 338H370.8C363.731 338 358 332.269 358 325.2V190.8Z" fill="#343434"/>
<path d="M358 362.8C358 355.731 363.731 350 370.8 350H505.2C512.269 350 518 355.731 518 362.8V497.2C518 504.269 512.269 510 505.2 510H370.8C363.731 510 358 504.269 358 497.2V362.8Z" fill="#343434"/>
</svg>
