<svg width="27" height="27" viewBox="0 0 27 27" fill="none" xmlns="http://www.w3.org/2000/svg">
<path d="M12.6396 1.27539C12.99 0.574952 14.008 0.574948 14.3584 1.27539L14.4229 1.43652L16.9922 9.74121H25.2803C25.7713 9.74121 26.0977 10.0847 26.2041 10.4287C26.3098 10.7706 26.2349 11.2193 25.8633 11.5029L19.127 16.6436L21.7041 24.9775C21.8365 25.4059 21.6649 25.8216 21.3633 26.0518C21.0562 26.2859 20.5822 26.3453 20.1973 26.0518L13.499 20.9395L6.80078 26.0518C6.41587 26.3453 5.94189 26.2859 5.63477 26.0518C5.33314 25.8216 5.16155 25.4059 5.29395 24.9775L7.87012 16.6436L1.13477 11.5029C0.763147 11.2193 0.68825 10.7706 0.793945 10.4287C0.900361 10.0847 1.22677 9.74121 1.71777 9.74121H10.0059L12.5752 1.43652L12.6396 1.27539Z" fill="#A16920" stroke="#A16920" stroke-width="1.5"/>
</svg>
