<svg width="26" height="26" viewBox="0 0 26 26" fill="none" xmlns="http://www.w3.org/2000/svg">
<path d="M12.3532 1.05183C12.4778 0.649391 13.0202 0.649389 13.1448 1.05183L15.6923 9.2809C15.7481 9.46088 15.9078 9.58273 16.0881 9.58273H24.332C24.7352 9.58273 24.9028 10.1242 24.5767 10.3729L17.9072 15.4588C17.7614 15.57 17.7003 15.7672 17.756 15.9472L20.3035 24.1762C20.4281 24.5787 19.9893 24.9133 19.6631 24.6646L12.9936 19.5787C12.8478 19.4675 12.6503 19.4675 12.5044 19.5787L5.83495 24.6646C5.50878 24.9133 5.06992 24.5787 5.19451 24.1762L7.74201 15.9472C7.79773 15.7672 7.73669 15.57 7.59083 15.4588L0.921378 10.3729C0.595211 10.1242 0.762837 9.58273 1.166 9.58273H9.40989C9.59019 9.58273 9.74999 9.46088 9.80571 9.2809L12.3532 1.05183Z" fill="black" fill-opacity="0.2"/>
<path d="M12.3532 1.05183C12.4778 0.649391 13.0202 0.649389 13.1448 1.05183L15.6923 9.2809C15.7481 9.46088 15.9078 9.58273 16.0881 9.58273H24.332C24.7352 9.58273 24.9028 10.1242 24.5767 10.3729L17.9072 15.4588C17.7614 15.57 17.7003 15.7672 17.756 15.9472L20.3035 24.1762C20.4281 24.5787 19.9893 24.9133 19.6631 24.6646L12.9936 19.5787C12.8478 19.4675 12.6503 19.4675 12.5044 19.5787L5.83495 24.6646C5.50878 24.9133 5.06992 24.5787 5.19451 24.1762L7.74201 15.9472C7.79773 15.7672 7.73669 15.57 7.59083 15.4588L0.921378 10.3729C0.595211 10.1242 0.762837 9.58273 1.166 9.58273H9.40989C9.59019 9.58273 9.74999 9.46088 9.80571 9.2809L12.3532 1.05183Z" fill="url(#paint0_radial_2705_11796)" fill-opacity="0.5"/>
<path d="M12.3532 1.05183C12.4778 0.649391 13.0202 0.649389 13.1448 1.05183L15.6923 9.2809C15.7481 9.46088 15.9078 9.58273 16.0881 9.58273H24.332C24.7352 9.58273 24.9028 10.1242 24.5767 10.3729L17.9072 15.4588C17.7614 15.57 17.7003 15.7672 17.756 15.9472L20.3035 24.1762C20.4281 24.5787 19.9893 24.9133 19.6631 24.6646L12.9936 19.5787C12.8478 19.4675 12.6503 19.4675 12.5044 19.5787L5.83495 24.6646C5.50878 24.9133 5.06992 24.5787 5.19451 24.1762L7.74201 15.9472C7.79773 15.7672 7.73669 15.57 7.59083 15.4588L0.921378 10.3729C0.595211 10.1242 0.762837 9.58273 1.166 9.58273H9.40989C9.59019 9.58273 9.74999 9.46088 9.80571 9.2809L12.3532 1.05183Z" fill="#E9911D"/>
<path d="M12.3532 1.05183C12.4778 0.649391 13.0202 0.649389 13.1448 1.05183L15.6923 9.2809C15.7481 9.46088 15.9078 9.58273 16.0881 9.58273H24.332C24.7352 9.58273 24.9028 10.1242 24.5767 10.3729L17.9072 15.4588C17.7614 15.57 17.7003 15.7672 17.756 15.9472L20.3035 24.1762C20.4281 24.5787 19.9893 24.9133 19.6631 24.6646L12.9936 19.5787C12.8478 19.4675 12.6503 19.4675 12.5044 19.5787L5.83495 24.6646C5.50878 24.9133 5.06992 24.5787 5.19451 24.1762L7.74201 15.9472C7.79773 15.7672 7.73669 15.57 7.59083 15.4588L0.921378 10.3729C0.595211 10.1242 0.762837 9.58273 1.166 9.58273H9.40989C9.59019 9.58273 9.74999 9.46088 9.80571 9.2809L12.3532 1.05183Z" fill="#A16920"/>
<path d="M12.3532 1.05183C12.4778 0.649391 13.0202 0.649389 13.1448 1.05183L15.6923 9.2809C15.7481 9.46088 15.9078 9.58273 16.0881 9.58273H24.332C24.7352 9.58273 24.9028 10.1242 24.5767 10.3729L17.9072 15.4588C17.7614 15.57 17.7003 15.7672 17.756 15.9472L20.3035 24.1762C20.4281 24.5787 19.9893 24.9133 19.6631 24.6646L12.9936 19.5787C12.8478 19.4675 12.6503 19.4675 12.5044 19.5787L5.83495 24.6646C5.50878 24.9133 5.06992 24.5787 5.19451 24.1762L7.74201 15.9472C7.79773 15.7672 7.73669 15.57 7.59083 15.4588L0.921378 10.3729C0.595211 10.1242 0.762837 9.58273 1.166 9.58273H9.40989C9.59019 9.58273 9.74999 9.46088 9.80571 9.2809L12.3532 1.05183Z" stroke="#A16920" stroke-width="1.5"/>
<defs>
<radialGradient id="paint0_radial_2705_11796" cx="0" cy="0" r="1" gradientTransform="matrix(6.44373 17.7455 -16.9074 7.44985 13.7087 15.6005)" gradientUnits="userSpaceOnUse">
<stop stop-color="#FFF3D3"/>
<stop offset="0.0913462" stop-color="#FFEEC1"/>
<stop offset="0.71875" stop-color="#B5A26F"/>
<stop offset="1" stop-color="#B5A26F"/>
</radialGradient>
</defs>
</svg>
