<svg id="Capa_1" enable-background="new 0 0 512 512" height="512" viewBox="0 0 512 512" width="512" xmlns="http://www.w3.org/2000/svg"><g><path d="m381.817 294.068h-251.635c-13.665 0-24.54-11.451-23.835-25.097l10.362-200.777c1.973-38.218 33.535-68.194 71.804-68.194h134.974c38.269 0 69.831 29.976 71.804 68.194l10.362 200.777c.704 13.646-10.171 25.097-23.836 25.097z" fill="#9e9797"/><path d="m405.653 268.971-10.362-200.777c-1.973-38.218-33.535-68.194-71.804-68.194h-22.283c38.269 0 69.831 29.976 71.804 68.194l10.362 200.777c.704 13.647-10.171 25.097-23.835 25.097h22.283c13.664 0 24.539-11.451 23.835-25.097z" fill="#8c8383"/><path d="m219.977 286.664h72.045v66.537h-72.045z" fill="#fff3de"/><path d="m263.312 286.665h28.71v66.537h-28.71z" fill="#ffe5c2"/><path d="m366.105 198.808h27.614c12.633 0 22.873-10.241 22.873-22.873v-24.357c0-12.633-10.241-22.873-22.873-22.873h-27.614l-9.302 35.052z" fill="#fff3de"/><path d="m393.719 128.705h-22.283c12.632 0 22.873 10.241 22.873 22.873v24.357c0 12.633-10.241 22.873-22.873 22.873h22.283c12.632 0 22.873-10.241 22.873-22.873v-24.357c0-12.632-10.241-22.873-22.873-22.873z" fill="#ffe5c2"/><path d="m153.96 163.757-8.066 35.047h-27.609c-12.64 0-22.88-10.24-22.88-22.87v-24.354c0-12.63 10.24-22.87 22.88-22.87h27.609z" fill="#fff3de"/><path d="m153.96 163.757-8.066 35.046h-22.283v-70.093h22.283z" fill="#ffe5c2"/><path d="m366.105 128.705v75.971c0 49.37-53.423 89.392-102.793 89.392h-28.025c-49.37 0-89.392-40.022-89.392-89.392v-75.971s67.137-4.96 102.861-37.256c4.318-3.904 10.833-4.027 15.364-.371 15.861 12.801 53.675 38.363 101.985 37.627z" fill="#fff3de"/><path d="m248.705 91.489c-1.958 1.766-4.011 3.45-6.14 5.056 17.372 12.585 48.368 30.329 86.778 32.041 4.498.2 8.051 3.887 8.051 8.389v67.701c0 49.37-40.022 89.392-89.392 89.392h28.71c49.37 0 89.392-40.022 89.392-89.392v-75.971c-48.314.736-86.13-24.831-101.989-37.631-4.548-3.671-11.068-3.499-15.41.415z" fill="#ffe5c2"/><g><path d="m256 223.286c-4.268 0-7.726-3.459-7.726-7.726v-16.752c0-4.268 3.459-7.726 7.726-7.726s7.726 3.459 7.726 7.726v16.752c0 4.267-3.458 7.726-7.726 7.726z" fill="#ffe5c2"/></g><g><path d="m256 259.356c-7.857 0-15.445-3.288-20.816-9.021-2.918-3.115-2.758-8.004.356-10.922 3.115-2.919 8.004-2.759 10.922.356 2.497 2.666 5.884 4.134 9.538 4.134s7.041-1.468 9.538-4.134c2.918-3.114 7.806-3.274 10.922-.356 3.114 2.918 3.274 7.807.356 10.922-5.371 5.734-12.959 9.021-20.816 9.021z" fill="#fd9468"/></g><g><g><path d="m190.397 199.266c-4.268 0-7.726-3.459-7.726-7.726v-8.927c0-4.268 3.459-7.726 7.726-7.726 4.268 0 7.726 3.459 7.726 7.726v8.927c.001 4.267-3.458 7.726-7.726 7.726z" fill="#8c8383"/></g><g><path d="m321.603 199.266c-4.268 0-7.726-3.459-7.726-7.726v-8.927c0-4.268 3.459-7.726 7.726-7.726s7.726 3.459 7.726 7.726v8.927c0 4.267-3.459 7.726-7.726 7.726z" fill="#8c8383"/></g></g><path d="m447.367 512h-43.391l-50.531-12.123-37.55 12.123h-119.79l-37.895-13.283-50.186 13.283h-43.391c-9.354 0-16.555-8.252-15.288-17.513l11.456-83.795c4.502-32.935 32.636-57.495 65.88-57.495h58.03c3.142 0 5.687-2.534 5.687-5.676v-11.95c0-6.882 5.584-12.465 12.465-12.465h106.274c6.882 0 12.465 5.584 12.465 12.465v11.95c0 3.142 2.545 5.676 5.687 5.676h58.03c33.244 0 61.378 24.56 65.88 57.495l11.456 83.795c1.267 9.261-5.934 17.513-15.288 17.513z" fill="#e94444"/><path d="m462.653 494.482-11.453-83.794c-4.501-32.935-32.635-57.486-65.877-57.486h-49.389c33.242 0 61.376 24.55 65.877 57.486l11.453 83.794c1.266 9.266-4.975 17.518-9.287 17.518h43.39c9.35 0 16.552-8.253 15.286-17.518z" fill="#d83131"/><g><path d="m344.345 456.427c-4.268 0-7.727-3.459-7.727-7.725l-.001-14.641c-.001-5.16-4.198-9.358-9.358-9.358h-17.545c-4.268 0-7.726-3.459-7.726-7.726s3.459-7.726 7.726-7.726h17.545c13.679 0 24.81 11.13 24.811 24.809l.001 14.641c0 4.267-3.459 7.726-7.726 7.726z" fill="#e7eaf7"/></g><path d="m265.061 476.663h-18.121c-24.661 0-44.653-19.992-44.653-44.653v-23.899c0-7.334 5.945-13.279 13.279-13.279h80.869c7.334 0 13.279 5.945 13.279 13.279v23.899c-.001 24.662-19.992 44.653-44.653 44.653z" fill="#e7eaf7"/><path d="m296.435 394.833h-22.283c7.334 0 13.279 5.945 13.279 13.279v23.899c0 23.963-18.877 43.512-42.572 44.6.69.032 1.383.053 2.081.053h18.121c24.661 0 44.653-19.992 44.653-44.653v-23.899c-.001-7.334-5.946-13.279-13.279-13.279z" fill="#d5daf3"/><path d="m294.731 484.391h-76.866l8.672-15.453h58.926z" fill="#8795de"/><path d="m327.289 353.197h-23.57c-3.853 0-6.974-3.111-6.974-6.964v-10.662c0-6.882-5.573-12.465-12.465-12.465h24.858c6.882 0 12.465 5.584 12.465 12.465v11.95c-.001 3.142 2.544 5.676 5.686 5.676z" fill="#d83131"/><g><path d="m226.537 468.938-7.798 8.314 4.636 7.139c-4.008 13.042-11.899 25.209-27.269 27.609h-88.081l13.258-40.497c4.461-13.609 17.142-22.798 31.462-22.798h64.119c5.924 0 10.652 4.914 10.415 10.827-.114 2.803-.33 6.007-.742 9.406z" fill="#fff3de"/></g><path d="m226.537 468.938-7.798 8.314 4.636 7.139c-4.008 13.042-11.899 25.209-27.269 27.609h-28.701c15.37-2.4 23.262-14.567 27.259-27.609 1.607-5.202 2.586-10.539 3.173-15.453.402-3.4.618-6.603.731-9.405.237-5.913-4.492-10.827-10.415-10.827h28.711c5.924 0 10.652 4.914 10.415 10.827-.114 2.802-.33 6.006-.742 9.405z" fill="#ffe5c2"/><g><path d="m403.976 512h-88.081c-15.371-2.4-23.262-14.567-27.269-27.609l6.105-7.728-9.267-7.725c-.412-3.4-.629-6.603-.742-9.405-.237-5.913 4.492-10.827 10.415-10.827h64.119c14.319 0 27.001 9.189 31.462 22.798z" fill="#fff3de"/></g><path d="m390.713 471.499c-4.453-13.6-17.143-22.798-31.454-22.798h-28.71c14.311 0 27.001 9.198 31.454 22.798l13.26 40.501h28.711z" fill="#ffe5c2"/><g><path d="m226.537 468.938c-.587 4.914-1.566 10.25-3.163 15.453h-38.354c-4.265 0-7.726-3.462-7.726-7.726 0-4.265 3.461-7.726 7.726-7.726h41.517z" fill="#bec6ed"/></g><path d="m226.537 468.938c-.587 4.914-1.566 10.25-3.163 15.453h-28.711c1.607-5.202 2.586-10.539 3.173-15.453z" fill="#a2aee6"/><g><path d="m334.624 476.665c0 4.265-3.462 7.726-7.726 7.726h-38.271c-1.597-5.202-2.575-10.539-3.162-15.453h41.434c4.263 0 7.725 3.462 7.725 7.727z" fill="#bec6ed"/></g></g></svg>