<svg width="512" height="512" viewBox="0 0 512 512" fill="none" xmlns="http://www.w3.org/2000/svg">
<g clip-path="url(#clip0_653_7766)">
<path d="M159.672 321.546C140.54 328.055 89.7376 334.594 51.3256 324.44C38.3506 321.01 25.0946 328.593 21.7846 341.599L21.6896 341.972C18.4206 354.817 26.0776 367.939 38.8956 371.316C70.9956 379.775 154.089 389.969 218.639 346.079L202.571 318.163C198.474 311.046 189.542 308.407 182.205 312.096C174.461 315.989 165.713 319.491 159.672 321.546Z" fill="#F6A96C"/>
<path d="M218.642 346.073C154.084 389.972 70.9952 379.777 38.8922 371.318C26.0732 367.94 18.4192 354.812 21.6942 341.973L21.7872 341.601C22.0562 340.537 22.3962 339.504 22.7992 338.513C25.5782 345.217 31.3412 350.588 38.8922 352.581C69.7042 360.7 147.473 370.42 210.761 332.387L218.642 346.073Z" fill="#EA9B58"/>
<path d="M352.327 321.546C371.459 328.055 422.261 334.594 460.673 324.44C473.648 321.01 486.904 328.593 490.214 341.599L490.309 341.972C493.578 354.817 485.921 367.939 473.103 371.316C441.003 379.775 357.91 389.969 293.36 346.079L309.428 318.163C313.525 311.046 322.457 308.407 329.794 312.096C337.538 315.989 346.286 319.491 352.327 321.546Z" fill="#F6A96C"/>
<path d="M293.356 346.073C357.914 389.972 441.003 379.777 473.106 371.318C485.925 367.94 493.579 354.812 490.304 341.973L490.211 341.601C489.942 340.537 489.602 339.504 489.199 338.513C486.42 345.217 480.657 350.588 473.106 352.581C442.294 360.7 364.525 370.42 301.237 332.387L293.356 346.073Z" fill="#EA9B58"/>
<path d="M154.66 82.5918V157.262C142.069 157.262 129.208 167.469 129.208 180.06C129.208 192.651 139.415 202.858 152.006 202.858H153.357V203.528C153.357 244.483 186.557 277.683 227.512 277.683H284.488C325.443 277.683 358.643 244.483 358.643 203.528V202.858H359.994C372.585 202.858 382.792 192.651 382.792 180.06C382.792 167.469 371.091 157.262 358.5 157.262V82.5918H154.66Z" fill="#F6A96C"/>
<path d="M382.792 180.057C382.792 192.648 372.587 202.854 359.995 202.854H358.642V203.525C358.642 244.481 325.444 277.679 284.488 277.679H265.916C306.872 277.679 340.07 244.481 340.07 203.525L339.936 157.26V82.5898H358.498V157.26C364.789 157.26 370.862 159.811 375.366 163.933C379.869 168.065 382.792 173.756 382.792 180.057Z" fill="#EA9B58"/>
<path d="M324.116 310.434H187.884C184.127 310.434 181.443 314.356 182.616 318.174C186.852 331.961 192.814 340.423 175.329 358.111C174.225 359.228 173.593 360.78 173.593 362.405V511.998H338.407V362.405C338.407 360.779 337.775 359.228 336.671 358.111C319.186 340.423 325.148 331.961 329.384 318.174C330.558 314.355 327.874 310.434 324.116 310.434Z" fill="#8078BC"/>
<path d="M338.407 362.402V512.001H320.424V367.37C320.424 365.748 319.794 364.199 318.688 363.083C301.211 345.389 307.171 331.961 311.406 318.171C312.583 314.36 309.898 310.434 306.138 310.434H324.111C327.871 310.434 330.556 314.359 329.379 318.171C325.144 331.961 319.184 340.42 336.672 358.114C337.777 359.231 338.407 360.78 338.407 362.402Z" fill="#5E54AC"/>
<path d="M153.38 82.2988C153.38 63.6858 159.879 44.6268 172.396 30.5968C180.041 22.0278 189.734 15.3858 200.15 10.5428C211.489 5.26981 223.735 2.00481 236.181 0.681808C242.389 0.0218083 248.65 -0.154192 254.891 0.132808C278.427 1.22281 306.548 8.52481 319.629 29.8648C320.02 30.5018 321.593 33.1898 322.979 35.5638C324.38 37.9628 326.821 39.5818 329.595 39.9388C332.915 40.3658 337.423 41.1418 340.408 42.4418C352.407 47.6668 358.658 60.6308 358.619 73.1628V157.262C327.216 157.262 327.743 119.466 326.594 106.466C326.301 103.151 321.843 101.955 318.956 103.655C277.408 128.118 205.357 123.45 186.135 121.68C183.487 121.436 180.882 123.181 180.569 125.797C177.285 153.264 160.275 157.262 153.381 157.262C153.381 157.262 153.38 82.4098 153.38 82.2988Z" fill="#7C4B37"/>
<path d="M358.62 73.1598V157.261C350.552 157.261 344.583 154.761 340.164 150.826V62.8408C340.195 54.8148 337.637 46.6138 332.636 40.3848C335.339 40.8388 338.261 41.5108 340.413 42.4408C352.412 47.6678 358.661 60.6308 358.62 73.1598Z" fill="#6B3D2D"/>
<path d="M256.974 325.367H255.026C243.821 325.367 234.737 316.283 234.737 305.078V272.824H277.262V305.078C277.263 316.283 268.18 325.367 256.974 325.367Z" fill="#F6A96C"/>
<path d="M234.737 277.68H277.263V295.663H234.737V277.68Z" fill="#EA9B58"/>
<path d="M273.637 212.204C269.708 210.543 265.176 212.381 263.515 216.309C262.226 219.357 259.254 221.327 255.944 221.327C252.635 221.327 249.663 219.357 248.374 216.309C246.713 212.38 242.18 210.541 238.252 212.204C234.323 213.866 232.485 218.397 234.147 222.325C237.859 231.103 246.415 236.775 255.945 236.775C265.475 236.775 274.031 231.103 277.743 222.325C279.403 218.397 277.566 213.866 273.637 212.204Z" fill="#5A5A5A"/>
<path d="M238.468 177.03C241.04 173.626 240.365 168.782 236.961 166.211C233.558 163.64 228.713 164.315 226.143 167.717C223.977 170.584 221.441 170.683 220.698 170.64C220.447 170.584 220.499 170.612 220.158 170.585C217.017 170.332 214.064 167.77 213.179 166.794C210.382 163.611 205.539 163.272 202.328 166.049C199.1 168.838 198.744 173.714 201.533 176.943C202.253 177.776 208.791 185.04 218.635 185.959C219.283 186.048 220.018 186.099 220.821 186.099C225.693 186.097 233.055 184.196 238.468 177.03Z" fill="#5A5A5A"/>
<path d="M299.417 167.417C299.386 167.445 296.079 170.242 291.842 170.584C291.501 170.611 291.554 170.583 291.302 170.639C290.562 170.676 288.022 170.583 285.857 167.716C283.286 164.315 278.443 163.637 275.039 166.21C271.635 168.781 270.961 173.625 273.532 177.029C278.946 184.195 286.307 186.096 291.178 186.096C291.978 186.096 292.711 186.045 293.357 185.957C302.7 185.105 309.119 179.475 309.826 178.831C312.978 175.957 313.203 171.071 310.328 167.919C307.453 164.766 302.568 164.544 299.417 167.417Z" fill="#5A5A5A"/>
</g>
<defs>
<clipPath id="clip0_653_7766">
<rect width="512" height="512" fill="white"/>
</clipPath>
</defs>
</svg>
