<svg width="512" height="512" viewBox="0 0 512 512" fill="none" xmlns="http://www.w3.org/2000/svg">
<g clip-path="url(#clip0_653_7803)">
<path d="M299.954 297.349L228.825 274.586C227.55 274.176 226.395 273.634 225.393 272.83H127.009C126.073 273.599 124.999 274.313 123.814 274.736L53.7242 299.76C44.1472 303.177 37.2922 311.661 35.9422 321.741L25.4072 400.86L79.7422 471.735V501.288C79.7422 507.201 84.5332 512 90.4562 512H275.352L324.882 400.859V331.51C324.882 315.913 314.801 302.105 299.954 297.349Z" fill="#F85221"/>
<path d="M299.954 297.349L228.825 274.586C227.55 274.176 226.395 273.635 225.393 272.83L208.222 286.948L279.351 309.711C294.198 314.467 304.278 323.124 304.278 338.721V415.346L324.882 400.859V331.51C324.882 315.913 314.801 302.105 299.954 297.349Z" fill="#EE1F1F"/>
<path d="M173.532 309.005C153.544 303.811 136.815 290.464 127.008 272.829C129.438 270.833 130.926 267.916 130.926 264.644V194.122C134.836 188.49 139.5 183.424 144.772 179.064H207.526C212.802 183.426 217.468 188.496 221.379 194.132V264.376C221.379 267.696 222.909 270.835 225.392 272.828C215.6 290.556 198.826 303.791 178.768 309.004C177.051 309.451 175.25 309.451 173.532 309.005Z" fill="#FFC1B0"/>
<path d="M225.393 272.828C222.911 270.834 221.38 267.695 221.38 264.376V194.132C217.469 188.496 212.802 183.427 207.527 179.064H200.777V276.738C200.777 281.398 203.787 285.522 208.222 286.947L213.592 288.666C218.193 283.917 222.171 278.661 225.393 272.828Z" fill="#DD806D"/>
<path d="M280.502 400.859H324.881V501.288C324.881 507.201 320.093 512 314.169 512H275.351V406.01C275.352 403.165 277.658 400.859 280.502 400.859Z" fill="#FFC1B0"/>
<path d="M324.882 501.288V400.859H304.278V501.288C304.278 507.201 299.49 512 293.566 512H314.17C320.093 512 324.882 507.201 324.882 501.288Z" fill="#DD806D"/>
<path d="M79.7411 471.733L77.4401 473.542C67.4471 481.425 57.1301 479.907 55.8661 480.087C55.8121 480.087 55.7481 480.087 55.6951 480.076C34.0461 479.733 17.4421 460.569 20.3231 439.016L25.4071 400.857H74.5901C77.4351 400.857 79.7411 403.163 79.7411 406.008V471.733Z" fill="#FFC1B0"/>
<path d="M205.57 437.641C203.35 437.641 201.153 436.66 199.673 434.781L114.187 326.219C111.625 322.965 112.186 318.249 115.439 315.686C118.693 313.124 123.409 313.684 125.972 316.938L211.458 425.5C214.02 428.754 213.459 433.47 210.206 436.033C208.831 437.115 207.194 437.641 205.57 437.641Z" fill="#5B5555"/>
<path d="M231.856 421.381C242.09 434.377 239.64 450.147 228.319 459.062C216.998 467.977 201.093 466.66 190.859 453.664C180.625 440.668 181.507 422.906 192.828 413.991C204.149 405.076 221.622 408.385 231.856 421.381Z" fill="#5B5555"/>
<path d="M55.6943 480.078C55.7483 480.089 55.8123 480.089 55.8653 480.089H58.5643C65.4093 480.089 72.0603 477.784 77.4393 473.544C78.2643 472.894 187.042 387.235 187.164 387.139C190.29 384.683 190.828 380.155 188.374 377.037L158.262 338.794C155.798 335.677 151.278 335.141 148.15 337.594L128.804 352.827C121.809 358.344 120.266 368.21 125.001 375.537C126.522 377.883 125.954 381 123.769 382.725L44.2203 445.359C29.9213 456.629 37.5483 479.724 55.6943 480.078Z" fill="#FFC1B0"/>
<path d="M188.376 377.037L183.54 370.895C184.133 373.518 183.234 376.37 180.977 378.144C180.855 378.24 72.0773 463.898 71.2523 464.549C65.8733 468.789 59.2223 471.094 52.3773 471.094H49.6783C49.6243 471.094 49.5603 471.094 49.5073 471.083C39.2173 470.92 30.0723 466.5 23.6123 459.597C29.3673 471.458 41.4353 479.851 55.6953 480.077C55.7493 480.088 55.8133 480.088 55.8663 480.088H58.5653C65.4103 480.088 72.0613 477.783 77.4403 473.543C78.2653 472.893 187.043 387.234 187.165 387.138C190.291 384.682 190.829 380.154 188.376 377.037Z" fill="#DD806D"/>
<path d="M214.137 9.3918H139.442C133.066 5.5838 125.082 2.6238 116.195 1.0958C92.663 -2.9512 71.732 4.5608 69.442 17.8738C68.989 20.5098 69.306 23.1758 70.283 25.7868C70.808 27.1898 69.885 28.6978 68.395 28.8508C53.644 30.3648 42.55 36.8988 40.92 46.3818C39.228 56.2208 48.196 66.4698 62.489 72.7848C64.629 73.7298 65.975 75.9098 65.862 78.2468C65.805 79.4198 65.776 80.6008 65.776 81.7888V156.374H286.535V81.7888C286.534 41.8048 254.121 9.3918 214.137 9.3918Z" fill="#C94F3F"/>
<path d="M214.137 9.39258H193.533C233.517 9.39258 265.93 41.8056 265.93 81.7896V156.375H286.534V81.7896C286.534 41.8056 254.121 9.39258 214.137 9.39258Z" fill="#A93525"/>
<path d="M272.758 176.865H79.5511C68.2341 176.865 59.0591 167.691 59.0591 156.373C59.0591 145.056 68.2331 135.881 79.5511 135.881H272.758C284.075 135.881 293.25 145.055 293.25 156.373C293.249 167.69 284.075 176.865 272.758 176.865Z" fill="#FFC1B0"/>
<path d="M238.404 78.9112C246.34 78.9112 252.773 85.3442 252.773 93.2792V180.016C252.773 215.678 201.642 249.048 176.152 249.048C150.662 249.048 99.541 215.678 99.541 180.016V93.2792C99.541 85.3432 105.974 78.9102 113.91 78.9102L238.404 78.9112Z" fill="#FFC1B0"/>
<path d="M238.404 78.9121H217.8C225.736 78.9121 232.169 85.3451 232.169 93.2801V180.017C232.169 211.342 192.721 240.895 165.85 247.621C169.57 248.552 173.052 249.05 176.152 249.05C201.642 249.05 252.773 215.68 252.773 180.018V93.2801C252.773 85.3451 246.34 78.9121 238.404 78.9121Z" fill="#DD806D"/>
<path d="M176.155 201.329C166.044 201.329 156.44 197.26 149.803 190.165C146.973 187.14 147.132 182.394 150.157 179.564C153.181 176.735 157.928 176.892 160.758 179.918C164.569 183.992 170.18 186.328 176.154 186.328C182.128 186.328 187.739 183.992 191.55 179.918C194.38 176.893 199.126 176.734 202.151 179.564C205.176 182.393 205.335 187.139 202.505 190.165C195.87 197.259 186.265 201.329 176.155 201.329Z" fill="#EC806B"/>
<path d="M142.901 156.083C138.759 156.083 135.401 152.725 135.401 148.583V143.264C135.401 139.122 138.759 135.764 142.901 135.764C147.043 135.764 150.401 139.122 150.401 143.264V148.583C150.401 152.725 147.043 156.083 142.901 156.083Z" fill="#596C76"/>
<path d="M157.521 125.733C155.518 125.733 153.519 124.935 152.042 123.356C149.797 120.956 146.465 119.579 142.9 119.579C139.335 119.579 136.004 120.956 133.758 123.356C130.928 126.381 126.182 126.54 123.157 123.71C120.132 120.88 119.973 116.134 122.803 113.109C127.874 107.687 135.199 104.578 142.9 104.578C150.601 104.578 157.926 107.687 162.997 113.109C165.827 116.134 165.668 120.88 162.643 123.71C161.197 125.063 159.357 125.733 157.521 125.733Z" fill="#CA5B4D"/>
<path d="M209.408 156.083C205.266 156.083 201.908 152.725 201.908 148.583V143.264C201.908 139.122 205.266 135.764 209.408 135.764C213.55 135.764 216.908 139.122 216.908 143.264V148.583C216.908 152.725 213.55 156.083 209.408 156.083Z" fill="#596C76"/>
<path d="M224.028 125.733C222.025 125.733 220.026 124.935 218.549 123.356C216.304 120.956 212.972 119.579 209.407 119.579C205.842 119.579 202.511 120.956 200.265 123.356C197.435 126.381 192.689 126.54 189.664 123.71C186.639 120.88 186.48 116.134 189.31 113.109C194.381 107.687 201.706 104.578 209.407 104.578C217.108 104.578 224.433 107.687 229.504 113.109C232.334 116.134 232.175 120.88 229.15 123.71C227.704 125.063 225.864 125.733 224.028 125.733Z" fill="#CA5B4D"/>
<path d="M450.001 464.66C462.043 444.559 463.21 423.114 452.607 416.763C442.005 410.411 423.648 421.557 411.606 441.658C399.564 461.759 398.397 483.204 409 489.555C419.602 495.907 437.959 484.761 450.001 464.66Z" fill="#32B088"/>
<path d="M400.825 490.245C411.428 483.893 410.261 462.449 398.219 442.348C386.177 422.247 367.82 411.101 357.217 417.452C346.615 423.804 347.781 445.248 359.823 465.349C371.865 485.451 390.222 496.597 400.825 490.245Z" fill="#32B088"/>
<path d="M317.789 450.444V458.618C317.789 488.1 341.689 512 371.171 512H438.621C468.103 512 492.003 488.1 492.003 458.618V450.444C492.003 447.484 489.603 445.084 486.643 445.084H323.15C320.189 445.083 317.789 447.483 317.789 450.444Z" fill="#5B5555"/>
<path d="M486.643 445.084H466.039C468.999 445.084 471.399 447.484 471.399 450.444V458.618C471.399 488.1 447.499 512 418.017 512H438.621C468.103 512 492.003 488.1 492.003 458.618V450.444C492.003 447.484 489.603 445.084 486.643 445.084Z" fill="#433F43"/>
</g>
<defs>
<clipPath id="clip0_653_7803">
<rect width="512" height="512" fill="white"/>
</clipPath>
</defs>
</svg>
