<svg id="Capa_1" enable-background="new 0 0 497 497" height="300" viewBox="0 0 497 497" width="300" xmlns="http://www.w3.org/2000/svg" version="1.1" xmlns:xlink="http://www.w3.org/1999/xlink" xmlns:svgjs="http://svgjs.dev/svgjs"><g width="100%" height="100%" transform="matrix(1,0,0,1,0,0)"><g><path d="m151.217 71.903-.001-12.085c-.002-13.432-10.888-24.32-24.316-24.318-2.484 0-4.881.373-7.138 1.066-9.944 3.052-14.603 13.687-14.602 24.634l-2.568 20.563-.178.014c-1.437-12.062-11.692-21.416-24.137-21.414-2.186 0-4.304.289-6.319.83-10.364 2.784-15.481 13.785-15.479 25.031l-.17 99.915-2.327 24.118-.001.535c-.002-14.911-12.087-26.998-26.994-26.996-3.152 0-6.179.541-8.991 1.535-10.485 3.704-15.816 15.605-15.815 27.36l.511 96c.002 15.337 4.393 28.899 13.787 41.021l31.489 40.511c4.708 6.075 6.02 13.931 5.966 21.617l1.182 25.021c-.076 10.979 5.449 22.049 15.795 24.175 1.478.304 3.009.463 4.577.463l127.55-.015c12.548-.001 22.694-10.223 22.604-22.772l-.097-13.555c-.115-16.093 3.831-31.955 11.473-46.117 7.535-13.964 11.48-29.582 11.48-45.449l2.702-196.858-2.702-24.678c0-13.412-10.872-24.283-24.282-24.282h-.061c-2.185 0-4.304.289-6.319.83-4.992 1.341-8.779 6.195-11.955 10.087-3.419 4.19-6.041 7.576-6.04 13.406v-37.742-.398c-.002-13.432-10.888-24.32-24.316-24.318-2.186 0-4.305.289-6.32.831-3.463.93-6.322 4.495-8.992 6.734-5.319 4.462-8.999 9.272-8.998 16.759z" fill="#f4ab79" fill-opacity="1" data-original-color="#f6d190ff" stroke="none" stroke-opacity="1"/><g fill="#ecbd83"><path d="m71.06 412.63-.09 48.42c-10.38-2.11-18.16-11.32-18.09-22.31l.18-26.23c.06-7.69-2.47-15.17-7.18-21.24l-31.37-40.49c-9.4-12.12-14.5-27.02-14.5-42.36l-.01-97.63c0-7.45 3.02-14.2 7.9-19.09 2.82-2.82 6.26-5.01 10.1-6.36l.01 123.08c0 11.29 3.81 22.42 10.72 31.34l31.38 40.48c7.14 9.23 11.03 20.73 10.95 32.39z" fill="#b26f51" fill-opacity="1" data-original-color="#ecbd83ff" stroke="none" stroke-opacity="1"/><path d="m217.84 88.61v130.915c0 4.968-4.027 8.995-8.995 8.995h-.01c-4.968 0-8.995-4.027-8.995-8.995v-107.425c0-11.24 7.63-20.71 18-23.49z" fill="#b26f51" fill-opacity="1" data-original-color="#ecbd83ff" stroke="none" stroke-opacity="1"/><path d="m169.21 50.48v150.045c0 4.968-4.027 8.995-8.995 8.995-4.968 0-8.995-4.027-8.995-8.995v-126.565c0-6.72 2.72-12.8 7.12-17.2 2.97-2.97 6.69-5.17 10.87-6.28z" fill="#b26f51" fill-opacity="1" data-original-color="#ecbd83ff" stroke="none" stroke-opacity="1"/><path d="m119.792 37.342v176.97c0 4.96-4.03 8.99-9 8.99-2.48 0-4.74-1.01-6.36-2.64-.75-.74-1.36-1.62-1.81-2.59v-157.47c0-6.72 2.72-12.8 7.12-17.2 2.77-2.77 6.21-4.88 10.05-6.06z" fill="#b26f51" fill-opacity="1" data-original-color="#ecbd83ff" stroke="none" stroke-opacity="1"/><path d="m71.96 272.666v-211.466c-4.18 1.11-7.9 3.31-10.87 6.28-4.4 4.41-7.12 10.49-7.12 17.21l.01 125.57v.53c0-.23 0-.46-.02-.69v66.55c-.095 1.612.064 2.946.676 4.38.979 2.299 2.944 4.011 5.389 4.695 25.611 7.176 43.533 30.717 43.695 57.326.025 4.101 3.105 7.699 7.203 7.858 4.278.166 7.798-3.253 7.798-7.494 0-30.196-18.31-57.291-45.537-68.915-.739-.315-1.224-1.031-1.224-1.834z" fill="#b26f51" fill-opacity="1" data-original-color="#ecbd83ff" stroke="none" stroke-opacity="1"/></g><g><path d="m345.783 73.961c.002-13.432-10.882-24.322-24.31-24.324-1.145 0-2.272.079-3.374.232-2.117.294-4.17 1.413-6.045 2.269-8.601 3.928-14.297 12.748-14.298 22.836v.398l-.598 36.725c.002-13.432-10.887-24.322-24.314-24.324h-.061c-1.461 0-2.892.129-4.282.376-11.368 2.022-18.702 13.719-18.702 25.669l-1.299 219.774c0 15.867 4.661 30.33 12.196 44.294 7.642 14.163 11.589 30.024 11.474 46.117l.348 13.497c-.084 11.683 7.543 22.562 18.881 23.842.84.095 1.695.144 2.561.144l127.55.015c12.547.001 22.694-10.216 22.607-22.764l-.182-26.226c-.053-7.686 2.477-15.167 7.185-21.242l31.373-40.486c9.394-12.123 14.493-27.024 14.495-42.361l.011-97.63c.002-14.908-12.081-26.995-26.987-26.997-2.078 0-4.101.234-6.044.679-4.572 1.046-8.47 4.495-11.83 7.537-5.086 4.604-8.643 9.878-9.072 17.172l-.048-.044.015-124.453c.001-13.432-10.883-24.323-24.31-24.324-1.145 0-2.271.079-3.374.232-4.662.647-8.381 3.75-11.807 6.65-5.266 4.459-9.131 9.985-9.135 17.427l.002-24.848c.002-13.432-10.882-24.322-24.31-24.324-1.147 0-2.276.079-3.381.233-3.853.536-6.93 3.092-9.985 5.214-6.322 4.391-10.948 10.589-9.702 19.808l-.001 12.085zm48.625 10.721" fill="#f4ab79" fill-opacity="1" data-original-color="#f6d190ff" stroke="none" stroke-opacity="1"/><g fill="#ecbd83"><path d="m291.45 425.3-.05 36.04c-11.34-1.28-20.12-10.95-20.04-22.63l.09-13.55v-.71c0-15.85-3.94-31.46-11.47-45.41-7.53-13.96-11.48-29.58-11.48-45.45v-221.53c0-11.96 8.63-21.89 20-23.91v245.44c0 12.51 3.14 24.94 9.08 35.95 9.21 17.08 14.01 36.36 13.87 55.76z" fill="#b26f51" fill-opacity="1" data-original-color="#ecbd83ff" stroke="none" stroke-opacity="1"/><path d="m318.1 49.88v179.15h-20.94v-155.07c0-6.72 2.72-12.8 7.12-17.2 3.65-3.65 8.45-6.14 13.82-6.88z" fill="#b26f51" fill-opacity="1" data-original-color="#ecbd83ff" stroke="none" stroke-opacity="1"/><path d="m366.72 35.74v173.78h-20.94v-149.7c0-6.72 2.73-12.8 7.13-17.2 3.65-3.65 8.44-6.14 13.81-6.88z" fill="#b26f51" fill-opacity="1" data-original-color="#ecbd83ff" stroke="none" stroke-opacity="1"/><path d="m415.35 60.6v152.69c0 5.782-4.688 10.47-10.47 10.47-5.782 0-10.47-4.688-10.47-10.47v-128.62c0-6.71 2.72-12.79 7.12-17.19 3.65-3.65 8.45-6.14 13.82-6.88z" fill="#b26f51" fill-opacity="1" data-original-color="#ecbd83ff" stroke="none" stroke-opacity="1"/><path d="m443.07 209.18-.04-.03v58.455c0 .999-.738 1.827-1.726 1.975-16.371 2.452-33.254 11.875-44.418 24.948-11.653 13.518-18.093 30.789-18.149 48.655-.012 3.831 2.788 7.234 6.593 7.68 4.548.533 8.407-3.006 8.407-7.447 0-17.598 7.471-33.507 19.653-44.503 10.531-9.506 24.393-14.472 38.58-14.472 6.627 0 12-5.373 12-12v-87.96c-11.49 2.619-20.19 12.589-20.9 24.699z" fill="#b26f51" fill-opacity="1" data-original-color="#ecbd83ff" stroke="none" stroke-opacity="1"/></g></g><path d="m241.157 156.796c4.151 3.965 10.667 3.849 14.84-.094 14.872-14.05 35.005-22.661 57.026-22.594 45.165.136 82.019 37.719 81.379 82.893-.956 67.464-81.168 123.916-122.233 148.428-8.067 4.815-14.623 6.398-18.771 8.589-3.075 1.625-6.732 1.664-9.843.109-25.697-12.85-140.588-73.914-138.932-157.125.721-36.209 24.367-67.4 57.09-78.097 4.605-1.505 9.151-3.634 14.087-4.237 2.855-.349 5.76-.538 8.706-.559 22.027-.159 41.922 8.615 56.651 22.687z" fill="#f43159" fill-opacity="1" data-original-color="#ff8086ff" stroke="none" stroke-opacity="1"/><path d="m272.17 365.43c-8.07 4.81-14.62 8.4-18.77 10.59-3.08 1.62-6.73 1.66-9.84.11-25.7-12.85-142.59-75.92-140.94-159.13.82-41.35 32.98-77.54 73.31-82.35-25.21 14.41-42.71 41.99-43.31 72.35-1.62 81.8 111.3 144.13 139.55 158.43z" fill="#c11646" fill-opacity="1" data-original-color="#e5646eff" stroke="none" stroke-opacity="1"/></g></g></svg>