<svg id="Capa_1" enable-background="new 0 0 512 512" height="300" viewBox="0 0 512 512" width="300" xmlns="http://www.w3.org/2000/svg" version="1.1" xmlns:xlink="http://www.w3.org/1999/xlink" xmlns:svgjs="http://svgjs.dev/svgjs"><g width="100%" height="100%" transform="matrix(1,0,0,1,0,0)"><g><path d="m405.403 311.572h-38.35l-97.621 66.715c-7.418 7.418-19.446 7.418-26.864 0l-97.621-66.715h-38.351c-33.813 0-61.223 27.411-61.223 61.223v136.313c0 1.597 1.295 2.892 2.892 2.892h415.469c1.597 0 2.892-1.295 2.892-2.892v-136.313c.001-33.812-27.41-61.223-61.223-61.223z" fill="#7b4c8e" fill-opacity="1" data-original-color="#756e78ff" stroke="none" stroke-opacity="1"/><path d="m410.166 311.755c9.495 10.785 15.254 24.939 15.254 40.437v75.592c0 35.132-28.48 63.612-63.612 63.612h-316.435v17.711c0 1.597 1.295 2.892 2.892 2.892h415.469c1.597 0 2.892-1.295 2.892-2.892v-136.312c.001-32.21-24.873-58.61-56.46-61.04z" fill="#532053" fill-opacity="1" data-original-color="#665e66ff" stroke="none" stroke-opacity="1"/><path d="m126.741 416.235v95.765h-15.453v-95.765c0-4.268 3.459-7.726 7.726-7.726s7.727 3.459 7.727 7.726zm266.244-7.726c-4.267 0-7.726 3.459-7.726 7.726v95.765h15.453v-95.765c-.001-4.267-3.46-7.726-7.727-7.726z" fill="#532053" fill-opacity="1" data-original-color="#665e66ff" stroke="none" stroke-opacity="1"/><path d="m126.741 491.396v20.604h-15.453v-20.604zm258.518-4.462v25.066h15.453v-33.883c-4.677 3.619-9.871 6.602-15.453 8.817z" fill="#24142d" fill-opacity="1" data-original-color="#544f57ff" stroke="none" stroke-opacity="1"/><g fill="#f6e266"><path d="m466.938 208.265c-3.425 0-6.648-1.337-9.075-3.764l-.066-.066c-4.597-4.66-4.967-12.013-.85-17.143 18.863-23.505 29.252-53.038 29.252-83.159 0-30.122-10.388-59.655-29.252-83.159-4.136-5.153-3.744-12.55.911-17.205l.057-.057c2.422-2.394 5.623-3.712 9.023-3.712 3.969 0 7.678 1.786 10.174 4.898 22.498 28.053 34.888 63.295 34.888 99.235s-12.39 71.181-34.888 99.233c-2.497 3.113-6.205 4.899-10.174 4.899z" fill="#feb965" fill-opacity="1" data-original-color="#f6e266ff" stroke="none" stroke-opacity="1"/><path d="m434.409 166.427c-3.45-.001-6.694-1.346-9.137-3.788-4.386-4.386-4.985-11.338-1.427-16.532 8.498-12.404 12.99-26.919 12.99-41.974 0-15.056-4.492-29.57-12.99-41.974-3.558-5.194-2.958-12.146 1.426-16.531 2.444-2.444 5.688-3.789 9.137-3.789 4.229 0 8.177 2.063 10.561 5.52 11.558 16.758 17.667 36.389 17.667 56.774s-6.109 40.016-17.667 56.773c-2.383 3.456-6.331 5.521-10.56 5.521 0 0 .001 0 0 0z" fill="#feb965" fill-opacity="1" data-original-color="#f6e266ff" stroke="none" stroke-opacity="1"/><path d="m45.062 208.265c3.425 0 6.648-1.337 9.075-3.764l.066-.066c4.597-4.66 4.967-12.013.85-17.143-18.863-23.505-29.252-53.038-29.252-83.159 0-30.122 10.388-59.655 29.252-83.159 4.136-5.153 3.744-12.55-.911-17.205l-.057-.057c-2.422-2.394-5.623-3.712-9.023-3.712-3.969 0-7.678 1.786-10.174 4.898-22.498 28.053-34.888 63.295-34.888 99.235s12.39 71.181 34.888 99.233c2.497 3.113 6.205 4.899 10.174 4.899z" fill="#feb965" fill-opacity="1" data-original-color="#f6e266ff" stroke="none" stroke-opacity="1"/><path d="m77.591 166.427c3.45-.001 6.694-1.346 9.137-3.788 4.386-4.386 4.985-11.338 1.427-16.532-8.498-12.404-12.99-26.919-12.99-41.974 0-15.056 4.492-29.57 12.99-41.974 3.558-5.194 2.958-12.146-1.426-16.531-2.444-2.444-5.688-3.789-9.137-3.789-4.229 0-8.177 2.063-10.561 5.52-11.558 16.758-17.667 36.389-17.667 56.774s6.109 40.016 17.668 56.773c2.382 3.456 6.33 5.521 10.559 5.521z" fill="#feb965" fill-opacity="1" data-original-color="#f6e266ff" stroke="none" stroke-opacity="1"/></g><path d="m316.722 311.572c-4.839 0-8.761-3.922-8.761-8.761v-35.28c-18.206 12.482-38.334 19.632-51.961 19.632s-33.755-7.15-51.961-19.632v35.28c0 4.839-3.923 8.761-8.761 8.761h-50.331l97.621 97.621c7.418 7.418 19.446 7.418 26.864 0l97.621-97.621z" fill="#9da0fb" fill-opacity="1" data-original-color="#9dc6fbff" stroke="none" stroke-opacity="1"/><path d="m316.722 311.572c-3.115 0-5.851-1.626-7.404-4.076l-81.093 81.093c-1.078 1.078-2.253 1.999-3.497 2.763l17.84 17.84c7.418 7.418 19.446 7.418 26.864 0l97.621-97.621h-50.331z" fill="#8280fb" fill-opacity="1" data-original-color="#80b4fbff" stroke="none" stroke-opacity="1"/><path d="m373.581 126.768h-30.576l8.461 64.811h3.354c22.419 0 40.592-18.174 40.592-40.592v-2.388c0-12.057-9.774-21.831-21.831-21.831z" fill="#a25f4f" fill-opacity="1" data-original-color="#ffcbbeff" stroke="none" stroke-opacity="1"/><path d="m166.277 126.768h-27.858c-12.057 0-21.831 9.774-21.831 21.831v2.388c0 22.418 18.174 40.592 40.592 40.592h3.354z" fill="#cb8463" fill-opacity="1" data-original-color="#ffddceff" stroke="none" stroke-opacity="1"/><path d="m332.305 88.396c-.841-2.425-3.126-4.051-5.693-4.051-13.878 0-25.129-11.251-25.129-25.129.003-3.913-4.05-6.533-7.601-4.89-11.621 5.377-24.491 8.33-37.882 8.33-13.391 0-26.262-2.953-37.882-8.33-3.551-1.643-7.603.976-7.601 4.889v.001c0 13.878-11.251 25.129-25.129 25.129-2.567 0-4.852 1.626-5.693 4.051l-21.169 75.918 2.869 38.956c3.649 49.553 64.74 83.893 94.605 83.893s90.956-34.34 94.605-83.893l2.869-38.956z" fill="#e9af99" fill-opacity="1" data-original-color="#ffece4ff" stroke="none" stroke-opacity="1"/><path d="m332.305 103.277c-.841-2.425-3.126-4.051-5.693-4.051-3.901 0-7.594-.889-10.887-2.475l-3.458 46.958-2.869 38.956c-3.65 49.553-64.739 83.893-94.605 83.893-4.482 0-9.668-.774-15.257-2.256 19.312 14.47 41.702 22.86 56.464 22.86 29.866 0 90.955-34.34 94.605-83.893l2.869-38.956z" fill="#cb8463" fill-opacity="1" data-original-color="#ffddceff" stroke="none" stroke-opacity="1"/><path d="m232.119 149.771h-35.692c-4.267 0-7.726-3.459-7.726-7.726s3.459-7.726 7.726-7.726h35.692c4.267 0 7.726 3.459 7.726 7.726s-3.459 7.726-7.726 7.726zm47.886 33.765v-27.523c0-3.442 2.801-6.242 6.243-6.242h30.009c4.267 0 7.726-3.459 7.726-7.726s-3.459-7.726-7.726-7.726h-30.009c-11.963 0-21.696 9.732-21.696 21.695v27.523c0 3.443-2.801 6.243-6.243 6.243-4.267 0-7.726 3.459-7.726 7.726 0 4.268 3.459 7.726 7.726 7.726 11.964 0 21.696-9.732 21.696-21.696zm12.189 52.16c0-4.268-3.459-7.726-7.726-7.726h-56.936c-4.267 0-7.726 3.459-7.726 7.726 0 4.268 3.459 7.726 7.726 7.726h56.936c4.267.001 7.726-3.458 7.726-7.726z" fill="#cb8463" fill-opacity="1" data-original-color="#ffddceff" stroke="none" stroke-opacity="1"/><g fill="#ffcbbe"><path d="m292.194 235.696c0-3.058-1.776-5.7-4.353-6.953-4.929 5.398-10.431 10.312-16.217 14.679h12.843c4.268.001 7.727-3.458 7.727-7.726z" fill="#a25f4f" fill-opacity="1" data-original-color="#ffcbbeff" stroke="none" stroke-opacity="1"/><path d="m316.257 134.318h-3.299l-.692 9.391-.446 6.062h4.437c4.267 0 7.726-3.459 7.726-7.726s-3.459-7.727-7.726-7.727z" fill="#a25f4f" fill-opacity="1" data-original-color="#ffcbbeff" stroke="none" stroke-opacity="1"/></g><path d="m179.692 103.279c.841-2.426 3.122-4.053 5.69-4.053h.467c13.621 0 24.668-11.05 24.667-24.673 0-.153 0-.306 0-.457 0-3.936 4.078-6.515 7.651-4.864 11.608 5.362 24.46 8.306 37.832 8.306 13.391 0 26.262-2.953 37.882-8.33 3.552-1.643 7.604.976 7.601 4.89 0 13.902 11.289 25.168 25.201 25.129 2.541-.007 4.788 1.651 5.621 4.051l21.169 61.036 4.053-55.033c2.04-27.704-7.171-53.481-23.642-73.034-.754-.895-1.18-2.012-1.18-3.182v-.32c0-18.055-14.687-32.745-32.804-32.745h-129.757c-5.059 0-8.199 5.502-5.625 9.858l13.136 22.23c.968 1.638.818 3.709-.389 5.18-15.936 19.425-24.796 44.788-22.791 72.011l4.053 55.034z" fill="#7b4c8e" fill-opacity="1" data-original-color="#756e78ff" stroke="none" stroke-opacity="1"/><path d="m333.885 36.245c-.754-.895-1.18-2.012-1.18-3.182v-.32c-.001-18.053-14.688-32.743-32.805-32.743h-10.737c1.506 3.756 2.334 7.853 2.334 12.14v.32c0 1.171.426 2.287 1.18 3.182 16.471 19.553 25.683 45.33 23.642 73.034l-.595 8.075c3.314 1.596 7.032 2.486 10.96 2.475 2.54-.007 4.788 1.651 5.621 4.051l21.169 61.036 4.053-55.033c2.04-27.704-7.171-53.482-23.642-73.035z" fill="#532053" fill-opacity="1" data-original-color="#665e66ff" stroke="none" stroke-opacity="1"/></g></g></svg>