<svg id="Capa_1" enable-background="new 0 0 491.002 491.002" height="300" viewBox="0 0 491.002 491.002" width="300" xmlns="http://www.w3.org/2000/svg" version="1.1" xmlns:xlink="http://www.w3.org/1999/xlink" xmlns:svgjs="http://svgjs.dev/svgjs"><g width="100%" height="100%" transform="matrix(1,0,0,1,0,0)"><path d="m325.247 29.85c-81.18 0-146.98 65.81-146.98 146.98 0 81.18 65.8 146.979 146.98 146.979 81.17 0 146.98-65.8 146.98-146.979 0-81.17-65.81-146.98-146.98-146.98zm0 203.83c-31.4 0-56.85-25.45-56.85-56.85 0-31.39 25.45-56.85 56.85-56.85 31.39 0 56.85 25.46 56.85 56.85 0 31.4-25.46 56.85-56.85 56.85z" fill="#eeebee" fill-opacity="1" data-original-color="#eeebeeff" stroke="none" stroke-opacity="1"/><path d="m336.506 232.562c3.641.732 7.407 1.12 11.264 1.12 31.39 0 56.85-25.45 56.85-56.85 0-31.39-25.46-56.85-56.85-56.85-3.857 0-7.623.389-11.264 1.121 25.998 5.228 45.589 28.195 45.589 55.729 0 27.544-19.591 50.504-45.589 55.73z" fill="#c6bec9" fill-opacity="1" data-original-color="#d3ced5ff" stroke="none" stroke-opacity="1"/><path d="m200.79 176.833c0-77.381 59.8-140.802 135.717-146.555-3.717-.282-7.473-.426-11.262-.426-81.18 0-146.98 65.81-146.98 146.98 0 81.18 65.8 146.979 146.98 146.979 3.789 0 7.545-.144 11.262-.426-75.917-5.751-135.717-69.162-135.717-146.552z" fill="#c6bec9" fill-opacity="1" data-original-color="#d3ced5ff" stroke="none" stroke-opacity="1"/><path d="m382.095 176.833c0 31.4-25.46 56.85-56.85 56.85v90.13c81.17 0 146.98-65.8 146.98-146.979h-90.13zm-56.85-146.981c-81.18 0-146.98 65.81-146.98 146.98h90.13c0-31.39 25.45-56.85 56.85-56.85z" fill="#f93d49" fill-opacity="1" data-original-color="#da4a54ff" stroke="none" stroke-opacity="1"/><path d="m338.034 232.219c-.266.065-.539.127-.814.188-.238.051-.474.106-.713.154-.001 0-.002 0-.003 0 3.641.732 7.407 1.12 11.264 1.12 31.39 0 56.85-25.449 56.85-56.85h-22.526c.001 27-18.828 49.583-44.058 55.388z" fill="#af2733" fill-opacity="1" data-original-color="#d82e3dff" stroke="none" stroke-opacity="1"/><path d="m178.265 176.833h22.526c0-73.511 53.97-134.417 124.454-145.258v-1.723c-81.18 0-146.98 65.811-146.98 146.981z" fill="#af2733" fill-opacity="1" data-original-color="#d82e3dff" stroke="none" stroke-opacity="1"/><path d="m479.056 322.178h-.009l-128.995 103.472c-10.601 8.505-24.203 12.378-37.703 10.73l-173.857-21.159-46.324 17.135c-24.884-25.591-14.658-107.935-14.658-107.935l11.032-3.019c-.957-14.741 5.995-29.379 18.899-37.754 1.423-.932 2.915-1.777 4.485-2.545l74.551-36.408 38.341-18.726c2.088-1.018 4.218-1.82 6.383-2.407 16.026-4.39 33.424 2.657 41.627 17.769 9.307 17.156 3.442 38.599-13.301 48.631l-61.975 37.142 104.292 18.165c12.55 2.182 25.463-.457 36.158-7.401l103.722-67.331c13.913-9.04 32.424-5.9 42.593 7.22 2.631 3.398 4.477 7.168 5.555 11.084 3.261 11.902-.595 25.134-10.816 33.337z" fill="#e8b67e" fill-opacity="1" data-original-color="#f1d0a5ff" stroke="none" stroke-opacity="1"/><path d="m312.065 408.589c-71.422 9.277-120.661-32.605-150.451-72.008-14.771-19.538-9.791-47.483 10.83-60.701 71.921-46.102 90.524-44.408 100.383-34.549-8.203-15.112-25.601-22.159-41.627-17.769-2.165.587-4.296 1.389-6.383 2.407l-38.341 18.726-60.425 29.51s-.006.01-.007.012l-14.118 6.887c-15.759 7.694-24.445 23.927-23.384 40.299l-46.019 10.663s24.761 74.701 49.646 100.293l46.324-17.135 173.857 21.156c13.499 1.647 27.102-2.225 37.703-10.73l128.995-103.472c-44.577-12.093-118.878 79.053-166.983 86.411z" fill="#ce9561" fill-opacity="1" data-original-color="#f1b986ff" stroke="none" stroke-opacity="1"/><path d="m232.237 287.988c-6.142 0-12.102-2.981-15.74-8.414-7.9-11.797-12.31-29.342-12.494-30.083-.998-4.02 1.453-8.088 5.473-9.085 4.022-.997 8.088 1.453 9.085 5.473.084.335 4.014 15.813 10.399 25.348 1.12 1.672 3.418 2.225 5.233 1.257l9.297-4.958c3.653-1.948 8.199-.567 10.147 3.088 1.949 3.655.566 8.198-3.088 10.147l-9.297 4.958c-2.874 1.534-5.967 2.269-9.015 2.269z" fill="#ce9561" fill-opacity="1" data-original-color="#f1b986ff" stroke="none" stroke-opacity="1"/><path d="m62.081 314.057c-22.315 2.724-43.009 10.036-62.081 21.937 12.465 42.523 27.207 84.241 44.225 125.155 22.315-2.723 43.009-10.036 62.081-21.937-12.465-42.522-27.207-84.241-44.225-125.155z" fill="#42a5af" fill-opacity="1" data-original-color="#80a6c6ff" stroke="none" stroke-opacity="1"/><path d="m106.306 439.212c-19.07 11.91-39.76 19.22-62.08 21.94-4.43-10.66-8.7-21.37-12.82-32.13 23.25-2.87 44.84-10.42 64.77-22.66 3.53 10.9 6.91 21.85 10.13 32.85z" fill="#337f91" fill-opacity="1" data-original-color="#5b8eb8ff" stroke="none" stroke-opacity="1"/><path d="m65.455 435.474c-4.115 0-7.908-2.638-9.36-6.482-1.454-3.849-.331-8.333 2.766-11.044 3.185-2.788 7.925-3.253 11.591-1.137 3.66 2.113 5.642 6.462 4.803 10.613-.932 4.61-5.082 8.05-9.8 8.05z" fill="#eeebee" fill-opacity="1" data-original-color="#eeebeeff" stroke="none" stroke-opacity="1"/></g></svg>