<svg id="Layer_1" enable-background="new 0 0 512 512" height="300" viewBox="0 0 512 512" width="300" xmlns="http://www.w3.org/2000/svg" version="1.1" xmlns:xlink="http://www.w3.org/1999/xlink" xmlns:svgjs="http://svgjs.dev/svgjs"><g width="100%" height="100%" transform="matrix(1,0,0,1,0,0)"><g><g><g><path d="m452.112 474.455c20.491 0 34.592-20.803 26.757-39.737-7.09-17.133-17.734-29.622-4.74-58.744 22.961-51.459 10.602-78.75-9.714-111.79-34.441-56.012-9.261-84.62-22.653-133.142-48.223-174.717-323.296-174.728-371.523 0-13.393 48.522 11.788 77.129-22.653 133.142-20.316 33.04-32.675 60.331-9.714 111.79 12.994 29.122 2.35 41.612-4.74 58.744-7.835 18.934 6.266 39.737 26.757 39.737z" fill="#843e3b" fill-opacity="1" data-original-color="#735351ff" stroke="none" stroke-opacity="1"/><path d="m474.129 375.974c22.961-51.459 10.602-78.75-9.714-111.79-34.441-56.013-9.261-84.62-22.653-133.142-25.651-92.932-115.481-136.437-201.218-130.508 75.454 5.217 147.738 48.721 170.312 130.508 13.393 48.522-11.788 77.13 22.653 133.142 20.316 33.04 32.675 60.331 9.714 111.79-12.994 29.122-2.35 41.612 4.74 58.744 7.835 18.934-6.266 39.737-26.757 39.737h30.905c20.491 0 34.592-20.804 26.757-39.737-7.089-17.133-17.733-29.623-4.739-58.744z" fill="#6b2a26" fill-opacity="1" data-original-color="#664442ff" stroke="none" stroke-opacity="1"/><g><g><ellipse cx="396.338" cy="271.048" fill="#fac8a2" rx="31.298" ry="31.444" fill-opacity="1" data-original-color="#fac8a2ff" stroke="none" stroke-opacity="1"/></g><g><ellipse cx="115.662" cy="271.048" fill="#fac8a2" rx="31.298" ry="31.444" fill-opacity="1" data-original-color="#fac8a2ff" stroke="none" stroke-opacity="1"/></g></g><g><path d="m111.533 512v-23.24c0-79.666 64.582-144.248 144.248-144.248h.439c79.666 0 144.248 64.582 144.248 144.248v23.24z" fill="#ff4f80" fill-opacity="1" data-original-color="#ff80b3ff" stroke="none" stroke-opacity="1"/><path d="m256.219 344.512h-.439c-5.145 0-10.227.27-15.233.796 72.505 7.61 129.015 68.932 129.015 143.452v23.24h30.905v-23.24c0-79.666-64.582-144.248-144.248-144.248z" fill="#cb2e56" fill-opacity="1" data-original-color="#ff6ba7ff" stroke="none" stroke-opacity="1"/><path d="m256.056 454.528h-.111c-20.21 0-36.594-16.384-36.594-36.594v-59.226h73.298v59.226c0 20.21-16.383 36.594-36.593 36.594z" fill="#ffd8ba" fill-opacity="1" data-original-color="#ffd8baff" stroke="none" stroke-opacity="1"/></g><g><path d="m181.344 100.439c-4.633 47.132-28.565 52.383-43.343 57.509-7.086 2.458-11.818 9.18-11.818 16.711v89.116c0 72.03 58.121 130.421 129.818 130.421 71.696 0 129.817-58.392 129.817-130.421v-82.906c0-10.037-8.296-17.981-18.283-17.687-15.63.459-41.584.577-61.692-19.332-25.633-25.379-40.459-16.343-67.211-16.954-33.445-.764-47.285-16.346-52.895-27.297-1.069-2.087-4.163-1.496-4.393.84z" fill="#ffd8ba" fill-opacity="1" data-original-color="#ffd8baff" stroke="none" stroke-opacity="1"/></g></g><g fill="#735351"><path d="m164.702 204.029c-2.289 0-4.554-1.01-6.076-2.945-2.632-3.346-2.073-8.18 1.263-10.823.625-.495 15.51-12.12 34.848-12.581 4.275-.113 7.807 3.275 7.908 7.54.102 4.266-3.275 7.807-7.54 7.908-14.047.335-25.526 9.171-25.641 9.261-1.414 1.104-3.094 1.64-4.762 1.64z" fill="#843e3b" fill-opacity="1" data-original-color="#735351ff" stroke="none" stroke-opacity="1"/><path d="m347.308 204.044c-1.674 0-3.359-.542-4.776-1.657-.261-.201-11.681-8.925-25.637-9.258-4.266-.102-7.642-3.642-7.54-7.908s3.651-7.628 7.908-7.54c19.338.461 34.223 12.086 34.848 12.581 3.344 2.65 3.907 7.51 1.257 10.854-1.525 1.924-3.782 2.928-6.06 2.928z" fill="#843e3b" fill-opacity="1" data-original-color="#735351ff" stroke="none" stroke-opacity="1"/></g></g><path d="m255.142 351.647c-19.857 0-36.012-16.155-36.012-36.012 0-4.267 3.459-7.726 7.726-7.726 4.268 0 7.726 3.459 7.726 7.726 0 11.337 9.223 20.559 20.559 20.559s20.559-9.223 20.559-20.559c0-4.267 3.459-7.726 7.726-7.726s7.726 3.459 7.726 7.726c.002 19.857-16.153 36.012-36.01 36.012z" fill="#f0b07f" fill-opacity="1" data-original-color="#f0b07fff" stroke="none" stroke-opacity="1"/><g><path d="m340.318 222.132c-8.297-2.648-16.974-.48-23.024 4.939-1.792-7.922-7.608-14.716-15.906-17.364-12.463-3.978-25.792 2.901-29.77 15.365-10.64 33.339 26.999 60.517 26.999 60.517s45.898 1.301 57.065-33.688c3.979-12.463-2.9-25.791-15.364-29.769z" fill="#ff6363" fill-opacity="1" data-original-color="#e86d6dff" stroke="none" stroke-opacity="1"/><g><path d="m340.318 222.132c-8.127-2.594-16.618-.566-22.648 4.611 6.979 6.014 10.086 15.829 7.108 25.159-5.371 16.831-18.78 25.264-31.25 29.485 3.026 2.712 5.091 4.203 5.091 4.203s45.898 1.301 57.065-33.688c3.977-12.464-2.902-25.792-15.366-29.77z" fill="#ce3c3c" fill-opacity="1" data-original-color="#e85151ff" stroke="none" stroke-opacity="1"/></g><path d="m172.381 222.132c8.297-2.648 16.974-.48 23.024 4.939 1.792-7.922 7.608-14.716 15.906-17.364 12.463-3.978 25.792 2.901 29.77 15.365 10.64 33.339-26.999 60.517-26.999 60.517s-45.898 1.301-57.065-33.688c-3.979-12.463 2.9-25.791 15.364-29.769z" fill="#ff6363" fill-opacity="1" data-original-color="#e86d6dff" stroke="none" stroke-opacity="1"/><g><path d="m241.08 225.072c-3.978-12.464-17.306-19.343-29.77-15.365-3.132.999-5.909 2.59-8.251 4.608 3.217 2.762 5.732 6.422 7.115 10.757 8.148 25.53-12.015 47.447-21.908 56.314 13.453 4.553 25.815 4.203 25.815 4.203s37.639-27.178 26.999-60.517z" fill="#ce3c3c" fill-opacity="1" data-original-color="#e85151ff" stroke="none" stroke-opacity="1"/></g></g></g></g></svg>