<svg width="512" height="512" viewBox="0 0 512 512" fill="none" xmlns="http://www.w3.org/2000/svg">
<g clip-path="url(#clip0_653_7830)">
<path d="M255.422 435.684C222.625 435.727 190.965 458.07 184.504 492.102C183.641 496.645 183.387 500.234 183.321 504.109C183.243 508.441 186.715 512 191.043 512H319.793C324.102 512 327.602 508.477 327.52 504.172C327.434 499.523 327.075 494.938 325.719 489.207C318.075 456.906 287.418 435.727 255.422 435.684Z" fill="#20B69F"/>
<path d="M255.422 435.684V466.59C275.246 466.637 296.629 481.316 296.629 504.969V512H319.801C324.098 512 327.578 508.488 327.527 504.188C327.504 502.273 327.441 500.875 327.281 499.012C324.066 461.262 290.555 435.73 255.422 435.684Z" fill="#17998C"/>
<path d="M255.422 466.59L185.352 434.551L175.594 425.98C169.219 417.16 164.313 407.227 161.246 396.508L161.25 396.598C157.879 398.512 153.98 399.613 149.828 399.613C137.027 399.613 126.648 389.234 126.648 376.434C126.648 363.633 137.027 353.254 149.828 353.254C153.004 353.254 156.027 353.895 158.785 355.051C166.289 306.879 206.695 260.57 255.422 260.57C274.184 260.57 291.707 267.441 306.598 278.637L317.582 290.246L352.055 355.051L349.594 396.492L255.422 466.59Z" fill="#FFB578"/>
<path d="M361.016 353.254C357.84 353.254 354.812 353.895 352.055 355.051C347.441 325.426 330.383 296.512 306.598 278.637C318.762 294.562 327.172 313.73 330.203 333.203C339.617 393.684 292.086 444.777 233.566 444.734C212 444.75 191.902 437.797 175.598 425.98C193.43 450.652 222.742 466.609 255.422 466.59C299.859 466.621 337.957 437.16 349.598 396.492L349.59 396.598C352.961 398.512 356.859 399.609 361.016 399.609C373.816 399.609 384.195 389.23 384.195 376.43C384.195 363.629 373.816 353.254 361.016 353.254Z" fill="#F7A16E"/>
<path d="M363.328 335.043C352.965 299.824 334.637 278.984 308.656 261.156C307.695 255.379 303.668 249.391 297.637 246.555C295.41 245.449 292.359 244.203 289.531 243.199L143.383 323.313C141.687 327.758 140.937 331.918 142.008 337.02C143.039 338.051 141.789 347.902 158.785 355.047C206.336 355.047 252.008 335.977 285.547 301.512C292.277 332.129 319.414 355.047 352.055 355.047C362.312 350.891 365.48 342.355 363.328 335.043Z" fill="#81493B"/>
<path d="M289.531 243.199C279.91 239.844 267.43 237.375 255.426 237.375C203.273 237.375 160.941 277.203 143.383 323.312C148.457 323.848 153.613 324.125 158.824 324.125C216.07 324.125 265.609 291.164 289.531 243.199Z" fill="#A05A4B"/>
<path d="M372.915 15.2344C359.032 5.625 342.188 0 324.028 0H183.31C137.524 1.94531 101.001 39.7578 101.001 86.0195C101.001 106.676 108.423 126.031 120.653 141.137C134.337 148.68 149.708 152.641 165.333 152.641H352.056L402.462 102.23V81.0352C402.462 62.2773 396.063 44.082 384.325 29.4531L372.915 15.2344Z" fill="#D0E6F5"/>
<path d="M410.048 86.6699C410.267 57.0566 395.513 30.8691 372.915 15.2285C382.653 29.2871 388.329 46.3887 388.192 64.8184C388.032 86.6465 379.61 106.455 365.946 121.482C354.419 134.166 337.888 141.135 320.747 141.135H120.653C136.36 160.529 159.267 172.037 183.31 172.037H255.423V196.557C255.423 202.021 262.505 204.166 265.536 199.619L283.923 172.037H322.95C348.716 172.037 373.142 160.713 389.755 141.135C402.263 126.393 409.892 107.443 410.048 86.6699Z" fill="#80A5B5"/>
<path d="M222.044 86.0176C222.044 90.2871 218.583 93.7441 214.317 93.7441C210.052 93.7441 206.591 90.2871 206.591 86.0176C206.591 81.752 210.052 78.291 214.317 78.291C218.583 78.291 222.044 81.752 222.044 86.0176Z" fill="#35404A"/>
<path d="M263.251 86.0176C263.251 90.2871 259.794 93.7441 255.524 93.7441C251.259 93.7441 247.798 90.2871 247.798 86.0176C247.798 81.752 251.259 78.291 255.524 78.291C259.794 78.291 263.251 81.752 263.251 86.0176Z" fill="#35404A"/>
<path d="M304.458 86.0176C304.458 90.2871 301.001 93.7441 296.731 93.7441C292.466 93.7441 289.005 90.2871 289.005 86.0176C289.005 81.752 292.466 78.291 296.731 78.291C301.001 78.291 304.458 81.752 304.458 86.0176Z" fill="#35404A"/>
<path d="M241.239 376.443V373.354C241.239 368.576 237.364 364.701 232.587 364.701C227.81 364.701 223.935 368.576 223.935 373.354V376.443C223.935 381.225 227.81 385.096 232.587 385.096C237.364 385.096 241.239 381.225 241.239 376.443Z" fill="#35404A"/>
<path d="M281.2 364.701C276.423 364.701 272.552 368.576 272.552 373.354V376.443C272.552 381.225 276.423 385.096 281.2 385.096C285.978 385.096 289.853 381.225 289.853 376.443V373.354C289.853 368.576 285.978 364.701 281.2 364.701Z" fill="#35404A"/>
<path d="M267.822 404.701C264.904 407.619 261.021 409.228 256.892 409.228C252.767 409.228 248.884 407.619 245.966 404.701C242.947 401.681 238.056 401.685 235.041 404.701C232.021 407.716 232.025 412.611 235.041 415.626C240.876 421.462 248.638 424.681 256.892 424.681C265.146 424.681 272.908 421.462 278.748 415.626C281.763 412.611 281.763 407.716 278.748 404.701C275.728 401.685 270.837 401.685 267.822 404.701Z" fill="#35404A"/>
</g>
<defs>
<clipPath id="clip0_653_7830">
<rect width="512" height="512" fill="white"/>
</clipPath>
</defs>
</svg>
