<svg width="512" height="512" viewBox="0 0 512 512" fill="none" xmlns="http://www.w3.org/2000/svg">
<g clip-path="url(#clip0_653_7846)">
<path d="M501.624 395.697C494.987 370.929 493.598 344.953 498.374 319.76C500.39 309.126 501.41 297.926 501.41 286.179C501.41 274.432 500.389 263.232 498.374 252.598C493.598 227.405 494.988 201.429 501.624 176.661L511.405 140.157C514.774 127.582 503.268 116.075 490.693 119.445L457.799 128.259C427.89 136.273 396.443 135.937 366.533 127.928C334.841 119.441 297.884 115.057 256 115.057C214.116 115.057 177.159 119.442 145.467 127.928C115.556 135.938 84.1099 136.274 54.2009 128.259L21.3069 119.445C8.73186 116.076 -2.77514 127.582 0.594864 140.157L10.3759 176.661C17.0129 201.429 18.4019 227.405 13.6259 252.598C11.6099 263.232 10.5899 274.432 10.5899 286.179C10.5899 297.926 11.6109 309.126 13.6259 319.76C18.4019 344.953 17.0119 370.929 10.3759 395.697L0.594864 432.201C-2.77414 444.776 8.73186 456.283 21.3069 452.913L54.2009 444.099C84.1099 436.085 115.557 436.421 145.467 444.43C177.159 452.918 214.116 457.303 256 457.303C297.884 457.303 334.841 452.918 366.533 444.432C396.444 436.422 427.89 436.086 457.799 444.101L490.693 452.915C503.268 456.284 514.775 444.778 511.405 432.203L501.624 395.697Z" fill="#D0E6F5"/>
<path d="M501.624 395.696C494.987 370.928 493.598 344.952 498.374 319.759C500.39 309.125 501.41 297.925 501.41 286.178C501.41 274.431 500.389 263.231 498.374 252.597C493.598 227.404 494.988 201.428 501.624 176.66L511.405 140.156C514.774 127.581 503.268 116.074 490.693 119.444L457.799 128.258C445.939 131.436 433.836 133.279 421.684 133.874L421.388 134.98C414.751 159.748 413.362 185.724 418.138 210.917C420.154 221.551 421.174 232.751 421.174 244.498C421.174 256.245 420.153 267.445 418.138 278.079C413.362 303.272 414.752 329.248 421.388 354.016L431.169 390.52C434.538 403.095 423.032 414.602 410.457 411.232L377.563 402.418C347.654 394.404 316.207 394.74 286.297 402.749C254.605 411.236 217.648 415.621 175.764 415.621C133.88 415.621 96.9226 411.236 65.2306 402.749C47.1806 397.915 28.5716 395.898 10.0786 396.802L0.593609 432.2C-2.77539 444.775 8.73061 456.282 21.3056 452.912L54.1996 444.098C84.1086 436.084 115.556 436.42 145.466 444.429C177.159 452.917 214.116 457.302 256 457.302C297.884 457.302 334.841 452.917 366.533 444.431C396.444 436.421 427.89 436.085 457.799 444.1L490.693 452.914C503.268 456.283 514.775 444.777 511.405 432.202L501.624 395.696Z" fill="#80A5B5"/>
<path d="M289.862 205.717H222.814C179.703 205.717 144.754 240.666 144.754 283.777V341.894H367.923V283.777C367.922 240.666 332.973 205.717 289.862 205.717Z" fill="#873F29"/>
<path d="M288.851 205.717H256.078C299.747 205.717 335.149 241.118 335.149 284.787V341.894H367.922V284.787C367.922 241.118 332.521 205.717 288.851 205.717Z" fill="#652611"/>
<path d="M355.578 334.732C354.951 334.686 354.343 334.673 353.744 334.677V300.931C353.744 283.793 339.851 269.9 322.713 269.9H190.638C173.5 269.9 159.607 283.793 159.607 300.931V334.726C158.587 334.655 157.529 334.651 156.422 334.732C140.592 335.898 128.35 344.858 129.733 363.638C131.078 381.899 144.81 402.714 160.12 402.781C165.054 450.187 205.131 487.147 253.843 487.147H259.508C308.241 487.147 348.333 450.154 353.238 402.718C367.994 401.478 380.962 381.358 382.267 363.638C383.65 344.858 371.407 335.898 355.578 334.732Z" fill="#F2AF94"/>
<path d="M355.578 334.732C354.951 334.686 354.343 334.673 353.744 334.677V300.931C353.744 283.793 339.851 269.9 322.713 269.9H311.405C315.98 275.306 318.744 282.294 318.744 289.931V381.912C318.744 433.957 276.553 476.148 224.508 476.148H218.843C215.381 476.148 211.964 475.956 208.598 475.592C222.028 482.957 237.445 487.148 253.843 487.148H259.508C308.241 487.148 348.333 450.155 353.238 402.719C367.994 401.479 380.962 381.359 382.267 363.639C383.65 344.858 371.407 335.898 355.578 334.732Z" fill="#DD8969"/>
<path d="M255.999 425.127C245.471 425.127 235.537 421.544 228.026 415.038C224.801 412.245 224.451 407.365 227.245 404.14C230.038 400.916 234.917 400.565 238.143 403.359C242.845 407.432 249.187 409.676 255.999 409.676C262.812 409.676 269.153 407.433 273.855 403.359C277.08 400.565 281.959 400.915 284.753 404.14C287.546 407.365 287.197 412.244 283.972 415.038C276.461 421.544 266.527 425.127 255.999 425.127Z" fill="#A44F3E"/>
<path d="M300.51 374.508C289.877 374.508 280.608 367.692 277.446 357.547C276.176 353.474 278.449 349.142 282.522 347.873C286.595 346.604 290.927 348.876 292.196 352.949C293.335 356.602 296.676 359.057 300.509 359.057C304.343 359.057 307.684 356.603 308.822 352.949C310.091 348.875 314.425 346.601 318.496 347.873C322.569 349.142 324.842 353.474 323.572 357.547C320.412 367.692 311.143 374.508 300.51 374.508Z" fill="#652611"/>
<path d="M212.841 374.508C202.208 374.508 192.94 367.692 189.777 357.547C188.507 353.474 190.78 349.142 194.853 347.873C198.926 346.604 203.258 348.876 204.527 352.949C205.666 356.602 209.006 359.057 212.84 359.057C216.674 359.057 220.015 356.603 221.153 352.949C222.423 348.875 226.755 346.601 230.827 347.873C234.9 349.142 237.173 353.474 235.903 357.547C232.743 367.692 223.474 374.508 212.841 374.508Z" fill="#652611"/>
<path d="M424.237 179.584H394.639C389.775 179.584 385.843 177.1 385.843 172.443C385.843 167.786 389.776 165.303 394.639 165.303H439.346C443.693 165.303 447.211 167.165 447.211 173.065C447.211 175.134 446.384 177.411 444.831 179.17L405.817 225.532H438.933C443.797 225.532 447.73 228.016 447.73 232.673C447.73 237.329 443.797 239.813 438.933 239.813H392.882C386.673 239.813 383.051 237.743 383.051 231.43C383.051 228.739 384.293 226.773 385.845 224.911L424.237 179.584Z" fill="#183C56"/>
<path d="M442.994 67.215H422.548C419.932 67.215 416.831 65.762 416.831 61.692C416.831 57.622 419.932 56.168 422.548 56.168H456.172C459.951 56.168 461.986 58.687 461.986 62.37C461.986 63.92 461.114 65.665 459.757 67.118L433.594 95.801H456.85C459.466 95.801 462.567 97.254 462.567 101.324C462.567 105.394 459.466 106.847 456.85 106.847H420.804C416.637 106.847 414.505 104.134 414.505 101.324C414.505 99.289 415.087 97.545 416.346 96.188L442.994 67.215Z" fill="#183C56"/>
<path d="M380.667 33.1215H365.368C363.41 33.1215 361.09 32.0345 361.09 28.9885C361.09 25.9425 363.41 24.8555 365.368 24.8555H390.528C393.356 24.8555 394.879 26.7405 394.879 29.4965C394.879 30.6565 394.227 31.9625 393.211 33.0495L373.634 54.5125H391.036C392.994 54.5125 395.314 55.5995 395.314 58.6455C395.314 61.6915 392.994 62.7785 391.036 62.7785H364.063C360.945 62.7785 359.35 60.7485 359.35 58.6455C359.35 57.1225 359.785 55.8175 360.728 54.8025L380.667 33.1215Z" fill="#183C56"/>
</g>
<defs>
<clipPath id="clip0_653_7846">
<rect width="512" height="512" fill="white"/>
</clipPath>
</defs>
</svg>
