<svg id="Capa_1" enable-background="new 0 0 512 512" viewBox="0 0 512 512" xmlns="http://www.w3.org/2000/svg" width="300" height="300" version="1.1" xmlns:xlink="http://www.w3.org/1999/xlink" xmlns:svgjs="http://svgjs.dev/svgjs"><g width="100%" height="100%" transform="matrix(1,0,0,1,0,0)"><g><path d="m114.315 459.828v-37.473c10.755-2.049 18.535-11.445 18.535-22.384v-64.431h117.788v64.432c0 10.939 7.78 20.335 18.535 22.384l3.207 32.274z" fill="#843b2a" fill-opacity="1" data-original-color="#ca6e59ff" stroke="none" stroke-opacity="1"/><path d="m268.339 101.421c0 74.143-39.934 162.22-141.596 133.086l-84.829-38.55c-7.374-6.049-12.098-15.334-12.098-25.741 0-9.326 3.796-17.755 9.891-23.753l8.56-2.36 5.92-5.884c-8.56-6.368-14.119-16.663-14.119-28.297 0-14.607 8.761-27.119 21.212-32.367 1.428-.602 2.193-2.125 1.829-3.63-.613-2.534-.939-5.181-.939-7.902 0-18.229 14.48-33.017 32.343-33.017 2.155 0 4.259.227 6.291.629 0 0 1.63-2.009 2.444-2.473 4.095-2.36 6.322-9.676 5.425-11.387 6.766-7.584 16.533-12.355 27.382-12.355 9.008 0 17.27 3.293 23.685 8.754 1.439 1.224 3.622.866 4.614-.74 5.732-9.271 15.852-15.434 27.385-15.434 11.541 0 21.661 6.161 27.384 15.43.995 1.611 3.18 1.963 4.622.736 2.218-1.887 4.653-3.51 7.267-4.82 37.327 11.309 37.327 63.324 37.327 90.075z" fill="#c93360" fill-opacity="1" data-original-color="#73788cff" stroke="none" stroke-opacity="1"/><path d="m353.672 170.215c0 10.408-4.723 19.692-12.098 25.741l-97.02 52.678h-86.727l-31.085-14.128c70.246-13.53 123.309-75.287 123.309-149.43 0-26.751-6.91-51.895-19.039-73.731 4.951-2.514 10.52-3.926 16.419-3.926 10.85 0 20.617 4.771 27.383 12.355l1.702 8.316 6.168 5.544c2.032-.402 4.136-.629 6.281-.629 17.873 0 32.354 14.787 32.354 33.017 0 3.689-.609 7.244-1.702 10.562 13.81 4.524 23.804 17.735 23.804 33.336 0 11.634-5.559 21.929-14.119 28.297 14.005 3.629 24.37 16.582 24.37 31.998z" fill="#8e1144" fill-opacity="1" data-original-color="#5e6577ff" stroke="none" stroke-opacity="1"/><path d="m80.074 148.575c.691 4.215-2.156 8.182-6.384 8.872-10.035 1.649-20.153-.711-28.476-6.636-1.609-1.144-4.177-2.648-5.508-4.349 3.981-3.926 8.952-6.811 14.48-8.244 4.899 3.493 11.108 4.946 17.007 3.978 4.209-.69 8.19 2.164 8.881 6.379z" fill="#8e1144" fill-opacity="1" data-original-color="#5e6577ff" stroke="none" stroke-opacity="1"/><path d="m128.167 34.645c2.393 3.535 1.464 8.337-2.073 10.727-1.33.897-2.836 1.329-4.332 1.329-2.475 0-4.92-1.195-6.415-3.401-3.373-4.988-8.674-8.501-14.542-9.666 1.64-5.204 4.352-9.913 7.869-13.86 7.91 2.66 14.717 7.822 19.493 14.871z" fill="#8e1144" fill-opacity="1" data-original-color="#5e6577ff" stroke="none" stroke-opacity="1"/><path d="m282.684 33.635c-5.868 1.164-11.17 4.678-14.542 9.666-1.495 2.205-3.94 3.401-6.415 3.401-1.495 0-3.001-.433-4.332-1.329-3.538-2.401-4.466-7.203-2.073-10.738 4.775-7.048 11.592-12.201 19.493-14.86 3.517 3.947 6.229 8.656 7.869 13.86z" fill="#490a26" fill-opacity="1" data-original-color="#4d5263ff" stroke="none" stroke-opacity="1"/><path d="m303.881 267.916c24.688-6.019 43.013-28.267 43.013-54.791 0-12.391-10.052-22.436-22.451-22.436h-20.563l-226.187.029h-20.562c-12.4 0-22.451 10.045-22.451 22.436 0 26.524 18.324 48.772 43.013 54.791z" fill="#843b2a" fill-opacity="1" data-original-color="#ca6e59ff" stroke="none" stroke-opacity="1"/><path d="m249.532 129.128c10.91-5.128 23.667-.644 29.173 9.602 2.148 3.997 4.753 7.731 7.481 11.358l4.876 6.482c2.064 6.018 6.658 34.125 13.031 34.125v85.592c0 20.594-8.894 40.188-24.406 53.743l-44.376 38.806c-8.682 7.591-19.831 11.769-31.364 11.769h-26.319c-11.533 0-22.683-4.178-31.364-11.769l-44.376-38.806c-15.512-13.555-24.406-33.15-24.406-53.743v-85.592c6.373 0 12.033-4.338 14.097-10.355l9.773-38.096c4.331-12.631 18.715-18.662 30.768-12.901l1.427.682 11.497 4.401c29.323 11.226 61.764 11.226 91.087 0l11.497-4.401z" fill="#cb725c" fill-opacity="1" data-original-color="#d78878ff" stroke="none" stroke-opacity="1"/><g fill="#ca6e59"><path d="m190.647 272.663c-4.927 0-9.855-1.142-14.347-3.425-3.808-1.935-5.324-6.588-3.387-10.393 1.938-3.804 6.598-5.317 10.401-3.384 4.594 2.334 10.076 2.333 14.668 0 3.806-1.936 8.464-.42 10.401 3.384s.421 8.458-3.387 10.393c-4.493 2.283-9.421 3.425-14.349 3.425z" fill="#843b2a" fill-opacity="1" data-original-color="#ca6e59ff" stroke="none" stroke-opacity="1"/><path d="m125.333 193.729c-2.591 0-5.123-1.301-6.586-3.665-2.247-3.63-1.123-8.393 2.511-10.638 13.401-8.279 34.393-8.279 47.792 0 3.634 2.245 4.758 7.008 2.511 10.638-2.249 3.63-7.018 4.752-10.647 2.509-8.396-5.188-23.126-5.187-31.52 0-1.267.782-2.673 1.156-4.061 1.156z" fill="#843b2a" fill-opacity="1" data-original-color="#ca6e59ff" stroke="none" stroke-opacity="1"/><path d="m255.962 193.729c-1.389 0-2.794-.373-4.061-1.156-8.396-5.187-23.124-5.187-31.52 0-3.631 2.245-8.398 1.124-10.647-2.509-2.247-3.63-1.123-8.393 2.511-10.638 13.4-8.279 34.392-8.279 47.792 0 3.634 2.245 4.758 7.008 2.511 10.638-1.463 2.363-3.995 3.665-6.586 3.665z" fill="#843b2a" fill-opacity="1" data-original-color="#ca6e59ff" stroke="none" stroke-opacity="1"/><path d="m236.14 235.962c-4.272 0-7.735-3.46-7.735-7.729v-17.553c0-4.268 3.463-7.729 7.735-7.729s7.735 3.46 7.735 7.729v17.553c0 4.268-3.462 7.729-7.735 7.729z" fill="#843b2a" fill-opacity="1" data-original-color="#ca6e59ff" stroke="none" stroke-opacity="1"/><path d="m145.154 235.962c-4.272 0-7.735-3.46-7.735-7.729v-17.553c0-4.268 3.463-7.729 7.735-7.729s7.735 3.46 7.735 7.729v17.553c0 4.268-3.462 7.729-7.735 7.729z" fill="#843b2a" fill-opacity="1" data-original-color="#ca6e59ff" stroke="none" stroke-opacity="1"/></g><path d="m190.647 331.75c-24.468 0-25.557-22.563-25.146-30.75.082-1.642 1.445-2.923 3.09-2.923h44.039c1.674 0 3.052 1.326 3.093 2.998.205 8.249-1.413 30.675-25.076 30.675z" fill="#f1f7ff" fill-opacity="1" data-original-color="#eaf6ffff" stroke="none" stroke-opacity="1"/><path d="m67.831 512-64.737-.149c-1.712 0-3.094-1.381-3.094-3.091v-57.43c0-1.154.639-2.226 1.66-2.751 8.416-4.318 17.492-7.471 26.97-9.274l7.457-1.494 65.784 24.38z" fill="#feba4f" fill-opacity="1" data-original-color="#9be69dff" stroke="none" stroke-opacity="1"/><path d="m427.043 471.136-24.972 40.714-86.204.063-31.19-54.573c.34-.35 63.055-20.024 63.055-20.024l4.26.814c9.942 1.896 19.431 5.266 28.187 9.913z" fill="#feba4f" fill-opacity="1" data-original-color="#9be69dff" stroke="none" stroke-opacity="1"/><path d="m268.163 423.415 9.42 47.282-34.049 41.185-103.391.118-39.218-43.193 14.628-45.155c41.677 43.177 111.025 43.094 152.61-.237z" fill="#f1f7ff" fill-opacity="1" data-original-color="#eaf6ffff" stroke="none" stroke-opacity="1"/><path d="m140.143 512-28.162-101.179c-1.703-6.127-8.125-9.645-14.216-7.798l-62.606 19.063c-2.829.856-4.264 3.982-3.066 6.684l13.207 29.879c.394.892 1.187 1.546 2.138 1.764l32.177 7.376c2.138.49 3.101 2.985 1.845 4.782l-17.46 25.003c-.574.821-.713 1.869-.375 2.812l4.206 11.614z" fill="#ffdf86" fill-opacity="1" data-original-color="#bbf49bff" stroke="none" stroke-opacity="1"/><path d="m243.533 511.882 28.198-101.297c1.706-6.127 8.127-9.648 14.216-7.795l62.605 19.055c2.822.859 4.258 3.99 3.066 6.687l-13.207 29.881c-.394.892-1.187 1.546-2.139 1.764l-32.178 7.373c-2.138.49-3.101 2.985-1.846 4.782l17.464 25.009c.574.821.713 1.87.375 2.813l-4.221 11.759z" fill="#ffdf86" fill-opacity="1" data-original-color="#bbf49bff" stroke="none" stroke-opacity="1"/><g><path d="m504.339 392.018v39.629c0 6.07-1.121 18.234-2.72 24.025-1.599 5.802-6.667 12.348-9.771 17.562-6.25 10.511-3.513 21.332-3.472 33.553l-7.926 5.064h-78.166v-16.962c0-10.655-4.002-20.939-11.221-28.802-2.981-3.256-5.301-6.997-6.869-11.036-1.578-4.04-2.403-8.357-2.403-12.768v-17.075c0-6.822 3.331-13.211 8.931-17.127z" fill="#cb725c" fill-opacity="1" data-original-color="#d78878ff" stroke="none" stroke-opacity="1"/><g><path d="m504.339 352.726v39.291c0 3.823-.805 4.872-3.311 7.376-2.475 2.473-11.172-1.308-14.947-1.277l-6.724-7.182-2.175-25.543 7.136-5.506c0-3.813 1.547-7.265 4.053-9.759 2.424-2.422 5.745-3.947 9.416-4.039 4.542 1.677 6.552 4.012 6.552 6.639z" fill="#cb725c" fill-opacity="1" data-original-color="#d78878ff" stroke="none" stroke-opacity="1"/><path d="m512 359.885v31.048c0 3.813-1.547 7.265-4.053 9.769-2.506 2.494-5.972 4.039-9.788 4.039-4.6 0-8.674-2.236-11.19-5.688l-.887-.938c3.775-.031 7.189-1.577 9.664-4.05 2.506-2.504 4.053-5.956 4.053-9.779v-31.016c0-2.628-.732-5.091-2.011-7.182.124-.01.247-.01.371-.01 7.643-.001 13.841 6.182 13.841 13.807z" fill="#843b2a" fill-opacity="1" data-original-color="#ca6e59ff" stroke="none" stroke-opacity="1"/></g><path d="m512 390.934v41.333c0 6.07-.825 12.077-2.413 17.869-1.599 5.802-3.971 11.387-7.075 16.601-6.25 10.511-9.53 22.506-9.478 34.727l.029 7.284c.007 1.712-1.38 3.104-3.094 3.104h-9.517l-.041-10.387c-.041-12.221 3.238-24.216 9.489-34.727 3.104-5.214 5.476-10.799 7.075-16.601 1.599-5.791 2.413-11.799 2.413-17.869v-39.55z" fill="#843b2a" fill-opacity="1" data-original-color="#ca6e59ff" stroke="none" stroke-opacity="1"/><path d="m417.022 294.11v111.622c0 8.017-13.129 14.571-21.153 14.571l6.819-18.208-9.431-8.96.002-99.025c0-5.894 3.538-10.985 8.601-13.273 11.155 0 15.162 7.389 15.162 13.273z" fill="#cb725c" fill-opacity="1" data-original-color="#d78878ff" stroke="none" stroke-opacity="1"/><path d="m446.896 346.489v36.623c0 5.905-9.597 11.016-14.671 13.293-5.074-2.277-8.632-7.389-8.632-13.293l-3.561-.787v-34.577l3.561-1.259c0-5.894 3.558-11.006 8.632-13.283 12.235 1.563 14.671 7.389 14.671 13.283z" fill="#cb725c" fill-opacity="1" data-original-color="#d78878ff" stroke="none" stroke-opacity="1"/><path d="m478.312 346.489v38.839c0 5.894-10.671 11.006-15.745 13.283-5.074-2.277-8.633-7.378-8.633-13.283l-3.475-2.216v-35.049l3.475-1.574c0-5.894 3.558-11.006 8.633-13.283 13.827 1.878 15.745 7.389 15.745 13.283z" fill="#cb725c" fill-opacity="1" data-original-color="#d78878ff" stroke="none" stroke-opacity="1"/><g fill="#ca6e59"><path d="m423.592 294.11v105.681c0 8.017-13.139 8.017-13.139 0v-105.681c0-5.884-3.538-10.985-8.591-13.273 1.826-.835 3.857-1.298 5.982-1.298h1.165c8.024 0 14.583 6.554 14.583 14.571z" fill="#843b2a" fill-opacity="1" data-original-color="#ca6e59ff" stroke="none" stroke-opacity="1"/><path d="m453.935 346.489v36.623c0 8.017-6.559 14.581-14.583 14.581h-1.176c-2.114 0-4.125-.453-5.951-1.288 5.074-2.277 8.633-7.389 8.633-13.293v-36.623c0-5.894-3.558-11.006-8.633-13.283 1.826-.835 3.837-1.288 5.951-1.288h1.176c8.023 0 14.583 6.564 14.583 14.571z" fill="#843b2a" fill-opacity="1" data-original-color="#ca6e59ff" stroke="none" stroke-opacity="1"/><path d="m484.277 346.489v38.839c0 8.017-6.57 14.571-14.594 14.571h-1.165c-2.114 0-4.136-.453-5.951-1.288 5.074-2.277 8.622-7.389 8.622-13.283v-38.839c0-5.894-3.548-10.995-8.622-13.283 1.815-.835 3.837-1.288 5.951-1.288h1.165c8.024 0 14.594 6.564 14.594 14.571z" fill="#843b2a" fill-opacity="1" data-original-color="#ca6e59ff" stroke="none" stroke-opacity="1"/><path d="m495.665 385.853c0 2.195-.231 4.342-.665 6.415-2.71 12.961-13.491 23.017-27.166 24.439l-18.511 1.931c-.41.042-.797.259-1.042.598l-4.964 6.678c-.358.476-.387 1.112-.094 1.63 6.663 11.502 9.124 25.847 6.592 39.358-.498 2.656-2.987 4.588-5.659 4.177-2.506-.386-4.228-2.52-4.228-4.91 0-.311.028-.626.09-.942 2.088-10.936.217-22.678-5.218-32.394-.952-1.696-2.215-3.189-3.705-4.437-.269-.226-.542-.447-.825-.655l-37.014-21.433.002-13.175 25.85-18.572c4.834-3.447 10.612-5.326 16.55-5.382l42.919-.405c9.418.002 17.088 7.66 17.088 17.079z" fill="#843b2a" fill-opacity="1" data-original-color="#ca6e59ff" stroke="none" stroke-opacity="1"/></g><path d="m430.042 427.712 12.211-16.417c.506-.68 1.269-1.123 2.111-1.225l26.388-3.196c3.532-1.155 6.637-3.207 9.05-5.88 3.398-3.765 5.435-8.764 5.386-14.19-.034-3.835-3.252-6.887-7.091-6.887h-38.827c-5.382 0-10.633 1.65-15.036 4.73l-33.511 23.433z" fill="#cb725c" fill-opacity="1" data-original-color="#d78878ff" stroke="none" stroke-opacity="1"/></g><g><path d="m490.252 97.132c0 66.981-52.257 121.893-119.295 121.893-21.762 0-69.542-15.957-75.757-33.286l1.176-4.74c.175-.732.082-1.494-.268-2.154-11.727-22.485-15.945-49.02-10.138-75.72 13.212-60.654 73.206-99.153 133.994-85.973 19.431 4.215 36.603 13.2 50.526 25.473 14.464 22.608 19.762 41.4 19.762 54.507z" fill="#f1f7ff" fill-opacity="1" data-original-color="#eaf6ffff" stroke="none" stroke-opacity="1"/><path d="m506.132 150.857c-13.212 60.664-73.206 99.163-134.004 85.983-12.748-2.762-24.515-7.574-35.035-14.025-.66-.402-1.434-.546-2.187-.402l-46.442 8.841c-2.217.423-4.125-1.587-3.589-3.782l10.324-41.735c17.657 10.016 38.078 15.735 59.839 15.735 67.038 0 121.391-54.306 121.391-121.288 0-13.108-2.083-25.741-5.941-37.561 29.642 26.064 44.627 66.974 35.644 108.234z" fill="#cfe6ff" fill-opacity="1" data-original-color="#d8ecfeff" stroke="none" stroke-opacity="1"/><g><path d="m440.802 99.682c0 30.149-31.694 59.315-62.489 59.315-4.671 0-9.721 3.172-17.878-8.866-2.082-5.015-4.777-9.787-8.07-14.182-8.993-9.916-14.482-23.077-14.482-37.501 0-27.479 19.864-50.321 46.026-54.98 42.312 0 56.893 29.393 56.893 56.214z" fill="#ffe177" fill-opacity="1" data-original-color="#ffe177ff" stroke="none" stroke-opacity="1"/><path d="m449.678 98.448c0 14.288-5.382 27.335-14.224 37.213-8.66 11.641-13.535 25.664-13.535 40.209v3.491l-56.276.182v-3.083c0-9.084-3.481-22.441-6.918-30.724 4.338 1.066 8.872 1.626 13.543 1.626 30.795 0 57.471-20.036 57.471-50.185 0-26.821-19.773-49.134-45.829-53.71 3.202-.575 6.503-.87 9.871-.87 30.871.001 55.897 25.006 55.897 55.851z" fill="#ffd15b" fill-opacity="1" data-original-color="#ffd15bff" stroke="none" stroke-opacity="1"/><path d="m404.28 177.254 8.749 17.071c0 9.266-5.555 17.071-25.524 17.071h-4.383c-9.266 0-16.783-7.503-16.783-16.769v-17.374h37.941z" fill="#8e1144" fill-opacity="1" data-original-color="#5e6577ff" stroke="none" stroke-opacity="1"/><path d="m421.222 177.254v17.374c0 9.265-7.517 16.769-16.783 16.769h-16.934c9.266 0 16.775-7.503 16.775-16.769v-17.374z" fill="#490a26" fill-opacity="1" data-original-color="#4d5263ff" stroke="none" stroke-opacity="1"/><path d="m418.096 113.477c0 3.131-2.543 5.673-5.678 5.673h-12.96v22.549c-3.093 13.638-7.953 13.224-11.355 3.836v-26.385h-11.469c-3.134 0-5.678-2.541-5.678-5.673s2.544-5.673 5.678-5.673h35.784c3.134 0 5.678 2.542 5.678 5.673z" fill="#ffd15b" fill-opacity="1" data-original-color="#ffd15bff" stroke="none" stroke-opacity="1"/><path d="m399.458 141.699v31.229c0 3.131-2.544 5.673-5.678 5.673s-5.678-2.541-5.678-5.673v-27.392c3.975-1.015 7.783-2.037 11.356-3.837z" fill="#ffc344" fill-opacity="1" data-original-color="#ffc344ff" stroke="none" stroke-opacity="1"/><path d="m425.55 167.784c0 3.71 2.252 7.917 0 10.356-2.26 2.43-18.987 5.319-22.433 5.319h-41.279c-6.884 0-12.461-6.02-12.461-13.44 0-3.71 1.394-7.075 3.646-9.514 2.26-2.43 5.377-3.935 8.815-3.935h41.279c6.884 0 22.433 3.785 22.433 11.214z" fill="#c93360" fill-opacity="1" data-original-color="#73788cff" stroke="none" stroke-opacity="1"/><path d="m438.185 170.019c0 3.71-1.394 7.066-3.646 9.505-2.26 2.43-5.377 3.935-8.815 3.935h-22.607c3.446 0 6.555-1.505 8.815-3.935 2.252-2.439 3.646-5.795 3.646-9.505 0-7.429-5.578-13.449-12.461-13.449h22.607c6.883 0 12.461 6.02 12.461 13.449z" fill="#8e1144" fill-opacity="1" data-original-color="#5e6577ff" stroke="none" stroke-opacity="1"/></g></g></g><g/><g/><g/><g/><g/><g/><g/><g/><g/><g/><g/><g/><g/><g/><g/></g></svg>