<?xml version="1.0" encoding="iso-8859-1"?>
<!-- Generator: Adobe Illustrator 19.0.0, SVG Export Plug-In . SVG Version: 6.00 Build 0)  -->
<svg version="1.1" id="Capa_1" xmlns="http://www.w3.org/2000/svg" xmlns:xlink="http://www.w3.org/1999/xlink" x="0px" y="0px"
	 viewBox="0 0 512 512" style="enable-background:new 0 0 512 512;" xml:space="preserve">
<path style="fill:#EAB883;" d="M273.575,93.07l-35.055-3.818c0,0-2.632,16.395-14.702,14.887l3.01,9.597
	c4.004,12.766,15.497,21.716,28.854,22.47l0,0c13.486,0.762,25.53-8.382,28.42-21.576l0.932-4.254
	C269.696,110.249,273.575,93.07,273.575,93.07z"/>
<path style="fill:#E0A773;" d="M258.232,91.399l-19.712-2.147c0,0-2.632,16.395-14.702,14.887l3.01,9.597
	c0.825,2.63,1.983,5.087,3.395,7.355l3.823-0.631c12.144-2.005,21.604-11.622,23.407-23.798L258.232,91.399z"/>
<path style="fill:#F7CF9C;" d="M388.34,176.875l-63.411-3.01l-5.332-7.647l-25.945,16.645l8,11.751
	c6.731,10.353,18.121,9.792,18.446,9.882l66.298,3.147c8.317,0.395,15.8-5.655,16.56-13.946
	C403.763,184.894,397.073,177.29,388.34,176.875z"/>
<path style="fill:#EAB883;" d="M395.41,192.704l-66.298-3.147c-0.326-0.09-11.715,0.471-18.446-9.882l-3.662-5.379l-13.352,8.566
	l8,11.75c6.731,10.353,18.121,9.792,18.446,9.882l66.298,3.147c8.317,0.395,15.8-5.655,16.56-13.946
	c0.077-0.839,0.065-1.661,0.011-2.473C400.663,192.286,398.081,192.831,395.41,192.704z"/>
<path style="fill:#E04B4B;" d="M287.376,188.58l35.715-22.912c2.699-1.731,3.41-5.363,1.564-7.985l-26.202-37.199h-4.8
	C293.652,120.485,285.64,160.823,287.376,188.58z"/>
<path style="fill:#D14242;" d="M289.53,146.713c-1.64,13.088-2.968,28.859-2.154,41.867l20.432-13.108L289.53,146.713z"/>
<path style="fill:#F7CF9C;" d="M208.833,353.214c-31.236-7.483-29.528-7.22-29.616-6.904
	c-0.049,0.174-32.272,115.293-32.237,115.168c-2.94,10.558,5.074,20.815,15.952,19.844h30.748c7.917,0,14.335-6.418,14.335-14.335
	l0,0c0-8.017-6.499-14.515-14.515-14.515c-12.832,0-12.279,0.116-12.173-0.267C209.912,349.518,209.262,353.317,208.833,353.214z"/>
<path style="fill:#EAB883;" d="M176.097,467.569L176.097,467.569L176.097,467.569c-7.551,0.197-13.225-6.835-11.437-14.174
	l1.167-4.788c0.073-0.345,0.156-0.691,0.253-1.037c-0.026,0.094,18.455-65.931,27.442-98.038
	c-15.282-3.688-14.234-3.474-14.304-3.223c-0.049,0.174-32.272,115.293-32.237,115.168c-2.94,10.558,5.074,20.815,15.952,19.844
	h30.748c7.773,0,14.085-6.19,14.314-13.908L176.097,467.569z"/>
<path style="fill:#666666;" d="M189.422,256.386l-24.588,80.508c-1.466,4.553,1.252,9.391,5.903,10.508l42.445,10.195
	c4.362,1.048,8.82-1.325,10.387-5.528l7.641-21.845L189.422,256.386z"/>
<path style="fill:#5A5B5B;" d="M189.042,344.105l17.534-57.41l-17.153-30.309l-24.588,80.508c-1.466,4.553,1.252,9.391,5.903,10.508
	l20.14,4.838C188.912,350.139,188.089,347.065,189.042,344.105z"/>
<path style="fill:#F7CF9C;" d="M326.857,452.471c-1.304,0-2.47-0.815-2.917-2.04c-71.426-195.489,2.636,7.414-38.998-107.764
	l-29.523,8.366c37.976,105.025-31.121-84.146,43.583,120.312c2.428,6.645,8.982,10.57,15.708,9.976v0.015h31.53
	c7.971,0,14.433-6.462,14.433-14.433l0,0c0-7.971-6.462-14.433-14.433-14.433h-19.383V452.471z"/>
<path style="fill:#EAB883;" d="M357.436,467.601h-31.53v-0.015c-6.726,0.594-13.28-3.331-15.708-9.976
	c-72.201-197.607-10.08-27.533-40.121-110.73l-14.659,4.154c37.976,105.025-31.121-84.146,43.583,120.312
	c2.428,6.645,8.982,10.57,15.708,9.976v0.015h31.53c7.862,0,14.243-6.289,14.417-14.109
	C359.619,467.464,358.544,467.601,357.436,467.601z"/>
<path style="fill:#7F7E7D;" d="M189.422,256.386l49.156,93.171c2.034,3.685,6.341,5.482,10.391,4.334l42.362-12.004
	c4.184-1.186,6.747-5.397,5.878-9.658l-26.169-77.231L189.422,256.386z"/>
<path style="fill:#666666;" d="M266.393,348.527l-48.864-92.619l-28.106,0.478l49.156,93.171c2.034,3.685,6.341,5.482,10.391,4.334
	l17.646-5C266.54,348.77,266.462,348.652,266.393,348.527z"/>
<path style="fill:#F7CF9C;" d="M154.151,125.137l-14.555,5.792c-11.539,4.397-13.387,15.642-13.547,15.949L109,211.024
	c-2.139,8.047,2.198,16.636,10.143,19.127c8.434,2.644,17.277-2.293,19.523-10.743l16.306-61.353l9.206-3.753L154.151,125.137z"/>
<path style="fill:#EAB883;" d="M122.511,220.992l17.049-64.146c0.16-0.307,2.008-11.552,13.547-15.949l5.685-2.262l-4.641-13.498
	l-14.555,5.792c-11.539,4.398-13.387,15.642-13.547,15.95l-17.048,64.146c-2.139,8.047,2.198,16.636,10.143,19.127
	c1.288,0.404,2.584,0.61,3.866,0.675C121.866,227.771,121.622,224.338,122.511,220.992z"/>
<circle style="fill:#F7CF9C;" cx="260.821" cy="47.41" r="47.41"/>
<path style="fill:#EAB883;" d="M259.686,73.849c-22.226-13.837-29.027-43.073-15.189-65.3c1.659-2.665,3.545-5.102,5.608-7.314
	c-11.826,2.745-22.604,10.004-29.528,21.125c-13.838,22.227-7.037,51.463,15.189,65.3c19.562,12.178,44.547,8.364,59.692-7.877
	C283.647,82.524,270.791,80.763,259.686,73.849z"/>
<path style="fill:#ED5A5A;" d="M189.422,256.386l93.55,1.926c4.036-0.494,6.811-4.272,6.104-8.277
	c-7.787-44.135,3.588-105.518,9.376-129.551c1.499-6.223-2.828-12.339-9.197-12.979l0,0c-1.917-0.193-3.702,1.014-4.221,2.87
	c-3.677,13.13-15.811,22.645-29.795,21.857c-12.286-0.692-22.232-8.782-25.999-19.562c-1.774-5.077-5.319-9.419-10.085-11.91
	c-2.625-1.372-5.454-2.319-8.38-2.776c-10.304-1.61-20.897-0.126-30.413,4.327l-28.387,13.284c-1.724,0.807-2.563,2.784-1.944,4.585
	l14.317,41.641c0.548,1.594,2.398,2.312,3.878,1.506l14.528-7.91c4.843-2.637,10.985,0.944,10.629,6.447
	c-0.016,0.247-0.044,0.495-0.084,0.745c-2.388,14.959-7.377,42.238-10.348,86.707C182.7,253.084,185.645,256.308,189.422,256.386z"
	/>
<path style="fill:#D14242;" d="M193.353,125.972c12.48-5.839,26.369-7.794,39.884-5.702c-1.686-2.31-3.042-4.867-3.996-7.6
	c-1.774-5.077-5.319-9.419-10.085-11.91c-2.625-1.372-5.454-2.319-8.38-2.777c-10.304-1.61-20.897-0.126-30.413,4.327
	l-28.387,13.284c-1.724,0.807-2.563,2.784-1.944,4.585l7.72,22.453L193.353,125.972z"/>
<path style="fill:#F47D7D;" d="M259.615,164.785c-0.284,0-0.571-0.016-0.86-0.048l-7.873-0.872c-4.241-0.47-7.299-4.289-6.829-8.53
	s4.297-7.3,8.53-6.828l7.873,0.872c4.241,0.47,7.299,4.289,6.829,8.53C266.847,161.861,263.501,164.785,259.615,164.785z"/>
<path style="fill:#E6E6E6;" d="M478.275,481.399c-50.72,0-379.536,0-444.549,0c-8.45,0-15.3,6.85-15.3,15.301
	c0,8.45,6.85,15.3,15.3,15.3c23.679,0,80.862,0,103.019,0c41.709,0,307.558,0,341.53,0c8.45,0,15.3-6.85,15.3-15.3
	C493.576,488.249,486.725,481.399,478.275,481.399z"/>
<path style="fill:#CCCCCC;" d="M129.686,496.7c0-8.451,6.85-15.301,15.3-15.301c-50.621,0-92.237,0-111.26,0
	c-8.45,0-15.3,6.85-15.3,15.301c0,8.45,6.85,15.3,15.3,15.3c23.68,0,80.862,0,103.019,0c2.163,0,4.937,0,8.241,0
	C136.537,512,129.686,505.15,129.686,496.7z"/>
<path style="fill:#D14242;" d="M219.417,172.046c1.65-15.547-14.237-26.978-28.432-20.428l-8.23,3.798
	c4.843-2.637,10.985,0.944,10.629,6.447c-0.016,0.247-0.044,0.495-0.084,0.745c-2.389,14.961-7.379,42.246-10.35,86.725
	c-0.251,3.764,2.7,6.976,6.472,7.053l28.613,0.589l0.027-0.524C214.822,228.84,216.843,196.301,219.417,172.046z"/>
<g>
</g>
<g>
</g>
<g>
</g>
<g>
</g>
<g>
</g>
<g>
</g>
<g>
</g>
<g>
</g>
<g>
</g>
<g>
</g>
<g>
</g>
<g>
</g>
<g>
</g>
<g>
</g>
<g>
</g>
</svg>
