<svg width="512" height="512" viewBox="0 0 512 512" fill="none" xmlns="http://www.w3.org/2000/svg">
<g clip-path="url(#clip0_681_7220)">
<path d="M390.165 188.404C388.5 184.828 376.082 168.695 371.155 167.69C371.375 167.262 371.435 166.824 371.275 166.377C371.038 165.712 370.344 165.07 369.346 164.469C372.652 163.994 374.855 163.287 374.986 162.257C375.524 158.024 341.003 149.966 336.769 149.428C300.309 144.789 258.981 166.028 231.477 203.52C222.379 215.908 215.906 228.61 212.237 241.274C211.049 245.373 213.409 249.658 217.508 250.845C218.226 251.053 218.95 251.152 219.662 251.152C223.013 251.152 226.1 248.954 227.08 245.574C230.243 234.659 235.913 223.587 243.936 212.663C267.8 180.132 304.326 160.888 334.822 164.757C335.465 164.84 336.835 164.937 338.684 165.028C319.267 176.119 293.856 201.208 270.986 232.359C267.939 236.513 264.994 240.716 261.981 245.208C259.604 248.752 249.109 262.641 252.653 265.018C253.974 265.904 266.911 257.239 268.39 257.239C270.879 257.239 273.323 256.038 274.814 253.815C277.705 249.505 280.529 245.476 283.444 241.501C311.92 202.714 338.996 180.241 353.197 175.176C354.614 174.67 357.458 173.927 360.483 173C360.511 176.046 360.693 178.984 360.635 180.578C360.131 194.359 349.564 219.195 333.056 245.392C330.781 249.002 323.474 260.682 327.084 262.957C328.363 263.763 338.178 257.239 339.585 257.239C342.151 257.239 344.66 255.962 346.129 253.631C361.148 229.796 371.177 207.829 374.7 191.401C375.316 192.991 375.837 194.241 376.157 194.928C382.969 209.559 384.354 228.353 380.055 247.849C379.136 252.016 374.683 267.448 378.85 268.367C379.41 268.49 392.464 266.564 393.015 266.564C396.561 266.564 394.35 254.783 395.145 251.176C400.169 228.385 398.401 206.093 390.165 188.404Z" fill="#ADBDCC"/>
<path fill-rule="evenodd" clip-rule="evenodd" d="M173.402 502.939H338.569C347.476 502.939 354.747 495.686 354.747 486.832V438.016C324.085 447.395 290.765 452.521 255.986 452.521C221.207 452.521 187.916 447.395 157.225 438.016V486.832C157.224 495.686 164.495 502.939 173.402 502.939Z" fill="#F07281"/>
<path fill-rule="evenodd" clip-rule="evenodd" d="M291.203 502.939H338.569C347.476 502.939 354.747 495.686 354.747 486.832V438.016C339.562 442.647 323.734 446.259 307.381 448.705V486.832C307.381 495.686 300.11 502.939 291.203 502.939Z" fill="#EB5569"/>
<path fill-rule="evenodd" clip-rule="evenodd" d="M171.913 458.521C198.049 466.473 226.375 470.871 255.986 470.871C285.597 470.871 313.952 466.473 340.059 458.521C428.979 431.346 492.143 362.345 492.143 281.519L289.393 255.363L19.8569 281.518C19.8569 362.344 83.0219 431.345 171.913 458.521Z" fill="#E53950"/>
<path fill-rule="evenodd" clip-rule="evenodd" d="M25.026 321.159H401.061C434.877 321.159 440.747 317.839 431.402 349.936C417.093 399.888 375.392 441.452 319.646 463.908C326.567 462.335 333.4 460.529 340.058 458.52C425.094 432.539 486.565 368.286 491.763 292.032H490.916L276.604 268.367L20.208 292.033C20.879 301.965 22.515 311.693 25.026 321.159Z" fill="#CA2E43"/>
<path fill-rule="evenodd" clip-rule="evenodd" d="M212.766 374.172C223.104 374.172 231.543 382.619 231.543 392.9V400.386C231.543 410.697 223.104 419.114 212.766 419.114C202.428 419.114 193.989 410.696 193.989 400.386V392.9C193.989 382.619 202.429 374.172 212.766 374.172Z" fill="#E2B46E"/>
<path fill-rule="evenodd" clip-rule="evenodd" d="M402.609 148.032L482.068 39.7098C488.346 31.1468 486.478 19.0298 477.892 12.7678C469.307 6.50576 457.129 8.36976 450.851 16.9328L371.275 125.371L402.609 148.032Z" fill="#EEC992"/>
<path fill-rule="evenodd" clip-rule="evenodd" d="M402.609 148.034L482.068 39.7116C488.346 31.1486 486.478 19.0316 477.892 12.7696C475.527 11.0216 472.869 9.91562 470.153 9.39062C474.154 15.8856 474.095 24.4486 469.335 30.9736L391.57 136.937L402.609 148.034Z" fill="#E2B46E"/>
<path fill-rule="evenodd" clip-rule="evenodd" d="M400.623 167.868C404.974 161.926 405.471 154.324 402.609 148.033C401.237 145.091 399.163 142.47 396.36 140.431L380.766 129.042C377.904 126.945 374.604 125.751 371.275 125.372C364.529 124.673 357.55 127.44 353.257 133.294L341.294 149.596C338.259 153.732 339.159 159.546 343.303 162.57L350.6 167.896L368.355 180.857L375.691 186.211C379.82 189.224 385.608 188.328 388.632 184.207L400.623 167.868Z" fill="#017297"/>
<path fill-rule="evenodd" clip-rule="evenodd" d="M400.623 167.868C404.974 161.926 405.471 154.324 402.609 148.033C401.237 145.091 399.163 142.47 396.36 140.431L380.766 129.042C379.627 128.197 378.401 127.498 377.145 126.945L383.628 131.663C386.402 133.702 388.505 136.352 389.848 139.294C392.739 145.556 392.243 153.187 387.862 159.1L370.662 182.547L375.691 186.216C379.82 189.227 385.606 188.331 388.63 184.211L400.623 167.868Z" fill="#025F80"/>
<path fill-rule="evenodd" clip-rule="evenodd" d="M13.783 292.033H498.187C505.78 292.033 512 285.829 512 278.256V263.256C512 255.683 505.78 249.508 498.187 249.508H13.783C6.191 249.508 0 255.683 0 263.256V278.256C0 285.829 6.191 292.033 13.783 292.033Z" fill="#F07281"/>
<path fill-rule="evenodd" clip-rule="evenodd" d="M451.172 292.033H489.69H498.188C505.781 292.033 512.001 285.829 512.001 278.256V263.256C512.001 255.683 505.781 249.508 498.188 249.508H451.173C458.766 249.508 464.986 255.683 464.986 263.256V278.256C464.986 282.188 463.292 285.771 460.635 288.276C458.151 290.606 454.822 292.033 451.172 292.033Z" fill="#EB5569"/>
<path fill-rule="evenodd" clip-rule="evenodd" d="M230.317 248.257C230.317 245.606 228.127 243.422 225.469 243.422H219.658H92.5121C89.8551 243.422 87.6641 245.607 87.6641 248.257V295.85C87.6641 299.491 88.5111 302.928 89.9711 306.015C93.8261 314.025 102.002 319.559 111.435 319.559C120.868 319.559 129.073 314.025 132.899 306.015C134.388 302.928 135.206 299.491 135.206 295.85V306.015V342.598C135.206 355.618 145.923 366.307 159.006 366.307C172.059 366.307 182.776 355.617 182.776 342.598V314.986C182.776 328.035 193.464 338.695 206.547 338.695C219.6 338.695 230.317 328.035 230.317 314.986C230.317 287.695 230.317 275.549 230.317 248.257Z" fill="#EEC992"/>
<path fill-rule="evenodd" clip-rule="evenodd" d="M230.317 248.257C230.317 245.606 228.127 243.422 225.469 243.422H219.658H201.144C203.801 243.422 205.992 245.607 205.992 248.257V314.986C205.992 317.112 205.7 319.209 205.174 321.161C203.539 327.161 199.596 332.229 194.369 335.346C197.932 337.472 202.108 338.696 206.546 338.696C217.468 338.696 226.754 331.24 229.499 321.162C230.025 319.21 230.317 317.113 230.317 314.987C230.317 292.734 230.317 270.51 230.317 248.257Z" fill="#E2B46E"/>
</g>
<defs>
<clipPath id="clip0_681_7220">
<rect width="512" height="512" fill="white"/>
</clipPath>
</defs>
</svg>
