<svg width="513" height="512" viewBox="0 0 513 512" fill="none" xmlns="http://www.w3.org/2000/svg">
<g clip-path="url(#clip0_681_7668)">
<path d="M422.149 256H90.8511L123.508 33.9541C131.903 33.0784 139.676 29.1234 145.326 22.8527C150.975 16.582 154.101 8.44045 154.1 0C154.1 9.05272 157.696 17.7347 164.098 24.1359C170.499 30.5372 179.181 34.1333 188.233 34.1333C197.286 34.1333 205.968 30.5372 212.369 24.1359C218.771 17.7347 222.367 9.05272 222.367 0C222.367 9.05272 225.963 17.7347 232.364 24.1359C238.765 30.5372 247.447 34.1333 256.5 34.1333C265.553 34.1333 274.235 30.5372 280.636 24.1359C287.037 17.7347 290.633 9.05272 290.633 0C290.633 9.05272 294.23 17.7347 300.631 24.1359C307.032 30.5372 315.714 34.1333 324.767 34.1333C333.82 34.1333 342.501 30.5372 348.903 24.1359C355.304 17.7347 358.9 9.05272 358.9 0C358.9 8.44842 362.033 16.5966 367.694 22.8685C373.354 29.1404 381.139 33.0903 389.543 33.9541H389.492L422.149 256Z" fill="#474747"/>
<path d="M389.492 216.457V33.9456C381.099 33.0701 373.327 29.1162 367.678 22.8474C362.028 16.5785 358.901 8.43898 358.9 0C358.9 9.05272 355.304 17.7347 348.903 24.1359C342.502 30.5372 333.82 34.1333 324.767 34.1333C315.714 34.1333 307.032 30.5372 300.631 24.1359C294.23 17.7347 290.634 9.05272 290.634 0C290.634 9.05272 287.037 17.7347 280.636 24.1359C274.235 30.5372 265.553 34.1333 256.5 34.1333C247.448 34.1333 238.766 30.5372 232.364 24.1359C225.963 17.7347 222.367 9.05272 222.367 0C222.367 9.05272 218.771 17.7347 212.369 24.1359C205.968 30.5372 197.286 34.1333 188.234 34.1333C179.181 34.1333 170.499 30.5372 164.098 24.1359C157.696 17.7347 154.1 9.05272 154.1 0C154.101 8.44045 150.975 16.582 145.326 22.8527C139.676 29.1234 131.903 33.0784 123.508 33.9541L94.1621 233.523H372.426C376.952 233.523 381.293 231.725 384.494 228.525C387.694 225.324 389.492 220.983 389.492 216.457Z" fill="#595959"/>
<path d="M213.833 426.665V383.998C213.833 377.209 211.136 370.697 206.335 365.897C201.534 361.096 195.023 358.398 188.233 358.398H154.1C147.31 358.398 140.799 361.096 135.998 365.897C131.197 370.697 128.5 377.209 128.5 383.998V426.665H145.567C152.356 426.665 158.868 429.362 163.669 434.163C168.47 438.964 171.167 445.476 171.167 452.265C171.167 445.476 173.864 438.964 178.665 434.163C183.466 429.362 189.977 426.665 196.767 426.665H213.833Z" fill="#A72B25"/>
<path d="M299.167 426.665V383.998C299.167 377.209 296.47 370.697 291.669 365.897C286.868 361.096 280.356 358.398 273.567 358.398H239.433C232.644 358.398 226.132 361.096 221.332 365.897C216.531 370.697 213.833 377.209 213.833 383.998V426.665H230.9C237.69 426.665 244.201 429.362 249.002 434.163C253.803 438.964 256.5 445.476 256.5 452.265C256.5 445.476 259.197 438.964 263.998 434.163C268.799 429.362 275.311 426.665 282.1 426.665H299.167Z" fill="#D23F34"/>
<path d="M384.5 426.665V383.998C384.5 377.209 381.803 370.697 377.002 365.897C372.201 361.096 365.689 358.398 358.9 358.398H324.767C317.977 358.398 311.466 361.096 306.665 365.897C301.864 370.697 299.167 377.209 299.167 383.998V426.665H316.233C323.023 426.665 329.534 429.362 334.335 434.163C339.136 438.964 341.833 445.476 341.833 452.265C341.833 445.476 344.53 438.964 349.331 434.163C354.132 429.362 360.644 426.665 367.433 426.665H384.5Z" fill="#A72B25"/>
<path d="M123.508 33.9541C122.331 34.0743 121.149 34.1341 119.967 34.1333C110.914 34.1333 102.232 30.5372 95.8308 24.1359C89.4295 17.7347 85.8333 9.05272 85.8333 0H0.5V290.133H56.3507C64.5393 290.128 72.4533 287.18 78.6488 281.825C84.8443 276.471 88.9086 269.068 90.1 260.966L123.482 33.9797L123.508 33.9541Z" fill="#A72B25"/>
<path d="M77.3 247.467V0H0.5V264.533H60.2333C64.7597 264.533 69.1007 262.735 72.3013 259.535C75.5019 256.334 77.3 251.993 77.3 247.467Z" fill="#B52F28"/>
<path d="M222.367 0C222.367 9.05272 218.771 17.7347 212.369 24.1359C205.968 30.5372 197.286 34.1333 188.233 34.1333C179.181 34.1333 170.499 30.5372 164.098 24.1359C157.696 17.7347 154.1 9.05272 154.1 0" fill="#E2E7F6"/>
<path d="M427.166 0C427.166 9.05272 423.57 17.7347 417.169 24.1359C410.768 30.5372 402.086 34.1333 393.033 34.1333C391.867 34.1341 390.702 34.0743 389.543 33.9541H389.492L422.874 260.941C424.061 269.051 428.126 276.464 434.328 281.824C440.529 287.184 448.452 290.134 456.649 290.133H512.5V0H427.166Z" fill="#A72B25"/>
<path d="M439.582 264.533H478.366C482.893 264.533 487.234 262.735 490.434 259.535C493.635 256.334 495.433 251.993 495.433 247.467V0H427.166C427.166 9.05272 423.57 17.7347 417.169 24.1359C410.768 30.5372 402.086 34.1333 393.033 34.1333C391.867 34.1339 390.702 34.0741 389.543 33.9541H389.492L422.772 260.028C427.888 262.966 433.682 264.519 439.582 264.533Z" fill="#B52F28"/>
<path d="M51.7 290.133C68.4516 318.052 77.3003 349.998 77.3 382.557V392.533H0.5V290.133" fill="#D23F34"/>
<path d="M461.3 290.133C444.549 318.052 435.7 349.998 435.7 382.557V392.533H512.5V290.133" fill="#D23F34"/>
<path d="M19.5719 301.004C23.9099 322.712 26.0965 344.795 26.0999 366.933H43.1665C43.1584 343.646 40.8546 320.417 36.2887 297.582L34.7356 290.133H17.3105L19.5719 301.004Z" fill="#B52F28"/>
<path d="M478.367 290.133L476.66 297.659C472.116 320.47 469.829 343.674 469.834 366.933H486.9C486.901 344.871 489.073 322.862 493.385 301.226L495.946 290.133H478.367Z" fill="#B52F28"/>
<path d="M26.1001 42.668H43.1668V247.468H26.1001V42.668Z" fill="#D23F34"/>
<path d="M51.6699 221.098L68.7709 41.987L85.7438 43.6076L68.6428 222.718L51.6699 221.098Z" fill="#D23F34"/>
<path d="M469.833 42.668H486.9V247.468H469.833V42.668Z" fill="#D23F34"/>
<path d="M426.991 43.3594L443.964 41.7389L461.065 220.849L444.092 222.47L426.991 43.3594Z" fill="#D23F34"/>
<path d="M256.5 221.865C294.203 221.865 324.767 191.301 324.767 153.599C324.767 115.896 294.203 85.332 256.5 85.332C218.797 85.332 188.233 115.896 188.233 153.599C188.233 191.301 218.797 221.865 256.5 221.865Z" fill="#E2E7F6"/>
<path d="M230.9 119.465V187.732L299.167 153.598L230.9 119.465Z" fill="#B52F28"/>
<path d="M26.1 426.668H60.2333C67.0229 426.668 73.5343 429.365 78.3353 434.166C83.1362 438.967 85.8333 445.478 85.8333 452.268V512.001H0.5V452.268C0.5 445.478 3.19714 438.967 7.99807 434.166C12.799 429.365 19.3105 426.668 26.1 426.668Z" fill="#7F1F1F"/>
<path d="M111.433 426.668H145.567C152.356 426.668 158.868 429.365 163.669 434.166C168.47 438.967 171.167 445.478 171.167 452.268V512.001H85.8335V452.268C85.8335 445.478 88.5306 438.967 93.3316 434.166C98.1325 429.365 104.644 426.668 111.433 426.668Z" fill="#932222"/>
<path d="M196.767 426.668H230.9C237.689 426.668 244.201 429.365 249.002 434.166C253.803 438.967 256.5 445.478 256.5 452.268V512.001H171.167V452.268C171.167 445.478 173.864 438.967 178.665 434.166C183.465 429.365 189.977 426.668 196.767 426.668Z" fill="#7F1F1F"/>
<path d="M282.1 426.668H316.233C323.023 426.668 329.534 429.365 334.335 434.166C339.136 438.967 341.833 445.478 341.833 452.268V512.001H256.5V452.268C256.5 445.478 259.197 438.967 263.998 434.166C268.799 429.365 275.31 426.668 282.1 426.668Z" fill="#932222"/>
<path d="M367.433 426.668H401.567C408.356 426.668 414.868 429.365 419.669 434.166C424.47 438.967 427.167 445.478 427.167 452.268V512.001H341.833V452.268C341.833 445.478 344.531 438.967 349.332 434.166C354.133 429.365 360.644 426.668 367.433 426.668Z" fill="#7F1F1F"/>
<path d="M452.767 426.668H486.9C493.689 426.668 500.201 429.365 505.002 434.166C509.803 438.967 512.5 445.478 512.5 452.268V512.001H427.167V452.268C427.167 445.478 429.864 438.967 434.665 434.166C439.466 429.365 445.977 426.668 452.767 426.668Z" fill="#932222"/>
<path d="M290.633 0C290.633 9.05272 287.037 17.7347 280.636 24.1359C274.235 30.5372 265.553 34.1333 256.5 34.1333C247.447 34.1333 238.765 30.5372 232.364 24.1359C225.963 17.7347 222.367 9.05272 222.367 0" fill="#C8CDED"/>
<path d="M358.9 0C358.9 9.05272 355.304 17.7347 348.903 24.1359C342.501 30.5372 333.819 34.1333 324.767 34.1333C315.714 34.1333 307.032 30.5372 300.631 24.1359C294.229 17.7347 290.633 9.05272 290.633 0" fill="#E2E7F6"/>
<path d="M154.1 0C154.1 9.05272 150.504 17.7347 144.103 24.1359C137.701 30.5372 129.02 34.1333 119.967 34.1333C110.914 34.1333 102.232 30.5372 95.8309 24.1359C89.4297 17.7347 85.8335 9.05272 85.8335 0" fill="#C8CDED"/>
<path d="M427.167 0C427.167 9.05272 423.57 17.7347 417.169 24.1359C410.768 30.5372 402.086 34.1333 393.033 34.1333C383.981 34.1333 375.299 30.5372 368.897 24.1359C362.496 17.7347 358.9 9.05272 358.9 0" fill="#C8CDED"/>
</g>
<defs>
<clipPath id="clip0_681_7668">
<rect x="0.5" width="512" height="512" rx="40" fill="white"/>
</clipPath>
</defs>
</svg>
