<svg width="512" height="512" viewBox="0 0 512 512" fill="none" xmlns="http://www.w3.org/2000/svg">
<path d="M91.6861 137.527V215.821H57.6901V136.734C53.2401 135.498 49.3661 132.84 46.6261 129.275C43.8751 125.721 42.2371 121.25 42.2371 116.408C42.2371 104.746 51.6941 95.2891 63.3561 95.2891H70.5671C82.2291 95.2891 91.6861 104.746 91.6861 116.408V129.285V137.527Z" fill="#6CC8C8"/>
<path d="M64.4891 129.275C61.7381 125.721 60.1001 121.25 60.1001 116.408C60.1001 106.589 66.8141 98.3581 75.8931 95.9941C74.1881 95.5501 72.4101 95.2891 70.5671 95.2891H63.3561C51.6941 95.2891 42.2371 104.746 42.2371 116.408C42.2371 121.25 43.8751 125.721 46.6261 129.275C49.3661 132.839 53.2401 135.497 57.6901 136.734V215.821H75.5531V136.734C71.1031 135.497 67.2301 132.839 64.4891 129.275Z" fill="#5AA8A6"/>
<path d="M293.719 157.102H261.711V96.2486C271.014 88.4706 276.741 76.5616 276.082 63.3446C275.072 43.2146 258.909 26.7216 238.81 25.3416C215.332 23.7136 195.779 42.2876 195.779 65.4156C195.779 77.7986 201.393 88.8726 210.202 96.2486V157.102H178.194C152.058 157.102 130.878 178.283 130.878 204.418V339.289V436.748H147.465C145.636 437.02 143.779 437.203 141.891 437.269C142.179 437.29 142.468 437.31 142.767 437.31H261.712V436.748H341.036V378.591V204.418C341.035 178.282 319.855 157.102 293.719 157.102ZM235.911 48.9326C243.874 48.9326 250.334 55.3916 250.334 63.3556C250.334 71.3196 243.875 77.7786 235.911 77.7786C227.948 77.7786 221.488 71.3196 221.488 63.3556C221.488 55.3916 227.948 48.9326 235.911 48.9326Z" fill="#FCC58B"/>
<path d="M160.708 374.314V239.443C160.708 213.307 181.889 192.127 208.024 192.127H240.032V131.274C231.224 123.898 225.609 112.823 225.609 100.441C225.609 91.8866 228.289 83.9606 232.847 77.4446C226.356 76.0386 221.488 70.2676 221.488 63.3556C221.488 55.3926 227.947 48.9326 235.911 48.9326C243.872 48.9326 250.33 55.3896 250.334 63.3496C255.911 61.0236 262.123 59.9136 268.64 60.3656C271.145 60.5376 273.589 60.9456 275.95 61.5646C274.108 42.2506 258.312 26.6816 238.81 25.3416C215.332 23.7136 195.779 42.2876 195.779 65.4156C195.779 77.7986 201.393 88.8726 210.202 96.2486V157.102H178.194C152.058 157.102 130.878 178.283 130.878 204.418V339.289V436.748H147.465C145.636 437.02 143.779 437.203 141.891 437.269C142.179 437.29 142.468 437.31 142.767 437.31H160.709V374.314H160.708Z" fill="#F9AA5C"/>
<path d="M91.686 207.579V437.309C71.773 437.309 53.744 429.232 40.692 416.19C27.65 403.138 19.573 385.109 19.573 365.196V215.284C19.573 211.029 23.024 207.578 27.279 207.578L91.686 207.579Z" fill="#E5E5E4"/>
<path d="M66.447 416.19C53.405 403.138 45.328 385.109 45.328 365.196V215.284C45.328 211.029 48.779 207.578 53.034 207.578H27.279C23.024 207.578 19.573 211.029 19.573 215.284V365.196C19.573 385.109 27.65 403.138 40.692 416.19C53.744 429.232 71.773 437.309 91.686 437.309V432.554C82.134 428.899 73.55 423.288 66.447 416.19Z" fill="#BCC9CD"/>
<path d="M292.644 188.008H177.119C168.074 188.008 160.708 195.374 160.708 204.419V343.39V416.844H309.054V378.592V204.419C309.054 195.374 301.689 188.008 292.644 188.008Z" fill="#E69A56"/>
<path d="M484.504 408.044L483.309 406.839C492.89 387.75 489.83 363.911 473.996 347.851L466.424 340.166C450.59 324.116 426.793 320.716 407.58 330.019L406.385 328.814C399.998 322.334 389.562 322.262 383.082 328.649C376.592 335.046 376.52 345.482 382.907 351.962L384.102 353.167C379.662 362.016 377.942 371.896 378.951 381.538C378.951 381.538 384.781 401.196 392.148 410.816C392.486 411.257 392.831 411.603 393.18 411.907C393.259 411.989 393.335 412.074 393.415 412.155L400.987 419.84C416.821 435.89 440.618 439.29 459.831 429.987L461.026 431.192C467.413 437.672 477.849 437.744 484.329 431.357C490.819 424.959 490.892 414.524 484.504 408.044Z" fill="#FCB630"/>
<path d="M441.187 418.426L433.615 410.741C433.535 410.659 433.459 410.575 433.38 410.493C433.031 410.19 432.686 409.843 432.348 409.402C424.981 399.782 419.151 380.124 419.151 380.124C418.141 370.482 419.862 360.602 424.302 351.753L423.107 350.548C416.72 344.068 416.792 333.632 423.282 327.235C424.131 326.397 425.051 325.678 426.018 325.063C419.683 325.545 413.42 327.191 407.58 330.019L406.385 328.814C399.998 322.334 389.562 322.262 383.082 328.649C376.592 335.046 376.52 345.482 382.907 351.962L384.102 353.167C379.662 362.016 377.942 371.896 378.951 381.538C378.951 381.538 384.781 401.196 392.148 410.816C392.486 411.257 392.831 411.603 393.18 411.907C393.259 411.989 393.335 412.074 393.415 412.155L400.987 419.84C416.659 435.726 440.131 439.212 459.24 430.259C452.647 427.723 446.472 423.783 441.187 418.426Z" fill="#F9A21B"/>
<path d="M448.372 328.331C447.922 328.158 447.47 327.992 447.016 327.832L447.78 328.604C447.976 328.509 448.175 328.423 448.372 328.331Z" fill="#F9A21B"/>
<path d="M460.596 430.758L461.027 431.192C466.577 436.823 475.182 437.609 481.594 433.529C474.518 434.068 467.358 433.142 460.596 430.758Z" fill="#F9A21B"/>
<path d="M212.341 391.854C230.476 391.854 245.178 377.152 245.178 359.017C245.178 340.881 230.476 326.18 212.341 326.18C194.206 326.18 179.504 340.881 179.504 359.017C179.504 377.152 194.206 391.854 212.341 391.854Z" fill="#F48131"/>
<path d="M212.346 359.017C212.346 346.865 218.953 336.262 228.765 330.584C223.933 327.788 218.329 326.18 212.346 326.18C194.211 326.18 179.509 340.882 179.509 359.017C179.509 377.152 194.211 391.854 212.346 391.854C218.329 391.854 223.933 390.246 228.765 387.45C218.953 381.772 212.346 371.17 212.346 359.017Z" fill="#EF5232"/>
<path d="M140.105 437.312C167.415 437.312 189.554 415.173 189.554 387.863C189.554 360.553 167.415 338.414 140.105 338.414C112.795 338.414 90.656 360.553 90.656 387.863C90.656 415.173 112.795 437.312 140.105 437.312Z" fill="#ED222B"/>
<path d="M138.044 387.859C138.044 369.134 148.453 352.843 163.799 344.449C156.763 340.6 148.69 338.41 140.105 338.41C112.795 338.41 90.656 360.549 90.656 387.859C90.656 415.169 112.795 437.308 140.105 437.308C148.691 437.308 156.763 435.118 163.799 431.269C148.453 422.875 138.044 406.584 138.044 387.859Z" fill="#CB2027"/>
<path d="M385.957 387.192C380.652 381.876 373.306 378.59 365.199 378.59H234.912H231.791V428.976V437.31H365.199C381.414 437.31 394.559 424.165 394.559 407.95C394.559 399.842 391.273 392.497 385.957 387.192Z" fill="#9CB43B"/>
<path d="M365.199 410.536H231.791V428.976V437.31H365.199C381.414 437.31 394.559 424.165 394.559 407.95C394.559 403.127 393.389 398.576 391.326 394.562C386.459 404.043 376.59 410.536 365.199 410.536Z" fill="#C9BF3F"/>
<path d="M512 449.053V475.014C512 481.494 506.736 486.758 500.256 486.758H11.744C5.264 486.758 0 481.494 0 475.014V449.053C0 442.573 5.264 437.309 11.744 437.309H500.256C506.736 437.309 512 442.573 512 449.053Z" fill="#D67728"/>
<path d="M500.256 462.033H11.744C5.264 462.033 0 456.769 0 450.289V475.013C0 481.493 5.264 486.757 11.744 486.757H500.256C506.736 486.757 512 481.493 512 475.013V450.289C512 456.769 506.736 462.033 500.256 462.033Z" fill="#C65A2E"/>
<path d="M239.002 367.258C258.349 367.258 274.028 382.937 274.028 402.284C274.028 411.957 270.113 420.714 263.767 427.05C257.431 433.396 248.675 437.311 239.001 437.311H222.518C203.171 437.311 187.492 421.632 187.492 402.285C187.492 392.612 191.407 383.855 197.753 377.519C204.089 371.173 212.845 367.258 222.519 367.258H239.002Z" fill="#3DC84B"/>
<path d="M229.73 391.854C229.73 382.275 233.573 373.599 239.809 367.279C239.54 367.273 239.272 367.258 239.001 367.258H222.518C212.845 367.258 204.088 371.173 197.752 377.519C191.406 383.855 187.491 392.611 187.491 402.285C187.491 421.632 203.17 437.311 222.517 437.311H239C248.673 437.311 257.43 433.396 263.766 427.05C263.828 426.988 263.887 426.922 263.947 426.859C244.977 426.43 229.73 410.93 229.73 391.854Z" fill="#2DAE3A"/>
</svg>
