<?xml version="1.0" encoding="iso-8859-1"?>
<!-- Generator: Adobe Illustrator 19.0.0, SVG Export Plug-In . SVG Version: 6.00 Build 0)  -->
<svg version="1.1" id="Layer_1" xmlns="http://www.w3.org/2000/svg" xmlns:xlink="http://www.w3.org/1999/xlink" x="0px" y="0px"
	 viewBox="0 0 512 512" style="enable-background:new 0 0 512 512;" xml:space="preserve">
<rect x="61.793" y="136.828" style="fill:#E1945F;" width="44.138" height="61.793"/>
<path style="fill:#643C3E;" d="M52.966,92.69c-19.501,0-35.31,15.809-35.31,35.31v61.793c0,9.75-7.905,17.655-17.655,17.655
	c0,14.626,26.483,44.138,61.793,26.483l8.828-17.655V92.69H52.966z"/>
<path style="fill:#F5AF73;" d="M110.345,180.966L110.345,180.966c-26.815,0-48.552-21.737-48.552-48.552v-26.483
	c0-26.815,21.737-48.552,48.552-48.552l0,0c26.814,0,48.552,21.737,48.552,48.552v26.483
	C158.897,159.229,137.16,180.966,110.345,180.966z"/>
<path style="fill:#F5C882;" d="M356.966,273.655c-22.211-21.468-49.705-9.649-73.567,9.998l-94.847,77.726l36.99,70.338
	c1.199-0.947,2.401-1.897,3.608-2.845c48.854-38.353,97.485-107.093,97.485-107.093l105.917,97.53l44.138-8.828
	C476.69,410.483,388.384,304.021,356.966,273.655z"/>
<path style="fill:#F5AF73;" d="M210.816,404.107l14.726,27.61c1.199-0.947,2.401-1.897,3.608-2.845
	c20.6-16.172,41.16-37.747,58.051-57.292c4.881-5.647-2.407-13.487-8.483-9.153C254.791,379.496,229.95,393.871,210.816,404.107z"/>
<path style="fill:#7DF5A5;" d="M176.537,371.126c-36.21-23.786-44.124-62.161-44.124-62.161
	c-2.586-10.865,18.391-17.655,13.977-41.931c-1.804-9.918-31.633-24.276-49.288-59.586l-51.724-0.276
	c-19.126,100.414,20.083,151.439,57.609,193.379c4.945,5.526,9.845,11.991,15.038,18.468L176.537,371.126z"/>
<path style="fill:#AFB9D2;" d="M207.645,345.662l-89.619,73.357c11.062,13.795,23.584,27.652,41.606,32.658
	c31.596,8.777,49.839-7.357,69.517-22.805c10.428-8.186,20.815-17.782,30.752-27.774L207.645,345.662z"/>
<path style="fill:#64DCA0;" d="M118.027,419.02l24.86-20.35c-72.045-58.559-77.53-150.507-68.999-183.427l-28.509-8.07
	c-19.126,100.414,20.083,151.439,57.609,193.379C107.933,406.078,112.834,412.543,118.027,419.02z"/>
<path style="fill:#959CB5;" d="M259.902,401.1l-15.328-16.262c-18.582,11.306-35.758,20.495-48.115,26.754
	c-12.764,6.465-27.999,5.316-39.857-2.689c-4.84-3.267-9.37-6.703-13.715-10.233l-24.861,20.35
	c11.062,13.795,23.584,27.652,41.606,32.658c31.596,8.777,49.839-7.357,69.517-22.805
	C239.577,420.687,249.964,411.091,259.902,401.1z"/>
<path style="fill:#F5AF73;" d="M453.721,415.076l-96.899-100.534c-5.762-5.978-15.23-6.301-21.385-0.729l-8.802,7.967l105.917,97.53
	L453.721,415.076z"/>
<path style="fill:#D5DCED;" d="M476.69,410.483h-35.31c-4.875,0-8.828,3.953-8.828,8.828v35.31H512v-8.828
	C512,426.292,496.191,410.483,476.69,410.483z"/>
<path style="fill:#785353;" d="M110.345,57.379c-26.815,0-48.552,21.737-48.552,48.552v26.483c0,7.288,1.652,14.176,4.529,20.38
	c39.956-15.225,45.507-46.394,92.575-43.297v-3.565C158.897,79.116,137.16,57.379,110.345,57.379z"/>
<path style="fill:#F5C882;" d="M68.009,234.216c-6.944,0-16.836-3.319-21.526-13.802c-4.484-10.025-1.688-25.655,13.76-30.621
	l116.306-36.871L70.001,99.656c-8.719-4.362-12.254-14.966-7.896-23.69c4.366-8.724,14.983-12.258,23.69-7.896l106.548,53.276
	c12.538,6.276,20.009,18.871,19.496,32.879c-0.513,14.001-8.884,26.017-21.845,31.353L75.794,232.604
	C73.591,233.508,70.246,234.216,68.009,234.216z"/>
<g>
</g>
<g>
</g>
<g>
</g>
<g>
</g>
<g>
</g>
<g>
</g>
<g>
</g>
<g>
</g>
<g>
</g>
<g>
</g>
<g>
</g>
<g>
</g>
<g>
</g>
<g>
</g>
<g>
</g>
</svg>
