<svg width="512" height="512" viewBox="0 0 512 512" fill="none" xmlns="http://www.w3.org/2000/svg">
<g clip-path="url(#clip0_688_9992)">
<path d="M494.241 215.856H192.926L284.106 96.3121L308.545 64.3157L335.732 28.5896C339.658 23.4857 347.411 23.4857 351.337 28.5896L378.622 64.3157L494.241 215.856Z" fill="#9A746E"/>
<path d="M375.286 215.853H192.926L284.106 96.3086L375.286 215.853Z" fill="#68544E"/>
<path d="M360.531 215.852H23.1144L183.946 4.86092C187.873 -0.290796 195.625 -0.292455 199.554 4.85758L360.531 215.852Z" fill="#9A746E"/>
<path d="M360.563 215.85H23.13L33.3372 202.404L183.897 4.83183C187.921 -0.272067 195.576 -0.272067 199.6 4.83183L202.25 8.26677L163.253 59.4188C118.584 118.01 160.366 202.404 234.043 202.404H350.258L360.563 215.85Z" fill="#68544E"/>
<path d="M173.984 61.2662H173.787L173.885 61.168L173.984 61.2662Z" fill="#E2E1FF"/>
<path d="M242.589 61.1757V61.274H242.491L224.726 77.2722L207.354 61.4699L190.767 76.4868L173.984 61.274L173.885 61.1757L173.787 61.274L157.298 76.0944L153.274 72.463L140.908 61.274L183.995 4.83879C184.486 4.15168 185.074 3.66106 185.663 3.16984C189.884 -0.166861 196.067 0.422003 199.6 4.83879L202.25 8.27374L242.491 61.1757H242.589Z" fill="#E2E1FF"/>
<path d="M378.622 64.3157L366.452 75.21L354.38 64.2175L342.897 74.7194L331.217 64.1192H331.119L319.636 74.4246L308.545 64.3157L335.732 28.5896C339.658 23.4857 347.411 23.4857 351.337 28.5896L378.622 64.3157Z" fill="#E2E1FF"/>
<path d="M173.984 61.2662H173.787L173.885 61.168L173.984 61.2662Z" fill="#E2E1FF"/>
<path d="M202.25 8.27374L153.274 72.463L140.908 61.274L183.897 4.83879H183.995C184.486 4.15168 185.074 3.66106 185.663 3.16984C189.884 -0.166861 196.067 0.422003 199.6 4.83879L202.25 8.27374Z" fill="#C4C4E6"/>
<path d="M0.314789 223.152C0.314789 218.734 3.89651 215.152 8.31479 215.152H503.685C508.104 215.152 511.685 218.734 511.685 223.152V504.995C511.685 509.414 508.104 512.995 503.685 512.995H8.3148C3.89652 512.995 0.314789 509.414 0.314789 504.995V223.152Z" fill="#6BB171"/>
<path d="M74.5357 443.508C36.6075 443.508 5.7106 440.833 5.7106 437.491C5.7106 434.231 36.6075 431.473 74.5357 431.473C166.324 431.473 166.278 443.508 74.5357 443.508Z" fill="#416945"/>
<path d="M148.021 364.073C148.021 367.415 117.232 370.09 79.1968 370.09C41.2686 370.09 10.3718 367.415 10.3718 364.073C10.3718 360.813 41.2686 358.055 79.1968 358.055C117.232 358.055 148.021 360.813 148.021 364.073Z" fill="#416945"/>
<path d="M284.98 424.268C284.98 427.611 266.628 430.285 243.958 430.285C221.351 430.285 202.935 427.611 202.935 424.268C202.935 421.008 221.351 418.25 243.958 418.25C266.628 418.25 284.98 421.008 284.98 424.268Z" fill="#416945"/>
<path d="M145.358 474.578C145.358 477.299 120.297 479.476 89.3395 479.476C58.4686 479.476 33.3207 477.299 33.3207 474.578C33.3207 471.925 58.4686 469.68 89.3395 469.68C120.297 469.68 145.358 471.925 145.358 474.578Z" fill="#416945"/>
<path d="M321.882 485.784C321.882 489.287 291.092 492.09 253.058 492.09C215.129 492.09 184.232 489.287 184.232 485.784C184.232 482.367 215.129 479.477 253.058 479.477C291.092 479.477 321.882 482.367 321.882 485.784Z" fill="#416945"/>
<path d="M469.937 485.784C469.937 489.287 446.205 492.09 416.889 492.09C387.655 492.09 363.84 489.287 363.84 485.784C363.84 482.367 387.655 479.477 416.889 479.477C446.205 479.477 469.937 482.367 469.937 485.784Z" fill="#416945"/>
<path d="M495.702 310.831C495.702 314.334 471.97 317.137 442.653 317.137C413.419 317.137 389.605 314.334 389.605 310.831C389.605 307.414 413.419 304.523 442.653 304.523C471.97 304.523 495.702 307.414 495.702 310.831Z" fill="#416945"/>
<path d="M193.956 299.698C193.956 303.201 170.224 306.004 140.908 306.004C111.674 306.004 87.8594 303.201 87.8594 299.698C87.8594 296.281 111.674 293.391 140.908 293.391C170.224 293.391 193.956 296.281 193.956 299.698Z" fill="#416945"/>
<path d="M501.49 433.862C501.49 442.204 363.84 442.2 363.84 433.862C363.84 430.446 394.737 427.555 432.665 427.555C470.7 427.555 501.49 430.446 501.49 433.862Z" fill="#416945"/>
<path d="M497.112 251.592C497.112 255.096 466.323 257.899 428.288 257.899C390.36 257.899 359.463 255.096 359.463 251.592C359.463 248.176 390.36 245.285 428.288 245.285C466.323 245.285 497.112 248.176 497.112 251.592Z" fill="#416945"/>
<path d="M160.779 245.413C160.779 248.916 129.99 251.719 91.9551 251.719C54.0269 251.719 23.13 248.916 23.13 245.413C23.13 241.996 54.0269 239.105 91.9551 239.105C129.99 239.105 160.779 241.996 160.779 245.413Z" fill="#416945"/>
<path d="M248.414 262.258H318.049V309.38H248.414V262.258Z" fill="#ECA062"/>
<path d="M429.607 420.172C424.764 432.207 409.844 437.093 398.08 431.646C397.01 431.145 356.905 412.39 359.463 413.586L369.011 368.512C370.083 369.012 421.219 392.867 418.037 391.383C428.927 396.375 433.869 408.932 429.607 420.172Z" fill="#ECA062"/>
<path d="M125.943 420.172C130.785 432.207 145.706 437.093 157.469 431.646L182.179 420.102L196.086 413.586L186.538 368.512L153.591 383.903L137.512 391.383C126.622 396.375 121.68 408.932 125.943 420.172Z" fill="#ECA062"/>
<path d="M422.521 429.473C412.264 437.416 396.918 434.1 389.515 423.458C388.778 422.389 363.708 386.062 365.301 388.37L396.302 354.285C397.039 355.351 429.097 401.712 427.071 398.781C433.95 408.589 431.876 421.923 422.521 429.473Z" fill="#FFC99D"/>
<path d="M190.248 388.37L181.534 401.017L166.034 423.458C154.416 440.159 128.38 436.087 124.777 415.669C122.355 401.88 132.195 395.314 138.581 384.206L159.248 354.285L190.248 388.37Z" fill="#FFC99D"/>
<path d="M402.293 363.103L365.324 388.353V512.152H190.279V388.353L153.203 363.103L173.446 333.804C181.543 321.978 193.795 313.775 207.645 310.792C217.536 308.385 215.371 309.82 335.706 309.407C339.329 309.407 342.951 309.726 346.467 310.472C360.849 313.242 373.741 321.552 382.157 333.804L402.293 363.103Z" fill="#E83D62"/>
<path d="M228.953 309.402V328.793H207.645V310.787C215.757 308.814 222.028 309.572 228.953 309.402Z" fill="#ECBE54"/>
<path d="M365.273 498.916V512.109H190.251V388.336C198.411 388.336 204.969 394.971 204.969 403.054V461.929C204.969 482.367 221.519 498.916 241.957 498.916H365.273Z" fill="#CE2955"/>
<path d="M346.298 228.979V242.914C346.298 246.939 343.097 250.139 339.072 250.139H329.886V221.754H339.072C343.097 221.754 346.298 224.954 346.298 228.979Z" fill="#FFC99D"/>
<path d="M203.569 228.979V242.914C203.569 246.939 206.769 250.139 210.794 250.139H219.981V221.754H210.794C206.769 221.754 203.569 224.954 203.569 228.979Z" fill="#FFC99D"/>
<path d="M338.886 245.188C339.267 266.313 332.938 281.26 323.557 291.937C313.033 303.91 298.696 310.392 285.655 313.977C272.614 317.561 258.963 318.552 245.541 317.256C181.709 311.307 172.482 354.319 172.482 354.319C167.448 326.255 171.872 294.682 204.969 252.204C206.342 250.374 207.41 248.239 207.867 246.027C209.012 240.765 210.842 229.935 210.537 216.59C210.079 198.973 206.724 145.894 259.802 146.2C268.496 146.2 277.114 146.276 285.731 146.123C299.992 145.894 311.736 149.555 320.659 157.715C336.14 171.976 342.928 200.041 338.886 245.188Z" fill="#D57929"/>
<path d="M259.802 146.204H276.351C223.73 146.204 227.086 199.054 227.543 216.594C227.848 229.94 226.018 240.769 224.874 246.031C224.417 248.243 223.349 250.378 221.976 252.209C197.649 283.476 188.802 308.796 187.81 331.14C175.151 341.74 172.482 354.324 172.482 354.324C167.448 326.259 171.872 294.687 204.969 252.209C206.342 250.378 207.41 248.243 207.867 246.031C209.011 240.769 210.842 229.94 210.537 216.594C210.079 198.978 206.724 145.899 259.802 146.204Z" fill="#BA661E"/>
<path d="M289.773 146.197H276.809C279.783 146.197 282.757 146.197 285.731 146.121C287.104 146.121 288.4 146.121 289.773 146.197Z" fill="#904D12"/>
<g opacity="0.15">
<path d="M338.886 245.187C339.267 266.312 332.938 281.259 323.557 291.936C322.413 291.097 321.346 290.334 320.202 289.648C306.398 280.42 291.908 271.574 280.774 259.22C269.792 246.789 262.471 229.782 265.903 213.538C269.073 199.275 280.143 187.683 291.832 178.916C301.365 171.747 311.66 165.493 320.659 157.715C336.14 171.976 342.928 200.04 338.886 245.187Z" fill="white"/>
</g>
<path d="M352.042 360.523V491.673C352.042 503.442 342.502 512.981 330.734 512.981H224.815C213.047 512.981 203.507 503.442 203.507 491.673V360.523C203.507 348.755 213.047 339.215 224.815 339.215H330.734C342.502 339.215 352.042 348.755 352.042 360.523Z" fill="#ECBE54"/>
<path d="M242.803 398.684C231.035 398.684 221.495 408.224 221.495 419.992V491.693C221.495 503.412 230.977 513.001 242.803 513.001H224.798C213.079 513.001 203.49 503.412 203.49 491.693V360.542C203.49 348.774 213.03 339.234 224.798 339.234H330.699C342.467 339.234 352.007 348.774 352.007 360.542V398.684H242.803Z" fill="#FD982E"/>
<path d="M352.007 484.98V491.693C352.007 503.412 342.525 513.001 330.699 513.001H224.798C213.078 513.001 203.49 503.412 203.49 491.693V484.98H352.007Z" fill="#13979B"/>
<path d="M352.003 427.184H376.22V460.136H352.003V427.184Z" fill="#13979B"/>
<path d="M376.221 460.121C376.221 473.483 365.369 484.335 352.007 484.335V460.121H376.221Z" fill="#FD982E"/>
<path d="M179.291 427.828H203.508V460.781H179.291V427.828Z" fill="#147974"/>
<path d="M179.293 460.777C179.293 474.14 190.145 484.991 203.507 484.991V460.777H179.293Z" fill="#FD982E"/>
<path d="M359.465 340.419V372.172C359.465 378.585 354.266 383.783 347.854 383.783H207.75C201.337 383.783 196.139 378.585 196.139 372.172V340.419C196.139 334.007 201.337 328.809 207.75 328.809H347.854C354.266 328.809 359.465 334.007 359.465 340.419Z" fill="#13979B"/>
<path d="M235.132 383.763H207.751C201.359 383.763 196.139 378.543 196.139 372.151V340.402C196.139 334.009 201.359 328.789 207.751 328.789H235.132C228.74 328.789 223.52 334.009 223.52 340.402V372.151C223.52 378.543 228.74 383.763 235.132 383.763Z" fill="#147974"/>
<path d="M242.803 513.001H224.798C213.078 513.001 203.49 503.412 203.49 491.693V484.98H221.495V491.693C221.495 503.412 230.977 513.001 242.803 513.001Z" fill="#147974"/>
<path d="M248.819 383.762V450.91C248.819 455.988 244.703 460.104 239.625 460.104C234.552 460.104 230.425 455.988 230.425 450.91V383.762H248.819Z" fill="#904D12"/>
<path d="M252.65 411.347V425.298C252.65 426.355 251.793 427.213 250.736 427.213C250.205 427.213 249.729 426.997 249.381 426.654C249.038 426.305 248.822 425.824 248.822 425.298V412.066C248.822 408.702 246.1 405.981 242.737 405.981H236.513C233.15 405.981 230.428 408.702 230.428 412.066V425.298C230.428 426.355 229.57 427.213 228.514 427.213C227.988 427.213 227.507 426.997 227.159 426.654C226.816 426.305 226.6 425.824 226.6 425.298V411.347C226.6 406.268 230.716 402.152 235.794 402.152H243.456C248.534 402.152 252.65 406.268 252.65 411.347Z" fill="#E2E1FF"/>
<path d="M243.29 417.966C243.29 419.988 241.651 421.627 239.629 421.627C237.599 421.627 235.96 419.988 235.96 417.966C235.96 415.944 237.599 414.305 239.629 414.305C241.651 414.305 243.29 415.944 243.29 417.966Z" fill="#E2E1FF"/>
<path d="M241.539 399.258V419.721C241.539 420.778 240.682 421.635 239.625 421.635C239.094 421.635 238.618 421.419 238.27 421.076C237.927 420.728 237.711 420.246 237.711 419.721V399.258C237.711 398.201 238.568 397.344 239.625 397.344C240.682 397.344 241.539 398.196 241.539 399.258Z" fill="#E2E1FF"/>
<path d="M325.173 383.762V450.91C325.173 455.988 321.057 460.104 315.979 460.104C310.906 460.104 306.779 455.988 306.779 450.91V383.762H325.173Z" fill="#904D12"/>
<path d="M329.004 411.347V425.298C329.004 426.355 328.146 427.213 327.09 427.213C326.559 427.213 326.083 426.997 325.734 426.654C325.391 426.305 325.176 425.824 325.176 425.298V412.066C325.176 408.702 322.454 405.981 319.09 405.981H312.867C309.503 405.981 306.782 408.702 306.782 412.066V425.298C306.782 426.355 305.924 427.213 304.868 427.213C304.342 427.213 303.861 426.997 303.512 426.654C303.169 426.305 302.953 425.824 302.953 425.298V411.347C302.953 406.268 307.069 402.152 312.148 402.152H319.81C324.888 402.152 329.004 406.268 329.004 411.347Z" fill="#E2E1FF"/>
<path d="M319.644 417.966C319.644 419.988 318.005 421.627 315.982 421.627C313.953 421.627 312.314 419.988 312.314 417.966C312.314 415.944 313.953 414.305 315.982 414.305C318.005 414.305 319.644 415.944 319.644 417.966Z" fill="#E2E1FF"/>
<path d="M317.893 399.258V419.721C317.893 420.778 317.035 421.635 315.979 421.635C315.448 421.635 314.972 421.419 314.623 421.076C314.28 420.728 314.065 420.246 314.065 419.721V399.258C314.065 398.201 314.922 397.344 315.979 397.344C317.036 397.344 317.893 398.196 317.893 399.258Z" fill="#E2E1FF"/>
<path d="M346.467 310.467V328.793H325.159V309.402H335.706C339.329 309.402 342.951 309.722 346.467 310.467Z" fill="#ECBE54"/>
</g>
<defs>
<clipPath id="clip0_688_9992">
<path d="M0 0H512V472C512 494.091 494.091 512 472 512H40C17.9086 512 0 494.091 0 472V0Z" fill="white"/>
</clipPath>
</defs>
</svg>
