<svg width="512" height="512" viewBox="0 0 512 512" fill="none" xmlns="http://www.w3.org/2000/svg">
<g clip-path="url(#clip0_681_7525)">
<path d="M12.9196 291.94C8.71559 291.94 5.30859 288.531 5.30859 284.326V234.822C5.30859 191.505 17.1846 153.727 40.6076 122.539C61.4836 94.7423 91.2646 73.1913 126.731 60.2173C166.888 45.5273 212.568 42.4583 255.355 51.5753C300.585 61.2133 338.702 83.1453 365.587 115.003C368.3 118.216 367.893 123.02 364.681 125.734C361.47 128.447 356.666 128.041 353.956 124.828C304.816 66.5993 211.454 45.4403 131.959 74.5213C61.1446 100.424 20.5316 158.852 20.5316 234.822V284.326C20.5316 288.531 17.1236 291.94 12.9196 291.94Z" fill="#1B66A2"/>
<path d="M399.27 292.275C395.066 292.275 391.658 288.866 391.658 284.661V234.822C391.658 204.211 385.192 176.437 372.443 152.272C371.865 151.176 371.563 149.956 371.563 148.718C371.563 144.513 374.97 141.098 379.175 141.098C382.207 141.098 384.824 142.869 386.048 145.433C399.872 171.747 406.88 201.82 406.88 234.822V284.661C406.88 288.866 403.474 292.275 399.27 292.275Z" fill="#1B66A2"/>
<path fill-rule="evenodd" clip-rule="evenodd" d="M326.017 308.834L354.849 354.455H379.595C397.924 354.455 413.175 338.433 412.916 318.844L412.715 301.959C412.542 288.957 405.982 277.509 396.227 271.296C391.307 268.132 385.523 266.32 379.365 266.32H354.849L326.017 308.834Z" fill="#FD8087"/>
<path fill-rule="evenodd" clip-rule="evenodd" d="M354.849 322.152V335.47V354.455H379.595C397.924 354.455 413.175 338.433 412.916 318.844L412.715 301.959C412.686 299.6 412.456 297.328 412.024 295.113C408.514 310.588 395.162 322.152 379.595 322.152H354.849Z" fill="#FE636E"/>
<path fill-rule="evenodd" clip-rule="evenodd" d="M9.87323 277.136C4.00323 283.637 0.320228 292.525 0.205228 302.276L0.00422779 319.333C-0.254772 339.094 14.9952 355.26 33.3532 355.26H58.0702C58.0702 353.419 79.9102 309.726 82.3272 306.792L58.0702 266.32H33.5542C24.2602 266.32 15.9152 270.462 9.87323 277.136Z" fill="#FD8087"/>
<path fill-rule="evenodd" clip-rule="evenodd" d="M0.00325123 319.335C-0.255749 339.096 14.9943 355.262 33.3523 355.262H58.0703V355.233C58.0703 355.089 58.0703 354.974 58.0703 354.859C58.0703 354.715 58.0703 354.6 58.0703 354.456V335.471V322.96H33.3533C17.7293 322.96 4.34825 311.224 0.867251 295.547C0.464251 297.733 0.234251 299.977 0.205251 302.278L0.00325123 319.335Z" fill="#FE636E"/>
<path fill-rule="evenodd" clip-rule="evenodd" d="M138.034 204.367C95.5063 204.367 119.503 283.355 58.0703 288.532V335.473V354.458V354.861C58.3003 408.306 108.252 475.212 169.283 497.965C182.807 502.999 194.633 505.53 206.459 505.501C218.285 505.53 230.112 502.998 243.635 497.965C304.809 475.155 354.848 407.989 354.848 354.458V335.473V288.532C293.415 283.354 316.923 204.367 274.395 204.367H138.034Z" fill="#FED1A3"/>
<path d="M207.459 434.314C193.284 434.314 179.11 429.596 167.282 420.16C164.044 417.577 163.513 412.858 166.096 409.62C168.679 406.382 173.397 405.85 176.636 408.434C194.784 422.912 220.133 422.912 238.282 408.434C241.52 405.851 246.24 406.382 248.822 409.62C251.405 412.858 250.874 417.577 247.636 420.16C235.808 429.597 221.634 434.314 207.459 434.314Z" fill="#F79952"/>
<path d="M168.578 347.344C164.436 347.344 161.078 343.986 161.078 339.844C161.078 335.52 155.945 331.118 150.676 330.737L134.133 334.522C130.097 335.45 126.073 332.922 125.15 328.883C124.226 324.845 126.751 320.823 130.789 319.9L149.099 315.711H149.946C163.867 315.711 176.079 326.988 176.079 339.844C176.078 343.986 172.72 347.344 168.578 347.344Z" fill="#BC6C35"/>
<path d="M246.342 347.344C242.2 347.344 238.842 343.986 238.842 339.844C238.842 326.988 251.054 315.711 264.976 315.711H265.823L284.134 319.9C288.171 320.824 290.696 324.846 289.773 328.883C288.849 332.921 284.835 335.449 280.789 334.522L264.247 330.737C258.977 331.118 253.844 335.52 253.844 339.844C253.842 343.986 250.484 347.344 246.342 347.344Z" fill="#BC6C35"/>
<path fill-rule="evenodd" clip-rule="evenodd" d="M274.395 224.67C316.923 224.67 293.415 303.658 354.848 308.835V266.321C354.848 130.121 217.163 66.3504 145.457 139.469C143.817 141.166 144.392 140.965 142.062 141.281C79.2483 150.141 58.0703 210.891 58.0703 247.048V308.834C119.503 303.656 95.5053 224.669 138.034 224.669C183.497 224.67 228.932 224.67 274.395 224.67Z" fill="#5281A7"/>
<path fill-rule="evenodd" clip-rule="evenodd" d="M467.903 93.3601C447.761 98.2501 431.417 115.595 431.417 132.077C431.417 148.588 447.761 157.965 467.903 153.075C488.074 148.185 504.389 130.869 504.389 114.358C504.389 106.937 501.08 100.954 495.584 97.0421C488.908 92.2951 478.981 90.6851 467.903 93.3601Z" fill="#F8F2F0"/>
<path fill-rule="evenodd" clip-rule="evenodd" d="M482.32 105.267C482.32 121.749 465.976 139.094 445.805 143.984C442.352 144.818 439.014 145.25 435.849 145.278C442.035 153.073 454.063 156.439 467.904 153.073C488.075 148.183 504.39 130.867 504.39 114.356C504.39 106.935 501.081 100.952 495.585 97.0399C490.981 93.7899 484.852 92.0059 477.889 92.0639C480.708 95.6309 482.32 100.09 482.32 105.267Z" fill="#D6DCEA"/>
<path fill-rule="evenodd" clip-rule="evenodd" d="M272.122 268.65C277.589 289.706 283.027 309.755 295.516 316.313C316.349 330.005 319.197 323.13 319.197 350.974V369.527C319.197 416.068 281.359 472.936 231.263 501.988C235.234 500.895 239.349 499.543 243.636 497.961C304.81 475.151 354.849 407.985 354.849 354.454V335.469V322.151V308.833C344.979 307.999 337.297 305.237 331.168 301.239C299.257 280.27 310.076 224.668 274.396 224.668H256.642H138.034C119.705 224.668 113.748 239.338 107.965 256.453H252.096C262.886 256.454 269.158 257.231 272.122 268.65Z" fill="#FFBC85"/>
<path fill-rule="evenodd" clip-rule="evenodd" d="M354.848 308.838V266.324C354.848 171.199 287.689 111.398 222.745 108.895H222.774C268.18 133.633 305.212 201.287 316.521 285.337C320.175 291.521 324.837 297.073 331.167 301.244C337.296 305.243 344.979 308.004 354.848 308.838Z" fill="#1B66A2"/>
<path fill-rule="evenodd" clip-rule="evenodd" d="M343.598 120.743C327.542 124.626 313.903 136.42 309.04 149.421C307.774 152.729 307.112 156.094 307.112 159.46C307.112 173.181 318.42 181.983 333.815 181.753C336.923 181.695 340.203 181.293 343.598 180.459C359.453 176.605 372.948 165.07 377.983 152.298C379.364 148.818 380.112 145.251 380.112 141.741C380.112 134.32 376.774 128.308 371.278 124.425C367.307 121.606 362.185 119.88 356.373 119.506C352.402 119.276 348.086 119.65 343.598 120.743Z" fill="#F8F2F0"/>
<path fill-rule="evenodd" clip-rule="evenodd" d="M311.716 172.663C311.658 172.663 311.601 172.663 311.543 172.663C316.204 178.531 324.232 181.896 333.814 181.753C337.123 181.695 340.403 181.235 343.597 180.459C359.452 176.605 372.947 165.07 377.982 152.298C379.363 148.818 380.111 145.251 380.111 141.741C380.111 134.32 376.773 128.308 371.277 124.425C367.306 121.606 362.184 119.88 356.372 119.506C355.451 119.448 354.53 119.42 353.581 119.448C371.135 141.539 336.922 172.26 311.716 172.663Z" fill="#D6DCEA"/>
<path d="M503.195 93.4757V14.1137C503.195 11.8067 502.149 9.62474 500.352 8.17974C498.555 6.73374 496.199 6.18274 493.948 6.67774L369.759 34.0077C369.745 34.0107 369.732 34.0137 369.718 34.0167L369.643 34.0327C369.562 34.0507 369.497 34.0707 369.428 34.0907C366.12 34.9187 363.667 37.9037 363.667 41.4687V112.92C357.015 111.37 349.525 111.472 341.805 113.345C341.804 113.345 341.804 113.345 341.803 113.345C318.083 119.104 299.501 139.361 299.501 159.462C299.501 168.565 303.342 176.6 310.318 182.087C316.414 186.882 324.4 189.368 333.198 189.368C337.133 189.368 341.23 188.871 345.391 187.86C369.129 182.105 387.724 161.848 387.724 141.743C387.724 133.548 384.601 126.226 378.891 120.842V47.5907L487.973 23.5857V85.5387C481.322 83.9867 473.832 84.0867 466.111 85.9597C466.11 85.9597 466.11 85.9597 466.109 85.9597C442.387 91.7187 423.807 111.976 423.807 132.077C423.807 141.188 427.647 149.226 434.619 154.71C440.709 159.501 448.692 161.985 457.49 161.985C461.428 161.985 465.531 161.487 469.697 160.475C493.417 154.725 512 134.468 512 114.359C512 106.172 508.888 98.8567 503.195 93.4757ZM341.803 173.06C333.031 175.189 324.778 174.09 319.727 170.115C316.407 167.503 314.724 163.919 314.724 159.461C314.724 146.522 328.768 132.181 345.391 128.145C354.183 126.014 362.448 127.116 367.501 131.094C370.819 133.705 372.501 137.287 372.501 141.743C372.5 154.684 358.444 169.026 341.803 173.06ZM466.108 145.676C457.328 147.808 449.073 146.709 444.028 142.74C440.711 140.131 439.029 136.544 439.029 132.078C439.029 119.139 453.072 104.798 469.696 100.761C478.479 98.6327 486.734 99.7317 491.778 103.702C495.095 106.312 496.777 109.898 496.777 114.359C496.777 127.304 482.733 141.646 466.108 145.676Z" fill="#FD8087"/>
</g>
<defs>
<clipPath id="clip0_681_7525">
<rect width="512" height="512" fill="white"/>
</clipPath>
</defs>
</svg>
