<svg width="512" height="512" viewBox="0 0 512 512" fill="none" xmlns="http://www.w3.org/2000/svg">
<path d="M138.839 355.785L139.511 356.802C181.718 357.166 215.946 391.6 215.946 433.891C215.946 437.033 215.734 440.124 215.366 443.168C216.122 443.086 216.887 443.037 217.665 443.037C229.334 443.037 238.828 452.53 238.828 464.199C238.828 464.308 238.813 464.413 238.812 464.521H273.189C273.187 464.413 273.173 464.308 273.173 464.199C273.173 452.53 282.667 443.037 294.336 443.037C295.113 443.037 295.879 443.085 296.635 443.168C296.267 440.124 296.055 437.033 296.055 433.891C296.055 391.6 330.282 357.166 372.49 356.802L373.162 355.785H138.839Z" fill="#D2CFE9"/>
<path d="M196.503 464.2C196.503 452.962 205.314 443.769 216.388 443.103C216.743 440.08 216.947 437.011 216.947 433.892C216.947 390.755 181.977 355.785 138.84 355.785C95.7029 355.785 60.7329 390.755 60.7329 433.892C60.7329 477.029 95.7019 511.999 138.839 511.999C165.162 511.999 188.425 498.964 202.576 479.012C198.825 475.192 196.503 469.964 196.503 464.2Z" fill="#C2BCE0"/>
<path d="M95.6649 433.892C95.6649 396.762 121.581 365.706 156.306 357.77C150.688 356.486 144.847 355.785 138.84 355.785C95.7029 355.785 60.7329 390.755 60.7329 433.892C60.7329 477.029 95.7019 511.999 138.839 511.999C144.847 511.999 150.687 511.298 156.305 510.014C121.582 502.078 95.6649 471.022 95.6649 433.892Z" fill="#ACA6D6"/>
<path d="M175.841 426.392H146.34V396.891C146.34 394.13 144.101 391.891 141.34 391.891H136.34C133.579 391.891 131.34 394.13 131.34 396.891V426.392H101.839C99.0779 426.392 96.8389 428.631 96.8389 431.392V436.392C96.8389 439.153 99.0779 441.392 101.839 441.392H131.34V470.894C131.34 473.655 133.579 475.894 136.34 475.894H141.34C144.101 475.894 146.34 473.655 146.34 470.894V441.392H175.841C178.602 441.392 180.841 439.153 180.841 436.392V431.392C180.841 428.63 178.602 426.392 175.841 426.392Z" fill="#463B84"/>
<path d="M373.161 355.785C330.024 355.785 295.054 390.755 295.054 433.892C295.054 437.011 295.257 440.08 295.613 443.103C306.686 443.769 315.498 452.963 315.498 464.2C315.498 469.964 313.175 475.191 309.425 479.012C323.574 498.964 346.838 511.999 373.161 511.999C416.298 511.999 451.268 477.029 451.268 433.892C451.268 390.755 416.298 355.785 373.161 355.785Z" fill="#D2CFE9"/>
<path d="M329.516 433.892C329.516 396.678 355.549 365.565 390.392 357.716C384.846 356.466 379.084 355.785 373.161 355.785C330.024 355.785 295.054 390.755 295.054 433.892C295.054 437.011 295.257 440.08 295.613 443.103C306.686 443.769 315.498 452.963 315.498 464.2C315.498 469.964 313.176 475.191 309.425 479.012C323.574 498.964 346.838 511.999 373.161 511.999C379.085 511.999 384.846 511.318 390.392 510.068C355.55 502.219 329.516 471.105 329.516 433.892Z" fill="#C2BCE0"/>
<path d="M373.161 411.441C382.55 411.441 390.161 403.83 390.161 394.441C390.161 385.053 382.55 377.441 373.161 377.441C363.772 377.441 356.161 385.053 356.161 394.441C356.161 403.83 363.772 411.441 373.161 411.441Z" fill="#2CC2BF"/>
<path d="M373 394.441C373 388.119 376.459 382.614 381.58 379.685C379.096 378.264 376.227 377.441 373.16 377.441C363.771 377.441 356.16 385.052 356.16 394.441C356.16 403.83 363.771 411.441 373.16 411.441C376.227 411.441 379.096 410.618 381.58 409.197C376.459 406.268 373 400.764 373 394.441Z" fill="#19908E"/>
<path d="M373.161 490.344C382.55 490.344 390.161 482.733 390.161 473.344C390.161 463.955 382.55 456.344 373.161 456.344C363.772 456.344 356.161 463.955 356.161 473.344C356.161 482.733 363.772 490.344 373.161 490.344Z" fill="#FD4755"/>
<path d="M373 473.344C373 467.022 376.459 461.517 381.58 458.588C379.096 457.167 376.227 456.344 373.16 456.344C363.771 456.344 356.16 463.955 356.16 473.344C356.16 482.733 363.771 490.344 373.16 490.344C376.227 490.344 379.096 489.521 381.58 488.1C376.459 485.17 373 479.666 373 473.344Z" fill="#D41D2A"/>
<path d="M333.71 450.891C343.099 450.891 350.71 443.279 350.71 433.891C350.71 424.502 343.099 416.891 333.71 416.891C324.321 416.891 316.71 424.502 316.71 433.891C316.71 443.279 324.321 450.891 333.71 450.891Z" fill="#FFD66C"/>
<path d="M333 433.891C333 427.454 336.579 421.854 341.855 418.968C339.436 417.645 336.662 416.891 333.71 416.891C324.321 416.891 316.71 424.502 316.71 433.891C316.71 443.28 324.321 450.891 333.71 450.891C336.661 450.891 339.436 450.137 341.855 448.814C336.579 445.928 333 440.328 333 433.891Z" fill="#FFB644"/>
<path d="M412.611 450.891C422 450.891 429.611 443.279 429.611 433.891C429.611 424.502 422 416.891 412.611 416.891C403.222 416.891 395.611 424.502 395.611 433.891C395.611 443.279 403.222 450.891 412.611 450.891Z" fill="#B3F38B"/>
<path d="M412 433.891C412 427.474 415.558 421.892 420.806 418.998C418.375 417.657 415.584 416.891 412.612 416.891C403.223 416.891 395.612 424.502 395.612 433.891C395.612 443.28 403.223 450.891 412.612 450.891C415.584 450.891 418.376 450.124 420.806 448.784C415.558 445.89 412 440.308 412 433.891Z" fill="#71A860"/>
<path d="M266.721 404.254H245.28C241.138 404.254 237.78 400.897 237.78 396.754C237.78 392.611 241.138 389.254 245.28 389.254H266.721C270.863 389.254 274.221 392.611 274.221 396.754C274.221 400.897 270.863 404.254 266.721 404.254Z" fill="#2CC2BF"/>
<path d="M217.665 486.363C229.905 486.363 239.827 476.441 239.827 464.201C239.827 451.961 229.905 442.039 217.665 442.039C205.425 442.039 195.503 451.961 195.503 464.201C195.503 476.441 205.425 486.363 217.665 486.363Z" fill="#8079A9"/>
<path d="M216.826 464.201C216.826 455.827 221.473 448.542 228.327 444.773C225.163 443.033 221.531 442.039 217.665 442.039C205.425 442.039 195.503 451.962 195.503 464.201C195.503 476.441 205.425 486.363 217.665 486.363C221.531 486.363 225.163 485.369 228.327 483.629C221.474 479.86 216.826 472.575 216.826 464.201Z" fill="#675F94"/>
<path d="M294.335 486.363C306.575 486.363 316.497 476.441 316.497 464.201C316.497 451.961 306.575 442.039 294.335 442.039C282.095 442.039 272.173 451.961 272.173 464.201C272.173 476.441 282.095 486.363 294.335 486.363Z" fill="#8079A9"/>
<path d="M293.496 464.201C293.496 455.827 298.143 448.542 304.997 444.773C301.833 443.033 298.201 442.039 294.335 442.039C282.095 442.039 272.173 451.962 272.173 464.201C272.173 476.441 282.095 486.363 294.335 486.363C298.201 486.363 301.833 485.369 304.997 483.629C298.143 479.86 293.496 472.575 293.496 464.201Z" fill="#675F94"/>
<path d="M11.8588 323.334C8.96084 323.334 6.61084 320.985 6.61084 318.086V5.248C6.61084 2.349 8.96084 0 11.8588 0H500.141C503.039 0 505.389 2.349 505.389 5.248V318.087C505.389 320.985 503.04 323.335 500.141 323.335L11.8588 323.334Z" fill="#8079A9"/>
<path d="M55.9748 318.086V303.596H35.9978C30.6778 303.596 26.3488 299.267 26.3488 293.947V29.387C26.3488 24.067 30.6778 19.739 35.9978 19.739H55.9748V5.248C55.9748 2.349 58.3248 0 61.2228 0H11.8588C8.96084 0 6.61084 2.349 6.61084 5.248V318.087C6.61084 320.985 8.95984 323.335 11.8588 323.335H61.2228C58.3248 323.334 55.9748 320.984 55.9748 318.086Z" fill="#675F94"/>
<path d="M476.012 32.7383L476.001 34.7383H476.012V32.7383Z" fill="#8FDDF7"/>
<path d="M39.3486 32.7383H472.651V290.596H39.3486V32.7383Z" fill="#8FDDF7"/>
<path d="M439.577 219.159C439.577 221.315 439.773 223.425 440.129 225.479C433.658 219.836 425.203 216.41 415.943 216.41C409.845 216.41 404.098 217.901 399.033 220.526C391.865 213.399 381.78 209.202 370.726 209.888C352.68 211.007 337.909 225.432 336.383 243.449C335.914 248.981 336.678 254.281 338.419 259.115C335.776 258.512 333.028 258.183 330.202 258.183C311.358 258.183 295.83 272.34 293.649 290.597H472.653V182.523C454.075 184.402 439.577 200.087 439.577 219.159Z" fill="#B3F38B"/>
<path d="M356.353 266.537C356.786 266.537 357.218 266.545 357.648 266.56C360.846 266.674 363.315 263.787 362.829 260.623C362.391 257.778 362.279 254.825 362.535 251.802C364.051 233.901 378.645 219.552 396.534 218.271C389.594 212.524 380.517 209.267 370.667 209.893C352.651 211.038 337.928 225.422 336.385 243.408C335.909 248.955 336.672 254.27 338.417 259.116C335.774 258.513 333.026 258.184 330.2 258.184C311.356 258.184 295.828 272.341 293.647 290.598H321.815C327.006 276.554 340.505 266.537 356.353 266.537Z" fill="#71A860"/>
<path d="M39.3486 32.7383H73.4246V290.596H39.3486V32.7383Z" fill="#64BFDD"/>
<path d="M215.706 240.031H259.924V290.593H215.706V240.031Z" fill="#FD4755"/>
<path d="M215.706 240.031H232.386V290.593H215.706V240.031Z" fill="#EF2938"/>
<path d="M265.446 205.855H210.184C208.445 205.855 207.035 207.265 207.035 209.004V237.883C207.035 239.622 208.445 241.032 210.184 241.032H265.446C267.185 241.032 268.595 239.622 268.595 237.883V209.004C268.594 207.265 267.185 205.855 265.446 205.855Z" fill="#EF2938"/>
<path d="M233.336 237.883V209.004C233.336 207.265 234.746 205.855 236.485 205.855H210.184C208.445 205.855 207.035 207.265 207.035 209.004V237.883C207.035 239.622 208.445 241.032 210.184 241.032H236.485C234.746 241.032 233.336 239.622 233.336 237.883Z" fill="#D41D2A"/>
<path d="M386.14 171.343H304.297C301.399 171.343 299.049 168.994 299.049 166.095V84.2519C299.049 81.3539 301.398 79.0039 304.297 79.0039H386.14C389.038 79.0039 391.388 81.3529 391.388 84.2519V166.095C391.388 168.993 389.038 171.343 386.14 171.343Z" fill="#2CC2BF"/>
<path d="M333.642 166.095V84.2519C333.642 81.3539 335.991 79.0039 338.89 79.0039H304.298C301.4 79.0039 299.05 81.3529 299.05 84.2519V166.095C299.05 168.993 301.399 171.342 304.298 171.342H338.89C335.991 171.343 333.642 168.993 333.642 166.095Z" fill="#19908E"/>
<path d="M346.791 100.973L353.585 114.74C353.84 115.257 354.334 115.616 354.905 115.699L370.098 117.907C371.536 118.116 372.11 119.883 371.07 120.897L360.076 131.613C359.663 132.016 359.474 132.596 359.572 133.165L362.167 148.296C362.413 149.728 360.909 150.82 359.623 150.144L346.034 143C345.523 142.731 344.913 142.731 344.402 143L330.813 150.144C329.527 150.82 328.024 149.728 328.269 148.296L330.864 133.165C330.962 132.596 330.773 132.016 330.36 131.613L319.366 120.897C318.325 119.883 318.9 118.116 320.338 117.907L335.531 115.699C336.102 115.616 336.596 115.257 336.851 114.74L343.645 100.973C344.289 99.6703 346.147 99.6703 346.791 100.973Z" fill="#FFD66C"/>
<path d="M74.6209 78.4547C82.2098 78.4547 88.3619 72.3026 88.3619 64.7137C88.3619 57.1247 82.2098 50.9727 74.6209 50.9727C67.0319 50.9727 60.8799 57.1247 60.8799 64.7137C60.8799 72.3026 67.0319 78.4547 74.6209 78.4547Z" fill="#FD4755"/>
<path d="M125.737 78.4547C133.326 78.4547 139.478 72.3026 139.478 64.7137C139.478 57.1247 133.326 50.9727 125.737 50.9727C118.148 50.9727 111.996 57.1247 111.996 64.7137C111.996 72.3026 118.148 78.4547 125.737 78.4547Z" fill="#463B84"/>
<path d="M176.853 78.4547C184.442 78.4547 190.594 72.3026 190.594 64.7137C190.594 57.1247 184.442 50.9727 176.853 50.9727C169.264 50.9727 163.112 57.1247 163.112 64.7137C163.112 72.3026 169.264 78.4547 176.853 78.4547Z" fill="#2CC2BF"/>
<path d="M116.939 206.836C98.1006 206.836 82.8296 222.107 82.8296 240.945V290.594H151.049V240.945C151.048 222.107 135.777 206.836 116.939 206.836Z" fill="#FFD66C"/>
<path d="M129.866 209.378C125.878 207.743 121.516 206.836 116.939 206.836C98.1006 206.836 82.8296 222.107 82.8296 240.945V290.595H108.684V240.945C108.684 226.684 117.44 214.473 129.866 209.378Z" fill="#FFB644"/>
<path d="M476.002 304.596H35.9976C30.1256 304.596 25.3486 299.819 25.3486 293.947V29.3863C25.3486 23.5143 30.1256 18.7383 35.9976 18.7383H476.002C481.874 18.7383 486.65 23.5143 486.65 29.3863V293.947C486.651 299.818 481.874 304.596 476.002 304.596ZM40.3486 289.596H471.651V33.7373H40.3486V289.596Z" fill="#453D71"/>
<path d="M104.87 258.857C100.728 258.857 97.3696 255.5 97.3696 251.357V242.961C97.3696 238.818 100.728 235.461 104.87 235.461C109.012 235.461 112.37 238.818 112.37 242.961V251.357C112.37 255.5 109.012 258.857 104.87 258.857Z" fill="#A15B4F"/>
<path d="M129.009 258.857C124.867 258.857 121.509 255.5 121.509 251.357V242.961C121.509 238.818 124.867 235.461 129.009 235.461C133.151 235.461 136.509 238.818 136.509 242.961V251.357C136.509 255.5 133.151 258.857 129.009 258.857Z" fill="#A15B4F"/>
</svg>
