<svg width="512" height="512" viewBox="0 0 512 512" fill="none" xmlns="http://www.w3.org/2000/svg">
<path d="M425.808 172.099C425.808 77.051 349.782 0 256 0C162.218 0 86.1924 77.051 86.1924 172.099C86.1924 267.147 162.218 274.317 256 274.317C349.782 274.317 425.808 267.146 425.808 172.099Z" fill="#665E66"/>
<path d="M253.77 274.311C161.019 274.197 86.1924 266.396 86.1924 172.099C86.1924 77.0549 162.223 0.00390625 256.002 0.00390625C208.271 0.00390625 169.581 77.0549 169.581 172.099C169.581 265.665 207.074 274.075 253.77 274.311Z" fill="#454045"/>
<path d="M377.941 235.051C376.136 270.16 348.042 298.109 312.925 299.762C282.805 301.186 252.686 301.468 222.566 300.623H222.513C214.873 300.41 207.24 300.12 199.599 299.762C164.49 298.109 136.389 270.16 134.591 235.051C133.265 209.281 133.159 183.503 134.271 157.725V157.717C134.606 149.688 135.071 141.659 135.65 133.63C141.218 107.182 163.012 69.5732 193.459 56.3192C194.358 55.9302 195.264 55.5422 196.179 55.1692C208.497 50.1192 222.162 46.5762 236.689 44.8852C243.057 44.1232 249.593 43.7422 256.266 43.7422C271.067 43.7422 285.251 45.6462 298.376 49.1432V49.1512C339.465 60.0752 370.171 101.553 376.882 133.722C376.882 133.73 376.882 133.737 376.89 133.745C379.32 167.514 379.671 201.283 377.941 235.051Z" fill="#F1D0A5"/>
<path d="M222.567 300.625H222.514C214.874 300.412 207.241 300.122 199.6 299.764C164.491 298.111 136.39 270.162 134.592 235.053C132.855 201.254 133.213 167.44 135.651 133.633C141.219 107.185 163.013 84.5759 193.46 71.3219C194.359 70.9329 195.265 70.5449 196.179 70.1719C194.092 121.072 193.597 194.81 194.663 236.493C195.486 268.532 207.194 294.661 222.567 300.625Z" fill="#F1B986"/>
<path d="M298.376 64.1471V64.1551C278.144 98.8531 229.636 144.467 210.333 133.574C203.272 129.582 204.193 121.363 208.177 112.519C207.606 113.517 195.143 135.128 178.042 149.533C165.062 160.472 149.415 167.267 134.272 157.729V157.721C134.607 149.692 135.072 141.663 135.651 133.634C141.219 107.186 163.013 84.5771 193.46 71.3231C194.359 70.9341 195.265 70.5461 196.18 70.1731C208.498 65.1231 222.163 61.5801 236.69 59.8891C243.058 59.1271 249.594 58.7461 256.267 58.7461C271.067 58.7471 285.251 60.6511 298.376 64.1471Z" fill="#665E66"/>
<path d="M178.042 149.529C165.062 160.468 149.415 167.263 134.272 157.725V157.717C134.607 149.688 135.072 141.659 135.651 133.63C141.219 107.182 163.013 84.5732 193.46 71.3192C194.359 70.9302 195.265 70.5422 196.18 70.1692C208.498 65.1192 222.163 61.5762 236.69 59.8852C243.058 59.1232 249.594 58.7422 256.267 58.7422C213.867 73.5372 126.327 149.529 178.042 149.529Z" fill="#454045"/>
<path d="M256.265 261.147C242.69 261.147 230.157 253.221 224.335 240.955C222.505 237.1 224.147 232.492 228.002 230.662C231.858 228.833 236.466 230.475 238.295 234.329C241.572 241.233 248.625 245.694 256.265 245.694C263.904 245.694 270.957 241.233 274.234 234.329C276.063 230.474 280.673 228.833 284.527 230.662C288.382 232.492 290.024 237.1 288.194 240.955C282.373 253.221 269.84 261.147 256.265 261.147Z" fill="#DA4A54"/>
<path d="M199.489 209.284C205.621 209.284 210.593 201.885 210.593 192.757C210.593 183.63 205.621 176.23 199.489 176.23C193.356 176.23 188.385 183.63 188.385 192.757C188.385 201.885 193.356 209.284 199.489 209.284Z" fill="#454045"/>
<path d="M313.042 209.284C319.175 209.284 324.146 201.885 324.146 192.757C324.146 183.63 319.175 176.23 313.042 176.23C306.91 176.23 301.938 183.63 301.938 192.757C301.938 201.885 306.91 209.284 313.042 209.284Z" fill="#454045"/>
<path d="M180.271 245.782C191.743 245.782 201.043 239.884 201.043 232.609C201.043 225.335 191.743 219.438 180.271 219.438C168.799 219.438 159.499 225.335 159.499 232.609C159.499 239.884 168.799 245.782 180.271 245.782Z" fill="#DF9380"/>
<path d="M332.259 245.782C343.731 245.782 353.031 239.884 353.031 232.609C353.031 225.335 343.731 219.438 332.259 219.438C320.787 219.438 311.487 225.335 311.487 232.609C311.487 239.884 320.787 245.782 332.259 245.782Z" fill="#F9A58E"/>
<path d="M378.261 122.414C378.261 126.596 377.865 130.725 377.088 134.754C368.846 91.8056 317.9 58.7456 256.267 58.7456C249.594 58.7456 243.051 59.1266 236.69 59.8886C223.085 61.4656 210.242 64.6726 198.557 69.2276C196.835 69.8906 195.137 70.5916 193.461 71.3226C162.603 84.7596 140.618 107.803 135.431 134.716C134.662 130.702 134.273 126.588 134.273 122.414C134.273 90.2826 157.994 62.1586 193.461 46.7256C197.133 45.1256 200.934 43.6636 204.842 42.3526C214.798 38.9856 225.485 36.5786 236.691 35.2756C243.052 34.5136 249.595 34.1406 256.268 34.1406C323.644 34.1416 378.261 73.6616 378.261 122.414Z" fill="#DA4A54"/>
<path d="M204.841 42.3516L198.557 69.2266C196.835 69.8896 195.137 70.5906 193.461 71.3216C162.603 84.7586 140.618 107.802 135.431 134.715C134.662 130.701 134.273 126.587 134.273 122.413C134.273 90.2816 157.994 62.1576 193.461 46.7246C197.132 45.1236 200.933 43.6616 204.841 42.3516Z" fill="#C32430"/>
<path d="M409.069 243.77L275.168 272.789L275.166 272.79V272.787H236.833V272.789L236.831 272.788L102.931 243.769C89.2753 240.803 76.3633 251.217 76.3633 265.188V426.391C76.3633 436.709 83.5633 445.635 93.6433 447.819L236.832 478.85L236.834 478.849L275.167 478.85H275.169L418.358 447.819C428.438 445.635 435.638 436.709 435.638 426.391V265.189C435.637 251.218 422.725 240.804 409.069 243.77Z" fill="#DFEAEF"/>
<path d="M450.055 281.186V455.328C450.055 466.475 442.277 476.117 431.388 478.476L276.707 511.998L256.742 506.998V294.396L276.707 289.396L421.355 258.048C436.107 254.844 450.055 266.094 450.055 281.186Z" fill="#5BCFBA"/>
<path d="M256.742 294.396V506.998L235.294 511.998L80.6123 478.476C69.7233 476.117 61.9453 466.474 61.9453 455.328V281.186C61.9453 266.094 75.8943 254.844 90.6463 258.048L235.294 289.396L256.742 294.396Z" fill="#4EC0AD"/>
<path d="M235.296 512.001V289.398H276.706V512.001" fill="#C7FAEC"/>
<path d="M328.931 348.284C325.373 348.284 322.172 345.812 321.388 342.193C320.484 338.023 323.132 333.909 327.302 333.005L412.858 314.462C417.032 313.56 421.142 316.206 422.046 320.376C422.95 324.546 420.302 328.66 416.132 329.564L330.576 348.107C330.023 348.227 329.473 348.284 328.931 348.284Z" fill="#454045"/>
<path d="M328.931 376.995C325.373 376.995 322.172 374.523 321.388 370.904C320.484 366.734 323.132 362.62 327.302 361.716L412.858 343.173C417.032 342.27 421.142 344.917 422.046 349.087C422.95 353.257 420.302 357.371 416.132 358.275L330.576 376.818C330.023 376.938 329.473 376.995 328.931 376.995Z" fill="#454045"/>
<path d="M57.6956 365.329H49.5946C37.6316 365.329 27.9346 355.631 27.9346 343.669V324.226C27.9346 312.263 37.6326 302.566 49.5946 302.566H57.6956C69.6586 302.566 79.3556 312.264 79.3556 324.226V343.669C79.3556 355.632 69.6576 365.329 57.6956 365.329Z" fill="#F1D0A5"/>
<path d="M61.8576 364.921C60.5186 365.199 59.1176 365.333 57.6956 365.333H49.5876C37.6276 365.333 27.9336 355.629 27.9336 343.668V324.228C27.9336 312.257 37.6276 302.562 49.5876 302.562H57.6956C59.1176 302.562 60.5186 302.697 61.8576 302.975C51.8956 304.912 44.3756 313.689 44.3756 324.228V343.668C44.3756 354.208 51.8956 362.985 61.8576 364.921Z" fill="#F1B986"/>
<path d="M462.408 365.329H454.306C442.343 365.329 432.646 355.631 432.646 343.669V324.226C432.646 312.263 442.344 302.566 454.306 302.566H462.408C474.371 302.566 484.067 312.264 484.067 324.226V343.669C484.067 355.632 474.37 365.329 462.408 365.329Z" fill="#F1D0A5"/>
<path d="M466.57 364.921C465.231 365.199 463.83 365.333 462.408 365.333H454.3C442.34 365.333 432.646 355.629 432.646 343.668V324.228C432.646 312.257 442.34 302.562 454.3 302.562H462.408C463.83 302.562 465.231 302.697 466.57 302.975C456.608 304.912 449.088 313.689 449.088 324.228V343.668C449.088 354.208 456.608 362.985 466.57 364.921Z" fill="#F1B986"/>
</svg>
