<svg width="512" height="512" viewBox="0 0 512 512" fill="none" xmlns="http://www.w3.org/2000/svg">
<path fill-rule="evenodd" clip-rule="evenodd" d="M30.0662 27.4883H480.283V484.525H30.0662V27.4883Z" fill="#FDDB74"/>
<path fill-rule="evenodd" clip-rule="evenodd" d="M464.284 27.4883H480.284V484.525H464.284V27.4883Z" fill="#EBC34B"/>
<path fill-rule="evenodd" clip-rule="evenodd" d="M502.293 147.844C507.183 147.844 511.147 151.807 511.147 156.697V175.41H0.795654V156.697C0.795654 151.807 4.76045 147.844 9.64899 147.844H502.293Z" fill="#E69832"/>
<path fill-rule="evenodd" clip-rule="evenodd" d="M464.284 147.844H502.293C507.183 147.844 511.147 151.807 511.147 156.697V175.41H464.284V147.844Z" fill="#AA6B30"/>
<path fill-rule="evenodd" clip-rule="evenodd" d="M104.232 173.852C104.232 201.924 81.0581 224.717 52.5141 224.717C23.9701 224.717 0.795654 201.924 0.795654 173.852H104.232Z" fill="#30B5B9"/>
<path fill-rule="evenodd" clip-rule="evenodd" d="M205.961 173.852C205.961 201.924 183.169 224.717 155.097 224.717C127.024 224.717 104.233 201.924 104.233 173.852H205.961Z" fill="#13979B"/>
<path fill-rule="evenodd" clip-rule="evenodd" d="M307.69 173.852C307.69 201.924 284.898 224.717 256.825 224.717C228.752 224.717 205.961 201.924 205.961 173.852H307.69Z" fill="#30B5B9"/>
<path fill-rule="evenodd" clip-rule="evenodd" d="M409.418 173.852C409.418 201.924 386.626 224.717 358.554 224.717C330.481 224.717 307.69 201.924 307.69 173.852H409.418Z" fill="#13979B"/>
<path fill-rule="evenodd" clip-rule="evenodd" d="M511.147 173.852C511.147 201.924 488.355 224.717 460.282 224.717C432.209 224.717 409.418 201.924 409.418 173.852H511.147Z" fill="#30B5B9"/>
<path fill-rule="evenodd" clip-rule="evenodd" d="M464.284 173.852H511.147C511.147 200.578 490.488 222.517 464.284 224.561V173.852Z" fill="#13979B"/>
<path fill-rule="evenodd" clip-rule="evenodd" d="M512 20.9807C512 17.3935 509.087 14.4805 505.499 14.4805H8.15041C4.56321 14.4805 1.65015 17.3935 1.65015 20.9807V33.9823C1.65015 37.5706 4.56321 40.4837 8.15041 40.4837H505.499C509.087 40.4837 512 37.5706 512 33.9823V20.9807Z" fill="#E69832"/>
<path fill-rule="evenodd" clip-rule="evenodd" d="M1.65015 29.817H457.782C461.371 29.817 464.284 26.9039 464.284 23.3157V14.4805H505.499C509.087 14.4805 512 17.3935 512 20.9807V33.9823C512 37.5706 509.087 40.4837 505.499 40.4837H8.15041C4.56321 40.4837 1.65015 37.5706 1.65015 33.9823V29.817Z" fill="#AA6B30"/>
<path fill-rule="evenodd" clip-rule="evenodd" d="M256.824 275.501C256.824 270.458 252.73 266.363 247.686 266.363H72.113C67.0698 266.363 62.9749 270.458 62.9749 275.501V387.777C62.9749 392.821 67.0698 396.915 72.113 396.915H247.686C252.73 396.915 256.824 392.821 256.824 387.777V275.501Z" fill="#F8FED8"/>
<path fill-rule="evenodd" clip-rule="evenodd" d="M231.686 396.915C236.729 396.915 240.824 392.821 240.824 387.777V275.501C240.824 270.458 236.729 266.363 231.686 266.363H247.686C252.729 266.363 256.824 270.458 256.824 275.501V387.777C256.824 392.821 252.729 396.915 247.686 396.915H231.686Z" fill="#FFDF9A"/>
<path fill-rule="evenodd" clip-rule="evenodd" d="M434.075 287.32C439.966 287.32 444.742 292.096 444.742 297.987V471.746H290.453V297.987C290.453 292.096 295.228 287.32 301.119 287.32H434.075Z" fill="#E69832"/>
<path fill-rule="evenodd" clip-rule="evenodd" d="M361.634 477.847C360.048 476.297 359.063 474.136 359.063 471.746V287.32H376.13V471.746C376.13 474.136 375.146 476.297 373.559 477.847H361.634Z" fill="#AA6B30"/>
<path fill-rule="evenodd" clip-rule="evenodd" d="M383.086 362.299C383.086 357.59 386.909 353.766 391.619 353.766C396.329 353.766 400.153 357.59 400.153 362.299V384.553C400.153 389.263 396.329 393.086 391.619 393.086C386.909 393.086 383.086 389.263 383.086 384.553V362.299ZM334.689 362.299C334.689 357.59 338.512 353.766 343.223 353.766C347.932 353.766 351.756 357.59 351.756 362.299V384.553C351.756 389.263 347.932 393.086 343.223 393.086C338.512 393.086 334.689 389.263 334.689 384.553V362.299Z" fill="#AA6B30"/>
<path fill-rule="evenodd" clip-rule="evenodd" d="M510.35 478.021C510.35 474.433 507.437 471.52 503.85 471.52H6.50133C2.91307 471.52 0 474.433 0 478.021V491.022C0 494.61 2.91307 497.523 6.50133 497.523H503.85C507.437 497.523 510.35 494.61 510.35 491.022V478.021Z" fill="#E69832"/>
<path fill-rule="evenodd" clip-rule="evenodd" d="M0 486.856H457.782C461.371 486.856 464.284 483.943 464.284 480.356V471.52H503.85C507.437 471.52 510.35 474.433 510.35 478.021V491.022C510.35 494.61 507.437 497.523 503.85 497.523H6.50133C2.91307 497.523 0 494.61 0 491.022V486.856Z" fill="#AA6B30"/>
<path fill-rule="evenodd" clip-rule="evenodd" d="M296.935 141.793L217.19 232.915C210.196 240.907 198.066 241.309 190.557 233.801L189.42 232.664C181.911 225.155 182.314 213.025 190.307 206.03L281.428 126.285C274.355 110.26 280.134 87.5973 296.986 70.7451C317.43 50.3003 346.424 46.1499 361.748 61.4736C377.07 76.7963 372.921 105.791 352.476 126.235C335.624 143.087 312.961 148.866 296.935 141.793Z" fill="#3D5365"/>
<path fill-rule="evenodd" clip-rule="evenodd" d="M333.862 70.6806C338.524 70.0139 342.85 73.2577 343.517 77.919C344.185 82.5814 340.941 86.9078 336.279 87.5755C330.873 88.3489 325.702 91.8582 321.9 95.6587C318.57 98.9889 313.163 98.9889 309.833 95.6587C306.503 92.3286 306.503 86.9217 309.833 83.5915C316.118 77.3057 324.921 71.9606 333.862 70.6806Z" fill="#C6D7E4"/>
<path fill-rule="evenodd" clip-rule="evenodd" d="M187.15 41.4476C183.82 38.1175 183.82 32.7105 187.15 29.3804C190.48 26.0503 195.888 26.0503 199.218 29.3804L250.854 81.0167C266.484 96.6466 266.483 122.223 250.854 137.851L243.443 145.263C227.813 160.892 202.239 160.892 186.609 145.263L134.972 93.6258C131.642 90.2956 131.642 84.8887 134.972 81.5585C138.302 78.2284 143.71 78.2284 147.04 81.5585L198.677 133.195C207.669 142.187 222.383 142.187 231.375 133.195L238.787 125.784C247.778 116.792 247.779 102.077 238.787 93.0849L187.15 41.4476Z" fill="#3D5365"/>
<path fill-rule="evenodd" clip-rule="evenodd" d="M232.906 142.965L248.556 127.316L338.506 206.037C346.497 213.031 346.9 225.156 339.392 232.665L338.255 233.802C330.747 241.31 318.621 240.908 311.628 232.916L232.906 142.965Z" fill="#3D5365"/>
<path fill-rule="evenodd" clip-rule="evenodd" d="M169.934 58.6596C166.603 55.3295 166.603 49.9215 169.934 46.5914C173.264 43.2612 178.671 43.2612 182.001 46.5914L233.638 98.2287C236.968 101.559 236.968 106.966 233.638 110.296C230.308 113.626 224.901 113.626 221.57 110.296L169.934 58.6596ZM215.893 115.974C219.223 119.304 219.223 124.711 215.893 128.041C212.563 131.371 207.155 131.371 203.825 128.041L152.189 76.4047C148.858 73.0746 148.858 67.6665 152.189 64.3364C155.519 61.0063 160.926 61.0063 164.256 64.3364L215.893 115.974Z" fill="#3D5365"/>
</svg>
