<svg width="512" height="512" viewBox="0 0 512 512" fill="none" xmlns="http://www.w3.org/2000/svg">
<g clip-path="url(#clip0_683_9819)">
<path d="M304.056 210.699H207.945C170.468 210.699 140.087 180.318 140.087 142.841V97.46C140.087 43.634 183.721 0 237.547 0H274.454C328.28 0 371.914 43.634 371.914 97.46V142.84C371.914 180.317 341.533 210.699 304.056 210.699Z" fill="#A55224"/>
<path d="M307.745 271.44V346.757H204.255V271.44H218.672C226.541 271.44 232.92 265.061 232.92 257.192V207.871H279.079V257.192C279.079 265.061 285.458 271.44 293.327 271.44H307.745Z" fill="#FBA88D"/>
<path d="M190.195 149.667C190.195 164.949 180.825 177.338 169.266 177.338C157.707 177.338 150.992 163.111 150.992 147.828C150.992 132.545 157.707 121.996 169.266 121.996C180.825 121.996 190.195 134.385 190.195 149.667Z" fill="#F59A7E"/>
<path d="M321.805 149.667C321.805 164.949 331.175 177.338 342.734 177.338C354.293 177.338 361.008 163.111 361.008 147.828C361.008 132.545 354.293 121.996 342.734 121.996C331.175 121.996 321.805 134.385 321.805 149.667Z" fill="#F59A7E"/>
<path d="M179.373 158.705V101.791C179.373 61.8784 211.729 29.5234 251.641 29.5234H260.359C300.272 29.5234 332.627 61.8794 332.627 101.791V158.704C332.627 200.997 298.342 235.281 256.05 235.281H255.95C213.657 235.282 179.373 200.997 179.373 158.705Z" fill="#FDC19A"/>
<path d="M260.359 29.5234H251.641C247.868 29.5234 244.164 29.8144 240.547 30.3714C275.193 35.7094 301.722 65.6514 301.722 101.791V158.704C301.722 195.721 275.457 226.602 240.547 233.731C245.523 234.747 250.674 235.281 255.95 235.281H256.05C298.343 235.281 332.627 200.996 332.627 158.704V101.791C332.627 61.8794 300.272 29.5234 260.359 29.5234Z" fill="#FBA88D"/>
<path d="M322.162 271.441V382.354H189.838V271.441H218.672C218.672 271.441 223.007 331.763 256 331.763C288.993 331.763 295.147 271.441 295.147 271.441H322.162Z" fill="#F74F68"/>
<path d="M264.623 188.255C259.467 189.695 252.535 189.696 247.377 188.255C243.381 187.139 239.249 189.473 238.137 193.462C237.023 197.452 239.355 201.589 243.344 202.702C247.247 203.792 251.623 204.336 255.999 204.336C260.376 204.336 264.754 203.791 268.656 202.701C272.646 201.587 274.977 197.45 273.863 193.46C272.75 189.473 268.613 187.142 264.623 188.255Z" fill="#A55224"/>
<path d="M223.688 143.262C219.545 143.262 216.188 146.62 216.188 150.762V155.378C216.188 159.52 219.545 162.878 223.688 162.878C227.831 162.878 231.188 159.52 231.188 155.378V150.762C231.188 146.62 227.831 143.262 223.688 143.262Z" fill="#A55224"/>
<path d="M288.312 143.262C284.169 143.262 280.812 146.62 280.812 150.762V155.378C280.812 159.52 284.169 162.878 288.312 162.878C292.455 162.878 295.812 159.52 295.812 155.378V150.762C295.812 146.62 292.454 143.262 288.312 143.262Z" fill="#A55224"/>
<path d="M189.838 382.354H146.756V312.984C146.756 290.04 165.356 271.441 188.299 271.441H189.838V382.354Z" fill="#FBA88D"/>
<path d="M322.162 382.354H365.244V312.984C365.244 290.04 346.644 271.441 323.701 271.441H322.162V382.354Z" fill="#FBA88D"/>
<path d="M330.62 136.126C267.647 119.21 256 48.052 256 48.052C256 48.052 244.353 119.21 181.38 136.126C180.478 136.368 179.559 135.793 179.372 134.878C177.67 126.53 168.818 88.522 173.682 54.922C179.376 15.625 214.749 0.715 256 0C297.251 0.715 332.624 15.625 338.317 54.922C343.181 88.521 334.329 126.53 332.627 134.878C332.441 135.793 331.522 136.368 330.62 136.126Z" fill="#D47B42"/>
<path d="M338.317 54.922C332.625 15.625 297.251 0.715 256 0C250.736 0.091 245.57 0.417 240.547 0.992C274.888 4.921 302.445 20.639 307.412 54.922C311.106 80.439 306.89 108.487 303.902 124.166C311.577 129.218 320.421 133.386 330.62 136.126C331.522 136.368 332.441 135.793 332.628 134.878C334.329 126.53 343.182 88.521 338.317 54.922Z" fill="#BC652B"/>
<path d="M512 348.199C490.663 348.199 490.663 366.064 469.327 366.064C447.991 366.064 447.99 348.199 426.654 348.199C405.32 348.199 405.32 366.064 383.987 366.064C362.653 366.064 362.653 348.199 341.318 348.199C319.985 348.199 319.985 366.064 298.651 366.064C277.318 366.064 277.318 348.199 255.985 348.199C234.655 348.199 234.655 366.064 213.324 366.064C191.991 366.064 191.991 348.199 170.659 348.199C149.326 348.199 149.326 366.064 127.992 366.064C106.659 366.064 106.659 348.199 85.326 348.199C63.994 348.199 63.994 366.064 42.662 366.064C21.331 366.064 21.331 348.199 -0.000976562 348.199V454.308C2.34375e-05 486.169 25.829 511.998 57.69 511.998H454.31C486.171 511.998 512 486.169 512 454.308V348.199Z" fill="#B7E9FF"/>
<path d="M267.746 366.064C274.652 366.064 279.317 364.188 283.199 361.656C275.088 356.366 270.413 348.199 255.986 348.199C249.081 348.199 244.416 350.075 240.534 352.608C248.644 357.898 253.319 366.064 267.746 366.064Z" fill="#5DB1CA"/>
<path d="M353.081 366.064C359.986 366.064 364.651 364.188 368.533 361.656C360.422 356.366 355.746 348.199 341.317 348.199C334.412 348.199 329.747 350.075 325.865 352.607C333.977 357.897 338.653 366.064 353.081 366.064Z" fill="#5DB1CA"/>
<path d="M182.42 366.064C189.325 366.064 193.99 364.188 197.872 361.655C189.762 356.365 185.087 348.199 170.66 348.199C163.754 348.199 159.089 350.075 155.207 352.607C163.317 357.897 167.992 366.064 182.42 366.064Z" fill="#5DB1CA"/>
<path d="M438.422 366.063C445.327 366.063 449.993 364.188 453.875 361.657C445.761 356.367 441.086 348.199 426.655 348.199C419.75 348.199 415.085 350.075 411.203 352.606C419.315 357.895 423.991 366.063 438.422 366.063Z" fill="#5DB1CA"/>
<path d="M481.095 363.694V454.307C481.095 486.168 455.266 511.997 423.405 511.997H454.31C486.171 511.997 512 486.168 512 454.307V348.199C495.529 348.199 491.766 358.839 481.095 363.694Z" fill="#5DB1CA"/>
<path d="M11.758 366.064C18.664 366.064 23.329 364.188 27.211 361.655C19.102 356.365 14.427 348.199 0.000976562 348.199V363.698C3.14998 365.13 6.89698 366.064 11.758 366.064Z" fill="#5DB1CA"/>
<path d="M97.087 366.064C103.993 366.064 108.658 364.188 112.54 361.656C104.429 356.366 99.754 348.199 85.327 348.199C78.422 348.199 73.757 350.075 69.875 352.607C77.985 357.897 82.66 366.064 97.087 366.064Z" fill="#5DB1CA"/>
<path d="M115.896 400.969H84.99C80.847 400.969 77.49 404.327 77.49 408.469C77.49 412.611 80.847 415.969 84.99 415.969H115.895C120.038 415.969 123.395 412.611 123.395 408.469C123.395 404.327 120.038 400.969 115.896 400.969Z" fill="#52C5E8"/>
<path d="M427.01 446.297H385.803C381.66 446.297 378.303 449.655 378.303 453.797C378.303 457.939 381.66 461.297 385.803 461.297H427.01C431.153 461.297 434.51 457.939 434.51 453.797C434.51 449.655 431.152 446.297 427.01 446.297Z" fill="#52C5E8"/>
<path d="M338.414 416.422H251.879C247.736 416.422 244.379 419.78 244.379 423.922C244.379 428.064 247.736 431.422 251.879 431.422H338.414C342.557 431.422 345.914 428.064 345.914 423.922C345.914 419.78 342.557 416.422 338.414 416.422Z" fill="#52C5E8"/>
<path d="M198.31 439.086H140.62C136.477 439.086 133.12 442.444 133.12 446.586C133.12 450.728 136.477 454.086 140.62 454.086H198.309C202.452 454.086 205.809 450.728 205.809 446.586C205.809 442.444 202.452 439.086 198.31 439.086Z" fill="#52C5E8"/>
</g>
<defs>
<clipPath id="clip0_683_9819">
<rect width="512" height="512" fill="white"/>
</clipPath>
</defs>
</svg>
