<svg id="Layer_1" enable-background="new 0 0 511.606 511.606" height="300" viewBox="0 0 511.606 511.606" width="300" xmlns="http://www.w3.org/2000/svg" version="1.1" xmlns:xlink="http://www.w3.org/1999/xlink" xmlns:svgjs="http://svgjs.dev/svgjs"><g width="100%" height="100%" transform="matrix(1,0,0,1,0,0)"><g clip-rule="evenodd" fill-rule="evenodd"><path d="m85.67 184.998c-57.741 82.263-48.565 196.504 26.094 268.4 26.387 25.406 57.734 42.568 90.848 51.163 202.627 52.59 350.353-201.673 196.212-350.05-16.861-16.237-34.796-29.057-54.9-38.489-45.059-21.084-96.02-25.085-143.241-12.119-34.802 9.52-67.559 28.268-94.413 56.127-7.626 7.914-14.493 16.266-20.6 24.968z" fill="#62baff" fill-opacity="1" data-original-color="#a6e7f0ff" stroke="none" stroke-opacity="1" style=""/><path d="m343.924 116.022c-45.059-21.084-96.02-25.085-143.241-12.119-34.802 9.52-67.559 28.268-94.413 56.127-7.627 7.914-14.494 16.266-20.601 24.968-21.039 37.876 31.471 70.845 59.377 34.693 28.14-36.386 62.036-10.834 79.686 10.455 31.062 37.554 86.64 20.763 80.095-20.237-8.621-53.646 52.305-20.18 39.097-93.887z" fill="#8ffc5c" fill-opacity="1" data-original-color="#80d261ff" stroke="none" stroke-opacity="1" style=""/><path d="m276.249 388.101c-18.117 3.942-31.588 18.719-28.169 40.095 7.831 48.797-46.315 25.552-45.468 76.365 70.452 18.573 148.589-.496 202.706-56.653 9.468-9.812 17.737-21.083 24.867-32.093-23.26 30.137-65.835 19.857-89.796 3.065-4.149 4.468-8.766 9.024-13.88 13.638-5.406 5.256-8.883 4.731-14.435 0-17.416-15.652-28.958-30.604-35.825-44.417z" fill="#8ffc5c" fill-opacity="1" data-original-color="#80d261ff" stroke="none" stroke-opacity="1" style=""/><path d="m319.291 305.692c-35.328.73-66.916 34.634-43.042 82.41 6.867 13.813 18.409 28.764 35.825 44.417 5.552 4.731 9.029 5.256 14.435 0 5.114-4.614 9.731-9.17 13.88-13.638 58.5-63.341 21.389-112.313-21.098-113.189z" fill="#fe636e" fill-opacity="0.00784313725490196" data-original-color="#fe636eff" stroke="none" stroke-opacity="1" style=""/><path d="m343.924 116.022c-44.065-20.646-93.828-24.91-140.173-12.937 49.383-1.11 99.147 15.302 139.179 49.411 3.127-7.973 4.062-19.333.994-36.474z" fill="#41d33f" fill-opacity="1" data-original-color="#4fc122ff" stroke="none" stroke-opacity="1" style=""/><path d="m399.824 154.51c-16.861-16.237-35.796-29.057-55.9-38.489 3.068 17.142 2.133 28.502-.994 36.474 3.214 2.745 6.37 5.607 9.438 8.586 76.033 73.182 84.156 190.313 22.88 272.839 18.497 3.796 38.163 1.285 52.13-13.959 14.143-21.055 24.633-44.534 30.711-69.181 15.868-68.713-3.739-143.793-58.265-196.27z" fill="#426eb7" fill-opacity="1" data-original-color="#6bd9e7ff" stroke="none" stroke-opacity="1" style=""/><path d="m375.249 433.92c-5.26 7.125-11.075 13.988-17.386 20.529-27.614 28.677-61.51 47.688-97.452 56.945 48.361-1.081 96.341-18.923 134.475-53.382 3.565-3.212 7.042-6.6 10.432-10.104 9.468-9.812 17.737-21.083 24.867-32.093-.906 1.197-1.841 2.307-2.805 3.358-13.968 15.244-33.634 18.543-52.131 14.747z" fill="#41d33f" fill-opacity="1" data-original-color="#4fc122ff" stroke="none" stroke-opacity="1" style=""/></g><path d="m200.712 160.779c-4.297 0-7.868-3.984-7.871-8.283v-125.946c-.003-4.301 3.479-7.789 7.778-7.792h.005c4.297 0 7.78 3.483 7.783 7.782l.087 126.447c.003 4.301-3.479 7.789-7.778 7.792 0 0-.002 0-.004 0z" fill="#cecece" fill-opacity="1" data-original-color="#cececeff" stroke="none" stroke-opacity="1" style=""/><path d="m208.408 26.54-.038 126.163c.003 4.301-3.354 8.073-7.652 8.076" fill="#cecece" fill-opacity="1" data-original-color="#cececeff" stroke="none" stroke-opacity="1" style=""/><path clip-rule="evenodd" d="m284.927 0h-81.216c-5.99 0-10.87 4.877-10.87 10.863v15.682 26.545h92.086c5.873 0 10.666-4.789 10.666-10.63v-31.83c0-5.841-4.792-10.63-10.666-10.63z" fill="#08dbd3" fill-rule="evenodd" fill-opacity="1" data-original-color="#03bed7ff" stroke="none" stroke-opacity="1" style=""/><path clip-rule="evenodd" d="m284.927 0h-36.701c5.844 0 10.636 4.789 10.636 10.63v31.83c0 5.841-4.792 10.63-10.636 10.63h36.701c5.873 0 10.666-4.789 10.666-10.63v-31.83c0-5.841-4.792-10.63-10.666-10.63z" fill="#039fb7" fill-rule="evenodd" fill-opacity="1" data-original-color="#0099b1ff" stroke="none" stroke-opacity="1" style=""/></g></svg>