<svg id="Capa_1" enable-background="new 0 0 512 512" height="300" viewBox="0 0 512 512" width="300" xmlns="http://www.w3.org/2000/svg" version="1.1" xmlns:xlink="http://www.w3.org/1999/xlink" xmlns:svgjs="http://svgjs.dev/svgjs"><g width="100%" height="100%" transform="matrix(1,0,0,1,0,0)"><g><path d="m473.772 444.286h-435.544c-21.113 0-38.228-17.115-38.228-38.228v-300.114c0-21.113 17.115-38.228 38.228-38.228h435.544c21.113 0 38.228 17.115 38.228 38.228v300.114c0 21.113-17.115 38.228-38.228 38.228z" fill="#ffcfdc" fill-opacity="1" data-original-color="#e8edf2ff" stroke="none" stroke-opacity="1"/><path d="m68.105 444.286h-29.875c-21.119 0-38.23-17.122-38.23-38.23v-300.112c0-21.119 17.111-38.23 38.23-38.23h29.875c-21.119 0-38.23 17.111-38.23 38.23v300.112c0 21.109 17.112 38.23 38.23 38.23z" fill="#ff98b9" fill-opacity="1" data-original-color="#d9e7ecff" stroke="none" stroke-opacity="1"/><path d="m260.926 115.764h-190.637c-15.578 0-28.207 12.629-28.207 28.207v226.366c0 15.578 12.629 28.207 28.207 28.207h190.637c15.578 0 28.207-12.629 28.207-28.207v-226.366c0-15.578-12.628-28.207-28.207-28.207z" fill="#ffe177" fill-opacity="0" data-original-color="#ffe177ff" stroke="none" stroke-opacity="1"/><path d="m97.939 398.543h-27.65c-15.576 0-28.206-12.63-28.206-28.217v-226.361c0-15.576 12.63-28.206 28.206-28.206h27.65c-15.587 0-28.206 12.63-28.206 28.206v226.362c0 15.586 12.619 28.216 28.206 28.216z" fill="#ffd15b" fill-opacity="0.12156862745098039" data-original-color="#ffd15bff" stroke="none" stroke-opacity="1"/><g><path d="m162.615 330.837c-32.884 0-59.542 26.658-59.542 59.542v8.164h119.084v-8.164c0-32.884-26.658-59.542-59.542-59.542z" fill="#e22e7b" fill-opacity="1" data-original-color="#2ed1e2ff" stroke="none" stroke-opacity="1"/><path d="m180.254 333.487c-24.261 7.52-41.887 30.143-41.887 56.887v8.169h-35.294v-8.169c0-32.883 26.651-59.544 59.534-59.544 6.15 0 12.074.927 17.647 2.657z" fill="#af084f" fill-opacity="1" data-original-color="#02c7ddff" stroke="none" stroke-opacity="1"/><path d="m218.149 151.524c-9.674 0-18.562 5.013-25.568 13.389-12.378-15.446-31.468-25.35-52.89-25.35-37.313 0-67.561 30.041-67.561 67.098s30.248 67.098 67.561 67.098c18.85 0 35.894-7.67 48.149-20.035 7.489 12.307 18.294 20.035 30.309 20.035 22.609 0 40.936-27.363 40.936-61.117s-18.327-61.118-40.936-61.118z" fill="#9e561a" fill-opacity="1" data-original-color="#7a8c98ff" stroke="none" stroke-opacity="1"/><path d="m163.825 269.336c-7.491 2.855-15.626 4.417-24.137 4.417-37.312 0-67.557-30.04-67.557-67.091 0-37.058 30.245-67.098 67.557-67.098 8.511 0 16.653 1.561 24.151 4.417-25.39 9.641-43.427 34.066-43.427 62.682 0 28.6 18.029 53.025 43.413 62.673z" fill="#6d422e" fill-opacity="1" data-original-color="#596c76ff" stroke="none" stroke-opacity="1"/><path d="m234.525 279.256h-143.824c-10.256 0-18.571-8.314-18.571-18.571 0-10.256 8.314-18.571 18.571-18.571h143.824c10.256 0 18.571 8.314 18.571 18.571 0 10.257-8.314 18.571-18.571 18.571z" fill="#d69682" fill-opacity="1" data-original-color="#ffcebfff" stroke="none" stroke-opacity="1"/><path d="m162.612 343.839c-37.709 0-67.359-32.245-64.188-69.824l2.684-31.902s60.244.596 91.955-38.421c0 0 7.101 32.546 31.053 38.421h.007l2.684 31.902c3.164 37.58-26.486 69.824-64.195 69.824z" fill="#f4ad89" fill-opacity="1" data-original-color="#ffeee6ff" stroke="none" stroke-opacity="1"/><path d="m181.751 340.95c-6.033 1.876-12.462 2.89-19.139 2.89-37.709 0-67.359-32.245-64.188-69.824l2.684-31.902s14.476.144 32.964-4.3l-2.492 29.67c-2.883 34.148 19.022 64.27 50.171 73.466z" fill="#dd9f7d" fill-opacity="1" data-original-color="#ffdfcfff" stroke="none" stroke-opacity="1"/><g fill="#596c76"><path d="m145.988 273.711c-4.267 0-7.726-3.459-7.726-7.726v-11.025c0-4.267 3.459-7.726 7.726-7.726s7.726 3.459 7.726 7.726v11.025c0 4.266-3.459 7.726-7.726 7.726z" fill="#6d422e" fill-opacity="1" data-original-color="#596c76ff" stroke="none" stroke-opacity="1"/><path d="m179.242 273.711c-4.267 0-7.726-3.459-7.726-7.726v-11.025c0-4.267 3.459-7.726 7.726-7.726s7.726 3.459 7.726 7.726v11.025c.001 4.266-3.458 7.726-7.726 7.726z" fill="#6d422e" fill-opacity="1" data-original-color="#596c76ff" stroke="none" stroke-opacity="1"/></g><path d="m162.615 304.14c-6.951 0-13.902-1.678-20.238-5.032-3.771-1.997-5.209-6.673-3.213-10.444 1.997-3.771 6.672-5.21 10.444-3.213 8.144 4.312 17.87 4.312 26.014 0 3.772-1.996 8.447-.559 10.444 3.213 1.996 3.771.558 8.447-3.213 10.444-6.336 3.355-13.287 5.032-20.238 5.032z" fill="#fe3535" fill-opacity="1" data-original-color="#fe646fff" stroke="none" stroke-opacity="1"/></g><g fill="#7a8c98"><path d="m426.496 150.833h-103.347c-4.268 0-7.726-3.459-7.726-7.726s3.459-7.726 7.726-7.726h103.347c4.268 0 7.726 3.459 7.726 7.726s-3.458 7.726-7.726 7.726z" fill="#9e561a" fill-opacity="1" data-original-color="#7a8c98ff" stroke="none" stroke-opacity="1"/><path d="m478.853 187.117h-155.704c-4.268 0-7.726-3.459-7.726-7.726s3.459-7.726 7.726-7.726h155.704c4.268 0 7.726 3.459 7.726 7.726s-3.458 7.726-7.726 7.726z" fill="#9e561a" fill-opacity="1" data-original-color="#7a8c98ff" stroke="none" stroke-opacity="1"/><path d="m350.868 223.401h-27.719c-4.268 0-7.726-3.459-7.726-7.726s3.459-7.726 7.726-7.726h27.719c4.268 0 7.726 3.459 7.726 7.726s-3.458 7.726-7.726 7.726z" fill="#9e561a" fill-opacity="1" data-original-color="#7a8c98ff" stroke="none" stroke-opacity="1"/><path d="m364.831 259.686h-41.682c-4.268 0-7.726-3.459-7.726-7.726s3.459-7.726 7.726-7.726h41.682c4.268 0 7.726 3.459 7.726 7.726 0 4.266-3.458 7.726-7.726 7.726z" fill="#9e561a" fill-opacity="1" data-original-color="#7a8c98ff" stroke="none" stroke-opacity="1"/><path d="m478.853 259.686h-68.338c-4.268 0-7.726-3.459-7.726-7.726s3.459-7.726 7.726-7.726h68.338c4.268 0 7.726 3.459 7.726 7.726 0 4.266-3.458 7.726-7.726 7.726z" fill="#9e561a" fill-opacity="1" data-original-color="#7a8c98ff" stroke="none" stroke-opacity="1"/></g><g><path d="m424.254 341.484-45.154.712-45.154-.712c.082-.401.164-11.095.255-11.487 1.951-8.735 4.869-17.25 8.698-25.392 2.152-4.568 5.525-8.315 9.628-10.923 4.103-2.598 8.935-4.057 13.986-4.057h39.715c4.012 0 7.531 2.699 8.58 6.574z" fill="#c3d8ea" fill-opacity="1" data-original-color="#c8effeff" stroke="none" stroke-opacity="1"/><path d="m458.904 338.775-28.783-5.604-10.673-39.538c-1.185-4.378-5.161-7.428-9.694-7.428h-44.874c-5.707 0-11.167 1.659-15.803 4.584-4.636 2.957-8.447 7.18-10.879 12.342-4.327 9.199-7.623 18.821-9.828 28.69-.103.443-.196.886-.288 1.35-2.029 9.426-3.049 19.079-3.049 28.783 0 9.107 7.386 16.483 16.493 16.483h114.226c9.107 0 16.493-7.376 16.493-16.483v-6.995c0-7.881-5.594-14.68-13.341-16.184zm-87.334-37.117h13.461v31.513h-13.461zm-27.562 31.132c1.937-7.912 4.687-15.659 8.169-23.066.917-1.96 2.273-3.657 3.94-4.989v28.436h-12.006zm56.476.381v-31.513h5.119l8.509 31.513z" fill="#fe3535" fill-opacity="1" data-original-color="#fe646fff" stroke="none" stroke-opacity="1"/><g fill="#7a8c98"><circle cx="361.204" cy="378.443" r="18.136" fill="#9e561a" fill-opacity="1" data-original-color="#7a8c98ff" stroke="none" stroke-opacity="1"/><circle cx="434.735" cy="378.443" r="18.136" fill="#9e561a" fill-opacity="1" data-original-color="#7a8c98ff" stroke="none" stroke-opacity="1"/></g></g></g></g></svg>