<svg height="512pt" viewBox="-54 0 512 512.00108" width="512pt" xmlns="http://www.w3.org/2000/svg"><path d="m404.363281 202.179688c0-110.605469-88.816406-200.46875-199.019531-202.1562505-111.988281-1.7148435-205.34375 90.1562505-205.34375 202.1601565 0 49.816406 18.027344 95.414062 47.902344 130.652344h-.019532l.558594.644531c.914063 1.0625 1.835938 2.117187 2.769532 3.164062l150.410156 172.109375c3.894531 4.457032 10.871094 4.300782 14.566406-.320312l140.296875-175.597656h-.019531c29.871094-35.238282 47.898437-80.835938 47.898437-130.65625zm0 0" fill="#f36986"/><path d="m404.363281 202.179688c0-110.605469-88.816406-200.46875-199.019531-202.1562505-8.679688-.1328125-17.246094.3007815-25.667969 1.2578125 100.925781 11.328125 179.375 96.949219 179.375 200.898438 0 49.816406-18.027343 95.417968-47.898437 130.65625h.019531l-125.746094 157.386718 16.195313 18.53125c3.894531 4.457032 10.871094 4.300782 14.566406-.320312l140.296875-175.597656h-.019531c29.871094-35.238282 47.898437-80.835938 47.898437-130.65625zm0 0" fill="#f33759"/><path d="m287.832031 275.988281h-17.238281c-4.269531 0-7.730469-3.460937-7.730469-7.730469 0-4.269531 3.460938-7.726562 7.730469-7.726562h17.238281c7.890625 0 14.3125-6.421875 14.3125-14.3125v-94.945312l-14.953125-39.378907c-1.515625-3.992187.488282-8.453125 4.480469-9.96875 3.992187-1.519531 8.453125.488281 9.96875 4.480469l15.457031 40.707031c.335938.875.503906 1.804688.503906 2.742188v96.363281c0 16.414062-13.351562 29.769531-29.769531 29.769531zm0 0" fill="#7c3747"/><path d="m270.59375 291.902344h-136.820312v-179.976563c0-15.609375 12.652343-28.261719 28.261718-28.261719h80.296875c15.609375 0 28.261719 12.652344 28.261719 28.261719zm0 0" fill="#f7ffe3"/><path d="m242.332031 83.664062h-17.066406c15.609375 0 28.261719 12.652344 28.261719 28.261719v179.976563h17.066406v-179.976563c0-15.609375-12.652344-28.261719-28.261719-28.261719zm0 0" fill="#f7f4b9"/><path d="m283.59375 299.628906h-162.824219c-4.269531 0-7.730469-3.460937-7.730469-7.726562 0-4.269532 3.460938-7.730469 7.730469-7.730469h162.824219c4.269531 0 7.730469 3.460937 7.730469 7.730469 0 4.265625-3.460938 7.726562-7.730469 7.726562zm0 0" fill="#f7e249"/><path d="m283.59375 284.171875h-22.503906c4.269531 0 7.726562 3.460937 7.726562 7.730469 0 4.265625-3.457031 7.726562-7.726562 7.726562h22.503906c4.269531 0 7.730469-3.460937 7.730469-7.726562 0-4.269532-3.460938-7.730469-7.730469-7.730469zm0 0" fill="#f7c92b"/><path d="m235.164062 171.496094h-65.960937c-3.699219 0-6.695313-2.996094-6.695313-6.695313v-40.023437c0-3.699219 2.996094-6.695313 6.695313-6.695313h65.960937c3.695313 0 6.695313 2.996094 6.695313 6.695313v40.023437c0 3.699219-3 6.695313-6.695313 6.695313zm0 0" fill="#407fff"/><path d="m235.164062 118.082031h-15.457031c3.695313 0 6.695313 2.996094 6.695313 6.695313v40.023437c0 3.699219-3 6.695313-6.695313 6.695313h15.457031c3.695313 0 6.695313-2.996094 6.695313-6.695313v-40.023437c0-3.699219-3-6.695313-6.695313-6.695313zm0 0" fill="#406aef"/><path d="m217.382812 238.867188c0 8.464843-6.863281 15.328124-15.328124 15.328124-8.46875 0-15.332032-6.863281-15.332032-15.328124 0-7.128907 10.871094-20.792969 14.304688-24.933594.535156-.644532 1.515625-.644532 2.050781 0 3.433594 4.140625 14.304687 17.804687 14.304687 24.933594zm0 0" fill="#f36986"/><path d="m203.078125 213.933594c-.535156-.644532-1.515625-.644532-2.050781 0-.988282 1.195312-2.597656 3.179687-4.382813 5.570312 4.410157 5.90625 9.917969 14.289063 9.917969 19.363282 0 6.558593-4.128906 12.140624-9.917969 14.328124 1.683594.636719 3.503907 1 5.410157 1 8.464843 0 15.328124-6.863281 15.328124-15.328124 0-7.128907-10.871093-20.792969-14.304687-24.933594zm0 0" fill="#f33759"/><path d="m294.414062 175.105469c-12.785156 0-23.183593-10.402344-23.183593-23.1875 0-12.785157 10.398437-23.1875 23.183593-23.1875 12.789063 0 23.1875 10.398437 23.1875 23.1875 0 12.785156-10.398437 23.1875-23.1875 23.1875zm0-30.917969c-4.261718 0-7.726562 3.464844-7.726562 7.726562 0 4.261719 3.464844 7.730469 7.726562 7.730469 4.261719 0 7.730469-3.46875 7.730469-7.730469 0-4.261718-3.46875-7.726562-7.730469-7.726562zm0 0" fill="#7c3747"/></svg>