<svg id="Capa_1" enable-background="new 0 0 497 497" height="300" viewBox="0 0 497 497" width="300" xmlns="http://www.w3.org/2000/svg" version="1.1" xmlns:xlink="http://www.w3.org/1999/xlink" xmlns:svgjs="http://svgjs.dev/svgjs"><g width="100%" height="100%" transform="matrix(1,0,0,1,0,0)"><g><g><g fill="#f3f0f3"><path d="m71.317 41.038h25v96h-25z" fill="#594a91" fill-opacity="1" data-original-color="#f3f0f3ff" stroke="none" stroke-opacity="1"/><path d="m151.724 41.038h25v96h-25z" fill="#594a91" fill-opacity="1" data-original-color="#f3f0f3ff" stroke="none" stroke-opacity="1"/></g><path d="m182.129 44.442h-116.217c-7.463 0-13.514-6.05-13.514-13.514 0-7.463 6.05-13.514 13.514-13.514h116.218c7.463 0 13.514 6.05 13.514 13.514-.001 7.464-6.051 13.514-13.515 13.514z" fill="#987a98" fill-opacity="1" data-original-color="#918291ff" stroke="none" stroke-opacity="1"/></g><g><path d="m65.274 442.337h-30.248v29.248c0 4.418 5.582 8 10 8h12.248c4.418 0 8-3.582 8-8z" fill="#987a98" fill-opacity="1" data-original-color="#918291ff" stroke="none" stroke-opacity="1"/><path d="m30.026 442.337v29.248c0 4.418 3.582 8 8 8h7v-37.248z" fill="#775c76" fill-opacity="1" data-original-color="#7a6d79ff" stroke="none" stroke-opacity="1"/></g><g><path d="m233.041 440.337-214.903 1.5c-8.284 0-15-6.716-15-15l-.787-275.337c0-8.284 9.365-17.867 17.649-17.867h213.041c8.284 0 15 6.716 15 15v280.704c0 8.284-6.716 11-15 11z" fill="#6764ff" fill-opacity="1" data-original-color="#60b7ffff" stroke="none" stroke-opacity="1"/><path d="m25 424.337c-2.761 0-5-2.239-5-5v-285.704h-5c-8.284 0-15 6.716-15 15v280.704c0 8.284 6.716 15 15 15h32.262l6.663-3h179.115c8.284 0 15-3.716 15-12v-5z" fill="#503ec9" fill-opacity="1" data-original-color="#26a6feff" stroke="none" stroke-opacity="1"/></g><g><path d="m200.779 430.309-151.06.081-2.456-6.052v-116.378c0-16.569 13.431-30 30-30h93.516c16.569 0 30 13.431 30 30z" fill="#503ec9" fill-opacity="1" data-original-color="#26a6feff" stroke="none" stroke-opacity="1"/><path d="m47.262 424.337v20h29.932l3.54-4h120.045v-16z" fill="#1e12c9" fill-opacity="1" data-original-color="#0593fcff" stroke="none" stroke-opacity="1"/></g><g><path d="m171.356 437.713-89.005 1.787-5.157-15.163v-46.697c0-16.569 13.431-30 30-30h34.163c16.569 0 30 13.431 30 30v46.697 13.376z" fill="#6764ff" fill-opacity="1" data-original-color="#60b7ffff" stroke="none" stroke-opacity="1"/><path d="m77.194 424.337h94.163v20h-94.163z" fill="#503ec9" fill-opacity="1" data-original-color="#26a6feff" stroke="none" stroke-opacity="1"/></g><g><path d="m200.779 190.229c0-8.284-6.716-15-15-15h-123.517c-.318 0-.626.019-.931.047-7.849.483-14.069 6.983-14.069 14.953v25.136c0 8.284 6.716 15 15 15h123.516c7.97 0 14.47-6.221 14.953-14.069.028-.304.047-.613.047-.931v-25.136z" fill="#594a91" fill-opacity="1" data-original-color="#f3f0f3ff" stroke="none" stroke-opacity="1"/><g><path d="m170.618 210.297h-93.195c-4.143 0-7.5-3.357-7.5-7.5s3.357-7.5 7.5-7.5h93.195c4.143 0 7.5 3.357 7.5 7.5s-3.357 7.5-7.5 7.5z" fill="#e5e3e5" fill-opacity="1" data-original-color="#e5e3e5ff" stroke="none" stroke-opacity="1"/></g></g><g><path d="m303.322 230.541c0-.552.448-1 1-1h55c.552 0 1 .448 1 1v31.002h30v-47.002c0-8.284-6.716-15-15-15h-87c-8.284 0-12.268 13.548-12.268 21.832l.673 40.17h26.595z" fill="#987a98" fill-opacity="1" data-original-color="#918291ff" stroke="none" stroke-opacity="1"/><path d="m288.322 199.541c-8.284 0-15 6.716-15 15v82.5c0 8.284 6.716 15 15 15h87c8.284 0 15-6.716 15-15h-102z" fill="#775c76" fill-opacity="1" data-original-color="#7a6d79ff" stroke="none" stroke-opacity="1"/></g><g><path d="m482 476.585h-300.357c-8.284 0-12-3.716-12-12v-193.788c0-8.284 8.716-15.001 17-15.001h29.398l15.416 3.001 16.584-3.001h167.959l15.266 3.001 16.734-3.001h34c8.284 0 15 6.717 15 15.001v188.788c0 8.284-6.716 17-15 17z" fill="#e89025" fill-opacity="1" data-original-color="#e2a975ff" stroke="none" stroke-opacity="1"/><path d="m191.643 459.585c-2.761 0-5-2.239-5-5v-198.789l-5 .001c-8.284 0-15 6.716-15 15v193.788c0 8.284 6.716 15 15 15h34.398l16.778-6 15.222 6h167.959l16.734-5 15.266 5h34c8.284 0 15-6.716 15-15v-5z" fill="#a35723" fill-opacity="1" data-original-color="#d19a6eff" stroke="none" stroke-opacity="1"/></g><g><path d="m248.041 459.585-14.683 9.177-17.317-9.177v-203.789h32z" fill="#ffdd75" fill-opacity="1" data-original-color="#ffe177ff" stroke="none" stroke-opacity="1"/><path d="m216.041 459.585h32v20h-32z" fill="#ffc615" fill-opacity="1" data-original-color="#ffd15bff" stroke="none" stroke-opacity="1"/><path d="m448 459.585-14.333 8.938-17.667-8.938v-203.789h32z" fill="#ffdd75" fill-opacity="1" data-original-color="#ffe177ff" stroke="none" stroke-opacity="1"/><path d="m416 459.585h32v19.956h-32z" fill="#ffc615" fill-opacity="1" data-original-color="#ffd15bff" stroke="none" stroke-opacity="1"/></g><g><path d="m252.041 386.807h-40c-2.761 0-2 .761-2-2v-34.231c0-2.761 11.239-5 14-5h28c2.761 0 5 2.239 5 5v22.231c0 2.761-2.239 14-5 14z" fill="#ffc615" fill-opacity="1" data-original-color="#ffd15bff" stroke="none" stroke-opacity="1"/><path d="m229.041 372.807c-2.761 0-5-2.239-5-5v-22.231h-12c-2.761 0-5 2.239-5 5v34.231c0 2.761 2.239 5 5 5h40c2.761 0 5-2.239 5-5v-12z" fill="#a87607" fill-opacity="1" data-original-color="#ffc344ff" stroke="none" stroke-opacity="1"/></g><g><path d="m452 386.781h-40c-2.761 0-2 .761-2-2v-34.231c0-2.761 11.239-5 14-5h28c2.761 0 5 2.239 5 5v22.231c0 2.762-2.239 14-5 14z" fill="#ffc615" fill-opacity="1" data-original-color="#ffd15bff" stroke="none" stroke-opacity="1"/><path d="m429 372.781c-2.761 0-5-2.239-5-5v-22.231h-12c-2.761 0-5 2.239-5 5v34.231c0 2.761 2.239 5 5 5h40c2.761 0 5-2.239 5-5v-12z" fill="#a87607" fill-opacity="1" data-original-color="#ffc344ff" stroke="none" stroke-opacity="1"/></g><path d="m329.273 440.348 18.73-27.832c3.155-4.689 10.045-4.716 13.238-.053l18.953 27.68c3.627 5.297-.149 12.494-6.569 12.52l-37.683.151c-6.419.026-10.253-7.14-6.669-12.466z" fill="#594a91" fill-opacity="1" data-original-color="#f3f0f3ff" stroke="none" stroke-opacity="1"/><circle cx="364.543" cy="307.041" fill="#ff4770" r="25" fill-opacity="1" data-original-color="#99e6fcff" stroke="none" stroke-opacity="1"/><path d="m328.924 387.268-23.349 6.256c-1.6.429-3.245-.521-3.674-2.121l-14.091-52.588c-.429-1.6.521-3.245 2.121-3.674l23.349-6.256c1.6-.429 3.245.521 3.674 2.121l14.091 52.588c.429 1.601-.521 3.246-2.121 3.674z" fill="#359873" fill-opacity="1" data-original-color="#94f283ff" stroke="none" stroke-opacity="1"/></g></g></svg>