<svg id="Layer_1" enable-background="new 0 0 512 512" height="512" viewBox="0 0 512 512" width="512" xmlns="http://www.w3.org/2000/svg"><g><g><g><path d="m189.54 370.557-153.142 45.606c-7.977 2.376-15.161-5.53-12.033-13.244l89.021-219.583c1.671-4.123 5.325-7.112 9.697-7.933l95.247-17.896z" fill="#59cc56"/></g><g><path d="m189.54 370.557 159.014 51.501-33.155-245.337-97.069-19.214z" fill="#59cc56"/></g><g><path d="m483.112 374.296-134.559 47.761-33.154-245.336 81.192-16.98c6.186-1.294 12.411 2.025 14.785 7.881l78.071 192.573c2.289 5.647-.593 12.063-6.335 14.101z" fill="#59cc56"/></g></g><g><path d="m491.969 366.417-82.631-203.821c-1.195-2.947-4.327-4.616-7.439-3.965l-86.5 18.09-97.069-19.214-98.375 18.484c-2.423.455-4.447 2.112-5.373 4.396l-94.525 233.159c-1.391 3.431 1.804 6.947 5.352 5.89l164.13-48.879 159.013 51.501 140.884-50.007c2.296-.815 3.448-3.378 2.533-5.634z" fill="#59cc56"/></g><g><path d="m189.294 391.213-158.254 47.13c-2.257.671-4.583 1.011-6.918 1.011-8.024 0-15.503-3.991-20.006-10.675-4.488-6.662-5.363-15.09-2.341-22.546l94.525-233.158c3.466-8.549 10.947-14.669 20.013-16.372l102.114-19.187 96.864 19.174 82.57-17.269c1.77-.37 3.582-.557 5.386-.557 10.759 0 20.325 6.444 24.371 16.416l82.633 203.824c2.449 6.043 2.319 12.916-.353 18.859-2.671 5.943-7.725 10.601-13.866 12.779l-147.19 52.244z" fill="#fae8b4"/></g><g><path d="m491.969 366.417-82.631-203.821c-1.195-2.947-4.327-4.616-7.439-3.965l-86.5 18.09-97.069-19.214-98.375 18.484c-2.423.455-4.447 2.112-5.373 4.396l-94.525 233.159c-1.391 3.431 1.804 6.947 5.352 5.89l164.13-48.879 159.013 51.501 140.884-50.007c2.296-.815 3.448-3.378 2.533-5.634z" fill="#59cc56"/></g><g><path d="m445.021 250.613h-118.738s-64.347-7.293-58.182 21.22 53.558 15.4 55.87 24.268c2.312 8.869-18.495 3.474-23.504 15.034-5.009 11.559 2.697 22.773 60.494 20.249 29.173-1.274 76.599-1.262 116.425-.937z" fill="#3fc2c4"/></g><g><path d="m237.026 161.207-18.696-3.701-98.375 18.484c-2.423.455-4.447 2.112-5.373 4.396l-15.632 38.558c18.323 1.198 40.289 1.739 52.773-1.859 18.977-5.469 1.957-12.34 44.17-18.128 27.776-3.807 41.33-24.384 41.133-37.75z" fill="#3fc2c4"/></g><g opacity=".2"><path d="m218.427 137.416-102.114 19.187c-9.066 1.703-16.547 7.823-20.013 16.372l-94.525 233.159c-3.022 7.456-2.147 15.884 2.341 22.546 4.503 6.684 11.982 10.675 20.006 10.675 2.335 0 4.661-.34 6.918-1.011l158.254-47.13.061.02 29.206-253.791z"/></g><g opacity=".2"><path d="m509.899 377.864c2.672-5.943 2.801-12.816.353-18.859l-82.633-203.825c-4.046-9.972-13.612-16.416-24.371-16.416-1.804 0-3.616.187-5.386.557l-82.57 17.269-.018-.004 33.546 286.294.024.008 147.19-52.244c6.14-2.18 11.194-6.837 13.865-12.78z"/></g><g><g><path d="m182.446 349.55h-6c-4.142 0-7.5-3.357-7.5-7.5s3.358-7.5 7.5-7.5h6c4.142 0 7.5 3.357 7.5 7.5s-3.358 7.5-7.5 7.5z" fill="#bf2e2e"/></g><g><path d="m308.019 349.55h-11.959c-4.143 0-7.5-3.357-7.5-7.5s3.357-7.5 7.5-7.5h11.959c4.143 0 7.5 3.357 7.5 7.5s-3.358 7.5-7.5 7.5zm-41.858 0h-11.959c-4.142 0-7.5-3.357-7.5-7.5s3.358-7.5 7.5-7.5h11.959c4.143 0 7.5 3.357 7.5 7.5s-3.357 7.5-7.5 7.5zm-41.857 0h-11.959c-4.142 0-7.5-3.357-7.5-7.5s3.358-7.5 7.5-7.5h11.959c4.142 0 7.5 3.357 7.5 7.5s-3.358 7.5-7.5 7.5zm113.609-.007c-4.079 0-7.422-3.27-7.496-7.364-.074-4.142 3.223-7.56 7.363-7.635 3.271-.059 6.471-.602 9.511-1.612 3.931-1.31 8.177.819 9.483 4.749 1.308 3.931-.818 8.177-4.749 9.483-4.482 1.491-9.185 2.291-13.974 2.378-.046.001-.092.001-.138.001zm33.283-21.388c-.945 0-1.907-.18-2.837-.561-3.833-1.567-5.67-5.947-4.102-9.781 1.091-2.668 1.645-5.465 1.645-8.313l-.004-.384c-.071-4.142 3.229-7.557 7.37-7.628.044-.001.088-.001.132-.001 4.082 0 7.426 3.273 7.496 7.371.004.214.006.428.006.642 0 4.806-.929 9.513-2.762 13.993-1.187 2.904-3.989 4.662-6.944 4.662zm-11.806-36.819c-1.487 0-2.99-.442-4.301-1.361-2.589-1.816-5.477-3.215-8.581-4.155-3.965-1.2-6.205-5.388-5.004-9.352 1.2-3.964 5.386-6.207 9.352-5.004 4.631 1.402 8.954 3.499 12.849 6.231 3.391 2.379 4.211 7.057 1.832 10.447-1.461 2.081-3.785 3.194-6.147 3.194zm-136.113-6.861c-4.142 0-7.499-3.356-7.5-7.498-.001-4.143 3.356-7.501 7.498-7.502l11.959-.003h.002c4.142 0 7.499 3.356 7.5 7.498.001 4.143-3.356 7.501-7.498 7.502l-11.959.003s-.001 0-.002 0zm41.858-.009c-4.142 0-7.499-3.356-7.5-7.498-.001-4.143 3.356-7.501 7.498-7.502l11.959-.003h.002c4.142 0 7.499 3.356 7.5 7.498.001 4.143-3.356 7.501-7.498 7.502l-11.959.003c-.001 0-.001 0-.002 0zm41.857-.009c-4.142 0-7.499-3.356-7.5-7.498-.001-4.143 3.356-7.501 7.498-7.502l11.959-.003h.002c4.142 0 7.499 3.356 7.5 7.498.001 4.143-3.356 7.501-7.498 7.502l-11.959.003c-.001 0-.002 0-.002 0zm-111.738-8.266c-1.647 0-3.306-.54-4.69-1.651-3.884-3.118-7.11-6.798-9.587-10.935-2.128-3.554-.973-8.16 2.581-10.288 3.555-2.13 8.16-.973 10.288 2.581 1.562 2.606 3.617 4.943 6.11 6.944 3.23 2.594 3.746 7.314 1.153 10.544-1.483 1.846-3.659 2.805-5.855 2.805zm-8.973-37.54c-1.129 0-2.276-.256-3.354-.796-3.703-1.856-5.201-6.362-3.345-10.065 2.169-4.329 5.14-8.24 8.828-11.627 3.05-2.802 7.795-2.6 10.597.452 2.802 3.051 2.599 7.795-.452 10.597-2.341 2.15-4.212 4.605-5.563 7.299-1.316 2.624-3.963 4.14-6.711 4.14zm88.47-19.275h-11.959c-4.143 0-7.5-3.358-7.5-7.5s3.357-7.5 7.5-7.5h11.959c4.143 0 7.5 3.358 7.5 7.5s-3.357 7.5-7.5 7.5zm-41.857 0h-11.959c-4.142 0-7.5-3.358-7.5-7.5s3.358-7.5 7.5-7.5h11.959c4.142 0 7.5 3.358 7.5 7.5s-3.358 7.5-7.5 7.5z" fill="#bf2e2e"/></g><g><path d="m310.789 219.376h-6c-4.143 0-7.5-3.358-7.5-7.5s3.357-7.5 7.5-7.5h6c4.143 0 7.5 3.358 7.5 7.5s-3.357 7.5-7.5 7.5z" fill="#bf2e2e"/></g></g><g><ellipse cx="105.257" cy="351.044" fill="#ffd042" rx="48.447" ry="15.209"/></g><g><ellipse cx="385.637" cy="210.617" fill="#ffd042" rx="48.447" ry="15.209"/></g><g><g><g><path d="m159.788 265.148c0-30.117-24.414-54.531-54.531-54.531s-54.531 24.414-54.531 54.531c0 20.802 11.65 38.878 28.779 48.073l20.813 36.05c2.195 3.802 7.682 3.802 9.877 0l20.813-36.05c17.13-9.195 28.78-27.271 28.78-48.073z" fill="#bf2e2e"/></g></g><g opacity=".2"><path d="m111.919 305.394c-17.129-9.195-28.779-27.271-28.779-48.073 0-19.702 10.451-36.96 26.109-46.543-1.32-.096-2.648-.161-3.992-.161-30.117 0-54.531 24.414-54.531 54.531 0 20.802 11.65 38.878 28.779 48.073l20.813 36.05c2.195 3.802 7.682 3.802 9.877 0l13.528-23.431z"/></g><g><g><circle cx="105.257" cy="265.148" fill="#fae8b4" r="28.112"/></g></g><g opacity=".2"><path d="m122.808 286.619c-15.526 0-28.112-12.586-28.112-28.112 0-8.603 3.869-16.299 9.957-21.456-15.246.322-27.508 12.774-27.508 28.097 0 15.526 12.586 28.112 28.112 28.112 6.923 0 13.257-2.507 18.155-6.656-.201.004-.401.015-.604.015z"/></g></g><g><g><g><path d="m440.168 123.643c0-30.117-24.414-54.531-54.531-54.531s-54.531 24.414-54.531 54.531c0 20.802 11.65 38.878 28.779 48.073l20.813 36.05c2.195 3.802 7.682 3.802 9.877 0l20.813-36.05c17.129-9.195 28.78-27.271 28.78-48.073z" fill="#bf2e2e"/></g></g><g opacity=".2"><path d="m392.299 163.889c-17.129-9.195-28.779-27.271-28.779-48.073 0-19.702 10.451-36.96 26.109-46.543-1.32-.096-2.648-.161-3.992-.161-30.117 0-54.531 24.414-54.531 54.531 0 20.802 11.65 38.878 28.779 48.073l20.813 36.05c2.195 3.802 7.682 3.802 9.877 0l13.528-23.431z"/></g><g><g><circle cx="385.637" cy="123.643" fill="#fae8b4" r="28.112"/></g></g><g opacity=".2"><path d="m403.188 145.114c-15.526 0-28.112-12.586-28.112-28.112 0-8.603 3.869-16.299 9.957-21.456-15.246.323-27.508 12.774-27.508 28.097 0 15.526 12.586 28.112 28.112 28.112 6.923 0 13.257-2.507 18.155-6.656-.202.004-.401.015-.604.015z"/></g></g><g><path d="m154.122 96.14-36.473 78.702h80.356l-36.474-78.702c-1.462-3.155-5.947-3.155-7.409 0z" fill="#783d26"/></g><g opacity=".2"><path d="m143.585 131.837c3.688-2.575 8.814-1.017 10.445 3.175l8.223 19.34c1.246 2.931 5.313 3.159 6.879.387l10.743-19.016-18.344-39.583c-1.462-3.155-5.947-3.155-7.41 0l-19.417 41.898z"/></g><g><path d="m161.531 96.14c-1.462-3.155-5.947-3.155-7.41 0l-16.834 36.325 9.902-6.914c2.714-1.895 6.487-.749 7.687 2.337l6.934 17.824c1.051 2.703 4.771 2.97 6.197.445l9.176-16.242z" fill="#fae8b4"/></g><g><path d="m415.954 351.438c-4.143 0-7.5-3.357-7.5-7.5v-35.279c0-4.143 3.357-7.5 7.5-7.5s7.5 3.357 7.5 7.5v35.279c0 4.143-3.358 7.5-7.5 7.5z" fill="#783d26"/></g><g><path d="m440.953 296.655c0 10.642-11.193 19.27-24.999 19.27s-24.999-8.627-24.999-19.27c0-10.642 11.193-52.091 24.999-52.091s24.999 41.448 24.999 52.091z" fill="#e87941"/></g><g opacity=".2"><path d="m440.953 296.655c0-6.094-3.674-22.281-9.403-35.011-6.659 12.606-11.498 30.139-13.1 40.656-7.61-3.304-12.753-9.586-12.753-16.797 0-7.04 4.899-27.551 12.211-40.637-.646-.181-1.296-.303-1.955-.303-13.807 0-24.999 41.449-24.999 52.091s11.193 19.27 24.999 19.27c11.058 0 25-6.7 25-19.269z"/></g><g><path d="m457.214 365.415c-4.143 0-7.5-3.357-7.5-7.5v-41.914c0-4.143 3.357-7.5 7.5-7.5s7.5 3.357 7.5 7.5v41.914c0 4.142-3.357 7.5-7.5 7.5z" fill="#783d26"/></g><g><path d="m486.915 304.246c0 12.644-13.297 22.893-29.7 22.893s-29.701-10.25-29.701-22.893c0-12.644 13.297-61.887 29.701-61.887 16.403 0 29.7 49.244 29.7 61.887z" fill="#ffd042"/></g><g opacity=".2"><path d="m198.005 174.842-3.425-7.391c-4.909.086-9.255 2.441-12.054 6.06-2.05-1.247-4.448-1.978-7.023-1.978-1.584 0-3.098.286-4.512.786-3.034-7.722-10.538-13.197-19.336-13.197-7.936 0-14.829 4.45-18.331 10.989-2.432-.963-5.168-1.324-8.044-.813-2.391.424-4.585 1.487-6.445 2.984l-1.187 2.56z"/></g><g opacity=".2"><path d="m473.942 310.412c-16.403 0-29.7-10.25-29.7-22.893 0-7.821 5.089-29.642 12.852-45.154-16.348.24-29.58 49.269-29.58 61.881 0 12.643 13.297 22.893 29.7 22.893 14.615 0 26.755-8.139 29.23-18.855-3.8 1.362-8.034 2.128-12.502 2.128z"/></g><g><path d="m204.925 180.064c-.033-.101-.068-.202-.103-.304-2.041-5.8-7.292-10.061-13.42-10.564-5.553-.455-10.544 2.012-13.642 6.017-2.05-1.247-4.448-1.978-7.022-1.978-1.584 0-3.098.286-4.512.786-3.034-7.722-10.538-13.197-19.336-13.197-7.936 0-14.829 4.45-18.331 10.989-2.432-.963-5.168-1.324-8.044-.813-4.494.797-8.332 3.802-10.455 7.842-.048.092-.096.184-.142.276-2.248 4.476 1.198 9.742 6.207 9.742h82.235c4.578 0 7.998-4.448 6.565-8.796z" fill="#59cc56"/></g><g opacity=".2"><path d="m127.882 182.349c-5.009 0-8.455-5.265-6.207-9.742.046-.092.094-.184.142-.276.283-.539.601-1.056.943-1.555-.737.018-1.486.089-2.246.223-4.494.797-8.332 3.802-10.455 7.842-.048.092-.096.184-.142.276-2.248 4.476 1.198 9.742 6.207 9.742h82.235c3.771 0 6.748-3.017 6.884-6.511h-77.361z"/></g></g></svg>