<svg id="Layer_1" enable-background="new 0 0 512 512" height="512" viewBox="0 0 512 512" width="512" xmlns="http://www.w3.org/2000/svg"><g><g><path d="m358.435 446.513-178.914-65.119c-7.665-2.79-11.617-11.265-8.827-18.929l128.388-352.743c2.79-7.665 11.265-11.617 18.93-8.827l178.914 65.119c7.665 2.79 11.617 11.265 8.827 18.929l-128.388 352.743c-2.79 7.665-11.265 11.617-18.93 8.827z" fill="#fae8b4"/></g><g><path d="m208.165 372.634c-7.665-2.79-11.617-11.265-8.827-18.93l127.273-349.679-8.599-3.13c-7.665-2.79-16.14 1.162-18.93 8.827l-128.387 352.742c-2.79 7.665 1.162 16.14 8.827 18.93l178.914 65.119c7.665 2.79 16.14-1.162 18.93-8.827l1.115-3.062z" fill="#e87941"/></g><g><path d="m436.685 182.879c-.018-.253-.108-.496-.261-.698l-9.011-11.931 3.88-10.659c1.13-3.104-.471-6.536-3.575-7.666s-6.536.471-7.666 3.575l-1.229 3.377-8.129-10.762 4.704-12.925c1.13-3.104-.471-6.536-3.575-7.666s-6.536.471-7.666 3.575l-2.054 5.643-10.803-14.305c.766-1.948 1.43-3.692 1.976-5.19 5.631-15.472 2.749-26.712.08-32.638-1.362-3.025-4.969-4.338-7.957-2.896-5.854 2.824-15.287 9.582-20.918 25.053-.545 1.498-1.157 3.26-1.823 5.246l-17.471 4.013 2.054-5.643c1.13-3.104-.471-6.536-3.575-7.666s-6.536.471-7.666 3.575l-4.704 12.925-13.145 3.019 1.229-3.377c1.13-3.104-.471-6.536-3.575-7.666s-6.536.471-7.666 3.575l-3.88 10.659-14.572 3.347c-.247.057-.473.184-.649.367l-11.255 11.676c-.786.815-.236 2.175.895 2.216l73.786 2.637c-3.852 13.706-7.725 28.591-10.62 41.59l-32.755 3.106c-.651.062-1.252.375-1.675.873l-7.297 8.589c-1.289 1.517-.382 3.859 1.592 4.113l36.115 4.639c-1.09 8.026-1.026 13.319.813 13.988s5.29-3.344 9.614-10.193l30.647 19.66c1.676 1.075 3.876-.136 3.864-2.127l-.069-11.27c-.004-.654-.263-1.28-.722-1.746l-23.095-23.434c6.138-11.819 12.738-25.711 18.598-38.686l58.218 45.408c.893.696 2.188.007 2.11-1.122z" fill="#e87941"/></g><g><path d="m313.166 483.317h-298.361c-5.22 0-9.452-4.232-9.452-9.452v-386.732c0-5.22 4.232-9.452 9.452-9.452h298.362c13.839 0 25.057 11.219 25.057 25.057v355.521c0 13.839-11.219 25.058-25.058 25.058z" fill="#783d26"/></g><g opacity=".2"><circle cx="165.092" cy="274.367" r="101.834"/></g><circle cx="171.788" cy="260.111" fill="#fae8b4" r="96.901"/><g opacity=".2"><path d="m213.784 318.605c-53.517 0-96.901-43.384-96.901-96.901 0-17.95 4.886-34.756 13.393-49.171-32.746 15.549-55.389 48.918-55.389 87.578 0 53.517 43.384 96.901 96.901 96.901 35.567 0 66.653-19.166 83.508-47.73-12.583 5.975-26.656 9.323-41.512 9.323z"/></g><path d="m171.788 364.512c-57.567 0-104.401-46.834-104.401-104.4 0-57.567 46.834-104.401 104.401-104.401s104.401 46.834 104.401 104.401c0 57.566-46.834 104.4-104.401 104.4zm0-193.802c-49.296 0-89.401 40.105-89.401 89.401s40.105 89.4 89.401 89.4 89.401-40.104 89.401-89.4-40.105-89.401-89.401-89.401z" fill="#e87941"/><g><g><path d="m171.788 242.63c-33.01 0-63.329-10.512-83.185-28.841-3.043-2.81-3.233-7.554-.423-10.598 2.81-3.042 7.555-3.233 10.598-.423 16.865 15.568 44.158 24.863 73.01 24.863 28.71 0 55.924-9.222 72.799-24.669 3.054-2.797 7.799-2.588 10.596.468 2.797 3.055 2.587 7.799-.468 10.596-19.859 18.178-50.084 28.604-82.927 28.604z" fill="#e87941"/></g><g><path d="m250.09 319.636c-1.829 0-3.662-.665-5.106-2.009-16.854-15.676-44.216-25.035-73.195-25.035-28.374 0-55.402 9.053-72.299 24.217-3.082 2.766-7.824 2.511-10.591-.573-2.767-3.082-2.51-7.824.573-10.591 19.866-17.828 49.87-28.053 82.317-28.053 33.16 0 63.562 10.589 83.411 29.053 3.033 2.82 3.205 7.566.384 10.6-1.479 1.587-3.484 2.391-5.494 2.391z" fill="#e87941"/></g></g><g><path d="m171.788 364.512c-14.745 0-28.094-11.652-37.588-32.812-8.636-19.246-13.393-44.671-13.393-71.589 0-26.919 4.756-52.343 13.393-71.59 9.494-21.159 22.843-32.811 37.588-32.811s28.094 11.652 37.588 32.811c8.636 19.247 13.393 44.671 13.393 71.59 0 26.918-4.756 52.343-13.393 71.589-9.494 21.159-22.843 32.812-37.588 32.812zm0-193.802c-17.018 0-35.98 36.716-35.98 89.401s18.962 89.4 35.98 89.4 35.98-36.716 35.98-89.4c.001-52.685-18.962-89.401-35.98-89.401z" fill="#e87941"/></g><g><g><path d="m212.103 127.471h-80.63c-4.142 0-7.5-3.358-7.5-7.5s3.358-7.5 7.5-7.5h80.63c4.142 0 7.5 3.358 7.5 7.5s-3.358 7.5-7.5 7.5z" fill="#e87941"/></g></g><g><g><path d="m97.33 127.471h-28.832c-4.142 0-7.5-3.358-7.5-7.5s3.358-7.5 7.5-7.5h28.832c4.142 0 7.5 3.358 7.5 7.5s-3.358 7.5-7.5 7.5z" fill="#e87941"/></g><g><path d="m275.079 127.471h-28.833c-4.142 0-7.5-3.358-7.5-7.5s3.358-7.5 7.5-7.5h28.833c4.143 0 7.5 3.358 7.5 7.5s-3.357 7.5-7.5 7.5z" fill="#e87941"/></g></g><g><g><path d="m94.487 393.104h-20.162c-2.209 0-4 1.791-4 4v53.256c0 2.209 1.791 4 4 4h6.695c2.209 0 4-1.791 4-4v-18.824h9.466c12.229 0 19.825-7.363 19.825-19.216s-7.596-19.216-19.824-19.216zm-9.466 14.391h9.314c3.826 0 5.054 1.173 5.054 4.825s-1.228 4.825-5.054 4.825h-9.314z" fill="#e87941"/></g><g><path d="m147.557 395.764c-.567-1.594-2.076-2.659-3.769-2.659h-6.391c-1.692 0-3.202 1.065-3.769 2.659l-18.944 53.256c-.436 1.225-.249 2.585.5 3.647.75 1.062 1.968 1.693 3.268 1.693h6.923c1.717 0 3.242-1.096 3.791-2.723l3.876-11.504h15.099l3.876 11.504c.548 1.627 2.074 2.723 3.791 2.723h6.923c1.3 0 2.519-.632 3.268-1.693.75-1.063.936-2.423.5-3.647zm-9.58 29.978 2.617-7.632 2.617 7.632z" fill="#e87941"/></g><g><path d="m209.295 419.757c-3.307-1.788-5.857-2.506-9.633-3.469-4.889-1.286-7.295-2.353-8.395-2.986-.331-.198-.948-.568-.948-2.199 0-2.798 1.879-4.216 5.586-4.216 2.171 0 4.945.638 7.146 5.607.444 1.004 1.281 1.78 2.314 2.148 1.031.368 2.172.297 3.151-.199l5.858-2.968c1.821-.923 2.655-3.067 1.936-4.978-3.301-8.769-10.929-14.003-20.405-14.003-6.152 0-11.11 1.789-14.696 5.281-3.706 3.511-5.585 8.071-5.585 13.555 0 .063.001.127.004.19.356 7.473 3.192 12.337 8.978 15.332 3.408 1.704 5.592 2.334 9.47 3.283 3.648.858 4.825 1.251 6.977 2.153.048.021.096.039.144.058.935.35 1.178.543 1.162.527.172.173.73.827.73 2.041 0 1.549 0 5.662-6.956 5.662-3.465 0-7.705-1.009-9.747-8.873-.287-1.106-1.034-2.037-2.052-2.557-1.018-.521-2.208-.579-3.274-.165l-6.239 2.435c-1.808.706-2.849 2.607-2.468 4.511 2.385 11.923 11.274 19.04 23.779 19.04 13.354 0 21.65-8.033 21.65-20.966 0-.055-.001-.109-.003-.164-.278-6.801-3.001-11.29-8.484-14.08z" fill="#e87941"/></g><g><path d="m272.561 433.839c-.279-6.803-3.003-11.292-8.485-14.082-3.307-1.788-5.856-2.506-9.634-3.469-4.889-1.286-7.295-2.353-8.395-2.986-.331-.198-.948-.568-.948-2.199 0-2.798 1.879-4.216 5.586-4.216 2.171 0 4.945.638 7.146 5.607.444 1.004 1.28 1.78 2.313 2.148s2.173.297 3.151-.199l5.858-2.968c1.82-.923 2.655-3.067 1.936-4.978-3.301-8.769-10.929-14.003-20.405-14.003-6.152 0-11.11 1.789-14.696 5.281-3.706 3.511-5.585 8.071-5.585 13.555 0 .063.001.127.004.19.356 7.473 3.192 12.337 8.978 15.332 3.408 1.704 5.592 2.334 9.47 3.283 3.648.858 4.825 1.251 6.977 2.153.048.021.096.039.145.058.874.327 1.156.53 1.163.53.001 0 0-.001-.001-.002.173.172.73.826.73 2.04 0 1.549 0 5.662-6.956 5.662-3.465 0-7.705-1.009-9.747-8.873-.287-1.106-1.034-2.037-2.052-2.557-1.017-.521-2.209-.579-3.274-.165l-6.239 2.435c-1.808.706-2.849 2.607-2.468 4.511 2.385 11.923 11.274 19.04 23.779 19.04 13.354 0 21.65-8.033 21.65-20.966.001-.053.001-.107-.001-.162z" fill="#e87941"/></g></g><path d="m338.224 262.792c-8.314-2.691-17.384-3.455-26.589-1.832-30.081 5.304-50.167 33.99-44.863 64.071 3.175 18.004 14.729 32.42 29.941 39.963l13.662 52.434c-8.663 2.725-14.23 11.562-12.613 20.734l-28.651 5.052c-6.187 1.091-10.318 6.991-9.227 13.178l1.153 6.537h-219.358c-5.22 0-9.452-4.232-9.452-9.452v-375.796h-17.422c-5.22 0-9.452 4.232-9.452 9.452v386.732c0 5.22 4.232 9.452 9.452 9.452h249.826 48.535c13.455.071 25.178-11.534 25.057-25.057v-195.468z" opacity=".2"/><g><path d="m392.978 414.815-53.777 9.482-24.47-93.911 69.122-12.188z" fill="#3fc2c4"/></g><g opacity=".2"><g><path d="m314.731 330.386 24.47 93.911 25.897-4.566-24.47-93.912z"/></g></g><g><path d="m395.698 437.566-51.271 9.04c-9.967 1.757-19.56-4.96-21.318-14.927-1.758-9.967 4.96-19.56 14.927-21.318l51.271-9.04c9.967-1.758 19.56 4.96 21.318 14.927 1.757 9.968-4.96 19.561-14.927 21.318z" fill="#3fc2c4"/></g><g opacity=".2"><g><path d="m349.091 427.099c-1.758-9.967 4.96-19.56 14.927-21.318l-25.982 4.581c-9.967 1.757-16.684 11.35-14.927 21.318 1.758 9.967 11.35 16.684 21.318 14.927l25.982-4.581c-9.968 1.757-19.561-4.96-21.318-14.927z"/></g></g><g><path d="m444.598 489.247-128.446 22.649c-3.709.654-7.246-1.823-7.901-5.532l-3.401-19.29c-.654-3.709 1.823-7.246 5.532-7.901l128.446-22.649c3.709-.654 7.246 1.823 7.901 5.532l3.401 19.29c.654 3.709-1.823 7.247-5.532 7.901z" fill="#e87941"/></g><g opacity=".2"><g><path d="m329.419 498.675c-3.709.654-7.246-1.823-7.901-5.532l-2.725-15.453-8.412 1.483c-3.709.654-6.186 4.191-5.532 7.901l3.401 19.29c.654 3.709 4.191 6.186 7.901 5.532l128.446-22.648c3.709-.654 6.186-4.191 5.532-7.901l-.677-3.837z"/></g></g><g><path d="m449.41 468.667-144.818 25.535c-6.187 1.091-12.087-3.04-13.178-9.227l-6.183-35.065c-1.091-6.187 3.04-12.087 9.227-13.178l144.818-25.535c6.187-1.091 12.087 3.04 13.178 9.227l6.183 35.065c1.091 6.187-3.04 12.087-9.227 13.178z" fill="#ffd042"/></g><g opacity=".2"><g><path d="m332.288 469.225c-6.187 1.091-12.087-3.04-13.178-9.227l-4.722-26.781-19.93 3.514c-6.187 1.091-10.318 6.991-9.227 13.178l6.183 35.065c1.091 6.187 6.991 10.318 13.178 9.227l144.818-25.535c6.187-1.091 10.318-6.991 9.227-13.178l-1.461-8.285z"/></g></g><g><g><circle cx="346.586" cy="308.945" fill="#3fc2c4" r="55.307"/></g></g><g opacity=".2"><g><path d="m383.054 347.836c-30.081 5.304-58.767-14.782-64.071-44.863-3.168-17.969 2.728-35.435 14.397-47.722-28.06 6.873-46.35 34.437-41.261 63.298 5.304 30.081 33.99 50.167 64.071 44.863 12.113-2.136 22.6-8.067 30.466-16.349-1.186.291-2.382.558-3.602.773z"/></g></g></g></svg>