<svg height="300" viewBox="0 -34 512 512" width="300" xmlns="http://www.w3.org/2000/svg" version="1.1" xmlns:xlink="http://www.w3.org/1999/xlink" xmlns:svgjs="http://svgjs.dev/svgjs"><g width="100%" height="100%" transform="matrix(1,0,0,1,0,0)"><path d="m489.4375 213.804688c-4.277344 0-7.742188-3.464844-7.742188-7.742188v-8.410156c0-7.046875-5.734374-12.78125-12.78125-12.78125h-20.816406c-4.273437 0-7.742187-3.464844-7.742187-7.738282 0-4.277343 3.46875-7.742187 7.742187-7.742187h20.816406c15.585938 0 28.265626 12.675781 28.265626 28.261719v8.410156c0 4.277344-3.46875 7.742188-7.742188 7.742188zm0 0" fill="#717174" fill-opacity="1" data-original-color="#a1a1a7ff" stroke="none" stroke-opacity="1"/><path d="m133.304688 213.851562c-4.273438 0-7.742188-3.464843-7.742188-7.742187v-8.410156c0-15.582031 12.679688-28.261719 28.261719-28.261719h20.257812c4.273438 0 7.742188 3.464844 7.742188 7.742188 0 4.277343-3.46875 7.742187-7.742188 7.742187h-20.257812c-7.042969 0-12.777344 5.730469-12.777344 12.777344v8.410156c0 4.277344-3.464844 7.742187-7.742187 7.742187zm0 0" fill="#717174" fill-opacity="1" data-original-color="#a1a1a7ff" stroke="none" stroke-opacity="1"/><path d="m241.441406 443.515625h-38.851562c-5.910156 0-10.703125-4.792969-10.703125-10.703125v-42.957031h60.257812v42.957031c0 5.910156-4.792969 10.703125-10.703125 10.703125zm0 0" fill="#9797a1" fill-opacity="1" data-original-color="#babac0ff" stroke="none" stroke-opacity="1"/><path d="m421.234375 443.515625h-38.851563c-5.910156 0-10.699218-4.792969-10.699218-10.703125v-42.957031h60.253906v42.957031c0 5.910156-4.792969 10.703125-10.703125 10.703125zm0 0" fill="#9797a1" fill-opacity="1" data-original-color="#babac0ff" stroke="none" stroke-opacity="1"/><path d="m252.144531 389.855469v42.953125c0 5.917968-4.789062 10.707031-10.707031 10.707031h-17.523438c5.90625 0 10.695313-4.789063 10.695313-10.707031v-42.953125zm0 0" fill="#717174" fill-opacity="1" data-original-color="#a1a1a7ff" stroke="none" stroke-opacity="1"/><path d="m431.933594 389.855469v42.953125c0 5.917968-4.789063 10.707031-10.695313 10.707031h-17.535156c5.90625 0 10.707031-4.789063 10.707031-10.707031v-42.953125zm0 0" fill="#717174" fill-opacity="1" data-original-color="#a1a1a7ff" stroke="none" stroke-opacity="1"/><path d="m446.78125 86.890625c-1.242188-13.609375-12.65625-24.015625-26.316406-24.015625h-217.105469c-13.660156 0-25.074219 10.40625-26.320313 24.015625-5.109374 55.878906-16.640624 196.386719-12.152343 282.386719v5.375c0 14.597656 11.832031 26.429687 26.429687 26.429687h241.191406c14.597657 0 26.429688-11.832031 26.429688-26.429687v-5.375c4.488281-86-7.042969-226.507813-12.15625-282.386719zm0 0" fill="#ffd746" fill-opacity="1" data-original-color="#0573cfff" stroke="none" stroke-opacity="1"/><path d="m458.941406 369.273438v5.378906c0 14.597656-11.832031 26.429687-26.4375 26.429687h-22.738281c14.597656 0 26.429687-11.832031 26.429687-26.429687v-5.378906c4.488282-86-7.042968-226.503907-12.152343-282.382813-1.242188-13.605469-12.652344-24.019531-26.316407-24.019531h22.738282c13.664062 0 25.070312 10.417968 26.3125 24.019531 5.109375 55.878906 16.65625 196.382813 12.164062 282.382813zm0 0" fill="#df9f1b" fill-opacity="1" data-original-color="#005aafff" stroke="none" stroke-opacity="1"/><path d="m163.898438 312.964844c.40625-58.054688 4.6875-122.03125 8.632812-172.730469h278.769531c3.867188 49.707031 8.054688 115.464844 8.601563 172.730469zm0 0" fill="#d4f8ff" fill-opacity="1" data-original-color="#c9f0ffff" stroke="none" stroke-opacity="1"/><path d="m459.90625 312.960938h-22.757812c-.539063-57.253907-4.726563-123.011719-8.597657-172.726563h22.75c.664063 0 1.15625 15.382813 1.261719 16.726563.039062.660156.089844 1.3125.144531 1.976562 1.402344 17.953125 2.429688 35.882812 3.515625 53.695312.515625 8.429688.925782 16.832032 1.34375 25.292969.96875 19.601563 1.648438 39.390625 2.089844 58.960938.0625 2.75.117188 5.492187.148438 8.210937.046874 2.640625.078124 5.257813.101562 7.863282zm0 0" fill="#fde79a" fill-opacity="1" data-original-color="#9ae7fdff" stroke="none" stroke-opacity="1"/><path d="m388.253906 86.199219h-152.679687c-4 0-7.242188-3.242188-7.242188-7.242188v-35.621093c0-4 3.242188-7.242188 7.242188-7.242188h152.679687c3.996094 0 7.238282 3.242188 7.238282 7.242188v35.625c0 3.996093-3.242188 7.238281-7.238282 7.238281zm0 0" fill="#ff4d5b" fill-opacity="1" data-original-color="#ffcd6bff" stroke="none" stroke-opacity="1"/><path d="m395.492188 43.332031v35.625c0 4.003907-3.238282 7.238281-7.242188 7.238281h-23.8125c4.003906 0 7.242188-3.234374 7.242188-7.238281v-35.625c0-3.992187-3.238282-7.242187-7.242188-7.242187h23.8125c4.003906 0 7.242188 3.25 7.242188 7.242187zm0 0" fill="#da1742" fill-opacity="1" data-original-color="#ffc143ff" stroke="none" stroke-opacity="1"/><path d="m362.058594 372.90625h-100.292969c-4.3125 0-7.808594-3.496094-7.808594-7.808594v-15.175781c0-4.3125 3.496094-7.808594 7.808594-7.808594h100.292969c4.3125 0 7.808594 3.496094 7.808594 7.808594v15.175781c0 4.3125-3.496094 7.808594-7.808594 7.808594zm0 0" fill="#e1e3e9" fill-opacity="1" data-original-color="#ececf1ff" stroke="none" stroke-opacity="1"/><path d="m369.867188 349.921875v15.175781c0 4.3125-3.496094 7.808594-7.808594 7.808594h-15.929688c4.3125 0 7.808594-3.496094 7.808594-7.808594v-15.175781c0-4.3125-3.496094-7.8125-7.808594-7.8125h15.929688c4.3125 0 7.808594 3.496094 7.808594 7.8125zm0 0" fill="#bcbcc8" fill-opacity="1" data-original-color="#d3d3d8ff" stroke="none" stroke-opacity="1"/><path d="m228.128906 357.511719c0 10.160156-8.238281 18.402343-18.402344 18.402343-10.164062 0-18.40625-8.242187-18.40625-18.402343 0-10.164063 8.242188-18.40625 18.40625-18.40625 10.164063 0 18.402344 8.242187 18.402344 18.40625zm0 0" fill="#ff4d5b" fill-opacity="1" data-original-color="#ffcd6bff" stroke="none" stroke-opacity="1"/><path d="m432.503906 357.511719c0 10.160156-8.238281 18.402343-18.402344 18.402343-10.164062 0-18.40625-8.242187-18.40625-18.402343 0-10.164063 8.242188-18.40625 18.40625-18.40625 10.164063 0 18.402344 8.242187 18.402344 18.40625zm0 0" fill="#ff4d5b" fill-opacity="1" data-original-color="#ffcd6bff" stroke="none" stroke-opacity="1"/><path d="m228.121094 357.515625c0 10.15625-8.230469 18.398437-18.398438 18.398437-5.503906 0-10.449218-2.417968-13.832031-6.257812.464844.03125.941406.054688 1.417969.054688 10.167968 0 18.402344-8.246094 18.402344-18.402344 0-4.664063-1.730469-8.90625-4.574219-12.144532 9.507812.722657 16.984375 8.65625 16.984375 18.351563zm0 0" fill="#da1742" fill-opacity="1" data-original-color="#ffc143ff" stroke="none" stroke-opacity="1"/><path d="m432.503906 357.515625c0 10.15625-8.246094 18.398437-18.402344 18.398437-5.515624 0-10.457031-2.417968-13.832031-6.257812.464844.03125.941407.054688 1.417969.054688 10.160156 0 18.402344-8.246094 18.402344-18.402344 0-4.664063-1.726563-8.90625-4.570313-12.144532 9.496094.722657 16.984375 8.65625 16.984375 18.351563zm0 0" fill="#da1742" fill-opacity="1" data-original-color="#ffc143ff" stroke="none" stroke-opacity="1"/><path d="m135.957031 267.394531h-20.011719c-2.855468 0-5.171874-2.316406-5.171874-5.171875v-50.867187c0-8.167969 6.621093-14.792969 14.792968-14.792969h15.5625v65.660156c0 2.855469-2.316406 5.171875-5.171875 5.171875zm0 0" fill="#9797a1" fill-opacity="1" data-original-color="#babac0ff" stroke="none" stroke-opacity="1"/><path d="m135.957031 267.394531h-20.011719c-2.855468 0-5.171874-2.316406-5.171874-5.171875v-50.867187c0-8.167969 6.621093-14.792969 14.792968-14.792969h15.5625v65.660156c0 2.855469-2.316406 5.171875-5.171875 5.171875zm0 0" fill="#9797a1" fill-opacity="1" data-original-color="#babac0ff" stroke="none" stroke-opacity="1"/><path d="m141.128906 196.558594v65.664062c0 2.855469-2.316406 5.171875-5.171875 5.171875h-15.175781c2.855469 0 5.171875-2.316406 5.171875-5.171875v-65.664062zm0 0" fill="#717174" fill-opacity="1" data-original-color="#a1a1a7ff" stroke="none" stroke-opacity="1"/><path d="m486.8125 267.394531h20.011719c2.855469 0 5.171875-2.316406 5.171875-5.171875v-50.867187c0-8.167969-6.625-14.792969-14.792969-14.792969h-15.5625v65.660156c0 2.855469 2.3125 5.171875 5.171875 5.171875zm0 0" fill="#9797a1" fill-opacity="1" data-original-color="#babac0ff" stroke="none" stroke-opacity="1"/><path d="m512 211.351562v50.871094c0 2.855469-2.316406 5.171875-5.171875 5.171875h-10.011719v-56.042969c0-8.160156-6.621094-14.792968-14.792968-14.792968h15.183593c8.171875 0 14.792969 6.621094 14.792969 14.792968zm0 0" fill="#717174" fill-opacity="1" data-original-color="#a1a1a7ff" stroke="none" stroke-opacity="1"/><path d="m53.347656 121.394531h31.667969v300.980469h-31.667969zm0 0" fill="#e1e3e9" fill-opacity="1" data-original-color="#ececf1ff" stroke="none" stroke-opacity="1"/><path d="m69.183594 121.394531h15.832031v300.980469h-15.832031zm0 0" fill="#bcbcc8" fill-opacity="1" data-original-color="#d3d3d8ff" stroke="none" stroke-opacity="1"/><path d="m97.902344 444.050781h-57.441406c-3.421876 0-6.191407-2.773437-6.191407-6.191406v-25.167969c0-3.421875 2.769531-6.195312 6.191407-6.195312h57.441406c3.417968 0 6.191406 2.773437 6.191406 6.195312v25.167969c0 3.417969-2.773438 6.191406-6.191406 6.191406zm0 0" fill="#9797a1" fill-opacity="1" data-original-color="#babac0ff" stroke="none" stroke-opacity="1"/><path d="m104.09375 412.6875v25.164062c0 3.429688-2.777344 6.195313-6.191406 6.195313h-18.386719c3.425781 0 6.195313-2.765625 6.195313-6.195313v-25.164062c0-3.417969-2.769532-6.195312-6.195313-6.195312h18.386719c3.414062 0 6.191406 2.777343 6.191406 6.195312zm0 0" fill="#717174" fill-opacity="1" data-original-color="#a1a1a7ff" stroke="none" stroke-opacity="1"/><path d="m138.363281 69.183594c0 38.207031-30.972656 69.179687-69.179687 69.179687-38.210938 0-69.183594-30.972656-69.183594-69.179687 0-38.210938 30.972656-69.183594 69.183594-69.183594 38.207031 0 69.179687 30.972656 69.179687 69.183594zm0 0" fill="#ff4d5b" fill-opacity="1" data-original-color="#ffcd6bff" stroke="none" stroke-opacity="1"/><path d="m138.367188 69.183594c0 38.207031-30.980469 69.183594-69.183594 69.183594-3.035156 0-6.019532-.195313-8.949219-.578126 33.96875-4.386718 60.234375-33.433593 60.234375-68.605468 0-35.167969-26.261719-64.21875-60.234375-68.605469 2.929687-.382813 5.914063-.578125 8.949219-.578125 38.203125 0 69.183594 30.980469 69.183594 69.183594zm0 0" fill="#da1742" fill-opacity="1" data-original-color="#ffc143ff" stroke="none" stroke-opacity="1"/><g fill="#64dcfc"><path d="m389.617188 193.324219 4.097656-5.84375c2.457031-3.503907 1.605468-8.332031-1.894532-10.785157-3.5-2.457031-8.328124-1.609374-10.785156 1.890626l-4.097656 5.847656c-2.453125 3.5-1.605469 8.328125 1.894531 10.785156 1.351563.945312 2.902344 1.402344 4.4375 1.402344 2.441407 0 4.839844-1.148438 6.347657-3.296875zm0 0" fill="#64dbfc" fill-opacity="1" data-original-color="#64dcfcff" stroke="none" stroke-opacity="1"/><path d="m415.40625 179.617188c-3.5-2.457032-8.332031-1.605469-10.785156 1.894531l-17.65625 25.175781c-2.453125 3.5-1.605469 8.332031 1.894531 10.785156 1.351563.949219 2.902344 1.40625 4.4375 1.40625 2.4375 0 4.839844-1.152344 6.347656-3.300781l17.65625-25.175781c2.453125-3.5 1.605469-8.332032-1.894531-10.785156zm0 0" fill="#64dbfc" fill-opacity="1" data-original-color="#64dcfcff" stroke="none" stroke-opacity="1"/></g></g></svg>