<svg id="Capa_1" enable-background="new 0 0 512 512" height="300" viewBox="0 0 512 512" width="300" xmlns="http://www.w3.org/2000/svg" version="1.1" xmlns:xlink="http://www.w3.org/1999/xlink" xmlns:svgjs="http://svgjs.dev/svgjs"><g width="100%" height="100%" transform="matrix(1,0,0,1,0,0)"><g><path d="m204.31 324.954c-1.026-3.83 1.246-7.767 5.076-8.793l2.535-6.521-5.626-5.016c-3.83 1.026-7.766-1.247-8.793-5.077l-5.385-20.095c-1.026-3.83 1.246-7.767 5.076-8.793l2.805-5.513-5.896-6.024c-3.83 1.026-7.766-1.247-8.793-5.077l-5.385-20.095c-1.026-3.83 1.246-7.767 5.076-8.793l2.369-7.141-5.46-4.395c-3.83 1.026-7.766-1.247-8.793-5.077l-5.384-20.094c-1.026-3.83 1.246-7.767 5.076-8.793l2.374-7.123-5.465-4.414c-3.83 1.026-7.767-1.247-8.793-5.077l-4.751-17.729c-.35-1.307-1.693-2.082-3-1.732l-150.341 40.283c-2.038.546-3.247 2.641-2.701 4.678l16.215 60.515c.505 1.887 2.358 3.083 4.285 2.765 17.315-2.86 34.308 7.837 38.946 25.143 4.637 17.307-4.73 35.067-21.156 41.248-1.828.688-2.834 2.65-2.329 4.537l16.215 60.515c.546 2.038 2.641 3.247 4.678 2.701l150.343-40.284c1.307-.35 2.082-1.693 1.732-3z" fill="#359655" fill-opacity="1" data-original-color="#69af81ff" stroke="none" stroke-opacity="1" style=""/><path d="m473.579 130.456c1.828-.688 2.834-2.65 2.329-4.537l-16.215-60.515c-.546-2.038-2.641-3.247-4.678-2.701l-283.237 75.893c-1.307.35-2.082 1.693-1.732 3l4.751 17.729c1.026 3.83-1.247 7.767-5.077 8.793l3.091 11.537c3.83-1.026 7.767 1.247 8.793 5.077l5.384 20.094c1.026 3.83-1.247 7.767-5.077 8.793l3.091 11.537c3.83-1.026 7.767 1.247 8.793 5.077l5.385 20.095c1.026 3.83-1.247 7.767-5.077 8.793l3.091 11.537c3.83-1.026 7.767 1.247 8.793 5.077l5.385 20.095c1.026 3.83-1.247 7.767-5.077 8.793l3.091 11.537c3.83-1.026 7.767 1.247 8.793 5.077l4.75 17.729c.35 1.307 1.693 2.082 3 1.732l283.237-75.893c2.038-.546 3.247-2.641 2.701-4.678l-16.215-60.515c-.505-1.887-2.358-3.083-4.285-2.765-17.315 2.86-34.308-7.837-38.946-25.143s4.733-35.068 21.158-41.248z" fill="#f7e03d" fill-opacity="1" data-original-color="#f6e781ff" stroke="none" stroke-opacity="1" style=""/><path d="m381.421 248.313-58.716 15.733c-3.831 1.026-7.767-1.246-8.793-5.077s1.246-7.767 5.077-8.793l58.716-15.733c3.831-1.026 7.767 1.246 8.793 5.077s-1.247 7.767-5.077 8.793z" fill="#c45f2d" fill-opacity="1" data-original-color="#e4936bff" stroke="none" stroke-opacity="1" style=""/><path d="m204.739 326.556-156.399 41.906 3.967 14.804c.546 2.038 2.641 3.247 4.678 2.701l150.343-40.284c1.307-.35 2.082-1.693 1.732-3z" fill="#359655" fill-opacity="1" data-original-color="#69af81ff" stroke="none" stroke-opacity="1" style=""/><path d="m369.521 134.584c-.948-3.536-4.582-5.635-8.119-4.687l-80.57 21.589c-3.536.948-5.635 4.582-4.687 8.119l10.565 39.43 34.301 2.572 59.074-27.592z" fill="#d1e4ff" fill-opacity="1" data-original-color="#cbe2ffff" stroke="none" stroke-opacity="1" style=""/><path d="m320.385 273.279-23.41 6.273c-1.114.298-2.115-.756-1.76-1.853l10.638-32.839 16.869-18.229 9.889 11.06-11.219 34.632c-.152.469-.531.829-1.007.956z" fill="#605365" fill-opacity="1" data-original-color="#c6c1c8ff" stroke="none" stroke-opacity="1" style=""/><path d="m388.046 255.149 23.41-6.273c1.114-.298 1.454-1.712.598-2.484l-25.632-23.12-19.501-2.852-7.257 10.022 27.032 24.383c.366.33.874.452 1.35.324z" fill="#605365" fill-opacity="1" data-original-color="#c6c1c8ff" stroke="none" stroke-opacity="1" style=""/><path d="m134.079 200.728-65.455 17.539c-3.831 1.026-7.767-1.246-8.793-5.077s1.246-7.767 5.077-8.793l65.455-17.539c3.831-1.026 7.767 1.246 8.793 5.077 1.027 3.83-1.246 7.766-5.077 8.793zm29.736 10.083c-1.026-3.831-4.963-6.103-8.793-5.077l-36.576 9.801c-3.831 1.026-6.103 4.963-5.077 8.793 1.026 3.831 4.963 6.103 8.793 5.077l36.576-9.801c3.831-1.026 6.103-4.962 5.077-8.793zm-59.693 15.995c-1.026-3.831-4.963-6.103-8.793-5.077l-24.05 6.444c-3.831 1.026-6.103 4.963-5.077 8.793 1.026 3.831 4.963 6.103 8.793 5.077l24.05-6.444c3.831-1.026 6.103-4.963 5.077-8.793zm57.023 10.204c-1.026-3.831-4.963-6.103-8.793-5.077l-74.702 20.016c-3.831 1.026-6.103 4.963-5.077 8.793 1.026 3.831 4.963 6.103 8.793 5.077l74.702-20.016c3.83-1.027 6.103-4.963 5.077-8.793zm-2.876 26.253c-1.026-3.831-4.963-6.103-8.793-5.077l-65.455 17.539c-3.831 1.026-6.103 4.963-5.077 8.793 1.026 3.831 4.963 6.103 8.793 5.077l65.455-17.539c3.831-1.026 6.103-4.962 5.077-8.793zm24.658 18.877c-1.026-3.831-4.963-6.103-8.793-5.077l-36.576 9.801c-3.831 1.026-6.103 4.963-5.077 8.793 1.026 3.831 4.963 6.103 8.793 5.077l36.576-9.801c3.831-1.026 6.104-4.963 5.077-8.793zm-59.692 15.995c-1.026-3.831-4.963-6.103-8.793-5.077l-24.05 6.444c-3.831 1.026-6.103 4.963-5.077 8.793 1.026 3.831 4.963 6.103 8.793 5.077l24.05-6.444c3.83-1.027 6.103-4.963 5.077-8.793zm57.022 10.203c-1.026-3.831-4.963-6.103-8.793-5.077l-74.702 20.016c-3.831 1.026-6.103 4.963-5.077 8.793 1.026 3.831 4.963 6.103 8.793 5.077l74.702-20.016c3.831-1.026 6.104-4.962 5.077-8.793z" fill="#595e5a" fill-opacity="1" data-original-color="#aad3b9ff" stroke="none" stroke-opacity="1" style=""/><path d="m340.333 184.666-12.281-45.834-13.87 3.717 13.364 49.874z" fill="#9cc6ff" fill-opacity="1" data-original-color="#bed8fbff" stroke="none" stroke-opacity="1" style=""/><path d="m473.579 130.456c1.828-.688 2.834-2.65 2.329-4.537l-16.215-60.515c-.546-2.038-2.641-3.247-4.678-2.701l-33.297 8.922 35.145 131.163c7.761 28.965-9.428 58.738-38.393 66.499l-199.86 53.552 4.321 16.127c.35 1.307 1.693 2.082 3 1.732l283.237-75.893c2.038-.546 3.247-2.641 2.701-4.678l-16.215-60.515c-.505-1.887-2.358-3.083-4.285-2.765-17.315 2.86-34.308-7.837-38.946-25.143s4.731-35.068 21.156-41.248z" fill="#e0c831" fill-opacity="1" data-original-color="#f4dd45ff" stroke="none" stroke-opacity="1" style=""/><path d="m286.711 199.034 11.023 41.139c.948 3.536 4.582 5.635 8.119 4.687l80.57-21.589c3.536-.948 5.635-4.582 4.687-8.118l-11.023-41.139z" fill="#ff6873" fill-opacity="1" data-original-color="#e28086ff" stroke="none" stroke-opacity="1" style=""/><circle cx="317.33" cy="215.606" fill="#ffec6c" r="7.18" fill-opacity="1" data-original-color="#f9efafff" stroke="none" stroke-opacity="1" style=""/><circle cx="361.855" cy="203.676" fill="#ffec6c" r="7.18" fill-opacity="1" data-original-color="#f9efafff" stroke="none" stroke-opacity="1" style=""/><path d="m174.228 427.043c0-4.267 3.458-7.725 7.725-7.726l4.451-6.072-4.451-6.78c-4.267 0-7.725-3.459-7.725-7.726v-22.386c0-4.267 3.458-7.725 7.725-7.726l4.451-4.949-4.451-7.903c-4.267 0-7.725-3.459-7.725-7.726v-22.386c0-4.267 3.458-7.725 7.725-7.726l4.451-6.763-4.451-6.089c-4.267 0-7.725-3.459-7.725-7.726v-22.385c0-4.267 3.458-7.725 7.725-7.726l4.451-6.742-4.451-6.109c-4.267 0-7.725-3.459-7.725-7.726v-19.75c0-1.456-1.18-2.636-2.636-2.636h-167.482c-2.27 0-4.11 1.84-4.11 4.11v67.414c0 2.102 1.592 3.861 3.684 4.067 18.794 1.849 33.477 17.7 33.477 36.98s-14.683 35.131-33.477 36.98c-2.092.207-3.684 1.966-3.684 4.068v67.414c0 2.27 1.84 4.11 4.11 4.11h167.482c1.456 0 2.636-1.18 2.636-2.636z" fill="#5edb85" fill-opacity="1" data-original-color="#80bc93ff" stroke="none" stroke-opacity="1" style=""/><path d="m508.269 299.877c2.091-.206 3.684-1.965 3.684-4.067v-67.414c0-2.27-1.84-4.11-4.11-4.11h-315.527c-1.456 0-2.636 1.18-2.636 2.636v19.75c0 4.267-3.459 7.726-7.726 7.726v12.852c4.267 0 7.726 3.459 7.726 7.726v22.385c0 4.267-3.459 7.726-7.726 7.726v12.852c4.267 0 7.726 3.459 7.726 7.726v22.386c0 4.267-3.459 7.726-7.726 7.726v12.852c4.267 0 7.726 3.459 7.726 7.726v22.386c0 4.267-3.459 7.726-7.726 7.726v12.852c4.267 0 7.726 3.459 7.726 7.726v19.75c0 1.456 1.18 2.636 2.636 2.636h315.527c2.27 0 4.11-1.84 4.11-4.11v-67.414c0-2.102-1.592-3.861-3.684-4.067-18.794-1.849-33.477-17.7-33.477-36.98 0-19.283 14.683-35.134 33.477-36.983z" fill="#ffec6c" fill-opacity="1" data-original-color="#f9efafff" stroke="none" stroke-opacity="1" style=""/><path d="m379.658 396.709h-65.409c-4.267 0-7.726-3.458-7.726-7.726s3.458-7.726 7.726-7.726h65.409c4.267 0 7.726 3.458 7.726 7.726s-3.459 7.726-7.726 7.726z" fill="#c45f2d" fill-opacity="1" data-original-color="#e4936bff" stroke="none" stroke-opacity="1" style=""/><path d="m174.228 428.827h-174.228v16.491c0 2.27 1.84 4.11 4.11 4.11h167.482c1.456 0 2.636-1.18 2.636-2.636z" fill="#359655" fill-opacity="1" data-original-color="#69af81ff" stroke="none" stroke-opacity="1" style=""/><path d="m398.964 275.187c0-3.939-3.194-7.133-7.133-7.133h-89.755c-3.939 0-7.133 3.194-7.133 7.133v43.926l34.936 12.227 69.085-12.227z" fill="#d1e4ff" fill-opacity="1" data-original-color="#cbe2ffff" stroke="none" stroke-opacity="1" style=""/><path d="m309.266 405.66h-26.079c-1.241 0-1.988-1.375-1.313-2.416l20.202-31.169 22.61-14.249 7.198 14.249-21.305 32.871c-.288.445-.783.714-1.313.714z" fill="#605365" fill-opacity="1" data-original-color="#c6c1c8ff" stroke="none" stroke-opacity="1" style=""/><path d="m384.641 405.66h26.079c1.241 0 1.988-1.375 1.313-2.416l-20.202-31.169-19.475-8.396-10.334 8.396 21.305 32.871c.289.445.783.714 1.314.714z" fill="#605365" fill-opacity="1" data-original-color="#c6c1c8ff" stroke="none" stroke-opacity="1" style=""/><path d="m135.83 278.365h-72.917c-4.267 0-7.726-3.458-7.726-7.726s3.458-7.726 7.726-7.726h72.917c4.267 0 7.726 3.458 7.726 7.726s-3.459 7.726-7.726 7.726zm28.098 18.762c0-4.267-3.458-7.726-7.726-7.726h-40.746c-4.267 0-7.726 3.458-7.726 7.726 0 4.267 3.458 7.726 7.726 7.726h40.746c4.267 0 7.726-3.459 7.726-7.726zm-66.498 0c0-4.267-3.458-7.726-7.726-7.726h-26.791c-4.267 0-7.726 3.458-7.726 7.726 0 4.267 3.458 7.726 7.726 7.726h26.791c4.267 0 7.726-3.459 7.726-7.726zm56.426 26.487c0-4.267-3.458-7.726-7.726-7.726h-83.217c-4.267 0-7.726 3.458-7.726 7.726s3.458 7.726 7.726 7.726h83.218c4.267-.001 7.725-3.459 7.725-7.726zm-10.301 26.486c0-4.267-3.458-7.726-7.726-7.726h-72.916c-4.267 0-7.726 3.458-7.726 7.726s3.458 7.726 7.726 7.726h72.917c4.267 0 7.725-3.459 7.725-7.726zm20.373 26.488c0-4.267-3.458-7.726-7.726-7.726h-40.746c-4.267 0-7.726 3.458-7.726 7.726s3.458 7.726 7.726 7.726h40.746c4.267-.001 7.726-3.459 7.726-7.726zm-66.498 0c0-4.267-3.458-7.726-7.726-7.726h-26.791c-4.267 0-7.726 3.458-7.726 7.726s3.458 7.726 7.726 7.726h26.791c4.267-.001 7.726-3.459 7.726-7.726zm56.426 26.486c0-4.267-3.458-7.726-7.726-7.726h-83.217c-4.267 0-7.726 3.458-7.726 7.726s3.458 7.726 7.726 7.726h83.218c4.267 0 7.725-3.459 7.725-7.726z" fill="#595e5a" fill-opacity="1" data-original-color="#aad3b9ff" stroke="none" stroke-opacity="1" style=""/><path d="m354.679 319.113v-51.059h-15.452v55.56z" fill="#9cc6ff" fill-opacity="1" data-original-color="#bed8fbff" stroke="none" stroke-opacity="1" style=""/><path d="m508.269 299.877c2.091-.206 3.684-1.965 3.684-4.067v-67.414c0-2.27-1.84-4.11-4.11-4.11h-37.093v146.116c0 32.268-26.158 58.425-58.425 58.425h-222.645v17.966c0 1.456 1.18 2.636 2.636 2.636h315.527c2.27 0 4.11-1.84 4.11-4.11v-67.414c0-2.102-1.592-3.861-3.684-4.067-18.794-1.849-33.477-17.7-33.477-36.98 0-19.281 14.683-35.132 33.477-36.981z" fill="#f7e03d" fill-opacity="1" data-original-color="#f6e781ff" stroke="none" stroke-opacity="1" style=""/><path d="m294.943 319.113v45.829c0 3.939 3.193 7.133 7.133 7.133h89.755c3.939 0 7.133-3.193 7.133-7.133v-45.829z" fill="#ff6873" fill-opacity="1" data-original-color="#e28086ff" stroke="none" stroke-opacity="1" style=""/><g fill="#f9efaf"><circle cx="322.153" cy="344.865" r="7.726" fill="#ffec6c" fill-opacity="1" data-original-color="#f9efafff" stroke="none" stroke-opacity="1" style=""/><circle cx="371.754" cy="344.865" r="7.726" fill="#ffec6c" fill-opacity="1" data-original-color="#f9efafff" stroke="none" stroke-opacity="1" style=""/></g></g></g></svg>