<svg id="Layer_1" enable-background="new 0 0 512 512" height="512" viewBox="0 0 512 512" width="512" xmlns="http://www.w3.org/2000/svg"><g><g><g><circle cx="221.175" cy="315.889" fill="#3fc2c4" r="171.969"/></g></g><g opacity=".2"><path d="m221.14 256.461c-.808 21.05-8.909 42.519-14.975 49.403-6.076 6.884-46.979-2.015-50.62 2.833-3.651 4.858-9.318 8.62-18.636 31.036-9.308 22.427-40.494 16.351-32.393 33.351 8.101 17.01-12.55 22.686 10.126 23.893 22.676 1.217 42.918 4.459 37.252 19.843-2.873 7.792-19.663 22.646-35.526 35.416-16.69-12.84-30.947-28.672-41.98-46.709-13.488-24.701-21.15-53.034-21.15-83.163 0-78.205 51.628-144.348 122.649-166.196 11.253 6.824 22.606 15.593 23.794 23.754 2.424 16.611-8.101 31.585 0 41.312 8.1 9.718 22.267 14.167 21.459 35.227z"/></g><g><path d="m215.289 250.704c-.8 20.827-8.809 42.062-14.818 48.871s-46.463-2-50.071 2.8c-3.608 4.809-9.209 8.527-18.427 30.703-9.209 22.176-40.054 16.167-32.045 32.986 8.009 16.826-12.418 22.435 10.017 23.635 22.427 1.2 42.454 4.409 36.846 19.627-2.989 8.119-21.251 23.988-37.638 37.034-36.704-31.527-59.947-78.288-59.947-130.469 0-77.354 51.068-142.777 121.323-164.389 11.124 6.746 22.357 15.422 23.533 23.494 2.4 16.426-8.009 31.245 0 40.862 8.009 9.61 22.027 14.019 21.227 34.846z" fill="#fae8b4"/></g><g opacity=".2"><path d="m278.474 478.076c-17.339 6.135-35.935 9.557-55.319 9.777-3.761-8.33-1.596-16.74 1.756-23.425 5.607-11.223 23.634.399 40.464 10.405 3.681 2.185 8.19 3.153 13.099 3.243z"/></g><g opacity=".2"><path d="m303.322 412.264c-94.976 0-171.969-76.993-171.969-171.969 0-29.659 7.509-57.564 20.728-81.919-60.57 26.608-102.876 87.115-102.876 157.512 0 94.976 76.993 171.969 171.969 171.969 65.317 0 122.128-36.415 151.241-90.05-21.146 9.29-44.514 14.457-69.093 14.457z"/></g><g><path d="m289.49 473.753c-18.842 8.166-39.442 13.053-61.069 13.948h-.008c-6.44-9.484-4.15-19.423-.306-27.095 5.609-11.218 23.635.4 40.462 10.41 5.569 3.318 13.068 3.82 20.921 2.737z" fill="#fae8b4"/></g><g opacity=".2"><path d="m388.084 319.232c0 40.115-13.059 77.197-35.167 107.196-.02.02-.03.04-.05.06-7.961 9.478-16.94 18.087-26.747 25.649.918-8.25.549-17.379 1.706-23.664 2.105-11.373 22.327-37.92 29.071-49.293 6.744-11.383 2.105-21.499-2.524-48.465-4.639-26.966-22.337-17.688-24.023-35.047-1.676-17.369-17.698-27.734-17.698-53.134 0-15.174 14.017-34.917 25.28-48.325 31.067 32.483 50.152 76.528 50.152 125.023z"/></g><g><path d="m393.146 315.891c0 51.938-23.024 98.503-59.43 130.03 1.553-8.692.863-19.242 2.149-26.177 2-10.818 21.227-36.053 27.636-46.863 6.409-10.818 2-20.435-2.4-46.071-4.409-25.636-21.235-16.819-22.835-33.323-1.6-16.505-16.826-26.357-16.826-50.503 0-14.434 13.32-33.198 24.028-45.945 29.534 30.876 47.678 72.75 47.678 118.852z" fill="#fae8b4"/></g><g><path d="m25.312 455.032c-6.584-.001-11.9-1.041-16.254-3.181-3.709-1.822-5.239-6.305-3.416-10.014 1.822-3.71 6.308-5.238 10.015-3.417 2.193 1.077 5.532 1.646 9.657 1.647l.57-.003c.033-.001.066-.001.099-.001 4.087 0 7.426 3.286 7.48 7.385.054 4.132-3.253 7.525-7.385 7.579zm29.645-6.727c-2.946 0-5.738-1.751-6.925-4.644-1.569-3.823.259-8.193 4.082-9.762 3.813-1.565 7.897-3.453 12.14-5.612 3.681-1.871 8.188-.409 10.062 3.275 1.874 3.683.408 8.188-3.275 10.062-4.602 2.342-9.059 4.401-13.245 6.118-.931.383-1.893.563-2.839.563zm38.587-20.945c-2.456 0-4.862-1.208-6.293-3.425-2.241-3.471-1.244-8.103 2.228-10.344 3.683-2.378 7.531-4.951 11.439-7.648 3.401-2.347 8.061-1.493 10.408 1.908s1.494 8.061-1.908 10.409c-4.033 2.783-8.011 5.443-11.823 7.903-1.255.81-2.661 1.197-4.051 1.197zm-86.06-1.345c-.838 0-1.691-.142-2.525-.441-3.89-1.395-5.912-5.679-4.517-9.569 1.509-4.209 3.589-8.823 6.18-13.714 1.934-3.652 6.461-5.046 10.115-3.11 3.651 1.935 5.043 6.463 3.109 10.115-2.259 4.263-4.048 8.221-5.317 11.761-1.097 3.055-3.976 4.958-7.045 4.958zm121.883-24.087c-2.25 0-4.473-1.009-5.946-2.933-2.512-3.281-1.889-7.978 1.393-10.49 3.576-2.738 7.253-5.606 10.93-8.526 3.236-2.569 7.943-2.028 10.512 1.207 2.57 3.236 2.029 7.943-1.207 10.513-3.746 2.973-7.493 5.896-11.138 8.687-1.358 1.039-2.958 1.542-4.544 1.542zm-100.009-13.893c-1.535 0-3.084-.471-4.417-1.448-3.333-2.442-4.055-7.125-1.613-10.458 4.994-6.815 8.727-11.281 8.884-11.468 2.653-3.166 7.37-3.583 10.538-.929 3.167 2.653 3.585 7.371.933 10.539-.036.043-3.601 4.31-8.285 10.703-1.464 2-3.737 3.061-6.04 3.061zm134.215-13.73c-2.126 0-4.237-.9-5.716-2.65-2.669-3.156-2.274-7.877.881-10.545 3.458-2.925 7.01-5.967 10.558-9.043 3.123-2.707 7.848-2.369 10.555.752 2.707 3.122 2.37 7.849-.753 10.555-3.594 3.116-7.193 6.198-10.697 9.162-1.405 1.188-3.122 1.769-4.828 1.769zm33.045-29.016c-2.035 0-4.063-.825-5.539-2.449-2.78-3.058-2.554-7.79.504-10.57 3.433-3.121 6.883-6.289 10.253-9.416 3.031-2.81 7.764-2.633 10.574.396 2.811 3.029 2.634 7.764-.395 10.575-3.407 3.161-6.895 6.365-10.367 9.519-1.433 1.302-3.235 1.945-5.03 1.945zm32.078-30.134c-1.949 0-3.896-.757-5.363-2.264-2.882-2.962-2.818-7.699.144-10.58 1.095-1.066 2.05-2 2.856-2.792 1.976-1.94 3.042-3.008 3.058-3.024 2.918-2.926 7.656-2.93 10.581-.011 2.925 2.918 2.931 7.656.012 10.58 0 0-1.105 1.108-3.164 3.13-.818.804-1.791 1.756-2.906 2.841-1.454 1.416-3.337 2.12-5.218 2.12z" fill="#783d26"/></g><g><path d="m453.217 210.851-9.742-9.742c-4.821-4.821-4.821-12.638 0-17.459l29.124-29.124c4.821-4.821 12.638-4.821 17.459 0l9.742 9.742c4.821 4.821 4.821 12.638 0 17.459l-29.124 29.124c-4.821 4.822-12.638 4.822-17.459 0z" fill="#ffd042"/></g><g opacity=".2"><path d="m462.839 208.946c-4.821-4.821-4.821-12.638 0-17.459l29.123-29.123c1.043-1.043 2.231-1.846 3.494-2.438l-5.399-5.399c-4.821-4.821-12.638-4.821-17.459 0l-29.124 29.123c-4.821 4.821-4.821 12.638 0 17.459l9.742 9.742c3.778 3.778 9.391 4.582 13.965 2.438z"/></g><g><path d="m335.033 92.667-9.742-9.742c-4.821-4.821-4.821-12.638 0-17.459l29.124-29.124c4.821-4.821 12.638-4.821 17.459 0l9.742 9.742c4.821 4.821 4.821 12.638 0 17.459l-29.124 29.124c-4.821 4.822-12.638 4.822-17.459 0z" fill="#ffd042"/></g><g opacity=".2"><path d="m343.482 86.708c-4.821-4.821-4.821-12.638 0-17.459l29.123-29.123c.521-.521 1.083-.975 1.667-1.383l-2.399-2.399c-4.821-4.821-12.638-4.821-17.459 0l-29.124 29.124c-4.821 4.821-4.821 12.638 0 17.459l9.742 9.742c4.3 4.3 10.977 4.754 15.792 1.383z"/></g><g><path d="m238.162 116.13c-1.915 0-3.83-.731-5.291-2.192-2.922-2.922-2.922-7.66 0-10.581l21.917-21.917c2.922-2.922 7.659-2.922 10.582 0 2.922 2.922 2.922 7.66 0 10.581l-21.917 21.917c-1.461 1.461-3.376 2.192-5.291 2.192z" fill="#783d26"/></g><g><path d="m280.457 129.048c-1.915 0-3.83-.73-5.291-2.192-2.922-2.922-2.922-7.66 0-10.581l21.918-21.917c2.924-2.923 7.661-2.922 10.582 0s2.922 7.66 0 10.581l-21.918 21.917c-1.461 1.462-3.376 2.192-5.291 2.192z" fill="#783d26"/></g><g><path d="m322.81 141.911c-1.914 0-3.83-.731-5.291-2.192-2.922-2.922-2.922-7.66 0-10.581l21.917-21.917c2.923-2.922 7.66-2.922 10.582 0s2.922 7.66 0 10.581l-21.917 21.917c-1.461 1.461-3.377 2.192-5.291 2.192z" fill="#783d26"/></g><g><path d="m427.494 305.462c-1.915 0-3.83-.731-5.291-2.192-2.922-2.922-2.922-7.66.001-10.581l21.918-21.917c2.921-2.921 7.659-2.922 10.581.001 2.922 2.922 2.922 7.66-.001 10.581l-21.918 21.917c-1.46 1.461-3.375 2.191-5.29 2.191z" fill="#783d26"/></g><g><path d="m414.577 263.167c-1.914 0-3.83-.731-5.291-2.191-2.922-2.923-2.922-7.66 0-10.582l21.917-21.917c2.923-2.922 7.66-2.922 10.582 0s2.922 7.66 0 10.581l-21.917 21.918c-1.462 1.46-3.377 2.191-5.291 2.191z" fill="#783d26"/></g><g><path d="m401.714 220.815c-1.915 0-3.83-.73-5.291-2.192-2.922-2.922-2.922-7.66 0-10.581l21.918-21.917c2.924-2.923 7.661-2.922 10.582 0s2.922 7.66 0 10.581l-21.918 21.917c-1.462 1.462-3.377 2.192-5.291 2.192z" fill="#783d26"/></g><g><path d="m276.283 248.909-53.431-32.236c-1.928-1.163-2.253-3.827-.661-5.42l14.269-14.269c.81-.81 1.968-1.168 3.094-.955l72.075 13.591c2.738.516 3.779 3.888 1.809 5.858l-32.913 32.913c-1.127 1.128-2.877 1.341-4.242.518z" fill="#783d26"/></g><g><path d="m287.233 259.859 32.236 53.431c1.163 1.928 3.827 2.253 5.42.66l14.269-14.269c.81-.81 1.168-1.968.955-3.094l-13.591-72.075c-.516-2.738-3.888-3.779-5.858-1.809l-32.913 32.913c-1.128 1.128-1.341 2.879-.518 4.243z" fill="#783d26"/></g><g><path d="m361.681 147.678-31.132-20.373c-.301-.197-.629-.35-.973-.455l-120.649-36.763c-2.744-.836-3.607-4.294-1.579-6.322l21.691-21.692c.733-.733 1.735-1.135 2.771-1.112l207.167 4.606c3.344.074 4.968 4.121 2.602 6.486l-75.131 75.131c-1.272 1.273-3.262 1.479-4.767.494z" fill="#e87941"/></g><g><path d="m388.465 174.462 20.373 31.132c.197.301.35.629.455.973l36.762 120.648c.836 2.744 4.294 3.607 6.322 1.579l21.692-21.691c.733-.733 1.135-1.735 1.112-2.771l-4.606-207.167c-.074-3.344-4.121-4.968-6.486-2.602l-75.131 75.131c-1.273 1.272-1.478 3.262-.493 4.768z" fill="#e87941"/></g><g><path d="m218.177 72.936-10.829 10.829c-2.028 2.028-1.164 5.486 1.579 6.322l120.648 36.762c.344.105.672.258.973.455l31.132 20.373c1.505.985 3.495.78 4.768-.493l34.842-34.842z" fill="#783d26"/></g><g><path d="m463.206 317.965-10.829 10.829c-2.028 2.028-5.486 1.164-6.322-1.579l-36.762-120.648c-.105-.344-.258-.672-.455-.973l-20.373-31.132c-.985-1.505-.78-3.495.493-4.768l34.842-34.842z" fill="#783d26"/></g><g opacity=".2"><path d="m311.629 209.62-27.669-5.218c-2.29 2.815-4.486 5.553-6.567 8.195-4.749 6.029-8.978 11.863-12.636 17.399l-25.434-15.345c-1.928-1.163-2.253-3.827-.661-5.42l11.251-11.251-10.359-1.953c-1.126-.212-2.284.145-3.094.955l-14.269 14.269c-1.592 1.592-1.268 4.256.661 5.42l53.43 32.236c1.365.823 3.115.61 4.242-.517l5.539-5.539 27.374-27.374c1.972-1.969.93-5.34-1.808-5.857z"/></g><g opacity=".2"><path d="m326.522 224.513 5.218 27.669c-2.815 2.29-5.553 4.486-8.195 6.567-6.029 4.749-11.863 8.978-17.399 12.636l15.345 25.434c1.163 1.928 3.827 2.253 5.42.661l11.251-11.251 1.953 10.359c.212 1.126-.145 2.284-.955 3.094l-14.269 14.269c-1.592 1.592-4.256 1.268-5.42-.661l-32.236-53.43c-.823-1.365-.61-3.115.517-4.242l5.539-5.539 27.374-27.374c1.969-1.971 5.341-.93 5.857 1.808z"/></g><g opacity=".2"><path d="m438.977 65.568-29.015-.645c-14.391 15.065-33.301 35.084-52.961 56.431l-120.204-36.628c-2.743-.836-3.607-4.294-1.579-6.322l16.99-16.99-20.396-.453c-1.037-.023-2.038.379-2.771 1.112l-21.692 21.692c-2.028 2.028-1.164 5.486 1.579 6.322l120.648 36.762c.344.105.672.258.973.455l13.132 8.594 18 11.779c1.505.985 3.496.78 4.768-.493l12.08-12.08 63.051-63.051c2.365-2.365.741-6.411-2.603-6.485z"/></g><g opacity=".2"><path d="m470.575 97.165.645 29.015c-15.065 14.391-35.084 33.301-56.431 52.961l36.627 120.204c.836 2.743 4.294 3.607 6.322 1.579l16.99-16.99.453 20.396c.023 1.037-.379 2.038-1.112 2.771l-21.691 21.691c-2.028 2.028-5.486 1.164-6.322-1.579l-36.762-120.648c-.105-.344-.258-.672-.455-.973l-8.594-13.132-11.779-18c-.985-1.505-.78-3.496.493-4.768l12.08-12.08 63.051-63.051c2.364-2.363 6.41-.74 6.485 2.604z"/></g><g><path d="m486.757 90.35c-9.219 9.219-114.481 110.969-172.472 156.642-28.227 22.232-45.644 27.916-49.347 24.212-3.703-3.703 1.981-21.12 24.212-49.347 45.674-57.991 147.423-163.253 156.642-172.472 13.706-13.706 51.501-33.161 62.813-21.849s-8.142 49.108-21.848 62.814z" fill="#ffd042"/></g><g><g><path d="m467.246 84.301c-3.756-6.907-8.454-11.623-15.413-15.407-3.107-1.689-3.671-5.922-1.171-8.422 3.476-3.476 6.953-6.953 10.429-10.429 1.581-1.581 3.988-2.012 6.015-1.069 9.794 4.554 15.552 10.354 20.064 20.066.942 2.026.509 4.432-1.071 6.012-3.476 3.476-6.953 6.953-10.429 10.429-2.502 2.501-6.734 1.929-8.424-1.18z" fill="#783d26"/></g></g><g opacity=".2"><path d="m487.429 69.73c-.236.424-.524.824-.878 1.178-3.476 3.476-6.953 6.953-10.429 10.429-2.503 2.503-6.735 1.931-8.425-1.179-3.756-6.907-8.454-11.623-15.413-15.407-1.285-.699-2.127-1.834-2.505-3.101-1.393 2.491-.604 5.797 2.055 7.243 6.958 3.784 11.657 8.5 15.412 15.407 1.691 3.109 5.923 3.681 8.426 1.179 3.476-3.476 6.953-6.953 10.429-10.429 1.403-1.404 1.895-3.458 1.328-5.32z"/></g><g opacity=".2"><path d="m445.792 49.385c-9.219 9.219-110.969 114.481-156.642 172.472-22.232 28.227-27.916 45.644-24.212 49.347l243.668-243.667c-11.312-11.313-49.107 8.142-62.814 21.848z"/></g><g><path d="m293.092 262.097-33.252 24.658c-3.315 2.458-7.995 1.764-10.453-1.551-2.007-2.706-1.905-6.328 0-8.902l24.658-33.252c4.479-6.04 13.007-7.306 19.047-2.826 6.04 4.479 7.306 13.007 2.826 19.047-.806 1.086-1.796 2.054-2.826 2.826z" fill="#e87941"/></g><g opacity=".2"><path d="m258.663 277.479 35.935-35.935c-.467-.466-.961-.915-1.507-1.32-6.04-4.479-14.568-3.214-19.047 2.826l-24.658 33.252c-1.905 2.574-2.007 6.196 0 8.902 2.458 3.315 7.138 4.009 10.453 1.551l8.467-6.279c-3.444.628-7.079-.428-9.643-2.997z"/></g></g></svg>