<svg id="Layer_1" enable-background="new 0 0 512 512" viewBox="0 0 512 512" xmlns="http://www.w3.org/2000/svg"><path clip-rule="evenodd" d="m321.27 229.88c-32.85-7.31-54.96 16.61-66.3 71.77-2.66 18.14-3.12 33.68-1.33 46.6 6.43-1.33 12.59-4.03 18.17-7.94.03-2.55.14-5.19.31-7.94 1.42-8.22 7.51-13.35 18.28-15.39 3.32-7.65 5.05-16.1 4.96-24.77 3.23-2.1 7.14-2.52 10.71-1.16 3.54 1.36 6.38 4.37 7.77 8.22-.99 5.5-2.61 10.77-4.76 15.73 4.05-1.7 8.08-4.25 12.05-7.63 1.33 13.52 4.85 20.27 10.6 20.21-3.09 15.93-4.93 26.96-5.53 33.02l-17.29 47.37h27.72l31.75-53.23c9.67 4.28 21.63 4.82 35.83 1.62 4.37 14.68 6.29 31.55 5.81 50.63h23.92c3.06-3.2 4.62-11.59 4.62-25.14-.88-8.9 2.86-19.28 11.23-31.12 15.56-17.26 27.84-44.11 20.55-68.71-12.05-40.73-79.34-13.8-94.11-40.88-9.21-26.08-27.53-29.85-54.96-11.26zm-67.02 122.32c4.03 22.22 15.17 36.11 33.48 41.64l2.95-10.37c-11.14-4.31-17.35-15.59-18.65-33.85-5.79 1.84-11.77 2.72-17.78 2.58z" fill="#8a8990" fill-rule="evenodd"/><path clip-rule="evenodd" d="m317.18 310.44c1.3-.94 2.64-1.96 3.94-3.06.17 1.76.37 3.4.62 4.93 2.18-.26 4-1.96 4.31-4.22 1.11-7.31 2.81-14.46 5.16-21.32 2.32-6.92 5.27-13.58 8.76-19.84 1.33-2.41.48-5.44-1.93-6.77s-5.44-.45-6.77 1.93c-3.83 6.86-7 14.03-9.52 21.49s-4.39 15.19-5.56 23.07c-.23 1.41.17 2.74.99 3.79zm9.9 15.31c1.33 1.25 2.89 1.84 4.65 1.84-.34 1.67-.65 3.29-.96 4.88.85.17 1.73.11 2.58-.17 17.55-6.07 30.3-16.89 38.32-32.49 7.14-13.83 10.4-31.35 9.84-52.53-2.15-1.67-3.94-3.69-5.27-6.15-.6-1.62-1.19-3.17-1.84-4.62-1.96.77-3.29 2.72-3.15 4.93 1.39 22.28-1.42 40.22-8.42 53.8-6.83 13.24-17.72 22.45-32.74 27.64-1.43.49-2.48 1.57-3.01 2.87zm38.75 33.28 2.55-4.28c1.5.68 3.09 1.25 4.71 1.73l10.23-19.56c1.28-2.44.34-5.44-2.1-6.72s-5.44-.34-6.72 2.1l-10.54 20.15c-1.22 2.35-.4 5.25 1.87 6.58zm33.59-1.73c1.56-.26 3.15-.57 4.79-.94.4 1.36.79 2.75 1.16 4.17l.11-.03c2.66-.77 4.17-3.51 3.43-6.15-1.36-4.68-1.47-9.58-.45-14.23.99-4.59 3.09-8.87 6.15-12.3 1.84-2.04 1.67-5.19-.37-7.03-2.07-1.84-5.22-1.67-7.03.4-4.28 4.76-7.17 10.6-8.53 16.81-1.33 6.18-1.16 12.76.65 19.08.03.08.06.16.09.22z" fill="#706f7b" fill-rule="evenodd"/><path clip-rule="evenodd" d="m354.43 378.16.03.03c7.09 10.72 9.84 20.66 8.25 29.79l23.98-.34c3.37-14.94 1.16-31.49-6.63-49.66-4.2-.57-8.11-1.64-11.68-3.23z" fill="#706f7b" fill-rule="evenodd"/><path clip-rule="evenodd" d="m438.45 378.96c8.84 12.13 12.19 21.63 10.01 28.46l23.13-.37c8.02-7.97-8.19-54.62-7.71-76.82-4.28 7.99-8.96 14.8-14.09 20.49-7.46 10.6-11.26 20.01-11.34 28.24z" fill="#706f7b" fill-rule="evenodd"/><path clip-rule="evenodd" d="m313.84 299.27c-1.39-3.85-4.22-6.86-7.77-8.22-3.57-1.36-7.48-.94-10.71 1.16.14 16.75-6.46 32.71-18.03 43.57-11.59 10.86-26.93 15.48-41.9 12.61 16.3 6.43 34.33 4.68 49.41-4.73 15.05-9.44 25.65-25.65 29-44.39z" fill="#cccccb" fill-rule="evenodd"/><path d="m285.86 275.24c-.57 2.69-3.2 4.42-5.9 3.86-2.69-.54-4.42-3.2-3.86-5.9.74-3.57 2.61-6.6 5.13-8.7 2.66-2.18 6.01-3.37 9.58-3.15 2.75.17 4.85 2.55 4.68 5.3s-2.55 4.85-5.3 4.68c-.94-.09-1.84.26-2.58.88-.84.7-1.49 1.75-1.75 3.03z" fill="#706f7b"/><g clip-rule="evenodd" fill-rule="evenodd"><path d="m117 247.65c46.26-12.08 104.2-32.43 120.1-61.03 14.88-30.36 30.25-47.76 47.45-53.06-8.65-4.11-14.2-13.01-11.65-21.66l25.31 9.1c7.2-1.47 14.83-.37 21 3.03 6.18 3.4 10.35 8.79 11.48 14.85l20.47 16.13c8.16 6.46-10.06 25.06-28.52 7.26-7.23 1.5-17.35-1.16-24.21-3.57-16.84 32.74-24.21 69.08-47.76 99.16-3.83 22.22-8.65 39.12-14.49 50.71-8.79 57.2-10.01 89.69-3.74 97.46h-18.96c-4.54-54.45-5.16-87-1.9-97.57-2.95-1.98-5.05-4.68-6.07-7.68-14.85 8.16-60.29 10.15-77.19 5.41-9.78 25.54-19.62 42.83-29.54 51.9-5.24 25.63-4 41.75 3.71 48.39h-21.94c-8.19-22.39-8.33-45.75-.43-70.13 2.98-6.69 1.19-19.02-5.36-36.96-2.29-29.23 11.8-46.46 42.24-51.74z" fill="#fcb54e"/><path d="m80.49 318.97c-1.08-5.53-2.98-12.08-5.73-19.59-.65-8.56.09-16.1 2.21-22.62 9.01 1.33 14.17 5.92 16.33 13.24 1.11 3.8 9.35 9.33 8.53 13.18-1.44 6.84-13.54 13.16-21.34 15.79z" fill="#c37a4f"/><path d="m149.34 238.27c13.24-4.28 26.45-9.18 38.55-14.68 7 12.33 8.67 24.55.74 28.83-4.99 2.66-19.81 1.53-23.33-1.02-5.64-4.14-14.26-2.53-15.96-13.13z" fill="#c37a4f"/><path d="m117 247.65c4.73-1.22 9.58-2.55 14.48-3.97.37 1.39.54 2.81.54 4.31 0 6.69-2.98 9.47-7.37 12.08-3.26 1.98-7.14 5.5-10.91 5.33-5.73-.28-11.14-5.9-12.98-13.18 4.76-1.99 10.17-3.52 16.24-4.57z" fill="#c37a4f"/><path d="m291.7 172.99c-3.43 7.88-6.55 15.85-9.67 23.81-6.89-1.62-14.54-8.08-14.26-12.47.2-3.54 7.31-4.9 10.2-7.74 1.53-1.5 2.44-5.75 4.28-6.77 2.51-1.39 6.11.9 9.45 3.17z" fill="#c37a4f"/><path d="m221.54 203.94c5.95-6.18 11.54-10.09 15.56-17.32 1.56-3.2 3.15-6.26 4.73-9.18 6.24 2.3 6.94 7.6 8.79 12.1 1.79 4.39 4.85 7.99 2.32 11.88-2.41 3.71-10.32 5.13-13.92 7.43-6.2 3.91-10.5 3.83-17.48-4.91z" fill="#c37a4f"/><path d="m257.06 248.96c-1.98 3.03-4.11 5.98-6.38 8.9-1.22 7.09-2.55 13.63-3.97 19.64-1.39.37-2.83.54-4.31.54-14.94 0-25.26-12.84-23.56-22.31 1.16-6.43 14.85-5.7 17.77-10.94 4.32-7.82 13.31-6.6 20.45 4.17z" fill="#c37a4f"/><path d="m199.49 303.67c-12.67 5.24-27.27 6.46-41.02 3.34-.43-1.67-.62-3.43-.62-5.24 0-4.17 3.63-5.87 5.13-8.82 3.52-6.86 5.92-13.69 12.44-14.31 5.9-.6 19.56 1.45 24.58 6.94 3.57 3.91-.34 10.03-.43 16.19 0 .62-.02 1.27-.08 1.9z" fill="#c37a4f"/><path d="m310.89 121c-5.41-8.45-13.46-15.22-24.18-20.35.09 9.41 1.96 15.48 5.61 18.23l5.9 2.13c4.2-.86 8.53-.86 12.67-.01z" fill="#fcb54e"/></g><path d="m307.04 133.99c0-2.78 2.24-5.02 4.99-5.02s4.99 2.24 4.99 5.02v2.21c0 2.75-2.24 4.99-4.99 4.99s-4.99-2.24-4.99-4.99z" fill="#c37a4f"/><path clip-rule="evenodd" d="m484.63 407.98h-418.4c-.85 31.18 15.19 44.9 48.13 41.13 15.14 16.89 37.25 24.15 56.86 19.5 75.88-25.4 125.6 27.89 174.19-18.79 25.68 13.32 56.44 6.01 74.66-17.72 23.54.97 46.56-7.62 64.56-24.12z" fill="#43b649" fill-rule="evenodd"/><path clip-rule="evenodd" d="m474 407.98h-406.04c5.61 17.12 24.26 24.26 49.15 21.43 15.17 16.89 37.25 24.12 56.86 19.47 75.88-25.4 125.6 27.92 174.19-18.79 25.71 13.32 58.51 8.53 76.73-15.22 14.98 4.79 40.91.4 49.11-6.89z" fill="#9ccb3b" fill-rule="evenodd"/><path clip-rule="evenodd" d="m187.16 147.51c-29.76 135.38-21.12 270 17.77 277.46-26.08 1.59-30.1-16.47-44.76-23.67-.77 2.35 3.06 35.77 7.46 38.78-9.69-22.96-34.95-12.27-43.2-37.79-19.87 17.49-17.49 10.91-41.5 20.3 53.15-69.73 65.48-148.99 6.75-217.98l19.76-12.98c12.84 19.93 22.79 33.76 29.85 41.47 11.79-25.11 22.34-55.11 31.61-90z" fill="#b45a35" fill-rule="evenodd"/><path clip-rule="evenodd" d="m225.65 106.52c18.28 0 34.27-12.98 38.89-31.63 18.23-16.33.06-47.23-21.88-37.28-6.12-18.77-39.91-22.76-50.88-1.08-7.17-15.02-42.66-22.03-54.99 0-11.25.11-21.71 6.07-27.98 15.93-6.29 9.86-7.54 22.34-3.34 33.36-1.36 10.32 2.69 20.58 10.57 26.84 7.88 6.24 18.37 7.51 27.35 3.29 14.23 13.86 36.09 14.06 50.54.45 11.48 2.39 23.33-1.29 31.72-9.88z" fill="#9ccb3b" fill-rule="evenodd"/><path clip-rule="evenodd" d="m225.65 106.52c18.28 0 34.27-12.98 38.89-31.63 1.39-1.22 2.55-2.55 3.52-3.91-4.25-10.2-15.28-17.29-27.5-11.76-6.09-18.77-39.91-22.76-50.88-1.08-7.14-15.02-42.63-22.03-54.99 0-11.23.11-21.71 6.07-27.98 15.93-1.16 1.84-2.15 3.77-2.98 5.75.4 2.04.96 4.05 1.73 6.01-1.36 10.32 2.69 20.58 10.57 26.84 7.88 6.24 18.37 7.51 27.35 3.29 14.23 13.86 36.09 14.06 50.54.45 11.49 2.38 23.34-1.3 31.73-9.89z" fill="#43b649" fill-rule="evenodd"/><path clip-rule="evenodd" d="m194.41 162.73c22.28.03 45.58-8.31 47.48-31.61 9.67-7.11 11.88-19.28 5.19-28.6-6.69-9.33-20.27-13.01-31.95-8.67-12.36-22.14-48.73-22.76-62.11-1.08-15.08-22.05-52.07-22.05-67.15 0-13.72.08-26.5 6.07-34.16 15.9-7.65 9.86-9.18 22.37-4.08 33.39-1.64 10.32 3.32 20.58 12.93 26.84 9.61 6.24 22.42 7.48 33.42 3.26 17.35 13.89 44.05 14.09 61.65.48 7.35 14.38 21.64 14.58 38.78-9.91z" fill="#9ccb3b" fill-rule="evenodd"/><path clip-rule="evenodd" d="m194.41 162.73c22.28.03 45.58-8.31 47.48-31.61 3.37-2.49 5.84-5.58 7.34-8.96-7.17-7.54-19.36-10.23-29.96-6.29-12.39-22.14-48.73-22.76-62.14-1.08-15.05-22.05-52.04-22.05-67.12 0-13.72.09-26.53 6.07-34.19 15.9-5.67 7.31-7.97 16.07-6.72 24.6 2.13 5.33 6.07 10.09 11.45 13.61 9.61 6.24 22.42 7.48 33.42 3.26 17.35 13.89 44.05 14.09 61.65.48 7.36 14.38 21.65 14.58 38.79-9.91z" fill="#43b649" fill-rule="evenodd"/><path clip-rule="evenodd" d="m127.32 208.03c13.8.03 25.88-11.17 29.37-27.21 6.01-6.09 7.37-16.55 3.23-24.58-4.17-8.02-12.56-11.2-19.79-7.48-7.65-19.02-30.13-19.56-38.44-.94-9.33-18.94-32.23-18.94-41.56 0-8.48.11-16.41 5.22-21.15 13.72-4.73 8.48-5.67 19.22-2.52 28.71-1.02 8.84 2.04 17.69 7.99 23.07 5.98 5.39 13.89 6.46 20.69 2.81 10.74 11.93 27.27 12.13 38.15.43 8.69 2.04 17.65-1.16 24.03-8.53z" fill="#43b649" fill-rule="evenodd"/><path clip-rule="evenodd" d="m160.12 156.66c-.06-.14-.14-.28-.2-.43-4.17-8.02-12.56-11.2-19.79-7.48-7.65-19.02-30.13-19.56-38.44-.94-9.33-18.94-32.23-18.94-41.56 0-8.48.11-16.41 5.22-21.15 13.72-.71 1.28-1.33 2.61-1.9 4 .26.99.54 1.96.85 2.95-1.02 8.84 2.04 17.69 7.99 23.07 5.95 5.39 13.89 6.46 20.69 2.81 10.71 11.93 27.24 12.13 38.15.43 8.67 2.04 17.63-1.13 23.98-8.53 13.8.03 25.88-11.17 29.4-27.21.76-.74 1.41-1.54 1.98-2.39z" fill="#9ccb3b" fill-rule="evenodd"/></svg>