<?xml version="1.0" encoding="iso-8859-1"?>
<!-- Generator: Adobe Illustrator 19.0.0, SVG Export Plug-In . SVG Version: 6.00 Build 0)  -->
<svg version="1.1" id="Capa_1" xmlns="http://www.w3.org/2000/svg" xmlns:xlink="http://www.w3.org/1999/xlink" x="0px" y="0px"
	 viewBox="0 0 512 512" style="enable-background:new 0 0 512 512;" xml:space="preserve">
<ellipse transform="matrix(0.1253 -0.9921 0.9921 0.1253 -12.7587 547.5854)" style="fill:#91DC5A;" cx="304.168" cy="281.028" rx="41.443" ry="18.728"/>
<path style="fill:#6DC82A;" d="M304.892,278.686c1.789-14.171,6.61-26.257,12.475-33.027c-2.194-3.291-4.901-5.348-7.999-5.739
	c-10.265-1.296-20.911,16.059-23.779,38.766c-2.868,22.706,3.129,42.163,13.393,43.46c3.858,0.487,7.771-1.662,11.303-5.739
	C305.211,308.796,302.89,294.537,304.892,278.686z"/>
<ellipse transform="matrix(0.891 0.4539 -0.4539 0.891 194.2403 -116.0987)" style="fill:#91DC5A;" cx="338.954" cy="346.554" rx="41.442" ry="18.728"/>
<path style="fill:#6DC82A;" d="M339.07,346.291c-13.541-6.898-23.693-16.222-27.617-24.409c-4.518,0.829-7.867,2.774-9.446,5.871
	c-4.697,9.219,8.028,25.114,28.421,35.502c20.392,10.388,40.731,11.336,45.428,2.117c1.578-3.098,1.182-6.95-0.804-11.093
	C366.122,355.919,352.611,353.189,339.07,346.291z"/>
<ellipse transform="matrix(0.9348 0.3551 -0.3551 0.9348 154.0654 -73.4024)" style="fill:#91DC5A;" cx="277" cy="383.014" rx="41.443" ry="18.728"/>
<path style="fill:#6DC82A;" d="M277.184,382.505c-14.099-5.356-25.143-13.448-29.985-21.113c-4.507,1.302-7.698,3.619-8.95,6.918
	c-3.674,9.672,10.692,24.101,32.087,32.227c21.395,8.127,41.717,6.873,45.391-2.798c1.253-3.298,0.405-7.149-2.102-11.116
	C304.914,389.141,291.283,387.86,277.184,382.505z"/>
<path style="fill:#5EAC24;" d="M195.268,429.57c-3.963-1.584-5.891-6.08-4.307-10.042c1.111-2.778,27.841-68.288,83.661-89.688
	c51.049-19.571,87.724-55.679,88.089-56.042c3.026-3.007,7.916-2.997,10.925,0.026c3.009,3.024,3.002,7.911-0.02,10.922
	c-1.577,1.572-39.25,38.739-93.463,59.523c-49.579,19.008-74.569,80.389-74.844,80.995
	C202.031,432.481,196.207,429.946,195.268,429.57z"/>
<ellipse transform="matrix(0.772 -0.6357 0.6357 0.772 -74.5584 309.8474)" style="fill:#91DC5A;" cx="394.579" cy="258.842" rx="41.446" ry="18.73"/>
<path style="fill:#6DC82A;" d="M395.035,259.377c11.581-9.536,24.015-15.106,33.06-15.563c1.148-4.619,0.73-8.592-1.535-11.343
	c-6.577-7.987-26.23-2.668-43.898,11.88c-17.668,14.548-26.658,32.816-20.081,40.803c2.265,2.752,6.084,3.923,10.839,3.683
	C375.602,280.047,383.454,268.913,395.035,259.377z"/>
<ellipse transform="matrix(-0.9864 -0.1644 0.1644 -0.9864 201.0124 661.0436)" style="fill:#91DC5A;" cx="127.861" cy="322.204" rx="41.444" ry="18.729"/>
<path style="fill:#6DC82A;" d="M127.783,322.672c-15.347-2.557-28.073-8.609-34.121-15.429c-3.735,2.115-6.131,4.869-6.676,8.136
	c-1.701,10.206,15.222,21.529,37.796,25.29c22.574,3.761,42.254-1.462,43.955-11.668c0.545-3.268-0.828-6.649-3.676-9.861
	C157.131,323.63,143.129,325.229,127.783,322.672z"/>
<path style="fill:#5EAC24;" d="M183.064,385.429c-0.129-0.385-12.895-39.085-34.07-80.612
	c-15.835-31.055-16.017-61.273-16.017-62.544c0-4.267,3.459-7.726,7.726-7.726c4.267,0,7.726,3.459,7.726,7.726
	c0.001,0.265,0.246,27.902,14.331,55.524c21.746,42.645,34.459,81.202,34.989,82.822c1.328,4.055-0.883,8.418-4.938,9.745
	C192.014,390.628,185.293,392.118,183.064,385.429z"/>
<ellipse transform="matrix(-0.2655 -0.9641 0.9641 -0.2655 -55.2965 426.9511)" style="fill:#91DC5A;" cx="134.986" cy="234.539" rx="41.444" ry="18.728"/>
<path style="fill:#6DC82A;" d="M135.004,234.539c-4.067-14.773-3.989-28.662-0.504-37.059c-3.6-2.681-7.228-3.793-10.525-2.886
	c-9.975,2.746-13.137,22.861-7.061,44.925c6.075,22.065,19.086,37.726,29.061,34.98c3.297-0.908,5.844-3.721,7.565-7.866
	C146.249,261.204,139.072,249.312,135.004,234.539z"/>
<path style="fill:#91DC5A;" d="M194.553,512c-6.678,0-12.52-4.892-13.517-11.695c-0.678-4.621-16.199-114.15,18.776-198.345
	c30.058-72.361,31.94-155.275,31.955-156.104c0.141-7.552,6.39-13.594,13.929-13.425c7.552,0.138,13.564,6.368,13.429,13.92
	c-0.064,3.59-1.939,88.816-34.045,166.106c-32.033,77.116-17.125,182.824-16.971,183.883c1.09,7.474-4.084,14.42-11.558,15.513
	C195.88,511.953,195.212,512,194.553,512z"/>
<path style="fill:#6DC82A;" d="M245.696,132.432c-7.539-0.169-13.788,5.873-13.929,13.425c-0.01,0.565-0.889,39.128-10.913,86.509
	c5.094,1.218,15.984,4.108,27.721,1.457c9.681-47.472,10.507-85.113,10.549-87.473C259.26,138.799,253.249,132.569,245.696,132.432z
	"/>
<path style="fill:#DDB200;" d="M344.418,63.238c-24.891,1.481-68.474,24.325-66.994,49.216
	c1.481,24.891,47.466,42.405,72.357,40.924c24.891-1.481,43.869-22.861,42.389-47.752S369.31,61.756,344.418,63.238z"/>
<path style="fill:#CCA400;" d="M382.841,80.72c-8.821-11.408-22.941-18.404-38.423-17.483
	c-24.891,1.481-68.474,24.325-66.994,49.216c0.595,10.008,8.389,18.822,19.109,25.69C333.718,127.512,364.395,106.935,382.841,80.72
	z"/>
<path style="fill:#DDB200;" d="M131.106,63.238c24.891,1.481,68.474,24.325,66.994,49.216s-47.466,42.405-72.357,40.924
	s-43.869-22.861-42.389-47.752C84.835,80.734,106.214,61.756,131.106,63.238z"/>
<path style="fill:#CCA400;" d="M92.682,80.72c8.821-11.408,22.941-18.404,38.423-17.483c24.891,1.481,68.474,24.325,66.994,49.216
	c-0.595,10.008-8.389,18.822-19.109,25.69C141.806,127.512,111.129,106.935,92.682,80.72z"/>
<path style="fill:#EEBF00;" d="M152.874,102.09c21.767-12.165,70.79-16.406,82.955,5.361c12.165,21.767-17.135,61.299-38.902,73.464
	s-49.275,4.381-61.439-17.385C123.324,141.763,131.106,114.254,152.874,102.09z"/>
<path style="fill:#DDB200;" d="M235.83,107.451c5.827,10.426,2.138,24.927-5.677,38.545c-35.715-1.086-68.47-10.82-94.674-26.503
	c3.936-7.067,9.816-13.167,17.396-17.403C174.642,89.925,223.665,85.683,235.83,107.451z"/>
<path style="fill:#EEBF00;" d="M322.65,102.09c-21.767-12.165-70.79-16.406-82.955,5.361
	c-12.165,21.767,17.135,61.299,38.902,73.464s49.275,4.381,61.439-17.385S344.416,114.254,322.65,102.09z"/>
<path style="fill:#DDB200;" d="M239.693,107.451c-5.827,10.426-2.138,24.927,5.677,38.545c35.715-1.086,68.47-10.82,94.674-26.503
	c-3.936-7.067-9.816-13.167-17.396-17.403C300.882,89.925,251.859,85.683,239.693,107.451z"/>
<path style="fill:#FFCD00;" d="M193.553,157.16c0.696-24.926,22.157-69.207,47.082-68.509c24.926,0.696,43.878,46.107,43.182,71.033
	c-0.696,24.926-21.468,44.568-46.394,43.871C212.497,202.857,192.855,182.086,193.553,157.16z"/>
<path style="fill:#EEBF00;" d="M281.743,141.764c-5.52-24.189-21.459-52.545-41.116-53.095
	c-20.432-0.571-38.532,29.077-44.779,53.515C206.874,144.335,238.795,150.075,281.743,141.764z"/>
<path style="fill:#FFDA44;" d="M213.178,26.405c17.299,17.959,33.863,64.295,15.904,81.593s-63.641-0.989-80.94-18.948
	s-16.763-46.542,1.196-63.84S195.879,8.445,213.178,26.405z"/>
<path style="fill:#FFCD00;" d="M170.485,13.743c-4.365,9.583-6.818,20.213-6.818,31.412c0,39.835,19.601,63.486,20.808,65.353
	c17.061,5.787,34.891,6.855,44.608-2.504c17.959-17.299,1.395-63.633-15.904-81.593C201.762,14.559,185.433,10.3,170.485,13.743z"/>
<path style="fill:#FFDA44;" d="M266.266,26.405c-17.299,17.959-33.863,64.295-15.904,81.593s63.641-0.989,80.94-18.948
	s16.763-46.542-1.196-63.84S283.565,8.445,266.266,26.405z"/>
<path style="fill:#FFCD00;" d="M308.96,13.743c4.365,9.583,6.818,20.213,6.818,31.412c0,36.744-19.601,63.486-20.808,65.353
	c-17.061,5.787-34.891,6.855-44.608-2.504c-17.959-17.299-1.395-63.633,15.904-81.593C277.682,14.559,294.012,10.3,308.96,13.743z"
	/>
<path style="fill:#FFE477;" d="M284.872,45.15c0,24.936-20.214,69.799-45.15,69.799s-45.15-44.862-45.15-69.799S214.787,0,239.722,0
	S284.872,20.214,284.872,45.15z"/>
<g>
</g>
<g>
</g>
<g>
</g>
<g>
</g>
<g>
</g>
<g>
</g>
<g>
</g>
<g>
</g>
<g>
</g>
<g>
</g>
<g>
</g>
<g>
</g>
<g>
</g>
<g>
</g>
<g>
</g>
</svg>
