<svg id="Capa_1" enable-background="new 0 0 512 512" height="300" viewBox="0 0 512 512" width="300" xmlns="http://www.w3.org/2000/svg" version="1.1" xmlns:xlink="http://www.w3.org/1999/xlink" xmlns:svgjs="http://svgjs.dev/svgjs"><g width="100%" height="100%" transform="matrix(1,0,0,1,0,0)"><g><g><g><path d="m71.626 357.099h42.093v96.636h-42.093z" fill="#f6a96c" fill-opacity="1" data-original-color="#f6a96cff" stroke="none" stroke-opacity="1"/></g></g><g><g><path d="m142.005 357.099h49.019v96.636h-49.019z" fill="#f6a96c" fill-opacity="1" data-original-color="#f6a96cff" stroke="none" stroke-opacity="1"/></g></g><g><g><path d="m407.198 357.099h42.093v96.636h-42.093z" fill="#f6a96c" transform="matrix(-1 0 0 -1 856.489 810.834)" fill-opacity="1" data-original-color="#f6a96cff" stroke="none" stroke-opacity="1"/></g></g><g><g><path d="m321.653 357.099h49.019v96.636h-49.019z" fill="#f6a96c" transform="matrix(-1 0 0 -1 692.324 810.834)" fill-opacity="1" data-original-color="#f6a96cff" stroke="none" stroke-opacity="1"/></g></g><g><g><path d="m226.706 338.376h58.516v115.359h-58.516z" fill="#f6a96c" fill-opacity="1" data-original-color="#f6a96cff" stroke="none" stroke-opacity="1"/></g></g><g><g><path d="m428.245 372.4-55.681-112.092 52.84-78.673c1.54-2.319 4.98-2.211 6.372.199l35.498 61.484c1.443 2.5-.361 5.625-3.248 5.625h-10.157c-2.887 0-4.691 3.125-3.248 5.625l30.688 53.153c1.443 2.5-.361 5.625-3.248 5.625h-9.411c-2.887 0-4.691 3.125-3.248 5.625l27.599 47.802c1.443 2.5-.361 5.625-3.248 5.625h-61.508z" fill="#3ec3a4" fill-opacity="1" data-original-color="#3ec3a4ff" stroke="none" stroke-opacity="1"/></g></g><g><g><path d="m80.113 372.4 74.761-96.22-59.36-94.544c-1.54-2.319-4.98-2.211-6.372.199l-35.498 61.485c-1.443 2.5.361 5.625 3.248 5.625h10.157c2.887 0 4.691 3.125 3.248 5.625l-30.688 53.153c-1.443 2.5.361 5.625 3.248 5.625h9.411c2.887 0 4.691 3.125 3.248 5.625l-27.599 47.802c-1.443 2.5.361 5.625 3.248 5.625z" fill="#3ec3a4" fill-opacity="1" data-original-color="#3ec3a4ff" stroke="none" stroke-opacity="1"/></g></g><g><g><path d="m159.457 372.4 87.404-161.937-76.341-106.413c-1.84-2.771-5.953-2.637-7.608.249l-43.113 75.161c-1.711 2.983.442 6.7 3.881 6.7h16.941c3.449 0 5.601 3.738 3.869 6.72l-52.057 89.67c-1.829 3.15.444 7.098 4.087 7.098h14.999c3.638 0 5.911 3.938 4.093 7.089l-39.591 68.573c-1.819 3.15.455 7.089 4.093 7.089h79.343z" fill="#9be69d" fill-opacity="1" data-original-color="#9be69dff" stroke="none" stroke-opacity="1"/></g></g><g><g><path d="m346.162 372.4-79.278-164.306 75.272-104.044c1.84-2.771 5.953-2.637 7.608.249l43.113 75.161c1.711 2.983-.442 6.7-3.881 6.7h-16.941c-3.449 0-5.601 3.738-3.869 6.72l52.057 89.67c1.829 3.15-.444 7.098-4.087 7.098h-14.999c-3.638 0-5.911 3.938-4.093 7.089l39.591 68.573c1.819 3.15-.455 7.089-4.093 7.089h-86.4z" fill="#9be69d" fill-opacity="1" data-original-color="#9be69dff" stroke="none" stroke-opacity="1"/></g></g><path d="m436.656 365.312-39.591-68.573c-1.819-3.15.455-7.089 4.093-7.089h14.999c3.643 0 5.916-3.948 4.087-7.098l-52.057-89.671c-1.732-2.983.421-6.72 3.869-6.72h16.941c3.439 0 5.592-3.718 3.881-6.701l-43.113-75.16c-1.655-2.885-5.768-3.02-7.608-.248l-13.037 18.135 32.853 57.274c1.711 2.983-.442 6.701-3.881 6.701h-16.942c-3.449 0-5.601 3.737-3.869 6.72l52.057 89.671c1.829 3.15-.444 7.098-4.087 7.098h-14.999c-3.638 0-5.911 3.938-4.093 7.089l39.591 68.573c1.819 3.15-.455 7.089-4.093 7.089h30.905c3.639-.002 5.913-3.94 4.094-7.09z" fill="#6fd7a3" fill-opacity="1" data-original-color="#6fd7a3ff" stroke="none" stroke-opacity="1"/><g><g><path d="m358.895 361.276-42.389-73.42c-2.855-4.944.714-11.125 6.423-11.125h10.601c5.709 0 9.278-6.18 6.423-11.125l-47.394-82.089c-2.855-4.944.714-11.125 6.423-11.125h11.809c5.709 0 9.278-6.181 6.423-11.125l-54.827-94.962c-2.855-4.944-9.991-4.944-12.846 0l-54.826 94.962c-2.855 4.944.714 11.125 6.423 11.125h11.809c5.709 0 9.278 6.18 6.423 11.125l-47.394 82.089c-2.855 4.944.714 11.125 6.423 11.125h10.601c5.709 0 9.278 6.181 6.423 11.125l-42.389 73.42c-2.855 4.944.714 11.125 6.423 11.125h193.016c5.708-.001 9.277-6.181 6.422-11.125z" fill="#3ec3a4" fill-opacity="1" data-original-color="#3ec3a4ff" stroke="none" stroke-opacity="1"/></g></g><g><g><path d="m493.002 366.775-27.599-47.802c-1.443-2.5.361-5.625 3.248-5.625h9.411c2.887 0 4.691-3.125 3.248-5.625l-30.688-53.153c-1.443-2.5.361-5.625 3.248-5.625h10.157c2.887 0 4.691-3.125 3.248-5.625l-35.498-61.484c-1.392-2.41-4.832-2.518-6.372-.199l-13.185 19.856 24.149 41.827c1.443 2.5-.361 5.625-3.248 5.625h-10.157c-2.887 0-4.691 3.125-3.248 5.625l30.688 53.153c1.443 2.5-.361 5.625-3.248 5.625h-9.411c-2.887 0-4.691 3.125-3.248 5.625l27.599 47.802c1.444 2.5-.361 5.625-3.248 5.625h30.905c2.888 0 4.692-3.125 3.249-5.625z" fill="#0bb494" fill-opacity="1" data-original-color="#0bb494ff" stroke="none" stroke-opacity="1"/></g></g><g><g><path d="m462.16 38.831h-29.09c-1.242 0-2.309-.849-2.624-2.051-2.79-10.646-12.47-18.501-23.991-18.501-4.744 0-9.174 1.334-12.942 3.644-1.195.733-2.728.388-3.58-.725-5.529-7.233-14.371-11.797-24.265-11.409-14.69.576-26.812 12.312-27.825 26.978-1.172 16.985 12.259 31.127 28.993 31.127h95.324c8.026 0 14.532-6.506 14.532-14.532-.001-8.024-6.507-14.531-14.532-14.531z" fill="#c7dbea" fill-opacity="1" data-original-color="#60b7ffff" stroke="none" stroke-opacity="1"/></g></g><g><g><path d="m3.64 502.233h504.72c2.01 0 3.64-1.63 3.64-3.64v-63.874c0-2.01-1.63-3.64-3.64-3.64h-504.72c-2.01 0-3.64 1.63-3.64 3.64v63.874c0 2.01 1.63 3.64 3.64 3.64z" fill="#ffe5c2" fill-opacity="1" data-original-color="#ffe5c2ff" stroke="none" stroke-opacity="1"/></g></g><g><g><path d="m508.25 431.079h-27.155c0 22.228-18.02 40.248-40.248 40.248h-440.847v27.156c0 2.071 1.679 3.749 3.749 3.749h504.501c2.071 0 3.75-1.679 3.75-3.75v-63.654c0-2.07-1.679-3.749-3.75-3.749z" fill="#fed2a4" fill-opacity="1" data-original-color="#fed2a4ff" stroke="none" stroke-opacity="1"/></g></g><g><g><circle cx="102.218" cy="52.188" fill="#ffd076" r="32.052" fill-opacity="1" data-original-color="#fec165ff" stroke="none" stroke-opacity="1"/></g></g><g><g><path d="m358.895 361.276-42.389-73.42c-2.855-4.944.714-11.125 6.423-11.125h10.601c5.709 0 9.278-6.181 6.423-11.125l-47.394-82.09c-2.855-4.944.714-11.125 6.423-11.125h11.809c5.709 0 9.278-6.181 6.423-11.125l-54.827-94.962c-2.855-4.944-9.991-4.944-12.846 0l-9.03 15.64 45.797 79.322c2.855 4.944-.714 11.125-6.423 11.125h-11.809c-5.709 0-9.278 6.181-6.423 11.125l47.394 82.09c2.855 4.944-.714 11.125-6.423 11.125h-10.601c-5.71 0-9.278 6.181-6.423 11.125l42.389 73.42c2.855 4.944-.714 11.125-6.423 11.125h30.905c5.71-.001 9.279-6.181 6.424-11.125z" fill="#0bb494" fill-opacity="1" data-original-color="#0bb494ff" stroke="none" stroke-opacity="1"/></g></g></g></g></svg>