<svg id="Capa_1" enable-background="new 0 0 512 512" height="300" viewBox="0 0 512 512" width="300" xmlns="http://www.w3.org/2000/svg" version="1.1" xmlns:xlink="http://www.w3.org/1999/xlink" xmlns:svgjs="http://svgjs.dev/svgjs"><g width="100%" height="100%" transform="matrix(1,0,0,1,0,0)"><g><path d="m512 283.432c0-1.051-.327-2.081-.942-2.933-49.841-69.142-129.904-94.763-197.21-62.93-23.64 11.181-46.496 28.978-71.529 28.919-34.968-.083-64.267-34.525-97.404-49.693-52.355-23.966-115.406 7.003-144.464 70.774-.298.656-.451 1.373-.451 2.094v164.653c0 2.761 2.239 5 5 5h41.789c2.761 0 465.211-67.938 465.211-70.699z" fill="#3d6b4d" fill-opacity="1" data-original-color="#68b181ff" stroke="none" stroke-opacity="1"/><path d="m429.85 318.15h29.586v83.532h-29.586z" fill="#965731" fill-opacity="1" data-original-color="#8c818fff" stroke="none" stroke-opacity="1"/><path d="m488.685 328.15c2.581 0 4.639-2.486 4.553-5.476-2.598-90.34-23.358-160.727-48.584-160.727s-45.988 70.387-48.586 160.727c-.086 2.99 1.972 5.476 4.553 5.476z" fill="#79bf33" fill-opacity="1" data-original-color="#bce097ff" stroke="none" stroke-opacity="1"/><path d="m444.654 161.948c-4.855 0-9.542 2.62-13.969 7.475 18.573 20.371 32.514 80.299 34.611 153.252.086 2.99-1.972 5.476-4.553 5.476h27.942c2.581 0 4.639-2.486 4.553-5.476-2.597-90.341-23.357-160.727-48.584-160.727z" fill="#599620" fill-opacity="1" data-original-color="#9cd169ff" stroke="none" stroke-opacity="1"/><path d="m311.4 300.254h34.071v98.628h-34.071z" fill="#ffeed2" fill-opacity="1" data-original-color="#ffeed2ff" stroke="none" stroke-opacity="1"/><path d="m280.831 299.394v-175.163c0-26.291 21.313-47.604 47.604-47.604s47.604 21.313 47.604 47.604v175.163c0 5.445-4.414 9.86-9.86 9.86h-75.488c-5.445 0-9.86-4.415-9.86-9.86z" fill="#9cd85e" fill-opacity="1" data-original-color="#acd980ff" stroke="none" stroke-opacity="1"/><g fill="#8cc951"><path d="m328.435 76.628c-4.703 0-9.242.693-13.533 1.963 19.696 5.832 34.071 24.053 34.071 45.64v175.163c0 5.445-4.414 9.86-9.86 9.86h27.066c5.445 0 9.86-4.415 9.86-9.86v-175.163c0-26.29-21.313-47.603-47.604-47.603z" fill="#679e39" fill-opacity="1" data-original-color="#8cc951ff" stroke="none" stroke-opacity="1"/><path d="m309.055 154.398c-1.139 0-2.292-.291-3.349-.902-3.201-1.853-4.293-5.949-2.441-9.15 3.19-5.511 9.123-8.935 15.482-8.935 4.778 0 9.269 1.861 12.644 5.241 1.097 1.097 2.052 2.339 2.835 3.689 1.856 3.199.767 7.296-2.433 9.152-3.197 1.855-7.296.768-9.152-2.433-.2-.345-.444-.662-.723-.941-.848-.849-1.973-1.315-3.172-1.315-1.597 0-3.088.863-3.892 2.252-1.239 2.144-3.487 3.342-5.799 3.342z" fill="#679e39" fill-opacity="1" data-original-color="#8cc951ff" stroke="none" stroke-opacity="1"/><path d="m333.535 239.745c-1.139 0-2.292-.291-3.349-.902-3.201-1.853-4.293-5.949-2.441-9.15 3.19-5.511 9.122-8.934 15.482-8.934 4.778 0 9.269 1.861 12.644 5.24 1.097 1.097 2.051 2.338 2.834 3.688 1.857 3.198.769 7.296-2.43 9.152-3.197 1.858-7.296.769-9.152-2.43-.201-.347-.445-.663-.724-.943-.848-.849-1.974-1.315-3.172-1.315-1.597 0-3.088.863-3.891 2.251-1.241 2.145-3.489 3.343-5.801 3.343z" fill="#679e39" fill-opacity="1" data-original-color="#8cc951ff" stroke="none" stroke-opacity="1"/></g><path d="m317.678 309.579c-2.44-1.758-2.728-5.265-.548-7.336 8.042-7.636 10.704-12.657 9.293-20.734-1.511-8.648-7.713-18.423-18.924-21.643-3.17-.91-4.813-4.334-3.595-7.399 6.836-17.2 1.952-37.257-5.972-41.756-3.79-2.152-6.118-6.246-5.988-10.603.367-12.349-4.216-21.844-9.071-23.449-4.127-1.365-6.947-5.177-7.613-9.473-3.285-21.184-8.842-35.11-15.145-35.11s-11.86 13.926-15.145 35.11c-.666 4.296-3.486 8.108-7.613 9.473-4.855 1.606-9.438 11.101-9.071 23.449.13 4.357-2.198 8.451-5.988 10.603-7.924 4.499-12.808 24.556-5.972 41.756 1.218 3.065-.425 6.488-3.595 7.399-11.21 3.22-17.413 12.995-18.924 21.643-1.411 8.078 1.251 13.098 9.293 20.734 2.181 2.071 1.892 5.577-.548 7.336-4.553 3.281-7.127 7.001-7.127 10.945 0 13.247 28.962 23.985 64.689 23.985s64.689-10.738 64.689-23.985c.002-3.944-2.572-7.664-7.125-10.945z" fill="#9cd85e" fill-opacity="1" data-original-color="#acd980ff" stroke="none" stroke-opacity="1"/><path d="m317.678 309.579c-2.44-1.758-2.728-5.265-.548-7.336 8.042-7.636 10.704-12.657 9.293-20.734-1.511-8.648-7.713-18.423-18.924-21.643-3.17-.91-4.813-4.334-3.595-7.399 6.836-17.2 1.952-37.257-5.972-41.756-3.79-2.152-6.118-6.246-5.988-10.603.367-12.349-4.216-21.844-9.071-23.449-4.127-1.365-6.947-5.177-7.613-9.473-3.285-21.184-8.842-35.11-15.145-35.11-4.272 0-8.201 6.403-11.312 17.123 1.479 5.096 2.775 11.162 3.833 17.987.666 4.296 3.486 8.108 7.613 9.473 4.855 1.606 9.438 11.101 9.071 23.449-.13 4.357 2.198 8.451 5.988 10.603 7.924 4.499 12.808 24.556 5.972 41.756-1.218 3.064.425 6.488 3.595 7.399 11.21 3.22 17.413 12.995 18.924 21.643 1.411 8.078-1.251 13.098-9.293 20.734-2.181 2.071-1.892 5.577.548 7.336 4.553 3.281 7.127 7.001 7.127 10.945 0 11.815-23.047 21.628-53.377 23.612 3.675.241 7.451.373 11.312.373 35.727 0 64.689-10.738 64.689-23.985 0-3.944-2.574-7.664-7.127-10.945z" fill="#679e39" fill-opacity="1" data-original-color="#8cc951ff" stroke="none" stroke-opacity="1"/><path d="m287.103 298.334c-2.615-2.615-6.855-2.615-9.47 0l-10.82 10.82v-54.824l15.34-15.34c2.615-2.615 2.615-6.855 0-9.47-2.616-2.615-6.855-2.615-9.47 0l-5.87 5.87v-34.457c0-3.698-2.998-6.696-6.696-6.696s-6.696 2.998-6.696 6.696v67.484l-5.804-5.804c-2.615-2.615-6.855-2.615-9.47 0s-2.615 6.855 0 9.47l15.274 15.274v99.443c0 3.698 2.998 6.696 6.696 6.696s6.696-2.998 6.696-6.696v-58.706l20.29-20.29c2.615-2.615 2.615-6.855 0-9.47z" fill="#965731" fill-opacity="1" data-original-color="#8c818fff" stroke="none" stroke-opacity="1"/><path d="m512 434.316v-65.699c-83.084-9.641-167.474-14.99-249.888-.082-60.704 10.981-120.636 33.78-171.373 70.781h416.261c2.761 0 5-2.238 5-5z" fill="#e08f43" fill-opacity="1" data-original-color="#cf9875ff" stroke="none" stroke-opacity="1"/><path d="m66.809 299.978h30.43v119.614h-30.43z" fill="#e08f43" fill-opacity="1" data-original-color="#cf9875ff" stroke="none" stroke-opacity="1"/><path d="m132.863 309.978h-101.678c-5.457 0-9.843-4.127-9.715-9.13 2.411-93.63 22.544-175.131 52.06-223.587 3.718-6.104 13.268-6.104 16.987 0 29.517 48.456 49.649 129.957 52.06 223.587.129 5.004-4.257 9.13-9.714 9.13z" fill="#9cd85e" fill-opacity="1" data-original-color="#acd980ff" stroke="none" stroke-opacity="1"/><path d="m90.517 77.262c-3.718-6.104-13.268-6.104-16.987 0-2.084 3.422-4.116 7.026-6.104 10.77 26.162 49.275 43.715 125.799 45.956 212.817.129 5.003-4.258 9.13-9.715 9.13h29.194c5.457 0 9.843-4.127 9.715-9.13-2.41-93.63-22.542-175.131-52.059-223.587z" fill="#679e39" fill-opacity="1" data-original-color="#8cc951ff" stroke="none" stroke-opacity="1"/><path d="m43.546 439.316h152.45c19.388-8.703 31.675-24.462 27.608-35.741-3.712-10.296-19.797-13.391-37.581-7.961-1.677.512-3.206-1.166-2.499-2.771 4.294-9.744 4.595-19.36-.117-25.884-7.879-10.909-26.93-9.241-43.552 3.394-1.136.863-2.768.336-3.206-1.021-3.66-11.324-9.852-18.773-16.878-18.773-7.027 0-13.218 7.449-16.878 18.773-.439 1.357-2.071 1.884-3.206 1.021-16.622-12.635-35.673-14.302-43.552-3.394-4.712 6.524-4.412 16.141-.117 25.884.707 1.605-.822 3.283-2.499 2.771-17.784-5.43-33.869-2.335-37.581 7.961-4.067 11.28 8.22 27.038 27.608 35.741z" fill="#9cd85e" fill-opacity="1" data-original-color="#acd980ff" stroke="none" stroke-opacity="1"/><path d="m507 439.316c2.761 0 5-2.239 5-5v-65.699c-48.081-5.579-96.598-9.711-144.917-9.322 80.908 8.948 165.679 31.133 130.982 80.021z" fill="#ba6c09" fill-opacity="1" data-original-color="#c7865bff" stroke="none" stroke-opacity="1"/></g></g></svg>