<svg id="Capa_1" enable-background="new 0 0 512 512" height="512" viewBox="0 0 512 512" width="512" xmlns="http://www.w3.org/2000/svg"><g><g><path d="m512 107.551v48.316l-.021 235.592h-511.979l.021-242.783v-51.52c0-28.67 23.241-51.901 51.901-51.901 14.474 0 27.557 5.924 36.963 15.473 7.067-2.081 14.536-3.214 22.273-3.214 43.587 0 78.932 35.346 78.932 78.943 0 9.735-1.782 19.069-5.007 27.681 8.726.639 16.73 3.853 23.262 8.88 7.953-9.673 20.016-15.844 33.522-15.844 7.603 0 14.742 1.957 20.954 5.388-.824-4.378-1.267-8.88-1.267-13.495 0-36.304 26.517-66.405 61.244-72.02-1.514-20.645 11.971-40.002 32.729-45.194 16.73-4.182 33.615 1.957 43.937 14.392 11.404-7.366 24.982-11.662 39.569-11.662 40.3 0 72.967 32.667 72.967 72.968z" fill="#eaf6ff"/><path d="m512 391.456v-242.396c0-40.301-32.671-72.972-72.972-72.972-14.588 0-28.164 4.298-39.565 11.671-10.321-12.436-27.207-18.58-43.932-14.397-20.766 5.193-34.244 24.55-32.737 45.193-34.723 5.613-61.242 35.714-61.242 72.021 0 4.614.448 9.122 1.267 13.499-6.212-3.434-13.352-5.393-20.952-5.393-13.507 0-25.57 6.174-33.526 15.852-6.531-5.036-14.535-8.247-23.258-8.883 3.229-8.617 5.005-17.943 5.005-27.687 0-43.594-35.34-78.934-78.934-78.934-7.735 0-15.202 1.132-22.266 3.206-9.413-9.551-22.493-15.476-36.962-15.476-28.668 0-51.907 23.24-51.907 51.907v252.788h511.981z" fill="#d9ecfd"/><g><path d="m512 137.91v17.956c-2.102 0-4.203-.855-5.728-2.545-4.904-5.408-12.486-7.242-19.316-4.656-6.82 2.586-11.291 8.973-11.383 16.287-.052 4.234-3.503 7.623-7.726 7.623h-.093c-4.265-.052-7.685-3.554-7.634-7.819.165-13.701 8.561-25.693 21.366-30.545 10.384-3.934 21.696-2.42 30.514 3.699z" fill="#eaf6ff"/></g><path d="m87.854 182.558c-3.719 2.102-8.437.804-10.539-2.915-5.553-9.797-16.349-15.102-27.496-13.506-11.147 1.587-20.027 9.704-22.613 20.665-.845 3.554-4.018 5.944-7.52 5.944-.587 0-1.185-.062-1.782-.206-4.152-.979-6.717-5.141-5.738-9.292 3.111-13.176 12.012-23.715 23.869-29.051-1.246-5.759-5.285-10.559-10.982-12.723-6.82-2.575-14.402-.752-19.306 4.667-1.525 1.679-3.626 2.534-5.728 2.534v-17.945c8.808-6.119 20.13-7.634 30.504-3.698 10.549 3.987 18.08 12.815 20.521 23.457 16.246-1.03 31.565 7.17 39.713 21.531 2.104 3.718.806 8.426-2.903 10.538z" fill="#eaf6ff"/></g><g><g><path d="m458.753 323.119c-4.268 0-7.726-3.459-7.726-7.726v-48.313c0-4.268 3.459-7.726 7.726-7.726 4.268 0 7.726 3.459 7.726 7.726v48.312c0 4.268-3.459 7.727-7.726 7.727z" fill="#aa5e33"/><path d="m495.802 269.871h-74.098c-6.595 0-10.538-7.317-6.925-12.834 16.979-25.929 30.912-65.682 39.898-113.92.844-4.528 7.308-4.528 8.152 0 8.986 48.238 22.919 87.99 39.898 113.92 3.613 5.517-.33 12.834-6.925 12.834z" fill="#138b80"/><path d="m495.802 269.872h-23.954c6.6 0 10.539-7.316 6.927-12.831-12.606-19.247-23.535-46.118-31.997-78.432 2.947-11.204 5.587-23.074 7.899-35.496.839-4.523 7.306-4.523 8.155 0 8.984 48.246 22.91 87.999 39.896 113.928 3.614 5.514-.336 12.831-6.926 12.831z" fill="#127e73"/></g></g><g><g><g><g><path d="m385.96 307.68c-4.268 0-7.726-3.459-7.726-7.726v-30.122c0-4.268 3.459-7.726 7.726-7.726s7.726 3.459 7.726 7.726v30.122c0 4.267-3.459 7.726-7.726 7.726z" fill="#aa5e33"/><path d="m512 387.975v-66.209s-192.065-55.295-307.931 16.552v49.657z" fill="#20b69f"/><path d="m512 321.768v41.489s-98.919-59.143-237.652-52.872c109.961-25.384 237.652 11.383 237.652 11.383z" fill="#17998c"/><path d="m0 362.236s73.59-61.536 164.404-61.536c133.611 0 177.452 82.638 347.596 82.638v87.813c0 5.69-4.612 10.302-10.302 10.302h-491.396c-5.69.001-10.302-4.612-10.302-10.301z" fill="#bcea73"/><g fill="#99d53b"><ellipse cx="106.189" cy="344.181" rx="42.601" ry="15.371"/><ellipse cx="167.297" cy="336.114" rx="42.601" ry="15.371"/><ellipse cx="260.46" cy="436.684" rx="50.561" ry="15.371"/><path d="m512 383.342v42.089c-54.888 6.768-123.233-16.084-166.292-42.886-125.385-78.047-178.611-81.812-181.214-81.843 133.535.036 177.399 82.64 347.506 82.64z"/></g></g><g fill="#99d53b"><path d="m78.938 408.641c-.877 0-1.77-.151-2.642-.468-4.01-1.46-6.077-5.893-4.618-9.903l2.768-7.603c1.461-4.01 5.892-6.074 9.903-4.618 4.01 1.46 6.077 5.893 4.618 9.903l-2.768 7.603c-1.143 3.138-4.105 5.086-7.261 5.086z"/><path d="m58.681 408.641c-3.176 0-6.152-1.973-7.279-5.137l-2.707-7.603c-1.432-4.019.667-8.439 4.687-9.87 4.017-1.43 8.439.667 9.87 4.687l2.707 7.603c1.432 4.019-.667 8.439-4.687 9.87-.855.305-1.731.45-2.591.45z"/></g></g></g></g><g><g><path d="m158.168 340.383c-4.268 0-7.726-3.459-7.726-7.726v-63.618c0-4.268 3.459-7.726 7.726-7.726 4.268 0 7.726 3.459 7.726 7.726v63.618c0 4.267-3.458 7.726-7.726 7.726z" fill="#c76d3d"/><ellipse cx="163.209" cy="204.683" fill="#1ec186" rx="46.69" ry="64.356"/><path d="m209.897 204.685c0 35.542-20.905 64.351-46.688 64.351-5.317 0-10.419-1.219-15.181-3.479 18.333-8.679 31.507-32.655 31.507-60.872s-13.173-52.193-31.507-60.881c4.762-2.251 9.864-3.479 15.181-3.479 25.783 0 46.688 28.818 46.688 64.36z" fill="#1eb07c"/></g></g><g><g><path d="m101.471 344.916c-4.268 0-7.726-3.459-7.726-7.726v-55.782c0-4.268 3.459-7.726 7.726-7.726s7.726 3.459 7.726 7.726v55.782c0 4.268-3.459 7.726-7.726 7.726z" fill="#c76d3d"/><path d="m145.759 220.361c0 33.715-19.829 61.047-44.289 61.047s-44.289-18.06-44.289-51.775 19.829-70.319 44.289-70.319 44.289 27.332 44.289 61.047z" fill="#a3e440"/><path d="m145.758 220.363c0 33.715-19.83 61.042-44.287 61.042-5.044 0-9.884-1.157-14.4-3.3 17.391-8.233 29.887-30.976 29.887-57.742s-12.496-49.509-29.887-57.75c4.517-2.135 9.356-3.3 14.4-3.3 24.457 0 44.287 27.335 44.287 61.05z" fill="#99d53b"/></g></g><g><g><path d="m264.506 438.354c-4.268 0-7.726-3.459-7.726-7.726v-59.307c0-4.268 3.459-7.726 7.726-7.726s7.726 3.459 7.726 7.726v59.307c0 4.267-3.458 7.726-7.726 7.726z" fill="#c76d3d"/><ellipse cx="264.506" cy="307.772" fill="#a3e440" rx="50.588" ry="69.729"/><path d="m315.092 307.775c0 38.51-22.65 69.724-50.586 69.724-5.761 0-11.289-1.321-16.448-3.769 19.864-9.404 34.137-35.382 34.137-65.954s-14.273-56.55-34.137-65.964c5.159-2.438 10.687-3.769 16.448-3.769 27.936-.002 50.586 31.222 50.586 69.732z" fill="#99d53b"/></g></g><g fill="#99d53b"><path d="m191.615 396.419c-.877 0-1.769-.15-2.641-.468-4.01-1.459-6.077-5.892-4.619-9.902l2.767-7.603c1.459-4.01 5.89-6.08 9.902-4.619 4.01 1.459 6.077 5.892 4.619 9.902l-2.767 7.603c-1.142 3.139-4.104 5.087-7.261 5.087z"/><path d="m171.357 396.419c-3.176 0-6.153-1.974-7.279-5.138l-2.706-7.603c-1.432-4.019.668-8.439 4.688-9.869 4.018-1.43 8.439.667 9.869 4.688l2.706 7.603c1.432 4.019-.668 8.439-4.688 9.869-.855.306-1.73.45-2.59.45z"/></g><g><g><path d="m431.799 269.832h-90.481c-8.053 0-12.868-8.934-8.456-15.672 20.733-31.662 37.747-80.204 48.72-139.107 1.03-5.529 8.924-5.529 9.954 0 10.973 58.903 27.987 107.445 48.72 139.107 4.41 6.737-.404 15.672-8.457 15.672z" fill="#1ec186"/><path d="m431.793 269.832h-32.774c8.059 0 12.87-8.934 8.459-15.669-14.531-22.191-27.239-52.69-37.31-89.225 4.311-15.581 8.122-32.274 11.408-49.879 1.037-5.535 8.934-5.535 9.958 0 10.97 58.9 27.988 107.443 48.717 139.104 4.412 6.735-.399 15.669-8.458 15.669z" fill="#1eb07c"/></g></g></g></svg>