<svg id="Capa_1" enable-background="new 0 0 512 512" height="300" viewBox="0 0 512 512" width="300" xmlns="http://www.w3.org/2000/svg" version="1.1" xmlns:xlink="http://www.w3.org/1999/xlink" xmlns:svgjs="http://svgjs.dev/svgjs"><g width="100%" height="100%" transform="matrix(1,0,0,1,0,0)"><g><path d="m481.014 391.423-8.973-41.615c-4.393-20.372-17.385-37.848-35.628-47.924l-12.255-6.769c-13.114-7.243-24.907-16.654-34.881-27.832-25.192-28.236-61.235-44.382-99.076-44.382h-44.775l-23.27 1.872c-37.841 0-92.353 47.655-92.353 47.655-9.973 11.179-23.698 17.505-36.812 24.748l-12.255 6.769c-18.243 10.076-31.234 27.551-35.627 47.924l-8.974 41.615c-2.697 12.507-9.893 23.412-19.986 30.802-7.019 5.14-10.999 13.459-10.999 22.159l-1.15 26.007c0 3.983 3.229 7.211 7.211 7.211l22.783 3.26h470.793c3.983 0 7.211-3.229 7.211-7.211v-34.804c0-7.116-3.655-13.649-9.538-17.651-10.857-7.388-18.62-18.731-21.446-31.834z" fill="#44b1ff" fill-opacity="1" data-original-color="#6ba6ddff" stroke="none" stroke-opacity="1"/><path d="m255.794 222.903c-37.839 0-73.885 16.143-99.073 44.38-4.986 5.594-10.425 10.735-16.267 15.391-5.831 4.656-12.053 8.829-18.615 12.445l-12.259 6.768c-18.245 10.075-31.235 27.547-35.624 47.924l-8.973 41.609c-2.699 12.507-9.9 23.416-19.986 30.803-7.026 5.141-11.002 13.464-11.002 22.159v38.539h-26.784c-3.987 0-7.211-3.224-7.211-7.211v-31.328c0-8.695 3.976-17.019 11.002-22.159 10.085-7.387 17.286-18.296 19.986-30.803l8.973-41.609c4.389-20.377 17.379-37.849 35.624-47.924l12.259-6.768c6.562-3.616 12.785-7.788 18.615-12.445 5.841-4.656 11.28-9.797 16.267-15.391 25.188-28.237 61.234-44.38 99.072-44.38z" fill="#436fb0" fill-opacity="1" data-original-color="#5e96d3ff" stroke="none" stroke-opacity="1"/><path d="m74.911 111.832 43.549-74.528c1.942-3.259 6.622-3.371 8.718-.208l5.975 4.174 40.067 60.449c.721 1.087 2.258 1.24 3.178.315l19.767-19.861c2.217-2.227 5.894-1.968 7.776.548l31.087 41.91 1.819 16.32 17.065 9.133-22.898 17.285s-105.873 4.758-137.276 30.981z" fill="#7a7473" fill-opacity="1" data-original-color="#7a7473ff" stroke="none" stroke-opacity="1"/><path d="m135.16 180.614c-17.122 4.399-32.368 10.178-41.424 17.74l-13.351-61.358-6.768-31.132 23.571-39.549 20.696-34.727c1.947-3.255 6.624-3.369 8.715-.206l6.554 9.888-23.976 43.496c-.622 1.129-.67 2.48-.149 3.659 2.533 5.729 4.755 11.615 6.651 17.635 1.401 4.46 1.656 9.158.817 13.653-.195 1.044.034 2.118.627 2.999 3.812 5.661 8.263 13.357 11.64 20.774 3.455 7.594 3.534 16.124.382 23.639-.519 1.238-.391 2.644.325 3.779 1.999 3.173 3.902 6.409 5.69 9.71z" fill="#706766" fill-opacity="1" data-original-color="#706766ff" stroke="none" stroke-opacity="1"/><path d="m253.909 150.09-22.901 17.276s-16.916.762-39.24 3.358l43.259-46.091z" fill="#706766" fill-opacity="1" data-original-color="#706766ff" stroke="none" stroke-opacity="1"/><path d="m390.863 106.72-38.138-46.113-10.007-6.256c-1.968-2.418-5.617-2.546-7.75-.273l-100.774 110.891s143.398 3.997 154.682 14.379z" fill="#878382" fill-opacity="1" data-original-color="#878382ff" stroke="none" stroke-opacity="1"/><path d="m352.725 60.607-98.26 104.698c-16.864-.731-28.34-1.092-28.34-1.092l108.849-115.977c2.133-2.266 5.779-2.143 7.747.278z" fill="#7a7473" fill-opacity="1" data-original-color="#7a7473ff" stroke="none" stroke-opacity="1"/><g><path d="m395.074 193.184c-.675 0-1.36-.089-2.043-.276-89.647-24.526-185.603-24.249-275.25.276-4.113 1.125-7.178-1.574-8.305-5.69-1.126-4.116-4.123-6.632-.007-7.759.805-.22 7.031-2.171 7.836-2.388 91.599-24.597 188.292-24.379 279.803.655 4.116 1.126 6.539 5.376 5.413 9.491-.938 3.435-4.05 5.69-7.447 5.691z" fill="#35d492" fill-opacity="1" data-original-color="#00b67bff" stroke="none" stroke-opacity="1"/></g><g><g><path d="m430.153 367.989c-10.747 0-16.539-3.463-21.193-6.246-3.937-2.355-6.782-4.056-13.262-4.056-6.479 0-9.324 1.701-13.261 4.055-4.654 2.783-10.446 6.246-21.193 6.246s-16.539-3.463-21.193-6.246c-3.939-2.355-6.784-4.056-13.265-4.056s-9.326 1.701-13.265 4.056c-4.654 2.783-10.446 6.246-21.194 6.246-4.268 0-7.726-3.459-7.726-7.726s3.459-7.726 7.726-7.726c6.481 0 9.326-1.701 13.265-4.056 4.654-2.783 10.446-6.246 21.194-6.246 10.749 0 16.54 3.463 21.194 6.246 3.939 2.355 6.784 4.056 13.264 4.056s9.325-1.701 13.262-4.056c4.654-2.783 10.445-6.246 21.192-6.246s16.539 3.463 21.193 6.246c3.937 2.355 6.782 4.056 13.262 4.056 4.268 0 7.726 3.459 7.726 7.726s-3.458 7.727-7.726 7.727z" fill="#436fb0" fill-opacity="1" data-original-color="#5e96d3ff" stroke="none" stroke-opacity="1"/></g><g><path d="m355.656 412.058c-10.747 0-16.539-3.463-21.193-6.246-3.937-2.355-6.782-4.056-13.262-4.056s-9.325 1.701-13.262 4.056c-4.654 2.783-10.445 6.246-21.192 6.246-10.749 0-16.54-3.463-21.194-6.246-3.939-2.355-6.784-4.056-13.264-4.056-6.481 0-9.326 1.701-13.265 4.056-4.654 2.783-10.446 6.246-21.194 6.246-4.267 0-7.726-3.459-7.726-7.726s3.459-7.726 7.726-7.726c6.481 0 9.326-1.701 13.264-4.056 4.654-2.783 10.446-6.246 21.195-6.246 10.748 0 16.54 3.463 21.194 6.246 3.939 2.355 6.784 4.056 13.265 4.056 6.479 0 9.324-1.701 13.261-4.055 4.654-2.783 10.446-6.246 21.193-6.246s16.539 3.463 21.193 6.246c3.937 2.355 6.782 4.056 13.262 4.056 4.268 0 7.726 3.459 7.726 7.726-.001 4.265-3.459 7.725-7.727 7.725z" fill="#436fb0" fill-opacity="1" data-original-color="#5e96d3ff" stroke="none" stroke-opacity="1"/></g><g><path d="m279.211 328.212c-10.747 0-16.539-3.463-21.193-6.246-3.937-2.355-6.782-4.056-13.262-4.056-6.479 0-9.324 1.701-13.262 4.056-4.653 2.783-10.445 6.246-21.192 6.246-10.748 0-16.54-3.463-21.195-6.246-3.938-2.355-6.783-4.056-13.264-4.056s-9.326 1.701-13.264 4.056c-4.654 2.783-10.446 6.246-21.195 6.246-4.267 0-7.726-3.459-7.726-7.726s3.459-7.726 7.726-7.726c6.481 0 9.326-1.701 13.265-4.056 4.653-2.783 10.446-6.246 21.194-6.246s16.54 3.463 21.194 6.246c3.938 2.355 6.784 4.056 13.265 4.056 6.479 0 9.324-1.701 13.261-4.055 4.653-2.783 10.445-6.246 21.192-6.246s16.539 3.463 21.193 6.246c3.937 2.355 6.782 4.056 13.262 4.056 4.268 0 7.726 3.459 7.726 7.726.002 4.266-3.457 7.725-7.725 7.725z" fill="#436fb0" fill-opacity="1" data-original-color="#5e96d3ff" stroke="none" stroke-opacity="1"/></g><g><path d="m349.264 287.005c-10.747 0-16.539-3.463-21.193-6.246-3.937-2.355-6.782-4.056-13.262-4.056-6.479 0-9.324 1.701-13.261 4.055-4.654 2.783-10.446 6.246-21.193 6.246-10.749 0-16.54-3.463-21.194-6.246-3.938-2.355-6.784-4.056-13.264-4.056-6.481 0-9.326 1.701-13.264 4.056-4.654 2.783-10.446 6.246-21.195 6.246-4.267 0-7.726-3.459-7.726-7.726s3.459-7.726 7.726-7.726c6.481 0 9.326-1.701 13.265-4.056 4.653-2.783 10.446-6.246 21.194-6.246s16.54 3.463 21.194 6.246c3.939 2.355 6.784 4.056 13.265 4.056 6.48 0 9.325-1.701 13.262-4.056 4.654-2.783 10.445-6.246 21.192-6.246s16.539 3.463 21.193 6.246c3.937 2.355 6.782 4.056 13.262 4.056 4.268 0 7.726 3.459 7.726 7.726-.001 4.267-3.46 7.727-7.727 7.727z" fill="#436fb0" fill-opacity="1" data-original-color="#5e96d3ff" stroke="none" stroke-opacity="1"/></g><g><path d="m138.928 400.325c-10.747 0-16.538-3.463-21.192-6.246-3.938-2.355-6.782-4.056-13.262-4.056s-9.324 1.701-13.262 4.056c-4.653 2.783-10.445 6.246-21.193 6.246-4.267 0-7.726-3.459-7.726-7.726s3.459-7.726 7.726-7.726c6.48 0 9.324-1.701 13.262-4.056 4.653-2.783 10.445-6.246 21.193-6.246s16.539 3.463 21.193 6.246c3.937 2.355 6.782 4.056 13.261 4.056 6.481 0 9.326-1.701 13.264-4.056 4.654-2.783 10.446-6.246 21.195-6.246 4.267 0 7.726 3.459 7.726 7.726s-3.459 7.726-7.726 7.726c-6.481 0-9.326 1.701-13.265 4.056-4.654 2.782-10.445 6.246-21.194 6.246z" fill="#436fb0" fill-opacity="1" data-original-color="#5e96d3ff" stroke="none" stroke-opacity="1"/></g></g><g><path d="m347.298 185.361c-4.112 9.039 2.622 17.574 11.915 14.074 1.629-.613 5.078.699 5.078.699 1.566-.23 3.295-.362 5.235-.362 17.928 0 17.928 11.032 35.856 11.032 17.925 0 17.925-11.032 35.851-11.032 4.561 0 7.962.714 10.792 1.779 9.295 3.498 18.219-5.78 14.107-14.819l-.308-.677c-3.581-7.873-7.809-15.408-12.625-22.535 0 0-7.419-3.913-9.026-6.044-6.673-8.848-9.927-17.451-18.389-24.708l-20.407-17.501-18.209 17.635c-17.066 14.636-30.252 31.314-39.561 51.779z" fill="#35d492" fill-opacity="1" data-original-color="#00b67bff" stroke="none" stroke-opacity="1"/><path d="m453.199 163.521c-2.412.838-4.973 1.273-7.606 1.273-3.575.203-6.376-1.457-11.525-1.905-3.008 0-3.707.427-6.634 2.229-4.266 2.626-10.716 6.597-22.05 6.597-11.341 0-17.784-3.972-22.057-6.597-.032-.019-.064-.038-.095-.057-4.297-2.557-9.837-1.178-12.489 3.06-3.594 5.746-6.814 11.738-9.635 17.936l-.309.677c-2.376 5.222-.397 10.525 3.494 13.401-2.118.309-3.942.809-5.568 1.419-9.289 3.501-18.218-5.781-14.107-14.82l.309-.677c9.311-20.469 22.977-38.65 40.04-53.286l20.41-17.505 8.09 6.936 12.32 10.569c10.495 9.002 19.712 19.349 27.412 30.75z" fill="#17ab72" fill-opacity="1" data-original-color="#00aa68ff" stroke="none" stroke-opacity="1"/><path d="m360.204 137.205c-3.306 7.269 2.121 13.176 9.624 10.443 1.745-.636 4.695.605 4.695.605.686-.047 1.408-.074 2.171-.074 14.344 0 14.344 8.826 28.688 8.826 14.342 0 14.342-8.826 28.684-8.826 3.538 0 6.203.537 8.426 1.346 7.504 2.732 14.556-5.053 11.25-12.322-2.962-6.512-6.477-12.735-10.493-18.606l-10.029-5.353-2.852-10.49c-2.748-2.86-5.638-5.593-8.662-8.185l-16.328-14.003-13.136 14.003c-13.656 11.709-24.59 26.262-32.038 42.636z" fill="#35d492" fill-opacity="1" data-original-color="#00b67bff" stroke="none" stroke-opacity="1"/><path d="m443.248 118.597c-3.324 1.868-7.098 2.899-10.982 2.899-1.749 0-3.484-.206-5.189-.609-.901-.213-1.851.021-2.548.631-3.582 3.133-9.275 7.466-19.153 7.635-9.458-.066-15.401-4.339-19.123-7.605-.6-.456-1.158-.627-2.026-.616-2.332.031-4.458 1.338-5.668 3.332-2.527 4.167-4.812 8.487-6.84 12.942-1.92 4.229-.338 8.635 2.802 11.047-2.501.169-4.516.64-6.259 1.272-7.509 2.736-14.555-5.053-11.253-12.319 7.451-16.379 18.38-30.928 32.038-42.636l16.328-14.004c4.402 3.78 12.064 10.348 16.328 14.004 6.825 5.854 12.974 12.415 18.343 19.564 1.105 1.463 2.173 2.948 3.202 4.463z" fill="#17ab72" fill-opacity="1" data-original-color="#00aa68ff" stroke="none" stroke-opacity="1"/><path d="m372.805 96.492c-1.911 6.068 2.868 10.93 8.861 8.791 1.228-.438 1.152-.415 2.873-.415.21 0 1.397.748 1.598.756 9.318.358 9.523 8.815 19.244 8.815 9.929 0 9.929-8.826 19.858-8.826 1.719 0 3.14.264 4.366.702 5.993 2.137 11.868-3.381 9.957-9.45-5.636-17.898-14.58-34.579-26.366-49.18-.177-.219-.361-.429-.552-.629-7.267-1.944-10.52-1.81-14.365 2.953-11.787 14.6-19.838 28.585-25.474 46.483z" fill="#35d492" fill-opacity="1" data-original-color="#00b67bff" stroke="none" stroke-opacity="1"/><path d="m384.746 98.938c-.802 2.537-.103 4.972 1.39 6.686-.199-.007-.405-.015-.618-.015-1.721 0-3.141.272-4.369.706-5.994 2.14-11.871-3.383-9.959-9.451 2.824-8.944 6.465-17.593 10.878-25.823s9.598-16.056 15.489-23.359c2.008-2.493 4.913-3.736 7.818-3.736 2.648 0 5.303 1.037 7.267 3.111l-2.302 2.847c-11.003 13.621-19.343 29.184-24.602 45.88z" fill="#17ab72" fill-opacity="1" data-original-color="#00aa68ff" stroke="none" stroke-opacity="1"/></g><g><path d="m463.176 261.422v-13.813l-2.069-5.07 2.069-71.657c0-22.224-2.515-44.426-7.532-66.477-1.794-7.888-13.032-7.888-14.827 0-5.016 22.051-7.532 44.253-7.532 66.477l4.127 72.594.227 17.398 8.929 3.619h13.535c1.699 0 3.073-1.375 3.073-3.071z" fill="#c47c5c" fill-opacity="1" data-original-color="#c47c5cff" stroke="none" stroke-opacity="1"/><path d="m433.287 224.285v37.14c0 1.696 1.375 3.071 3.071 3.071h10.214v-11.865c0-1.428 1.163-2.617 2.59-2.655 4.792-.125 10.89-1.122 14.015-2.367v-23.324z" fill="#b76e51" fill-opacity="1" data-original-color="#b76e51ff" stroke="none" stroke-opacity="1"/><path d="m510.936 215.163-.319-.695c-2.638-5.802-5.61-11.426-8.908-16.845l-7.185-6.064-4.837-11.058c-6.121-7.596-12.944-14.646-20.392-21.03l-21.065-18.065-21.058 18.065c-11.823 10.134-20.482 22.173-27.805 35.379-.877-.131-10.733 20.915-10.733 20.915-1.928 4.237-3.669 5.864-1.268 8.945.001 0-.512 2.061-.511 2.061-.001 0 .512-2.061.511-2.061 2.887 3.695 8.001 5.66 13.235 3.688 1.148-.432 1.87 1.255 3.238.957.609-.132 1.243-.249 1.907-.347 1.638-.248 3.447-.383 5.49-.383 18.498 0 18.498 11.384 37.003 11.384s18.505-11.384 37.003-11.384c4.71 0 8.22.738 11.143 1.837 9.586 3.61 18.8-5.965 14.551-15.299z" fill="#17ab72" fill-opacity="1" data-original-color="#00aa68ff" stroke="none" stroke-opacity="1"/><path d="m469.295 159.464c-3.383-2.901-8.994-7.71-13.973-11.972-2.702-2.319-5.22-4.483-7.093-6.086l-21.058 18.065c-.369.319-.738.638-1.099.957-.355.312-.702.624-1.05.936-10.93 9.696-20.427 20.846-28.286 33.102-4.092 6.383-7.738 13.058-10.894 19.994l-.319.709c-1.929 4.234-1.071 8.518 1.326 11.604 2.107 2.695 5.39 4.468 9.05 4.468 1.355 0 2.766-.248 4.185-.78 1.149-.433 2.383-.809 3.752-1.107-1.071-.702-2.014-1.574-2.802-2.582-2.397-3.085-3.256-7.369-1.326-11.604l.319-.709c1.538-3.376 3.19-6.69 4.954-9.94 3.22-5.93 10.198-8.991 16.587-6.818 1.287.438 2.484 1.056 3.518 1.927 4.766 2.936 11.299 6.958 23.151 6.958 11.859 0 18.384-4.021 23.151-6.958 3.461-2.121 4.894-3.007 9.228-3.007 5.979.298 9.15 2.532 13.412 2.291 2.667 0 5.249-.447 7.681-1.291-8.71-14.318-19.633-27.198-32.414-38.157z" fill="#1e825a" fill-opacity="1" data-original-color="#009c5dff" stroke="none" stroke-opacity="1"/><path d="m448.23 141.406-21.058 18.065c-.369.319-.738.638-1.099.957.362-.333.731-.653 1.099-.965z" fill="#17ab72" fill-opacity="1" data-original-color="#00aa68ff" stroke="none" stroke-opacity="1"/><path d="m395.782 170.323c-3.713 8.163 2.368 15.871 10.761 12.71 1.471-.554 4.586.631 4.586.631 1.414-.208 2.976-.327 4.728-.327 16.19 0 16.19 9.963 32.381 9.963 16.188 0 16.188-9.963 32.376-9.963 4.119 0 7.19.645 9.746 1.607 8.394 3.159 16.453-5.22 12.74-13.383l-.278-.612c-3.234-7.11-7.052-13.915-11.402-20.351 0 0-6.7-3.534-8.151-5.458-6.027-7.991-8.965-15.76-16.607-22.314l-18.43-15.805-16.444 15.926c-15.412 13.218-27.32 28.279-35.727 46.761z" fill="#17ab72" fill-opacity="1" data-original-color="#00aa68ff" stroke="none" stroke-opacity="1"/><path d="m491.42 150.599c-2.179.757-4.491 1.15-6.869 1.15-3.229.183-5.758-1.316-10.408-1.72-2.717 0-3.348.385-5.991 2.013-3.852 2.371-9.678 5.958-19.913 5.958-10.242 0-16.061-3.587-19.92-5.958-.029-.017-.058-.034-.086-.051-3.88-2.309-8.884-1.064-11.279 2.764-3.246 5.189-6.154 10.6-8.701 16.198l-.279.611c-2.145 4.716-.359 9.505 3.155 12.102-1.913.279-3.56.731-5.028 1.282-8.389 3.162-16.453-5.221-12.74-13.384l.279-.611c8.409-18.485 20.75-34.905 36.16-48.122l18.432-15.808 7.306 6.264 11.126 9.545c9.478 8.127 17.802 17.472 24.756 27.767z" fill="#1e825a" fill-opacity="1" data-original-color="#009c5dff" stroke="none" stroke-opacity="1"/><path d="m407.436 126.834c-2.986 6.564 1.916 11.899 8.692 9.431 1.576-.574 4.24.547 4.24.547.619-.043 1.271-.067 1.96-.067 12.954 0 12.954 7.971 25.908 7.971 12.952 0 12.952-7.971 25.905-7.971 3.195 0 5.602.485 7.609 1.216 6.777 2.467 13.146-4.563 10.159-11.127-2.675-5.881-5.849-11.501-9.476-16.803l-9.057-4.834-2.576-9.474c-2.482-2.583-5.092-5.051-7.822-7.392l-14.746-12.646-11.863 12.646c-12.332 10.574-22.206 23.715-28.933 38.503z" fill="#17ab72" fill-opacity="1" data-original-color="#00aa68ff" stroke="none" stroke-opacity="1"/><path d="m482.433 110.029c-3.002 1.687-6.411 2.618-9.918 2.618-1.58 0-3.146-.186-4.686-.55-.814-.193-1.672.019-2.301.57-3.235 2.83-8.376 6.742-17.297 6.895-8.542-.06-13.909-3.919-17.27-6.868-.542-.412-1.046-.567-1.83-.556-2.106.028-4.026 1.209-5.118 3.009-2.282 3.764-4.346 7.664-6.177 11.688-1.734 3.819-.306 7.798 2.531 9.977-2.258.153-4.078.578-5.652 1.149-6.782 2.471-13.145-4.563-10.163-11.126 6.729-14.792 16.599-27.93 28.933-38.505l14.746-12.647c3.975 3.413 10.895 9.345 14.746 12.647 6.164 5.287 11.717 11.212 16.566 17.668.996 1.322 1.96 2.663 2.89 4.031z" fill="#1e825a" fill-opacity="1" data-original-color="#009c5dff" stroke="none" stroke-opacity="1"/><path d="m418.816 90.066c-1.726 5.48 2.591 9.871 8.002 7.939 1.109-.396 1.04-.375 2.594-.375.19 0 1.261.675 1.443.682 8.415.323 8.601 7.961 17.379 7.961 8.967 0 8.967-7.971 17.934-7.971 1.552 0 2.835.239 3.943.634 5.412 1.93 10.718-3.053 8.992-8.534-5.09-16.163-13.167-31.228-23.811-44.414-.16-.198-.326-.387-.498-.568-6.563-1.756-9.501-1.634-12.973 2.667-10.644 13.186-17.915 25.816-23.005 41.979z" fill="#17ab72" fill-opacity="1" data-original-color="#00aa68ff" stroke="none" stroke-opacity="1"/><path d="m429.6 92.275c-.724 2.292-.093 4.49 1.255 6.038-.179-.007-.365-.013-.558-.013-1.554 0-2.836.246-3.945.638-5.413 1.933-10.72-3.055-8.993-8.535 2.551-8.077 5.838-15.888 9.824-23.321 3.985-7.433 8.668-14.5 13.988-21.096 1.813-2.252 4.437-3.374 7.061-3.374 2.391 0 4.789.936 6.563 2.809l-2.079 2.571c-9.937 12.301-17.469 26.356-22.218 41.434z" fill="#1e825a" fill-opacity="1" data-original-color="#009c5dff" stroke="none" stroke-opacity="1"/></g><g><path d="m76.394 208.228h-27.877l1.156 20.338.251 19.212 9.861 3.996h14.946c1.873 0 3.391-1.518 3.391-3.391v-15.253l-2.285-5.599z" fill="#c47c5c" fill-opacity="1" data-original-color="#c47c5cff" stroke="none" stroke-opacity="1"/><path d="m45.115 207.374v41.013c0 1.873 1.518 3.391 3.391 3.391h11.279v-13.102c0-1.577 1.284-2.89 2.86-2.931 5.292-.138 12.025-1.239 15.477-2.614v-25.756h-33.007z" fill="#b76e51" fill-opacity="1" data-original-color="#b76e51ff" stroke="none" stroke-opacity="1"/><path d="m3.699 200.005c-4.101 9.015 2.615 17.525 11.883 14.036 1.624-.612 5.064.697 5.064.697 1.561-.23 3.286-.361 5.221-.361 17.879 0 17.879 11.001 35.757 11.001 17.876 0 17.876-11.001 35.752-11.001 4.549 0 7.94.712 10.763 1.775 9.269 3.488 18.169-5.764 14.068-14.779l-.307-.675c-3.572-7.852-7.787-15.366-12.59-22.473 0 0-7.399-3.902-9.001-6.027-6.655-8.824-9.899-17.403-18.339-24.64l-20.351-17.453-18.159 17.586c-17.019 14.596-30.169 31.228-39.452 51.637z" fill="#17ab72" fill-opacity="1" data-original-color="#00aa68ff" stroke="none" stroke-opacity="1"/><path d="m109.31 178.224c-2.406.836-4.959 1.27-7.585 1.27-3.565.202-6.359-1.453-11.494-1.9-3 0-3.697.425-6.616 2.222-4.254 2.619-10.687 6.579-21.99 6.579-11.31 0-17.735-3.961-21.997-6.579-.032-.019-.064-.038-.095-.057-4.285-2.55-9.81-1.175-12.455 3.052-3.585 5.73-6.795 11.706-9.608 17.887l-.308.675c-2.369 5.208-.396 10.496 3.484 13.364-2.112.308-3.931.807-5.552 1.416-9.264 3.491-18.168-5.765-14.068-14.779l.308-.675c9.286-20.413 22.914-38.544 39.93-53.14l20.354-17.457 8.068 6.917 12.286 10.54c10.467 8.977 19.659 19.296 27.338 30.665z" fill="#1e825a" fill-opacity="1" data-original-color="#009c5dff" stroke="none" stroke-opacity="1"/><path d="m16.569 151.98c-3.297 7.249 2.115 13.14 9.598 10.414 1.74-.634 4.682.604 4.682.604.684-.047 1.404-.074 2.165-.074 14.305 0 14.305 8.802 28.61 8.802 14.303 0 14.303-8.802 28.606-8.802 3.528 0 6.186.536 8.403 1.343 7.483 2.724 14.516-5.039 11.219-12.288-2.954-6.494-6.459-12.7-10.465-18.555l-10.002-5.338-2.844-10.461c-2.741-2.853-5.623-5.577-8.638-8.163l-16.284-13.966-13.1 13.964c-13.618 11.679-24.522 26.191-31.95 42.52z" fill="#17ab72" fill-opacity="1" data-original-color="#00aa68ff" stroke="none" stroke-opacity="1"/><path d="m99.386 133.424c-3.315 1.863-7.079 2.891-10.952 2.891-1.744 0-3.474-.205-5.174-.608-.898-.213-1.846.021-2.541.629-3.572 3.125-9.249 7.445-19.1 7.614-9.432-.066-15.359-4.328-19.07-7.584-.598-.455-1.155-.626-2.021-.614-2.325.031-4.446 1.335-5.652 3.323-2.52 4.156-4.799 8.463-6.821 12.907-1.914 4.217-.337 8.611 2.795 11.017-2.494.169-4.504.638-6.242 1.269-7.489 2.729-14.515-5.039-11.222-12.286 7.43-16.335 18.33-30.843 31.95-42.52l16.283-13.965c4.39 3.769 12.031 10.32 16.283 13.965 6.807 5.838 12.939 12.381 18.293 19.51 1.1 1.46 2.164 2.941 3.191 4.452z" fill="#1e825a" fill-opacity="1" data-original-color="#009c5dff" stroke="none" stroke-opacity="1"/><path d="m29.136 111.379c-1.906 6.052 2.861 10.9 8.836 8.767 1.224-.437 1.149-.414 2.865-.414.21 0 1.393.746 1.594.754 9.292.357 9.497 8.791 19.191 8.791 9.902 0 9.902-8.802 19.804-8.802 1.714 0 3.131.264 4.354.7 5.976 2.131 11.835-3.372 9.929-9.424-5.621-17.849-14.54-34.484-26.294-49.045-.177-.219-.36-.428-.55-.627-7.247-1.939-10.491-1.805-14.326 2.945-11.753 14.56-19.782 28.507-25.403 46.355z" fill="#17ab72" fill-opacity="1" data-original-color="#00aa68ff" stroke="none" stroke-opacity="1"/><path d="m41.044 113.818c-.8 2.53-.103 4.958 1.386 6.667-.198-.007-.403-.015-.616-.015-1.716 0-3.132.271-4.357.704-5.978 2.134-11.838-3.374-9.931-9.425 2.817-8.919 6.447-17.545 10.848-25.752 4.401-8.208 9.572-16.012 15.447-23.295 2.002-2.486 4.9-3.726 7.797-3.726 2.64 0 5.289 1.034 7.247 3.102l-2.296 2.839c-10.973 13.584-19.29 29.104-24.535 45.754z" fill="#1e825a" fill-opacity="1" data-original-color="#009c5dff" stroke="none" stroke-opacity="1"/></g></g></g></svg>