<svg id="Capa_1" enable-background="new 0 0 497 497" height="512" viewBox="0 0 497 497" width="512" xmlns="http://www.w3.org/2000/svg"><g><g><path d="m497 190.892-196.795 20-197.599-20v-47.65h346.744c26.316 0 47.65 21.334 47.65 47.65z" fill="#8cc951"/></g><g><path d="m205.211 190.892-122.605 20-82.606-20v-81.739c0-7.49 6.072-13.561 13.561-13.561h96.349c52.634 0 95.301 42.667 95.301 95.3z" fill="#acd980"/></g><g><path d="m449.35 143.242h-30c26.317 0 47.65 21.334 47.65 47.65l12.285 20 17.715-20c0-26.316-21.334-47.65-47.65-47.65z" fill="#7dc03a"/></g><g><path d="m109.91 95.592h-30c52.633 0 95.3 42.667 95.3 95.3l18.145 10 11.855-10c.001-52.633-42.666-95.3-95.3-95.3z" fill="#9cd169"/></g><g><path d="m380.6 160.897c-4.142 0-7.5-3.358-7.5-7.5v-45.875c0-4.142 3.358-7.5 7.5-7.5s7.5 3.358 7.5 7.5v45.875c0 4.142-3.358 7.5-7.5 7.5z" fill="#d99061"/></g><g><path d="m77.455 167.036c-4.142 0-7.5-3.358-7.5-7.5v-46.209c0-4.142 3.358-7.5 7.5-7.5s7.5 3.358 7.5 7.5v46.209c0 4.143-3.358 7.5-7.5 7.5z" fill="#d99061"/></g><g><path d="m409.79 86.994c0 37.561-14.777 43.059-33.005 43.059s-33.005-5.498-33.005-43.059 14.777-77.359 33.005-77.359 33.005 39.798 33.005 77.359z" fill="#9cd169"/></g><g><path d="m376.785 9.635c-5.401 0-10.499 3.495-15 9.39 10.688 14 18.005 41.538 18.005 67.969 0 26.427-7.32 36.973-18.005 40.908 4.502 1.658 9.597 2.151 15 2.151 18.228 0 33.005-5.498 33.005-43.059s-14.777-77.359-33.005-77.359z" fill="#8cc951"/></g><g><path d="m106.644 93.134c0 37.561-14.777 43.059-33.005 43.059s-33.005-5.498-33.005-43.059 14.777-77.359 33.005-77.359c18.229 0 33.005 39.798 33.005 77.359z" fill="#8cc951"/></g><g><path d="m73.64 15.774c-5.401 0-10.499 3.495-15 9.391 10.688 14 18.005 41.538 18.005 67.969 0 26.427-7.32 36.972-18.005 40.908 4.502 1.658 9.597 2.151 15 2.151 18.228 0 33.005-5.498 33.005-43.059-.001-37.561-14.777-77.36-33.005-77.36z" fill="#7dc03a"/></g><g><path d="m497 343.03v-152.138h-497v276.875c0 10.824 8.774 19.598 19.598 19.598h166.604z" fill="#b2e5fb"/></g><g><path d="m497 343.03v-152.138h-30v213.822z" fill="#91dafa"/></g><g><path d="m186.203 487.365h291.199c10.824 0 19.598-8.774 19.598-19.598v-124.737h-166.462c-79.714 0-144.335 64.621-144.335 144.335z" fill="#acd980"/></g><g><path d="m467 343.03v138.904c0 2.999-2.431 5.431-5.431 5.431h15.833c10.824 0 19.598-8.775 19.598-19.598v-124.737z" fill="#9cd169"/></g><g><path d="m378.71 249.641h-78.907c-4.142 0-7.5-3.358-7.5-7.5s3.358-7.5 7.5-7.5h78.907c4.142 0 7.5 3.358 7.5 7.5s-3.358 7.5-7.5 7.5z" fill="#d3effd"/></g><g><path d="m152.547 394.377h-78.908c-4.142 0-7.5-3.358-7.5-7.5s3.358-7.5 7.5-7.5h78.907c4.142 0 7.5 3.358 7.5 7.5s-3.357 7.5-7.499 7.5z" fill="#d3effd"/></g><g><path d="m178.46 286.689h-143.632c-4.142 0-7.5-3.358-7.5-7.5s3.358-7.5 7.5-7.5h143.632c4.142 0 7.5 3.358 7.5 7.5s-3.358 7.5-7.5 7.5z" fill="#d3effd"/></g><g><path d="m407.169 456.902c-4.142 0-7.5-3.358-7.5-7.5v-70.301c0-4.142 3.358-7.5 7.5-7.5s7.5 3.358 7.5 7.5v70.301c0 4.142-3.358 7.5-7.5 7.5z" fill="#d99061"/></g><g><path d="m284.432 456.902c-4.142 0-7.5-3.358-7.5-7.5v-70.301c0-4.142 3.358-7.5 7.5-7.5s7.5 3.358 7.5 7.5v70.301c0 4.142-3.358 7.5-7.5 7.5z" fill="#d99061"/></g><g><path d="m447.727 360.204c0 46.157-18.158 52.913-40.558 52.913-22.399 0-40.558-6.756-40.558-52.913 0-46.156 18.158-95.062 40.558-95.062s40.558 48.905 40.558 95.062z" fill="#9cd169"/></g><g><path d="m324.989 360.204c0 46.157-18.158 52.913-40.558 52.913-22.399 0-40.558-6.756-40.558-52.913 0-46.156 18.158-95.062 40.558-95.062s40.558 48.905 40.558 95.062z" fill="#9cd169"/></g><g><path d="m407.169 265.141c-5.299 0-10.36 2.74-15 7.53 14.974 15.458 25.558 52.294 25.558 87.532 0 35.237-10.584 47.51-25.558 51.345 4.64 1.189 9.701 1.568 15 1.568 22.399 0 40.558-6.756 40.558-52.913 0-46.156-18.158-95.062-40.558-95.062z" fill="#8cc951"/></g><g><path d="m284.432 265.141c-5.299 0-10.36 2.74-15 7.53 14.974 15.458 25.558 52.294 25.558 87.532 0 35.237-10.584 47.51-25.558 51.345 4.64 1.188 9.701 1.568 15 1.568 22.399 0 40.558-6.756 40.558-52.913-.001-46.156-18.159-95.062-40.558-95.062z" fill="#8cc951"/></g></g></svg>