<svg id="Capa_1" enable-background="new 0 0 512 512" height="300" viewBox="0 0 512 512" width="300" xmlns="http://www.w3.org/2000/svg" version="1.1" xmlns:xlink="http://www.w3.org/1999/xlink" xmlns:svgjs="http://svgjs.dev/svgjs"><g width="100%" height="100%" transform="matrix(1,0,0,1,0,0)"><g><g><g><circle cx="252.622" cy="165.134" fill="#ffb143" r="124.591" fill-opacity="1" data-original-color="#fcb44dff" stroke="none" stroke-opacity="1" style=""/><path d="m377.214 165.131c0 68.815-55.786 124.593-124.593 124.593-6.647 0-13.169-.523-19.527-1.523 59.535-9.373 105.065-60.902 105.065-123.069 0-62.16-45.53-113.688-105.065-123.062 6.358-1 12.88-1.523 19.527-1.523 68.807 0 124.593 55.778 124.593 124.584z" fill="#ff9f29" fill-opacity="1" data-original-color="#fb9927ff" stroke="none" stroke-opacity="1" style=""/></g></g><g><path d="m511.981 462.255.019-268.452c0-40.301-32.671-72.972-72.972-72.972-14.588 0-28.164 4.297-39.565 11.671-10.321-12.436-27.207-18.58-43.932-14.397-20.766 5.194-34.244 24.55-32.737 45.193-34.723 5.613-61.242 35.714-61.242 72.021 0 4.614.448 9.122 1.267 13.499-6.212-3.434-13.352-5.394-20.952-5.394-13.507 0-25.57 6.174-33.526 15.852-6.531-5.036-14.535-8.246-23.258-8.883 3.229-8.617 5.005-17.943 5.005-27.687 0-43.594-35.34-78.934-78.934-78.934-7.735 0-15.202 1.132-22.266 3.206-9.413-9.549-22.494-15.474-36.962-15.474-28.668 0-51.907 23.24-51.907 51.907l-.019 278.844z" fill="#b7c2e4" fill-opacity="1" data-original-color="#7a6e79ff" stroke="none" stroke-opacity="1" style=""/><path d="m512 402.129v-166.817c0-40.301-32.671-72.972-72.972-72.972-14.588 0-28.164 4.298-39.565 11.671-10.321-12.436-27.207-18.58-43.932-14.397-20.766 5.193-34.244 24.55-32.737 45.193-34.723 5.613-61.242 35.714-61.242 72.021 0 4.614.448 9.122 1.267 13.499-6.212-3.434-13.352-5.393-20.952-5.393-13.507 0-25.57 6.174-33.526 15.852-6.531-5.036-14.535-8.247-23.258-8.883 3.229-8.617 5.005-17.943 5.005-27.687 0-43.594-35.34-78.934-78.934-78.934-7.735 0-15.202 1.132-22.266 3.206-9.414-9.549-22.494-15.474-36.962-15.474-28.668 0-51.907 23.24-51.907 51.907v177.209h511.981z" fill="#9096c5" fill-opacity="1" data-original-color="#554e55ff" stroke="none" stroke-opacity="1" style=""/></g><g><g><path d="m492.514 380.773h-74.098c-6.595 0-10.538-7.317-6.925-12.834 16.979-25.929 30.912-65.682 39.898-113.92.844-4.528 7.308-4.528 8.152 0 8.986 48.238 22.919 87.99 39.898 113.92 3.613 5.517-.33 12.834-6.925 12.834z" fill="#138b80" fill-opacity="1" data-original-color="#138b80ff" stroke="none" stroke-opacity="1" style=""/><path d="m492.514 380.773h-23.954c6.6 0 10.539-7.316 6.927-12.831-12.606-19.247-23.535-46.118-31.997-78.432 2.947-11.204 5.587-23.074 7.899-35.496.839-4.523 7.306-4.523 8.155 0 8.984 48.246 22.91 87.999 39.896 113.928 3.614 5.515-.336 12.831-6.926 12.831z" fill="#127e73" fill-opacity="1" data-original-color="#127e73ff" stroke="none" stroke-opacity="1" style=""/></g><g><path d="m432.033 371.921h-90.481c-8.053 0-12.868-8.934-8.456-15.672 20.733-31.662 37.747-80.204 48.72-139.107 1.03-5.529 8.924-5.529 9.954 0 10.973 58.903 27.987 107.445 48.72 139.107 4.411 6.737-.404 15.672-8.457 15.672z" fill="#20b69f" fill-opacity="1" data-original-color="#20b69fff" stroke="none" stroke-opacity="1" style=""/><path d="m432.027 371.921h-32.774c8.059 0 12.87-8.934 8.459-15.669-14.531-22.191-27.239-52.69-37.31-89.225 4.311-15.581 8.122-32.274 11.408-49.879 1.037-5.535 8.934-5.535 9.958 0 10.97 58.9 27.988 107.443 48.717 139.104 4.412 6.736-.399 15.669-8.458 15.669z" fill="#17998c" fill-opacity="1" data-original-color="#17998cff" stroke="none" stroke-opacity="1" style=""/></g><g><ellipse cx="322.859" cy="286.753" fill="#127e73" rx="42.712" ry="58.873" fill-opacity="1" data-original-color="#127e73ff" stroke="none" stroke-opacity="1" style=""/><path d="m365.57 286.755c0 32.514-19.124 58.868-42.71 58.868-4.864 0-9.532-1.116-13.888-3.183 16.771-7.94 28.822-29.873 28.822-55.685s-12.051-47.746-28.822-55.694c4.356-2.059 9.023-3.182 13.888-3.182 23.586 0 42.71 26.362 42.71 58.876z" fill="#0c6e65" fill-opacity="1" data-original-color="#0c6e65ff" stroke="none" stroke-opacity="1" style=""/></g><g><path d="m296.976 334.558h-77.867c-6.93 0-11.074-7.689-7.277-13.487 17.843-27.248 32.485-69.023 41.928-119.714.886-4.759 7.68-4.759 8.566 0 9.443 50.691 24.085 92.466 41.928 119.714 3.796 5.798-.348 13.487-7.278 13.487z" fill="#1ec186" fill-opacity="1" data-original-color="#1ec186ff" stroke="none" stroke-opacity="1" style=""/><path d="m296.971 334.558h-28.205c6.936 0 11.075-7.688 7.28-13.484-12.506-19.097-23.441-45.345-32.108-76.786 3.71-13.409 6.989-27.775 9.817-42.925.893-4.764 7.688-4.764 8.57 0 9.441 50.689 24.086 92.464 41.925 119.711 3.796 5.796-.344 13.484-7.279 13.484z" fill="#1eb07c" fill-opacity="1" data-original-color="#1eb07cff" stroke="none" stroke-opacity="1" style=""/></g><g><ellipse cx="201.936" cy="262.804" fill="#138b80" rx="36.381" ry="50.147" fill-opacity="1" data-original-color="#138b80ff" stroke="none" stroke-opacity="1" style=""/><path d="m238.316 262.806c0 27.695-16.289 50.143-36.38 50.143-4.143 0-8.119-.95-11.829-2.711 14.286-6.763 24.551-25.445 24.551-47.432s-10.265-40.669-24.551-47.439c3.71-1.754 7.686-2.711 11.829-2.711 20.091 0 36.38 22.455 36.38 50.15z" fill="#127e73" fill-opacity="1" data-original-color="#127e73ff" stroke="none" stroke-opacity="1" style=""/></g><g><path d="m143.586 295.333h-90.481c-8.053 0-12.868-8.934-8.456-15.672 20.733-31.661 37.747-80.204 48.72-139.107 1.03-5.529 8.924-5.529 9.954 0 10.973 58.903 27.987 107.445 48.72 139.107 4.411 6.738-.404 15.672-8.457 15.672z" fill="#20b69f" fill-opacity="1" data-original-color="#20b69fff" stroke="none" stroke-opacity="1" style=""/><path d="m143.581 295.334h-32.774c8.059 0 12.87-8.934 8.459-15.669-14.531-22.191-27.239-52.69-37.31-89.225 4.311-15.581 8.122-32.274 11.408-49.879 1.037-5.535 8.934-5.535 9.958 0 10.97 58.9 27.988 107.443 48.717 139.104 4.411 6.735-.399 15.669-8.458 15.669z" fill="#17998c" fill-opacity="1" data-original-color="#17998cff" stroke="none" stroke-opacity="1" style=""/></g></g><g><g><g><g><g><g><g><g><path d="m0 352.239s73.59-61.536 164.404-61.536c133.611 0 177.452 82.638 347.596 82.638v87.813c0 5.69-4.612 10.302-10.302 10.302h-491.396c-5.69 0-10.302-4.612-10.302-10.301z" fill="#127e73" fill-opacity="1" data-original-color="#127e73ff" stroke="none" stroke-opacity="1" style=""/><g fill="#0c6e65"><ellipse cx="70.489" cy="399.096" rx="54.136" ry="16.727" fill="#0c6e65" fill-opacity="1" data-original-color="#0c6e65ff" stroke="none" stroke-opacity="1" style=""/><ellipse cx="134.288" cy="380.773" rx="54.136" ry="16.727" fill="#0c6e65" fill-opacity="1" data-original-color="#0c6e65ff" stroke="none" stroke-opacity="1" style=""/><ellipse cx="365.57" cy="423.967" rx="54.136" ry="16.727" fill="#0c6e65" fill-opacity="1" data-original-color="#0c6e65ff" stroke="none" stroke-opacity="1" style=""/><path d="m512 373.344v42.089c-54.888 6.768-123.233-16.084-166.292-42.886-125.385-78.047-178.611-81.812-181.214-81.843 133.535.037 177.399 82.64 347.506 82.64z" fill="#0c6e65" fill-opacity="1" data-original-color="#0c6e65ff" stroke="none" stroke-opacity="1" style=""/></g></g></g></g></g></g></g></g></g><g><g><path d="m129.577 378.333c-4.267 0-7.726-3.459-7.726-7.726v-50.784c0-4.268 3.459-7.726 7.726-7.726s7.726 3.459 7.726 7.726v50.784c.001 4.267-3.458 7.726-7.726 7.726z" fill="#9d552e" fill-opacity="1" data-original-color="#9d552eff" stroke="none" stroke-opacity="1"/><ellipse cx="134.288" cy="259.686" fill="#1ec186" rx="43.629" ry="60.137" fill-opacity="1" data-original-color="#1ec186ff" stroke="none" stroke-opacity="1" style=""/><path d="m177.915 259.688c0 33.212-19.535 60.132-43.627 60.132-4.969 0-9.736-1.139-14.186-3.251 17.131-8.11 29.441-30.514 29.441-56.881s-12.31-48.771-29.441-56.89c4.45-2.103 9.217-3.251 14.186-3.251 24.093 0 43.627 26.928 43.627 60.141z" fill="#1eb07c" fill-opacity="1" data-original-color="#1eb07cff" stroke="none" stroke-opacity="1" style=""/></g></g><g><g><path d="m66.19 404.094c-4.267 0-7.726-3.459-7.726-7.726v-48.493c0-4.268 3.459-7.726 7.726-7.726s7.726 3.459 7.726 7.726v48.493c0 4.267-3.459 7.726-7.726 7.726z" fill="#9d552e" fill-opacity="1" data-original-color="#9d552eff" stroke="none" stroke-opacity="1"/><ellipse cx="66.19" cy="284.226" fill="#20b69f" rx="46.176" ry="63.648" fill-opacity="1" data-original-color="#20b69fff" stroke="none" stroke-opacity="1" style=""/><path d="m112.365 284.228c0 35.151-20.675 63.643-46.174 63.643-5.259 0-10.305-1.206-15.014-3.441 18.132-8.584 31.16-32.296 31.16-60.202s-13.029-51.618-31.16-60.211c4.709-2.226 9.755-3.441 15.014-3.441 25.499.001 46.174 28.501 46.174 63.652z" fill="#17998c" fill-opacity="1" data-original-color="#17998cff" stroke="none" stroke-opacity="1" style=""/></g></g><g fill="#0c6e65"><path d="m220.488 352.147c-.877 0-1.77-.151-2.642-.468-4.01-1.46-6.077-5.893-4.618-9.903l2.767-7.603c1.46-4.009 5.893-6.076 9.903-4.618 4.01 1.46 6.077 5.893 4.618 9.903l-2.767 7.603c-1.142 3.137-4.105 5.086-7.261 5.086z" fill="#0c6e65" fill-opacity="1" data-original-color="#0c6e65ff" stroke="none" stroke-opacity="1" style=""/><path d="m200.23 352.147c-3.176 0-6.152-1.974-7.279-5.137l-2.707-7.603c-1.432-4.02.667-8.44 4.687-9.87 4.021-1.43 8.439.667 9.87 4.687l2.707 7.603c1.432 4.02-.667 8.439-4.687 9.87-.856.305-1.73.45-2.591.45z" fill="#0c6e65" fill-opacity="1" data-original-color="#0c6e65ff" stroke="none" stroke-opacity="1" style=""/></g><g fill="#17998c"><path d="m287.747 416.688c-.877 0-1.77-.151-2.642-.468-4.01-1.46-6.077-5.893-4.618-9.903l2.767-7.603c1.46-4.009 5.891-6.074 9.903-4.618 4.01 1.46 6.077 5.893 4.618 9.903l-2.767 7.603c-1.142 3.137-4.105 5.086-7.261 5.086z" fill="#17998c" fill-opacity="1" data-original-color="#17998cff" stroke="none" stroke-opacity="1" style=""/><path d="m267.489 416.688c-3.176 0-6.152-1.974-7.279-5.137l-2.707-7.603c-1.432-4.02.668-8.44 4.687-9.87 4.02-1.429 8.439.668 9.87 4.687l2.707 7.603c1.432 4.02-.667 8.439-4.687 9.87-.856.305-1.73.45-2.591.45z" fill="#17998c" fill-opacity="1" data-original-color="#17998cff" stroke="none" stroke-opacity="1" style=""/></g><g fill="#17998c"><path d="m125.611 417.723c-.877 0-1.77-.151-2.642-.468-4.01-1.46-6.077-5.893-4.618-9.903l2.767-7.603c1.46-4.009 5.892-6.076 9.903-4.618 4.01 1.46 6.077 5.893 4.618 9.903l-2.767 7.603c-1.142 3.138-4.105 5.086-7.261 5.086z" fill="#17998c" fill-opacity="1" data-original-color="#17998cff" stroke="none" stroke-opacity="1" style=""/><path d="m105.354 417.723c-3.176 0-6.152-1.974-7.279-5.137l-2.707-7.603c-1.432-4.02.667-8.439 4.687-9.87 4.019-1.431 8.439.667 9.87 4.687l2.707 7.603c1.432 4.02-.668 8.44-4.687 9.87-.856.305-1.731.45-2.591.45z" fill="#17998c" fill-opacity="1" data-original-color="#17998cff" stroke="none" stroke-opacity="1" style=""/></g><g><g><path d="m365.571 428.604c-4.267 0-7.726-3.459-7.726-7.726v-31.438c0-4.268 3.459-7.726 7.726-7.726s7.726 3.459 7.726 7.726v31.438c0 4.267-3.459 7.726-7.726 7.726z" fill="#9d552e" fill-opacity="1" data-original-color="#9d552eff" stroke="none" stroke-opacity="1"/><path d="m403.558 388.752h-75.975c-6.762 0-10.805-7.502-7.1-13.159 17.409-26.586 31.695-67.345 40.909-116.804.865-4.643 7.493-4.643 8.358 0 9.214 49.459 23.5 90.219 40.909 116.804 3.704 5.657-.339 13.159-7.101 13.159z" fill="#1ec186" fill-opacity="1" data-original-color="#1ec186ff" stroke="none" stroke-opacity="1" style=""/><path d="m403.554 388.752h-27.519c6.767 0 10.806-7.501 7.103-13.156-12.202-18.633-22.872-44.243-31.328-74.92 3.62-13.083 6.819-27.1 9.579-41.882.871-4.648 7.501-4.648 8.362 0 9.212 49.457 23.501 90.217 40.906 116.802 3.703 5.655-.336 13.156-7.103 13.156z" fill="#1eb07c" fill-opacity="1" data-original-color="#1eb07cff" stroke="none" stroke-opacity="1" style=""/></g></g></g></g></svg>