<svg xmlns="http://www.w3.org/2000/svg" id="Icons" viewBox="0 0 60 60" width="300" height="300" version="1.1" xmlns:xlink="http://www.w3.org/1999/xlink" xmlns:svgjs="http://svgjs.dev/svgjs"><g width="100%" height="100%" transform="matrix(1,0,0,1,0,0)"><defs><style>.cls-1{fill:#24ae5f;}.cls-2{fill:#4fba6f;}.cls-3{fill:#a56a43;}.cls-4{fill:#f0c419;}.cls-5{fill:#fac176;}.cls-6{fill:#7ed09e;}.cls-7{fill:#71c285;}</style></defs><path class="" d="M21.98,38.39C22,39,15,59,15,59H3a2.0059,2.0059,0,0,1-2-2V36.04a2.01,2.01,0,0,1,2.1-2A48.8214,48.8214,0,0,1,21.98,38.39Z" fill="#204731" fill-opacity="1" data-original-color="#24ae5fff" stroke="none" stroke-opacity="1"/><path class="" d="M59,25.04V57a2.0059,2.0059,0,0,1-2,2H15a32.1183,32.1183,0,0,1,6.98-20.61A36.2169,36.2169,0,0,1,32,29.86l4-2.1a55.3267,55.3267,0,0,1,20.9-4.72A2.0043,2.0043,0,0,1,59,25.04Z" fill="#31754a" fill-opacity="1" data-original-color="#4fba6fff" stroke="none" stroke-opacity="1"/><rect class="" x="32" y="27" width="4" height="8" fill="#9b613b" fill-opacity="1" data-original-color="#a56a43ff" stroke="none" stroke-opacity="1"/><path class="" d="M38,36H30a1,1,0,0,1,0-2h8a1,1,0,0,1,0,2Z" fill="#204731" fill-opacity="1" data-original-color="#24ae5fff" stroke="none" stroke-opacity="1"/><circle class="" cx="9" cy="9" r="8" fill="#f7d320" fill-opacity="1" data-original-color="#f0c419ff" stroke="none" stroke-opacity="1"/><path class="" d="M59,25.04V29a26.0033,26.0033,0,0,1-3,10c-4,7-7.52,7.31-13,12a14.6906,14.6906,0,0,0-4.9,8H24a14.6469,14.6469,0,0,1,5-14c5.48-4.69,15-5,19-12a25.8935,25.8935,0,0,0,2.95-9.46,58.6821,58.6821,0,0,1,5.95-.5A2.0043,2.0043,0,0,1,59,25.04Z" fill="#e8bd6c" fill-opacity="1" data-original-color="#fac176ff" stroke="none" stroke-opacity="1"/><path class="" d="M33.1337,1.4961l-5.259,9.0154a1,1,0,0,0,.8638,1.5039H39.2564a1,1,0,0,0,.8638-1.5039l-5.259-9.0154A1,1,0,0,0,33.1337,1.4961Z" fill="#2fa357" fill-opacity="1" data-original-color="#7ed09eff" stroke="none" stroke-opacity="1"/><path class="" d="M29.0174,12.0154l-3.16,5.502a1,1,0,0,0,.8672,1.498H41.27a1,1,0,0,0,.8672-1.498l-3.16-5.502Z" fill="#52cb78" fill-opacity="1" data-original-color="#71c285ff" stroke="none" stroke-opacity="1"/><path class="" d="M40.45,19.02l3.29,5.78.41.72a1.0026,1.0026,0,0,1-.87,1.5H24.72a1.0026,1.0026,0,0,1-.87-1.5l3.7-6.5Z" fill="#2fa357" fill-opacity="1" data-original-color="#7ed09eff" stroke="none" stroke-opacity="1"/></g></svg>