<svg id="Capa_1" enable-background="new 0 0 512 512" viewBox="0 0 512 512" xmlns="http://www.w3.org/2000/svg"><g><g><g><path d="m112.035 173.547c-4.259 0-7.71-3.452-7.71-7.71v-85.639c0-4.259 3.452-7.71 7.71-7.71s7.71 3.452 7.71 7.71v85.639c.001 4.258-3.451 7.71-7.71 7.71z" fill="#d1a08f"/></g><path d="m134.54 53.078c.186-.269.424-.61.589-.889-.997.372-.021.021 0 0 2.089-3.33 3.253-7.955 3.253-12.547 0-9.092-3.785-16.418-10.388-18.576-.488-.159-.859-.837-1.114-1.252-.192-.313-.301-.678-.301-1.065v-.721c0-10.279-6.857-17.447-15.307-17.447-3.472 0-6.666 1.292-9.235 3.482-.178.14-.354.289-.527.451-3.393 3.164-5.555 7.983-5.555 13.515 0 .03.001.334.003.712.004.905-.585 1.693-1.445 1.974-6.608 2.16-11.487 9.8-11.487 18.888 0 4.592 1.251 8.812 3.341 12.142.01.01.021.031.031.041.201.301.393.548.558.848-2.432 1.211-2.568 4.041-4.434 6.286-1.641 1.974-5.091 3.261-6.136 5.835-1.438 3.527-2.244 7.529-2.244 11.77 0 3.429.538 6.697 1.487 9.69 1.882 5.936 9.65 14.017 18.076 14.017 3.258 0 6.34-.983 9.06-2.741 4.602-2.961 11.056-3.869 15.783-1.235.277.154.549.318.819.491 2.72 1.758 5.792 2.741 9.06 2.741 11.108 0 17.719-8.15 17.719-22.309.002-17.637-10.741-23.67-11.606-24.101z" fill="#c3ea78"/><path d="m148.403 76.522c0 14.159-9.015 25.641-20.126 25.641-3.266 0-6.338-.984-9.063-2.742-.266-.169-.54-.339-.814-.492-4.733-2.629-10.466-2.467-15.07.492-2.717 1.758-5.798 2.742-9.055 2.742-8.426 0-15.643-6.596-18.643-15.949 34.98-.155 57.444-29.297 51.25-66.401.25.419.654.741 1.146.895 6.604 2.161 11.482 9.805 11.482 18.892 0 4.596-1.242 8.813-3.33 12.143-.024.024-.04.048-.056.073-.161.282-.347.548-.532.814.863.435 1.266 1.193 1.484 2.105 1.492 1.121 2.83 2.491 4.072 4.08.984 1.266 1.855 2.661 2.621 4.161 1.105.395 2.032.903 2.379 1.758 1.448 3.539 2.255 7.538 2.255 11.788z" fill="#acdd66"/><path d="m93.981 70.112c-1.531 1.975-3.816 3.01-6.133 3.01-1.665 0-3.33-.538-4.747-1.624-2.544-1.965-4.789-4.23-6.712-6.743 2.234-5.502 5.999-9.846 10.57-12.121l.041.092c1.427 2.544 3.31 4.727 5.595 6.505 3.392 2.617 4.013 7.489 1.386 10.881z" fill="#acdd66"/><path d="m146.148 64.734c-1.924 2.534-4.168 4.789-6.702 6.764-1.417 1.086-3.092 1.624-4.747 1.624-2.317 0-4.76-.929-6.143-3.01-1.865-2.805-1.996-8.264 1.386-10.88 2.296-1.779 4.168-3.961 5.585-6.485 0-.01.062-.103.062-.114 4.571 2.276 8.325 6.609 10.559 12.101z" fill="#95d359"/></g><g><g><path d="m208.236 224.512c-4.259 0-7.71-3.452-7.71-7.71v-85.639c0-4.259 3.452-7.71 7.71-7.71s7.71 3.452 7.71 7.71v85.639c.001 4.259-3.451 7.71-7.71 7.71z" fill="#d1a08f"/></g><path d="m230.741 104.044c.186-.269.424-.61.589-.889-.997.372-.021.021 0 0 2.089-3.33 3.253-7.955 3.253-12.547 0-9.092-3.785-16.418-10.388-18.576-.488-.159-.859-.837-1.114-1.252-.192-.313-.301-.678-.301-1.065v-.721c0-10.279-6.857-17.447-15.307-17.447-3.472 0-6.666 1.292-9.235 3.482-.178.14-.354.289-.527.451-3.393 3.164-5.555 7.983-5.555 13.515 0 .03.001.334.003.712.004.905-.585 1.693-1.445 1.974-6.608 2.16-11.487 9.8-11.487 18.888 0 4.592 1.251 8.812 3.341 12.142.01.01.021.031.031.041.201.301.393.548.558.848-2.432 1.211-2.568 4.041-4.434 6.286-1.641 1.974-5.091 3.261-6.136 5.835-1.438 3.527-2.244 7.529-2.244 11.77 0 3.429.579 6.684 1.487 9.69 1.727 5.717 9.65 14.017 18.076 14.017 3.258 0 6.34-.983 9.06-2.741 4.602-2.961 11.056-3.869 15.783-1.235.277.154.549.318.819.491 2.72 1.758 5.792 2.741 9.06 2.741 11.108 0 17.719-8.15 17.719-22.309.002-17.637-10.741-23.671-11.606-24.101z" fill="#c3ea78"/><path d="m244.604 127.487c0 14.159-9.015 25.641-20.126 25.641-3.266 0-6.338-.984-9.063-2.742-.266-.169-.54-.339-.814-.492-4.733-2.629-10.466-2.467-15.07.492-2.717 1.758-5.798 2.742-9.055 2.742-8.426 0-15.643-6.596-18.643-15.949 34.98-.155 57.444-29.297 51.25-66.401.25.419.654.741 1.146.895 6.604 2.161 11.482 9.805 11.482 18.892 0 4.596-1.242 8.813-3.33 12.143-.024.024-.04.048-.056.073-.161.282-.347.548-.532.814.863.435 1.266 1.193 1.484 2.105 1.492 1.121 2.83 2.491 4.072 4.08.984 1.266 1.855 2.661 2.621 4.161 1.105.395 2.032.903 2.379 1.758 1.448 3.54 2.255 7.539 2.255 11.788z" fill="#acdd66"/><path d="m190.182 121.078c-1.531 1.975-3.816 3.01-6.133 3.01-1.665 0-3.33-.538-4.747-1.624-2.544-1.965-4.789-4.23-6.712-6.743 2.234-5.502 5.999-9.846 10.57-12.121l.041.093c1.427 2.544 3.31 4.727 5.595 6.505 3.392 2.616 4.013 7.487 1.386 10.88z" fill="#acdd66"/><path d="m242.349 115.7c-1.924 2.534-4.168 4.789-6.702 6.764-1.417 1.086-3.092 1.624-4.747 1.624-2.317 0-4.76-.929-6.143-3.01-1.865-2.805-1.996-8.264 1.386-10.88 2.296-1.779 4.168-3.961 5.585-6.485 0-.01.062-.103.062-.114 4.571 2.275 8.325 6.609 10.559 12.101z" fill="#95d359"/></g><path d="m509.038 97.443c0-3.004-2.563-5.395-5.556-5.14-6.376.543-8.561 1.509-14.682 3.955-2.252.9-5.574-.578-7.701.556-8.536 4.553-15.994 10.943-21.817 18.743l-16.07 21.523c-9.478 12.695-24.392 20.172-40.235 20.172-25.843 0-50.734 9.755-69.696 27.315l-13.651 12.643-114.537 11.587-27.734-25.864c-18.961-17.56-42.352-27.097-68.195-27.097-15.82 0-33.299-7.715-42.742-20.408l-16.666-21.144c-7.054-9.482-15.102-16.278-26.076-20.663l-.603-.241c-6.158-2.461-8.815-4.485-15.213-5.031-2.994-.256-5.557 2.136-5.557 5.14l-2.307 12.704.177 400.542c0 2.844 2.305 5.149 5.149 5.149h77.958l30.868-10.299h259.856l41.714 10.299h62.291l25.536-2.837c2.844 0 5.149-2.305 5.149-5.149z" fill="#c3ea78"/><g><path d="m52.386 511.884h30.898l30.868-10.299h-30.898z" fill="#b4e555"/><path d="m506.444 89.283c-6.376.543-12.651 2.03-18.772 4.476-2.252.9-4.443 1.926-6.57 3.061v409.916c0 2.844-2.305 5.149-5.149 5.149h30.898c2.844 0 5.149-2.305 5.149-5.149v-412.313c0-3.004-2.563-5.395-5.556-5.14z" fill="#acdd66"/></g><g fill="#acdd66"><path d="m4.849 107.918.603.241c10.974 4.385 20.519 11.726 27.573 21.208l16.245 21.835c9.443 12.693 24.362 20.173 40.183 20.173 25.843 0 50.734 9.755 69.696 27.315l33.232 32.887 21.281-14.284-7.713-10.145-27.054-25.525c-18.961-17.56-43.852-27.315-69.696-27.315h-.03c-15.82 0-30.709-7.48-40.152-20.173l-16.247-21.835c-7.054-9.482-16.599-16.823-27.573-21.208l-.603-.241c-6.158-2.461-12.462-3.956-18.86-4.502-2.994-.256-5.557 2.136-5.557 5.14l-.177 14.704c1.626.511 3.243 1.083 4.849 1.725z"/><path d="m94.583 507.765-12.347 4.119h1.048l12.347-4.119z"/></g><path d="m403.14 507.324-18.314 4.575-203.246.101-12.101-2.06-8.763 2.06-77.433-.116 38.207-25.208c9.896-6.56 15.849-17.641 15.849-29.515 0-4.995-1.05-9.866-3.028-14.325-1.977-4.469-4.881-8.527-8.579-11.884l-10.205-9.279c-8.403-7.631-13.192-18.455-13.192-29.793 0-8.527 2.688-16.58 7.374-23.223 4.696-6.642 11.39-11.874 19.423-14.716l60.204-21.369c12.296-4.366 20.524-15.993 20.524-29.041v-.052c0-9.866-3.151-19.484-8.99-27.455l-13.12-17.888c-3.831-5.232-5.911-11.534-5.952-18.022l-.01-.989c-.062-11.4 6.035-21.956 15.942-27.589l.803-.453c27.424-15.592 59.174-21.843 90.46-17.806.912.118 1.818.234 2.716.35 15.204 1.959 19.024 4.481 19.024 4.481l-20.764 17.122c-5.571 5.149-8.733 12.399-8.733 19.979 0 4.49 1.112 8.846 3.141 12.708 2.029 3.852 4.995 7.229 8.702 9.763l46.41 34.43c11.174 7.662 17.847 20.339 17.847 33.881 0 5.849-1.246 11.555-3.584 16.776s-5.757 9.958-10.113 13.851l-6.426 5.736c-15.241 13.625-19.765 33.872-19.765 54.325 0 12.595 3.295 24.726 9.289 35.333 6.004 10.607 14.696 19.69 25.478 26.188z" fill="#8ac9fe"/><g fill="#60b7ff"><path d="m138.584 509.94-8.568 2.014 20.581.031z"/><path d="m158.223 511.996 2.493.004.021-.005z"/><path d="m406.872 506.392-48.532-28.943c-10.782-6.498-19.474-15.581-25.478-26.188-5.994-10.607-9.289-22.739-9.289-35.333 0-20.452 8.712-39.926 23.954-53.551l6.426-5.736c4.356-3.893 7.775-8.63 10.113-13.851s3.584-10.926 3.584-16.776c0-13.542-6.673-26.219-17.847-33.881l-48.113-32.975c-3.707-2.533-6.673-5.911-8.702-9.763-2.029-3.862-3.141-8.218-3.141-12.708 0-7.579 3.161-14.829 8.733-19.979l21.05-19.495s-12.718-1.625-27.922-3.584l-24.023 23.079c-5.571 5.149-8.733 12.399-8.733 19.979 0 4.49 1.112 8.846 3.141 12.708 2.029 3.852 4.995 7.229 8.702 9.763l48.113 32.975c11.174 7.662 18.877 20.339 18.877 33.881 0 5.849-1.246 11.555-3.584 16.776s-5.757 9.958-10.113 13.851l-6.426 5.736c-15.241 13.625-21.894 33.099-21.894 53.551 0 12.595 3.295 24.726 9.289 35.333 6.004 10.607 14.696 19.69 25.478 26.188l45.443 28.943 8.85 5.492-203.336.1.088.016 234.141-.116z"/></g><g><path d="m193.303 378.46c-3.085 0-6-1.862-7.194-4.908-1.556-3.971.402-8.453 4.374-10.01l8.424-3.301c.078-.03.157-.059.235-.087 23.92-8.487 39.991-31.242 39.991-56.622 0-4.266 3.458-7.724 7.724-7.724s7.724 3.458 7.724 7.724c0 31.864-20.148 60.435-50.152 71.137l-8.31 3.256c-.925.363-1.879.535-2.816.535z" fill="#60b7ff"/></g><g><path d="m181.58 512h-20.864l5.149-5.602c.051-.062.113-.124.165-.185 17.785-18.115 22.244-45.611 11.112-68.422-1.864-3.831-.278-8.455 3.563-10.329 3.831-1.874 8.455-.278 10.319 3.553 12.996 26.641 9.083 58.349-9.444 80.985z" fill="#60b7ff"/></g><g><path d="m276.026 461.689c-3.341 0-6.42-2.184-7.409-5.551-3.424-11.675-5.16-23.664-5.16-35.635 0-27.763 9.127-54.911 26.394-78.506 2.518-3.444 7.353-4.193 10.794-1.672 3.442 2.519 4.192 7.353 1.672 10.794-15.318 20.931-23.413 44.924-23.413 69.385 0 10.498 1.527 21.025 4.537 31.286 1.2 4.093-1.145 8.385-5.238 9.586-.726.212-1.458.313-2.177.313z" fill="#60b7ff"/></g><g><g fill="#acdd66"><circle cx="24.847" cy="176.608" r="7.724"/><circle cx="59.099" cy="186.856" r="7.724"/><circle cx="51.375" cy="273.651" r="7.724"/><circle cx="21.165" cy="413.191" r="7.724"/><circle cx="45.209" cy="392.631" r="7.724"/><circle cx="51.282" cy="422.16" r="7.724"/><circle cx="473.38" cy="473.149" r="7.724"/><circle cx="465.103" cy="364.674" r="7.724"/></g><circle cx="495.489" cy="344.318" fill="#95d359" r="7.724"/><circle cx="392.912" cy="258.747" fill="#acdd66" r="7.724"/><circle cx="362.794" cy="249.778" fill="#acdd66" r="7.724"/><circle cx="386.839" cy="229.026" fill="#acdd66" r="7.724"/><circle cx="495.489" cy="189.534" fill="#acdd66" r="7.724"/><circle cx="463.176" cy="168.359" fill="#acdd66" r="7.724"/></g><g><g><path d="m120.704 347.968c-4.266 0-7.724-3.458-7.724-7.724v-94.354c0-4.266 3.458-7.724 7.724-7.724s7.724 3.458 7.724 7.724v94.354c0 4.267-3.457 7.724-7.724 7.724z" fill="#95969b"/></g><path d="m120.19 358.424-7.722-4.794c-18.302-11.361-27.319-33.129-22.411-54.104l1.09-4.659c.482-2.058 2.842-3.036 4.638-1.921l4.065 2.523c18.302 11.361 27.319 33.129 22.411 54.104z" fill="#95d359"/><path d="m120.19 358.424-2.071-8.85c-4.908-20.975 4.109-42.743 22.411-54.104l4.065-2.523c1.796-1.115 4.156-.137 4.638 1.921l1.09 4.659c4.908 20.975-4.109 42.743-22.411 54.104z" fill="#acdd66"/><path d="m120.704 264.589c-2.681 0-5.207 1.31-7.419.132-4.989-2.657-8.384-7.911-8.384-13.957v-28.614c0-6.047 3.396-11.3 8.384-13.957 2.212-1.178 4.737.132 7.419.132 8.728 0 13.826 5.098 13.826 13.826v28.614c0 8.727-5.098 13.824-13.826 13.824z" fill="#d1a08f"/><path d="m120.704 206.511c-2.681 0-5.207.503-7.419 1.682 4.988 2.657 8.39 8.075 8.39 14.122v28.614c0 6.046-3.402 11.135-8.39 13.793 2.212 1.178 4.737 2.011 7.419 2.011 8.728 0 15.803-7.075 15.803-15.803v-28.614c.001-8.73-7.075-15.805-15.803-15.805z" fill="#c68d7a"/></g><g><g><path d="m415.719 485.49c-4.266 0-7.724-3.458-7.724-7.724v-103.865c0-4.266 3.458-7.724 7.724-7.724s7.724 3.458 7.724 7.724v103.866c0 4.265-3.458 7.723-7.724 7.723z" fill="#95969b"/></g><path d="m415.72 387.727c-2.793 0-5.423 1.364-7.727.137-5.196-2.768-8.733-8.24-8.733-14.538v-29.804c0-6.298 3.537-11.77 8.733-14.538 2.304-1.227 4.934.137 7.727.137 9.091 0 14.401 5.31 14.401 14.401v29.804c-.001 9.091-5.31 14.401-14.401 14.401z" fill="#d1a08f"/><path d="m415.72 327.233c-2.793 0-5.423.524-7.727 1.751 5.196 2.768 8.739 8.411 8.739 14.709v29.804c0 6.298-3.543 11.599-8.739 14.366 2.304 1.227 4.934 2.094 7.727 2.094 9.091 0 16.46-7.37 16.46-16.46v-29.804c0-9.09-7.369-16.46-16.46-16.46z" fill="#c68d7a"/><path d="m415.72 511.884-9.059-5.624c-21.471-13.328-32.049-38.866-26.291-63.472l1.449-6.191c.482-2.058 2.842-3.036 4.638-1.921l5.402 3.354c21.471 13.328 32.049 38.866 26.291 63.472z" fill="#95d359"/><path d="m415.72 511.884-2.429-10.382c-5.758-24.607 4.82-50.144 26.291-63.472l5.402-3.354c1.796-1.115 4.156-.137 4.638 1.921l1.449 6.191c5.758 24.607-4.82 50.144-26.291 63.472z" fill="#acdd66"/></g><g><g><path d="m379.341 197.593c-4.259 0-7.71-3.452-7.71-7.71v-87.649c0-4.259 3.452-7.71 7.71-7.71s7.71 3.452 7.71 7.71v87.649c.001 4.258-3.451 7.71-7.71 7.71z" fill="#d1a08f"/></g><path d="m409.006 66.934c.237-.343.541-.778.752-1.134-1.271.475-.026.026 0 0 2.664-4.246 4.148-10.143 4.148-15.998 0-11.592-4.826-20.933-13.244-23.683-.622-.203-1.096-1.067-1.42-1.597-.245-.399-.384-.864-.384-1.358v-.919c-.001-13.105-8.743-22.245-19.517-22.245-4.427 0-8.499 1.647-11.774 4.44-.227.178-.451.368-.673.575-4.326 4.034-7.082 10.179-7.082 17.231 0 .039.002.426.004.908.005 1.153-.745 2.158-1.842 2.517-8.425 2.754-14.645 12.494-14.645 24.082 0 5.855 1.596 11.235 4.259 15.481.013.013.026.04.04.053.256.384.501.699.712 1.081-3.101 1.544-3.274 5.153-5.654 8.015-2.093 2.517-6.49 4.157-7.823 7.44-1.833 4.496-2.862 9.6-2.862 15.006 0 4.371.593 8.57 1.896 12.354 2.225 6.46 12.304 17.872 23.047 17.872 4.154 0 8.083-1.253 11.551-3.494 5.868-3.775 14.096-4.933 20.124-1.575.353.197.7.405 1.044.626 3.468 2.242 7.384 3.494 11.551 3.494 14.162 0 22.591-10.391 22.591-28.443.001-22.487-13.696-30.179-14.799-30.729z" fill="#c3ea78"/><path d="m426.68 96.825c0 18.053-11.494 32.692-25.66 32.692-4.164 0-8.08-1.254-11.555-3.495-.339-.216-.689-.432-1.038-.627-6.035-3.351-13.344-3.146-19.214.627-3.465 2.241-7.392 3.495-11.545 3.495-10.743 0-19.945-8.409-23.769-20.335 44.599-.198 73.239-37.353 65.343-84.66.319.535.834.945 1.461 1.141 8.42 2.755 14.639 12.501 14.639 24.087 0 5.86-1.583 11.237-4.246 15.482-.031.031-.051.062-.072.092-.206.36-.442.699-.678 1.038 1.1.555 1.614 1.521 1.892 2.683 1.902 1.429 3.608 3.177 5.192 5.202 1.254 1.614 2.365 3.393 3.341 5.305 1.408.504 2.591 1.151 3.033 2.241 1.848 4.515 2.876 9.614 2.876 15.032z" fill="#acdd66"/><path d="m357.293 88.653c-1.952 2.519-4.866 3.837-7.819 3.837-2.123 0-4.246-.686-6.053-2.07-3.244-2.505-6.105-5.393-8.558-8.598 2.848-7.015 7.648-12.554 13.477-15.455l.053.119c1.82 3.244 4.22 6.026 7.134 8.294 4.325 3.337 5.116 9.547 1.766 13.873z" fill="#acdd66"/><path d="m423.806 81.796c-2.453 3.231-5.314 6.105-8.545 8.624-1.807 1.385-3.943 2.07-6.053 2.07-2.954 0-6.069-1.184-7.833-3.837-2.378-3.577-2.545-10.536 1.767-13.872 2.928-2.268 5.314-5.05 7.121-8.268 0-.013.079-.132.079-.145 5.829 2.9 10.615 8.426 13.464 15.428z" fill="#95d359"/></g><g><path d="m391.908 203.449c-1.297 0-2.612-.327-3.82-1.016-5.264-3.003-11.805-3.003-17.069 0-3.702 2.115-8.422.824-10.536-2.882-2.114-3.705-.823-8.423 2.882-10.536 9.984-5.696 22.391-5.696 32.375 0 3.705 2.113 4.996 6.831 2.882 10.536-1.422 2.498-4.031 3.898-6.714 3.898z" fill="#acdd66"/></g></g><g/><g/><g/><g/><g/><g/><g/><g/><g/><g/><g/><g/><g/><g/><g/></svg>