<svg id="Layer_1" enable-background="new 0 0 498.987 498.987" height="300" viewBox="0 0 498.987 498.987" width="300" xmlns="http://www.w3.org/2000/svg" version="1.1" xmlns:xlink="http://www.w3.org/1999/xlink" xmlns:svgjs="http://svgjs.dev/svgjs"><g width="100%" height="100%" transform="matrix(1,0,0,1,0,0)"><path d="m122.319 219.305c-10.158-15.331-15.26-34.146-13.211-53.867 4.693-45.16 45.107-77.966 90.268-73.273 45.16 4.693 77.966 45.107 73.273 90.268-2.049 19.721-10.906 37.089-24.005 49.999-6.657 6.561-21.157 17.061-21.157 17.061z" fill="#ffe563" fill-opacity="1" data-original-color="#ffe563ff" stroke="none" stroke-opacity="1"/><path d="m93.61 217.414c71.593 4.005 126.367 22.662 126.367 22.662 14.48 4.202 72.843 27.417 72.843 27.417l40.157-25.5s32.592-22.162 78.812-16.088c19.698 2.588 87.198 3.369 87.198 3.369v268.719h-498.987l1.987-276.208c8.71-1.441 17.399-2.541 26.018-3.345z" fill="#b3e897" fill-opacity="1" data-original-color="#b3e897ff" stroke="none" stroke-opacity="1"/><path d="m411.789 225.905c-13.078-1.719-25.062-1.174-35.529.487 23.806 2.201 82.727 2.882 82.727 2.882v268.719h40v-268.719s-67.5-.781-87.198-3.369z" fill="#a4de6a" fill-opacity="1" data-original-color="#a4de6aff" stroke="none" stroke-opacity="1"/><path d="m444.487 497.993c-35-18-26-44-11.51-64 58.114-80.212-66.49-109-114.49-131s14.49-61 14.49-61-48-14.5-103-4.079c-41.426 7.849-94 31.579-94 71.079 0 45 84 29 84 74s-118.725 54.745-178.98 115z" fill="#9fc4ff" fill-opacity="1" data-original-color="#d2f6ffff" stroke="none" stroke-opacity="1"/><path d="m356.876 485.03c-3.226 0-6.206-2.098-7.181-5.347-6.308-21.025 7.691-37.906 20.041-52.801 8.211-9.902 15.967-19.256 15.96-27.472-.01-11.973-4.468-19.661-29.78-30.972-3.782-1.69-5.477-6.126-3.787-9.907 1.69-3.782 6.125-5.479 9.907-3.788 24.47 10.936 38.641 21.748 38.66 44.655.011 13.633-9.864 25.541-19.414 37.059-10.912 13.159-21.219 25.588-17.221 38.915 1.19 3.968-1.061 8.148-5.028 9.339-.717.216-1.443.319-2.157.319z" fill="#84aaff" fill-opacity="1" data-original-color="#96e6ffff" stroke="none" stroke-opacity="1"/><path d="m323.467 351.995c-.939 0-1.894-.178-2.817-.552-32.358-13.129-63.345-28.248-70.907-49.8-3.979-11.34-3.917-28.521 18.972-45.977 3.294-2.509 7.999-1.878 10.512 1.416 2.512 3.293 1.878 8-1.415 10.512-12.803 9.764-17.354 19.277-13.914 29.082 6.363 18.135 45.626 34.064 62.392 40.866 3.838 1.558 5.687 5.932 4.13 9.77-1.183 2.916-3.99 4.683-6.953 4.683z" fill="#84aaff" fill-opacity="1" data-original-color="#96e6ffff" stroke="none" stroke-opacity="1"/><path d="m70.57 62.945c9.68 0 17.528-7.848 17.528-17.528s-7.848-17.528-17.528-17.528c-.947 0-1.875.077-2.781.222.137-1.036.214-2.09.214-3.163 0-13.23-10.725-23.955-23.955-23.955s-23.954 10.725-23.954 23.955c0 1.073.078 2.127.214 3.163-.906-.144-1.834-.222-2.781-.222-9.679 0-17.527 7.848-17.527 17.528s7.848 17.528 17.528 17.528z" fill="#9fc4ff" fill-opacity="1" data-original-color="#d2f6ffff" stroke="none" stroke-opacity="1"/><path d="m481.459 62.945c9.68 0 17.528-7.848 17.528-17.528s-7.848-17.528-17.528-17.528c-.947 0-1.875.077-2.781.222.137-1.036.214-2.09.214-3.163 0-13.23-10.725-23.955-23.955-23.955s-23.955 10.725-23.955 23.955c0 1.073.078 2.127.214 3.163-.906-.144-1.834-.222-2.781-.222-9.68 0-17.528 7.848-17.528 17.528s7.848 17.528 17.528 17.528z" fill="#9fc4ff" fill-opacity="1" data-original-color="#d2f6ffff" stroke="none" stroke-opacity="1"/><g fill="#ff416a"><path d="m144.487 394.993c9.652 0 9.668-15 0-15-9.652 0-9.668 15 0 15z" fill="#ff416a" fill-opacity="1" data-original-color="#ff416aff" stroke="none" stroke-opacity="1"/><path d="m43.982 444.561c9.652 0 9.668-15 0-15-9.652 0-9.668 15 0 15z" fill="#ff416a" fill-opacity="1" data-original-color="#ff416aff" stroke="none" stroke-opacity="1"/><path d="m474.487 471.993c9.652 0 9.668-15 0-15-9.652 0-9.668 15 0 15z" fill="#ff416a" fill-opacity="1" data-original-color="#ff416aff" stroke="none" stroke-opacity="1"/><path d="m8.732 386.064c9.652 0 9.668-15 0-15-9.652 0-9.668 15 0 15z" fill="#ff416a" fill-opacity="1" data-original-color="#ff416aff" stroke="none" stroke-opacity="1"/><path d="m491.242 386.064c9.652 0 9.668-15 0-15-9.652 0-9.668 15 0 15z" fill="#ff416a" fill-opacity="1" data-original-color="#ff416aff" stroke="none" stroke-opacity="1"/><path d="m379.487 292.993c9.652 0 9.668-15 0-15-9.652 0-9.668 15 0 15z" fill="#ff416a" fill-opacity="1" data-original-color="#ff416aff" stroke="none" stroke-opacity="1"/></g><path d="m61.977 169.997c24.12 0 43.672 84.161 43.672 108.28s-19.552 43.673-43.672 43.673-43.672-19.553-43.672-43.672 19.553-108.281 43.672-108.281z" fill="#4fc96e" fill-opacity="1" data-original-color="#4fc96eff" stroke="none" stroke-opacity="1"/><path d="m61.977 373.57c-4.142 0-7.5-3.357-7.5-7.5v-88.192c0-4.143 3.358-7.5 7.5-7.5s7.5 3.357 7.5 7.5v88.192c0 4.142-3.358 7.5-7.5 7.5z" fill="#ab632e" fill-opacity="1" data-original-color="#ab632eff" stroke="none" stroke-opacity="1"/><path d="m354.482 55.756c24.12 0 43.672 84.161 43.672 108.28s-19.553 43.672-43.672 43.672-43.672-19.553-43.672-43.672 19.553-108.28 43.672-108.28z" fill="#298b65" fill-opacity="1" data-original-color="#298b65ff" stroke="none" stroke-opacity="1"/><path d="m354.482 274.993c-4.142 0-7.5-3.357-7.5-7.5v-103.857c0-4.143 3.358-7.5 7.5-7.5s7.5 3.357 7.5 7.5v103.857c0 4.143-3.358 7.5-7.5 7.5z" fill="#de9252" fill-opacity="1" data-original-color="#de9252ff" stroke="none" stroke-opacity="1"/><path d="m455.315 120.993c24.12 0 43.672 84.161 43.672 108.28s-19.553 43.672-43.672 43.672c-24.12 0-43.672-19.553-43.672-43.672s19.552-108.28 43.672-108.28z" fill="#4fc96e" fill-opacity="1" data-original-color="#4fc96eff" stroke="none" stroke-opacity="1"/><path d="m455.315 120.993c-7.208 0-14.008 7.52-20 18.704 14.059 26.24 23.672 72.665 23.672 89.576 0 16.909-9.616 31.563-23.672 38.82 5.994 3.094 12.79 4.853 20 4.853 24.12 0 43.672-19.553 43.672-43.672s-19.553-108.281-43.672-108.281z" fill="#45bf64" fill-opacity="1" data-original-color="#45bf64ff" stroke="none" stroke-opacity="1"/><path d="m455.315 324.567c-4.142 0-7.5-3.357-7.5-7.5v-88.193c0-4.143 3.358-7.5 7.5-7.5s7.5 3.357 7.5 7.5v88.193c0 4.142-3.358 7.5-7.5 7.5z" fill="#ab632e" fill-opacity="1" data-original-color="#ab632eff" stroke="none" stroke-opacity="1"/></g></svg>