<svg id="Capa_1" enable-background="new 0 0 512 512" height="512" viewBox="0 0 512 512" width="512" xmlns="http://www.w3.org/2000/svg"><g><g><path d="m176.52 81.881 57.402-60.151c2.882-3.02 1.018-8.017-3.134-8.435-14.809-1.493-43.558-.889-64.721 21.288-4.456 4.669-7.936 9.631-10.641 14.692l-5.627 60.607z" fill="#9be69d"/><path d="m151.875 106.202-24.167 3.475c-3.144 5.705-6.221 11.543-9.238 17.474l31.516 14.743c3.746-8.402 6.907-14.589 9.115-18.003z" fill="#d28b74"/><path d="m149.986 141.895-9.654-14.541-21.861-.202c-35.939 70.655-62.337 156.391-66.028 232.72l18.315 13.691h23.907c1.474-87.164 36.124-188.613 55.323-231.667-.001-.001-.002-.001-.002-.001z" fill="#e89d80"/><path d="m442.312 373.85c-8.833-44.416-47.994-77.895-94.979-77.895s-86.146 33.479-94.979 77.895l95.158 9z" fill="#ff9f67"/><path d="m252.354 373.85c-1.196 6.016-1.843 12.23-1.87 18.592l96.85 9 96.85-9c-.027-6.361-.674-12.576-1.87-18.592z" fill="#ff905c"/><g><path d="m149.799 109.881-121.806-1.124c-4.152-.038-6.469-4.838-3.888-8.093 9.242-11.657 29.73-31.899 60.405-31.616 43.045.398 65.289 40.833 65.289 40.833z" fill="#9be69d"/></g><g><path d="m149.799 109.881-66.455-102.148c-2.276-3.499.475-8.067 4.633-7.714 14.83 1.262 42.976 7.155 59.694 32.853 23.485 36.098 2.128 77.009 2.128 77.009z" fill="#6fd7a3"/></g><g><path d="m149.799 109.881 67.404 101.523c2.298 3.461 7.581 2.784 8.9-1.156 4.72-14.11 10.494-42.334-6.481-67.902-23.82-35.876-69.823-32.465-69.823-32.465z" fill="#9be69d"/></g><g><path d="m149.799 109.881 121.811-.013c4.153-.001 6.512-4.779 3.961-8.057-9.135-11.741-29.438-32.168-60.115-32.165-43.046.004-65.657 40.235-65.657 40.235z" fill="#6fd7a3"/></g><path d="m94.665 373.563c-13.462-5.405-27.555-9.973-42.222-13.691-.293 6.062-.456 12.071-.456 18.002l15.559 14.794h27.35c-.276-6.269-.341-12.65-.231-19.105z" fill="#d28b74"/><path d="m230.588 499.881c.932 1.566 2.616 2.527 4.438 2.527l248.229.296 28.745-9.296v-95.963c0-2.763-2.238-5.003-5-5.003h-373.57s30.367 26.381 46.745 42.83c19.16 19.243 45.377 56.144 50.413 64.609z" fill="#62dbfb"/><path d="m235.026 493.408c-1.822 0-3.506-.961-4.438-2.528-5.036-8.465-22.254-36.366-41.413-55.609-16.377-16.449-35.077-30.799-55.745-42.83h-39.021l.032.03 126.847 119.529h285.712c2.761 0 5-2.24 5-5.003v-13.589z" fill="#01d0fb"/><path d="m212.099 493.408c-20.097-34.803-76.941-107.809-206.435-124.576-2.998-.388-5.664 1.938-5.664 4.963v119.613l97.95 9z" fill="#ffe4cb"/><path d="m0 493.408v13.589c0 2.763 2.239 5.003 5 5.003h216.288s-2.661-7.285-9.19-18.592z" fill="#ffd5af"/></g><g><g fill="#d2cfe9"><path d="m446.953 255.303c12.632.638 18.021 11.649 18.217 12.059 1.26 2.768 4.019 4.545 7.059 4.545s5.8-1.777 7.059-4.545c.053-.114 5.338-11.409 18.217-12.059 4.278-.215 7.572-3.862 7.356-8.143-.215-4.28-3.822-7.599-8.138-7.36-11.496.58-19.447 6.006-24.495 11.218-5.047-5.212-12.998-10.638-24.494-11.218-4.307-.238-7.922 3.08-8.138 7.36-.216 4.281 3.078 7.928 7.357 8.143z"/><path d="m317.581 185.08c12.63.639 18.021 11.65 18.217 12.06 1.259 2.768 4.006 4.574 7.045 4.574 3.04 0 5.786-1.746 7.046-4.515.223-.469 5.614-11.481 18.244-12.119 4.279-.216 7.572-3.862 7.356-8.143-.215-4.281-3.846-7.573-8.138-7.36-11.496.581-19.447 6.007-24.494 11.219-5.047-5.212-12.998-10.638-24.495-11.219-4.299-.212-7.922 3.08-8.138 7.36-.215 4.281 3.078 7.926 7.357 8.143z"/><path d="m219.521 279.988c-11.496.58-19.448 6.006-24.495 11.218-5.047-5.212-12.998-10.638-24.494-11.218-4.308-.226-7.922 3.08-8.138 7.36-.216 4.281 3.078 7.927 7.356 8.143 12.632.638 18.021 11.65 18.217 12.059 1.259 2.768 4.006 4.574 7.045 4.574 3.04 0 5.787-1.746 7.046-4.514.223-.468 5.614-11.481 18.245-12.118 4.279-.215 7.572-3.862 7.356-8.143-.216-4.28-3.831-7.579-8.138-7.361z"/></g><path d="m366.101 429.329c-5.212-4.345-11.807-6.641-18.59-6.596-6.812-.058-13.377 2.253-18.588 6.596-4.806 4.004-11.778 4.004-16.58 0-5.093-4.245-11.548-6.587-18.178-6.597-.005 0-.008 0-.012 0-4.279 0-7.751 3.467-7.757 7.749-.006 4.287 3.461 7.768 7.745 7.774 3.018.004 5.955 1.07 8.271 3.002 10.559 8.799 25.883 8.799 36.44 0 2.386-1.99 5.392-3.077 8.521-3.001.09.002.183.002.275 0 .078-.002.154-.002.23-.002 3.027 0 5.963 1.061 8.292 3.003 5.279 4.399 11.749 6.599 18.219 6.599 6.471 0 12.942-2.2 18.22-6.599 2.316-1.931 5.253-2.997 8.271-3.002 4.284-.006 7.751-3.487 7.745-7.774-.006-4.282-3.479-7.749-7.757-7.749-.004 0-.008 0-.012 0-6.63.01-13.085 2.353-18.178 6.597-4.8 4.004-11.773 4.004-16.577 0z" fill="#01c0fa"/><path d="m319.219 462.419c-6.883-.112-13.482 2.221-18.726 6.594-4.805 4.002-11.778 4.005-16.581 0-5.093-4.245-11.548-6.587-18.177-6.597-.005 0-.008 0-.012 0-4.279 0-7.751 3.467-7.757 7.749-.006 4.287 3.461 7.768 7.745 7.774 3.017.004 5.954 1.07 8.271 3.001 5.278 4.399 11.749 6.599 18.219 6.599 6.471 0 12.943-2.2 18.222-6.6 2.385-1.989 5.357-3.063 8.52-2.999.046.001.093.001.14.001 4.22 0 7.677-3.385 7.753-7.624.077-4.285-3.334-7.821-7.617-7.898z" fill="#01c0fa"/><path d="m394.132 469.013c-5.093-4.245-11.548-6.587-18.177-6.597-.005 0-.008 0-.012 0-4.279 0-7.751 3.467-7.757 7.749-.006 4.287 3.462 7.768 7.745 7.774 3.017.004 5.954 1.07 8.271 3.001 5.279 4.399 11.749 6.599 18.219 6.599 6.471 0 12.943-2.2 18.222-6.6 2.385-1.989 5.393-3.063 8.52-2.999.046.001.093.001.14.001 4.22 0 7.677-3.385 7.753-7.624.076-4.285-3.335-7.821-7.618-7.898-6.867-.112-13.482 2.221-18.726 6.594-4.804 4.002-11.778 4.005-16.58 0z" fill="#01c0fa"/></g></g></svg>