<svg id="Capa_1" enable-background="new 0 0 512 512" height="512" viewBox="0 0 512 512" width="512" xmlns="http://www.w3.org/2000/svg"><g><g><path d="m502 199.807h-437.48v312.193l191.478-9.709 191.478 9.709h54.524c5.523 0 10-4.477 10-10v-292.193c0-5.523-4.477-10-10-10z" fill="#91dafa"/></g><g><path d="m484.943 199.807v312.193h17.057c5.523 0 10-4.477 10-10v-292.193c0-5.523-4.477-10-10-10z" fill="#75cff9"/></g><g><path d="m447.476 512s-285.378-28.704-319.475-156.096c-34.651-129.46 128.001-156.097 128.001-156.097l-188.081-32.709c-2.263-.394-4.556-.592-6.854-.592h-51.067c-5.523 0-10 4.477-10 10l.004 325.494c0 5.523 4.477 10 10 10z" fill="#fed2a4"/></g><g><path d="m256.002 199.807-61.597-10.712c-49.56 18.417-120.836 63.67-102.755 169.487 13.927 81.514 111.111 127.993 196.683 153.418h159.144s-285.378-28.704-319.475-156.096c-34.652-129.46 128-156.097 128-156.097z" fill="#ffbd86"/></g><g><g><circle cx="64.52" cy="41.626" fill="#ffe07d" r="41.626"/></g><g><path d="m80.19 3.061c1.968 4.838 3.061 10.125 3.061 15.67 0 22.989-18.636 41.626-41.626 41.626-5.545 0-10.832-1.093-15.67-3.061 6.191 15.22 21.12 25.955 38.564 25.955 22.989 0 41.626-18.637 41.626-41.626 0-17.444-10.735-32.373-25.955-38.564z" fill="#ffd064"/></g></g><g><path d="m443.958 253.415c-6.511 0-10.114-2.758-12.499-4.582-1.617-1.237-1.953-1.495-3.384-1.495s-1.768.258-3.385 1.495c-2.385 1.824-5.988 4.582-12.5 4.582s-10.115-2.758-12.5-4.582c-1.617-1.237-1.954-1.495-3.385-1.495s-1.768.258-3.385 1.495c-2.385 1.824-5.988 4.582-12.499 4.582-6.512 0-10.115-2.758-12.5-4.582-1.617-1.237-1.953-1.495-3.384-1.495s-1.767.258-3.384 1.495c-2.385 1.824-5.988 4.582-12.5 4.582-4.143 0-7.5-3.357-7.5-7.5s3.357-7.5 7.5-7.5c1.431 0 1.768-.258 3.385-1.495 2.385-1.824 5.988-4.582 12.499-4.582s10.114 2.758 12.499 4.582c1.617 1.237 1.954 1.495 3.385 1.495s1.767-.258 3.384-1.495c2.385-1.824 5.988-4.582 12.5-4.582s10.115 2.758 12.5 4.582c1.617 1.237 1.954 1.495 3.385 1.495s1.768-.258 3.385-1.495c2.385-1.824 5.988-4.582 12.5-4.582 6.511 0 10.114 2.758 12.499 4.582 1.617 1.237 1.953 1.495 3.384 1.495 4.143 0 7.5 3.357 7.5 7.5s-3.357 7.5-7.5 7.5z" fill="#d3effd"/></g><g><path d="m380.423 371.044c-6.511 0-10.115-2.757-12.499-4.581-1.618-1.237-1.954-1.495-3.386-1.495s-1.768.258-3.386 1.495c-2.384 1.824-5.988 4.581-12.499 4.581s-10.114-2.757-12.499-4.582c-1.617-1.236-1.953-1.494-3.384-1.494-1.432 0-1.768.258-3.385 1.495-2.385 1.824-5.988 4.581-12.499 4.581-4.143 0-7.5-3.357-7.5-7.5s3.357-7.5 7.5-7.5c1.431 0 1.768-.258 3.384-1.494 2.385-1.825 5.988-4.582 12.5-4.582 6.511 0 10.114 2.757 12.499 4.582 1.617 1.236 1.953 1.494 3.384 1.494 1.432 0 1.768-.258 3.386-1.495 2.384-1.824 5.988-4.581 12.499-4.581s10.115 2.757 12.499 4.581c1.618 1.237 1.954 1.495 3.386 1.495 4.143 0 7.5 3.357 7.5 7.5s-3.358 7.5-7.5 7.5z" fill="#d3effd"/></g><g><path d="m478.699 425.564c-6.511 0-10.114-2.757-12.499-4.582-1.617-1.236-1.953-1.494-3.384-1.494-1.432 0-1.768.258-3.386 1.495-2.384 1.824-5.988 4.581-12.499 4.581s-10.115-2.757-12.499-4.581c-1.618-1.237-1.954-1.495-3.386-1.495-1.431 0-1.767.258-3.384 1.494-2.385 1.825-5.988 4.582-12.5 4.582-6.511 0-10.114-2.757-12.499-4.581-1.617-1.237-1.953-1.495-3.385-1.495-1.431 0-1.767.258-3.384 1.494-2.385 1.825-5.988 4.582-12.499 4.582-4.143 0-7.5-3.357-7.5-7.5s3.357-7.5 7.5-7.5c1.431 0 1.767-.258 3.384-1.494 2.385-1.825 5.988-4.582 12.499-4.582 6.512 0 10.115 2.757 12.5 4.582 1.616 1.236 1.953 1.494 3.384 1.494 1.432 0 1.768-.258 3.385-1.495 2.385-1.824 5.988-4.581 12.499-4.581s10.115 2.757 12.499 4.581c1.618 1.237 1.954 1.495 3.386 1.495s1.768-.258 3.386-1.495c2.384-1.824 5.988-4.581 12.499-4.581s10.114 2.757 12.499 4.582c1.617 1.236 1.953 1.494 3.384 1.494 4.143 0 7.5 3.357 7.5 7.5s-3.357 7.5-7.5 7.5z" fill="#d3effd"/></g><g><path d="m323.167 313.181c-6.511 0-10.114-2.758-12.499-4.582-1.617-1.237-1.954-1.495-3.385-1.495s-1.767.258-3.384 1.495c-2.385 1.824-5.988 4.582-12.499 4.582s-10.115-2.758-12.499-4.582c-1.617-1.237-1.953-1.495-3.384-1.495s-1.768.258-3.385 1.495c-2.385 1.824-5.988 4.582-12.5 4.582s-10.115-2.758-12.5-4.582c-1.617-1.237-1.954-1.495-3.385-1.495s-1.768.258-3.385 1.495c-2.385 1.824-5.988 4.582-12.499 4.582-6.512 0-10.115-2.758-12.5-4.582-1.617-1.237-1.953-1.495-3.384-1.495s-1.767.258-3.384 1.495c-2.385 1.824-5.988 4.582-12.499 4.582-4.143 0-7.5-3.357-7.5-7.5s3.357-7.5 7.5-7.5c1.431 0 1.767-.258 3.384-1.495 2.385-1.824 5.988-4.582 12.499-4.582s10.114 2.758 12.499 4.582c1.617 1.237 1.954 1.495 3.385 1.495s1.767-.258 3.384-1.495c2.385-1.824 5.988-4.582 12.5-4.582s10.115 2.758 12.5 4.582c1.617 1.237 1.954 1.495 3.385 1.495s1.768-.258 3.385-1.495c2.385-1.824 5.988-4.582 12.5-4.582 6.511 0 10.114 2.758 12.499 4.582 1.617 1.237 1.953 1.495 3.384 1.495s1.767-.258 3.384-1.495c2.384-1.824 5.988-4.582 12.499-4.582 6.512 0 10.115 2.758 12.5 4.582 1.617 1.237 1.953 1.495 3.384 1.495 4.143 0 7.5 3.357 7.5 7.5s-3.357 7.5-7.5 7.5z" fill="#d3effd"/></g><g><path d="m117.456 233.589h-10.407c-4.143 0-7.5-3.357-7.5-7.5s3.357-7.5 7.5-7.5h10.407c4.143 0 7.5 3.357 7.5 7.5s-3.357 7.5-7.5 7.5z" fill="#ea9b58"/></g><g><path d="m55.552 276.903h-10.406c-4.143 0-7.5-3.357-7.5-7.5s3.357-7.5 7.5-7.5h10.406c4.143 0 7.5 3.357 7.5 7.5s-3.358 7.5-7.5 7.5z" fill="#ea9b58"/></g><g><path d="m86.504 350.219h-10.406c-4.143 0-7.5-3.357-7.5-7.5s3.357-7.5 7.5-7.5h10.406c4.143 0 7.5 3.357 7.5 7.5s-3.358 7.5-7.5 7.5z" fill="#ea9b58"/></g><g><path d="m48.413 402.896h-10.406c-4.143 0-7.5-3.357-7.5-7.5s3.357-7.5 7.5-7.5h10.406c4.143 0 7.5 3.357 7.5 7.5s-3.357 7.5-7.5 7.5z" fill="#ea9b58"/></g><g><path d="m133.455 445.674h-10.406c-4.143 0-7.5-3.357-7.5-7.5s3.357-7.5 7.5-7.5h10.406c4.143 0 7.5 3.357 7.5 7.5s-3.357 7.5-7.5 7.5z" fill="#ea9b58"/></g><g><path d="m91.707 486.199h-10.406c-4.143 0-7.5-3.357-7.5-7.5s3.357-7.5 7.5-7.5h10.406c4.143 0 7.5 3.357 7.5 7.5s-3.357 7.5-7.5 7.5z" fill="#ea9b58"/></g><g fill="#30569f"><path d="m259.003 14.38c-6.929-3.029-14.622-3.181-21.666-.423-3.275 1.282-6.221 3.128-8.747 5.427-2.526-2.299-5.472-4.144-8.748-5.427-7.042-2.758-14.736-2.607-21.665.423-3.795 1.66-5.526 6.082-3.867 9.877 1.661 3.796 6.085 5.527 9.877 3.867 3.259-1.427 6.876-1.496 10.188-.199 1.08.423 2.076.987 2.99 1.652-.924 1.247-1.478 2.785-1.478 4.457 0 4.143 3.357 7.5 7.5 7.5h10.406c4.143 0 7.5-3.357 7.5-7.5 0-1.669-.552-3.206-1.474-4.451 3.701-2.692 8.688-3.42 13.174-1.458 3.796 1.658 8.217-.07 9.877-3.867 1.659-3.796-.072-8.218-3.867-9.878z"/><path d="m346.081 100.823c-6.93-3.029-14.624-3.181-21.665-.423-3.276 1.282-6.222 3.128-8.748 5.427-2.526-2.299-5.472-4.144-8.748-5.427-7.042-2.758-14.736-2.607-21.665.423-3.795 1.66-5.526 6.082-3.867 9.877 1.66 3.796 6.083 5.528 9.877 3.867 3.258-1.427 6.877-1.496 10.188-.199 1.081.423 2.076.987 2.99 1.652-.924 1.247-1.478 2.785-1.478 4.457 0 4.143 3.357 7.5 7.5 7.5h10.406c4.143 0 7.5-3.357 7.5-7.5 0-1.672-.553-3.21-1.478-4.457.914-.665 1.91-1.229 2.99-1.652 3.312-1.297 6.929-1.227 10.188.199 3.79 1.659 8.217-.071 9.877-3.867 1.659-3.795-.072-8.217-3.867-9.877z"/><path d="m477.89 21.645c-10.539-4.608-22.389-2.26-30.401 5.015-2.528-2.304-5.479-4.154-8.76-5.438-7.043-2.758-14.737-2.607-21.665.423-3.795 1.66-5.526 6.082-3.867 9.877 1.661 3.795 6.084 5.529 9.877 3.867 3.258-1.426 6.874-1.496 10.188-.199 1.081.423 2.077.987 2.991 1.652-.925 1.247-1.478 2.786-1.478 4.457 0 4.143 3.357 7.5 7.5 7.5h10.406c4.143 0 7.5-3.357 7.5-7.5 0-1.669-.552-3.206-1.474-4.452 3.7-2.692 8.686-3.422 13.174-1.458 3.795 1.66 8.216-.07 9.877-3.867 1.658-3.795-.073-8.217-3.868-9.877z"/></g></g></svg>