<svg id="Capa_1" enable-background="new 0 0 512 512" height="300" viewBox="0 0 512 512" width="300" xmlns="http://www.w3.org/2000/svg" version="1.1" xmlns:xlink="http://www.w3.org/1999/xlink" xmlns:svgjs="http://svgjs.dev/svgjs"><g width="100%" height="100%" transform="matrix(1,0,0,1,0,0)"><g><path d="m512 37.79c0-2.193-.635-4.345-1.831-6.183-11.951-18.351-32.636-30.491-56.168-30.491-22.505 0-42.412 11.099-54.562 28.118-.185.259-.509.379-.818.303s-.54-.333-.584-.649c-1.73-12.602-12.537-22.31-25.615-22.31-11.177 0-20.691 7.093-24.302 17.022-.101.277-.349.473-.642.506s-.578-.102-.739-.348c-9.312-14.302-25.442-23.758-43.781-23.758-16.931 0-31.971 8.066-41.509 20.559-.506.663-1.299 1.044-2.133 1.026s-1.609-.434-2.086-1.119c-8.132-11.691-21.656-19.349-36.976-19.349-14.17 0-26.803 6.552-35.056 16.785-.463.574-1.146.925-1.882.967-.736.043-1.457-.226-1.983-.743-4.666-4.591-11.064-7.426-18.128-7.426-8.656 0-16.316 4.254-21.009 10.785-.451.628-1.157 1.023-1.928 1.08s-1.529-.229-2.068-.784c-4.699-4.845-11.278-7.857-18.562-7.857-6.332 0-12.129 2.28-16.624 6.06-.553.465-1.274.68-1.992.594-.717-.086-1.367-.466-1.794-1.049-8.191-11.162-21.397-18.413-36.305-18.413-18.396 0-34.206 11.038-41.192 26.848-.489 1.108-1.678 1.735-2.868 1.511-1.547-.291-3.142-.445-4.774-.445-4.646 0-9.003 1.23-12.771 3.376-.815.465-1.318 1.332-1.318 2.271v215.757h512z" fill="#ffcaed" fill-opacity="1" data-original-color="#9d9d9dff" stroke="none" stroke-opacity="1"/><path d="m512 192.886c-7.875-7.757-18.679-12.548-30.605-12.548-7.543 0-14.634 1.921-20.822 5.293-.702.383-1.541.422-2.276.108-.735-.315-1.285-.949-1.494-1.721-4.87-18.021-21.323-31.283-40.884-31.283-16.736 0-31.204 9.706-38.085 23.795-.441.902-1.359 1.472-2.363 1.465s-1.913-.59-2.342-1.498c-6.98-14.788-22.022-25.023-39.46-25.023-3.901 0-7.68.518-11.277 1.481-1.239.332-2.529-.285-3.054-1.456-11.031-24.623-35.74-41.783-64.468-41.783-22.202 0-41.998 10.256-54.942 26.279-.565.7-1.451 1.059-2.344.951s-1.666-.67-2.048-1.484c-12.743-27.15-40.31-45.958-72.286-45.958-42.202 0-76.731 32.753-79.611 74.223-.057.816-.493 1.559-1.178 2.006s-1.541.548-2.311.27c-4.288-1.545-8.909-2.392-13.729-2.392-10.095 0-19.32 3.696-26.419 9.797v210.716h512v-191.238z" fill="#ffb2ec" fill-opacity="1" data-original-color="#c0c0c0ff" stroke="none" stroke-opacity="1"/><path d="m512 309.176c-7.235-6.7-16.911-10.8-27.55-10.8-4.821 0-9.442.846-13.729 2.392-.77.278-1.626.178-2.311-.269-.686-.447-1.122-1.19-1.179-2.007-2.88-41.47-37.409-74.223-79.611-74.223-31.976 0-59.543 18.808-72.286 45.958-.382.814-1.156 1.374-2.049 1.482s-1.779-.25-2.344-.949c-12.945-16.023-32.74-26.279-54.942-26.279-28.728 0-53.437 17.16-64.468 41.783-.523 1.168-1.817 1.786-3.054 1.456-3.597-.963-7.376-1.481-11.277-1.481-17.438 0-32.479 10.235-39.46 25.023-.428.907-1.339 1.489-2.342 1.496s-1.923-.562-2.363-1.463c-6.881-14.09-21.349-23.795-38.085-23.795-19.561 0-36.014 13.262-40.884 31.283-.209.772-.759 1.405-1.494 1.719s-1.574.276-2.276-.106c-6.188-3.372-13.279-5.293-20.822-5.293-11.365 0-21.712 4.349-29.475 11.47v155.154h512v-172.551z" fill="#8f9aff" fill-opacity="1" data-original-color="#ecececff" stroke="none" stroke-opacity="1"/><path d="m512 474.722v-59.467c-7.233-6.705-16.91-10.809-27.55-10.809-10.946 0-20.875 4.341-28.168 11.393-.629.608-1.522.861-2.376.672-.855-.189-1.557-.793-1.873-1.61-7.412-19.186-26.023-32.799-47.824-32.799-21.439 0-39.794 13.165-47.447 31.849-.309.755-.954 1.322-1.742 1.533s-1.631.041-2.275-.459c-7.383-5.733-16.654-9.148-26.725-9.148-18.681 0-34.613 11.745-40.828 28.252-.326.865-1.085 1.493-1.995 1.652-.911.158-1.838-.176-2.436-.881-5.982-7.05-14.906-11.525-24.876-11.525-7.964 0-15.257 2.859-20.919 7.602-.614.514-1.429.718-2.212.554s-1.448-.679-1.804-1.396c-7.133-14.374-21.95-24.258-39.084-24.258-8.303 0-16.062 2.324-22.668 6.352-.718.438-1.604.503-2.379.174s-1.344-1.011-1.528-1.832c-5.835-26.011-29.065-45.447-56.837-45.447-30.456 0-55.436 23.376-58.014 53.163-.072.836-.543 1.587-1.264 2.017s-1.605.487-2.375.154c-5.311-2.301-11.169-3.577-17.325-3.577-11.365 0-21.712 4.349-29.475 11.47v76.133c-.001 4.151 3.364 7.516 7.514 7.516h496.97c4.15 0 7.515-3.365 7.515-7.515z" fill="#817fff" fill-opacity="1" data-original-color="#f9f7f8ff" stroke="none" stroke-opacity="1"/></g></g></svg>