<svg id="Layer_3" height="512" viewBox="0 0 64 64" width="512" xmlns="http://www.w3.org/2000/svg" data-name="Layer 3"><path d="m40 27.071a8.014 8.014 0 0 0 -3.817 5.238 7.976 7.976 0 0 0 -9.183 3.819 8 8 0 0 0 -11.373-2.828 13 13 0 1 1 24.373-6.3z" fill="#f4a93c"/><path d="m59.594 34.281a6.988 6.988 0 0 0 .063-10.5 4.989 4.989 0 1 0 -9.569-2.657 4.937 4.937 0 0 0 -1.088-.124 5 5 0 0 0 -5 5 8 8 0 0 1 7.817 6.309 7.965 7.965 0 0 1 7.777 1.972z" fill="#95ebfc"/><path d="m27 36.128a8 8 0 0 0 -14.815 2.181 8 8 0 1 0 -2.185 15.691h4a7.983 7.983 0 0 1 10.183-7.691 7.984 7.984 0 0 1 2.165-3.967 8.031 8.031 0 0 1 .652-6.215z" fill="#4fb5dc"/><path d="m47.29 48a7.965 7.965 0 0 0 -7.473-1.689 8 8 0 0 0 -13.469-3.967 7.989 7.989 0 0 1 9.835-10.034 8 8 0 0 1 15.634 0 8 8 0 1 1 2.183 15.69h-6.712z" fill="#5ed3f2"/><path d="m42 62a8 8 0 1 0 -2.183-15.691 8 8 0 0 0 -15.634 0 8 8 0 1 0 -2.183 15.691z" fill="#95ebfc"/><path d="m42 46a7.984 7.984 0 0 0 -2.183.309 8 8 0 0 0 -7.478-6.294 13.989 13.989 0 0 0 -4.339 9.985 14.468 14.468 0 0 0 6.831 12h7.169a8 8 0 0 0 0-16z" fill="#aef5ff"/><path d="m54 32a7.984 7.984 0 0 0 -2.183.309 8 8 0 0 0 -6.76-6.232 14.529 14.529 0 0 0 -5.057 10.923 14.326 14.326 0 0 0 3.312 9.113 7.976 7.976 0 0 1 3.978 1.887h6.71a8 8 0 0 0 0-16z" fill="#75e2fc"/><g fill="#fad85d"><path d="m31 10-4-8-4 8z"/><path d="m10 31-8-4 8-4z"/><path d="m41.849 17.808 2.829-8.486-8.486 2.829z"/><path d="m12.151 17.808-2.829-8.486 8.486 2.829z"/></g><path d="m26.998 36.128v-.001z" fill="#f6b940"/><path d="m27 14a13.044 13.044 0 0 0 -2.548.253 13.386 13.386 0 0 0 -3.743 17.8 7.983 7.983 0 0 1 6.291 4.074 7.977 7.977 0 0 1 9.185-3.818 8.014 8.014 0 0 1 3.815-5.238v-.071a13 13 0 0 0 -13-13z" fill="#f6b940"/></svg>