<svg id="Capa_1" enable-background="new 0 0 512 512" viewBox="0 0 512 512" xmlns="http://www.w3.org/2000/svg" width="300" height="300" version="1.1" xmlns:xlink="http://www.w3.org/1999/xlink" xmlns:svgjs="http://svgjs.dev/svgjs"><g width="100%" height="100%" transform="matrix(1,0,0,1,0,0)"><g><path d="m231.201 446.689-8.852-3.266c-70.561-26.036-148.477-23.642-217.306 6.676-2.441 1.075-4.017 3.485-4.017 6.153v51.652c0 2.267 1.838 4.096 4.104 4.096h501.74c2.267 0 4.104-1.838 4.104-4.104v-51.599c0-2.688-1.591-5.137-4.066-6.184-70.399-29.781-149.559-31.669-221.376-5.17l-4.733 1.747h-49.598z" fill="#7ac487" fill-opacity="1" data-original-color="#c3ea78ff" stroke="none" stroke-opacity="1"/><g><path d="m166.058 278.617c8.823 17.111 13.64 33.156 35.565 36.09 4.184.574 8.305 1.609 12.287 3.054 9.465 3.434 18.132 11.78 24.916 19.363l21.834 22.944c5.546 6.481 4.788 16.231-1.693 21.777-12.27 9.079-19.428-2.296-27.997-13.771-4.962-6.644-11.251-11.422-17.062-17.206-4.842-4.818-10.244-8.352-16.651-8.956-18.298-3.116-35.87-14.842-45.885-36.701-2.03-4.431-5.024-11.619-7.183-16.175-6.266-14.136 14.845-24.172 21.869-10.419z" fill="#aa6c4c" fill-opacity="1" data-original-color="#c68d7aff" stroke="none" stroke-opacity="1"/><path d="m367.617 320.664c-11.763 15.24-19.393 30.154-41.487 29.089-9.57-.429-19.251 1.508-28.04 5.507-4.296 1.955-8.38 7.495-12.131 10.404l-26.076 21.162c-6.624 5.375-15.412 19.783-10.037 26.406 9.54 10.188 18.99 1.701 30.197-8.358 5.773-5.181 12.838-9.24 18.89-14.601 8.686-7.695 17.603-13.759 26.587-12.974 18.56.233 36.91-8.454 48.324-23.109 3.036-3.813 14.753-21.389 17.698-25.482 8.711-12.775-14.538-20.305-23.925-8.044z" fill="#aa6c4c" fill-opacity="1" data-original-color="#c68d7aff" stroke="none" stroke-opacity="1"/><path d="m298.934 390.274c-.557-5.992-.842-12.013-.842-18.042l-.002-16.971c-4.296 1.955-8.38 4.399-12.131 7.308l-26.076 21.162c-6.623 5.375-15.412 22.879-10.037 29.503 14.454 15.435 31.286-7.189 49.088-22.96z" fill="#875340" fill-opacity="1" data-original-color="#bc7c63ff" stroke="none" stroke-opacity="1"/><path d="m260.66 360.068-21.834-25.515c-6.784-7.583-15.451-13.357-24.916-16.791l-.002 33.108c15.849 15.772 25.685 45.313 45.059 30.977 6.481-5.547 7.239-15.297 1.693-21.779z" fill="#875340" fill-opacity="1" data-original-color="#bc7c63ff" stroke="none" stroke-opacity="1"/><path d="m298.934 474.816c-17.301-31.796-24.441-66.388-24.441-102.585l-1.026-178.856h-20.939 6.944-25.043v178.856c0 36.198-9.064 71.82-26.364 103.616l47.928-9.875z" fill="#e5aa81" fill-opacity="1" data-original-color="#d1a08fff" stroke="none" stroke-opacity="1"/><g><path d="m280.93 471.108 23.006 4.739c-17.3-31.796-26.364-67.418-26.364-103.616v-178.856h-18.1-2.423v178.856c0 34.413 8.208 68.298 23.881 98.877z" fill="#aa6c4c" fill-opacity="1" data-original-color="#c68d7aff" stroke="none" stroke-opacity="1"/></g></g><g><path d="m349.764 497.145c-25.309 0-38.07-6.573-50.411-12.93-11.203-5.771-21.785-11.221-43.363-11.221-21.577 0-32.158 5.451-43.361 11.221-12.34 6.357-25.101 12.93-50.409 12.93-4.25 0-7.695-3.445-7.695-7.695s3.445-7.695 7.695-7.695c21.577 0 32.158-5.451 43.361-11.221 12.34-6.357 25.101-12.93 50.409-12.93 25.309 0 38.071 6.573 50.411 12.93 11.203 5.771 21.785 11.221 43.363 11.221 4.251 0 7.695 3.445 7.695 7.695.001 4.25-3.444 7.695-7.695 7.695z" fill="#51a86d" fill-opacity="1" data-original-color="#acdd66ff" stroke="none" stroke-opacity="1"/></g><path d="m369.685 133.401c0 10.558-.193 19.245-8.309 24.765-4.668 3.191-10.25 5.11-16.283 5.295 1.129 3.201-3.314 7.059-3.314 10.64 0 16.324-9.573 25.354-25.651 26.339-11.676 20.049-29.786 30.956-54.658 30.956-16.673 0-32.742-2.729-44.51-12.764-2.924 3.786-7.716 10.661-11.769 13.226-6.331 4.012-15.473 1.006-23.517 1.006-22.655 0-35.194-20.439-35.194-43.084 0-3.755.513-7.377 1.457-10.825-19.957-9.45-38.385-21.506-41.719-44.12-.472-3.232-.718-6.546-.718-9.901 0-19.577 8.352-37.205 21.68-49.507 1.916-1.773 3.935-.357 6.048-1.9 2.265-1.654 4.637-6.247 7.106-7.612-.482-2.124-.749-4.33-.77-6.597-.113-16.078 11.841-29.355 27.847-30.802 10.373-.944 19.813 3.294 26.01 10.414.935-2.004 1.967-.878 3.09-2.771 1.378-2.323 2.893-7.636 4.533-9.768 12.313-16.048 31.675-26.391 53.468-26.391 24.697 0 46.285 13.277 58.023 33.08 1.098 1.85-.971 3.757-.052 5.717 1.262 2.694 5.429 5.486 6.332 8.36 5.633-2.073 10.846-.807 17.321-.171 20.305 2.001 33.031 17.736 33.719 38.124.298 8.814-1.703 17.575-6.166 24.388-1.006 1.529-.944 3.53.236 4.925 4.503 5.346 5.76 11.447 5.76 18.978z" fill="#51a86d" fill-opacity="1" data-original-color="#acdd66ff" stroke="none" stroke-opacity="1"/><path d="m374.827 132.771c0-7.531-2.709-14.426-7.213-19.772-1.18-1.395-1.241-3.396-.236-4.925 4.463-6.813 6.957-15.022 6.659-23.835-.688-20.388-16.591-37.41-36.897-39.411-6.474-.636-12.692.257-18.325 2.329 0 0 30.283 16.262 14.804 65.94-1.174 3.767-5.465 5.553-8.953 3.708-7.897-4.177-15.266-7.467-25.055-7.467-4.665 0-9.273.864-13.894 1.526-17.754 2.542-33.718 19.741-33.718 19.741-7.363 8.216-12.606 18.329-14.947 29.457-.557 2.646-2.546 4.785-5.143 5.539-10.868 3.152-20.851 9.156-28.73 17.489-1.179 1.247-2.296 2.535-3.357 3.857-.8.996-2.237 1.193-3.285.465l-.03-.021c-.648-.45-1.033-1.182-1.059-1.971-.761-22.578-14.308-43.509-35.709-53.004-7.736-3.436-15.929-5.178-24.35-5.178-10.18 0-20.277 2.693-29.172 7.591 3.275 22.709 18.016 41.637 38.029 51.118-.941 3.448-1.453 7.074-1.453 10.821 0 22.654 18.364 41.018 41.018 41.018 8.049 0 17.189 3.007 23.521-1.001 4.052-2.564 5.989-11.147 8.917-14.927 11.767 10.03 27.014 16.096 43.687 16.096 24.874 0 46.585-13.485 58.264-33.533 16.075-.983 28.809-14.325 28.809-30.647 0-3.588-.621-7.03-1.752-10.231 7.295-.227 13.947-3 19.102-7.455-.075-.016-.151-.026-.226-.042 6.543-5.626 10.694-13.966 10.694-23.275z" fill="#3f724b" fill-opacity="1" data-original-color="#95d359ff" stroke="none" stroke-opacity="1"/><path d="m198.663 269.853c-9.388 21.147-24.86 36.998-46.613 36.793-7.459-.061-15.011-1.621-22.255-4.843-8.106-3.602-14.939-8.886-20.275-15.258-8.609 6.269-20.234 7.911-30.669 3.283-15.411-6.844-22.429-24.769-15.863-40.231-3.263-.534-6.515-1.488-9.676-2.894-19.998-8.865-29.017-32.269-20.141-52.267 8.403-18.941 29.838-28.032 49.066-21.403 1.077.369 5.007 8.352 6.064 8.824 3.981 1.765 4.679-3.448 7.736-.657.523-3.365 1.488-6.71 2.935-9.973 3.037-6.854 7.777-12.415 13.503-16.406 10.999-7.675 22.438-4.385 35.582 1.453 17.576 7.798 24.848 24.529 20.785 42.587-.287 1.262.4 2.534 1.58 3.047 28.391 12.6 40.841 39.554 28.241 67.945z" fill="#7ac487" fill-opacity="1" data-original-color="#c3ea78ff" stroke="none" stroke-opacity="1"/><path d="m204.01 273.207c-9.388 21.147-30.207 33.644-51.959 33.439 59.49-90.008-39.575-151.825-39.575-151.825 10.999-7.675 25.621-9.573 38.764-3.735 17.576 7.798 26.657 26.801 22.594 44.859-.287 1.262.38 2.524 1.56 3.037.01 0 .01.01.021.01 28.39 12.6 41.195 45.824 28.595 74.215z" fill="#51a86d" fill-opacity="1" data-original-color="#acdd66ff" stroke="none" stroke-opacity="1"/><g><g><path d="m95.074 210.023c-1.067.503-2.185.739-3.283.739-2.883 0-5.654-1.631-6.967-4.402-4.084-8.64-5.582-18.746-3.889-28.083.431-2.36.862-4.053 1.303-5.243 1.077.369 2.155.79 3.212 1.262 3.981 1.765 7.531 4.114 10.589 6.905-.995 6.32-.062 12.743 2.699 18.571 1.815 3.848.173 8.434-3.664 10.251z" fill="#51a86d" fill-opacity="1" data-original-color="#acdd66ff" stroke="none" stroke-opacity="1"/></g></g><path d="m462.877 222.865c0 17.35-7.25 28.627-21.543 36.302-6.403 3.437-13.234 9.269-21.011 9.269-25.128 0-45.495-20.367-45.495-45.495 0-2.914.287-5.767.81-8.527-19.485-5.141-28.658-21.445-28.658-42.55 0-11.784-.72-23.96 6.634-32.041 5.496-6.041 12.597-10.596 20.629-12.992 0 0 0 0 .01-.01 4.125-1.231 8.496-1.888 13.021-1.888 25.128 0 45.506 20.367 45.506 45.495 0 2.513-.214 4.98-.608 7.381-.107.653.284 1.271.92 1.456 4.755 1.385 7.688 3.893 11.656 6.662 11.839 8.198 18.129 21.445 18.129 36.938z" fill="#51a86d" fill-opacity="1" data-original-color="#acdd66ff" stroke="none" stroke-opacity="1"/><path d="m446.24 185.562c-4.279-2.986-8.682-4.849-13.467-6.436 5.481 11.691 12.365 24.522 11.575 39.354-.151 2.827-3.355 4.433-5.733 2.899-3.163-2.041-6.536-3.729-10.065-5.033-3.09-1.142-5.51-3.613-6.435-6.774-7.699-26.308-29.244-46.873-56.083-53.16-3.246-.76-5.892-3.082-7.131-6.178-1.441-3.601-3.22-7.09-5.287-10.41-7.353 8.081-11.835 18.82-11.835 30.605 0 21.106 14.375 38.846 33.86 43.987-.523 2.76-.81 5.612-.81 8.527 0 25.128 20.367 45.495 45.495 45.495 7.777 0 15.083-1.95 21.486-5.387h.01c14.293-7.675 24.01-22.758 24.01-40.108-.002-15.496-7.749-29.183-19.59-37.381z" fill="#3f724b" fill-opacity="1" data-original-color="#95d359ff" stroke="none" stroke-opacity="1"/><g><path d="m116.118 313.134c-5.674 2.196-11.143 3.536-16.55 1.884-2.073-.626-4.289.492-4.997 2.545-2.421 7.049-7.829 13.021-15.339 15.924-13.503 5.212-28.688-1.508-33.901-15.022-2.955-7.654-2.073-15.852 1.713-22.46-2.268-1.59-3.14-5.695-4.997-7.798-1.662-1.857-4.361-1.673-5.623-3.909-.852-1.509-1.611-3.109-2.257-4.782-5.449-14.115-1.406-29.56 9.014-39.294 3.275-3.06 8.262-4.067 12.7-5.779 3.191-1.231 6.011-1.167 9.263-1.468 9.335-.865 27.506 6.046 33.436 21.406.862 2.237 3.327 5.178 3.728 7.455.349 1.98 2.073 3.366 4.084 3.376 10.466.061 19.619 5.138 23.61 15.481 5.213 13.513-.381 27.229-13.884 32.441z" fill="#7ac487" fill-opacity="1" data-original-color="#c3ea78ff" stroke="none" stroke-opacity="1"/><g><g><path d="m61.789 286.73c-1.826.134-3.622.534-5.346 1.201-4.012 1.549-7.264 4.34-9.399 8.075-4.279-3.006-7.942-6.957-10.62-11.707 3.745-4.782 8.762-8.516 14.478-10.722 3.15-1.211 6.433-1.949 9.778-2.196 4.238-.298 7.921 2.883 8.229 7.121.308 4.237-2.883 7.92-7.12 8.228z" fill="#51a86d" fill-opacity="1" data-original-color="#acdd66ff" stroke="none" stroke-opacity="1"/></g></g></g><path d="m347.488 283.684c-4.217 0-5.563-1.287-9.513-2.169-2.247-.503-6.058-.171-8.192-.93-2.729-.975-5.366.913-7.88-.451-5.459 10.599-16.499 17.853-29.242 17.853-15.832 0-29.037-11.184-32.177-26.072-.318-1.529-1.765-2.524-3.304-2.247-4.053.728-8.29.903-12.641.41-20.86-2.339-37.246-19.7-38.415-40.652-1.406-25.108 18.551-45.916 43.351-45.916 2.729 0 5.387.267 7.983.749-.934-3.54 3.868-4.084 3.868-7.901 0-1.631-5.202-6.392-5.028-7.972 2.032-18.428 15.586-33.398 33.295-37.492 31.12-5.972 53.273 18.325 53.273 42.304v.021c0 1.057.883 1.919 1.939 1.847 1.949-.134 5.098 1.302 7.089 1.373 23.876.851 38.533 15.235 45.622 37.069 1.549 4.751 2.473 9.779 2.668 14.98 1.211 31.911-21.053 55.196-52.696 55.196z" fill="#7ac487" fill-opacity="1" data-original-color="#c3ea78ff" stroke="none" stroke-opacity="1"/><path d="m404.603 228.748c-.198-5.188-1.126-10.198-2.665-14.944-.001 0-.002 0-.003.001v-.037c-7.09-21.834-27.344-37.943-51.22-38.795-1.991-.072-3.961-.041-5.91.092 0 0 28.76 15.979 28.76 50.342 0 1.922-.713 3.772-1.989 5.21-4.431 4.996-7.824 10.755-10.032 16.974-.763 2.148-2.356 3.922-4.49 4.722-5.379 2.015-10.428 4.921-14.902 8.629-6.413 5.309-12.286 9.029-20.249 19.192 2.117 1.358 6.638-.428 7.37-.166 2.14.766 4.848 5.1 7.097 5.605 3.95.882 6.568 1.354 10.785 1.354 31.645-.002 58.659-26.269 57.448-58.179z" fill="#51a86d" fill-opacity="1" data-original-color="#acdd66ff" stroke="none" stroke-opacity="1"/><g><g><path d="m340.075 268.62c0 5.838-1.272 11.666-3.704 16.95-5.12-1.149-9.984-2.996-14.467-5.438 1.847-3.581 2.781-7.449 2.781-11.512 0-2.74-.431-5.418-1.283-7.972-1.344-4.032.831-8.393 4.863-9.737s8.393.831 9.737 4.863c1.375 4.135 2.073 8.455 2.073 12.846z" fill="#51a86d" fill-opacity="1" data-original-color="#acdd66ff" stroke="none" stroke-opacity="1"/></g><g><path d="m287.284 194.498c-1.498 1.467-3.437 2.196-5.387 2.196-1.99 0-3.991-.77-5.489-2.309-5.181-5.284-11.738-8.793-18.951-10.127-.934-3.54-1.426-7.244-1.426-11.061 0-1.632.092-3.232.267-4.812 12.025 1.857 23.743 7.716 31.1 15.227 2.975 3.037 2.923 7.911-.114 10.886z" fill="#51a86d" fill-opacity="1" data-original-color="#acdd66ff" stroke="none" stroke-opacity="1"/></g></g><g><path d="m136.819 242.788c-1.969 0-3.939-.751-5.441-2.253-12.075-12.075-12.075-31.723 0-43.799 3.005-3.004 7.878-3.004 10.883 0 3.006 3.006 3.006 7.878 0 10.884-6.074 6.074-6.074 15.957 0 22.031 3.006 3.006 3.006 7.878 0 10.884-1.503 1.501-3.472 2.253-5.442 2.253z" fill="#51a86d" fill-opacity="1" data-original-color="#acdd66ff" stroke="none" stroke-opacity="1"/></g><g><g><path d="m214.476 54.042c0 4.248-3.448 7.695-7.695 7.695-4.258 0-7.695-3.447-7.695-7.695 0-5.561-2.011-10.927-5.664-15.114 2.083-4.463 4.648-8.67 7.624-12.538 1.498.359 2.893 1.17 3.981 2.422 6.093 6.987 9.449 15.955 9.449 25.23z" fill="#3f724b" fill-opacity="1" data-original-color="#95d359ff" stroke="none" stroke-opacity="1"/></g><g><path d="m152.933 90.795c-1.488 2.226-3.93 3.427-6.413 3.427-1.467 0-2.945-.411-4.258-1.293l-1.837-1.221c-5.951-3.96-10.579-9.706-13.246-16.283 3.971-3.673 8.383-6.875 13.154-9.512 1.016 5.274 4.166 10.014 8.629 12.99l1.837 1.221c3.529 2.36 4.494 7.142 2.134 10.671z" fill="#3f724b" fill-opacity="1" data-original-color="#95d359ff" stroke="none" stroke-opacity="1"/></g><g><path d="m208.883 157.423c-2.425 0-4.812-1.143-6.309-3.281-5.906-8.43-8.175-18.655-6.39-28.793 1.785-10.137 7.411-18.972 15.842-24.877 3.479-2.441 8.279-1.593 10.718 1.888 2.438 3.481 1.593 8.28-1.888 10.717-5.063 3.547-8.442 8.853-9.514 14.941s.291 12.229 3.838 17.292c2.438 3.481 1.594 8.28-1.887 10.718-1.344.942-2.885 1.395-4.41 1.395z" fill="#3f724b" fill-opacity="1" data-original-color="#95d359ff" stroke="none" stroke-opacity="1"/></g><path d="m314.403 77.734c1.508 3.971-.503 8.414-4.473 9.922-.893.339-1.816.492-2.719.492-3.109 0-6.033-1.888-7.203-4.966-4.412-11.656-17.474-17.546-29.109-13.144-3.971 1.508-8.424-.492-9.922-4.474-1.508-3.971.493-8.414 4.474-9.922 7.49-2.832 15.329-3.119 22.573-1.313 5.469-9.614 14.088-17.135 24.512-21.249 2.606 4.392 4.72 9.111 6.279 14.077-7.08 2.627-12.979 7.542-16.858 13.872 5.448 4.156 9.85 9.83 12.446 16.705z" fill="#3f724b" fill-opacity="1" data-original-color="#95d359ff" stroke="none" stroke-opacity="1"/></g><g><path d="m340.075 268.62c0 5.838-.665 10.277-3.097 15.561-5.12-1.149-10.591-1.607-15.075-4.049 1.847-3.581 2.781-7.449 2.781-11.512 0-2.74-.431-5.418-1.283-7.972-1.344-4.032.831-8.393 4.863-9.737s8.393.831 9.737 4.863c1.376 4.135 2.074 8.455 2.074 12.846z" fill="#51a86d" fill-opacity="1" data-original-color="#acdd66ff" stroke="none" stroke-opacity="1"/></g><path d="m339.673 262.948c-5.496 4.378-10.842 8.342-17.77 17.185 2.213 1.205 4.519 2.264 6.902 3.167 1.827.652 4.413 1.477 6.525 2.019.347.085.692.174 1.041.253 2.432-5.284 3.704-11.112 3.704-16.95 0-1.91-.14-3.802-.402-5.674z" fill="#3f724b" fill-opacity="1" data-original-color="#95d359ff" stroke="none" stroke-opacity="1"/><path d="m453.501 344.353c-7.203 5.972-12.832 10.568-21.512 11.163-13.411.954-27.057-4.371-36.281-15.514-1.97-2.391-3.653-4.925-5.028-7.572-.934-1.775-3.058-2.565-4.956-1.898-12.056 4.268-26.01.851-34.64-9.573-11.071-13.359-9.204-33.152 4.156-44.213 5.807-4.812 12.836-7.182 19.834-7.213 2.278-.021 4.032-1.939 4.012-4.207-.092-9.132 3.776-18.222 11.358-24.502 4.248-3.519 9.148-5.696 14.201-6.669 8.692-1.674 19.966 2.586 27.507 11.697 6.269 7.582 9.004 17.265 7.229 26.212 2.668.79 6.203 2.641 8.696 3.944 2.175 1.149 3.105 2.6 5.085 4.129 2.483 1.919 4.792 4.135 6.874 6.649 15.196 18.356 11.821 42.372-6.535 57.567z" fill="#7ac487" fill-opacity="1" data-original-color="#c3ea78ff" stroke="none" stroke-opacity="1"/><path d="m456.449 345.718c-7.203 5.972-15.781 9.204-24.461 9.799 36.423-68.34-27.368-121.357-27.368-121.357 10.866-2.042 22.504 1.709 30.046 10.82 6.269 7.582 8.383 17.227 6.608 26.175 2.668.79 3.987 4.077 6.48 5.38 2.175 1.149 5.556.263 7.536 1.792 2.483 1.919 4.792 4.135 6.874 6.649 15.196 18.356 12.642 45.546-5.715 60.742z" fill="#51a86d" fill-opacity="1" data-original-color="#acdd66ff" stroke="none" stroke-opacity="1"/><g><g><path d="m455.008 279.18c-2.257 7.11-6.265 12.65-12.052 17.452-2.996 2.473-6.32 4.494-9.881 5.971-.975.411-1.98.595-2.965.595-3.006 0-5.869-1.775-7.1-4.73-1.642-3.92.215-8.424 4.135-10.066 2.155-.903 4.176-2.124 5.992-3.632 1.851-1.534 2.726-2.431 3.97-4.204 1.61-2.295 3.387-5.578 3.994-8.617 4.997 1.489 9.649 3.937 13.907 7.231z" fill="#51a86d" fill-opacity="1" data-original-color="#acdd66ff" stroke="none" stroke-opacity="1"/></g></g><path d="m450.643 275.208c-2.953-1.71-6.101-3.075-9.369-4.053-.705 3.524-2.061 6.611-4.167 9.412 2.167 5.205 3.474 11.201 4.755 16.938 6.323-4.861 11.036-11.63 13.428-19.177-1.478-1.142-3.04-2.186-4.647-3.12z" fill="#3f724b" fill-opacity="1" data-original-color="#95d359ff" stroke="none" stroke-opacity="1"/><path d="m116.631 314.393c-5.674 2.196-11.656 2.278-17.063.626 10.083-61.485-56.38-74.789-56.38-74.789s6.707-8.046 21.319-9.553c15.861-1.636 30.925 7.541 36.856 22.902.862 2.237 1.488 4.494 1.888 6.772.349 1.98 2.073 3.365 4.084 3.376 10.466.061 20.316 6.423 24.307 16.766 5.213 13.512-1.508 28.687-15.011 33.9z" fill="#51a86d" fill-opacity="1" data-original-color="#acdd66ff" stroke="none" stroke-opacity="1"/></g><g/><g/><g/><g/><g/><g/><g/><g/><g/><g/><g/><g/><g/><g/><g/></g></svg>