<svg id="Capa_1" enable-background="new 0 0 497 497" height="300" viewBox="0 0 497 497" width="300" xmlns="http://www.w3.org/2000/svg" version="1.1" xmlns:xlink="http://www.w3.org/1999/xlink" xmlns:svgjs="http://svgjs.dev/svgjs"><g width="100%" height="100%" transform="matrix(1,0,0,1,0,0)"><g><g><g><path d="m74.938 59.735 45.498 63.349c1.77 2.448 3.643 4.802 5.63 7.062 6.127 7.01 13.258 13.025 21.123 17.827l41.884 25.538c3.467 2.333 6.479 5.346 8.849 8.84.476.701.921 1.423 1.345 2.166l102.614 179.676 12.388 21.688c8.6 15.065 4.171 33.929-9.904 42.152l-71.307 41.618c-14.075 8.213-32.466 2.657-41.066-12.408l-12.388-21.688-102.615-179.675c-.424-.743-.818-1.496-1.18-2.26-1.811-3.829-2.877-7.962-3.146-12.167l3.048-49.433c-.166-9.28-1.759-18.539-4.709-27.411-.942-2.856-2.018-5.681-3.239-8.453l-26.433-70.981 6.976-24.058z" fill="#a8dd69" fill-opacity="1" data-original-color="#b8eb7cff" stroke="none" stroke-opacity="1" style=""/><path d="m211.991 457.244-12.388-21.688-81.776-143.189c14.972-1.913 28.922-10.537 37.034-24.587 3.742-6.482 5.851-13.463 6.479-20.469h22.159l-9.881-47.079h-34.317c-.963 0-1.899-.277-2.732-.759-.004-.002-.009-.005-.013-.007-13.73-7.928-29.693-8.571-43.405-3.151-.653.258-1.361-.199-1.374-.901l-.065-3.393c-.166-9.28-1.759-18.539-4.709-27.411-.942-2.856-2.018-5.681-3.239-8.453l-35.458-80.463-10-1.206-5.822 10.687 31.279 70.98c1.221 2.772 2.298 5.597 3.239 8.453 2.95 8.872 4.543 18.131 4.709 27.411l.386 20.04.566 29.394c.269 4.206 1.335 8.338 3.146 12.167.362.764.755 1.517 1.18 2.26l102.614 179.676 12.388 21.688c7.771 13.614 23.537 19.459 36.889 14.4-6.798-2.47-12.898-7.409-16.889-14.4z" fill="#71b751" fill-opacity="1" data-original-color="#98db7cff" stroke="none" stroke-opacity="1" style=""/></g><g><path d="m48.306 75.694-7.699-6.279-13.845-35.872 19.519-13.701 22.211 30.918 6.446 8.975z" fill="#ffcd54" fill-opacity="1" data-original-color="#ffd05bff" stroke="none" stroke-opacity="1" style=""/><path d="m47.789 74.519-18.59-42.192-16.515 7.91 19.8 44.938 15.822-9.481z" fill="#f7b938" fill-opacity="1" data-original-color="#ffc244ff" stroke="none" stroke-opacity="1" style=""/></g><g><path d="m48.86 23.414-34.689 20.197s-11.519.197-11.48-7.069v-14.127c.016-2.972 8.978-10.432 11.531-11.918l16.104-9.376c2.572-1.498 5.742-1.494 8.311.01l10.243 5.997c6.202 3.632 6.191 12.669-.02 16.286z" fill="#ffe077" fill-opacity="1" data-original-color="#ffe077ff" stroke="none" stroke-opacity="1" style=""/><g><path d="m14.222 10.497-10.011 5.829c-2.552 1.486-4.131 4.226-4.147 7.198l-.064 11.99c-.039 7.266 7.756 11.833 13.995 8.2l.176-.102z" fill="#ffcd54" fill-opacity="1" data-original-color="#ffd05bff" stroke="none" stroke-opacity="1" style=""/></g></g></g><g><g><path d="m420.552 155.128 2.694-29.416 60.555-13.538-1.836 70.067c-.02.762-.131 1.515-.328 2.245z" fill="#ffe4b9" fill-opacity="1" data-original-color="#e8e8e8ff" stroke="none" stroke-opacity="1" style=""/><g><path d="m355.009 33.798 128.791 75.745v2.632l-60.555 38.237-10.762 1.054-123.323-75.463z" fill="#fff1d4" fill-opacity="1" data-original-color="#f9f8f9ff" stroke="none" stroke-opacity="1" style=""/><path d="m297.427 74.595 58.585-37.004-6.744-8.519-10.471-1.526-58.572 36.985c-.637.402-1.222.879-1.743 1.419l5.086 8.306 12.128 1.747c.517-.533 1.101-1.01 1.731-1.408z" fill="#ffe4b9" fill-opacity="1" data-original-color="#e8e8e8ff" stroke="none" stroke-opacity="1" style=""/></g></g><g><g><path d="m481.637 184.486c-.211.781-.521 1.534-.924 2.241l-7.713 13.504c-2.588 4.531-52.035 27.161-56.517 24.546l-35.562-35.404 42.325-38.96z" fill="#edb672" fill-opacity="1" data-original-color="#dcdbddff" stroke="none" stroke-opacity="1" style=""/><path d="m408.14 198.23c-3.203-1.627-6.567-2.905-10.03-3.812l-19.419 23.55 37.791 13.958 6.47-6.285c12.341.222 37.139-2.807 39.196-6.409l10.851-19h-56.318c-2.963-.001-5.899-.66-8.541-2.002z" fill="#ed8445" fill-opacity="1" data-original-color="#c8c7c9ff" stroke="none" stroke-opacity="1" style=""/></g><g><path d="m423.245 150.412-25.135 44.006-37.972 20.656c-4.482-2.616-84.683-118.533-82.095-123.064l6.024-16.317c.392-.686 11.086.872 11.629.309z" fill="#ffe4b9" fill-opacity="1" data-original-color="#e8e8e8ff" stroke="none" stroke-opacity="1" style=""/><path d="m398.109 194.424c-12.297-3.22-25.814-1.802-37.664 5.04-.008.005-.016.009-.024.014-1.228.71-2.787.178-3.292-1.148-5.634-14.802-12.708-29.871-21.3-44.764-13.861-24.023-30.088-44.862-46.93-61.819-.952-.958-1.151-2.425-.481-3.598l5.858-10.258c.392-.686.877-1.327 1.42-1.89l-17.214-10.051c-.543.562-1.016 1.193-1.408 1.879l-87.013 152.353-12.75 22.324c-2.588 4.531-1.052 10.324 3.43 12.94l16.861 9.841c-4.211-2.707-5.608-8.306-3.089-12.717l6.928-12.13c11.133 18.217 23.593 34.475 36.561 48.426l79.626 46.473 37.934-66.419z" fill="#edb672" fill-opacity="1" data-original-color="#dcdbddff" stroke="none" stroke-opacity="1" style=""/></g></g><g><path d="m490.292 73.693-116.026-67.717-13.745 12.375-4.51 19.24 127.789 74.584 11.401-19.961c3.704-6.485 1.506-14.777-4.909-18.521z" fill="#fcd185" fill-opacity="1" data-original-color="#b2e5fbff" stroke="none" stroke-opacity="1" style=""/><path d="m356.012 37.591 18.254-31.615-5.747-3.354c-6.415-3.744-14.617-1.522-18.321 4.963l-11.402 19.961z" fill="#f4c377" fill-opacity="1" data-original-color="#91dafaff" stroke="none" stroke-opacity="1" style=""/></g></g><g><g><path d="m316.829 160.567c-43.413-75.242-110.015-119.451-146.116-109.967-2.797.735-5.979 3.538-8.106 5.325-30.383 25.532-25.029 103.571 21.747 184.641l142.727 2.204 9.062-42.541c-5.285-13.153-11.708-26.478-19.314-39.662z" fill="#ffdb7e" fill-opacity="1" data-original-color="#ffe09cff" stroke="none" stroke-opacity="1" style=""/><path d="m350.513 247.311c-3.119-15.053-7.885-30.938-14.37-47.081l-142.794.001c-8.898 0-16.879-5.49-20.064-13.798-22.52-58.745-22.214-113.355-2.572-135.833-2.795.735-5.413 1.786-7.817 3.176-33.459 19.33-31.318 105.721 15.458 186.791z" fill="#feb743" fill-opacity="1" data-original-color="#ffd18dff" stroke="none" stroke-opacity="1" style=""/></g><g><path d="m283.075 180.067c2.761 4.785-.637 12.392-8.107 20.165l-5.128 2.247-48.17-.255-.805-1.993c4.78-4.829 11.106-9.692 18.481-13.953 19.598-11.322 39.176-14.103 43.729-6.211z" fill="#feb743" fill-opacity="1" data-original-color="#ffd18dff" stroke="none" stroke-opacity="1" style=""/><path d="m255.836 214.856c7.718-4.459 14.282-9.575 19.133-14.624l-54.103-.002c-7.922 8.003-11.598 15.915-8.758 20.837 4.552 7.892 24.13 5.111 43.728-6.211z" fill="#f99a3c" fill-opacity="1" data-original-color="#fbbd80ff" stroke="none" stroke-opacity="1" style=""/><ellipse cx="211.114" cy="137.347" fill="#feb743" rx="40.98" ry="16.497" transform="matrix(.866 -.5 .5 .866 -40.395 124.055)" fill-opacity="1" data-original-color="#ffd18dff" stroke="none" stroke-opacity="1" style=""/></g></g><g><g><path d="m435.084 491.33-368.978-.978c-7.861 0-14.481-5.94-15.414-13.831l-25.532-216.766h452.426l-25.722 217.245c-.933 7.891-8.919 14.33-16.78 14.33z" fill="#ff546e" fill-opacity="1" data-original-color="#ff7e92ff" stroke="none" stroke-opacity="1" style=""/><path d="m74.5 477c-6.021 0-7.979-2.947-8.66-7.798l-23.284-202.891-12.418-5-9.95 5 25.679 216.859c.933 7.89 7.553 13.83 15.414 13.83h374.438c7.861 0 14.481-5.94 15.414-13.831l.73-6.169z" fill="#cb1e3b" fill-opacity="1" data-original-color="#ff5f7aff" stroke="none" stroke-opacity="1"/></g><g fill="#ff5f7a"><path d="m247.867 461.989c-9.462 0-17.133-7.671-17.133-17.133v-126.727c0-9.462 7.671-17.133 17.133-17.133 9.462 0 17.133 7.671 17.133 17.133v126.727c0 9.462-7.67 17.133-17.133 17.133z" fill="#cb1e3b" fill-opacity="1" data-original-color="#ff5f7aff" stroke="none" stroke-opacity="1"/><path d="m322.868 461.878c-9.449-.495-16.708-8.557-16.213-18.006l6.632-126.553c.495-9.449 8.557-16.708 18.006-16.213 9.449.495 16.708 8.557 16.213 18.006l-6.632 126.553c-.495 9.45-8.557 16.709-18.006 16.213z" fill="#cb1e3b" fill-opacity="1" data-original-color="#ff5f7aff" stroke="none" stroke-opacity="1"/><path d="m172.867 461.996c-9.449.495-17.511-6.763-18.006-16.213l-6.632-126.553c-.495-9.449 6.763-17.511 16.213-18.006 9.449-.495 17.511 6.763 18.006 16.213l6.632 126.553c.495 9.449-6.764 17.51-16.213 18.006z" fill="#cb1e3b" fill-opacity="1" data-original-color="#ff5f7aff" stroke="none" stroke-opacity="1"/><path d="m400.869 461.975c-9.41-.989-16.237-9.419-15.248-18.83l13.246-146.145c.989-9.41 9.419 3.875 18.83 4.864 9.41.989 16.237 9.419 15.248 18.83l-13.247 126.033c-.989 9.41-9.419 16.237-18.829 15.248z" fill="#cb1e3b" fill-opacity="1" data-original-color="#ff5f7aff" stroke="none" stroke-opacity="1"/><path d="m94.866 462.003c-9.41.989-17.841-5.838-18.83-15.248l-13.246-126.033c-.989-9.41 5.838-17.841 15.248-18.83 9.41-.989 17.841-10.302 18.83-.892l13.247 142.173c.988 9.41-5.838 17.841-15.249 18.83z" fill="#cb1e3b" fill-opacity="1" data-original-color="#ff5f7aff" stroke="none" stroke-opacity="1"/></g></g><g><path d="m487.16 261.311-472.83.945c-2.761 0-5-2.239-5-5l-.036-34.155c0-2.761 12.717-3.87 15.479-3.87h42.673l4.791 2.118 76.752-.118 6.656-2h185.709l.975 2 84.786.264 2.43-2.264h57.681c2.761 0 5 2.239 5 5v22.079c.001 2.762-2.305 15.001-5.066 15.001z" fill="#ff546e" fill-opacity="1" data-original-color="#ff7e92ff" stroke="none" stroke-opacity="1" style=""/><path d="m435.407 244.269c.266-8.464-1.615-17.087-5.861-25.034l-88.192-.004c-4.083 7.677-6.105 16.329-5.854 25.046.032 1.117-.878 2.033-1.996 2.033h-170.008c-1.118 0-2.028-.916-1.996-2.034.251-8.717-1.771-17.369-5.854-25.046h-88.2c-4.246 7.947-6.12 16.573-5.853 25.038.035 1.12-.874 2.042-1.995 2.042h-31.825c-1.657 0-3-1.343-3-3v-24.079h-15c-2.761 0-5 2.239-5 5v37.079c0 2.761 2.239 5 5 5h57.679 88.208 185.68 88.208 57.679c2.761 0 5-2.239 5-5v-15h-54.825c-1.121.001-2.03-.92-1.995-2.041z" fill="#cb1e3b" fill-opacity="1" data-original-color="#ff5f7aff" stroke="none" stroke-opacity="1"/></g><g><path d="m12.282 414.713c-11.259-6.5-15.116-20.897-8.616-32.156l87.499-151.552 40.772 23.54-87.499 151.551c-6.5 11.259-20.897 15.117-32.156 8.617z" fill="#6b5769" fill-opacity="1" data-original-color="#736572ff" stroke="none" stroke-opacity="1" style=""/><g><path d="m111.499 273.808c-5.264 0-10.592-1.337-15.468-4.152-14.822-8.558-19.919-27.579-11.361-42.401 8.558-14.823 27.58-19.918 42.4-11.361 14.822 8.558 19.919 27.579 11.361 42.401-5.741 9.945-16.197 15.513-26.932 15.513z" fill="#564c54" fill-opacity="1" data-original-color="#615260ff" stroke="none" stroke-opacity="1" style=""/></g><path d="m484.718 414.713c11.259-6.5 15.116-20.897 8.616-32.156l-87.499-151.552-40.772 23.54 87.499 151.552c6.501 11.258 20.897 15.116 32.156 8.616z" fill="#6b5769" fill-opacity="1" data-original-color="#736572ff" stroke="none" stroke-opacity="1" style=""/><g><path d="m385.501 273.808c-10.735 0-21.19-5.567-26.933-15.514-8.558-14.822-3.461-33.843 11.361-42.401 14.82-8.557 33.844-3.461 42.4 11.361 8.558 14.822 3.461 33.843-11.361 42.401-4.874 2.816-10.204 4.153-15.467 4.153z" fill="#564c54" fill-opacity="1" data-original-color="#615260ff" stroke="none" stroke-opacity="1" style=""/></g></g></g></g></svg>