<svg width="512" height="512" viewBox="0 0 512 512" fill="none" xmlns="http://www.w3.org/2000/svg">
<path d="M398.918 229.599C416.534 206.261 426.789 178.353 426.789 148.361C426.789 66.423 350.322 0 255.996 0C161.67 0 85.2031 66.423 85.2031 148.361C85.2031 178.353 95.4582 206.261 113.074 229.599C81.3792 259.591 62.0251 299.583 62.0251 343.506C62.0251 436.562 148.869 512 255.996 512C363.123 512 449.967 436.562 449.967 343.506C449.967 299.583 430.613 259.591 398.918 229.599ZM255.996 398C230.391 398 209.633 377.242 209.633 351.637C209.633 326.032 230.39 305.274 255.996 305.274C281.602 305.274 302.359 326.031 302.359 351.637C302.359 377.243 281.601 398 255.996 398ZM255.996 198.265C230.391 198.265 209.633 177.508 209.633 151.902C209.633 126.297 230.39 105.539 255.996 105.539C281.602 105.539 302.359 126.296 302.359 151.902C302.359 177.508 281.601 198.265 255.996 198.265Z" fill="#B13D46"/>
<path d="M398.918 229.599C416.534 206.261 426.789 178.353 426.789 148.361C426.789 66.423 350.322 0 255.996 0C249.022 0 242.148 0.372 235.392 1.078C320.001 9.917 385.582 72.482 385.582 148.361C385.582 178.353 375.327 206.261 357.711 229.599C389.406 259.591 408.76 299.583 408.76 343.506C408.76 430.517 332.832 502.116 235.393 511.054C242.163 511.675 249.036 512 255.996 512C363.123 512 449.967 436.562 449.967 343.506C449.967 299.583 430.613 259.591 398.918 229.599Z" fill="#5F1824"/>
<path d="M166.296 461.582C165 461.582 163.688 461.256 162.482 460.57C124.568 438.995 104.889 405.204 96.5331 386.982C94.7541 383.104 96.4571 378.517 100.336 376.739C104.213 374.959 108.801 376.663 110.579 380.542C118.159 397.073 135.975 427.707 170.123 447.14C173.832 449.251 175.128 453.968 173.017 457.676C171.594 460.179 168.983 461.582 166.296 461.582Z" fill="white"/>
</svg>
