<svg width="512" height="512" viewBox="0 0 512 512" fill="none" xmlns="http://www.w3.org/2000/svg">
<g clip-path="url(#clip0_650_493)">
<path d="M425.512 244.931C384.692 152.678 287.403 145.808 203.51 179.994C204.005 150.557 201.667 130.964 194.617 102.318C194.617 102.318 215.819 112.29 255.996 112.29C333.647 112.29 395.678 86.267 395.678 59.24C395.678 32.212 332.73 0 255.079 0C191.191 0 137.264 14.833 120.152 35.144C99.8843 52.333 81.8083 111.898 84.7163 159.703C88.0923 215.199 116.234 265.271 135.983 274.759C162.378 287.439 189.386 272.491 219.55 266.304C271.45 255.66 306.705 270.273 314.007 307.964C325.269 366.091 262.178 396.104 207.938 384.862C152.949 373.464 120.247 342.123 89.5593 352.45C60.5133 362.225 57.7593 422.265 119.036 470.42C155.982 499.455 207.581 512 253.913 512C315.826 511.999 383.71 488.166 416.876 431.943C448.753 377.905 449.58 299.324 425.512 244.931Z" fill="#FF8F40"/>
<path d="M354.471 59.239C354.471 83.581 304.152 107.104 237.425 111.539C243.08 112.005 249.265 112.289 255.996 112.289C333.647 112.289 395.678 86.266 395.678 59.239C395.678 32.212 332.73 0 255.079 0C247.421 0 239.912 0.219 232.586 0.629C301.388 5.234 354.471 34.421 354.471 59.239Z" fill="#F26D25"/>
<path d="M425.513 244.931C395.631 177.399 335.489 155.626 272.494 162.214C319.477 167.548 361.054 192.382 384.306 244.931C408.374 299.324 407.546 377.905 375.669 431.944C346.076 482.11 288.843 506.471 232.873 511.142C239.959 511.714 246.996 512.001 253.913 512.001C315.826 512 383.71 488.167 416.876 431.944C448.754 377.905 449.581 299.324 425.513 244.931Z" fill="#F26D25"/>
<path d="M209.586 478.436C209.241 478.436 208.893 478.413 208.542 478.366C145.45 469.839 107.806 421.09 106.234 419.02C103.655 415.621 104.319 410.774 107.718 408.194C111.114 405.618 115.955 406.279 118.537 409.67C118.885 410.127 154.033 455.405 210.611 463.052C214.84 463.623 217.805 467.515 217.233 471.744C216.709 475.621 213.393 478.436 209.586 478.436Z" fill="white"/>
</g>
<defs>
<clipPath id="clip0_650_493">
<rect width="512" height="512" fill="white" transform="translate(-0.00390625)"/>
</clipPath>
</defs>
</svg>
