<svg width="512" height="512" viewBox="0 0 512 512" fill="none" xmlns="http://www.w3.org/2000/svg">
<g clip-path="url(#clip0_650_500)">
<path d="M382.847 125.015C352.554 125.015 326.743 177.914 316.907 252.029C280.261 247.297 242.937 246.76 206.146 250.104C214.256 237.012 222.098 222.966 229.48 208.144C277.08 112.567 287.561 20.9706 252.888 3.55862C215.641 -15.1464 169.028 44.8336 150.968 68.5366C109.042 123.56 76.472 190.979 63.995 259.241C59.058 286.251 51.145 330.573 77.897 348.15C108.503 372.266 175.284 388.992 252.756 388.992C275.25 388.992 296.838 387.577 316.907 384.986C326.743 459.102 352.554 512.001 382.847 512.001C421.613 512.001 453.04 425.371 453.04 318.508C453.04 211.645 421.613 125.015 382.847 125.015Z" fill="#FFB509"/>
<path d="M188.273 208.143C180.891 222.966 173.049 237.011 164.939 250.103C179.049 248.821 193.238 248.115 207.437 247.992C215.087 235.502 222.491 222.176 229.48 208.143C277.08 112.566 287.561 20.9697 252.889 3.55768C240.993 -2.41632 228.142 -0.356322 215.571 5.97668C245.46 28.2247 233.993 116.341 188.273 208.143Z" fill="#FF9100"/>
<path d="M382.847 125.014C375.676 125.014 368.757 127.982 362.241 133.49C390.954 157.756 411.832 231.407 411.832 318.507C411.832 405.607 390.953 479.258 362.241 503.523C368.757 509.031 375.676 511.999 382.847 511.999C421.613 511.999 453.04 425.369 453.04 318.506C453.04 211.644 421.613 125.014 382.847 125.014Z" fill="#FF9100"/>
<path d="M93.8428 304.19C93.7908 304.19 93.7378 304.189 93.6848 304.188C89.4188 304.102 86.0298 300.575 86.1148 296.309C86.1648 293.795 87.7568 233.997 123.239 169.291C125.291 165.551 129.986 164.177 133.728 166.232C137.469 168.283 138.84 172.98 136.788 176.722C103.112 238.134 101.576 296.042 101.564 296.619C101.48 300.832 98.0378 304.19 93.8428 304.19Z" fill="white"/>
</g>
<defs>
<clipPath id="clip0_650_500">
<rect width="512" height="512" fill="white" transform="translate(-0.00390625)"/>
</clipPath>
</defs>
</svg>
