<svg width="512" height="512" viewBox="0 0 512 512" fill="none" xmlns="http://www.w3.org/2000/svg">
<path d="M421.519 137.157C372.328 -63.7451 86.5591 -34.1641 79.4121 162.179C76.3751 245.595 136.292 324.025 246.757 318.905C274.083 317.638 294.129 310.615 307.745 303.476C317.893 298.156 329.941 306.059 329.035 317.486C329.022 317.644 329.01 317.803 328.997 317.961C326.508 348.866 312.713 389.591 260.242 404.488C184.876 425.886 141.082 365.768 112.565 386.147C79.0471 410.1 119.067 516.897 252.032 511.825C331.283 508.802 391.557 455.29 415.712 369.522C434.545 302.656 439.448 210.377 421.519 137.157ZM246.757 229.141C217.782 229.141 194.293 200.092 194.293 164.258C194.293 128.424 217.782 99.3749 246.757 99.3749C275.732 99.3749 299.22 128.424 299.22 164.258C299.221 200.092 275.732 229.141 246.757 229.141Z" fill="#683C68"/>
<path d="M421.519 137.157C396.457 34.7976 309.982 -7.72438 230.234 1.14962C296.583 8.58662 359.54 52.3226 380.312 137.158C398.24 210.378 393.337 302.657 374.506 369.523C351.526 451.12 295.853 503.518 222.249 511.025C231.604 511.925 241.527 512.226 252.033 511.826C331.284 508.803 391.558 455.291 415.713 369.523C434.545 302.656 439.448 210.377 421.519 137.157Z" fill="#3F163F"/>
<path d="M118.639 133.019C117.817 133.019 116.982 132.887 116.161 132.609C112.124 131.241 109.956 126.867 111.318 122.827C112.17 120.3 132.87 60.6794 191.583 38.6854C195.579 37.1914 200.032 39.2134 201.529 43.2104C203.026 47.2064 201 51.6594 197.004 53.1564C145.301 72.5234 126.145 127.226 125.957 127.777C124.862 130.991 121.857 133.019 118.639 133.019Z" fill="white"/>
</svg>
