<svg width="500" height="512" viewBox="0 0 500 512" fill="none" xmlns="http://www.w3.org/2000/svg">
<path d="M264.839 253.798L143.568 218.578C117.245 210.933 102.103 183.396 109.748 157.073L144.968 35.8022C152.613 9.47927 180.15 -5.6627 206.473 1.98229L327.743 37.2022C354.066 44.8472 369.208 72.3842 361.563 98.7071L326.343 219.978C318.699 246.301 291.162 261.443 264.839 253.798Z" fill="#FB1466"/>
<path d="M327.743 37.2021L283.558 24.3701C305.793 34.4231 317.838 59.543 310.835 83.657L275.466 205.438C268.404 229.755 244.437 244.554 220.066 240.795L264.839 253.798C291.162 261.443 318.699 246.301 326.344 219.978L361.564 98.707C369.209 72.384 354.067 44.8471 327.743 37.2021Z" fill="#E01058"/>
<path d="M203.222 491.189L78.5602 511.354C51.5012 515.731 26.0173 497.343 21.6403 470.284L1.47534 345.623C-2.90165 318.564 15.4863 293.08 42.5453 288.703L167.206 268.538C194.265 264.161 219.749 282.549 224.126 309.608L244.291 434.268C248.669 461.328 230.281 486.812 203.222 491.189Z" fill="#B13D46"/>
<path d="M244.292 434.271L224.127 309.611C219.75 282.552 194.266 264.164 167.207 268.541L120.63 276.075C145.544 275.176 167.812 292.938 171.896 318.185L192.275 444.174C195.922 466.717 183.927 488.167 164.284 497.489L203.221 491.191C230.281 486.814 248.669 461.33 244.292 434.271Z" fill="#5F1824"/>
<path d="M449.528 498.382H323.246C295.835 498.382 273.614 476.162 273.614 448.751V322.469C273.614 295.058 295.835 272.837 323.246 272.837H449.528C476.939 272.837 499.16 295.058 499.16 322.469V448.751C499.16 476.162 476.939 498.382 449.528 498.382Z" fill="#FF8F40"/>
<path d="M449.529 272.837H409.09C431.219 278.09 447.685 297.966 447.685 321.702V449.518C447.685 473.253 431.219 493.129 409.09 498.382H449.529C476.94 498.382 499.161 476.162 499.161 448.751V322.469C499.161 295.058 476.94 272.837 449.529 272.837Z" fill="#F26D25"/>
<path d="M230.697 181.265C229.558 181.265 228.347 181.088 227.195 180.753C223.23 179.601 219.487 176.556 220.639 172.59L241.889 99.4229L237.716 102.378L237.665 102.406C236.786 102.89 235.756 103.156 234.766 103.156C234.306 103.156 233.86 103.098 233.478 102.987C231.829 102.508 230.528 101.267 229.815 99.4929C229.177 97.907 229.085 96.052 229.564 94.404C230.274 91.959 232.308 89.787 234.642 88.972L252.758 79.469C253.731 78.933 254.706 78.667 255.719 78.667C256.339 78.667 256.971 78.763 257.65 78.96C261.215 79.995 264.422 83.32 263.387 86.885L237.107 177.372C236.397 179.809 234.001 181.265 230.697 181.265Z" fill="white"/>
<path d="M101.926 446.972C98.7657 446.972 95.1347 445.29 94.6307 442.171L92.4257 428.541C90.4787 416.5 101.159 405.689 111.489 395.235C121.52 385.082 130.994 375.493 129.35 365.327C128.408 359.506 123.897 353.632 115.944 353.632C114.988 353.632 113.988 353.715 112.969 353.88C109.128 354.501 106.062 356.102 104.103 358.51C101.942 361.166 101.195 364.664 101.881 368.905C102.408 372.167 99.6307 376.079 94.0687 376.979C93.4657 377.076 92.8857 377.126 92.3417 377.126C88.2187 377.126 85.6827 374.368 84.8017 368.928C82.4147 354.171 93.4347 340.969 110.436 338.218C112.371 337.905 114.328 337.747 116.253 337.747C131.807 337.747 143.845 347.561 146.208 362.168C149.115 380.145 135.131 393.761 123.893 404.701C115.771 412.609 108.756 419.438 109.774 425.735L110.474 430.058L150.767 423.54C150.999 423.502 151.234 423.484 151.47 423.484C154.485 423.484 157.314 426.372 157.911 430.06C158.567 434.122 156.338 438.278 153.232 438.781L103.211 446.872C102.804 446.938 102.371 446.971 101.926 446.972Z" fill="white"/>
<path d="M385.888 439.09C375.576 439.09 367.012 436.118 361.122 430.496C356.216 425.813 353.402 419.439 353.402 413.009C353.402 407.59 355.572 405.574 361.406 405.574C367.78 405.574 370.264 407.459 370.264 412.297C370.264 417.949 375.139 423.651 386.03 423.651C397.381 423.651 402.224 418.681 402.224 407.031V404.327C402.224 394.58 396.881 389.842 385.889 389.842C382.269 389.842 380.02 387.157 380.02 382.835C380.02 378.425 382.269 375.685 385.889 375.685C394.156 375.685 399.662 373.197 399.662 361.057C399.662 351.63 395.59 347.426 386.458 347.426C375.074 347.426 372.685 353.213 372.685 358.068C372.685 362.812 369.944 365.218 364.539 365.218C357.585 365.218 355.681 363.497 355.681 357.214C355.681 347.897 362.193 332.13 386.6 332.13C406.267 332.13 416.239 341.001 416.239 358.495C416.239 369.346 412.501 377.992 406.136 382.141C414.805 386.26 419.37 393.888 419.37 404.326V407.03C419.369 419.004 415.02 439.09 385.888 439.09Z" fill="white"/>
</svg>
