<svg width="512" height="512" viewBox="0 0 512 512" fill="none" xmlns="http://www.w3.org/2000/svg">
<g clip-path="url(#clip0_650_540)">
<path d="M317.798 0.116776C316.844 0.116776 315.894 0.0417756 314.947 0.116776C286.624 -2.03222 234.323 25.6298 185.616 70.6748C126.466 125.378 95.0249 184.992 115.39 203.826C132.267 219.434 189.727 202.138 239.05 164.624C235.011 193.005 232.793 223.803 232.793 255.997C232.793 397.384 265.161 512 317.798 512C370.435 512 402.803 397.383 402.803 255.997C402.803 114.611 370.435 0.116776 317.798 0.116776Z" fill="#F85221"/>
<path d="M317.798 0.116695C316.844 0.116695 315.894 0.0416953 314.947 0.116695C308.325 -0.386305 300.38 0.760695 291.489 3.3587C335.266 22.8677 361.595 128.488 361.595 255.997C361.595 377.868 337.544 479.838 297.194 505.67C303.655 509.807 310.532 512.001 317.798 512.001C370.435 512.001 402.803 397.384 402.803 255.998C402.803 114.61 370.435 0.116695 317.798 0.116695Z" fill="#EE1F1F"/>
<path d="M221.631 94.1727C219.562 94.1727 217.499 93.3467 215.977 91.7137C213.068 88.5917 213.24 83.7027 216.362 80.7927C218.033 79.2367 257.834 42.4887 306.676 26.6967C310.736 25.3897 315.092 27.6127 316.406 31.6717C317.718 35.7317 315.491 40.0887 311.431 41.4017C265.823 56.1477 227.282 91.7417 226.898 92.0997C225.408 93.4867 223.517 94.1727 221.631 94.1727Z" fill="white"/>
</g>
<defs>
<clipPath id="clip0_650_540">
<rect width="512" height="512" fill="white" transform="translate(-0.00390625)"/>
</clipPath>
</defs>
</svg>
