<svg version="1.1" id="Capa_1" xmlns="http://www.w3.org/2000/svg" xmlns:xlink="http://www.w3.org/1999/xlink" x="0px" y="0px" viewBox="0 0 512 512" style="enable-background:new 0 0 512 512;" xml:space="preserve" width="300" height="300" xmlns:svgjs="http://svgjs.dev/svgjs"><g width="100%" height="100%" transform="matrix(1,0,0,1,0,0)"><path style="" d="M481.095,0L256,256l225.095,256h18.414c6.899,0,12.491-5.593,12.491-12.491V12.491&#xA;&#9;C512,5.593,506.407,0,499.509,0H481.095z" fill="#05bf9e" fill-opacity="1" data-original-color="#2ea2efff" stroke="none" stroke-opacity="1"/><path style="" d="M0,12.491v487.018C0,506.407,5.593,512,12.491,512h468.604V0H12.491C5.593,0,0,5.593,0,12.491z" fill="#64f4b5" fill-opacity="1" data-original-color="#54bbffff" stroke="none" stroke-opacity="1"/><polygon style="" points="450.189,30.905 256,256 450.189,481.095 481.095,481.095 481.095,30.905 " fill="#95ffd9" fill-opacity="1" data-original-color="#c6e8ffff" stroke="none" stroke-opacity="1"/><rect x="30.905" y="30.905" style="" width="419.284" height="450.189" fill="#d8ffef" fill-opacity="1" data-original-color="#def1ffff" stroke="none" stroke-opacity="1"/><path style="" d="M272.864,117.485c-2.157-0.724-4.369-1.074-6.559-1.074c-6.328,0-12.456,2.923-16.425,8.163&#xA;&#9;l-51.508,67.992c-6.871,9.071-5.089,21.993,3.982,28.865c3.722,2.82,8.091,4.183,12.426,4.182c6.23,0,12.387-2.814,16.439-8.163&#xA;&#9;l14.481-19.117v176.654c0,11.379,9.224,20.604,20.604,20.604c11.379,0,20.604-9.224,20.604-20.604V137.015&#xA;&#9;C286.905,128.166,281.254,120.304,272.864,117.485z" fill="#05bf9e" fill-opacity="1" data-original-color="#2ea2efff" stroke="none" stroke-opacity="1"/><g>
</g><g>
</g><g>
</g><g>
</g><g>
</g><g>
</g><g>
</g><g>
</g><g>
</g><g>
</g><g>
</g><g>
</g><g>
</g><g>
</g><g>
</g></g></svg>