<svg width="512" height="512" viewBox="0 0 512 512" fill="none" xmlns="http://www.w3.org/2000/svg">
<g clip-path="url(#clip0_650_546)">
<path d="M450.475 74.681C442.666 45.02 381.392 0 253.928 0C145.355 0 57.3403 33.988 57.3403 75.914C57.3403 117.84 145.355 151.828 253.928 151.828C264.829 151.828 286.072 151.48 296.49 150.821C283.31 172.365 270.564 196.237 258.764 221.871C256.221 221.796 253.652 221.758 251.061 221.758C195.4 221.758 150.278 239.343 150.278 261.036C150.278 279.67 183.574 295.273 228.245 299.303C193.677 404.533 182.714 492.958 220.646 509.344C265.812 528.856 348.225 438.847 404.722 308.306C445.48 214.125 463.495 124.129 450.475 74.681Z" fill="#70CE94"/>
<path d="M450.475 74.681C442.666 45.02 381.392 0 253.928 0C246.973 0 240.103 0.142 233.334 0.414C346.814 4.961 401.892 46.668 409.268 74.681C422.288 124.13 404.273 214.126 363.514 308.304C319.903 409.074 260.852 485.673 215.408 506.404C217.039 507.551 218.781 508.537 220.646 509.342C265.812 528.854 348.225 438.845 404.722 308.304C445.48 214.125 463.495 124.13 450.475 74.681Z" fill="#32B088"/>
<path d="M195.391 120.089C195.211 120.089 195.03 120.083 194.848 120.071C132.827 115.765 92.0453 89.832 90.3403 88.73C86.7553 86.415 85.7263 81.632 88.0423 78.048C90.3573 74.465 95.1363 73.438 98.7193 75.746C99.2553 76.089 138.184 100.646 195.918 104.654C200.175 104.95 203.386 108.641 203.091 112.897C202.808 116.972 199.415 120.089 195.391 120.089Z" fill="white"/>
</g>
<defs>
<clipPath id="clip0_650_546">
<rect width="512" height="512" fill="white" transform="translate(-0.00390625)"/>
</clipPath>
</defs>
</svg>
