<svg width="512" height="512" viewBox="0 0 512 512" fill="none" xmlns="http://www.w3.org/2000/svg">
<g clip-path="url(#clip0_650_552)">
<path d="M265.235 193.095C237.909 194.362 217.863 201.385 204.247 208.524C194.099 213.844 182.051 205.941 182.957 194.514C182.97 194.356 182.982 194.197 182.995 194.039C185.484 163.134 199.279 122.409 251.75 107.512C327.116 86.1138 370.91 146.232 399.427 125.853C432.944 101.9 392.924 -4.89719 259.959 0.174807C180.707 3.19781 120.434 56.7098 96.2793 142.478C77.4473 209.344 72.5443 301.624 90.4733 374.843C139.664 575.745 425.433 546.165 432.581 349.821C435.617 266.405 375.701 187.975 265.235 193.095ZM265.235 412.625C236.26 412.625 212.772 383.576 212.772 347.742C212.772 311.908 236.261 282.859 265.235 282.859C294.21 282.859 317.699 311.908 317.699 347.742C317.698 383.576 294.21 412.625 265.235 412.625Z" fill="#FB1466"/>
<path d="M360.814 123.675C376.307 129.931 388.907 133.369 399.425 125.853C432.944 101.9 392.924 -4.89719 259.959 0.174807C256.105 0.321807 252.298 0.591807 248.536 0.975807C354.312 11.1518 387.121 98.3238 360.814 123.675Z" fill="#E01058"/>
<path d="M265.235 193.095C261.599 193.264 258.101 193.541 254.72 193.9C345.515 203.241 394.115 274.493 391.373 349.821C387.867 446.128 317.326 502.307 240.551 510.851C331.326 521.026 428.451 463.255 432.58 349.821C435.617 266.405 375.701 187.975 265.235 193.095Z" fill="#E01058"/>
<path d="M133.779 404.766C130.937 404.766 128.204 403.193 126.855 400.473C125.82 398.385 101.548 348.568 105.365 281C105.605 276.74 109.251 273.492 113.515 273.721C117.776 273.962 121.034 277.61 120.794 281.871C117.217 345.18 140.468 393.138 140.703 393.615C142.589 397.439 141.023 402.072 137.2 403.962C136.099 404.507 134.93 404.766 133.779 404.766Z" fill="white"/>
</g>
<defs>
<clipPath id="clip0_650_552">
<rect width="512" height="512" fill="white" transform="translate(-0.00390625)"/>
</clipPath>
</defs>
</svg>
