<svg width="512" height="512" viewBox="0 0 512 512" fill="none" xmlns="http://www.w3.org/2000/svg">
<g clip-path="url(#clip0_650_700)">
<path d="M181.436 256.699C181.436 285.725 223.824 293.026 252.677 304.063C307.961 325.21 301.63 386.374 252.435 397.359C187.193 411.928 134.311 318.913 95.3669 364.09C65.4769 398.765 119.104 512 266.701 512C344.606 512 411.756 462.461 423.173 383.059C429.647 338.038 413.529 289.384 382.627 256C413.528 222.617 429.646 173.962 423.173 128.941C411.756 49.539 344.607 0 266.701 0C119.104 0 65.4769 113.235 95.3679 147.911C134.312 193.087 187.193 100.073 252.436 114.642C301.631 125.627 307.961 186.791 252.678 207.938C229.833 216.676 180.415 223.808 181.436 256.699Z" fill="#8078BC"/>
<path d="M423.174 128.941C411.756 49.539 344.607 0 266.701 0C258.86 0 251.301 0.338 243.989 0.948C313.801 8.135 371.463 55.901 381.966 128.941C388.44 173.962 372.322 222.616 341.42 256C372.321 289.383 388.439 338.038 381.966 383.059C371.463 456.099 313.801 503.866 243.989 511.052C251.301 511.662 258.86 512 266.701 512C344.606 512 411.756 462.461 423.173 383.059C429.647 338.038 413.529 289.384 382.627 256C413.529 222.617 429.647 173.962 423.174 128.941Z" fill="#5E54AC"/>
<path d="M161.026 73.3321C158.714 73.3321 156.427 72.3001 154.906 70.3291C152.3 66.9561 152.914 62.1151 156.283 59.5041C157.827 58.3081 194.54 30.3311 247.258 30.3311C247.514 30.3311 247.768 30.3321 248.024 30.3331C252.292 30.3551 255.733 33.8321 255.711 38.0991C255.689 42.3541 252.234 45.7861 247.986 45.7861C247.735 45.7861 247.508 45.7841 247.275 45.7841C200.004 45.7841 166.077 71.4671 165.739 71.7281C164.333 72.8081 162.673 73.3321 161.026 73.3321Z" fill="white"/>
</g>
<defs>
<clipPath id="clip0_650_700">
<rect width="512" height="512" fill="white" transform="translate(-0.00390625)"/>
</clipPath>
</defs>
</svg>
