<svg width="512" height="512" viewBox="0 0 512 512" fill="none" xmlns="http://www.w3.org/2000/svg">
<g clip-path="url(#clip0_650_707)">
<path d="M315.647 385.217C372.933 332.566 417.478 262.548 417.478 182.502C417.478 75.7592 347.258 0.141245 255.996 0.000245443C175.757 -0.123755 122.622 46.7612 102.828 84.9762C70.379 147.621 102.7 174.535 149.414 143.622C173.131 127.927 203.684 109.961 231.162 114.083C265.374 119.215 289.554 151.865 277.188 195.143C244.556 309.353 83.397 382.12 83.397 438.988C83.397 475.861 157.657 512 248.665 512C347.258 512 428.595 482.108 428.595 445.235C428.595 418.863 384.625 396.066 315.647 385.217Z" fill="#20B69F"/>
<path d="M315.647 385.217C372.933 332.566 417.478 262.548 417.478 182.502C417.478 75.7593 347.258 0.141256 255.996 0.000256071C248.412 -0.0117439 241.071 0.398256 233.976 1.17926C315.707 11.1003 376.271 83.3733 376.271 182.502C376.271 262.548 331.726 332.566 274.44 385.217C343.418 396.065 387.388 418.863 387.388 445.234C387.388 479.27 318.087 507.356 229.882 511.477C236.05 511.817 242.315 511.999 248.665 511.999C347.258 511.999 428.595 482.107 428.595 445.234C428.595 418.863 384.625 396.066 315.647 385.217Z" fill="#17998C"/>
<path d="M131.79 429.09C129.627 429.09 127.477 428.188 125.949 426.425C123.154 423.201 123.502 418.32 126.726 415.526C127.103 415.2 164.736 382.54 197.173 351.336C200.247 348.377 205.139 348.472 208.098 351.548C211.056 354.622 210.961 359.514 207.886 362.473C175.155 393.961 137.229 426.873 136.85 427.202C135.386 428.469 133.584 429.09 131.79 429.09Z" fill="white"/>
</g>
<defs>
<clipPath id="clip0_650_707">
<rect width="512" height="512" fill="white" transform="translate(-0.00390625)"/>
</clipPath>
</defs>
</svg>
