<svg width="512" height="512" viewBox="0 0 512 512" fill="none" xmlns="http://www.w3.org/2000/svg">
<path d="M255.996 0C142.674 0 50.8091 114.615 50.8091 256C50.8091 397.385 142.674 512 255.996 512C369.318 512 461.184 397.385 461.184 256C461.184 114.615 369.318 0 255.996 0ZM255.996 328.376C223.958 328.376 197.986 295.972 197.986 256C197.986 216.028 223.958 183.624 255.996 183.624C288.034 183.624 314.006 216.028 314.006 256C314.006 295.972 288.034 328.376 255.996 328.376Z" fill="#9F75D9"/>
<path d="M255.996 0C249.041 0 242.169 0.437 235.392 1.28C339.039 14.174 419.976 123.292 419.976 256C419.976 388.708 339.039 497.826 235.392 510.72C242.169 511.563 249.041 512 255.996 512C369.318 512 461.184 397.385 461.184 256C461.184 114.615 369.318 0 255.996 0Z" fill="#875DC1"/>
<path d="M110.325 151.993C109.394 151.993 108.448 151.824 107.528 151.466C103.551 149.921 101.579 145.444 103.125 141.466C103.49 140.526 112.299 118.168 132.345 93.4384C159.029 60.5184 193.115 39.1454 230.918 31.6284C235.103 30.7994 239.17 33.5144 240.003 37.6994C240.835 41.8844 238.117 45.9524 233.932 46.7854C150.974 63.2794 117.854 146.228 117.529 147.064C116.341 150.121 113.42 151.993 110.325 151.993Z" fill="white"/>
</svg>
