<svg id="Capa_1" enable-background="new 0 0 512 512" height="512" viewBox="0 0 512 512" width="512" xmlns="http://www.w3.org/2000/svg"><g><g><path d="m147.804 47.811c15.521 0 30.117 4.026 42.807 11.081v-9.004c0-23.642-19.165-42.807-42.807-42.807-23.642 0-42.807 19.165-42.807 42.807v9.004c12.69-7.055 27.286-11.081 42.807-11.081z" fill="#bb5d4c"/><path d="m139.624 48.193c.653-16.756 10.942-31.031 25.477-37.461-5.291-2.341-11.139-3.651-17.296-3.651-23.642 0-42.807 19.165-42.807 42.807v9.004c10.434-5.801 22.158-9.55 34.626-10.699z" fill="#a44f3e"/><path d="m179.633 471.352c1.776-8.56 5.28-16.494 10.415-23.582l1.149-1.587h-18.523c-8.686 0-15.751-7.065-15.751-15.751v-33.188c0-8.686 7.065-15.751 15.751-15.751h75.345v-9.35c0-19.343 11.272-36.1 27.59-44.056v-16.221c0-23.754-19.256-43.01-43.01-43.01h-62.641v16.956c0 12.216-9.938 22.153-22.153 22.153s-22.153-9.938-22.153-22.153v-16.956h-62.643c-23.754 0-43.01 19.256-43.01 43.01v160.282h159.468z" fill="#d8ecfe"/><path d="m54.99 472.149v-160.283c0-8.237 2.319-15.931 6.335-22.472v-19.778c0-.243.014-.482.036-.719-22.989.867-41.363 19.767-41.363 42.969v160.283z" fill="#c4e2ff"/><path d="m179.467 472.148.166-.797c1.776-8.56 5.28-16.494 10.415-23.582l1.149-1.587h-18.523c-8.686 0-15.751-7.065-15.751-15.751v-33.188c0-8.686 7.065-15.751 15.751-15.751h61.608v-109.696c0-4.143-3.357-7.5-7.5-7.5s-7.5 3.357-7.5 7.5v53.504h-142.957v-55.683c0-4.143-3.357-7.5-7.5-7.5s-7.5 3.357-7.5 7.5v202.531z" fill="#fd4755"/><path d="m95.043 472.149v-146.849h-18.718v-55.683c0-4.143-3.357-7.5-7.5-7.5s-7.5 3.357-7.5 7.5v202.532z" fill="#fb2b3a"/><path d="m147.804 258.745c-8.18 0-15.989-1.598-23.154-4.471v31.538c0 12.787 10.366 23.154 23.154 23.154 12.787 0 23.154-10.366 23.154-23.154v-31.538c-7.166 2.874-14.975 4.471-23.154 4.471z" fill="#fed2a4"/><path d="m147.831 285.812v-27.068c-.009 0-.018.001-.027.001-8.18 0-15.989-1.597-23.154-4.471v31.538c0 12.787 10.366 23.154 23.154 23.154 4.224 0 8.181-1.137 11.59-3.113-6.911-4.006-11.563-11.478-11.563-20.041z" fill="#ffbd86"/><path d="m67.994 155.107h17.39v-10.5c0-12.107 9.85-21.957 21.957-21.957h80.926c12.107 0 21.957 9.85 21.957 21.957v10.5h17.39c3.421 0 6.666.762 9.581 2.116v-21.022c0-49.369-40.022-89.391-89.391-89.391-49.369 0-89.391 40.022-89.391 89.391v21.022c2.915-1.354 6.16-2.116 9.581-2.116z" fill="#a44f3e"/><path d="m67.994 155.107h17.39v-10.5c0-7.444 3.726-14.03 9.408-18.002 4.151-38.869 33.195-70.295 70.894-77.988-5.779-1.175-11.755-1.807-17.882-1.807-49.369 0-89.391 40.022-89.391 89.391v21.022c2.915-1.354 6.16-2.116 9.581-2.116z" fill="#883f2e"/><g><path d="m85.384 196.325v-42.217h-17.389c-13.158 0-23.825 10.667-23.825 23.825v7.821c0 13.158 10.667 23.825 23.825 23.825h18.819c-.928-4.274-1.43-8.706-1.43-13.254z" fill="#ffbd86"/><path d="m227.613 154.108h-17.389v42.217c0 4.548-.502 8.979-1.43 13.254h18.819c13.158 0 23.825-10.667 23.825-23.825v-7.821c0-13.158-10.667-23.825-23.825-23.825z" fill="#fed2a4"/></g><g><path d="m84.384 196.325v-51.718c0-12.679 10.278-22.957 22.957-22.957h80.926c12.679 0 22.957 10.278 22.957 22.957v51.718c0 35.026-28.394 63.42-63.42 63.42-35.026 0-63.42-28.394-63.42-63.42z" fill="#ffe5c2"/></g><g><path d="m118.986 196.325v-51.718c0-12.679 10.278-22.957 22.957-22.957h-34.602c-12.679 0-22.957 10.278-22.957 22.957v51.718c0 35.026 28.394 63.42 63.42 63.42 6.001 0 11.799-.851 17.301-2.409-26.613-7.533-46.119-31.986-46.119-61.011z" fill="#fed2a4"/></g><g><g><g><path d="m147.804 233.588c-8.691 0-17.383-3.309-24-9.925-2.929-2.93-2.929-7.678 0-10.607 2.93-2.928 7.678-2.928 10.607 0 7.385 7.385 19.4 7.385 26.785 0 2.93-2.928 7.678-2.928 10.607 0 2.929 2.93 2.929 7.678 0 10.607-6.616 6.616-15.308 9.925-23.999 9.925z" fill="#bb5d4c"/></g></g><g><g><path d="m117.259 184.605c-4.143 0-7.5-3.357-7.5-7.5v-15.705c0-4.143 3.357-7.5 7.5-7.5s7.5 3.357 7.5 7.5v15.704c0 4.143-3.358 7.501-7.5 7.501z" fill="#bb5d4c"/></g><g><path d="m178.349 184.605c-4.143 0-7.5-3.357-7.5-7.5v-15.705c0-4.143 3.357-7.5 7.5-7.5s7.5 3.357 7.5 7.5v15.704c0 4.143-3.358 7.501-7.5 7.501z" fill="#bb5d4c"/></g></g><g><path d="m147.807 203.092c-2.068 0-4.126-.85-5.608-2.517l-8.728-9.817c-2.428-2.731-2.534-6.815-.251-9.669l8.728-10.909c2.588-3.235 7.306-3.759 10.542-1.171 3.234 2.588 3.759 7.308 1.171 10.542l-4.775 5.969 4.524 5.089c2.752 3.096 2.474 7.837-.622 10.589-1.43 1.269-3.21 1.894-4.981 1.894z" fill="#bb5d4c"/></g></g></g><g><path d="m294.649 221.284h15.979v-9.63c0-10.629 8.647-19.276 19.276-19.276h67.616c10.629 0 19.276 8.647 19.276 19.276v9.63h15.979c3.018 0 5.864.721 8.406 1.97v-29.093c0-41.344-33.516-74.859-74.859-74.859h-5.221c-41.344 0-74.859 33.516-74.859 74.859v29.093c2.543-1.249 5.389-1.97 8.407-1.97z" fill="#fe7701"/><path d="m294.649 221.284h15.979v-9.63c0-10.593 8.59-19.212 19.169-19.271.793-33.937 24.159-62.284 55.674-70.6-6.113-1.613-12.528-2.482-19.148-2.482h-5.221c-41.344 0-74.859 33.516-74.859 74.859v29.093c2.542-1.248 5.388-1.969 8.406-1.969z" fill="#f46700"/><path d="m391.111 381.493c8.686 0 15.751 7.065 15.751 15.751v33.188c0 8.686-7.065 15.751-15.751 15.751h-35.728l2.724 1.83c8.838 5.938 16.032 14.094 20.805 23.585l.277.551h101.219v-100.006c0-27.605-22.378-49.984-49.984-49.984h-47.107v10.233c0 10.81-8.795 19.604-19.604 19.604s-19.604-8.794-19.604-19.604v-10.232h-47.107c-27.605 0-49.984 22.378-49.984 49.984v9.35h144.093z" fill="#97d729"/><path d="m344.109 322.16h-47.107c-27.605 0-49.984 22.378-49.984 49.984v8.35h48.129v-8.35c0-27.263 21.83-49.412 48.962-49.958z" fill="#8bc727"/><path d="m368.513 308.146h-9.599c-5.534 0-10.849-.948-15.804-2.67v26.917c0 11.379 9.225 20.604 20.604 20.604s20.604-9.225 20.604-20.604v-26.917c-4.956 1.721-10.271 2.67-15.805 2.67z" fill="#fed2a4"/><path d="m365.199 332.393v-24.247h-6.285c-5.534 0-10.849-.948-15.804-2.67v26.917c0 11.379 9.225 20.604 20.604 20.604 4.068 0 7.85-1.195 11.045-3.23-5.741-3.658-9.56-10.063-9.56-17.374z" fill="#ffbd86"/><g><path d="m432.777 220.284h-15.979v39.576c0 2.207-.162 4.375-.45 6.504h16.429c11.127 0 20.147-9.02 20.147-20.147v-5.786c0-11.127-9.02-20.147-20.147-20.147z" fill="#fed2a4"/><path d="m310.629 259.86v-39.576h-15.979c-11.127 0-20.147 9.02-20.147 20.147v5.786c0 11.127 9.02 20.147 20.147 20.147h16.429c-.288-2.128-.45-4.297-.45-6.504z" fill="#ffbd86"/></g><g><path d="m309.629 259.86v-48.206c0-11.198 9.078-20.276 20.276-20.276h67.616c11.198 0 20.276 9.078 20.276 20.276v48.206c0 27.219-22.066 49.285-49.285 49.285h-9.599c-27.218 0-49.284-22.065-49.284-49.285z" fill="#ffe5c2"/></g><g><path d="m343.565 259.86v-48.206c0-11.198 9.078-20.276 20.276-20.276h-33.937c-11.198 0-20.276 9.078-20.276 20.276v48.206c0 27.219 22.066 49.285 49.285 49.285h9.599c4.2 0 8.276-.529 12.169-1.517-21.333-5.419-37.116-24.749-37.116-47.768z" fill="#fed2a4"/></g><g><g><path d="m343.643 247.008c-4.143 0-7.5-3.357-7.5-7.5v-10.899c0-4.143 3.357-7.5 7.5-7.5s7.5 3.357 7.5 7.5v10.899c0 4.142-3.358 7.5-7.5 7.5z" fill="#bb5d4c"/></g><g><path d="m383.784 247.008c-4.143 0-7.5-3.357-7.5-7.5v-10.899c0-4.143 3.357-7.5 7.5-7.5s7.5 3.357 7.5 7.5v10.899c0 4.142-3.357 7.5-7.5 7.5z" fill="#bb5d4c"/></g></g><g><path d="m363.713 281.715c-8.576 0-17.152-2.658-24.471-7.976-3.352-2.435-4.094-7.125-1.659-10.476 2.435-3.352 7.127-4.093 10.476-1.659 9.363 6.803 21.945 6.803 31.309 0 3.353-2.436 8.041-1.692 10.476 1.659s1.692 8.041-1.659 10.476c-7.32 5.318-15.896 7.976-24.472 7.976z" fill="#bb5d4c"/></g></g><g><g fill="#ffbd86"><path d="m156.923 400.871h-35.271c-7.162 0-12.968 5.806-12.968 12.967s5.806 12.967 12.968 12.967h35.271z"/><path d="m442.134 400.871h-35.271v25.935h35.271c7.162 0 12.967-5.806 12.967-12.967s-5.806-12.968-12.967-12.968z"/></g><path d="m391.111 380.493h-218.437c-9.251 0-16.751 7.5-16.751 16.751v33.188c0 9.251 7.5 16.751 16.751 16.751h17.785c11.356-15.285 29.537-24.97 49.602-24.97 14 0 27.2 4.569 38.173 13.214 5.242 4.13 11.687 6.403 18.146 6.403 2.877 0 5.718-.444 8.443-1.322 6.089-1.962 12.449-2.957 18.902-2.957 11.856 0 23.268 3.479 32.991 9.632h34.396c9.251 0 16.751-7.5 16.751-16.751v-33.188c-.001-9.251-7.5-16.751-16.752-16.751z" fill="#ffe5c2"/><path d="m216.091 420.829c-9.251 0-16.751-7.5-16.751-16.751v-23.585h-26.666c-9.251 0-16.751 7.5-16.751 16.751v33.188c0 9.251 7.5 16.751 16.751 16.751h17.785c11.356-15.285 29.537-24.97 49.602-24.97 14 0 27.2 4.569 38.173 13.214 5.242 4.13 11.687 6.403 18.146 6.403 2.877 0 5.718-.444 8.443-1.322 6.089-1.962 12.449-2.957 18.902-2.957 11.856 0 23.268 3.479 32.991 9.632h34.396c9.252 0 16.751-7.5 16.751-16.751v-9.603z" fill="#fed2a4"/></g><path d="m380.309 472.149c-10.123-21.06-31.655-35.599-56.584-35.599-6.702 0-13.156 1.055-19.208 3.004-8.819 2.84-18.385.82-25.663-4.914-10.675-8.41-24.147-13.429-38.792-13.429-30.615 0-56.095 21.931-61.622 50.937h201.869z" fill="#ffd15b"/><path d="m222.061 472.149c4.141-21.733 19.487-39.491 39.803-47.03-6.792-2.519-14.134-3.907-21.803-3.907-30.615 0-56.095 21.931-61.622 50.937z" fill="#fdb441"/><g><path d="m506.849 504.919h-501.698c-2.845 0-5.151-2.306-5.151-5.151v-23.468c0-2.845 2.306-5.151 5.151-5.151h501.698c2.845 0 5.151 2.306 5.151 5.151v23.468c0 2.845-2.306 5.151-5.151 5.151z" fill="#0593fc"/></g><g><path d="m58.205 499.768v-23.468c0-2.845 2.306-5.151 5.151-5.151h-58.205c-2.845 0-5.151 2.306-5.151 5.151v23.468c0 2.845 2.306 5.151 5.151 5.151h58.205c-2.845 0-5.151-2.306-5.151-5.151z" fill="#0182fc"/></g></g></svg>