<?xml version="1.0" encoding="iso-8859-1"?>
<!-- Generator: Adobe Illustrator 19.0.0, SVG Export Plug-In . SVG Version: 6.00 Build 0)  -->
<svg version="1.1" id="Capa_1" xmlns="http://www.w3.org/2000/svg" xmlns:xlink="http://www.w3.org/1999/xlink" x="0px" y="0px"
	 viewBox="0 0 512 512" style="enable-background:new 0 0 512 512;" xml:space="preserve">
<path style="fill:#F8D5AB;" d="M157.226,350.92c-18.309,0-35.419-5.115-49.976-13.987c0,0,2.383,5.194,3.027,5.453l46.949,18.809
	l46.949-18.809c0.644-0.259,2.075-4.886,2.075-4.886C191.901,346.021,175.138,350.92,157.226,350.92z"/>
<path style="fill:#CDF0DE;" d="M283.38,374.25h-71.848v-29.329c0-1.775-0.884-3.434-2.358-4.428c-0.9-0.607-1.947-0.917-3.002-0.917
	c-0.675,0-1.353,0.127-1.997,0.386l-46.949,18.809l-46.949-18.809c-0.644-0.259-1.322-0.386-1.997-0.386
	c-1.055,0-2.103,0.31-3.001,0.917c-1.476,0.994-2.358,2.652-2.358,4.428v29.329H31.072c-8.867,0-16.079,7.191-16.079,16.033v116.373
	c0,2.951,2.399,5.344,5.359,5.344H294.1c2.959,0,5.358-2.393,5.358-5.344V390.283C299.458,381.441,292.246,374.25,283.38,374.25z"/>
<path style="fill:#F8D5AB;" d="M260.128,210.157c-2.425,0-4.756,0.398-6.937,1.121v43.945c0,5.578-0.484,11.043-1.402,16.36
	c2.572,1.053,5.387,1.638,8.339,1.638c12.136,0,21.974-9.811,21.974-21.913v-19.239
	C282.102,219.967,272.264,210.157,260.128,210.157z"/>
<path style="fill:#FAE4C8;" d="M61.261,189v66.224c0,52.852,42.965,95.696,95.965,95.696c53.001,0,95.965-42.845,95.965-95.696V189
	H61.261z"/>
<path style="fill:#F6B245;" d="M174.288,189c-15.07,17.781-36.518,30.011-60.836,33.159c10.783,4.182,22.509,6.482,34.774,6.482
	c32.004,0,60.339-15.628,77.773-39.642h-51.711V189z"/>
<g>
	<path style="fill:#F8C36E;" d="M61.261,189v25.416c12.104,5.495,25.553,8.559,39.721,8.559c29.411,0,55.725-13.199,73.328-33.975
		H61.261z"/>
	<path style="fill:#F8C36E;" d="M226.005,189c-7.898,10.873-18.033,20.025-29.73,26.787c4.949,0.785,10.022,1.198,15.193,1.198
		c14.956,0,29.105-3.422,41.723-9.508V189H226.005z"/>
</g>
<path style="fill:#F8D5AB;" d="M61.261,255.224v-43.945c-2.182-0.724-4.512-1.121-6.937-1.121c-12.136,0-21.973,9.81-21.973,21.912
	v19.239c0,12.103,9.837,21.913,21.973,21.913c2.953,0,5.768-0.585,8.339-1.638C61.745,266.268,61.261,260.802,61.261,255.224z"/>
<path style="opacity:0.1;enable-background:new    ;" d="M83.22,255.224V189H61.261v66.224c0,52.852,42.965,95.696,95.965,95.696
	c3.714,0,7.376-0.218,10.98-0.628C120.377,344.859,83.22,304.372,83.22,255.224z"/>
<path style="opacity:0.1;enable-background:new    ;" d="M29.327,506.656V390.283c0-8.842,7.212-16.033,16.079-16.033H31.072
	c-8.867,0-16.079,7.191-16.079,16.033v116.373c0,2.951,2.399,5.344,5.359,5.344h14.333C31.726,512,29.327,509.607,29.327,506.656z"
	/>
<path style="fill:#CDF0DE;" d="M228.507,25.654c-8.368,0-16.273,1.961-23.295,5.432C197.029,12.773,178.629,0,157.226,0
	c-21.402,0-39.802,12.773-47.985,31.086c-7.021-3.471-14.928-5.432-23.295-5.432c-29.008,0-52.523,23.448-52.523,52.375
	c0,21.102,12.519,39.274,30.549,47.57V160h186.51v-34.4c18.029-8.296,30.549-26.469,30.549-47.57
	C281.03,49.103,257.515,25.654,228.507,25.654z"/>
<path style="opacity:0.1;enable-background:new    ;" d="M63.971,160h16.816v-45.578c-18.03-8.296-30.549-26.469-30.549-47.57
	c0-14.546,5.953-27.694,15.554-37.182c-19.003,7.882-32.37,26.557-32.37,48.359c0,21.102,12.519,39.274,30.549,47.57V160z"/>
<path style="fill:#A8E5C6;" d="M174.055,432h15v-71.53c0-3.049-1.845-5.794-4.668-6.944l-6.972-2.843l-20.038,8.027l16.678,6.801
	V432z"/>
<g>
	<rect x="73.08" y="373.04" style="fill:#FF3D6C;" width="23.582" height="58.956"/>
	<rect x="217.79" y="373.04" style="fill:#FF3D6C;" width="23.581" height="58.956"/>
</g>
<path style="fill:#FF1B52;" d="M249.374,512v-79.407c0-2.939-2.412-5.345-5.36-5.345H70.439c-2.948,0-5.36,2.406-5.36,5.345V512
	H249.374z"/>
<path style="fill:#FF3D6C;" d="M86.48,456.44c-1.97,0-3.91-0.8-5.3-2.199c-1.4-1.4-2.2-3.33-2.2-5.301c0-1.98,0.8-3.909,2.2-5.31
	c1.39-1.39,3.33-2.19,5.3-2.19c1.98,0,3.91,0.801,5.3,2.19c1.4,1.4,2.2,3.33,2.2,5.31c0,1.971-0.8,3.9-2.2,5.301
	C90.39,455.64,88.46,456.44,86.48,456.44z"/>
<g>
	<path style="fill:#995C57;" d="M110.846,272.644c-4.142,0-7.5-3.357-7.5-7.5v-10.688c0-4.143,3.358-7.5,7.5-7.5s7.5,3.357,7.5,7.5
		v10.688C118.346,269.286,114.988,272.644,110.846,272.644z"/>
	<path style="fill:#995C57;" d="M203.606,272.644c-4.142,0-7.5-3.357-7.5-7.5v-10.688c0-4.143,3.358-7.5,7.5-7.5s7.5,3.357,7.5,7.5
		v10.688C211.106,269.286,207.748,272.644,203.606,272.644z"/>
</g>
<path style="fill:#A8E5C6;" d="M262.028,187.578c0,2.833-2.319,5.151-5.153,5.151H57.578c-2.834,0-5.153-2.318-5.153-5.151v-26.697
	c0-2.834,2.319-5.151,5.153-5.151h199.297c2.835,0,5.153,2.317,5.153,5.151V187.578z"/>
<path style="opacity:0.1;enable-background:new    ;" d="M80.781,187.578v-26.697c0-2.834,2.319-5.151,5.153-5.151H57.578
	c-2.834,0-5.153,2.317-5.153,5.151v26.697c0,2.833,2.319,5.151,5.153,5.151h28.357C83.1,192.73,80.781,190.411,80.781,187.578z"/>
<g>
	<path style="fill:#F6B245;" d="M157.226,328.401c-12.681,0-23.98-8.514-27.478-20.705c-1.143-3.981,1.159-8.135,5.14-9.277
		c3.986-1.142,8.136,1.159,9.278,5.141c1.663,5.795,7.033,9.842,13.06,9.842s11.397-4.047,13.061-9.842
		c1.142-3.982,5.296-6.282,9.278-5.141c3.981,1.143,6.283,5.296,5.14,9.277C181.206,319.888,169.906,328.401,157.226,328.401z"/>
	<path style="fill:#F6B245;" d="M166.502,290.326h-10.884c-6.409,0-11.623-5.213-11.623-11.621v-20.773c0-4.143,3.358-7.5,7.5-7.5
		s7.5,3.357,7.5,7.5v17.394h7.506c4.142,0,7.5,3.357,7.5,7.5S170.644,290.326,166.502,290.326z"/>
</g>
<g>
	<path style="fill:#A8E5C6;" d="M160.32,397.43c-1.98,0-3.91-0.81-5.3-2.2c-1.4-1.399-2.2-3.33-2.2-5.31c0-1.97,0.8-3.9,2.2-5.3
		c1.39-1.4,3.33-2.2,5.3-2.2s3.9,0.8,5.3,2.2c1.4,1.399,2.2,3.33,2.2,5.3c0,1.98-0.8,3.91-2.2,5.31
		C164.22,396.62,162.29,397.43,160.32,397.43z"/>
	<path style="fill:#A8E5C6;" d="M160.32,427.3c-1.98,0-3.91-0.8-5.3-2.2c-1.4-1.39-2.2-3.33-2.2-5.3c0-1.98,0.8-3.91,2.2-5.3
		c1.39-1.4,3.32-2.2,5.3-2.2c1.97,0,3.9,0.8,5.3,2.2c1.4,1.39,2.2,3.319,2.2,5.3c0,1.97-0.8,3.91-2.2,5.3
		C164.22,426.5,162.29,427.3,160.32,427.3z"/>
	<path style="fill:#A8E5C6;" d="M53.413,512v-75.467c0-4.143-3.358-7.5-7.5-7.5s-7.5,3.357-7.5,7.5V512H53.413z"/>
</g>
<g>
	<path style="fill:#F8D5AB;" d="M455.62,263.63h-23.38c-4.142,0-7.5,3.357-7.5,7.5s3.358,7.5,7.5,7.5h23.38
		c14.55,0,26.387,11.875,26.387,26.471c0,14.597-11.837,26.472-26.387,26.472h-67.247c-19.792,0-35.895,16.134-35.895,35.965v18.481
		c0,4.143,3.358,7.5,7.5,7.5s7.5-3.357,7.5-7.5v-18.481c0-11.56,9.373-20.965,20.895-20.965h67.247
		c22.821,0,41.387-18.604,41.387-41.472C497.007,282.233,478.44,263.63,455.62,263.63z"/>
	<path style="fill:#F8D5AB;" d="M364.188,192.176h56.731c9.072,0,16.453,7.408,16.453,16.514v15.59c0,4.143,3.358,7.5,7.5,7.5
		s7.5-3.357,7.5-7.5v-15.59c0-17.377-14.11-31.514-31.453-31.514h-56.731c-11.627,0-21.086-9.491-21.086-21.158
		c0-11.666,9.459-21.157,21.086-21.157c4.142,0,7.5-3.357,7.5-7.5c0-4.143-3.358-7.5-7.5-7.5c-19.898,0-36.086,16.22-36.086,36.157
		S344.29,192.176,364.188,192.176z"/>
	<path style="fill:#F8D5AB;" d="M417.917,303.712c4.142,0,7.5-3.357,7.5-7.5s-3.358-7.5-7.5-7.5h-52.849
		c-15.423,0-27.971-12.587-27.971-28.059s12.547-28.059,27.971-28.059h18.974c4.142,0,7.5-3.357,7.5-7.5s-3.358-7.5-7.5-7.5h-18.974
		c-23.694,0-42.971,19.316-42.971,43.059c0,23.742,19.276,43.059,42.971,43.059H417.917z"/>
</g>
<ellipse style="fill:#FFFFFF;" cx="157.23" cy="140.62" rx="32.982" ry="32.966"/>
<path style="fill:#F39600;" d="M429.03,462.546c-9.762-27.488-53.229-48.214-105.376-48.214s-95.612,20.726-105.374,48.214
	c0,0-2.058,7.823-2.058,12.399c0,12.553,9.678,22.728,21.618,22.728h171.628c11.94,0,21.618-10.176,21.618-22.728
	C431.087,470.369,429.03,462.546,429.03,462.546z"/>
<g>
	<path style="fill:#CD7E47;" d="M331.573,414.506l-11.254,11.864c-2.851,3.006-2.726,7.753,0.28,10.604
		c1.451,1.376,3.307,2.059,5.16,2.059c1.986,0,3.968-0.784,5.443-2.338l19.399-20.449
		C344.453,415.359,338.094,414.772,331.573,414.506z"/>
	<path style="fill:#CD7E47;" d="M359.526,417.766l-8.724,9.21c-2.849,3.007-2.72,7.754,0.287,10.603
		c1.45,1.374,3.305,2.055,5.156,2.055c1.988,0,3.972-0.785,5.446-2.343l13.918-14.693c0.19-0.2,0.365-0.41,0.529-0.626
		C370.86,420.318,365.308,418.908,359.526,417.766z"/>
	<path style="fill:#CD7E47;" d="M300.734,433.498c1.99,0,3.977-0.788,5.452-2.349l15.875-16.798
		c-7.542,0.061-14.901,0.545-21.99,1.431l-4.787,5.065c-2.845,3.01-2.711,7.757,0.299,10.602
		C297.034,432.819,298.885,433.498,300.734,433.498z"/>
</g>
<path style="fill:#F6B245;" d="M318.154,470.825c-7.796-21.011-42.51-36.852-84.157-36.852s-76.359,15.841-84.156,36.852
	c0,0-1.643,5.979-1.643,9.477c0,9.595,7.729,17.372,17.265,17.372h137.069c9.536,0,17.265-7.777,17.265-17.372
	C319.796,476.804,318.154,470.825,318.154,470.825z"/>
<path style="opacity:0.1;enable-background:new    ;" d="M176.504,480.302c0-3.498,1.643-9.477,1.643-9.477
	c6.893-18.577,34.836-33.103,70.002-36.222c-4.606-0.408-9.331-0.63-14.153-0.63c-41.647,0-76.359,15.841-84.156,36.852
	c0,0-1.643,5.979-1.643,9.477c0,9.595,7.729,17.372,17.265,17.372h28.307C184.234,497.674,176.504,489.897,176.504,480.302z"/>
<g>
	<path style="fill:#F39600;" d="M238.086,434.027l-12.182,12.259c-2.92,2.938-2.905,7.687,0.033,10.607
		c1.463,1.454,3.375,2.18,5.287,2.18c1.927,0,3.854-0.738,5.32-2.214l20.997-21.13C251.314,434.782,244.804,434.195,238.086,434.027
		z"/>
	<path style="fill:#F39600;" d="M265.268,437.123l-9.68,9.74c-2.92,2.938-2.905,7.688,0.033,10.607
		c1.463,1.453,3.375,2.18,5.287,2.18c1.927,0,3.854-0.738,5.32-2.213l15.587-15.685
		C276.667,439.904,271.125,438.348,265.268,437.123z"/>
	<path style="fill:#F39600;" d="M201.719,458.302c1.927,0,3.854-0.738,5.32-2.214l21.889-22.025
		c-8.265,0.257-16.214,1.137-23.688,2.556l-8.84,8.896c-2.92,2.939-2.905,7.688,0.033,10.608
		C197.896,457.575,199.807,458.302,201.719,458.302z"/>
</g>
<path style="fill:#9798BC;" d="M455.3,506.85c0,2.832-2.319,5.15-5.154,5.15H119.52c-2.834,0-5.153-2.318-5.153-5.15v-13.923
	c0-2.833,2.319-5.151,5.153-5.151h330.626c2.835,0,5.154,2.318,5.154,5.151V506.85z"/>
<path style="opacity:0.1;enable-background:new    ;" d="M137.034,506.85v-13.923c0-2.833,2.319-5.151,5.153-5.151H119.52
	c-2.834,0-5.153,2.318-5.153,5.151v13.923c0,2.832,2.319,5.15,5.153,5.15h22.668C139.353,512,137.034,509.682,137.034,506.85z"/>
<path style="opacity:0.1;enable-background:new    ;" d="M139.907,140.62c0-15.505,10.713-28.505,25.143-32.021
	c-2.508-0.612-5.126-0.944-7.824-0.944c-18.215,0-32.981,14.76-32.981,32.966s14.767,32.966,32.981,32.966
	c2.698,0,5.315-0.332,7.824-0.945C150.62,169.124,139.907,156.125,139.907,140.62z"/>
<g>
</g>
<g>
</g>
<g>
</g>
<g>
</g>
<g>
</g>
<g>
</g>
<g>
</g>
<g>
</g>
<g>
</g>
<g>
</g>
<g>
</g>
<g>
</g>
<g>
</g>
<g>
</g>
<g>
</g>
</svg>
