<svg width="513" height="512" viewBox="0 0 513 512" fill="none" xmlns="http://www.w3.org/2000/svg">
<g clip-path="url(#clip0_681_7315)">
<path d="M484.547 512.001H28.4528C25.6078 512.001 23.3018 509.695 23.3018 506.85V50.7565C23.3018 47.9115 25.6078 45.6055 28.4528 45.6055H484.547C487.392 45.6055 489.698 47.9115 489.698 50.7565V506.85C489.698 509.695 487.392 512.001 484.547 512.001Z" fill="#CFCBE5"/>
<path d="M80.3388 506.849V486.186H56.6158C52.4728 486.186 49.1158 482.828 49.1158 478.686V78.9185C49.1158 74.7765 52.4728 71.4185 56.6158 71.4185H80.3388V50.7565C80.3388 47.9115 82.6448 45.6055 85.4898 45.6055H28.4528C25.6078 45.6055 23.3018 47.9115 23.3018 50.7565V506.85C23.3018 509.695 25.6078 512.001 28.4528 512.001H85.4898C82.6448 512 80.3388 509.694 80.3388 506.849Z" fill="#B5AED7"/>
<path d="M418.938 162.622C393.433 162.622 372.684 141.872 372.684 116.368C372.684 100.982 380.242 87.3349 391.833 78.9219H56.6157V478.689H456.384V143.473C447.97 155.064 434.324 162.622 418.938 162.622Z" fill="#3A2F74"/>
<path d="M130.744 153.047H163.784V404.559H130.744V153.047Z" fill="#312865"/>
<path d="M197.432 347.503C194.726 347.503 192.525 345.302 192.525 342.596V314.927C189.074 313.467 185.28 312.66 181.297 312.66C165.366 312.66 152.452 325.574 152.452 341.505C152.452 357.436 165.366 370.35 181.297 370.35C195.171 370.35 206.753 360.554 209.513 347.503H197.432Z" fill="#FF7D4A"/>
<path d="M177.176 341.506C177.176 330.456 183.4 320.873 192.524 316.029V314.938C189.072 313.477 185.281 312.66 181.296 312.66C165.365 312.66 152.451 325.574 152.451 341.505C152.451 357.436 165.365 370.35 181.296 370.35C185.721 370.35 189.911 369.351 193.658 367.57C183.915 362.942 177.176 353.012 177.176 341.506Z" fill="#FF6232"/>
<path d="M56.6157 78.918H123.244V145.546H56.6157V78.918Z" fill="white"/>
<path d="M123.244 78.918H189.872V145.546H123.244V78.918Z" fill="#FFBA52"/>
<path d="M189.872 78.918H256.5V145.546H189.872V78.918Z" fill="white"/>
<path d="M256.5 78.918H323.128V145.546H256.5V78.918Z" fill="#FFBA52"/>
<path d="M372.684 116.364C372.684 101.916 379.346 88.998 389.756 80.509V78.918H323.128V145.546H383.083C376.587 137.579 372.684 127.42 372.684 116.364Z" fill="white"/>
<path d="M56.6157 145.547H123.244V212.175H56.6157V145.547Z" fill="#1DB0B8"/>
<path d="M418.938 162.62C407.881 162.62 397.722 158.716 389.756 152.22V212.175H456.384V145.547H454.793C446.304 155.958 433.386 162.62 418.938 162.62Z" fill="white"/>
<path d="M56.6157 212.176H123.244V278.804H56.6157V212.176Z" fill="white"/>
<path d="M389.756 212.176H456.384V278.804H389.756V212.176Z" fill="#1DB0B8"/>
<path d="M56.6157 278.805H123.244V345.433H56.6157V278.805Z" fill="#1DB0B8"/>
<path d="M389.756 278.805H456.384V345.433H389.756V278.805Z" fill="white"/>
<path d="M56.6157 345.43H123.244V412.058H56.6157V345.43Z" fill="white"/>
<path d="M389.756 345.43H456.384V412.058H389.756V345.43Z" fill="#1DB0B8"/>
<path d="M56.6157 412.059H123.244V478.687H56.6157V412.059Z" fill="#FF4A58"/>
<path d="M123.244 412.059H189.872V478.687H123.244V412.059Z" fill="white"/>
<path d="M189.872 412.059H256.5V478.687H189.872V412.059Z" fill="#FFBA52"/>
<path d="M256.5 412.059H323.128V478.687H256.5V412.059Z" fill="white"/>
<path d="M323.128 412.059H389.756V478.687H323.128V412.059Z" fill="#FFBA52"/>
<path d="M389.756 412.059H456.384V478.687H389.756V412.059Z" fill="white"/>
<path d="M447.068 153.046H448.884V204.674H397.256V157.206C389.123 152.871 382.431 146.179 378.096 138.046H330.628V86.418H382.256V88.235C388.591 79.994 397.631 73.943 408.04 71.418H56.6157C52.4727 71.418 49.1157 74.776 49.1157 78.918V478.686C49.1157 482.828 52.4727 486.186 56.6157 486.186H456.384C460.527 486.186 463.884 482.828 463.884 478.686V127.262C461.36 137.671 455.309 146.712 447.068 153.046ZM264 86.418H315.628V138.046H264V86.418ZM197.372 86.418H249V138.046H197.372V86.418ZM130.744 86.418H182.372V138.046H130.744V86.418ZM115.744 471.186H64.1157V419.558H115.744V471.186ZM115.744 404.558H64.1157V352.93H115.744V404.558ZM115.744 337.93H64.1157V286.302H115.744V337.93ZM115.744 271.302H64.1157V219.674H115.744V271.302ZM115.744 204.674H64.1157V153.046H115.744V204.674ZM115.744 138.046H64.1157V86.418H115.744V138.046ZM182.372 471.186H130.744V419.558H182.372V471.186ZM249 471.186H197.372V419.558H249V471.186ZM315.628 471.186H264V419.558H315.628V471.186ZM382.256 471.186H330.628V419.558H382.256V471.186ZM382.256 404.558H130.744V153.046H382.256V404.558ZM448.884 471.186H397.256V419.558H448.884V471.186ZM448.884 404.558H397.256V352.93H448.884V404.558ZM448.884 337.93H397.256V286.302H448.884V337.93ZM448.884 271.302H397.256V219.674H448.884V271.302Z" fill="#4D3F94"/>
<path d="M265.223 236.272H155.63C153.923 236.272 152.539 234.888 152.539 233.181V177.931C152.539 176.224 153.923 174.84 155.63 174.84H265.223C266.93 174.84 268.314 176.224 268.314 177.931V233.181C268.314 234.888 266.93 236.272 265.223 236.272Z" fill="#1DB0B8"/>
<path d="M187.478 233.185V177.935C187.478 176.228 188.862 174.844 190.569 174.844H155.63C153.923 174.844 152.539 176.228 152.539 177.935V233.185C152.539 234.892 153.923 236.276 155.63 236.276H190.568C188.862 236.275 187.478 234.891 187.478 233.185Z" fill="#0B8187"/>
<path d="M357.37 321.332H267.314V342.597C267.314 345.303 265.113 347.504 262.408 347.504H244.687V379.673C244.687 381.38 246.071 382.764 247.778 382.764H357.37C359.077 382.764 360.461 381.38 360.461 379.673V324.423C360.46 322.715 359.076 321.332 357.37 321.332Z" fill="#FFBA52"/>
<path d="M288.042 379.673V324.423C288.042 322.716 289.426 321.332 291.133 321.332H267.314V342.597C267.314 345.303 265.113 347.504 262.408 347.504H244.687V379.673C244.687 381.38 246.071 382.764 247.778 382.764H291.134C289.426 382.763 288.042 381.38 288.042 379.673Z" fill="#F4992B"/>
<path d="M418.938 163.619C445.036 163.619 466.193 142.463 466.193 116.364C466.193 90.2662 445.036 69.1094 418.938 69.1094C392.839 69.1094 371.683 90.2662 371.683 116.364C371.683 142.463 392.839 163.619 418.938 163.619Z" fill="#FF4A58"/>
<path d="M406.144 116.364C406.144 96.3484 418.595 79.2524 436.168 72.3644C430.828 70.2714 425.02 69.1094 418.938 69.1094C392.84 69.1094 371.683 90.2664 371.683 116.364C371.683 142.462 392.84 163.619 418.938 163.619C425.02 163.619 430.828 162.457 436.168 160.364C418.595 153.477 406.144 136.38 406.144 116.364Z" fill="#E63340"/>
<path d="M418.938 134.085C428.724 134.085 436.658 126.151 436.658 116.365C436.658 106.578 428.724 98.6445 418.938 98.6445C409.151 98.6445 401.218 106.578 401.218 116.365C401.218 126.151 409.151 134.085 418.938 134.085Z" fill="white"/>
<path d="M418.938 141.586C405.032 141.586 393.718 130.272 393.718 116.366C393.718 102.459 405.031 91.1445 418.938 91.1445C432.845 91.1445 444.159 102.459 444.159 116.366C444.158 130.272 432.845 141.586 418.938 141.586ZM418.938 106.145C413.303 106.145 408.718 110.73 408.718 116.366C408.718 122.001 413.303 126.586 418.938 126.586C424.574 126.586 429.159 122.001 429.159 116.366C429.158 110.73 424.573 106.145 418.938 106.145Z" fill="#CE2834"/>
<path d="M262.407 348.504H197.432C194.17 348.504 191.525 345.859 191.525 342.597V277.622C191.525 274.36 194.17 271.715 197.432 271.715H262.407C265.669 271.715 268.314 274.36 268.314 277.622V342.597C268.314 345.859 265.669 348.504 262.407 348.504Z" fill="white"/>
<path d="M217.353 342.597V277.622C217.353 274.36 219.998 271.715 223.26 271.715H197.432C194.17 271.715 191.525 274.36 191.525 277.622V342.597C191.525 345.859 194.17 348.504 197.432 348.504H223.26C219.998 348.504 217.353 345.859 217.353 342.597Z" fill="#E2F3FF"/>
<path d="M212.789 334.738C216.931 334.738 220.289 331.38 220.289 327.238C220.289 323.096 216.931 319.738 212.789 319.738C208.647 319.738 205.289 323.096 205.289 327.238C205.289 331.38 208.647 334.738 212.789 334.738Z" fill="#312865"/>
<path d="M229.919 317.609C234.061 317.609 237.419 314.252 237.419 310.109C237.419 305.967 234.061 302.609 229.919 302.609C225.777 302.609 222.419 305.967 222.419 310.109C222.419 314.252 225.777 317.609 229.919 317.609Z" fill="#312865"/>
<path d="M247.049 300.48C251.191 300.48 254.549 297.123 254.549 292.98C254.549 288.838 251.191 285.48 247.049 285.48C242.907 285.48 239.549 288.838 239.549 292.98C239.549 297.123 242.907 300.48 247.049 300.48Z" fill="#312865"/>
<path d="M329.121 274.018L300.267 245.164C299.06 243.957 299.06 242 300.267 240.793L316.78 224.28C317.987 223.073 319.944 223.073 321.151 224.28L350.005 253.134C351.212 254.341 351.212 256.298 350.005 257.505L333.492 274.018C332.285 275.225 330.328 275.225 329.121 274.018Z" fill="#CFCBE5"/>
<path d="M318.405 245.239C317.198 244.032 317.198 242.075 318.405 240.868L328.072 231.201L321.151 224.28C319.944 223.073 317.987 223.073 316.78 224.28L300.267 240.793C299.06 242 299.06 243.957 300.267 245.164L329.121 274.018C330.328 275.225 332.285 275.225 333.492 274.018L340.338 267.172L318.405 245.239Z" fill="#B5AED7"/>
<path d="M255.47 491.913C271.401 491.913 284.315 478.998 284.315 463.068C284.315 447.137 271.401 434.223 255.47 434.223C239.539 434.223 226.625 447.137 226.625 463.068C226.625 478.998 239.539 491.913 255.47 491.913Z" fill="#1DB0B8"/>
<path d="M251.349 463.068C251.349 451.562 258.087 441.632 267.832 437.003C264.085 435.223 259.894 434.223 255.47 434.223C239.539 434.223 226.625 447.137 226.625 463.068C226.625 478.999 239.539 491.913 255.47 491.913C259.895 491.913 264.085 490.914 267.832 489.133C258.088 484.504 251.349 474.574 251.349 463.068Z" fill="#0B8187"/>
<path d="M71.0667 307.51C86.9973 307.51 99.9117 294.596 99.9117 278.665C99.9117 262.735 86.9973 249.82 71.0667 249.82C55.136 249.82 42.2217 262.735 42.2217 278.665C42.2217 294.596 55.136 307.51 71.0667 307.51Z" fill="#8270DF"/>
<path d="M66.9467 278.665C66.9467 267.159 73.6847 257.229 83.4297 252.6C79.6827 250.82 75.4917 249.82 71.0677 249.82C55.1367 249.82 42.2227 262.734 42.2227 278.665C42.2227 294.596 55.1367 307.51 71.0677 307.51C75.4927 307.51 79.6827 306.511 83.4297 304.73C73.6847 300.101 66.9467 290.171 66.9467 278.665Z" fill="#54469C"/>
<path d="M122.576 53.3434C118.638 53.3434 114.903 52.4634 111.55 50.8994L91.3628 98.0634H153.791L133.604 50.8984C130.25 52.4634 126.515 53.3434 122.576 53.3434Z" fill="#FF4A58"/>
<path d="M122.576 53.3424C118.638 53.3424 114.903 52.4624 111.55 50.8984L91.3628 98.0624H111.967L131.834 51.6454C128.953 52.7384 125.834 53.3424 122.576 53.3424Z" fill="#E63340"/>
<path d="M122.576 54.342C137.582 54.342 149.747 42.1771 149.747 27.171C149.747 12.1649 137.582 0 122.576 0C107.57 0 95.4048 12.1649 95.4048 27.171C95.4048 42.1771 107.57 54.342 122.576 54.342Z" fill="#E63340"/>
<path d="M121.546 27.172C121.546 16.904 127.243 7.969 135.647 3.348C131.769 1.216 127.315 0 122.576 0C107.57 0 95.4048 12.165 95.4048 27.172C95.4048 42.178 107.57 54.343 122.576 54.343C127.315 54.343 131.768 53.127 135.647 50.995C127.243 46.374 121.546 37.439 121.546 27.172Z" fill="#CE2834"/>
<path d="M166.874 112.062H78.2778C74.1348 112.062 70.7778 108.705 70.7778 104.562C70.7778 100.42 74.1348 97.0625 78.2778 97.0625H166.874C171.017 97.0625 174.374 100.42 174.374 104.562C174.374 108.705 171.017 112.062 166.874 112.062Z" fill="#CE2834"/>
</g>
<defs>
<clipPath id="clip0_681_7315">
<rect width="512" height="512" fill="white" transform="translate(0.5)"/>
</clipPath>
</defs>
</svg>
