<svg id="Capa_1" enable-background="new 0 0 512.384 512.384" height="512" viewBox="0 0 512.384 512.384" width="512" xmlns="http://www.w3.org/2000/svg"><g><g><path d="m452.324 157.884c-1.34-3.531-2.189-7.23-2.486-10.959-.003-.039.019-.065.016-.104-.268-3.492-.076-7.02.585-10.492l4.407-23.135c2.731-14.335 11.207-50.222 11.207-64.595-.001-27.031-22.073-48.907-49.177-48.591-27.105-.316-49.176 21.559-49.177 48.591-.001 14.373 8.476 50.26 11.207 64.595l4.407 23.135c.66 3.464.849 7.009.584 10.492 0 .005.008.011.008.015-.289 3.773-1.121 7.477-2.477 11.048l-12.593 33.241-.043.055-16.03 42.239c-25.817 68.028-25.947 143.135-.365 211.252l23.107 61.527c1.31 3.488 4.645 5.798 8.371 5.798h66.006c3.726 0 7.061-2.31 8.371-5.798l23.107-61.527c25.582-68.117 25.452-143.224-.365-211.252l-16.029-42.237-.094-.095z" fill="#f5f0f3"/><path d="m481.358 444.67-23.105 61.527c-1.318 3.492-4.646 5.799-8.374 5.799h-21.323c3.718 0 7.056-2.307 8.364-5.799l23.105-61.527c25.587-68.119 25.453-143.223-.361-211.25l-28.667-75.536c-2.606-6.871-3.265-14.339-1.885-21.56l4.409-23.136c2.73-14.328 11.207-50.217 11.207-64.586 0-23.393-16.512-42.903-38.515-47.549 3.43-.731 7.005-1.092 10.661-1.051 27.102-.309 49.176 21.56 49.176 48.599 0 14.37-8.478 50.258-11.207 64.586l-4.409 23.136c-.659 3.473-.844 7.002-.576 10.496.013.169-.289.405-.274.574.322 3.597 1.064 7.018 2.356 10.424l12.367 32.744.656.618.046.12 15.977 42.12c25.825 68.028 25.949 143.132.372 211.251z" fill="#e4dfe3"/><path d="m464.964 191.18h-96.175l12.637-33.296c1.357-3.568 2.18-7.291 2.468-11.064h65.964c.288 3.774 1.111 7.496 2.468 11.064z" fill="#ff8b99"/><path d="m464.959 191.177h-21.323l-12.639-33.292c-1.349-3.564-2.184-7.293-2.462-11.063h21.323c.278 3.77 1.112 7.499 2.462 11.063z" fill="#ff7383"/></g><g><path d="m319.024 157.884c-1.34-3.531-2.189-7.23-2.486-10.959-.003-.039.019-.065.016-.104-.268-3.492-.076-7.02.585-10.492l4.407-23.135c2.731-14.335 11.207-50.222 11.207-64.595-.001-27.031-22.073-48.907-49.177-48.591-27.105-.316-49.176 21.559-49.177 48.591-.001 14.373 8.476 50.26 11.207 64.595l4.407 23.135c.66 3.464.849 7.009.584 10.492 0 .005.008.011.008.015-.289 3.773-1.121 7.477-2.477 11.048l-12.593 33.241-.043.055-16.03 42.239c-25.817 68.028-25.947 143.135-.365 211.252l23.107 61.527c1.31 3.488 4.645 5.798 8.371 5.798h66.006c3.726 0 7.061-2.31 8.371-5.798l23.107-61.527c25.582-68.117 25.452-143.224-.365-211.252l-16.029-42.237-.094-.095z" fill="#f5f0f3"/><path d="m348.058 444.67-23.105 61.527c-1.318 3.492-4.646 5.799-8.374 5.799h-21.323c3.718 0 7.056-2.307 8.364-5.799l23.105-61.527c25.587-68.119 25.453-143.223-.361-211.25l-28.667-75.536c-2.606-6.871-3.265-14.339-1.885-21.56l4.409-23.136c2.73-14.328 11.207-50.217 11.207-64.586 0-23.393-16.512-42.903-38.515-47.549 3.43-.731 7.005-1.092 10.661-1.051 27.102-.309 49.176 21.56 49.176 48.599 0 14.37-8.478 50.258-11.207 64.586l-4.409 23.136c-.659 3.473-.844 7.002-.576 10.496.013.169-.289.405-.274.574.322 3.597 1.064 7.018 2.356 10.424l12.367 32.744.656.618.046.12 15.977 42.12c25.826 68.028 25.949 143.132.372 211.251z" fill="#e4dfe3"/><path d="m331.664 191.18h-96.175l12.637-33.296c1.357-3.568 2.18-7.291 2.468-11.064h65.964c.288 3.774 1.111 7.496 2.468 11.064z" fill="#ff8b99"/><path d="m331.659 191.177h-21.323l-12.639-33.292c-1.349-3.564-2.184-7.293-2.462-11.063h21.323c.278 3.77 1.112 7.499 2.462 11.063z" fill="#ff7383"/></g><g><path d="m320.031 358.336c0 85.078-68.969 154.048-154.048 154.048-20.641 0-40.333-4.059-58.322-11.423-56.161-22.99-95.725-78.187-95.725-142.624 0-85.078 68.97-154.048 154.048-154.048 12.856 0 25.344 1.575 37.282 4.542 67.065 16.669 116.765 77.283 116.765 149.505z" fill="#806d7a"/><path d="m203.303 208.84c.035.015.071.029.106.044 56.121 23.011 95.66 78.19 95.66 142.598 0 85.081-68.964 154.055-154.045 154.055-12.821 0-25.268-1.57-37.168-4.52-.051-.013-.102-.025-.153-.038 17.985 7.352 37.657 11.406 58.28 11.406 85.081 0 154.045-68.974 154.045-154.045 0-72.206-49.678-132.82-116.725-149.5z" fill="#6c5e69"/><g fill="#f5f0f3"><g><path d="m216.744 294.126c-6.875 6.875-18.021 6.875-24.896 0-.857-.857-1.607-1.78-2.251-2.754-4.517-6.834-3.767-16.125 2.251-22.142 3.289-3.289 7.557-5.005 11.866-5.147 4.697-.154 9.445 1.561 13.03 5.147 6.875 6.875 6.875 18.021 0 24.896z"/><path d="m261.512 338.894c-6.875 6.875-18.021 6.875-24.896 0-.862-.862-1.615-1.79-2.261-2.769-4.506-6.832-3.753-16.114 2.261-22.127 3.264-3.264 7.491-4.978 11.767-5.143 4.73-.182 9.519 1.532 13.13 5.143 6.874 6.875 6.874 18.021-.001 24.896z"/></g><path d="m202.458 353.18c-6.875 6.875-18.021 6.875-24.896 0-.859-.859-1.61-1.784-2.255-2.76-4.513-6.833-3.762-16.12 2.255-22.136 3.289-3.289 7.555-5.004 11.863-5.146 4.698-.155 9.446 1.56 13.033 5.146 6.875 6.875 6.875 18.021 0 24.896z"/></g><g fill="#e4dfe3"><g><path d="m216.745 269.227c-3.577-3.577-8.311-5.293-12.995-5.144.031.047.062.094.093.141 4.413 6.815 3.641 16.033-2.335 22.019-3.3 3.301-7.579 5.011-11.897 5.149.642.969 1.383 1.887 2.233 2.737 6.878 6.868 18.024 6.868 24.902 0 6.877-6.878 6.877-18.025-.001-24.902z"/><path d="m261.509 314c-3.577-3.587-8.323-5.298-13.007-5.15.019.028.037.056.055.084 4.474 6.83 3.718 16.079-2.285 22.072-3.291 3.291-7.577 5.011-11.896 5.149.632.969 1.391 1.887 2.241 2.736 6.878 6.878 18.024 6.878 24.892 0 6.878-6.876 6.878-18.023 0-24.891z"/></g><path d="m202.456 328.279c-3.577-3.577-8.312-5.291-12.996-5.143.015.022.029.044.044.067 4.477 6.822 3.723 16.084-2.285 22.092-3.259 3.259-7.494 4.98-11.77 5.147-.042.002-.083.003-.125.004.632.969 1.39 1.885 2.24 2.734 6.868 6.878 18.014 6.878 24.892 0 6.878-6.877 6.878-18.023 0-24.901z"/></g></g></g></svg>