<svg height="512pt" viewBox="0 -15 512 512" width="512pt" xmlns="http://www.w3.org/2000/svg"><path d="m25.75 106.402344c-4.277344 0-7.742188-3.464844-7.742188-7.742188v-12.816406c0-15.652344 12.734376-28.386719 28.386719-28.386719h34.808594c4.277344 0 7.742187 3.46875 7.742187 7.742188 0 4.277343-3.464843 7.742187-7.742187 7.742187h-34.808594c-7.113281 0-12.902343 5.789063-12.902343 12.902344v12.816406c0 4.277344-3.464844 7.742188-7.742188 7.742188zm0 0" fill="#838383"/><path d="m486.25 106.402344c-4.277344 0-7.742188-3.464844-7.742188-7.742188v-12.816406c0-7.113281-5.789062-12.902344-12.902343-12.902344h-34.808594c-4.277344 0-7.742187-3.464844-7.742187-7.742187 0-4.273438 3.464843-7.742188 7.742187-7.742188h34.808594c15.652343 0 28.386719 12.734375 28.386719 28.386719v12.816406c0 4.277344-3.464844 7.742188-7.742188 7.742188zm0 0" fill="#838383"/><path d="m163.328125 481.628906h-35.671875c-7.457031 0-13.5-6.042968-13.5-13.5v-38.113281h62.671875v38.113281c0 7.457032-6.042969 13.5-13.5 13.5zm0 0" fill="#5a5a5a"/><path d="m156.183594 430.015625v37.675781c0 7.695313-6.238282 13.9375-13.933594 13.9375h20.644531c7.695313 0 13.933594-6.242187 13.933594-13.9375v-37.675781zm0 0" fill="#444"/><path d="m384.34375 481.628906h-35.671875c-7.457031 0-13.5-6.042968-13.5-13.5v-38.113281h62.671875v38.113281c0 7.457032-6.042969 13.5-13.5 13.5zm0 0" fill="#5a5a5a"/><path d="m377.199219 430.015625v37.675781c0 7.695313-6.238281 13.9375-13.9375 13.9375h20.644531c7.699219 0 13.9375-6.242187 13.9375-13.9375v-37.675781zm0 0" fill="#444"/><path d="m413.640625 441.957031h-315.28125c-11.402344 0-20.644531-9.242187-20.644531-20.644531v-166.703125l11.230468-13.238281v-138.28125l-11.230468-10.621094v-71.824219c0-11.402343 9.242187-20.644531 20.644531-20.644531h315.28125c11.402344 0 20.644531 9.242188 20.644531 20.644531v71.824219l-9.257812 13.933594v135.378906l9.257812 12.828125v166.703125c0 11.402344-9.242187 20.644531-20.644531 20.644531zm0 0" fill="#7ca1b1"/><path d="m413.640625 0h-32.894531v378.402344c0 11.402344-9.242188 20.644531-20.644532 20.644531h-282.386718v22.261719c0 11.402344 9.242187 20.644531 20.644531 20.644531h315.28125c11.402344 0 20.644531-9.242187 20.644531-20.644531v-400.664063c0-11.402343-9.242187-20.644531-20.644531-20.644531zm0 0" fill="#678d98"/><path d="m98.359375 291.691406h315.28125c11.402344 0 20.644531-9.242187 20.644531-20.644531v-16.4375l-14.5625-12.828125v-135.378906l14.5625-13.933594v-40.257812h-356.570312v40.257812l11.230468 11.4375v137.464844l-11.230468 13.238281v16.4375c0 11.402344 9.242187 20.644531 20.644531 20.644531zm0 0" fill="#5a5a5a"/><path d="m434.285156 271.046875v-218.835937h-53.539062v239.480468h32.894531c11.402344 0 20.644531-9.242187 20.644531-20.644531zm0 0" fill="#444"/><path d="m77.714844 92.46875h356.570312v162.140625h-356.570312zm0 0" fill="#d5f3f7"/><path d="m380.746094 92.46875h53.539062v162.140625h-53.539062zm0 0" fill="#a7e8f1"/><path d="m43.480469 192.160156h-35.460938c-4.429687 0-8.019531-3.589844-8.019531-8.019531v-83.050781c0-4.429688 3.589844-8.019532 8.019531-8.019532h35.460938c4.429687 0 8.019531 3.589844 8.019531 8.019532v83.050781c0 4.429687-3.589844 8.019531-8.019531 8.019531zm0 0" fill="#9c9c9c"/><path d="m43.222656 93.070312h-13.085937v75.328126c0 4.574218-3.707031 8.28125-8.28125 8.28125h-21.855469v7.203124c0 4.570313 3.707031 8.277344 8.277344 8.277344h34.945312c4.570313 0 8.277344-3.707031 8.277344-8.277344v-82.535156c0-4.570312-3.707031-8.277344-8.277344-8.277344zm0 0" fill="#838383"/><path d="m503.980469 192.160156h-35.460938c-4.429687 0-8.019531-3.589844-8.019531-8.019531v-83.050781c0-4.429688 3.589844-8.019532 8.019531-8.019532h35.460938c4.429687 0 8.019531 3.589844 8.019531 8.019532v83.050781c0 4.429687-3.589844 8.019531-8.019531 8.019531zm0 0" fill="#9c9c9c"/><path d="m503.71875 93.070312h-13.085938v75.328126c0 4.574218-3.707031 8.28125-8.277343 8.28125h-21.855469v7.203124c0 4.570313 3.707031 8.277344 8.277344 8.277344h34.941406c4.574219 0 8.28125-3.707031 8.28125-8.277344v-82.535156c0-4.570312-3.707031-8.277344-8.28125-8.277344zm0 0" fill="#838383"/><path d="m183.644531 373.242188h-48.355469c-12.148437 0-22-9.851563-22-22v-13.257813c0-2.761719 2.238282-5 5-5h48.355469c12.152344 0 22 9.847656 22 22v13.257813c0 2.761718-2.238281 5-5 5zm0 0" fill="#ffd500"/><path d="m328.355469 373.242188h48.355469c12.148437 0 22-9.851563 22-22v-13.257813c0-2.761719-2.238282-5-5-5h-48.355469c-12.152344 0-22 9.847656-22 22v13.257813c0 2.761718 2.238281 5 5 5zm0 0" fill="#ffd500"/><path d="m166.652344 333c2.320312 3.558594 3.667968 7.804688 3.667968 12.371094v12.386718c0 2.847657-2.308593 5.160157-5.160156 5.160157h-47.484375c-.238281 0-.480469-.011719-.71875-.019531 4.050781 6.222656 11.0625 10.34375 19.042969 10.34375h47.484375c2.851563 0 5.160156-2.3125 5.160156-5.164063v-12.386719c0-12.300781-9.78125-22.308594-21.992187-22.691406zm0 0" fill="#fbc700"/><path d="m393.546875 332.984375h-13.160156v7.226563c0 12.539062-10.167969 22.707031-22.710938 22.707031h-34.320312v5.160156c0 2.851563 2.308593 5.164063 5.160156 5.164063h47.484375c12.542969 0 22.710938-10.167969 22.710938-22.710938v-12.386719c0-2.851562-2.3125-5.160156-5.164063-5.160156zm0 0" fill="#fbc700"/><path d="m290.242188 414.875h-68.484376c-1.164062 0-2.109374-.941406-2.109374-2.105469v-20.5625c0-1.164062.945312-2.105469 2.109374-2.105469h68.484376c1.164062 0 2.109374.941407 2.109374 2.105469v20.5625c0 1.164063-.945312 2.105469-2.109374 2.105469zm0 0" fill="#e7e7e7"/><path d="m290.175781 390.101562h-15.140625c1.199219 0 2.175782.972657 2.175782 2.175782v20.421875c0 1.203125-.976563 2.175781-2.175782 2.175781h15.140625c1.199219 0 2.175781-.972656 2.175781-2.175781v-20.421875c0-1.203125-.976562-2.175782-2.175781-2.175782zm0 0" fill="#cecece"/><g fill="#9c9c9c"><path d="m198.5625 254.609375 79.910156-66.800781c3.390625-2.835938 3.84375-7.878906 1.007813-11.269532-2.832031-3.390624-7.878907-3.84375-11.269531-1.007812l-94.59375 79.078125zm0 0"/><path d="m254.222656 254.609375 79.910156-66.800781c3.386719-2.835938 3.839844-7.878906 1.003907-11.269532-2.832031-3.394531-7.878907-3.84375-11.269531-1.007812l-94.59375 79.078125zm0 0"/></g></svg>