<svg height="512" viewBox="0 0 512 512" width="512" xmlns="http://www.w3.org/2000/svg"><path d="m504.01 173.41v150.93c0 6.59-2.91 19.93-19.93 19.93h-448.16c-18.18 0-27.93-12.01-27.93-23.93 0-.6 0-1.2.01-1.8.01-6.25.12-12.43.33-17.98.18-5.07.43-9.62.76-13.24 2.36-25.65 8.45-77.95 18.07-107.45.12-.38.25-.76.38-1.14.18-.55.37-1.09.56-1.64 2.63-7.49 5.52-13.23 8.65-16.28 4.37-4.24 13-9.25 26.4-9.25h413.78c25.25 0 27.08 21.85 27.08 21.85z" fill="#37bfbf"/><g fill="#584360"><path d="m33.33 246.03c-2.96 25.36-3.83 38.89-24.24 41.4v-.11c2.36-25.65 8.45-77.95 18.07-107.45.12-.38.25-.76.38-1.14.18-.55.37-1.09.56-1.64 19.4 0 10.08 27.48 5.23 68.94z"/><path d="m62.048 286.855v-103.122a8 8 0 0 1 8-8h63.941a8 8 0 0 1 8 8v42.342c0 50.554-49.425 64.858-70.551 68.663a7.988 7.988 0 0 1 -9.39-7.883z"/><path d="m480.89 185.58v67a8 8 0 0 1 -8 8h-298.84a8.006 8.006 0 0 1 -8.01-8v-67a8.006 8.006 0 0 1 8.01-8h298.84a8 8 0 0 1 8 8z"/><circle cx="135.975" cy="333.597" r="26.844"/><circle cx="376.025" cy="333.597" r="26.844"/></g><circle cx="135.975" cy="333.597" fill="#e5e5e5" r="11.289"/><circle cx="376.025" cy="333.597" fill="#e5e5e5" r="11.289"/><path d="m34.68 302.01c-.89 8.79-6.12 15.93-26.68 16.53.01-6.25.12-12.43.33-17.98a124.093 124.093 0 0 1 20.29-4.48 5.417 5.417 0 0 1 6.06 5.93z" fill="#e5e5e5"/><path d="m504.006 275.252a0 0 0 0 1 0 0v39.675a0 0 0 0 1 0 0h-10.743a11.169 11.169 0 0 1 -11.169-11.169v-6.594a21.912 21.912 0 0 1 21.912-21.912z" fill="#e5e5e5"/><path d="m240.76 177.58h8v83h-8z" fill="#473049"/><path d="m319.47 177.58h8v83h-8z" fill="#473049"/><path d="m398.18 177.58h8v83h-8z" fill="#473049"/></svg>