<svg height="300" viewBox="0 0 512 512" width="300" xmlns="http://www.w3.org/2000/svg" version="1.1" xmlns:xlink="http://www.w3.org/1999/xlink" xmlns:svgjs="http://svgjs.dev/svgjs"><g width="100%" height="100%" transform="matrix(1,0,0,1,0,0)"><path d="m495.351562 324.683594h-478.703124c-9.195313 0-16.648438-7.457032-16.648438-16.652344v-291.382812c0-9.195313 7.453125-16.648438 16.648438-16.648438h478.703124c9.195313 0 16.648438 7.453125 16.648438 16.648438v291.382812c0 9.195312-7.453125 16.652344-16.648438 16.652344zm0 0" fill="#ffc0c0" fill-opacity="1" data-original-color="#64aef7ff" stroke="none" stroke-opacity="1"/><path d="m0 16.648438v291.382812c0 9.195312 7.453125 16.652344 16.648438 16.652344h79.710937l-39.242187-133.222656v-17.007813c25.601562-5.011719 47.636718-22.964844 57.246093-47.792969l49.03125-126.660156h-146.746093c-9.195313 0-16.648438 7.453125-16.648438 16.648438zm0 0" fill="#ff8b9f" fill-opacity="1" data-original-color="#0a86e3ff" stroke="none" stroke-opacity="1"/><path d="m512 16.648438v291.382812c0 9.195312-7.453125 16.652344-16.648438 16.652344h-79.710937l39.242187-133.222656v-17.007813c-25.601562-5.011719-47.636718-22.96875-57.246093-47.792969l-49.03125-126.660156h146.746093c9.195313 0 16.648438 7.453125 16.648438 16.648438zm0 0" fill="#ff8b9f" fill-opacity="1" data-original-color="#0a86e3ff" stroke="none" stroke-opacity="1"/><path d="m512 161.300781v-144.652343c0-9.195313-7.453125-16.648438-16.648438-16.648438h-131.125l46.996094 121.402344c9.308594 24.046875 32.441406 39.898437 58.226563 39.898437zm0 0" fill="#f75050" fill-opacity="1" data-original-color="#ef3535ff" stroke="none" stroke-opacity="1"/><path d="m485.984375 0v106.144531c0 16.09375-13.046875 29.140625-29.136719 29.140625h-7.167968c-14.097657 0-27.398438-4.75-38.085938-12.972656 9.539062 23.53125 32.398438 38.988281 57.855469 38.988281h42.550781v-144.652343c0-9.195313-7.453125-16.648438-16.648438-16.648438zm0 0" fill="#b51e1e" fill-opacity="1" data-original-color="#d33131ff" stroke="none" stroke-opacity="1"/><path d="m469.449219 161.300781h42.550781v32.261719h-42.550781zm0 0" fill="#f9d156" fill-opacity="1" data-original-color="#ffd432ff" stroke="none" stroke-opacity="1"/><path d="m499.511719 161.300781v9.367188c0 5.746093-4.660157 10.40625-10.40625 10.40625h-19.65625v12.488281h42.550781v-32.261719zm0 0" fill="#ce9832" fill-opacity="1" data-original-color="#f4ac03ff" stroke="none" stroke-opacity="1"/><path d="m469.449219 193.5625-38.621094 131.121094h64.523437c9.195313 0 16.648438-7.457032 16.648438-16.652344v-114.46875zm0 0" fill="#f75050" fill-opacity="1" data-original-color="#ef3535ff" stroke="none" stroke-opacity="1"/><path d="m494.308594 193.5625v104.0625c0 5.746094-4.660156 10.40625-10.40625 10.40625h-48.167969l-4.90625 16.652344h64.523437c9.195313 0 16.648438-7.457032 16.648438-16.652344v-114.46875zm0 0" fill="#b51e1e" fill-opacity="1" data-original-color="#d33131ff" stroke="none" stroke-opacity="1"/><path d="m0 161.300781v-144.652343c0-9.195313 7.453125-16.648438 16.648438-16.648438h131.125l-46.996094 121.402344c-9.308594 24.046875-32.441406 39.898437-58.226563 39.898437zm0 0" fill="#f75050" fill-opacity="1" data-original-color="#ef3535ff" stroke="none" stroke-opacity="1"/><path d="m111.683594 0-42.070313 108.683594c-6.207031 16.035156-21.628906 26.601562-38.816406 26.601562h-30.796875v26.015625h42.550781c25.785157 0 48.917969-15.851562 58.226563-39.898437l46.996094-121.402344zm0 0" fill="#b51e1e" fill-opacity="1" data-original-color="#d33131ff" stroke="none" stroke-opacity="1"/><path d="m0 161.300781h42.550781v32.261719h-42.550781zm0 0" fill="#f9d156" fill-opacity="1" data-original-color="#ffd432ff" stroke="none" stroke-opacity="1"/><path d="m30.0625 161.300781v9.367188c0 5.746093-4.660156 10.40625-10.40625 10.40625h-19.65625v12.488281h42.550781v-32.261719zm0 0" fill="#ce9832" fill-opacity="1" data-original-color="#f4ac03ff" stroke="none" stroke-opacity="1"/><path d="m42.550781 193.5625 38.621094 131.121094h-64.523437c-9.195313 0-16.648438-7.457032-16.648438-16.652344v-114.46875zm0 0" fill="#f75050" fill-opacity="1" data-original-color="#ef3535ff" stroke="none" stroke-opacity="1"/><path d="m42.550781 193.5625h-23.195312l29.785156 101.125c1.964844 6.664062-3.03125 13.34375-9.980469 13.34375h-39.160156c0 9.199219 7.453125 16.652344 16.648438 16.652344h64.523437zm0 0" fill="#b51e1e" fill-opacity="1" data-original-color="#d33131ff" stroke="none" stroke-opacity="1"/><path d="m256 512h73.816406c3.042969 0 5.644532-2.199219 6.15625-5.199219l40.742188-240.394531h-241.429688l40.746094 240.394531c.507812 3 3.109375 5.199219 6.15625 5.199219zm0 0" fill="#f4efd4" fill-opacity="1" data-original-color="#e1ebefff" stroke="none" stroke-opacity="1"/><path d="m285.136719 266.40625-15.636719 217.203125c-.390625 5.441406-4.921875 9.660156-10.378906 9.660156h-37.777344l1.355469 18.730469h66.601562l20.8125-245.59375zm0 0" fill="#f9d1a5" fill-opacity="1" data-original-color="#c4d3d6ff" stroke="none" stroke-opacity="1"/><path d="m135.285156 266.40625 40.746094 240.394531c.507812 3 3.109375 5.199219 6.15625 5.199219h40.511719l-20.8125-245.59375zm0 0" fill="#f75050" fill-opacity="1" data-original-color="#ef3535ff" stroke="none" stroke-opacity="1"/><path d="m201.886719 266.40625h-21.855469l22.722656 215.363281c.648438 6.144531-4.167968 11.496094-10.347656 11.496094h-18.671875l2.292969 13.53125c.507812 3.003906 3.109375 5.203125 6.15625 5.203125h40.515625zm0 0" fill="#b51e1e" fill-opacity="1" data-original-color="#d33131ff" stroke="none" stroke-opacity="1"/><path d="m376.714844 266.40625-40.746094 240.394531c-.507812 3-3.109375 5.199219-6.15625 5.199219h-40.511719l20.8125-245.59375zm0 0" fill="#f75050" fill-opacity="1" data-original-color="#ef3535ff" stroke="none" stroke-opacity="1"/><path d="m357.351562 266.40625-37.429687 218.214844c-.855469 4.996094-5.1875 8.648437-10.257813 8.648437h-18.777343l-1.585938 18.730469h40.515625c3.042969 0 5.644532-2.199219 6.15625-5.199219l40.742188-240.394531zm0 0" fill="#b51e1e" fill-opacity="1" data-original-color="#d33131ff" stroke="none" stroke-opacity="1"/><path d="m376.714844 266.40625c0-13.195312-9.449219-24.179688-21.953125-26.570312.738281-2.460938 1.140625-5.070313 1.140625-7.769532 0-14.945312-12.113282-27.058594-27.058594-27.058594-7.027344 0-13.433594 2.683594-18.242188 7.078126-3.929687-8.222657-11.890624-14.144532-21.324218-15.222657-.453125-14.542969-12.378906-26.195312-27.035156-26.195312-14.621094 0-26.527344 11.601562-27.03125 26.105469-.695313-.054688-1.394532-.089844-2.105469-.089844-10.902344 0-20.292969 6.453125-24.578125 15.746094-3.832032-2.078126-8.21875-3.257813-12.886719-3.257813-14.941406 0-27.054687 12.113281-27.054687 27.058594 0 1.332031.097656 2.636719.285156 3.917969-2.09375-.519532-4.277344-.796876-6.53125-.796876-14.941406 0-27.054688 12.113282-27.054688 27.054688zm0 0" fill="#ffedc4" fill-opacity="1" data-original-color="#fff0caff" stroke="none" stroke-opacity="1"/><g fill="#f2daaa"><path d="m354.765625 239.835938c1.113281-3.722657 1.460937-7.777344.8125-11.988282-1.898437-12.359375-12.335937-21.90625-24.808594-22.773437-6.558593-.453125-12.660156 1.4375-17.554687 4.914062.6875 2.382813 1.0625 4.902344 1.0625 7.507813 0 2.703125-.402344 5.308594-1.140625 7.773437 6.449219 1.230469 12.082031 4.746094 16.027343 9.675781 5.449219 6.800782.566407 16.890626-8.144531 16.890626h-181.472656c-2.695313 4.207031-4.261719 9.203124-4.261719 14.570312h241.429688c0-13.195312-9.449219-24.179688-21.949219-26.570312zm0 0" fill="#ffd37a" fill-opacity="1" data-original-color="#f2daaaff" stroke="none" stroke-opacity="1"/><path d="m253.917969 248.714844c-4.308594 0-7.804688-3.492188-7.804688-7.804688 0-1.722656-1.398437-3.121094-3.121093-3.121094-1.722657 0-3.121094 1.398438-3.121094 3.121094 0 4.308594-3.496094 7.804688-7.804688 7.804688-4.3125 0-7.804687-3.492188-7.804687-7.804688 0-10.328125 8.402343-18.730468 18.730469-18.730468 10.328124 0 18.730468 8.402343 18.730468 18.730468 0 4.3125-3.492187 7.804688-7.804687 7.804688zm0 0" fill="#ffd37a" fill-opacity="1" data-original-color="#f2daaaff" stroke="none" stroke-opacity="1"/><path d="m292.941406 243.511719c-4.308594 0-7.804687-3.492188-7.804687-7.804688 0-1.722656-1.398438-3.121093-3.121094-3.121093-4.308594 0-7.804687-3.496094-7.804687-7.804688 0-4.3125 3.492187-7.804688 7.804687-7.804688 10.328125 0 18.730469 8.402344 18.730469 18.730469 0 4.3125-3.492188 7.804688-7.804688 7.804688zm0 0" fill="#ffd37a" fill-opacity="1" data-original-color="#f2daaaff" stroke="none" stroke-opacity="1"/><path d="m321.5625 240.390625c0 3.449219-2.796875 6.242187-6.246094 6.242187-3.449218 0-6.242187-2.792968-6.242187-6.242187s2.792969-6.246094 6.242187-6.246094c3.449219 0 6.246094 2.796875 6.246094 6.246094zm0 0" fill="#ffd37a" fill-opacity="1" data-original-color="#f2daaaff" stroke="none" stroke-opacity="1"/><path d="m268.488281 200.847656c0 3.445313-2.796875 6.242188-6.246093 6.242188-3.445313 0-6.242188-2.796875-6.242188-6.242188 0-3.449218 2.796875-6.246094 6.242188-6.246094 3.449218 0 6.246093 2.796876 6.246093 6.246094zm0 0" fill="#ffd37a" fill-opacity="1" data-original-color="#f2daaaff" stroke="none" stroke-opacity="1"/><path d="m203.96875 239.351562c0 3.445313-2.796875 6.242188-6.246094 6.242188-3.445312 0-6.242187-2.796875-6.242187-6.242188 0-3.449218 2.796875-6.246093 6.242187-6.246093 3.449219 0 6.246094 2.796875 6.246094 6.246093zm0 0" fill="#ffd37a" fill-opacity="1" data-original-color="#f2daaaff" stroke="none" stroke-opacity="1"/></g></g></svg>