<svg height="512pt" viewBox="0 0 512 512" width="512pt" xmlns="http://www.w3.org/2000/svg"><path d="m139.472656 7.851562h364.527344v289.476563h-364.527344zm0 0" fill="#f2f2f2"/><path d="m504.003906 305.183594h-156.550781c-4.332031 0-7.847656-3.515625-7.847656-7.851563 0-4.332031 3.515625-7.847656 7.847656-7.847656h148.699219v-273.785156h-348.828125v228.300781c0 4.335938-3.515625 7.851562-7.851563 7.851562-4.335937 0-7.851562-3.515624-7.851562-7.851562v-236.148438c0-4.335937 3.515625-7.851562 7.851562-7.851562h364.53125c4.335938 0 7.851563 3.515625 7.851563 7.851562v289.480469c0 4.335938-3.515625 7.851563-7.851563 7.851563zm0 0" fill="#71cde2"/><path d="m11.847656 190.34375h266.808594v186.285156h-266.808594zm0 0" fill="#4d5160"/><path d="m0 125.8125 262.433594-48.183594 11.847656 64.535156-262.433594 48.183594zm0 0" fill="#4d5160"/><path d="m98.785156 174.378906-53.664062 9.855469 23.035156-70.9375 53.664062-9.851563zm0 0" fill="#f7f7f7"/><path d="m206.113281 154.675781-53.664062 9.851563 23.035156-70.9375 53.660156-9.851563zm0 0" fill="#f7f7f7"/><path d="m152.101562 323.429688c-13.183593-13.183594-13.183593-34.554688 0-47.738282 8.582032-8.578125 20.628907-11.570312 31.632813-8.980468 1.117187-6.703126 4.25-13.132813 9.417969-18.300782 9.613281-9.613281 23.582031-12.210937 35.554687-7.800781 1.46875-2.582031 3.292969-5.019531 5.496094-7.21875 12.121094-12.121094 31.15625-13.089844 44.394531-2.921875 13.234375-10.167969 32.273438-9.199219 44.394532 2.921875 2.203124 2.199219 4.027343 4.636719 5.496093 7.21875 11.972657-4.40625 25.941407-1.8125 35.554688 7.800781 5.167969 5.167969 8.300781 11.597656 9.417969 18.300782 11-2.589844 23.050781.398437 31.632812 8.980468 13.179688 13.183594 13.179688 34.554688 0 47.738282l-126.496094 94.285156zm0 0" fill="#fce06d"/><path d="m248.597656 260.691406s-24.546875 6.8125-24.546875 24.542969c0 17.742187 12.269531 22.515625 12.269531 22.515625s-26.597656 13.640625-16.359374 40.234375c3.566406 9.273437-.492188 15.898437-7.308594 20.578125l-60.550782-45.132812c-13.1875-13.175782-13.1875-34.550782 0-47.738282 8.574219-8.574218 20.632813-11.566406 31.632813-8.980468 1.109375-6.699219 4.25-13.125 9.417969-18.296876 9.609375-9.621093 23.582031-12.203124 35.546875-7.796874 1.476562-2.585938 3.296875-5.027344 5.496093-7.222657 6.960938-6.960937 16.203126-10.25 25.328126-9.839843-17.058594 0-20.816407 27.246093-10.925782 37.136718zm0 0" fill="#edb05f"/><path d="m405.09375 323.425781-27.414062 188.574219h-198.167969l-27.027344-185.925781-.386719-2.648438zm0 0" fill="#ff6694"/><path d="m229.5 512h-49.988281l-27.027344-185.925781h68.832031zm0 0" fill="#bf1932"/><path d="m255.082031 512h-38.464843l-16.90625-185.925781-.238282-2.648438h49.109375zm0 0" fill="#f2f2f2"/><path d="m229.5 512h-12.882812l-16.90625-185.925781h21.605468zm0 0" fill="#e6e6e6"/><path d="m357.726562 323.429688-17.144531 188.570312h-38.464843l6.511718-188.570312zm0 0" fill="#f2f2f2"/><path d="m379.777344 152.589844-78.722656-45.449219v90.902344zm0 0" fill="#ff6694"/><path d="m148.371094 250.804688h-104.710938c-4.335937 0-7.851562-3.515626-7.851562-7.851563s3.515625-7.851563 7.851562-7.851563h104.710938c4.335937 0 7.851562 3.515626 7.851562 7.851563s-3.515625 7.851563-7.851562 7.851563zm0 0" fill="#f7f7f7"/><path d="m110.15625 292.746094h-66.496094c-4.335937 0-7.851562-3.511719-7.851562-7.847656 0-4.335938 3.515625-7.851563 7.851562-7.851563h66.496094c4.335938 0 7.847656 3.515625 7.847656 7.851563 0 4.335937-3.511718 7.847656-7.847656 7.847656zm0 0" fill="#f7f7f7"/><path d="m412.945312 323.425781c0 4.34375-3.519531 7.851563-7.851562 7.851563h-252.996094c-4.332031 0-7.847656-3.507813-7.847656-7.851563 0-4.332031 3.515625-7.847656 7.847656-7.847656h252.996094c4.332031 0 7.851562 3.515625 7.851562 7.847656zm0 0" fill="#f2f2f2"/><path d="m412.945312 323.425781c0 4.34375-3.519531 7.851563-7.851562 7.851563h-199.792969c-4.332031 0-7.847656-3.507813-7.847656-7.851563 0-4.332031 3.515625-7.847656 7.847656-7.847656h199.792969c4.332031 0 7.851562 3.515625 7.851562 7.847656zm0 0" fill="#f7f7f7"/></svg>