<svg id="Capa_1" enable-background="new 0 0 512 512" height="512" viewBox="0 0 512 512" width="512" xmlns="http://www.w3.org/2000/svg"><g><path d="m134.662 340.68h326.927c27.841 0 50.411-22.57 50.411-50.411v-239.858c0-27.841-22.57-50.411-50.411-50.411h-326.927c-27.842 0-50.412 22.57-50.412 50.411v239.857c0 27.842 22.57 50.412 50.412 50.412z" fill="#7a6d79"/><circle cx="298.125" cy="170.34" fill="#685e68" r="73.323"/><g><path d="m298.125 214.612c-12.898 0-23.968-9.623-25.749-22.383-.166-1.193-.25-2.409-.25-3.617 0-4.267 3.459-7.726 7.726-7.726s7.726 3.459 7.726 7.726c0 .495.035.994.103 1.481.721 5.168 5.211 9.065 10.444 9.065 5.815 0 10.547-4.731 10.547-10.547 0-5.815-4.731-10.546-10.547-10.546-4.267 0-7.726-3.459-7.726-7.726s3.459-7.726 7.726-7.726c5.815 0 10.547-4.731 10.547-10.547 0-5.815-4.731-10.547-10.547-10.547-5.03 0-9.382 3.572-10.349 8.494-.822 4.187-4.882 6.911-9.071 6.092-4.187-.822-6.914-4.884-6.092-9.071 2.387-12.15 13.116-20.968 25.512-20.968 14.336 0 26 11.663 26 25.999 0 7.116-2.873 13.573-7.522 18.273 4.648 4.699 7.522 11.156 7.522 18.273 0 14.338-11.664 26.001-26 26.001z" fill="#faf7f7"/></g><path d="m391.649 162.614h-12.852c-3.663-38.534-34.411-69.283-72.946-72.946v-12.852c0-4.267-3.459-7.726-7.726-7.726s-7.726 3.459-7.726 7.726v12.852c-38.534 3.662-69.283 34.411-72.946 72.946h-12.852c-4.267 0-7.726 3.459-7.726 7.726s3.459 7.726 7.726 7.726h12.852c3.663 38.534 34.411 69.283 72.946 72.946v12.852c0 4.267 3.459 7.726 7.726 7.726s7.726-3.459 7.726-7.726v-12.852c38.534-3.662 69.283-34.411 72.946-72.946h12.852c4.267 0 7.726-3.459 7.726-7.726s-3.459-7.726-7.726-7.726zm-85.797 72.852v-2.294c0-4.267-3.459-7.726-7.726-7.726s-7.726 3.459-7.726 7.726v2.294c-30.004-3.539-53.861-27.396-57.4-57.4h2.294c4.267 0 7.726-3.459 7.726-7.726s-3.459-7.726-7.726-7.726h-2.294c3.539-30.004 27.396-53.861 57.4-57.4v2.294c0 4.267 3.459 7.726 7.726 7.726s7.726-3.459 7.726-7.726v-2.294c30.004 3.539 53.861 27.396 57.4 57.4h-2.294c-4.267 0-7.726 3.459-7.726 7.726s3.459 7.726 7.726 7.726h2.294c-3.539 30.004-27.397 53.862-57.4 57.4z" fill="#faf7f7"/><g><path d="m255.104 344.626-2.668 23.138-12.043 104.522c-2.607 22.634-21.778 39.714-44.556 39.714h-110.96c-22.777 0-41.949-17.08-44.555-39.713l-12.044-104.522-2.668-23.138 114.752-25.61z" fill="#fd8087"/><path d="m255.104 344.626-2.668 23.139h-224.158l-2.668-23.139 114.752-25.61z" fill="#fe646f"/><path d="m142.608 511.997h-57.734c-22.78 0-41.941-17.088-44.551-39.714l-14.719-127.665 114.755-25.61 28.856 6.438-85.888 19.172 14.719 127.664c2.61 22.627 21.771 39.715 44.562 39.715z" fill="#fe646f"/><path d="m128.567 512h-22.757c-14.196 0-26.125-17.091-27.743-39.713l-7.51-104.522-1.659-23.138h47.069l.567 23.138 2.555 104.522c.412 16.349 2.648 29.823 5.687 36.015 1.174 2.379 2.451 3.698 3.791 3.698z" fill="#faf7f7"/><path d="m142.608 512h-36.797c-14.192 0-26.125-17.088-27.748-39.714l-9.169-127.664h14.434l14.719 127.664c1.886 16.353 12.426 29.821 26.728 36.018 5.483 2.38 11.516 3.696 17.833 3.696z" fill="#dedbee"/><path d="m211.816 344.626-1.659 23.138-7.5 104.522c-1.627 22.623-13.557 39.714-27.753 39.714h-22.757c4.852 0 8.921-17.091 9.467-39.713l2.575-104.522.567-23.138h47.06z" fill="#faf7f7"/><path d="m115.967 344.626.567 23.139h-45.977l-1.658-23.139z" fill="#dedbee"/><path d="m211.816 344.626-1.659 23.139h-45.967l.567-23.139z" fill="#dedbee"/><path d="m237.98 312.918c13.34 0 24.155-10.815 24.155-24.155s-10.814-24.155-24.155-24.155c-1.04 0-2.062.073-3.067.2 2.302-3.699 3.635-8.063 3.635-12.741 0-13.34-10.814-24.155-24.155-24.155-3.771 0-7.339.865-10.519 2.406-1.513-11.886-11.656-21.077-23.953-21.077-6.912 0-13.142 2.908-17.545 7.562-3.787-8.388-12.219-14.229-22.02-14.229s-18.232 5.841-22.02 14.229c-4.403-4.654-10.632-7.562-17.545-7.562-12.297 0-22.44 9.191-23.953 21.077-3.18-1.541-6.748-2.406-10.519-2.406-13.34 0-24.155 10.815-24.155 24.155 0 4.678 1.334 9.042 3.635 12.741-1.005-.127-2.027-.2-3.067-.2-13.34 0-24.155 10.815-24.155 24.155s10.814 24.155 24.155 24.155z" fill="#fee45a"/><path d="m157.092 209.324c-11.461.845-20.696 9.707-22.133 20.992-3.181-1.535-6.745-2.402-10.518-2.402-13.337 0-24.151 10.814-24.151 24.151 0 4.683 1.327 9.048 3.63 12.745-.998-.132-2.029-.198-3.06-.198-13.348 0-24.162 10.814-24.162 24.151s10.814 24.151 24.162 24.151h-58.117c-13.348 0-24.162-10.814-24.162-24.151s10.814-24.151 24.162-24.151c1.042 0 2.062.066 3.06.198-2.292-3.696-3.63-8.061-3.63-12.745 0-13.337 10.814-24.151 24.151-24.151 3.773 0 7.337.867 10.518 2.402 1.514-11.878 11.659-21.069 23.954-21.069 6.921 0 13.15 2.906 17.548 7.557 3.784-8.39 12.218-14.225 22.023-14.225 6.492-.001 12.393 2.566 16.725 6.745z" fill="#ffd15b"/><path d="m255.107 344.626h-229.498c-14.144 0-25.609-11.466-25.609-25.609 0-14.143 11.465-25.609 25.609-25.609h229.498c14.143 0 25.609 11.465 25.609 25.609 0 14.143-11.466 25.609-25.609 25.609z" fill="#faf7f7"/><path d="m96.494 344.627h-70.884c-14.148 0-25.61-11.462-25.61-25.61 0-7.063 2.863-13.469 7.502-18.097 4.628-4.639 11.034-7.502 18.108-7.502h70.885c-7.063 0-13.468 2.862-18.108 7.502-4.639 4.628-7.502 11.034-7.502 18.097 0 14.148 11.472 25.61 25.609 25.61z" fill="#dedbee"/></g><g fill="#faf7f7"><path d="m446.056 56.439h7.937v7.937c0 4.267 3.459 7.726 7.726 7.726s7.726-3.459 7.726-7.726v-7.937h7.937c4.267 0 7.726-3.459 7.726-7.726s-3.459-7.726-7.726-7.726h-7.937v-7.937c0-4.267-3.459-7.726-7.726-7.726s-7.726 3.459-7.726 7.726v7.937h-7.937c-4.267 0-7.726 3.459-7.726 7.726s3.459 7.726 7.726 7.726z"/><path d="m150.195 40.986h-7.937v-7.937c0-4.267-3.459-7.726-7.726-7.726s-7.726 3.459-7.726 7.726v7.937h-7.937c-4.267 0-7.726 3.459-7.726 7.726s3.459 7.726 7.726 7.726h7.937v7.937c0 4.267 3.459 7.726 7.726 7.726s7.726-3.459 7.726-7.726v-7.937h7.937c4.267 0 7.726-3.459 7.726-7.726s-3.459-7.726-7.726-7.726z"/><path d="m477.382 284.241h-7.937v-7.937c0-4.267-3.459-7.726-7.726-7.726s-7.726 3.459-7.726 7.726v7.937h-7.937c-4.267 0-7.726 3.459-7.726 7.726s3.459 7.726 7.726 7.726h7.937v7.937c0 4.267 3.459 7.726 7.726 7.726s7.726-3.459 7.726-7.726v-7.937h7.937c4.267 0 7.726-3.459 7.726-7.726 0-4.266-3.459-7.726-7.726-7.726z"/></g></g></svg>