<svg id="Capa_1" enable-background="new 0 0 497 497" height="512" viewBox="0 0 497 497" width="512" xmlns="http://www.w3.org/2000/svg"><path d="m248.5 497c45.271 0 87.711-12.112 124.267-33.263v-10.834z" fill="#622876"/><path d="m248.5 248.5-58.242 146.576 58.242 101.924c46.17 0 88.986-16.301 124.267-44.097v-204.403z" fill="#962b7c"/><path d="m368.433 456.231 4.334 7.506c37.709-21.819 69.151-53.26 90.97-90.97v-81.305z" fill="#2d2570"/><path d="m463.737 291.462v-42.962h-215.237l119.933 207.731c49.354-36.931 84.763-95.987 95.304-164.769z" fill="#622876"/><path d="m466.456 231.046-23.087 129.961 20.369 11.76c21.15-36.556 33.262-78.996 33.262-124.267z" fill="#0556b2"/><path d="m466.456 231.046-71.38-40.788-146.576 58.242 194.868 112.507c15.109-33.78 23.632-72.011 23.632-112.507 0-5.869-.192-11.687-.544-17.454z" fill="#077ccc"/><path d="m463.737 124.233h-25.984l29.247 124.267h30c0-45.271-12.112-87.711-33.263-124.267z" fill="#077ccc"/><path d="m277.621 124.233-29.121 124.267h218.5c0-45.271-10.65-87.711-29.247-124.267z" fill="#09a1e5"/><path d="m372.767 33.263h-15.002l85.603 102.729 20.369-11.76c-21.819-37.709-53.26-69.15-90.97-90.969z" fill="#2897b1"/><path d="m357.765 33.263h-80.144l-29.121 215.237 194.868-112.507c-19.204-42.939-49.056-78.68-85.603-102.73z" fill="#49b296"/><path d="m248.5 0 119.933 40.769 4.334-7.506c-36.556-21.151-78.996-33.263-124.267-33.263z" fill="#49b296"/><path d="m190.258 101.924 58.242 146.576 119.933-207.731c-34.43-25.764-75.637-40.769-119.933-40.769z" fill="#89c247"/><path d="m124.233 463.737c36.556 21.151 78.996 33.263 124.267 33.263v-248.5h-124.267z" fill="#cb2e81"/><path d="m33.263 372.767c21.819 37.71 53.26 69.151 90.97 90.97l124.267-215.237h-215.237z" fill="#ff3187"/><path d="m0 248.5c0 45.271 12.112 87.711 33.263 124.267l215.237-124.267-146.576-58.242z" fill="#ff5178"/><path d="m33.263 124.233c-21.151 36.556-33.263 78.996-33.263 124.267h248.5l-29.121-124.267z" fill="#ff9259"/><path d="m124.233 33.263c-37.71 21.819-69.151 53.26-90.97 90.97l215.237 124.267-29.121-215.237z" fill="#ffb24a"/><path d="m248.5 0c-45.271 0-87.711 12.112-124.267 33.263l124.267 215.237z" fill="#ffd23b"/><path d="m248.5 108.5v280c77.32 0 140-62.68 140-140s-62.68-140-140-140z" fill="#fff0be"/><path d="m358.5 248.5c0-77.32-49.249-140-110-140-77.32 0-140 62.68-140 140s62.68 140 140 140c60.751 0 110-62.68 110-140z" fill="#fff"/><path d="m294.164 222.101-45.664-53.601v152.5c33.137 0 60-26.863 60-60 0-14.846-5.404-28.423-14.336-38.899z" fill="#ff3187"/><path d="m278.5 261c0-14.846-2.702-28.423-7.168-38.899l-22.832-53.601-45.664 53.601c-8.932 10.476-14.336 24.053-14.336 38.899 0 33.137 26.863 60 60 60 16.569 0 30-26.863 30-60z" fill="#ff5178"/></svg>