<svg id="Capa_1" enable-background="new 0 0 512 512" height="512" viewBox="0 0 512 512" width="512" xmlns="http://www.w3.org/2000/svg"><g><path d="m334.106 225.337v-142.539c0-8.722-3.847-17.001-10.513-22.626l-1.376-1.161c-8.513-7.182-20.336-8.979-30.598-4.65-5.868 2.476-12.379 2.993-18.564 1.475l-31.571-7.749c-2.115-.519-4.165-1.27-6.115-2.239l-21.938-10.9c-9.512-4.726-20.827-3.994-29.651 1.918l-19.321 12.946c-5.368 3.597-11.766 5.339-18.217 4.959l-3.594-.211c-8.767-.516-17.311 2.888-23.322 9.291l-8.589 9.149c-11.286 12.021-13.474 29.972-5.409 44.353l.38.678c6.237 11.12 5.507 24.838-1.874 35.233l-22.055-6.786c-7.739-2.381-16.158-.112-21.653 5.836-5.292 5.729-6.983 13.913-4.394 21.27l8.99 25.551c1.376 3.91 3.738 7.399 6.858 10.129 12.553 10.984 10.369 31.037-4.188 39.181-5.305 2.968-9.764 5.872-11.842 8.18-3.466 3.851-1.958 20.41.558 36.64 3.344 21.574 16.928 40.193 36.408 50.05l29.238 14.795c6.896 3.489 12.081 9.771 13.8 17.306.92 4.033.807 8.109-1.91 10.826-6.496 6.496-66.701 52.465-116.799 65.389-9.907 2.554-16.845 11.451-16.845 21.679v2.37c0 6.684 5.459 11.987 12.139 11.747 35.356-1.269 134.515-29.699 169.601-76.702 42.669-57.16 88.764-59.907 107.281-60.713.188-.008.377-.016.567-.024 28.35-1.172 56.583 4.401 82.388 16.199 26.401 12.07 58.859 28.742 70.277 42.275 8.9 10.548 16.363 20.809 21.952 29.029 6.972 10.255 20.196 14.178 31.646 9.416 14.567-6.058 20.562-23.575 12.615-37.204-6.192-10.62-15.35-23.491-28.689-36.95-29.181-29.441-50.022-33.412-74.305-49.127-7.486-4.845-28.478-16.363-49.591-26.456-13.315-6.365-21.776-19.827-21.776-34.586v-37.247" fill="#6fd7a3"/><g><path d="m508.467 409.704c-6.192-10.62-15.35-23.491-28.69-36.95-29.181-29.441-50.022-33.412-74.305-49.127-7.486-4.845-28.478-16.363-49.591-26.456-13.315-6.365-21.776-19.828-21.776-34.586v-37.248-142.539c0-8.722-3.847-17.001-10.513-22.626l-1.376-1.161c-8.424-7.108-20.089-8.932-30.276-4.772 16.662 39.016 26.105 83.434 26.105 130.574 0 62.323-16.491 119.897-44.38 166.498 6.176-.862 11.397-1.125 15.355-1.297.188-.008.377-.017.567-.024 28.35-1.172 56.583 4.401 82.388 16.199 26.401 12.07 58.859 28.742 70.277 42.275 8.9 10.548 16.363 20.809 21.952 29.03 6.972 10.254 20.197 14.177 31.646 9.416 14.569-6.059 20.564-23.576 12.617-37.206z" fill="#3ec3a4"/></g><path d="m400.572 93.706c-2.472 51.652-41.844 105.119-57.564 124.516-3.29 4.06-9.48 4.02-12.727-.074-16.168-20.383-57.777-77.857-57.777-129.49 0-35.731 29.237-64.632 65.092-64.087 36.666.558 64.728 32.508 62.976 69.135z" fill="#fe646f"/><path d="m337.597 24.572c-5.719-.087-11.267.582-16.557 1.901 29.356 7.404 50.142 35.56 48.626 67.233-2.073 43.325-30.103 87.915-48.365 112.618 3.429 4.708 6.504 8.703 8.98 11.825 3.247 4.094 9.437 4.133 12.727.074 15.72-19.398 55.092-72.864 57.564-124.517 1.752-36.627-26.31-68.577-62.975-69.134z" fill="#fd4755"/><circle cx="336.577" cy="94.89" fill="#f3f0f3" r="28.014"/><g fill="#0bb494"><path d="m283.159 455.624c-5.777 18.144-30.316 20.927-40.494 4.834-3.111-4.92-5.545-10.283-5.739-15.21-.558-14.132 18.231-33.526 35.649-34.512 10.693-.604 16.87 25.148 10.584 44.888z"/><path d="m36.109 391.511c-14.38-7.206-13.476-28.046 1.29-34.423 4.514-1.949 9.309-3.275 13.445-2.789 11.865 1.392 25.578 19.619 24.11 34.282-.9 9.001-23.2 10.77-38.845 2.93z"/></g></g></svg>