<svg id="Capa_1" enable-background="new 0 0 497.043 497.043" height="300" viewBox="0 0 497.043 497.043" width="300" xmlns="http://www.w3.org/2000/svg" version="1.1" xmlns:xlink="http://www.w3.org/1999/xlink" xmlns:svgjs="http://svgjs.dev/svgjs"><g width="100%" height="100%" transform="matrix(1,0,0,1,0,0)"><g><path d="m207.194 114.826c9.187-2.067 18.014-15.877 27.138-16.638 66.19-5.516 129.411 22.48 170.216 71.684 19.467 23.474 1.02 32.756 8.171 64.548 4.144 18.423 38.41 55.843 37.433 73.81-1.634 30.038-10.063 58.866-24.071 84.565-26.56 48.727-85.682 61.484-144.079 74.62-107.618 24.208-185.931-26.595-210.139-134.214s27.713-194.167 135.331-218.375z" fill="#62a2fe" fill-opacity="1" data-original-color="#dcf2f6ff" stroke="none" stroke-opacity="1"/><path d="m426.073 392.79c-26.55 48.73-73.17 86.2-131.57 99.34-107.62 24.21-214.48-43.41-238.69-151.02-2.969-13.195-4.557-26.378-4.86-39.4-.739-31.75 28.033-48.902 41.19-76.535 17.908-37.613 25.536-83.017 63.13-103.425-22.4 41.07-30.53 90.14-19.46 139.36 24.21 107.61 131.07 175.23 238.69 151.02 18.45-4.15 35.73-10.74 51.57-19.34z" fill="#5256dd" fill-opacity="1" data-original-color="#bae6efff" stroke="none" stroke-opacity="1"/><path d="m450.143 308.23-20.54-6.41c-7.87-2.45-15.08-6.42-21.29-11.59-6.21-5.18-11.4-11.57-15.23-18.86-2.97-5.66-8.07-9.91-14.17-11.82h-.01c-6.1-1.9-12.71-1.3-18.37 1.67l-19.45 10.2c-5.67 2.97-11.92 4.48-18.21 4.48-3.92 0-7.86-.58-11.67-1.77-3.65-1.14-7.01-2.99-9.89-5.39-2.89-2.41-5.3-5.38-7.08-8.77-5.12-9.75-7.72-20.5-7.72-31.31 0-6.74 1.02-13.5 3.06-20.06 4.21-13.51 16.67-22.17 30.12-22.17 3.12 0 6.29.46 9.42 1.44 2.34.73 4.76 1.09 7.17 1.09 3.87 0 7.72-.93 11.21-2.76 11.64-6.11 20.39-16.59 24.3-29.15l4.66-14.93c33.71 27.28 58.82 65.71 69.08 111.32 4.14 18.42 5.6 36.82 4.61 54.79z" fill="#75fe62" fill-opacity="1" data-original-color="#d2ea7bff" stroke="none" stroke-opacity="1"/><path d="m450.143 308.23-20.54-6.41c-7.87-2.45-15.08-6.42-21.29-11.59-6.21-5.18-11.4-11.57-15.23-18.86-2.97-5.66-8.07-9.91-14.17-11.82h-.01c-6.1-1.9-12.71-1.3-18.37 1.67l-19.45 10.2c-5.67 2.97-11.92 4.48-18.21 4.48-3.92 0-7.86-.58-11.67-1.77-3.65-1.14-7.01-2.99-9.89-5.39-2.89-2.41-5.3-5.38-7.08-8.77-5.12-9.75-7.72-20.5-7.72-31.31 0-5.02.57-10.05 1.7-15.01 1.27 5.63 3.29 11.12 6.02 16.32 1.78 3.39 4.19 6.36 7.08 8.77 2.88 2.4 6.24 4.25 9.89 5.39 3.81 1.19 7.75 1.77 11.67 1.77 6.29 0 12.54-1.51 18.21-4.48l19.45-10.2c5.66-2.97 12.27-3.57 18.37-1.67h.01c6.1 1.91 11.2 6.16 14.17 11.82 3.83 7.29 9.02 13.68 15.23 18.86 6.21 5.17 13.42 9.14 21.29 11.59l19.89 6.21c.99 10.15 1.2 20.24.65 30.2z" fill="#0cbf4c" fill-opacity="1" data-original-color="#c4e456ff" stroke="none" stroke-opacity="1"/><path d="m376.543 141.84-.09.28" fill="#75fe62" fill-opacity="1" data-original-color="#d2ea7bff" stroke="none" stroke-opacity="1"/><path d="m208.176 349.71c7.862-4.343 17.127-5.386 25.757-2.898 22.161 6.388 45.953 3.712 66.14-7.441l5.321-2.94c6.013-3.322 13.099-4.119 19.7-2.216 13.745 3.962 21.676 18.317 17.713 32.062l-4.445 15.418c-3.837 13.31-10.953 25.298-20.542 34.953-5.415 5.452-19.695 4.771-26.542 8.554 0 0-29.897 10.77-50.723 4.766 0 0-50.427-41.029-46.812-52.766l2.065-6.702c.63-2.044-2.175-5.126-1.188-6.991 3.061-5.779 7.753-10.593 13.556-13.799z" fill="#75fe62" fill-opacity="1" data-original-color="#d2ea7bff" stroke="none" stroke-opacity="1"/><path d="m248.053 258.59c0 6.36-1.79 12.64-5.24 18.09-2.54 4.02-5.84 7.45-9.65 10.14s-8.15 4.64-12.79 5.68l-43.47 9.78c-13.07 2.94-26.77.56-38.09-6.6-8.15-5.15-17.54-7.83-27.03-7.83-3.69 0-7.41.41-11.07 1.23l-49.76 12.63c-.882-37.871 22.683-67.732 41.19-99.146 23.907-40.581 48.453-79.312 95.729-94.907 6.172-2.036 12.499-3.791 18.971-5.246 9.19-2.07 18.37-3.46 27.49-4.22l6 24.63c2.82 12.53-5.06 24.98-17.59 27.8-3.01.68-5.82 1.94-8.29 3.68-2.48 1.74-4.61 3.96-6.26 6.57l-4.36 6.89c-3.3 5.21-4.39 11.52-3.03 17.54 1.84 8.18 5.27 15.84 10.01 22.56s10.78 12.52 17.87 17.01c4.71 2.98 8.74 6.83 11.89 11.31 3.15 4.46 5.43 9.55 6.65 14.99.55 2.459.83 4.949.83 7.419z" fill="#75fe62" fill-opacity="1" data-original-color="#d2ea7bff" stroke="none" stroke-opacity="1"/><g fill="#c4e456"><path d="m317.813 416.64c-5.41 5.46-11.61 10.17-18.46 13.95-12.21 6.74-25.82 10.19-39.52 10.19-7.59 0-15.21-1.06-22.63-3.2l-16.38-4.72c-11.53-3.32-21.26-11.09-27.06-21.59-3.74-6.76-5.65-14.3-5.65-21.88 0-4.47.67-8.96 2.01-13.31l2.06-6.7c.63-2.04 1.45-4.01 2.44-5.87 33.31 30.95 76.74 50.16 123.19 53.13z" fill="#0cbf4c" fill-opacity="1" data-original-color="#c4e456ff" stroke="none" stroke-opacity="1"/><path d="m135.813 261.11c3.12 13.89 7.62 27.11 13.33 39.55-3.6-1.25-7.06-2.91-10.33-4.98-8.15-5.15-17.54-7.83-27.03-7.83-3.69 0-7.41.41-11.07 1.23l-49.76 12.63c-2.294-73.332 39.582-145.478 104.32-179.96-22.4 41.07-30.53 90.14-19.46 139.36z" fill="#0cbf4c" fill-opacity="1" data-original-color="#c4e456ff" stroke="none" stroke-opacity="1"/><path d="m82.703 189.22c1.16-1.82 2.36-3.61 3.59-5.39-1.22 1.77-2.42 3.57-3.59 5.39z" fill="#0cbf4c" fill-opacity="1" data-original-color="#c4e456ff" stroke="none" stroke-opacity="1"/><path d="m92.143 175.78c1.34-1.76 2.72-3.5 4.12-5.2-1.4 1.71-2.77 3.45-4.12 5.2z" fill="#0cbf4c" fill-opacity="1" data-original-color="#c4e456ff" stroke="none" stroke-opacity="1"/><path d="m134.583 134.69c-2.54 1.82-5.03 3.69-7.47 5.61 2.44-1.93 4.93-3.8 7.47-5.61z" fill="#0cbf4c" fill-opacity="1" data-original-color="#c4e456ff" stroke="none" stroke-opacity="1"/><path d="m149.353 125.1c1.95-1.16 3.92-2.27 5.92-3.35-2 1.08-3.97 2.2-5.92 3.35z" fill="#0cbf4c" fill-opacity="1" data-original-color="#c4e456ff" stroke="none" stroke-opacity="1"/></g><path d="m296.602 77.677c0-42.9 30.725-77.677 73.571-77.677s73.571 34.777 73.571 77.677c0 59.782-63.623 114.541-72.593 121.488-.578.448-1.378.448-1.956 0-8.97-6.947-72.593-61.706-72.593-121.488" fill="#fe3443" fill-opacity="1" data-original-color="#dd646eff" stroke="none" stroke-opacity="1"/><ellipse cx="369.72" cy="73.906" fill="#f8f7f7" rx="43" ry="43.053" fill-opacity="0.6745098039215687" data-original-color="#f8f7f7ff" stroke="none" stroke-opacity="1"/><path d="m46.602 77.677c0-42.9 30.724-77.677 73.571-77.677s73.571 34.777 73.571 77.677c0 59.782-63.623 114.541-72.593 121.488-.578.448-1.378.448-1.956 0-8.97-6.947-72.593-61.706-72.593-121.488" fill="#f5de46" fill-opacity="0" data-original-color="#f5de46ff" stroke="none" stroke-opacity="1"/><path d="m384.743 187.14c-6.49 6.22-11.51 10.41-13.59 12.02-.58.45-1.38.45-1.96 0-8.97-6.94-72.59-61.7-72.59-121.48 0-28.44 13.5-53.31 35.08-66.83-12.27 14.1-19.44 33.08-19.44 53.96 0 58.52 60.09 112.3 72.5 122.33z" fill="#af323d" fill-opacity="1" data-original-color="#da4955ff" stroke="none" stroke-opacity="1"/><path d="m133.423 188.4c-5.85 5.53-10.33 9.26-12.27 10.76-.58.45-1.38.45-1.96 0-8.97-6.94-72.59-61.7-72.59-121.48 0-24.45 9.98-46.27 26.5-60.5-9.23 13.23-14.5 29.73-14.5 47.63 0 60.65 64.55 116.21 73.65 123.26.35.26.77.37 1.17.33z" fill="#f3d332" fill-opacity="0" data-original-color="#f3d332ff" stroke="none" stroke-opacity="1"/><ellipse cx="119.72" cy="73.906" fill="#f8f7f7" rx="43.5" ry="43.554" fill-opacity="0.6745098039215687" data-original-color="#f8f7f7ff" stroke="none" stroke-opacity="1"/><path d="m411.173 85.42c-5.03 18.18-21.68 31.54-41.45 31.54-23.75 0-43-19.28-43-43.05 0-19.81 13.36-36.5 31.56-41.52-1.02 3.67-1.56 7.53-1.56 11.52 0 23.77 19.25 43.05 43 43.05 3.96 0 7.8-.54 11.45-1.54z" fill="#ebebeb" fill-opacity="0.43529411764705883" data-original-color="#ebebebff" stroke="none" stroke-opacity="1"/><path d="m161.573 85.83c-5.18 18.26-21.96 31.63-41.85 31.63-24.03 0-43.5-19.5-43.5-43.55 0-19.95 13.38-36.76 31.65-41.93-1.07 3.79-1.65 7.79-1.65 11.93 0 24.05 19.47 43.55 43.5 43.55 4.11 0 8.08-.57 11.85-1.63z" fill="#ebebeb" fill-opacity="0.43529411764705883" data-original-color="#ebebebff" stroke="none" stroke-opacity="1"/></g></g></svg>