<svg version="1.1" id="Layer_1" xmlns="http://www.w3.org/2000/svg" xmlns:xlink="http://www.w3.org/1999/xlink" x="0px" y="0px" viewBox="0 0 512 512" style="enable-background:new 0 0 512 512;" xml:space="preserve" width="300" height="300" xmlns:svgjs="http://svgjs.dev/svgjs"><g width="100%" height="100%" transform="matrix(1,0,0,1,0,0)"><path style="" d="M330.29,323.806c-35.231-88.597-44.637-159.761-38.752-217.875l-86.753-1.926&#xA;&#9;c-23.586,57.985-67.256,207.21-34.854,311.893c26.577,85.863,88.163,105.662,131.159,92.298&#xA;&#9;C349.405,493.178,375.336,437.082,330.29,323.806z" fill="#734b5f" fill-opacity="1" data-original-color="#734b5fff" stroke="none" stroke-opacity="1"/><path style="" d="M297.423,330.655c-4.457,0-8.655-2.724-10.327-7.147c-12.742-33.798-21.906-63.767-28.025-91.616&#xA;&#9;c-1.311-5.953,2.457-11.837,8.405-13.142c5.983-1.306,11.844,2.457,13.146,8.409c5.888,26.797,14.759,55.767,27.129,88.565&#xA;&#9;c2.146,5.703-0.733,12.069-6.431,14.216C300.034,330.426,298.716,330.655,297.423,330.655z M263.621,205.246&#xA;&#9;c-5.465,0-10.216-4.065-10.931-9.633c-0.793-6.202-1.414-12.285-1.854-18.259c-0.439-6.082,4.129-11.367,10.207-11.81&#xA;&#9;c5.965-0.474,11.362,4.125,11.81,10.198c0.405,5.587,0.991,11.272,1.732,17.069c0.767,6.047-3.5,11.573-9.551,12.345&#xA;&#9;C264.561,205.216,264.086,205.246,263.621,205.246z" fill="#87556e" fill-opacity="1" data-original-color="#87556eff" stroke="none" stroke-opacity="1"/><path style="" d="M328.46,473.935c-2.729-3.638-6.895-6.087-11.441-6.229c-38.484-1.212-81.796-27.599-102.952-95.946&#xA;&#9;c-22.429-72.46-8.399-166.18,10.179-236.282c3.652,4.067,7.545,7.893,11.912,11.126c3.121,2.31,6.813,3.465,10.505,3.465&#xA;&#9;c3.692,0,7.384-1.155,10.505-3.465c6.75-4.996,12.717-11.08,17.681-17.974c5.823,1.599,11.012,2.5,15.174,3.033&#xA;&#9;c0.186-8.841,0.674-17.437,1.515-25.732l-86.753-1.926c-23.586,57.985-67.256,207.21-34.853,311.893&#xA;&#9;c26.577,85.863,88.163,105.662,131.159,92.298c9.229-2.869,17.61-7.277,24.843-13.286&#xA;&#9;C332.214,489.694,333.36,480.468,328.46,473.935z" fill="#644655" fill-opacity="1" data-original-color="#644655ff" stroke="none" stroke-opacity="1"/><path style="" d="M263.209,64.466l-4.351-58.743C258.619,2.496,255.932,0,252.695,0h-12.063&#xA;&#9;c-3.235,0-5.923,2.496-6.163,5.722l-4.351,58.743c-21.142,6.953-36.42,26.825-36.42,50.293c0,0,15.897-0.094,32.599-7.628&#xA;&#9;c4.636,10.092,11.63,18.817,20.366,25.283c8.736-6.466,15.73-15.192,20.366-25.283c16.703,7.534,32.599,7.628,32.599,7.628&#xA;&#9;C299.629,91.289,284.351,71.418,263.209,64.466z" fill="#bcf7aa" fill-opacity="1" data-original-color="#9bf57dff" stroke="none" stroke-opacity="1"/><path style="" d="M245.56,68.046V0h-4.928c-3.236,0-5.923,2.496-6.163,5.722l-4.351,58.743&#xA;&#9;c-21.142,6.953-36.42,26.825-36.42,50.293c0,0,15.897-0.094,32.599-7.628c4.636,10.092,11.63,18.817,20.366,25.283&#xA;&#9;C246.664,132.414,223.492,100.046,245.56,68.046z" fill="#85c66d" fill-opacity="1" data-original-color="#8ce16eff" stroke="none" stroke-opacity="1"/><g>
</g><g>
</g><g>
</g><g>
</g><g>
</g><g>
</g><g>
</g><g>
</g><g>
</g><g>
</g><g>
</g><g>
</g><g>
</g><g>
</g><g>
</g></g></svg>