<svg id="Capa_1" enable-background="new 0 0 512 512" height="512" viewBox="0 0 512 512" width="512" xmlns="http://www.w3.org/2000/svg"><g><g><g><path d="m55.752 212.183c-3.251-1.435-6.999-1.164-10.02.709-4.284 2.657-8.315 5.853-12.184 8.99l-16.491 13.371c-2.741 2.223-6.58 2.494-9.607.679-3.756-2.253-5.126-6.992-3.164-10.874l21.578-41.294c2.031-3.887 6.538-5.781 10.735-4.512l26.049 9.375 1.565 8.07-3.022 10.32z" fill="#69d8e4"/></g><path d="m263.843 245.702-7.757-7.192c-7.358-6.822-16.505-11.408-26.373-13.223l-167.063-36.658-6.898 23.555 140.562 62.921c26.776 11.986 58.061-1.636 67.529-29.403z" fill="#057195"/></g><g><g><g><g><g><g><g><g><path d="m450.501 208.737c-7.328-13.45-70.861-32.95-133.881-4.825l-64.742 31.088-6.354 7.569 6.704 35.519 11.996 10.158c31.028-8.067 53.538-12.889 85.563-14.387l44.298-2.073c9.539-1.007 18.843-3.832 27.124-8.673 32.265-18.863 28.808-53.213 29.335-54.384z" fill="#fb74c4"/></g></g><g><path d="m57.478 316.45c-3.519.498-6.558 2.708-8.133 5.895-2.234 4.519-3.969 9.362-5.597 14.069l-6.94 20.064c-1.154 3.335-4.27 5.593-7.799 5.651-4.38.071-8.045-3.229-8.43-7.563l-3.488-46.461c-.328-4.373 2.498-8.362 6.733-9.502l27.07-5.798 5.591 6.026 2.885 10.359z" fill="#69d8e4"/></g><path d="m251.878 235-10.386-2.01c-9.851-1.907-20.041-.969-29.378 2.702l-161.22 57.113 6.584 23.644 206.747-28.203z" fill="#3590bb"/><path d="m450.501 208.737c-2.784-5.109-13.681-11.088-29.574-15.001-2.084 11.991-8.436 29.345-28.198 40.898-8.281 4.841-17.585 7.665-27.123 8.673l-44.298 2.073c-27.755 1.298-46.054 5.098-73.112 11.338l4.034 21.372 11.996 10.159c31.028-8.067 53.538-12.889 85.563-14.387l44.298-2.073c9.539-1.007 18.843-3.832 27.124-8.673 32.265-18.863 28.808-53.213 29.335-54.384z" fill="#fd4eb4"/><path d="m50.894 292.805 6.584 23.644 206.747-28.203-7.735-33.358c-6.948 1.469-13.866 3.088-20.746 4.877l-147.325 19.747z" fill="#0e80ac"/></g></g></g><g><path d="m437.359 362.148h19.003c5.38 0 7.237-7.157 2.536-9.773l-11.039-6.143c-3.136-1.745-5.492-4.618-6.589-8.035l-33.358-103.884c-2.738-8.532-11.694-13.411-20.347-11.084-9.525 2.561-14.801 12.742-11.402 22.001l44.008 105.466c2.894 6.936 9.673 11.452 17.188 11.452z" fill="#fff0dc"/></g></g><g><circle cx="464.389" cy="139.707" fill="#fa9801" r="16.047"/><path d="m441.086 163.093c15.047-15.716 39.985-16.258 55.701-1.21 15.716 15.047 16.258 39.985 1.21 55.701l-6.705 7.003c-15.047 15.716-39.985 16.258-55.701 1.211s-16.258-39.985-1.21-55.701z" fill="#fff0dc"/><path d="m496.787 161.883c-4.506-4.314-9.771-7.34-15.343-9.101 1.115 11.57-2.184 23.565-10.163 33.242 0 0-30.519 37.013-34.029 41.271 15.766 13.49 39.512 12.466 54.041-2.708l6.705-7.003c15.047-15.716 14.505-40.654-1.211-55.701z" fill="#ffe4c0"/><path d="m496.787 161.883c13.077 12.521 15.637 31.887 7.462 47.092l-21.536-20.62c-5.213-4.991-13.484-4.811-18.475.401-2.201 2.299-5.165 3.715-8.335 3.984l-32.408 2.746c.429-9.173 4.037-18.237 10.886-25.39l6.705-7.003c15.047-15.715 39.986-16.257 55.701-1.21z" fill="#fcb143"/><path d="m496.787 161.883c-4.506-4.314-9.771-7.34-15.343-9.101 1.07 11.093-1.932 22.572-9.213 32.029 3.712-.411 7.574.76 10.482 3.545l21.536 20.62c8.176-15.206 5.616-34.572-7.462-47.093z" fill="#fa9801"/></g></g><g><g><g><g><g><g><g><path d="m498.303 388.34h-484.606c-7.565 0-13.697-6.132-13.697-13.697 0-7.564 6.132-13.697 13.697-13.697h484.607c7.564 0 13.697 6.132 13.697 13.697-.001 7.565-6.133 13.697-13.698 13.697z" fill="#d0f0f3"/></g></g></g></g></g></g></g><path d="m498.303 360.947h-27.54v27.393h27.54c7.564 0 13.697-6.132 13.697-13.697 0-7.564-6.132-13.696-13.697-13.696z" fill="#a5e4ef"/></g></g></svg>