<?xml version="1.0" encoding="iso-8859-1"?>
<!-- Generator: Adobe Illustrator 19.0.0, SVG Export Plug-In . SVG Version: 6.00 Build 0)  -->
<svg version="1.1" id="Capa_1" xmlns="http://www.w3.org/2000/svg" xmlns:xlink="http://www.w3.org/1999/xlink" x="0px" y="0px"
	 viewBox="0 0 512 512" style="enable-background:new 0 0 512 512;" xml:space="preserve">
<path style="fill:#FFD5B3;" d="M370.594,335.171c-0.519,0-1.045-0.134-1.523-0.418l-14.523-8.586
	c-0.635-0.375-1.097-0.974-1.319-1.672l-8.518,13.903c-1.287,2.175-0.56,5.007,1.615,6.293l10.018,5.923
	c2.176,1.285,5.008,0.558,6.293-1.617l8.351-13.876C370.854,335.138,370.727,335.171,370.594,335.171z"/>
<path style="fill:#FF484E;" d="M386.365,273.495c0-2.566,0.223-5.047,0.635-7.442c-0.854,0.767-1.611,1.649-2.208,2.659
	l-32.037,54.191c-0.405,0.685-0.522,1.502-0.323,2.273c0.197,0.771,0.693,1.432,1.379,1.836l14.524,8.586
	c0.478,0.284,1.005,0.418,1.523,0.418c1.026,0,2.025-0.526,2.585-1.474l13.923-23.549v-37.498H386.365z"/>
<path style="fill:#368C0E;" d="M187.374,253.717c4.395,2.962,9.545,4.527,14.895,4.527c2.321,0,4.645-0.316,6.887-0.912v25.918h15
	v-25.918c2.241,0.596,4.564,0.912,6.886,0.912c5.349,0,10.499-1.565,14.895-4.527c7.771-5.237,12.253-14.31,11.697-23.686
	c-0.062-0.956-0.374-1.88-0.911-2.682c-0.541-0.797-1.283-1.435-2.145-1.843c-3.539-1.684-7.496-2.573-11.441-2.573
	c-5.349,0-10.499,1.565-14.895,4.527c-5.08,3.424-8.741,8.492-10.521,14.205c-0.348-0.05-0.701-0.084-1.063-0.084
	s-0.716,0.034-1.064,0.084c-1.78-5.713-5.441-10.781-10.521-14.205c-4.396-2.962-9.546-4.527-14.895-4.527
	c-3.946,0-7.902,0.89-11.439,2.572c-0.869,0.412-1.613,1.053-2.149,1.85c-0.536,0.797-0.851,1.725-0.908,2.684
	C175.122,239.407,179.604,248.48,187.374,253.717z"/>
<path style="fill:#F7931E;" d="M174.041,304.581c0.05,0.008,0.1,0.012,0.149,0.012c0.286,0,0.561-0.122,0.752-0.341
	c0.771-0.881,1.862-1.386,2.992-1.386h8.483l-2.916-17.328c-0.172-1.017,0.063-1.965,0.659-2.67c0.483-0.572,1.169-0.923,1.958-1.04
	l-28.554-4.326l-3.398,24.068L174.041,304.581z"/>
<path style="fill:#FCDB80;" d="M102.97,322.385c-7.284-1.688-15.554-7.122-20.033-13.202l-24.425-33.145
	c-4.635-6.291-3.287-15.182,3.004-19.819c2.454-1.808,5.357-2.764,8.396-2.764c4.491,0,8.76,2.155,11.419,5.767l24.368,33.067
	c0.792,0.892,2.679,2.133,3.732,2.488c0.056,0.019,0.112,0.032,0.171,0.041l45.556,6.902l10.703-75.81
	c0.845-5.201-0.425-10.245-3.48-13.836c-2.779-3.268-6.752-5.066-11.184-5.066H138.38c-8.284,4.969-17.939,7.833-28.247,7.833
	c-10.301,0-20.011-2.839-28.351-7.833H60c-9.356,0-17.959,7.851-19.57,17.792L13.205,369.494c-0.178,0.941,0.074,1.913,0.686,2.65
	c0.611,0.738,1.52,1.164,2.478,1.164l41.467-0.001l24.218-41.614c2.766-4.753,9.529-8.643,15.029-8.643h10.283L102.97,322.385z"/>
<g style="opacity:0.1;">
	<path d="M34.775,372.145c-0.611-0.737-0.863-1.709-0.686-2.65l27.225-144.693c1.611-9.941,10.214-17.792,19.57-17.792H60
		c-9.356,0-17.959,7.851-19.57,17.792L13.205,369.494c-0.178,0.941,0.074,1.913,0.686,2.65c0.611,0.738,1.52,1.164,2.478,1.164
		H37.25C36.293,373.309,35.386,372.882,34.775,372.145z"/>
</g>
<path style="fill:#FFB98A;" d="M110.133,214.842c-8.43,0-16.466-1.898-23.678-5.325v6.628c0,11.391,9.235,20.627,20.627,20.627
	c11.391,0,20.627-9.236,20.627-20.627v-4.201C122.181,213.814,116.274,214.842,110.133,214.842z"/>
<path style="fill:#FFD5B3;" d="M53.531,118.25c-0.232,1.974,0,15.444,0,15.444h-3.357c-6.055,0-11.008,4.954-11.008,11.009v12.736
	c0,6.055,4.953,11.01,11.008,11.01h4.215c4.634,26.921,27.82,47.393,55.744,47.393c31.26,0,56.6-25.646,56.6-57.287
	c0,0,0.232-38.331,0-40.305C166.733,118.25,53.531,118.25,53.531,118.25z"/>
<g>
	<path style="fill:#A75436;" d="M111.991,167.064h-4.338c-4.143,0-7.5-3.357-7.5-7.5s3.357-7.5,7.5-7.5h0.013v-5.684
		c0-4.143,3.357-7.5,7.5-7.5s7.5,3.357,7.5,7.5v9.973C122.666,162.26,117.877,167.064,111.991,167.064z"/>
	<path style="fill:#A75436;" d="M140.322,158.342c-4.143,0-7.5-3.357-7.5-7.5v-7.493c0-4.143,3.357-7.5,7.5-7.5s7.5,3.357,7.5,7.5
		v7.493C147.822,154.984,144.465,158.342,140.322,158.342z"/>
	<path style="fill:#A75436;" d="M87.682,158.342c-4.143,0-7.5-3.357-7.5-7.5v-7.493c0-4.143,3.357-7.5,7.5-7.5s7.5,3.357,7.5,7.5
		v7.493C95.182,154.984,91.824,158.342,87.682,158.342z"/>
	<path style="fill:#A75436;" d="M113.286,197.867c-11.456,0-21.619-6.892-25.892-17.557c-1.541-3.845,0.328-8.211,4.173-9.751
		c3.842-1.54,8.211,0.327,9.751,4.173c1.979,4.941,6.678,8.135,11.968,8.135c5.293,0,9.991-3.192,11.97-8.134
		c1.54-3.847,5.908-5.714,9.751-4.175c3.846,1.54,5.714,5.906,4.175,9.751C134.91,190.976,124.745,197.867,113.286,197.867z"/>
</g>
<path style="fill:#046699;" d="M132.871,326.915c1.329,1.697,2.129,3.825,2.129,6.136l0.025,87.859h36.795v-87.859
	c0-0.08-0.01-0.157-0.012-0.236L132.871,326.915z"/>
<path style="fill:#D48748;" d="M153,429.91v10.247c0,1.859-0.523,3.598-1.417,5.093h41.001c0.893-1.495,1.416-3.234,1.416-5.093
	V429.91c0-5.5-4.5-10-10-10h-40.895c-0.018,0-0.034,0.003-0.052,0.003C148.528,419.941,153,424.428,153,429.91z"/>
<path style="fill:#154884;" d="M107.365,323.051H97.082c-5.5,0-12.264,3.89-15.029,8.643l-24.218,41.614l-39.323,0.001v32.25
	c0,11.699,9.484,21.185,21.184,21.185h56.658c1.285-3.402,4.566-5.833,8.414-5.833h32.488v-87.859c0-2.138-0.687-4.12-1.841-5.75
	L107.365,323.051z"/>
<path d="M104.768,420.91H113v-38.74c0-4.143-3.357-7.5-7.5-7.5s-7.5,3.357-7.5,7.5v41.826
	C99.65,422.109,102.069,420.91,104.768,420.91z"/>
<path style="fill:#A75436;" d="M154.246,445.25c0.894-1.495,1.417-3.234,1.417-5.093V429.91c0-5.5-4.5-10-10-10h-40.896
	c-5.5,0-10,4.5-10,10v10.247c0,1.858,0.523,3.598,1.416,5.093H154.246z"/>
<path style="opacity:0.1;fill:#15004D;enable-background:new    ;" d="M116.941,445.25c-0.893-1.495-1.416-3.234-1.416-5.093V429.91
	c0-5.5,4.5-10,10-10h-20.758c-5.5,0-10,4.5-10,10v10.247c0,1.858,0.523,3.598,1.416,5.093H116.941z"/>
<path style="fill:#FFC12E;" d="M173.935,333.66v-26.794c0-1.25,0.587-2.353,1.487-3.087l-65.672-9.949
	c-0.881-0.298-2.627-1.441-3.247-2.134l-24.367-33.067c-4.97-6.748-14.468-8.186-21.214-3.215
	c-6.748,4.975-8.186,14.471-3.215,21.217l24.425,33.145c4.608,6.256,13.116,11.848,20.688,13.598l71.164,10.783
	C173.964,333.992,173.935,333.83,173.935,333.66z"/>
<path style="fill:#0481BF;" d="M169.904,108.25c-2.627-30.204-27.963-53.907-58.851-53.907c-30.886,0-56.224,23.703-58.851,53.907
	H169.904z"/>
<path style="opacity:0.1;fill:#15004D;enable-background:new    ;" d="M73.047,108.25c2.324-26.722,22.439-48.339,48.435-52.971
	c-3.387-0.604-6.867-0.937-10.428-0.937c-30.886,0-56.224,23.703-58.851,53.907L73.047,108.25L73.047,108.25z"/>
<g>
	<path style="fill:#046699;" d="M53.572,99.752h49.119c4.143,0,7.5-3.357,7.5-7.5s-3.357-7.5-7.5-7.5h-43.3
		C56.805,89.402,54.833,94.438,53.572,99.752z"/>
	<path style="fill:#046699;" d="M63.355,78.567h31.531c4.143,0,7.5-3.357,7.5-7.5s-3.357-7.5-7.5-7.5H79.369
		C73.142,67.532,67.707,72.625,63.355,78.567z"/>
</g>
<path style="fill:#D48748;" d="M235.741,345.441c2.75,0,5.373-2.219,5.83-4.931l9.223-54.807c0.457-2.712-1.42-4.931-4.17-4.931
	h-59.938c-2.75,0-4.627,2.219-4.17,4.931l9.224,54.807c0.457,2.712,3.08,4.931,5.83,4.931H235.741z"/>
<path style="opacity:0.1;fill:#15004D;enable-background:new    ;" d="M210.292,340.511l-9.224-54.807
	c-0.457-2.712,1.42-4.931,4.17-4.931h-18.553c-2.75,0-4.627,2.219-4.17,4.931l9.224,54.807c0.457,2.712,3.08,4.931,5.83,4.931
	h18.553C213.372,345.441,210.749,343.223,210.292,340.511z"/>
<path style="fill:#FFD5B3;" d="M203.039,333.66c0,2.75-2.25,5-5,5h-20.104c-2.75,0-5-2.25-5-5v-26.794c0-2.75,2.25-5,5-5h20.104
	c2.75,0,5,2.25,5,5V333.66z"/>
<path style="fill:#89C947;" d="M289.714,358.434c4.396,2.962,9.546,4.527,14.895,4.527c2.321,0,4.644-0.316,6.886-0.912v26.202h15
	v-26.202c2.242,0.596,4.564,0.912,6.887,0.912c5.349,0,10.499-1.565,14.895-4.527c7.771-5.237,12.253-14.31,11.697-23.685
	c-0.062-0.959-0.375-1.884-0.911-2.679c-0.54-0.798-1.282-1.437-2.145-1.847c-3.54-1.683-7.497-2.572-11.443-2.572
	c-5.348,0-10.498,1.564-14.893,4.526c-4.503,3.035-7.892,7.363-9.846,12.285c-0.559-0.133-1.14-0.211-1.74-0.211
	c-0.6,0-1.181,0.078-1.74,0.211c-1.953-4.922-5.342-9.25-9.845-12.285c-4.395-2.962-9.545-4.526-14.894-4.526
	c-3.947,0-7.903,0.89-11.441,2.572c-0.869,0.413-1.612,1.054-2.147,1.85c-0.538,0.799-0.853,1.727-0.908,2.685
	C277.462,344.123,281.943,353.195,289.714,358.434z"/>
<path style="fill:#D48748;" d="M294.079,445.227c0.001,0.008,0.005,0.016,0.007,0.023h49.818c0.002-0.008,0.006-0.016,0.007-0.023
	l9.223-54.807c0.457-2.712-1.42-4.931-4.17-4.931h-59.939c-2.75,0-4.627,2.219-4.17,4.931L294.079,445.227z"/>
<path style="opacity:0.1;fill:#15004D;enable-background:new    ;" d="M294.079,445.227c0.001,0.008,0.005,0.016,0.007,0.023h20.797
	c-0.001-0.008-0.005-0.016-0.006-0.023l-9.224-54.807c-0.457-2.712,1.42-4.931,4.17-4.931h-20.798c-2.75,0-4.627,2.219-4.17,4.931
	L294.079,445.227z"/>
<g>
	<path style="fill:#FFD5B3;" d="M425.44,431.25c0.108,0,0.208,0.025,0.315,0.032v-66.03h-22.413v65.998H425.44z"/>
	<path style="fill:#FFD5B3;" d="M464,431.25c0.107,0,0.209,0.025,0.315,0.032v-66.03h-22.412v65.998H464z"/>
</g>
<path style="fill:#FF484E;" d="M430.431,445.25c0.001-0.031,0.01-0.06,0.01-0.093v-11.626c0-2.75-2.25-5-5-5h-31.285
	c-2.75,0-5,2.25-5,5v11.626c0,0.032,0.009,0.062,0.01,0.093H430.431z"/>
<path style="fill:#C0272D;" d="M468.99,445.25c0.001-0.031,0.01-0.06,0.01-0.093v-11.626c0-2.75-2.25-5-5-5h-31.284
	c-2.75,0-5,2.25-5,5v11.626c0,0.032,0.009,0.062,0.01,0.093H468.99z"/>
<path style="fill:#A75436;" d="M433.164,96.919h-7.494c-37.934,0-68.686,30.857-68.686,68.923v33.834
	c0,24.73,12.988,46.406,32.485,58.566c3.288-6.497,8.453-11.919,15.318-15.896c7.546,4.12,16.057,6.296,24.65,6.296
	c9.356,0,18.52-2.547,26.535-7.37c7.062,3.635,12.544,8.828,16.206,15.119c17.922-12.438,29.672-33.195,29.672-56.715v-33.834
	C501.851,127.776,471.098,96.919,433.164,96.919z"/>
<path style="opacity:0.1;fill:#15004D;enable-background:new    ;" d="M395.002,250.195C381.477,237.611,373,219.644,373,199.676
	v-33.834c0-36.617,28.461-66.549,64.392-68.775c-1.399-0.087-2.806-0.147-4.228-0.147h-7.494c-37.934,0-68.686,30.857-68.686,68.923
	v33.834c0,24.73,12.988,46.406,32.485,58.566C390.941,255.333,392.789,252.639,395.002,250.195z"/>
<path style="fill:#FF6A76;" d="M478.427,276.496c0-16.964-9.005-29.628-22.499-36.368c-7.727,4.765-16.796,7.514-26.49,7.514
	c-8.94,0-17.344-2.343-24.658-6.443c-12.369,6.965-20.487,19.192-20.487,35.298v47.615h94.135v-47.616H478.427z"/>
<g style="opacity:0.1;">
	<path d="M415.047,245.521c-3.599-1.074-7.044-2.516-10.268-4.323c-12.369,6.965-20.487,19.192-20.487,35.298v47.615h16.573v-47.615
		C400.865,263.322,406.301,252.748,415.047,245.521z"/>
</g>
<path style="fill:#154884;" d="M487.204,364.368l-8.777-42.118h-94.135l-8.808,42.115c-0.308,1.474,0.064,3.008,1.014,4.177
	c0.95,1.168,2.375,1.847,3.881,1.847H482.31c1.505,0,2.93-0.678,3.88-1.846C487.139,367.375,487.512,365.842,487.204,364.368z"/>
<path style="opacity:0.1;fill:#15004D;enable-background:new    ;" d="M393.119,368.542c-0.949-1.169-1.321-2.703-1.014-4.177
	l8.808-42.115h-16.621l-8.808,42.115c-0.308,1.474,0.064,3.008,1.014,4.177c0.95,1.168,2.375,1.847,3.881,1.847H397
	C395.494,370.389,394.069,369.71,393.119,368.542z"/>
<path style="fill:#FFB98A;" d="M429.438,247.642c-4.069,0-8.023-0.498-11.82-1.413v8.926c0,6.132,4.974,11.106,11.106,11.106
	c6.136,0,11.108-4.975,11.108-11.106v-8.592C436.475,247.268,432.999,247.642,429.438,247.642z"/>
<path style="fill:#FFD5B3;" d="M429.438,248.642c28.679,0,52.013-23.579,52.013-52.564l0.002-28.95c0-1.12-0.477-2.193-1.313-2.945
	c-0.736-0.663-1.686-1.027-2.668-1.027c-0.135,0-0.268,0.007-0.404,0.023c-2.753,0.281-5.558,0.422-8.341,0.422
	c-17.457,0-34.703-5.832-48.573-16.422c-0.712-0.545-1.568-0.817-2.42-0.817c-0.79,0-1.578,0.232-2.263,0.701
	c-10.246,7.073-22.227,11.711-34.64,13.401c-1.971,0.268-3.438,1.945-3.443,3.929c-0.021,6.333,0.007,20.865,0.036,31.686
	C377.424,225.058,400.757,248.642,429.438,248.642z"/>
<g style="opacity:0.1;">
	<path d="M394.043,196.077c-0.015-5.521-0.029-22.459-0.037-38.567c-4.296,1.349-8.706,2.345-13.175,2.953
		c-1.971,0.268-3.438,1.945-3.443,3.929c-0.021,6.333,0.007,20.865,0.036,31.686c0,28.98,23.333,52.564,52.014,52.564
		c2.828,0,5.603-0.237,8.31-0.679C413.004,243.929,394.043,222.199,394.043,196.077z"/>
</g>
<g>
	<path style="fill:#A75436;" d="M428.33,207.528h-2.003c-5.809,0-10.535-4.74-10.535-10.567v-4.789c0-4.143,3.357-7.5,7.5-7.5
		s7.5,3.357,7.5,7.5v0.77c2.933,1.02,5.038,3.808,5.038,7.087C435.83,204.171,432.473,207.528,428.33,207.528z"/>
	<path style="fill:#A75436;" d="M400.639,199.311c-4.143,0-7.5-3.357-7.5-7.5v-3.676c0-4.143,3.357-7.5,7.5-7.5s7.5,3.357,7.5,7.5
		v3.676C408.139,195.953,404.781,199.311,400.639,199.311z"/>
	<path style="fill:#A75436;" d="M450.979,199.311c-4.143,0-7.5-3.357-7.5-7.5v-3.676c0-4.143,3.357-7.5,7.5-7.5s7.5,3.357,7.5,7.5
		v3.676C458.479,195.953,455.122,199.311,450.979,199.311z"/>
	<path style="fill:#A75436;" d="M425.81,233.492c-9.893,0-18.667-5.964-22.35-15.194c-1.535-3.848,0.339-8.211,4.186-9.746
		c3.845-1.538,8.21,0.337,9.746,4.186c1.396,3.496,4.7,5.755,8.419,5.755c3.718,0,7.024-2.26,8.42-5.757
		c1.537-3.846,5.901-5.717,9.747-4.183c3.847,1.536,5.719,5.9,4.183,9.747C444.474,227.528,435.701,233.492,425.81,233.492z"/>
</g>
<path style="fill:#368C0E;" d="M504.5,442.658H7.5c-4.143,0-7.5,3.357-7.5,7.5s3.357,7.5,7.5,7.5h497c4.143,0,7.5-3.357,7.5-7.5
	S508.643,442.658,504.5,442.658z"/>
<path style="fill:#046699;" d="M218.648,120.934h-208.5c-4.143,0-7.5-3.357-7.5-7.5s3.357-7.5,7.5-7.5h208.5
	c4.143,0,7.5,3.357,7.5,7.5S222.791,120.934,218.648,120.934z"/>
<path style="fill:#FFD5B3;" d="M438.521,338.172c-0.518,0-1.045-0.134-1.523-0.418l-14.523-8.586
	c-0.635-0.375-1.097-0.974-1.319-1.672l-8.518,13.903c-1.287,2.175-0.56,5.007,1.615,6.293l10.017,5.923
	c2.176,1.285,5.008,0.558,6.293-1.617l8.351-13.876C438.781,338.139,438.653,338.172,438.521,338.172z"/>
<path style="fill:#FF484E;" d="M437.784,339.017c-0.519,0-1.045-0.134-1.523-0.418l-14.523-8.586
	c-0.686-0.404-1.182-1.064-1.379-1.836c-0.198-0.77-0.082-1.588,0.323-2.272l32.037-54.191c2.047-3.466,5.823-5.618,9.854-5.618
	c2.038,0,4.047,0.551,5.81,1.594c5.428,3.21,7.232,10.237,4.025,15.663l-32.039,54.191
	C439.81,338.49,438.81,339.017,437.784,339.017z"/>
<g>
</g>
<g>
</g>
<g>
</g>
<g>
</g>
<g>
</g>
<g>
</g>
<g>
</g>
<g>
</g>
<g>
</g>
<g>
</g>
<g>
</g>
<g>
</g>
<g>
</g>
<g>
</g>
<g>
</g>
</svg>
