<svg id="Capa_1" enable-background="new 0 0 499.695 499.695" height="512" viewBox="0 0 499.695 499.695" width="512" xmlns="http://www.w3.org/2000/svg"><g><path d="m34.443 80.813h430.987v369.472h-430.987z" fill="#4e4b5e" transform="matrix(1 -.006 .006 1 -1.501 1.42)"/><path d="m408.751 260.969 23.648-.134 56.108 16.447-1.515-267.282c-.031-5.523-4.534-9.975-10.057-9.943l-23.006.13-86.144 10.488c-5.523.031-9.974 4.534-9.943 10.056l1.082 190.972c.155 27.364 22.463 49.421 49.827 49.266z" fill="#ff6a98"/><path d="m369.981 426.529-112.8 20.639-125.457-19.289 58.155-325.767 118.259-.67z" fill="#ff3888"/><path d="m366.858 426.547-313.256 1.774 51.648 70.85 262.011-1.485 9.798-35.626z" fill="#e9e9e9"/><path d="m486.936 0-25.506.144c5.523-.031 10.025 4.421 10.057 9.943l1.491 263.24 25.434-12.866-1.42-250.518c-.031-5.522-4.534-9.974-10.056-9.943z" fill="#ff3888"/><path d="m367.261 497.686-.403-71.139 92.933-.527-62.53 71.474z" fill="#d4d2d8"/><path d="m42.307 330.315-40.634-22.369-.253-44.669 40.41-17.119 11.222 39.161z" fill="#f5e082"/><path d="m42.267 323.253 25.418-15.681-.253-44.669-25.554-8.255z" fill="#f5bb6c"/><path d="m72.08 262.877-70.661.4-1.419-250.518c-.031-5.522 4.421-10.025 9.943-10.056l13.007-.074 80.244 25.651c5.523-.031 10.025 4.42 10.057 9.943l8.096 174.827c.154 27.363-21.903 49.672-49.267 49.827z" fill="#ff6a98"/><path d="m22.95 2.629.283 49.999c.288 50.797 33.798 93.63 79.814 108.034 4.167 1.304 7.031 5.126 7.055 9.493l.243 42.957c.155 27.364-21.902 49.672-49.266 49.827l30-.17c27.364-.155 49.421-22.463 49.265-49.827l-1.139-200.972c-.031-5.523-4.534-9.974-10.056-9.943z" fill="#ff3888"/><path d="m57.685 307.628-56.013.317 1.03 181.806c.031 5.523 4.534 9.975 10.057 9.943l67.491-.382 14.12-155.412c-.114-20.147-16.538-36.386-36.685-36.272z" fill="#ff6a98"/><path d="m67.685 307.572-25 .142c20.147-.114 36.571 16.125 36.685 36.272l.88 155.327 25-.142-.88-155.327c-.114-20.147-16.539-36.387-36.685-36.272z" fill="#ff3888"/><path d="m322.882 144.797-165.255.936c-62.884.356-114.151-50.333-114.508-113.218l-.17-30 380.98-2.159 12.17 29.932c.357 62.885-50.332 114.152-113.217 114.509z" fill="#ff6a98"/><path d="m423.93.357.17 30c.356 62.885-50.333 114.152-113.218 114.508l30-.17c62.885-.356 113.574-51.623 113.218-114.508l-.17-30z" fill="#ff3888"/><g><path d="m393.578 57.99-289.625 1.641c-4.142.023-7.519-3.315-7.542-7.457s3.315-7.519 7.457-7.542l289.625-1.641c4.142-.023 7.519 3.316 7.542 7.457.023 4.142-3.315 7.519-7.457 7.542z" fill="#e9e9e9"/></g><g><path d="m318.226 104.382-138.401.784c-4.142.023-7.519-3.315-7.542-7.457s3.315-7.519 7.457-7.542l138.401-.784c4.142-.023 7.519 3.315 7.542 7.457.024 4.142-3.315 7.519-7.457 7.542z" fill="#e9e9e9"/></g><path d="m432.652 305.504 40.451-9.943 16.592 191.432c.031 5.523-4.421 10.025-9.943 10.057l-82.491.467-.88-155.327c-.115-20.148 16.125-36.572 36.271-36.686z" fill="#ff6a98"/><path d="m473.078 291.067-9.803 34.848 10.223 39.236.691 121.929c.031 5.523-4.42 10.025-9.943 10.057l25.506-.145c5.523-.031 9.975-4.534 9.943-10.057l-1.03-181.806z" fill="#ff3888"/><g><path d="m466.04 372.693c-4.142.023-7.519-3.315-7.542-7.457l-.932-164.422c-.023-4.142 3.315-7.519 7.457-7.542s7.519 3.315 7.542 7.457l.932 164.422c.024 4.142-3.315 7.519-7.457 7.542z" fill="#e9e9e9"/></g><path d="m432.652 305.504 40.506-.23 1.874-22.345-2.127-22.323-40.506.229z" fill="#f5e082"/><path d="m473.032 260.533h25.507v44.669h-25.507z" fill="#f5bb6c" transform="matrix(-1 .006 -.006 -1 973.165 562.979)"/><g fill="#e9e9e9"><path d="m41.926 263.048-.339-59.877c-.023-4.142-3.4-7.481-7.542-7.457-4.142.023-7.481 3.4-7.457 7.542l.339 59.877z"/><path d="m27.179 307.801.339 59.877c.024 4.142 3.4 7.481 7.542 7.457 4.142-.023 7.481-3.4 7.457-7.542l-.339-59.877z"/></g><path d="m311.129 247.852c-2.636-2.351-6.162-3.48-9.674-3.099l-61.596 6.705c-6.392.695-11.184 6.068-11.148 12.498l.248 43.675 15.124 21.867-.359-63.372 56.6-6.162.35 61.825c.023 4.142 3.4 7.481 7.542 7.457 4.142-.023 7.481-3.4 7.457-7.542l-.366-64.596c-.019-3.531-1.542-6.906-4.178-9.256z" fill="#f5e082"/><g fill="#f5bb6c"><path d="m285.93 296.621c-16.322.092-29.537 11.495-29.458 25.419.079 13.923 13.422 25.175 29.744 25.083s29.536-11.495 29.457-25.418c-.078-13.924-13.421-25.176-29.743-25.084z"/><path d="m214.339 304.415c-16.322.092-29.537 11.495-29.458 25.419.079 13.923 13.422 25.175 29.744 25.083s29.536-11.495 29.458-25.418c-.079-13.925-13.422-25.177-29.744-25.084z"/></g></g></svg>