<svg id="Layer_1" enable-background="new 0 0 52 52" height="512" viewBox="0 0 52 52" width="512" xmlns="http://www.w3.org/2000/svg"><g id="_x34_1"><g><g><g><g><path d="m18.146 24.131h15.273v12.926h-15.273z" fill="#e83d62"/></g></g><g><g><path d="m34.6087608 21.7696495v2.1196556c0 .5067768-.4108238.9176006-.9175987.9176006h-15.8164501c-.5067768 0-.9176006-.4108238-.9176006-.9176006v-2.1196556c0-.5067768.4108238-.9176006.9176006-.9176006h15.8164501c.5067749 0 .9175987.4108238.9175987.9176006z" fill="#deddff"/></g></g><g><g><path d="m19.8735352 24.8076172h-1.9970913c-.5112019 0-.920187-.4089451-.920187-.9201469v-2.1197739c0-.5043793.4089851-.9133663.920187-.9133663h1.9970913c-.5043793 0-.9133663.408987-.9133663.9133663v2.1197739c-.0000001.5112018.408987.9201469.9133663.9201469z" fill="#c6c6f7"/></g></g></g><g><g><path d="m35.6639671 44.088356v-12.3859749c0-2.9357491-2.3798943-5.3156433-5.3156433-5.3156433h-9.1307735c-2.9357491 0-5.3156443 2.3798943-5.3156443 5.3156433v12.3859749z" fill="#65b9ff"/></g></g><g><g><path d="m31.404 34.023h.878v10.066h-.878z" fill="#3e7fff"/></g></g><g><g><path d="m22.3136845 26.3889389c-2.937706 0-5.316534 2.378788-5.316534 5.3164921v12.3832378h-1.0973701v-12.3832378c0-2.9377041 2.3787861-5.3164921 5.3164921-5.3164921z" fill="#3e7fff"/></g></g><g><g><g><g><path d="m28.4085827 24.8728085v2.0997314c0 1.4503784-1.1797581 2.6247215-2.6192703 2.6247215-.730608 0-1.380024-.2922573-1.8562622-.7684612-.4816208-.4762363-.7684593-1.1310711-.7684593-1.8562603v-2.0997314z" fill="#ffaf93"/></g></g><g><g><path d="m24.7502308 28.8125496.0162525.0162506c.3842125.3842144.8767014.6493855 1.4395123.7305737-.135294.0270519-.2760048.0378876-.4166832.0378876-.730608 0-1.380024-.2922573-1.8562622-.7684612-.4816208-.4762363-.7684593-1.1310711-.7684593-1.8562603v-1.2717495c.7522411.4924545 1.6559963.7792931 2.6247215.7792931.2380848 0 .4708195-.0162506.6981049-.0487194-1.0498829-.1515121-1.986105-.644001-2.7004604-1.3583221-.0974083-.0974407-.194849-.2002335-.2814217-.3084755h4.9030476v1.7696228c-.7847099.4167156-1.6722126.649416-2.6192703.649416-.0920238 0-.1785984 0-.2652035-.0054169-.8712846-.0432703-1.3854085 1.017412-.7738782 1.6343611z" fill="#ee8778"/></g></g><g><g><path d="m30.5915852 15.2854939v6.3912525c0 2.6534901-2.1510792 4.8045673-4.8045692 4.8045673h-.0000095c-2.6534901 0-4.8045673-2.1510773-4.8045673-4.8045673v-6.3912525z" fill="#ffaf93"/></g></g><g><g><path d="m30.5895367 15.2831621v6.3912802c0 .1515465-.0054169.3030586-.0216694.4491863-.0162182.2110653-.0541039.4166813-.1028233.6223316-.4816227 2.1430664-2.3919868 3.7341232-4.6757317 3.7341232-1.3258877 0-2.5273132-.5357571-3.3985977-1.4070415-.8712845-.8713188-1.4070435-2.0727119-1.4070435-3.3985996v-6.3912802z" fill="#ffaf93"/></g></g><g><g><path d="m31.6162243 20.6489925v-5.8190155s.0959167-2.9414797-3.8367138-3.772768c-4.5979366-.9719219-4.9397678 1.1190414-4.9397678 1.1190414h-.5435333c-1.3066921 0-2.3659744 1.0592823-2.3659744 2.3659735v6.1067686h1.0550976v-3.2452221c0-1.0947952.8875046-1.9822998 1.9822998-1.9822998h.0000019l.0749722.0846024c.6910934.7798576 1.6831799 1.2262745 2.725193 1.2262745h4.1405544c.3752327 0 .6794186.3041859.6794186.6794186v3.2372265h1.0284518z" fill="#ab604b"/></g></g><g><g><path d="m20.9836712 18.210907v2.4407063h-1.0552998v-2.0780945c.292223-.2273179.6548024-.3626118 1.0552998-.3626118z" fill="#ab604b"/></g></g><g><g><path d="m22.3907146 12.1762581h-.0945015c-1.3066959 0-2.3659916 1.0592623-2.3659916 2.3659582v6.1067877h1.0551014v-3.2452354c0-.8923912.5943546-1.6364756 1.4053917-1.8848z" fill="#8b4f4f"/></g></g><g><g><path d="m32.2814903 20.4414616c0 .9418907-.7554245 1.6972599-1.697258 1.6972599v-3.3851852c.9418335-.0000001 1.697258.7553691 1.697258 1.6879253z" fill="#ffaf93"/></g></g><g><g><path d="m31.0370922 18.8215561c-.144907-.039835-.294733-.0680103-.4528522-.0680103v3.3851871c.1581192 0 .3079453-.0282078.4528522-.0680752z" fill="#ee8778"/></g></g></g><g><g><path d="m26.4874172 26.4313641c-.2272854.0324688-.4600201.0487194-.6981049.0487194-.9687252 0-1.8724804-.2868385-2.6247215-.7792931-.2814217-.1840153-.535759-.3896313-.7738762-.6277485-.8712845-.8713188-1.4070435-2.0727119-1.4070435-3.3985996v.4654045c-.9416733 0-1.6992989-.7576256-1.6992989-1.6992664 0-.5357914.2489185-1.0120296.6439991-1.3258858.292223-.2273178.6548023-.3626118 1.0552998-.3626118v-1.3475227c0-.8875027.584446-1.6397438 1.3962078-1.8941135v6.1639957c0 1.1743431.4221344 2.2513103 1.1256561 3.0901241.0865726.108242.1840134.2110348.2814217.3084755.7143556.7143212 1.6505776 1.20681 2.7004605 1.3583222z" fill="#ee8778"/></g></g><g><g><g><g><path d="m26.1670437 21.0295982v.686079c0 .2329102-.1885662.4214745-.4214725.4214745-.2329102 0-.4214764-.1885643-.4214764-.4214745v-.686079c0-.2329082.1885662-.4214745.4214764-.4214745.1166668 0 .221714.0469246.2979145.123558.0762023.0762025.123558.181677.123558.2979165z" fill="#ee8778"/></g></g></g><g><g><path d="m24.2817783 23.1740532c.1503544.6914215.76511 1.2095413 1.5015697 1.2095337.7364655-.0000057 1.3512154-.518137 1.5015717-1.2095604z" fill="#ee8778"/></g></g></g></g><g><g><g><path d="m24.4265137 19.341198c-.0969753-.44594-.4934769-.7801094-.9684734-.7801094-.4750004 0-.8714981.3341694-.9684734.7801094z" fill="#312e4b"/></g></g><g><g><path d="m29.0836067 19.341198c-.0969753-.44594-.4934769-.7801094-.9684734-.7801094-.4749985 0-.8714962.3341694-.9684734.7801094z" fill="#312e4b"/></g></g></g><g><g><path d="m26.6582394 10.1824045c0 .4876537-.3968372.8875237-.8875961.8875237-.4876537 0-.8844929-.3998699-.8844929-.8875237 0-.4907589.3968391-.8875599.8844929-.8875599.4907588 0 .8875961.396801.8875961.8875599z" fill="#43a1ff"/></g></g><g><g><g><path d="m31.6164322 13.816391v1.9240265c-3.896883-1.4131308-7.7938309-1.4131308-11.6880608 0v-1.9240265c0-2.0055313 1.6250725-3.6333237 3.633358-3.6333237h4.4214115c2.0054989 0 3.6332913 1.6277924 3.6332913 3.6333237z" fill="#e83d62"/></g></g><g><g><path d="m31.6164322 14.6805439v1.0598736c-3.5680733-1.2935429-7.1362133-1.4022503-10.7015648-.3261232v.0027208c-.1630783.05165-.3288097.1005468-.4946079.1548834-.0760994.0217619-.1521969.0489302-.2309494.0760994-.0869789.0299215-.1739578.0597773-.2609386.0924196v-1.9240265c0-.9620132.3777733-1.828886.986496-2.4783773 0 1.3533535 1.0978889 2.4457684 2.413126 2.4457684.10602 0 .2119751-.0081272.3179283-.0217285 2.6550235-.3505708 5.3127669-.0462094 7.9705104.9184903z" fill="#ce2955"/></g></g><g><g><path d="m31.6164322 15.7404175-.4701271 1.3777676c-.1467552.421196-.5760784.6821003-1.0136299.6005955-2.926775-.5462246-5.831789-.5435047-8.7178268 0-.4402046.0815048-.8723145-.1793995-1.0163498-.6005955l-.4701271-1.3777676c3.8942298-1.4131308 7.7911777-1.4131308 11.6880607 0z" fill="#65b9ff"/></g></g><g><g><path d="m31.6164322 15.7404175-.4701271 1.3777676c-.1467552.421196-.5760784.6821003-1.0136299.6005955-2.926775-.5462246-5.831789-.5435047-8.7178268 0-.4402046.0815048-.8723145-.1793995-1.0163498-.6005955l-.4701271-1.3777676c.2310162-.08426.4619656-.1630783.6929817-.233736l.2907925.8560257c.1304359.3804588.5217438.6168823.9184914.5435028 2.6115665-.4918537 5.2393875-.4945736 7.8862495 0 .3940277.0733795.7826805-.163044.9158363-.5435028l.2907944-.8560257c.2309493.0706577.4619655.149476.6929149.233736z" fill="#3e7fff"/></g></g></g><g><g><path d="m32.281 34.023h3.385v10.066h-3.385z" fill="#ffaf93"/></g></g><g><g><path d="m15.902 34.023h3.385v10.066h-3.385z" fill="#ffaf93"/></g></g><g><g><path d="m15.9 34.023h1.097v10.066h-1.097z" fill="#ee8778"/></g></g><g><g><path d="m19.291 34.023h.878v10.066h-.878z" fill="#3e7fff"/></g></g><g><g><g><g><path d="m32.2786674 35.972271v1.4449921c-.3066864-.0544968-.5998116-.1499329-.8724289-.2862587-1.0973701-.5452766-1.8607616-1.6767578-1.8607616-2.9922485v-7.7838879c0-.1567554.1295071-.2862606.2862625-.2862606h.8383579c.1567535 0 .2862606.1295052.2862606.2862606v7.7838879c0 .4634857.16362.8928986.4498806 1.2269211.2181187.2794379.5248471.490734.8724289.606594z" fill="#fcb73e"/></g></g></g></g><g><g><g><g><path d="m19.2843723 35.9720688c.7692947-.2541656 1.3272228-.9792404 1.3272228-1.8322029v-7.7883072c0-.1553841.1259823-.2813663.2813663-.2813663h.8441029c.155386 0 .2813683.1259823.2813683.2813663v7.7883072c0 1.6340599-1.181181 2.9947014-2.7340603 3.2796059z" fill="#fcb73e"/></g></g></g></g><g><g><path d="m32.2786674 35.972271v1.4449921c-.3066864-.0544968-.5998116-.1499329-.8724289-.2862587v-1.7653275c.2181187.279438.5248471.4907341.8724289.6065941z" fill="#fd982e"/></g></g><g><g><path d="m19.293869 35.972271v1.4449921c.3066883-.0544968.5998135-.1499329.8724308-.2862587v-1.7653275c-.2181186.279438-.5248489.4907341-.8724308.6065941z" fill="#fd982e"/></g></g></g><g><g><g><path d="m25.9988995 2c0 2.6166363-2.1281891 4.7378411-4.7448254 4.7378411s-4.7378426-2.1212048-4.7378426-4.7378411z" fill="#46cc6b"/></g></g><g><g><path d="m35.3473282 2c0 3.2991519-2.6833 5.9736447-5.9824505 5.9736447s-5.9736462-2.6744928-5.9736462-5.9736447z" fill="#46cc6b"/></g></g><g><g><g><g><g><path d="m40.4181709 25.0087891c-.3464394.323267-.8967438.3018646-.8967438.3018646s.0166931-.5504074.3631325-.8736744c.3516922-.3281708.9019623-.3068047.9019623-.3068047s-.0166588.5504437-.368351.8786145z" fill="#46cc6b"/></g></g><g><g><path d="m42.0690308 25.7751274c-.3464394.323267-.8967438.3018646-.8967438.3018646s.0166931-.5504074.3631325-.8736744c.351696-.3281708.9019661-.3068047.9019661-.3068047s-.0166588.5504437-.3683548.8786145z" fill="#46cc6b"/></g></g><g><g><path d="m41.7113647 23.4730644c.115406.3754978-.1001129.7780285-.1001129.7780285s-.4043465-.2119999-.5197525-.5874977c-.117157-.3811932.0983238-.7837124.0983238-.7837124s.4043847.2119885.5215416.5931816z" fill="#46cc6b"/></g></g><g><g><path d="m44.2454185 5.6753411v18.8811031l-4.8657836-6.1210327-.215149.1673584 3.4788819 5.8101806-2.307312-.5618286-.1913453.1553955 3.1681519 1.4943848.9325561 1.5900879v9.9797992h5.7264405v-31.3954482z" fill="#c7754f"/></g></g><g><g><path d="m41.6939278 19.508976c-.0000191.7890053-.6513367 1.4346218-.6513367 1.4346218s-.6511993-.6456299-.6511841-1.4346333c.0000191-.800972.6512527-1.4465866.6512527-1.4465866s.6512833.645628.6512681 1.4465981z" fill="#46cc6b"/></g></g><g><g><path d="m38.7828026 19.1269436c.6941071.0000153 1.2620735.5729961 1.2620735.5729961s-.5679779.5728798-1.262085.5728626c-.7046356-.0000153-1.2726021-.5729198-1.2726021-.5729198s.567978-.5729542 1.2726136-.5729389z" fill="#46cc6b"/></g></g></g><g><g><path d="m46.0994148 17.9062328v4.150074c0 .1931458-.1618271.3549709-.3549728.3549709-.1983681 0-.354969-.1618252-.354969-.3549709v-4.150074c0-.19837.156601-.3549709.354969-.3549709.1931457 0 .3549728.156601.3549728.3549709z" fill="#ab604b"/></g></g><g><g><path d="m48.0369148 17.1492939v2.6500759c0 .1931458-.1618271.3549709-.3549728.3549709-.1983681 0-.354969-.1618252-.354969-.3549709v-2.6500759c0-.19837.156601-.3549709.354969-.3549709.1931457 0 .3549728.1566009.3549728.3549709z" fill="#ab604b"/></g></g><g><g><path d="m49.2869148 24.4848614v2.650074c0 .1931458-.1618271.3549709-.3549728.3549709-.1983681 0-.354969-.1618252-.354969-.3549709v-2.650074c0-.1983719.156601-.3549709.354969-.3549709.1931457-.0000001.3549728.156599.3549728.3549709z" fill="#ab604b"/></g></g><g><g><path d="m46.4543839 26.4848614v1.650074c0 .1931458-.1618233.3549709-.354969.3549709-.1983719 0-.3549728-.1618252-.3549728-.3549709v-1.650074c0-.1983719.156601-.3549709.3549728-.3549709.1931457-.0000001.354969.156599.354969.3549709z" fill="#ab604b"/></g></g><g><g><path d="m47.681942 22.246048v1.6500759c0 .1931438-.1618233.354969-.354969.354969-.1983719 0-.354969-.1618252-.354969-.354969v-1.6500759c0-.19837.1565971-.3549709.354969-.3549709.1931457-.0000001.354969.1566009.354969.3549709z" fill="#ab604b"/></g></g><g><g><path d="m46.0994148 14.371048v1.6500759c0 .1931438-.1618271.354969-.3549728.354969-.1983681 0-.354969-.1618252-.354969-.354969v-1.6500759c0-.19837.156601-.35497.354969-.35497.1931457 0 .3549728.1566.3549728.35497z" fill="#ab604b"/></g></g><g><g><path d="m49.2869148 14.789278v1.6500759c0 .1931438-.1618271.354969-.3549728.354969-.1983681 0-.354969-.1618252-.354969-.354969v-1.6500759c0-.1983709.156601-.3549709.354969-.3549709.1931457 0 .3549728.1566.3549728.3549709z" fill="#ab604b"/></g></g></g><g><g><path d="m50.0006676 2v10.2133226c-.718605.8166294-1.7639122 1.3392515-2.9289818 1.3392515-.1306534 0-.250412-.0108328-.3810654-.0217314-.8492622-.0762272-1.6114616-.4246635-2.2103119-.9581842-.141552-.1306553-.2722092-.2613115-.3920326-.4028654-.2286148.1741848-.4899902.3266382-.7621994.4245968-.3157387.1198225-.6641769.1851501-1.0126152.1851501-1.83778 0-3.0473213-1.7410278-2.8309555-3.0379047-1.231636-.0691757-2.0015144-1.3015976-1.655056-2.3409662-3.4375839.5090699-6.6936016-1.9020329-7.1863174-5.4006691z" fill="#46cc6b"/></g></g></g><g><g><g><g><g><path d="m11.5865088 25.0087891c.3464384.323267.8967438.3018646.8967438.3018646s-.0166941-.5504074-.3631325-.8736744c-.3516941-.3281708-.9019642-.3068047-.9019642-.3068047s.0166597.5504437.3683529.8786145z" fill="#46cc6b"/></g></g><g><g><path d="m9.935647 25.7751274c.3464384.323267.8967438.3018646.8967438.3018646s-.0166941-.5504074-.3631325-.8736744c-.3516941-.3281708-.9019642-.3068047-.9019642-.3068047s.0166598.5504437.3683529.8786145z" fill="#46cc6b"/></g></g><g><g><path d="m10.293313 23.4730644c-.115406.3754978.1001129.7780285.1001129.7780285s.4043474-.2119999.5197535-.5874977c.117157-.3811932-.0983229-.7837124-.0983229-.7837124s-.4043865.2119885-.5215435.5931816z" fill="#46cc6b"/></g></g><g><g><path d="m7.7592587 5.6753411v18.8811031l4.8657833-6.1210327.2151489.1673584-3.4788818 5.8101806 2.307312-.5618286.1913452.1553955-3.1681519 1.4943848-.9325557 1.5900879v9.9797992h-5.7264404v-31.3954482z" fill="#c7754f"/></g></g><g><g><path d="m10.3107529 19.508976c.0000172.7890053.6513329 1.4346218.6513329 1.4346218s.6512022-.6456299.6511841-1.4346333c-.0000181-.800972-.6512489-1.4465866-.6512489-1.4465866s-.6512863.645628-.6512681 1.4465981z" fill="#46cc6b"/></g></g><g><g><path d="m13.2218771 19.1269436c-.694108.0000153-1.2620735.5729961-1.2620735.5729961s.567976.5728798 1.262084.5728626c.7046366-.0000153 1.2726011-.5729198 1.2726011-.5729198s-.567976-.5729542-1.2726116-.5729389z" fill="#46cc6b"/></g></g></g><g><g><path d="m5.9052649 17.9062328v4.150074c0 .1931458.1618252.3549709.3549705.3549709.1983705 0 .3549705-.1618252.3549705-.3549709v-4.150074c0-.19837-.1566-.3549709-.3549705-.3549709-.1931454 0-.3549705.156601-.3549705.3549709z" fill="#ab604b"/></g></g><g><g><path d="m3.9677646 17.1492939v2.6500759c0 .1931458.1618254.3549709.3549707.3549709.1983705 0 .3549705-.1618252.3549705-.3549709v-2.6500759c0-.19837-.1566-.3549709-.3549705-.3549709-.1931453 0-.3549707.1566009-.3549707.3549709z" fill="#ab604b"/></g></g><g><g><path d="m2.7177646 24.4848614v2.650074c0 .1931458.1618254.3549709.3549707.3549709.1983705 0 .3549705-.1618252.3549705-.3549709v-2.650074c0-.1983719-.1566-.3549709-.3549705-.3549709-.1931453-.0000001-.3549707.156599-.3549707.3549709z" fill="#ab604b"/></g></g><g><g><path d="m5.5502939 26.4848614v1.650074c0 .1931458.1618252.3549709.3549709.3549709.1983705 0 .3549705-.1618252.3549705-.3549709v-1.650074c0-.1983719-.1566-.3549709-.3549705-.3549709-.1931457-.0000001-.3549709.156599-.3549709.3549709z" fill="#ab604b"/></g></g><g><g><path d="m4.3227353 22.246048v1.6500759c0 .1931438.1618252.354969.3549705.354969.1983705 0 .3549705-.1618252.3549705-.354969v-1.6500759c0-.19837-.1566-.3549709-.3549705-.3549709-.1931453-.0000001-.3549705.1566009-.3549705.3549709z" fill="#ab604b"/></g></g><g><g><path d="m5.9052649 14.371048v1.6500759c0 .1931438.1618252.354969.3549705.354969.1983705 0 .3549705-.1618252.3549705-.354969v-1.6500759c-.0000001-.4726343-.709941-.4674092-.709941 0z" fill="#ab604b"/></g></g><g><g><path d="m2.7177646 14.789278v1.6500759c0 .1931438.1618254.354969.3549707.354969.1983705 0 .3549705-.1618252.3549705-.354969v-1.6500759c0-.1983709-.1566-.3549709-.3549705-.3549709-.1931453 0-.3549707.1566-.3549707.3549709z" fill="#ab604b"/></g></g></g><g><g><path d="m2.0040097 2v10.2133226c1.5971916 1.8150644 4.3760133 1.771493 5.9123921-.0435295 2.1462879 1.6352968 4.9565172-.3258181 4.6057711-2.4281578.9690838-.0544291 1.7312841-.8492613 1.7312841-1.8292432 0-.1741853-.0217981-.3484368-.0762262-.511723.2939415.04353.5988483.0653281.9036894.0653281 3.2011919 0 5.8471308-2.3736629 6.2826262-5.4659972h-19.3595367z" fill="#46cc6b"/></g></g></g><g><g><path d="m33.0306969 48.2528572h-14.0599957c-.662302-4.6320724 2.901907-8.2000122 7.0299683-8.2000122 4.1066742 0 7.694582 3.5465279 7.0300274 8.2000122z" fill="#179c5f"/></g></g><g><g><g><path d="m12.3034897 50v-.0147552h-10.3041585v-20.3429852c.5012438-.1326199 1.0171537-.2063999 1.5478191-.2063999 3.2726166 0 5.9703007 2.4912853 6.2945662 5.675457.2211552-.0147552.4422207-.0295105.6781321-.0295105 3.4936829 0 6.323987 2.8450623 6.323987 6.3387413 0 .2948456-.0147552.5896912-.0736885.8845329.2653332-.0442657.5306664-.059021.8107548-.059021 2.4912834 0 4.6140366 1.606842 5.3658562 3.8475494 3.0578958-1.1652107 6.5836794.5838318 7.4443418 3.9063912z" fill="#179c5f"/></g></g><g><g><path d="m6.0218792 49.9945107s11.9773102-9.9503822 12.4840431-14.5109711c-6.7548723.4344482-12.2998667 3.2346115-16.5019126 8.6605148l.0000181 5.8411903z" fill="#46cc6b"/></g></g><g><g><path d="m8.0045414 29.2231846c-.5930166 2.8538914-2.9168601 5.9044514-6.0005317 9.0413303v-4.2778702c1.3433988-2.4394245 3.2436452-4.1567554 6.0005317-4.7634601z" fill="#46cc6b"/></g></g><g><g><path d="m23.1125813 42.7390251s-2.3543453 3.1595192-10.2638502 4.3437538c1.8789224-3.8157997 4.9735708-5.7653503 10.2638502-4.3437538z" fill="#46cc6b"/></g></g><g><g><g><path d="m20.2785854 43.7055244c-4.275013 1.1055984-9.2280712 4.8203468-11.0412226 6.2797203h-.7076444c1.3562651-1.1055984 6.8842545-5.4689674 11.6309128-6.7072754.2735615-.0684432.4173698.3525849.1179542.4275551z" fill="#34ba5d"/></g></g></g></g><g><g><g><path d="m39.6951714 50v-.0147552h10.3041611v-20.3429852c-.5012436-.1326199-1.0171547-.2063999-1.547821-.2063999-3.2726173 0-5.9702988 2.4912853-6.2945671 5.675457-.2211533-.0147552-.4422188-.0295105-.6781311-.0295105-3.4936829 0-6.3239861 2.8450623-6.3239861 6.3387413 0 .2948456.0147552.5896912.0736885.8845329-2.5262527-.4214706-5.2766514 1.106308-6.1766129 3.7885284-3.0578938-1.1652107-6.5836773.5838318-7.4443398 3.9063912z" fill="#179c5f"/></g></g><g><g><path d="m45.9767838 49.9945107s-11.9773102-9.9503822-12.4840431-14.5109711c6.7548714.4344482 12.2998657 3.2346115 16.5019112 8.6605148l-.0000191 5.8411903z" fill="#46cc6b"/></g></g><g><g><path d="m43.9941216 30.1294346c.5930176 2.8538914 2.9168587 5.9044514 6.0005302 9.0413303v-4.2778702c-1.3433991-2.4394264-3.2436447-4.1567554-6.0005302-4.7634601z" fill="#46cc6b"/></g></g><g><g><path d="m28.8860817 42.7390251s2.3543434 3.1595192 10.2638512 4.3437538c-1.8789254-3.8157997-4.9735718-5.7653503-10.2638512-4.3437538z" fill="#46cc6b"/></g></g><g><g><g><path d="m31.7200756 43.7055244c4.2750149 1.1055984 9.2280712 4.8203468 11.0412235 6.2797203h.7076454c-1.356266-1.1055984-6.8842545-5.4689674-11.6309128-6.7072754-.2735614-.0684432-.4173698.3525849-.1179561.4275551z" fill="#34ba5d"/></g></g></g></g></g><g><g><g><path d="m39.9696846 4.6864862c-.5579185.5578957-1.4749794.5538621-1.4749794.5538621s-.0039444-.9169974.5539742-1.4748929c.5663834-.5663569 1.4833832-.5623832 1.4833832-.5623832s.0040015.9170569-.562378 1.483414z" fill="#179c5f"/></g></g><g><g><path d="m48.3538132 10.4736605c-.462429.4624071-1.2225266.4590645-1.2225266.4590645s-.0032692-.760046.4591599-1.2224531c.4694405-.4694204 1.2294884-.4661274 1.2294884-.4661274s.0033149.7600955-.4661217 1.229516z" fill="#179c5f"/></g></g><g><g><path d="m35.7947502 3.9921126c.4613991.4628625.458065 1.2229676.458065 1.2229676s-.7583847.0025592-1.2197838-.4603033c-.468399-.469883-.4651146-1.2299385-.4651146-1.2299385s.7584344-.0026083 1.2268334.4672742z" fill="#179c5f"/></g></g><g><g><path d="m46.4029045 4.7840304c.5579529.5578871.5539474 1.4749408.5539474 1.4749408s-.917057.0039849-1.4750099-.5539021c-.5664139-.5663486-.5624695-1.4833426-.5624695-1.4833426s.9171181-.0040446 1.483532.5623039z" fill="#179c5f"/></g></g><g><g><path d="m43.3638115 8.1813984c.0007057 1.0486736-.8652344 1.9070311-.8652344 1.9070311s-.8669853-.8578472-.8676949-1.9065208c-.0007172-1.0645785.8651123-1.9229364.8651123-1.9229364s.867096.8578471.867817 1.9224261z" fill="#179c5f"/></g></g></g><g><g><g><path d="m12.1056681 4.6864862c.5579176.5578957 1.4749804.5538621 1.4749804.5538621s.0039415-.9169974-.553977-1.4748929c-.5663805-.5663569-1.4833822-.5623832-1.4833822-.5623832s-.0040017.9170569.5623788 1.483414z" fill="#179c5f"/></g></g><g><g><path d="m3.7215405 10.4736605c.4624262.4624071 1.2225261.4590645 1.2225261.4590645s.0032668-.760046-.4591594-1.2224531c-.46944-.4694204-1.22949-.4661274-1.22949-.4661274s-.0033167.7600955.4661233 1.229516z" fill="#179c5f"/></g></g><g><g><path d="m16.2806034 3.9921126c-.4613991.4628625-.4580669 1.2229676-.4580669 1.2229676s.7583847.0025592 1.2197838-.4603033c.4683971-.469883.4651146-1.2299385.4651146-1.2299385s-.7584344-.0026083-1.2268315.4672742z" fill="#179c5f"/></g></g><g><g><path d="m5.6724472 4.7840304c-.5579519.5578871-.5539484 1.4749408-.5539484 1.4749408s.9170594.0039849 1.4750113-.5539021c.5664139-.5663486.5624705-1.4833427.5624705-1.4833427s-.9171195-.0040445-1.4835334.562304z" fill="#179c5f"/></g></g><g><g><path d="m8.7115421 8.1813984c-.0007067 1.0486736.8652344 1.9070311.8652344 1.9070311s.8669853-.8578472.867692-1.9065208c.0007181-1.0645785-.8651104-1.9229364-.8651104-1.9229364s-.8670979.8578471-.867816 1.9224261z" fill="#179c5f"/></g></g></g></g></svg>