<svg height="512pt" viewBox="-83 0 512 512" width="512pt" xmlns="http://www.w3.org/2000/svg"><path d="m77.730469 512c-7.492188 0-13.566407-6.074219-13.566407-13.566406v-25.351563c0-7.492187 6.074219-13.5625 13.566407-13.5625 7.492187 0 13.566406 6.070313 13.566406 13.5625v25.351563c0 7.492187-6.074219 13.566406-13.566406 13.566406zm0 0" fill="#9c9c9c"/><path d="m77.730469 459.515625c-2.121094 0-4.121094.503906-5.910157 1.371094 4.527344 2.199219 7.65625 6.824219 7.65625 12.195312v25.351563c0 5.371094-3.128906 10-7.65625 12.195312 1.789063.867188 3.789063 1.371094 5.910157 1.371094 7.492187 0 13.566406-6.074219 13.566406-13.566406v-25.351563c0-7.492187-6.074219-13.566406-13.566406-13.566406zm0 0" fill="#838383"/><path d="m268.488281 512c-7.492187 0-13.566406-6.074219-13.566406-13.566406v-25.351563c0-7.492187 6.074219-13.5625 13.566406-13.5625 7.492188 0 13.5625 6.070313 13.5625 13.5625v25.351563c.003907 7.492187-6.070312 13.566406-13.5625 13.566406zm0 0" fill="#9c9c9c"/><path d="m268.488281 459.515625c-2.121093 0-4.121093.503906-5.910156 1.371094 4.527344 2.199219 7.65625 6.824219 7.65625 12.195312v25.351563c0 5.371094-3.128906 10-7.65625 12.195312 1.789063.867188 3.789063 1.371094 5.910156 1.371094 7.492188 0 13.5625-6.074219 13.5625-13.566406v-25.351563c.003907-7.492187-6.070312-13.566406-13.5625-13.566406zm0 0" fill="#838383"/><path d="m297.117188 477.554688h-249.042969c-8.285157 0-15-6.714844-15-15v-90.671876h279.042969v90.671876c0 8.285156-6.714844 15-15 15zm0 0" fill="#9c9c9c"/><path d="m275.84375 371.886719v71.371093c0 8.511719-6.902344 15.414063-15.417969 15.414063h-227.351562v3.46875c0 8.515625 6.902343 15.417969 15.414062 15.417969h248.210938c8.515625 0 15.417969-6.902344 15.417969-15.417969v-90.253906zm0 0" fill="#838383"/><path d="m346.21875 112.429688c0-62.09375-50.335938-112.429688-112.429688-112.429688h-121.359374c-62.09375 0-112.429688 50.335938-112.429688 112.429688v220.910156c0 8.339844 2.832031 16.429687 8.03125 22.945312l37.734375 47.292969c4.921875 6.167969 12.382813 9.757813 20.273437 9.757813h214.140626c7.890624 0 15.351562-3.589844 20.273437-9.757813l37.734375-47.292969c5.199219-6.519531 8.03125-14.605468 8.03125-22.945312zm0 0" fill="#ffd500"/><path d="m233.789062 0h-60.664062c62.09375 0 112.429688 50.335938 112.429688 112.429688v220.910156c0 8.339844-2.832032 16.429687-8.03125 22.945312l-37.734376 47.292969c-4.921874 6.167969-12.382812 9.757813-20.273437 9.757813h60.664063c7.890624 0 15.351562-3.589844 20.269531-9.757813l37.738281-47.292969c5.199219-6.519531 8.03125-14.605468 8.03125-22.945312v-220.910156c0-62.09375-50.335938-112.429688-112.429688-112.429688zm0 0" fill="#fbc700"/><path d="m299.003906 257.84375h-251.789062c-7.832032 0-14.179688-6.347656-14.179688-14.179688v-136.488281c0-7.832031 6.347656-14.183593 14.179688-14.183593h251.789062c7.832032 0 14.179688 6.351562 14.179688 14.183593v136.488281c0 7.832032-6.347656 14.179688-14.179688 14.179688zm0 0" fill="#5a5a5a"/><path d="m101.695312 344.476562h-49.660156c-10.496094 0-19-8.503906-19-19v-7.21875c0-10.492187 8.503906-19 19-19h49.660156c10.492188 0 19 8.507813 19 19v7.21875c0 10.496094-8.507812 19-19 19zm0 0" fill="#5a5a5a"/><path d="m79.480469 321.867188c0 5.363281-4.351563 9.714843-9.714844 9.714843s-9.710937-4.351562-9.710937-9.714843c0-5.363282 4.347656-9.710938 9.710937-9.710938s9.714844 4.347656 9.714844 9.710938zm0 0" fill="#e7e7e7"/><path d="m243.914062 344.476562h49.660157c10.492187 0 19-8.503906 19-19v-7.21875c0-10.492187-8.507813-19-19-19h-49.660157c-10.492187 0-19 8.507813-19 19v7.21875c0 10.496094 8.507813 19 19 19zm0 0" fill="#5a5a5a"/><path d="m101.167969 299.257812h-20.554688c10.785157 0 19.527344 8.742188 19.527344 19.527344v6.164063c0 10.785156-8.746094 19.527343-19.527344 19.527343h20.554688c10.78125 0 19.527343-8.742187 19.527343-19.527343v-6.164063c0-10.785156-8.742187-19.527344-19.527343-19.527344zm0 0" fill="#444"/><path d="m293.046875 299.257812h-20.554687c10.785156 0 19.527343 8.742188 19.527343 19.527344v6.164063c0 10.785156-8.742187 19.527343-19.527343 19.527343h20.554687c10.785156 0 19.527344-8.742187 19.527344-19.527343v-6.164063c0-10.785156-8.742188-19.527344-19.527344-19.527344zm0 0" fill="#444"/><path d="m258.164062 321.867188c0 5.363281-4.347656 9.714843-9.714843 9.714843-5.363281 0-9.710938-4.351562-9.710938-9.714843 0-5.363282 4.347657-9.710938 9.710938-9.710938 5.367187 0 9.714843 4.347656 9.714843 9.710938zm0 0" fill="#ff6930"/><path d="m285.554688 321.867188c0 5.363281-4.347657 9.714843-9.710938 9.714843s-9.714844-4.351562-9.714844-9.714843c0-5.363282 4.351563-9.710938 9.714844-9.710938s9.710938 4.347656 9.710938 9.710938zm0 0" fill="#e7e7e7"/><path d="m197.699219 436.460938h-49.179688c-8.699219 0-15.75-7.050782-15.75-15.75v-49.179688c0-8.695312 7.050781-15.75 15.75-15.75h49.179688c8.695312 0 15.75 7.054688 15.75 15.75v49.179688c0 8.699218-7.054688 15.75-15.75 15.75zm0 0" fill="#e7e7e7"/><path d="m197.261719 355.785156h-25.902344c8.941406 0 16.1875 7.246094 16.1875 16.1875v48.300782c0 8.941406-7.246094 16.1875-16.1875 16.1875h25.902344c8.9375 0 16.1875-7.246094 16.1875-16.1875v-48.304688c0-8.9375-7.25-16.183594-16.1875-16.183594zm0 0" fill="#cecece"/><path d="m196.519531 396.121094c0 5.367187-4.351562 9.714844-9.714843 9.714844-5.363282 0-9.710938-4.347657-9.710938-9.714844 0-5.363282 4.347656-9.710938 9.710938-9.710938 5.363281 0 9.714843 4.347656 9.714843 9.710938zm0 0" fill="#5a5a5a"/><path d="m169.125 396.121094c0 5.367187-4.347656 9.714844-9.710938 9.714844-5.367187 0-9.714843-4.347657-9.714843-9.714844 0-5.363282 4.347656-9.710938 9.714843-9.710938 5.363282 0 9.710938 4.347656 9.710938 9.710938zm0 0" fill="#5a5a5a"/><path d="m33.035156 128.652344h280.148438v90.273437h-280.148438zm0 0" fill="#d5f3f7"/><path d="m298.609375 92.992188h-47.054687c8.050781 0 14.574218 6.527343 14.574218 14.574218v135.703125c0 8.050781-6.523437 14.574219-14.574218 14.574219h47.054687c8.050781 0 14.574219-6.523438 14.574219-14.574219v-135.703125c0-8.046875-6.523438-14.574218-14.574219-14.574218zm0 0" fill="#444"/><path d="m173.359375 247.640625c-4.253906 0-7.707031-3.453125-7.707031-7.707031v-131.457032c0-4.253906 3.453125-7.707031 7.707031-7.707031 4.257813 0 7.710937 3.453125 7.710937 7.707031v131.457032c0 4.257812-3.453124 7.707031-7.710937 7.707031zm0 0" fill="#5a5a5a"/><path d="m266.128906 128.652344h47.054688v90.273437h-47.054688zm0 0" fill="#a7e8f1"/><path d="m106.871094 321.867188c0 5.363281-4.351563 9.714843-9.714844 9.714843s-9.710938-4.351562-9.710938-9.714843c0-5.363282 4.347657-9.710938 9.710938-9.710938s9.714844 4.347656 9.714844 9.710938zm0 0" fill="#ff6930"/><path d="m83.550781 239.980469c-1.917969 0-3.835937-.730469-5.300781-2.195313-2.929688-2.929687-2.929688-7.679687 0-10.605468l60.082031-60.082032c2.929688-2.929687 7.675781-2.929687 10.605469 0 2.929688 2.929688 2.929688 7.675782 0 10.605469l-60.082031 60.082031c-1.464844 1.464844-3.382813 2.195313-5.304688 2.195313zm0 0" fill="#444"/><path d="m262.664062 239.980469c-1.917968 0-3.835937-.730469-5.300781-2.195313l-60.082031-60.082031c-2.929688-2.929687-2.929688-7.675781 0-10.605469 2.929688-2.929687 7.679688-2.929687 10.605469 0l60.082031 60.082032c2.929688 2.929687 2.929688 7.675781 0 10.605468-1.464844 1.464844-3.382812 2.195313-5.304688 2.195313zm0 0" fill="#444"/><path d="m200.113281 66.550781h-54.007812c-7.363281 0-13.335938-5.972656-13.335938-13.335937v-2.660156c0-7.367188 5.972657-13.335938 13.335938-13.335938h54.007812c7.363281 0 13.335938 5.96875 13.335938 13.335938v2.660156c0 7.367187-5.972657 13.335937-13.335938 13.335937zm0 0" fill="#9c9c9c"/><path d="m200.113281 37.21875h-23.410156c7.363281 0 13.335937 5.96875 13.335937 13.335938v2.660156c0 7.363281-5.972656 13.335937-13.335937 13.335937h23.410156c7.363281 0 13.335938-5.972656 13.335938-13.335937v-2.660156c0-7.367188-5.972657-13.335938-13.335938-13.335938zm0 0" fill="#838383"/></svg>