<svg id="Capa_1" enable-background="new 0 0 512 512" height="300" viewBox="0 0 512 512" width="300" xmlns="http://www.w3.org/2000/svg" version="1.1" xmlns:xlink="http://www.w3.org/1999/xlink" xmlns:svgjs="http://svgjs.dev/svgjs"><g width="100%" height="100%" transform="matrix(1,0,0,1,0,0)"><g><path d="m503.759 230.761h-426.495c-4.552 0-8.241-3.69-8.241-8.241v-214.279c-.001-4.551 3.689-8.241 8.241-8.241h426.495c4.551 0 8.241 3.69 8.241 8.241v214.278c0 4.552-3.69 8.242-8.241 8.242z" fill="#d3f2cf" fill-opacity="1" data-original-color="#f9f3f1ff" stroke="none" stroke-opacity="1"/><path d="m503.759 0h-30.905c4.552 0 8.241 3.69 8.241 8.241v214.278c0 4.552-3.69 8.241-8.241 8.241h30.905c4.552 0 8.241-3.69 8.241-8.241v-214.278c0-4.551-3.69-8.241-8.241-8.241z" fill="#c9eac1" fill-opacity="1" data-original-color="#f3eae6ff" stroke="none" stroke-opacity="1"/><path d="m444.48 30.905h-307.938c-3.656 0-7.162 1.452-9.747 4.037l-22.831 22.831c-2.585 2.585-4.037 6.091-4.037 9.747v95.72c0 3.656 1.452 7.162 4.037 9.747l22.831 22.831c2.585 2.585 6.091 4.037 9.747 4.037h307.938c3.656 0 7.162-1.452 9.747-4.037l22.831-22.831c2.585-2.585 4.037-6.091 4.037-9.747v-95.72c0-3.656-1.452-7.162-4.037-9.747l-22.831-22.831c-2.586-2.584-6.092-4.037-9.747-4.037z" fill="#ace093" fill-opacity="1" data-original-color="#ade194ff" stroke="none" stroke-opacity="1"/><circle cx="290.511" cy="115.38" fill="#ffe193" r="48.419" fill-opacity="1" data-original-color="#fedba6ff" stroke="none" stroke-opacity="1"/><g fill="#f9f3f1"><path d="m422.3 133.924h-24.103c-3.585 0-6.492-2.907-6.492-6.492v-24.103c0-3.585 2.907-6.492 6.492-6.492h24.103c3.585 0 6.492 2.907 6.492 6.492v24.103c0 3.585-2.906 6.492-6.492 6.492z" fill="#d3f2cf" fill-opacity="1" data-original-color="#f9f3f1ff" stroke="none" stroke-opacity="1"/><path d="m182.825 133.924h-24.103c-3.585 0-6.492-2.907-6.492-6.492v-24.103c0-3.585 2.907-6.492 6.492-6.492h24.103c3.585 0 6.492 2.907 6.492 6.492v24.103c0 3.585-2.907 6.492-6.492 6.492z" fill="#d3f2cf" fill-opacity="1" data-original-color="#f9f3f1ff" stroke="none" stroke-opacity="1"/></g><g fill="#7ca1b1"><path d="m160.454 55.856h-12.362c-4.143 0-7.5 3.358-7.5 7.5s3.357 7.5 7.5 7.5h12.362c4.143 0 7.5-3.358 7.5-7.5s-3.357-7.5-7.5-7.5z" fill="#7ca1b1" fill-opacity="1" data-original-color="#7ca1b1ff" stroke="none" stroke-opacity="1"/><path d="m193.455 55.856h-12.362c-4.143 0-7.5 3.358-7.5 7.5s3.357 7.5 7.5 7.5h12.362c4.143 0 7.5-3.358 7.5-7.5s-3.357-7.5-7.5-7.5z" fill="#7ca1b1" fill-opacity="1" data-original-color="#7ca1b1ff" stroke="none" stroke-opacity="1"/><path d="m399.93 159.904h-12.362c-4.143 0-7.5 3.358-7.5 7.5s3.357 7.5 7.5 7.5h12.362c4.143 0 7.5-3.358 7.5-7.5s-3.358-7.5-7.5-7.5z" fill="#7ca1b1" fill-opacity="1" data-original-color="#7ca1b1ff" stroke="none" stroke-opacity="1"/><path d="m432.931 159.904h-12.362c-4.143 0-7.5 3.358-7.5 7.5s3.357 7.5 7.5 7.5h12.362c4.143 0 7.5-3.358 7.5-7.5s-3.358-7.5-7.5-7.5z" fill="#7ca1b1" fill-opacity="1" data-original-color="#7ca1b1ff" stroke="none" stroke-opacity="1"/></g><path d="m414.524 485.961h25.192v-121.248h-30.677z" fill="#ffb09e" fill-opacity="1" data-original-color="#ffb09eff" stroke="none" stroke-opacity="1"/><path d="m305.362 345.535c-6.179 3.641-13.721 4.157-20.263 1.215l-60-26.979c-14.089-6.335-30.675-.089-37.02 13.942-6.336 14.011-.056 30.474 14.025 36.772l65.548 29.317 56.689 25.355c46.737 20.884 65.698.387 96.16-20.485l-2.702-38.382c-32.148-58.671-94.556-31.292-112.437-20.755z" fill="#ffcebf" fill-opacity="1" data-original-color="#ffcebfff" stroke="none" stroke-opacity="1"/><path d="m305.362 345.535c-6.179 3.641-13.721 4.157-20.263 1.215l-60-26.979c-14.089-6.335-30.675-.089-37.02 13.941-.522 1.154-.949 2.325-1.303 3.504 4.644-.418 9.456.308 14.008 2.355l60 26.979c6.542 2.942 14.085 2.426 20.263-1.215 17.88-10.536 80.288-37.916 112.436 20.755l3.513 35.341c7.925-4.994 15.829-10.986 24.594-16.992l-3.792-38.15c-32.148-58.67-94.555-31.29-112.436-20.754z" fill="#ffb09e" fill-opacity="1" data-original-color="#ffb09eff" stroke="none" stroke-opacity="1"/><path d="m156.394 381.421-111.242-57.85c-15.096-7.851-33.735-2.011-41.632 13.039-7.897 15.052-2.06 33.618 13.035 41.469l111.242 57.85c11.901 6.189 26.002 3.872 35.308-4.761 2.499-2.318 4.653-5.092 6.324-8.278 7.898-15.052 2.061-33.618-13.035-41.469z" fill="#ffb09e" fill-opacity="1" data-original-color="#ffb09eff" stroke="none" stroke-opacity="1"/><circle cx="242.093" cy="359.082" fill="#ffe193" r="78.294" fill-opacity="1" data-original-color="#fedba6ff" stroke="none" stroke-opacity="1"/><path d="m242.093 280.788c-5.291 0-10.456.532-15.453 1.532 35.838 7.175 62.841 38.812 62.841 76.761s-27.003 69.586-62.841 76.761c4.996 1 10.162 1.532 15.453 1.532 43.24 0 78.294-35.053 78.294-78.294s-35.054-78.292-78.294-78.292z" fill="#fece85" fill-opacity="1" data-original-color="#fece85ff" stroke="none" stroke-opacity="1"/><circle cx="242.093" cy="359.082" fill="#fea95c" r="47.388" fill-opacity="1" data-original-color="#fea95cff" stroke="none" stroke-opacity="1"/><path d="m242.093 311.693c-5.41 0-10.606.924-15.453 2.601 18.563 6.423 31.936 24.068 31.936 44.788s-13.372 38.364-31.936 44.788c4.847 1.677 10.043 2.601 15.453 2.601 26.13 0 47.388-21.259 47.388-47.388 0-26.131-21.259-47.39-47.388-47.39z" fill="#fe9738" fill-opacity="1" data-original-color="#fe9738ff" stroke="none" stroke-opacity="1"/><path d="m438.667 451c0-49.784-36.688-79.473-89.198-75.429s-128.597 55.579-128.597 55.579l-121.228-94.814c-13.403-10.482-32.803-8.163-43.334 5.18-10.529 13.343-8.2 32.659 5.203 43.141l154.427 120.779c5.471 4.279 12.194 6.564 19.065 6.564 1.498 0 3.005-.109 4.506-.329l117.331-17.236 57.683-8.474c16.861-2.478 24.142-17.992 24.142-34.961z" fill="#ffcebf" fill-opacity="1" data-original-color="#ffcebfff" stroke="none" stroke-opacity="1"/><g><path d="m367.771 375.568c23.52 12.251 38.174 35.308 38.174 65.979 0 16.969-9.164 32.403-26.026 34.88l-57.683 8.474-111.591 16.393 5.295 4.142c5.471 4.279 12.194 6.564 19.065 6.564 1.498 0 3.005-.109 4.506-.329l117.331-17.236 57.683-8.474c16.862-2.477 26.026-17.912 26.026-34.88-.001-43.794-29.854-72.087-72.78-75.513z" fill="#ffb09e" fill-opacity="1" data-original-color="#ffb09eff" stroke="none" stroke-opacity="1"/></g><path d="m439.716 364.713h68.284c2.209 0 4 1.791 4 4v113.248c0 2.209-1.791 4-4 4h-68.284z" fill="#fe646f" fill-opacity="1" data-original-color="#fe646fff" stroke="none" stroke-opacity="1"/><path d="m481.095 364.713v121.248h26.905c2.209 0 4-1.791 4-4v-113.248c0-2.209-1.791-4-4-4z" fill="#fd4755" fill-opacity="1" data-original-color="#fd4755ff" stroke="none" stroke-opacity="1"/><circle cx="78.294" cy="209.871" fill="#ffe193" r="78.294" fill-opacity="1" data-original-color="#fedba6ff" stroke="none" stroke-opacity="1"/><path d="m78.294 131.577c-5.291 0-10.456.532-15.453 1.532 35.838 7.175 62.841 38.812 62.841 76.761s-27.003 69.586-62.841 76.761c4.996 1 10.162 1.532 15.453 1.532 43.24 0 78.294-35.053 78.294-78.294s-35.054-78.292-78.294-78.292z" fill="#fece85" fill-opacity="1" data-original-color="#fece85ff" stroke="none" stroke-opacity="1"/><circle cx="78.294" cy="209.871" fill="#fea95c" r="47.388" fill-opacity="1" data-original-color="#fea95cff" stroke="none" stroke-opacity="1"/><path d="m78.294 162.482c-5.41 0-10.606.924-15.453 2.601 18.563 6.423 31.936 24.068 31.936 44.788s-13.372 38.364-31.936 44.788c4.847 1.677 10.043 2.601 15.453 2.601 26.13 0 47.388-21.259 47.388-47.388s-21.258-47.39-47.388-47.39z" fill="#fe9738" fill-opacity="1" data-original-color="#fe9738ff" stroke="none" stroke-opacity="1"/></g></g></svg>