<?xml version="1.0" encoding="iso-8859-1"?>
<!-- Generator: Adobe Illustrator 19.0.0, SVG Export Plug-In . SVG Version: 6.00 Build 0)  -->
<svg version="1.1" id="Capa_1" xmlns="http://www.w3.org/2000/svg" xmlns:xlink="http://www.w3.org/1999/xlink" x="0px" y="0px"
	 viewBox="0 0 512 512" style="enable-background:new 0 0 512 512;" xml:space="preserve">
<path style="fill:#60BEC8;" d="M512,395.736c-19.189,30.555-45.608,48.536-69.1,59.089c-29.607,13.293-54.567,14.793-54.567,14.793
	l-43.4-60.807l43.952-29.784l80.028-54.234L512,395.736z"/>
<path style="fill:#4AAAAF;" d="M442.9,454.825c-29.607,13.293-54.567,14.793-54.567,14.793l-43.4-60.807l43.952-29.784l2.5-0.802
	L442.9,454.825z"/>
<path style="fill:#F9DDB4;" d="M468.913,324.793c-1.844,5.105-4.063,10.063-6.626,14.845
	c-27.117,50.702-92.54,81.841-152.732,64.224c-18.825-5.511-32.138-18.72-41.4-33.024l-48.588-77.684l0.604-0.302l155.587-78.465
	l5.063-1.156c-3.104-17.929-2.479-36.462,2.042-54.64c4.094-16.512,20.794-26.575,37.305-22.481
	c16.522,4.105,26.586,20.814,22.481,37.316c-4.584,18.47-1.708,37.608,8.115,53.921
	C450.765,227.346,485.643,278.372,468.913,324.793z"/>
<path style="fill:#E0C096;" d="M462.287,339.638c-27.117,50.702-92.54,81.841-152.732,64.224
	c-18.825-5.511-32.138-18.72-41.4-33.024l-48.588-77.684l0.604-0.302l155.587-17.762
	C375.759,305.301,394.625,354.181,462.287,339.638z"/>
<path style="fill:#FC6947;" d="M382.86,158.59c-7.417,29.857-4.355,60.662,8.522,88.154v95.977
	c0,15.522-12.584,28.107-28.107,28.107H233.618c-15.522,0-28.107-12.584-28.107-28.107V113.805
	c0-15.522,12.584-28.117,28.117-28.117h129.647c15.522,0,28.107,12.584,28.107,28.107v30.034c-1.844,1.761-3.469,3.771-4.834,5.99
	C384.913,152.465,383.652,155.402,382.86,158.59z"/>
<path style="fill:#FC6542;" d="M391.382,246.744v95.977c0,15.522-12.584,28.107-28.107,28.107H233.618
	c-15.522,0-28.107-12.584-28.107-28.107v-73.704l181.037-119.198c-1.636,2.646-2.896,5.584-3.688,8.772
	C375.443,188.447,378.506,219.252,391.382,246.744z"/>
<path style="fill:#494F56;" d="M266.787,85.688v285.14h-33.17c-15.522,0-28.107-12.584-28.107-28.107V113.805
	c0-15.522,12.584-28.117,28.117-28.117L266.787,85.688L266.787,85.688z"/>
<path style="fill:#777777;" d="M266.787,228.669v142.159h-33.17c-15.522,0-28.107-12.584-28.107-28.107v-73.704L266.787,228.669z"/>
<path style="fill:#E0C096;" d="M397.979,259.13L397.979,259.13c-18.283-30.409-23.669-66.11-15.116-100.54
	c4.161-16.783,21.345-26.903,38.117-22.269c0,0.004,0,0.002,0.001,0.006c-23.521,13.262-18.114,65.053-13.379,92.463
	C409.517,239.87,405.93,251.181,397.979,259.13z"/>
<circle style="fill:#EFEFEF;" cx="469.573" cy="394.723" r="14.063"/>
<path style="fill:#60BEC8;" d="M29.38,42.382h169.389c16.226,0,29.38,13.153,29.38,29.38v287.105c0,16.226-13.153,29.38-29.38,29.38
	H29.38c-16.226,0-29.38-13.153-29.38-29.38V71.762C0,55.536,13.153,42.382,29.38,42.382z"/>
<rect x="31.253" y="73.632" style="fill:#494F56;" width="165.64" height="100.092"/>
<polygon style="fill:#777777;" points="196.896,73.635 196.896,173.727 112.919,173.727 139.474,73.635 "/>
<path style="fill:#4AAAAF;" d="M196.896,181.536H31.253c-4.315,0-7.813-3.498-7.813-7.813V73.635c0-4.315,3.498-7.813,7.813-7.813
	h165.643c4.315,0,7.813,3.498,7.813,7.813v100.088C204.709,178.038,201.211,181.536,196.896,181.536z M39.066,165.91h150.017V81.448
	H39.066V165.91z"/>
<g>
	<path style="fill:#494F56;" d="M78.758,242.293H49.665c-10.169,0-18.412-8.243-18.412-18.412l0,0
		c0-10.169,8.243-18.412,18.412-18.412h29.093c10.169,0,18.412,8.243,18.412,18.412l0,0
		C97.17,234.049,88.927,242.293,78.758,242.293z"/>
	<path style="fill:#494F56;" d="M178.484,242.293H149.39c-10.169,0-18.412-8.243-18.412-18.412l0,0
		c0-10.169,8.243-18.412,18.412-18.412h29.093c10.169,0,18.412,8.243,18.412,18.412l0,0
		C196.896,234.049,188.652,242.293,178.484,242.293z"/>
	<path style="fill:#494F56;" d="M78.758,302.288H49.665c-10.169,0-18.412-8.243-18.412-18.412l0,0
		c0-10.169,8.243-18.412,18.412-18.412h29.093c10.169,0,18.412,8.243,18.412,18.412l0,0
		C97.17,294.045,88.927,302.288,78.758,302.288z"/>
	<path style="fill:#494F56;" d="M178.484,302.288H149.39c-10.169,0-18.412-8.243-18.412-18.412l0,0
		c0-10.169,8.243-18.412,18.412-18.412h29.093c10.169,0,18.412,8.243,18.412,18.412l0,0
		C196.896,294.045,188.652,302.288,178.484,302.288z"/>
	<path style="fill:#494F56;" d="M78.758,362.283H49.665c-10.169,0-18.412-8.243-18.412-18.412l0,0
		c0-10.169,8.243-18.412,18.412-18.412h29.093c10.169,0,18.412,8.243,18.412,18.412l0,0C97.17,354.04,88.927,362.283,78.758,362.283
		z"/>
	<path style="fill:#494F56;" d="M178.484,362.283H149.39c-10.169,0-18.412-8.243-18.412-18.412l0,0
		c0-10.169,8.243-18.412,18.412-18.412h29.093c10.169,0,18.412,8.243,18.412,18.412l0,0
		C196.896,354.04,188.652,362.283,178.484,362.283z"/>
	<path style="fill:#494F56;" d="M299.601,348.462c-4.316,0-7.813-3.498-7.813-7.813v-32.45c0-4.315,3.497-7.813,7.813-7.813
		c4.316,0,7.813,3.498,7.813,7.813v32.45C307.414,344.964,303.917,348.462,299.601,348.462z"/>
	<path style="fill:#494F56;" d="M299.601,237.798c-4.316,0-7.813-3.498-7.813-7.813v-32.45c0-4.315,3.497-7.813,7.813-7.813
		c4.316,0,7.813,3.498,7.813,7.813v32.45C307.414,234.3,303.917,237.798,299.601,237.798z"/>
	<path style="fill:#494F56;" d="M299.601,182.467c-4.316,0-7.813-3.498-7.813-7.813v-32.45c0-4.315,3.497-7.813,7.813-7.813
		c4.316,0,7.813,3.498,7.813,7.813v32.45C307.414,178.969,303.917,182.467,299.601,182.467z"/>
	<path style="fill:#494F56;" d="M299.601,293.13c-4.316,0-7.813-3.498-7.813-7.813v-32.45c0-4.315,3.497-7.813,7.813-7.813
		c4.316,0,7.813,3.498,7.813,7.813v32.45C307.414,289.632,303.917,293.13,299.601,293.13z"/>
</g>
<g>
</g>
<g>
</g>
<g>
</g>
<g>
</g>
<g>
</g>
<g>
</g>
<g>
</g>
<g>
</g>
<g>
</g>
<g>
</g>
<g>
</g>
<g>
</g>
<g>
</g>
<g>
</g>
<g>
</g>
</svg>
