<svg height="300" viewBox="-2 0 512 512" width="300" xmlns="http://www.w3.org/2000/svg" version="1.1" xmlns:xlink="http://www.w3.org/1999/xlink" xmlns:svgjs="http://svgjs.dev/svgjs"><g width="100%" height="100%" transform="matrix(1,0,0,1,0,0)"><path d="m433.226562 311.9375v171.589844c0 5.488281-4.449218 9.929687-9.941406 9.929687h-324.21875c-5.480468 0-9.929687-4.441406-9.929687-9.929687v-171.589844c0-33.757812 20.335937-62.777344 49.425781-75.46875 9.640625-4.203125 20.242188-6.613281 31.378906-6.800781.496094-.019531.988282-.019531 1.484375-.019531h179.5c.492188 0 .988281 0 1.480469.019531 3.996094.0625 7.914062.421875 11.746094 1.042969 6.871094 1.101562 13.441406 3.058593 19.632812 5.757812 29.09375 12.691406 49.441406 41.710938 49.441406 75.46875zm0 0" fill="#323030" fill-opacity="1" data-original-color="#fff5f5ff" stroke="none" stroke-opacity="1"/><g fill="#e0d3ce"><path d="m352.40625 229.667969c-15.820312 34.738281-50.847656 58.660156-91.230469 58.660156-40.382812 0-75.398437-23.921875-91.234375-58.660156.496094-.019531.988282-.019531 1.484375-.019531h179.5c.492188 0 .988281 0 1.480469.019531zm0 0" fill="#8c7979" fill-opacity="1" data-original-color="#e0d3ceff" stroke="none" stroke-opacity="1"/><path d="m147.179688 374.648438c-4.265626 0-7.726563-3.457032-7.726563-7.726563v-15.9375c0-4.265625 3.460937-7.722656 7.726563-7.722656 4.269531 0 7.726562 3.457031 7.726562 7.722656v15.9375c0 4.269531-3.457031 7.726563-7.726562 7.726563zm0 0" fill="#8c7979" fill-opacity="1" data-original-color="#e0d3ceff" stroke="none" stroke-opacity="1"/><path d="m433.226562 311.9375v171.59375c0 5.480469-4.453124 9.933594-9.9375 9.933594h-22.890624c5.484374 0 9.925781-4.453125 9.925781-9.933594v-171.59375c0-33.761719-20.339844-62.785156-49.425781-75.460938-6.195313-2.699218-12.761719-4.667968-19.636719-5.761718-4.304688-.710938-8.726563-1.0625-13.222657-1.0625h22.890626c4.496093 0 8.917968.351562 13.222656 1.0625 6.875 1.09375 13.441406 3.0625 19.636718 5.761718 29.085938 12.675782 49.4375 41.699219 49.4375 75.460938zm0 0" fill="#8c7979" fill-opacity="1" data-original-color="#e0d3ceff" stroke="none" stroke-opacity="1"/><path d="m382.027344 354.9375v138.519531h-15.453125v-138.519531c0-4.261719 3.460937-7.722656 7.726562-7.722656 4.273438-.003906 7.726563 3.460937 7.726563 7.722656zm0 0" fill="#8c7979" fill-opacity="1" data-original-color="#e0d3ceff" stroke="none" stroke-opacity="1"/><path d="m268.902344 274.671875v218.785156h-15.453125v-218.785156c0-4.273437 3.460937-7.726563 7.726562-7.726563 4.273438 0 7.726563 3.453126 7.726563 7.726563zm0 0" fill="#8c7979" fill-opacity="1" data-original-color="#e0d3ceff" stroke="none" stroke-opacity="1"/></g><path d="m226.996094 8.082031h24.953125c30.921875 0 55.988281 25.066407 55.988281 55.988281 0 27.242188-23.65625 48.449219-50.734375 45.484376l-25.726563-2.8125c-15.109374-1.652344-29.570312 6.582031-35.859374 20.421874l-12.402344 27.3125c-1.769532 3.898438-7.019532 4.566407-9.714844 1.242188-5.378906-6.640625-13.464844-18.070312-20.539062-33.972656-23.777344-53.449219 15.535156-113.664063 74.035156-113.664063zm0 0" fill="#d77f4f" fill-opacity="1" data-original-color="#d77f4fff" stroke="none" stroke-opacity="1"/><path d="m183.128906 149.121094c0 12.691406-10.289062 22.980468-22.980468 22.980468-12.691407 0-22.976563-10.289062-22.976563-22.980468s10.285156-22.980469 22.976563-22.980469c12.691406 0 22.980468 10.289063 22.980468 22.980469zm0 0" fill="#ffbc8a" fill-opacity="1" data-original-color="#ffbc8aff" stroke="none" stroke-opacity="1"/><path d="m261.175781 257.308594v28.578125l-3.152343 2.386719-29.144532 22.066406c-6.550781 4.96875-16.007812.855468-16.851562-7.324219l-3.007813-29.308594-1.691406-16.398437zm0 0" fill="#e84649" fill-opacity="1" data-original-color="#e84649ff" stroke="none" stroke-opacity="1"/><path d="m315.03125 257.308594-1.6875 16.398437-3.007812 29.308594c-.847657 8.179687-10.304688 12.292969-16.855469 7.328125l-29.152344-22.066406-3.152344-2.390625v-28.578125zm0 0" fill="#e84649" fill-opacity="1" data-original-color="#e84649ff" stroke="none" stroke-opacity="1"/><path d="m315.03125 257.308594-1.6875 16.398437c-14.382812 8.777344-31.132812 14.023438-49.015625 14.566407l-3.152344-2.386719v-28.578125zm0 0" fill="#d73337" fill-opacity="1" data-original-color="#d73337ff" stroke="none" stroke-opacity="1"/><path d="m261.175781 257.308594v28.578125l-3.152343 2.386719c-17.882813-.542969-34.632813-5.789063-49.003907-14.566407l-1.691406-16.398437zm0 0" fill="#d73337" fill-opacity="1" data-original-color="#d73337ff" stroke="none" stroke-opacity="1"/><path d="m261.175781 275.960938c-46.75 0-85.316406-36.601563-87.757812-83.285157l-2.730469-52.132812c-1.757812-33.566407 24.988281-61.746094 58.601562-61.746094h63.777344c33.613282 0 60.359375 28.179687 58.601563 61.746094l-2.730469 52.132812c-2.445312 46.683594-41.011719 83.285157-87.761719 83.285157zm0 0" fill="#fdd1a7" fill-opacity="1" data-original-color="#fdd1a7ff" stroke="none" stroke-opacity="1"/><path d="m220.210938 186.515625c-4.265626 0-7.726563-3.457031-7.726563-7.726563 0-4.265624 3.460937-7.773437 7.726563-7.773437 4.265624 0 7.726562 3.40625 7.726562 7.671875v.101562c0 4.269532-3.460938 7.726563-7.726562 7.726563zm0 0" fill="#ac5e33" fill-opacity="1" data-original-color="#ac5e33ff" stroke="none" stroke-opacity="1"/><path d="m302.140625 186.515625c-4.265625 0-7.726563-3.457031-7.726563-7.726563 0-4.265624 3.460938-7.773437 7.726563-7.773437 4.269531 0 7.726563 3.40625 7.726563 7.671875v.101562c0 4.269532-3.457032 7.726563-7.726563 7.726563zm0 0" fill="#ac5e33" fill-opacity="1" data-original-color="#ac5e33ff" stroke="none" stroke-opacity="1"/><path d="m261.175781 237.210938c-13.980469 0-26.449219-9.390626-30.316406-22.835938-1.179687-4.101562 1.191406-8.378906 5.289063-9.558594 4.101562-1.183594 8.382812 1.1875 9.5625 5.289063 1.972656 6.859375 8.332031 11.652343 15.464843 11.652343 7.132813 0 13.492188-4.792968 15.464844-11.652343 1.179687-4.101563 5.464844-6.46875 9.5625-5.289063 4.101563 1.179688 6.46875 5.457032 5.289063 9.558594-3.863282 13.445312-16.332032 22.835938-30.316407 22.835938zm0 0" fill="#f5a871" fill-opacity="1" data-original-color="#f5a871ff" stroke="none" stroke-opacity="1"/><path d="m276.660156 0h-8.835937c-34.257813 0-62.027344 27.773438-62.027344 62.03125 0 30.179688 26.207031 53.679688 56.210937 50.394531l28.5-3.117187c16.742188-1.832032 32.761719 7.292968 39.726563 22.625l13.742187 30.257812c1.964844 4.320313 7.777344 5.0625 10.761719 1.375.199219-.242187.402344-.492187.605469-.75 52.421875-65.640625 5.320312-162.816406-78.683594-162.816406zm0 0" fill="#c86d3d" fill-opacity="1" data-original-color="#c86d3dff" stroke="none" stroke-opacity="1"/><path d="m355.34375 162.816406c-.203125.253906-.402344.507813-.605469.753906-2.984375 3.6875-8.800781 2.941407-10.765625-1.382812l-4.238281-9.339844c39.265625-62.914062-2.914063-147.058594-77.917969-152.5625 1.976563-.1874998 3.984375-.285156 6.003906-.285156h8.84375c84.003907 0 131.101563 97.171875 78.679688 162.816406zm0 0" fill="#ac5e33" fill-opacity="1" data-original-color="#ac5e33ff" stroke="none" stroke-opacity="1"/><path d="m291.582031 388.015625c-4.265625 0-7.726562-3.460937-7.726562-7.726563 0-4.265624 3.460937-7.777343 7.726562-7.777343s7.726563 3.410156 7.726563 7.675781v.101562c0 4.265626-3.457032 7.726563-7.726563 7.726563zm0 0" fill="#8c7979" fill-opacity="1" data-original-color="#e0d3ceff" stroke="none" stroke-opacity="1"/><path d="m291.582031 433.710938c-4.265625 0-7.726562-3.457032-7.726562-7.726563 0-4.265625 3.460937-7.777344 7.726562-7.777344s7.726563 3.40625 7.726563 7.675781v.101563c0 4.269531-3.457032 7.726563-7.726563 7.726563zm0 0" fill="#8c7979" fill-opacity="1" data-original-color="#e0d3ceff" stroke="none" stroke-opacity="1"/><path d="m24.59375 489.511719c0-67.703125 54.882812-122.589844 122.585938-122.589844 67.703124 0 122.589843 54.886719 122.589843 122.589844zm0 0" fill="#cdbfbb" fill-opacity="1" data-original-color="#cdbfbbff" stroke="none" stroke-opacity="1"/><path d="m269.769531 489.507812h-27.566406c0-63.050781-47.589844-114.960937-108.808594-121.808593 4.515625-.519531 9.117188-.773438 13.78125-.773438 67.703125 0 122.59375 54.878907 122.59375 122.582031zm0 0" fill="#b9acac" fill-opacity="1" data-original-color="#b9acacff" stroke="none" stroke-opacity="1"/><path d="m278.953125 511.949219h-263.542969c-8.511718 0-15.410156-6.898438-15.410156-15.40625 0-8.511719 6.898438-15.410157 15.410156-15.410157h263.542969c8.511719 0 15.410156 6.898438 15.410156 15.410157 0 8.507812-6.898437 15.40625-15.410156 15.40625zm0 0" fill="#8c7979" fill-opacity="1" data-original-color="#e0d3ceff" stroke="none" stroke-opacity="1"/><path d="m294.359375 496.535156c0 4.257813-1.722656 8.109375-4.511719 10.902344-2.78125 2.789062-6.636718 4.511719-10.890625 4.511719h-19.058593c4.253906 0 8.109374-1.722657 10.890624-4.511719 2.789063-2.792969 4.511719-6.648438 4.511719-10.902344 0-8.507812-6.894531-15.398437-15.402343-15.398437h19.058593c8.507813 0 15.402344 6.890625 15.402344 15.398437zm0 0" fill="#cdbfbb" fill-opacity="1" data-original-color="#cdbfbbff" stroke="none" stroke-opacity="1"/><path d="m482.304688 287.007812v-51.433593h-31.75v51.433593c0 5.28125-3.046876 10.183594-7.910157 12.25-10.761719 4.566407-18.308593 15.222657-18.308593 27.652344v170.015625c0 8.320313 6.746093 15.070313 15.070312 15.070313h54.050781c8.320313 0 15.070313-6.75 15.070313-15.070313v-170.015625c0-12.429687-7.550782-23.085937-18.308594-27.652344-4.867188-2.066406-7.914062-6.96875-7.914062-12.25zm0 0" fill="#3c9138" fill-opacity="1" data-original-color="#00b232ff" stroke="none" stroke-opacity="1"/><path d="m508.527344 326.902344v170.027344c0 8.316406-6.753906 15.070312-15.074219 15.070312h-16.847656c8.316406 0 15.058593-6.753906 15.058593-15.070312v-160.464844c0-12.414063-7.546874-23.078125-18.304687-27.648438-4.867187-2.058594-7.90625-6.960937-7.90625-12.242187v-61h16.851563v51.4375c0 5.28125 3.046874 10.179687 7.90625 12.242187 10.769531 4.570313 18.316406 15.234375 18.316406 27.648438zm0 0" fill="#32683e" fill-opacity="1" data-original-color="#008c25ff" stroke="none" stroke-opacity="1"/><path d="m424.335938 350.984375h84.191406v91.746094h-84.191406zm0 0" fill="#323030" fill-opacity="1" data-original-color="#fff5f5ff" stroke="none" stroke-opacity="1"/><path d="m491.664062 350.992188h16.863282v91.738281h-16.863282zm0 0" fill="#8c7979" fill-opacity="1" data-original-color="#e0d3ceff" stroke="none" stroke-opacity="1"/><path d="m484.566406 244.816406h-36.269531c-2.851563 0-5.226563-2.1875-5.464844-5.027344l-2.378906-28.601562c-.265625-3.195312 2.257813-5.933594 5.464844-5.933594h41.023437c3.207032 0 5.730469 2.738282 5.464844 5.933594l-2.378906 28.601562c-.234375 2.839844-2.609375 5.027344-5.460938 5.027344zm0 0" fill="#fac574" fill-opacity="1" data-original-color="#fac574ff" stroke="none" stroke-opacity="1"/><path d="m492.402344 211.191406-2.371094 28.59375c-.242188 2.851563-2.613281 5.027344-5.460938 5.027344h-19.128906c2.847656 0 5.21875-2.175781 5.460938-5.027344l2.371094-28.59375c.265624-3.199218-2.253907-5.941406-5.460938-5.941406h19.128906c3.207032 0 5.726563 2.742188 5.460938 5.941406zm0 0" fill="#d8aa64" fill-opacity="1" data-original-color="#d8aa64ff" stroke="none" stroke-opacity="1"/><path d="m483.289062 350.984375c0 9.3125-7.546874 16.859375-16.859374 16.859375s-16.859376-7.546875-16.859376-16.859375c0-9.308594 7.546876-16.855469 16.859376-16.855469s16.859374 7.546875 16.859374 16.855469zm0 0" fill="#fac574" fill-opacity="1" data-original-color="#fac574ff" stroke="none" stroke-opacity="1"/><path d="m483.292969 350.984375c0 9.3125-7.550781 16.863281-16.863281 16.863281-2.378907 0-4.648438-.496094-6.695313-1.390625 5.984375-2.585937 10.167969-8.542969 10.167969-15.472656 0-6.925781-4.183594-12.878906-10.167969-15.472656 2.046875-.886719 4.316406-1.382813 6.695313-1.382813 9.3125 0 16.863281 7.550782 16.863281 16.855469zm0 0" fill="#d8aa64" fill-opacity="1" data-original-color="#d8aa64ff" stroke="none" stroke-opacity="1"/><path d="m476.347656 406.542969h-19.835937c-4.265625 0-7.726563-3.457031-7.726563-7.726563 0-4.265625 3.460938-7.722656 7.726563-7.722656h19.835937c4.269532 0 7.726563 3.457031 7.726563 7.722656 0 4.269532-3.457031 7.726563-7.726563 7.726563zm0 0" fill="#d8aa64" fill-opacity="1" data-original-color="#d8aa64ff" stroke="none" stroke-opacity="1"/></g></svg>