<svg id="Flat" height="300" viewBox="0 0 64 64" width="300" xmlns="http://www.w3.org/2000/svg" version="1.1" xmlns:xlink="http://www.w3.org/1999/xlink" xmlns:svgjs="http://svgjs.dev/svgjs"><g width="100%" height="100%" transform="matrix(1,0,0,1,0,0)"><path d="m4 28h56v35h-56z" fill="#ffdb79" fill-opacity="1" data-original-color="#ffe982ff" stroke="none" stroke-opacity="1"/><path d="m4 28h56v2h-56z" fill="#ffe880" fill-opacity="1" data-original-color="#fcd73dff" stroke="none" stroke-opacity="1"/><path d="m6 28h54v35h-54z" fill="#ffe880" fill-opacity="1" data-original-color="#fcd73dff" stroke="none" stroke-opacity="1"/><path d="m6 28h54v2h-54z" fill="#ecca5f" fill-opacity="1" data-original-color="#f5c320ff" stroke="none" stroke-opacity="1"/><path d="m1 24h62v4h-62z" fill="#2f937e" fill-opacity="1" data-original-color="#f2f7fcff" stroke="none" stroke-opacity="1"/><path d="m3 24h60v4h-60z" fill="#18af9e" fill-opacity="1" data-original-color="#e6f2f7ff" stroke="none" stroke-opacity="1"/><path d="m1 20h62v4h-62z" fill="#ec5051" fill-opacity="1" data-original-color="#849dffff" stroke="none" stroke-opacity="1"/><path d="m3 22h60v2h-60z" fill="#ff5f82" fill-opacity="1" data-original-color="#6985ffff" stroke="none" stroke-opacity="1"/><path d="m4 59h56v4h-56z" fill="#2f937e" fill-opacity="1" data-original-color="#f2f7fcff" stroke="none" stroke-opacity="1"/><path d="m6 59h54v4h-54z" fill="#18af9e" fill-opacity="1" data-original-color="#e6f2f7ff" stroke="none" stroke-opacity="1"/><path d="m24 43h16v20h-16z" fill="#ffefc1" fill-opacity="1" data-original-color="#96afffff" stroke="none" stroke-opacity="1"/><path d="m32 35a8 8 0 0 1 8 8 0 0 0 0 1 0 0h-16a0 0 0 0 1 0 0 8 8 0 0 1 8-8z" fill="#ffefc1" fill-opacity="1" data-original-color="#96afffff" stroke="none" stroke-opacity="1"/><path d="m32 34a9.011 9.011 0 0 0 -9 9v20h2v-19h6v19h2v-19h6v19h2v-20a9.011 9.011 0 0 0 -9-9zm-6.929 8a7 7 0 0 1 13.858 0z" fill="#ff5f82" fill-opacity="1" data-original-color="#6985ffff" stroke="none" stroke-opacity="1"/><path d="m44 41h12v12h-12z" fill="#ffefc1" fill-opacity="1" data-original-color="#96afffff" stroke="none" stroke-opacity="1"/><path d="m50 35a6 6 0 0 1 6 6 0 0 0 0 1 0 0h-12a0 0 0 0 1 0 0 6 6 0 0 1 6-6z" fill="#ffefc1" fill-opacity="1" data-original-color="#96afffff" stroke="none" stroke-opacity="1"/><path d="m50 34a7.008 7.008 0 0 0 -7 7v12a1 1 0 0 0 1 1h12a1 1 0 0 0 1-1v-12a7.008 7.008 0 0 0 -7-7zm0 2a5.008 5.008 0 0 1 4.9 4h-9.8a5.008 5.008 0 0 1 4.9-4zm-5 6h4v10h-4zm10 10h-4v-10h4z" fill="#ff5f82" fill-opacity="1" data-original-color="#6985ffff" stroke="none" stroke-opacity="1"/><path d="m8 41h12v12h-12z" fill="#ffefc1" fill-opacity="1" data-original-color="#96afffff" stroke="none" stroke-opacity="1"/><path d="m14 35a6 6 0 0 1 6 6 0 0 0 0 1 0 0h-12a0 0 0 0 1 0 0 6 6 0 0 1 6-6z" fill="#ffefc1" fill-opacity="1" data-original-color="#96afffff" stroke="none" stroke-opacity="1"/><path d="m14 34a7.008 7.008 0 0 0 -7 7v12a1 1 0 0 0 1 1h12a1 1 0 0 0 1-1v-12a7.008 7.008 0 0 0 -7-7zm0 2a5.008 5.008 0 0 1 4.9 4h-9.8a5.008 5.008 0 0 1 4.9-4zm-5 6h4v10h-4zm10 10h-4v-10h4z" fill="#ff5f82" fill-opacity="1" data-original-color="#6985ffff" stroke="none" stroke-opacity="1"/><circle cx="32" cy="16" fill="#c13b4d" r="15" fill-opacity="1" data-original-color="#e84d5aff" stroke="none" stroke-opacity="1"/><path d="m34 3a15 15 0 0 0 -11.559 24.559 15 15 0 0 0 21.118-21.118 14.938 14.938 0 0 0 -9.559-3.441z" fill="#e0475b" fill-opacity="1" data-original-color="#f45d66ff" stroke="none" stroke-opacity="1"/><path d="m38 26a1 1 0 0 1 -1-1v-5a1 1 0 0 1 2 0v5a1 1 0 0 1 -1 1z" fill="#568293" fill-opacity="1" data-original-color="#d9edf4ff" stroke="none" stroke-opacity="1"/><path d="m41 10v7h-2v-7a1 1 0 0 0 -1-1 1 1 0 0 0 -1 1v7h-2v-7a1 1 0 0 0 -1-1 1 1 0 0 0 -1 1v8a3 3 0 0 0 3 3h4a3 3 0 0 0 3-3v-8a1 1 0 0 0 -1-1 1 1 0 0 0 -1 1z" fill="#303f41" fill-opacity="1" data-original-color="#ffffffff" stroke="none" stroke-opacity="1"/><path d="m36 26v4.444a14.916 14.916 0 0 0 4-1.771v-2.673a2 2 0 0 0 -2-2 2 2 0 0 0 -2 2z" fill="#303f41" fill-opacity="1" data-original-color="#ffffffff" stroke="none" stroke-opacity="1"/><path d="m26 26a1 1 0 0 1 -1-1v-6a1 1 0 0 1 2 0v6a1 1 0 0 1 -1 1z" fill="#568293" fill-opacity="1" data-original-color="#d9edf4ff" stroke="none" stroke-opacity="1"/><path d="m24 26v2.673a14.916 14.916 0 0 0 4 1.771v-4.444a2 2 0 0 0 -2-2 2 2 0 0 0 -2 2z" fill="#303f41" fill-opacity="1" data-original-color="#ffffffff" stroke="none" stroke-opacity="1"/><path d="m30 15.833a3.822 3.822 0 0 1 -4 4.167 3.822 3.822 0 0 1 -4-4.167c0-2.761 1.791-5.833 4-5.833s4 3.072 4 5.833z" fill="#568293" fill-opacity="1" data-original-color="#d9edf4ff" stroke="none" stroke-opacity="1"/><path d="m26 21a4.814 4.814 0 0 1 -5-5.167c0-3.225 2.138-6.833 5-6.833s5 3.608 5 6.833a4.814 4.814 0 0 1 -5 5.167zm0-10c-1.486 0-3 2.439-3 4.833a2.836 2.836 0 0 0 3 3.167 2.836 2.836 0 0 0 3-3.167c0-2.394-1.514-4.833-3-4.833z" fill="#303f41" fill-opacity="1" data-original-color="#ffffffff" stroke="none" stroke-opacity="1"/><path d="m32 32a16 16 0 1 1 16-16 16.019 16.019 0 0 1 -16 16zm0-30a14 14 0 1 0 14 14 14.015 14.015 0 0 0 -14-14z" fill="#ff8d9c" fill-opacity="1" data-original-color="#ff8d95ff" stroke="none" stroke-opacity="1"/><path d="m63 64h-62a1 1 0 0 1 0-2h62a1 1 0 0 1 0 2z" fill="#474d56" fill-opacity="1" data-original-color="#5a6270ff" stroke="none" stroke-opacity="1"/></g></svg>