<svg clip-rule="evenodd" fill-rule="evenodd" stroke-linejoin="round" stroke-miterlimit="2" viewBox="0 0 510 510" xmlns="http://www.w3.org/2000/svg" width="300" height="300" version="1.1" xmlns:xlink="http://www.w3.org/1999/xlink" xmlns:svgjs="http://svgjs.dev/svgjs"><g width="100%" height="100%" transform="matrix(1,0,0,1,0,0)"><g><g><g><path d="m43.187 40.764h422.078v428.472h-422.078z" fill="#0e1d26" fill-opacity="1" data-original-color="#eceff1ff" stroke="none" stroke-opacity="1" style=""/><path d="m450.266 40.764h15v428.472h-15z" fill="#d1d1d6" fill-opacity="1" data-original-color="#d1d1d6ff" stroke="none" stroke-opacity="1" style=""/></g><path d="m485.9 153.607c4.584 0 8.3 3.716 8.3 8.3v17.543h-478.454v-17.543c0-4.584 3.717-8.3 8.3-8.3z" fill="#ecba78" fill-opacity="1" data-original-color="#ecba78ff" stroke="none" stroke-opacity="1" style=""/><path d="m450.266 153.607h35.634c4.584 0 8.3 3.716 8.3 8.3v17.543h-43.934z" fill="#d18c4c" fill-opacity="1" data-original-color="#e3a76fff" stroke="none" stroke-opacity="1" style=""/><path d="m112.718 177.985c0 26.318-21.726 47.686-48.486 47.686s-48.486-21.368-48.486-47.686z" fill="#fe646f" fill-opacity="1" data-original-color="#fe646fff" stroke="none" stroke-opacity="1" style=""/><path d="m208.088 177.985c0 26.318-21.367 47.686-47.685 47.686s-47.685-21.368-47.685-47.686z" fill="#ffe177" fill-opacity="1" data-original-color="#ffe177ff" stroke="none" stroke-opacity="1" style=""/><path d="m303.459 177.985c0 26.318-21.367 47.686-47.686 47.686-26.318 0-47.685-21.368-47.685-47.686z" fill="#fe646f" fill-opacity="1" data-original-color="#fe646fff" stroke="none" stroke-opacity="1" style=""/><path d="m398.829 177.985c0 26.318-21.367 47.686-47.685 47.686s-47.685-21.368-47.685-47.686z" fill="#ffe177" fill-opacity="1" data-original-color="#ffe177ff" stroke="none" stroke-opacity="1" style=""/><path d="m494.2 177.985c0 26.318-21.367 47.686-47.686 47.686-26.318 0-47.685-21.368-47.685-47.686z" fill="#fe646f" fill-opacity="1" data-original-color="#fe646fff" stroke="none" stroke-opacity="1" style=""/><path d="m450.266 177.985h43.934c0 25.056-19.367 45.624-43.934 47.54z" fill="#fd4755" fill-opacity="1" data-original-color="#fd4755ff" stroke="none" stroke-opacity="1" style=""/><g><path d="m495 34.669c0-3.363-2.731-6.094-6.095-6.094h-466.264c-3.363 0-6.094 2.731-6.094 6.094v12.189c0 3.364 2.731 6.095 6.094 6.095h466.264c3.364 0 6.095-2.731 6.095-6.095z" fill="#ecba78" fill-opacity="1" data-original-color="#ecba78ff" stroke="none" stroke-opacity="1" style=""/><path d="m16.547 42.953h427.624c3.364 0 6.095-2.731 6.095-6.095v-8.283h38.639c3.364 0 6.095 2.731 6.095 6.094v12.189c0 3.364-2.731 6.095-6.095 6.095h-466.264c-3.363 0-6.094-2.731-6.094-6.095z" fill="#d18c4c" fill-opacity="1" data-original-color="#e3a76fff" stroke="none" stroke-opacity="1" style=""/></g><g><path d="m255.773 273.283c0-4.728-3.839-8.567-8.567-8.567h-164.6c-4.728 0-8.567 3.839-8.567 8.567v105.258c0 4.729 3.839 8.567 8.567 8.567h164.6c4.728 0 8.567-3.838 8.567-8.567z" fill="#d8ecfe" fill-opacity="1" data-original-color="#d8ecfeff" stroke="none" stroke-opacity="1" style=""/><path d="m232.206 387.108c4.728 0 8.567-3.838 8.567-8.567v-105.258c0-4.728-3.839-8.567-8.567-8.567h15c4.728 0 8.567 3.839 8.567 8.567v105.258c0 4.729-3.839 8.567-8.567 8.567z" fill="#c4e2ff" fill-opacity="1" data-original-color="#c4e2ffff" stroke="none" stroke-opacity="1" style=""/></g><path d="m421.945 284.36c5.523 0 10 4.477 10 10v162.899h-144.646v-162.899c0-5.523 4.477-10 10-10z" fill="#ecba78" fill-opacity="1" data-original-color="#ecba78ff" stroke="none" stroke-opacity="1" style=""/><path d="m354.032 462.979c-1.487-1.453-2.41-3.479-2.41-5.72v-172.899h16v172.899c0 2.241-.923 4.267-2.41 5.72z" fill="#d18c4c" fill-opacity="1" data-original-color="#e3a76fff" stroke="none" stroke-opacity="1" style=""/><path d="m374.143 354.657c0-4.415 3.584-8 8-8 4.415 0 8 3.585 8 8v20.863c0 4.416-3.585 8-8 8-4.416 0-8-3.584-8-8zm-45.372 0c0-4.415 3.584-8 8-8 4.415 0 8 3.585 8 8v20.863c0 4.416-3.585 8-8 8-4.416 0-8-3.584-8-8z" fill="#d18c4c" fill-opacity="1" data-original-color="#e3a76fff" stroke="none" stroke-opacity="1" style=""/><g><path d="m493.453 463.142c0-3.364-2.731-6.095-6.094-6.095h-466.264c-3.364 0-6.095 2.731-6.095 6.095v12.189c0 3.363 2.731 6.094 6.095 6.094h466.264c3.363 0 6.094-2.731 6.094-6.094z" fill="#ecba78" fill-opacity="1" data-original-color="#ecba78ff" stroke="none" stroke-opacity="1" style=""/><path d="m15 471.425h429.171c3.364 0 6.095-2.731 6.095-6.094v-8.284h37.093c3.363 0 6.094 2.731 6.094 6.095v12.189c0 3.363-2.731 6.094-6.094 6.094h-466.264c-3.364 0-6.095-2.731-6.095-6.094z" fill="#d18c4c" fill-opacity="1" data-original-color="#e3a76fff" stroke="none" stroke-opacity="1" style=""/></g></g><g><path d="m293.376 147.93-74.761 85.427c-6.557 7.493-17.929 7.87-24.968.831l-1.066-1.066c-7.04-7.04-6.662-18.412.831-24.969l85.426-74.761c-6.631-15.024-1.213-36.27 14.586-52.069 19.166-19.167 46.348-23.058 60.714-8.692 14.365 14.365 10.475 41.548-8.692 60.714-15.799 15.799-37.046 21.216-52.07 14.585z" fill="#9facba" fill-opacity="1" data-original-color="#9facbaff" stroke="none" stroke-opacity="1" style=""/><path d="m327.995 81.263c4.371-.625 8.427 2.416 9.052 6.786.626 4.371-2.415 8.427-6.786 9.053-5.068.725-9.916 4.015-13.48 7.578-3.122 3.122-8.191 3.122-11.313 0s-3.122-8.191 0-11.313c5.892-5.893 14.145-10.904 22.527-12.104z" fill="#bad0e0" fill-opacity="1" data-original-color="#8d9ca8ff" stroke="none" stroke-opacity="1" style=""/><g fill="#9facba"><path d="m190.453 53.858c-3.122-3.122-3.122-8.191 0-11.313s8.192-3.122 11.314 0l48.409 48.409c14.653 14.653 14.652 38.631 0 53.282l-6.948 6.949c-14.653 14.652-38.629 14.652-53.282 0l-48.41-48.41c-3.122-3.122-3.122-8.191 0-11.313s8.192-3.122 11.314 0l48.41 48.409c8.43 8.43 22.224 8.43 30.654 0l6.949-6.948c8.429-8.43 8.43-22.225 0-30.655z" fill="#9facba" fill-opacity="1" data-original-color="#9facbaff" stroke="none" stroke-opacity="1" style=""/><path d="m233.35 149.029 14.671-14.671 84.329 73.801c7.491 6.556 7.869 17.924.83 24.963l-1.066 1.066c-7.039 7.039-18.407 6.662-24.963-.83z" fill="#9facba" fill-opacity="1" data-original-color="#9facbaff" stroke="none" stroke-opacity="1" style=""/><path d="m174.313 69.999c-3.122-3.122-3.122-8.192 0-11.314s8.191-3.122 11.313 0l48.41 48.41c3.122 3.122 3.122 8.191 0 11.313s-8.191 3.122-11.314 0zm43.087 53.732c3.122 3.122 3.122 8.191 0 11.313s-8.192 3.122-11.314 0l-48.409-48.409c-3.122-3.122-3.122-8.192 0-11.314s8.191-3.122 11.313 0z" fill="#9facba" fill-opacity="1" data-original-color="#9facbaff" stroke="none" stroke-opacity="1" style=""/></g></g></g></g></svg>