<svg version="1.1" id="Layer_1" xmlns="http://www.w3.org/2000/svg" xmlns:xlink="http://www.w3.org/1999/xlink" x="0px" y="0px" viewBox="0 0 512.001 512.001" style="enable-background:new 0 0 512.001 512.001;" xml:space="preserve" width="300" height="300" xmlns:svgjs="http://svgjs.dev/svgjs"><g width="100%" height="100%" transform="matrix(1,0,0,1,0,0)"><path style="" d="M256,0C145.715,0,55.99,89.724,55.99,200.01c0,32.312,10.395,68.833,30.893,108.549&#xA;&#9;c16.179,31.346,38.69,64.825,66.906,99.51c47.876,58.848,96.458,101.552,96.943,101.977c2.977,2.606,7.558,2.606,10.535,0&#xA;&#9;c0.485-0.424,49.066-43.129,96.943-101.977c28.217-34.685,50.729-68.164,66.906-99.51c20.499-39.716,30.893-76.238,30.893-108.549&#xA;&#9;C456.01,89.724,366.286,0,256,0z" fill="#f85d36" fill-opacity="1" data-original-color="#9fd444ff" stroke="none" stroke-opacity="1"/><path style="" d="M177.79,408.069c-28.217-34.685-50.728-68.164-66.906-99.51&#xA;&#9;c-20.499-39.716-30.893-76.238-30.893-108.549c0-106.255,83.29-193.41,188.009-199.64C264.029,0.134,260.03,0,256,0&#xA;&#9;C145.715,0,55.99,89.724,55.99,200.01c0,32.312,10.395,68.833,30.893,108.549c16.179,31.346,38.69,64.825,66.906,99.51&#xA;&#9;c47.876,58.848,96.458,101.552,96.943,101.977c2.977,2.606,7.558,2.606,10.535,0c0.106-0.093,2.522-2.216,6.732-6.093&#xA;&#9;C252.993,490.133,215.177,454.023,177.79,408.069z" fill="#bd4331" fill-opacity="1" data-original-color="#87bd31ff" stroke="none" stroke-opacity="1"/><circle style="" cx="256.002" cy="200.01" r="168.008" fill="#ffa88f" fill-opacity="1" data-original-color="#d6d3ceff" stroke="none" stroke-opacity="1"/><circle style="" cx="256.002" cy="200.01" r="152.007" fill="#f1f0ef" fill-opacity="1" data-original-color="#f1f0efff" stroke="none" stroke-opacity="1"/><g>
	<path style="" d="M191.997,272.013h-24.001c-4.418,0-8,3.582-8,8v24.001c0,4.418,3.582,8,8,8h24.001&#xA;&#9;&#9;c4.418,0,8-3.582,8-8v-24.001C199.998,275.595,196.415,272.013,191.997,272.013z" fill="#696156" fill-opacity="1" data-original-color="#857b6dff" stroke="none" stroke-opacity="1"/>
	<path style="" d="M344.005,272.013h-24.001c-4.418,0-8,3.582-8,8v24.001c0,4.418,3.582,8,8,8h24.001&#xA;&#9;&#9;c4.418,0,8-3.582,8-8v-24.001C352.005,275.595,348.423,272.013,344.005,272.013z" fill="#696156" fill-opacity="1" data-original-color="#857b6dff" stroke="none" stroke-opacity="1"/>
</g><path style="" d="M328.004,96.005H183.997c-13.234,0-24.001,10.768-24.001,24.001v160.008c0,4.418,3.582,8,8,8h176.009&#xA;&#9;c4.418,0,8-3.582,8-8V120.006C352.005,106.772,341.237,96.005,328.004,96.005z" fill="#56a4ff" fill-opacity="1" data-original-color="#ff6c56ff" stroke="none" stroke-opacity="1"/><path style="" d="M175.996,280.014V120.006c0-13.234,10.768-24.001,24.001-24.001h-16.001&#xA;&#9;c-13.234,0-24.001,10.768-24.001,24.001v160.008c0,4.418,3.582,8,8,8h16.001C179.579,288.014,175.996,284.432,175.996,280.014z" fill="#476fdc" fill-opacity="1" data-original-color="#ff524aff" stroke="none" stroke-opacity="1"/><rect x="191.999" y="128.006" style="" width="128.006" height="72.004" fill="#a5e0eb" fill-opacity="1" data-original-color="#a0998dff" stroke="none" stroke-opacity="1"/><g>
	<polygon style="" points="191.997,128.006 191.997,200.01 232.665,200.01 304.669,128.006 &#9;" fill="#71bfd7" fill-opacity="1" data-original-color="#938a7dff" stroke="none" stroke-opacity="1"/>
	<polygon style="" points="320.003,200.01 320.003,154.008 274.001,200.01 &#9;" fill="#71bfd7" fill-opacity="1" data-original-color="#938a7dff" stroke="none" stroke-opacity="1"/>
</g><g>
	<path style="" d="M320.003,208.01H191.997c-4.418,0-8-3.582-8-8v-72.004c0-4.418,3.582-8,8-8h128.006&#xA;&#9;&#9;c4.418,0,8,3.582,8,8v72.004C328.004,204.428,324.422,208.01,320.003,208.01z M199.998,192.009h112.005v-56.003H199.998V192.009z" fill="#476fdc" fill-opacity="1" data-original-color="#ff524aff" stroke="none" stroke-opacity="1"/>
	<path style="" d="M280.001,232.011h-48.002c-4.418,0-8-3.582-8-8s3.582-8,8-8h48.002c4.418,0,8,3.582,8,8&#xA;&#9;&#9;S284.42,232.011,280.001,232.011z" fill="#476fdc" fill-opacity="1" data-original-color="#ff524aff" stroke="none" stroke-opacity="1"/>
	<path style="" d="M280.001,256.013h-48.002c-4.418,0-8-3.582-8-8s3.582-8,8-8h48.002c4.418,0,8,3.582,8,8&#xA;&#9;&#9;S284.42,256.013,280.001,256.013z" fill="#476fdc" fill-opacity="1" data-original-color="#ff524aff" stroke="none" stroke-opacity="1"/>
</g><path style="" d="M312.003,224.011c-8.822,0-16.001,7.178-16.001,16.001s7.178,16.001,16.001,16.001&#xA;&#9;c8.822,0,16.001-7.178,16.001-16.001S320.825,224.011,312.003,224.011z" fill="#ffc046" fill-opacity="1" data-original-color="#ffd761ff" stroke="none" stroke-opacity="1"/><path style="" d="M312.003,232.011c-4.411,0-8,3.589-8,8s3.589,8,8,8c4.411,0,8-3.589,8-8&#xA;&#9;S316.414,232.011,312.003,232.011z" fill="#ffda6a" fill-opacity="1" data-original-color="#ffcb2eff" stroke="none" stroke-opacity="1"/><path style="" d="M199.998,224.011c-8.822,0-16.001,7.178-16.001,16.001s7.178,16.001,16.001,16.001&#xA;&#9;c8.822,0,16.001-7.178,16.001-16.001S208.82,224.011,199.998,224.011z" fill="#ffc046" fill-opacity="1" data-original-color="#ffd761ff" stroke="none" stroke-opacity="1"/><path style="" d="M199.998,232.011c-4.411,0-8,3.589-8,8s3.589,8,8,8s8-3.589,8-8S204.409,232.011,199.998,232.011z" fill="#ffda6a" fill-opacity="1" data-original-color="#ffcb2eff" stroke="none" stroke-opacity="1"/><g>
</g><g>
</g><g>
</g><g>
</g><g>
</g><g>
</g><g>
</g><g>
</g><g>
</g><g>
</g><g>
</g><g>
</g><g>
</g><g>
</g><g>
</g></g></svg>