<svg height="512pt" viewBox="-33 0 512 512" width="512pt" xmlns="http://www.w3.org/2000/svg"><path d="m422.867188 185.402344h-42.816407c-4.273437 0-7.738281-3.464844-7.738281-7.738282 0-4.273437 3.464844-7.738281 7.738281-7.738281h42.816407c4.273437 0 7.738281 3.464844 7.738281 7.738281-.003907 4.273438-3.464844 7.738282-7.738281 7.738282zm0 0" fill="#00915d"/><path d="m68.605469 185.402344h-42.8125c-4.273438 0-7.738281-3.464844-7.738281-7.738282 0-4.273437 3.464843-7.738281 7.738281-7.738281h42.8125c4.273437 0 7.738281 3.464844 7.738281 7.738281 0 4.273438-3.464844 7.738282-7.738281 7.738282zm0 0" fill="#00915d"/><path d="m324.601562 512h-202.265624c-9.097657 0-17.25-5.625-20.480469-14.132812l-19.394531-51.105469h282.824218l-20.3125 51.386719c-3.304687 8.359374-11.382812 13.851562-20.371094 13.851562zm0 0" fill="#5a5a5a"/><path d="m299.332031 446.761719-14.199219 35.910156c-3.304687 8.359375-11.378906 13.851563-20.371093 13.851563h-163.414063l.507813 1.34375c3.230469 8.507812 11.382812 14.132812 20.480469 14.132812h202.261718c8.992188 0 17.066406-5.492188 20.375-13.851562l20.3125-51.386719zm0 0" fill="#444"/><path d="m360.710938 457.078125h-274.703126c-17.398437 0-31.503906-14.105469-31.503906-31.503906v-326.386719c0-54.78125 44.410156-99.1875 99.1875-99.1875h139.332032c54.78125 0 99.1875 44.40625 99.1875 99.1875v326.390625c0 17.398437-14.101563 31.5-31.5 31.5zm0 0" fill="#00915d"/><path d="m318.160156 3.21875c16.011719 17.613281 25.769532 41.011719 25.769532 66.691406v326.390625c0 17.394531-14.105469 31.5-31.503907 31.5h-257.835937c1.144531 16.359375 14.765625 29.277344 31.417968 29.277344h274.703126c17.398437 0 31.5-14.105469 31.5-31.503906v-326.386719c0-46.09375-31.445313-84.839844-74.050782-95.96875zm0 0" fill="#007b4e"/><path d="m289.878906 0h-133.042968c-12.871094 0-25.183594 2.382812-36.53125 6.722656v223.042969c0 19.941406 16.167968 36.105469 36.109374 36.105469h130.792969c19.941407 0 36.109375-16.164063 36.109375-36.105469v-224.171875c-10.476562-3.621094-21.726562-5.59375-33.4375-5.59375zm0 0" fill="#5a5a5a"/><path d="m323.316406 457.078125h-203.011718v-53.675781c0-19.328125 15.671874-35 35-35h133.011718c19.328125 0 35 15.671875 35 35zm0 0" fill="#1fb480"/><path d="m289.878906 0h-4.40625v229.765625c0 19.941406-16.167968 36.105469-36.109375 36.105469h37.84375c19.941407 0 36.109375-16.164063 36.109375-36.105469v-224.171875c-10.476562-3.621094-21.726562-5.59375-33.4375-5.59375zm0 0" fill="#444"/><path d="m287.207031 368.402344h-37.84375c19.941407 0 36.109375 16.167968 36.109375 36.109375v52.566406h37.84375v-52.566406c0-19.941407-16.167968-36.109375-36.109375-36.109375zm0 0" fill="#00a86d"/><path d="m139.03125 431.785156h-37.453125c-3.867187 0-7-3.136718-7-7v-37.457031c0-3.863281 3.132813-7 7-7h37.453125c3.867188 0 7 3.136719 7 7v37.457031c0 3.863282-3.132812 7-7 7zm0 0" fill="#cecece"/><path d="m138.8125 380.328125h-7.222656v27.816406c0 3.988281-3.234375 7.222657-7.222656 7.222657h-29.789063v9.195312c0 3.988281 3.230469 7.222656 7.222656 7.222656h37.007813c3.988281 0 7.222656-3.234375 7.222656-7.222656v-37.011719c0-3.988281-3.230469-7.222656-7.21875-7.222656zm0 0" fill="#bfbfbf"/><path d="m342.042969 431.785156h-37.453125c-3.867188 0-7-3.136718-7-7v-37.457031c0-3.863281 3.132812-7 7-7h37.453125c3.867187 0 7 3.136719 7 7v37.457031c0 3.863282-3.132813 7-7 7zm0 0" fill="#cecece"/><path d="m341.820312 380.328125h-7.21875v27.816406c0 3.988281-3.234374 7.222657-7.222656 7.222657h-29.789062v9.195312c0 3.988281 3.230468 7.222656 7.21875 7.222656h37.011718c3.988282 0 7.222657-3.234375 7.222657-7.222656v-37.011719c0-3.988281-3.234375-7.222656-7.222657-7.222656zm0 0" fill="#bfbfbf"/><path d="m145.6875 316.425781c0 13.671875-11.085938 24.757813-24.761719 24.757813-13.671875 0-24.757812-11.085938-24.757812-24.757813 0-13.675781 11.085937-24.761719 24.757812-24.761719 13.675781 0 24.761719 11.085938 24.761719 24.761719zm0 0" fill="#ffd500"/><path d="m128.511719 292.851562c1.121093 2.828126 1.742187 5.90625 1.742187 9.128907 0 13.675781-11.085937 24.761719-24.757812 24.761719-2.648438 0-5.195313-.417969-7.585938-1.1875 3.636719 9.15625 12.566406 15.628906 23.015625 15.628906 13.675781 0 24.761719-11.085938 24.761719-24.757813 0-11.03125-7.214844-20.371093-17.175781-23.574219zm0 0" fill="#fbc700"/><path d="m350.550781 316.425781c0 13.671875-11.085937 24.757813-24.761719 24.757813-13.675781 0-24.761718-11.085938-24.761718-24.757813 0-13.675781 11.085937-24.761719 24.761718-24.761719 13.675782 0 24.761719 11.085938 24.761719 24.761719zm0 0" fill="#ffd500"/><path d="m333.371094 292.851562c1.121094 2.828126 1.746094 5.90625 1.746094 9.128907 0 13.675781-11.085938 24.761719-24.761719 24.761719-2.644531 0-5.191407-.417969-7.582031-1.1875 3.636718 9.15625 12.566406 15.628906 23.015624 15.628906 13.675782 0 24.761719-11.085938 24.761719-24.757813 0-11.03125-7.214843-20.371093-17.179687-23.574219zm0 0" fill="#fbc700"/><path d="m286.21875 194.6875h-128.816406c-7.730469 0-14-6.269531-14-14v-104.054688c0-7.734374 6.269531-14 14-14h128.816406c7.730469 0 14 6.265626 14 14v104.054688c0 7.730469-6.269531 14-14 14zm0 0" fill="#d5f3f7"/><path d="m285.773438 62.632812h-20.570313v102.136719c0 7.976563-6.46875 14.441407-14.445313 14.441407h-107.355468v1.03125c0 7.976562 6.46875 14.445312 14.445312 14.445312h127.925782c7.976562 0 14.445312-6.46875 14.445312-14.445312v-103.167969c0-7.976563-6.46875-14.441407-14.445312-14.441407zm0 0" fill="#a7e8f1"/><path d="m235.042969 31.800781c0 6.453125-5.230469 11.683594-11.683594 11.683594-6.457031 0-11.6875-5.230469-11.6875-11.683594s5.230469-11.6875 11.6875-11.6875c6.453125 0 11.683594 5.234375 11.683594 11.6875zm0 0" fill="#ffd500"/><path d="m20.578125 224.410156h-6.078125c-8.007812 0-14.5-6.488281-14.5-14.5v-43.023437c0-8.007813 6.492188-14.5 14.5-14.5h6.078125c8.007813 0 14.5 6.492187 14.5 14.5v43.023437c0 8.011719-6.492187 14.5-14.5 14.5zm0 0" fill="#1fb480"/><path d="m432.214844 224.410156h-6.074219c-8.007813 0-14.5-6.488281-14.5-14.5v-43.023437c0-8.007813 6.492187-14.5 14.5-14.5h6.074219c8.007812 0 14.5 6.492187 14.5 14.5v43.023437c0 8.011719-6.492188 14.5-14.5 14.5zm0 0" fill="#1fb480"/><path d="m20.117188 152.386719h-5.15625c-2.035157 0-3.972657.410156-5.738282 1.144531 5.414063 2.25 9.222656 7.585938 9.222656 13.816406v42.105469c0 6.226563-3.808593 11.5625-9.222656 13.8125 1.765625.738281 3.703125 1.144531 5.738282 1.144531h5.15625c8.261718 0 14.957031-6.695312 14.957031-14.957031v-42.105469c.003906-8.261718-6.695313-14.960937-14.957031-14.960937zm0 0" fill="#00a86d"/><path d="m431.757812 152.386719h-5.160156c-2.03125 0-3.96875.410156-5.734375 1.144531 5.414063 2.25 9.222657 7.585938 9.222657 13.816406v42.105469c0 6.226563-3.808594 11.5625-9.222657 13.8125 1.765625.738281 3.703125 1.144531 5.734375 1.144531h5.160156c8.261719 0 14.957032-6.695312 14.957032-14.957031v-42.105469c0-8.261718-6.695313-14.960937-14.957032-14.960937zm0 0" fill="#00a86d"/><g fill="#838383"><path d="m246.640625 217.796875c-1.980469 0-3.960937-.757813-5.46875-2.265625l-77.125-77.125c-3.019531-3.019531-3.019531-7.917969 0-10.941406 3.023437-3.019532 7.921875-3.019532 10.941406 0l77.125 77.121094c3.019531 3.023437 3.019531 7.921874 0 10.945312-1.511719 1.507812-3.492187 2.265625-5.472656 2.265625zm0 0"/><path d="m298.933594 217.796875c-1.980469 0-3.960938-.757813-5.472656-2.265625l-77.121094-77.125c-3.023438-3.019531-3.023438-7.917969 0-10.941406 3.019531-3.019532 7.921875-3.019532 10.941406 0l77.121094 77.121094c3.023437 3.023437 3.023437 7.921874 0 10.945312-1.507813 1.507812-3.488282 2.265625-5.46875 2.265625zm0 0"/></g></svg>