<svg width="40" height="40" viewBox="0 0 40 40" fill="none" xmlns="http://www.w3.org/2000/svg">
<g filter="url(#filter0_ii_367_1257)">
<rect width="40" height="40" rx="8" fill="url(#paint0_linear_367_1257)" fill-opacity="0.2"/>
<g filter="url(#filter1_i_367_1257)">
<path d="M9.8788 14.2748C9.37449 13.8361 8.64444 13.9331 8.24819 14.4914C7.85195 15.0498 7.93955 15.858 8.44387 16.2967L19.2637 25.7088C19.3381 25.7765 19.4189 25.8327 19.5038 25.877C19.821 26.0433 20.1864 26.0387 20.4962 25.877C20.5811 25.8327 20.6619 25.7765 20.7363 25.7088L31.5561 16.2967C32.0604 15.858 32.1481 15.0498 31.7518 14.4914C31.3556 13.9331 30.6255 13.8361 30.1212 14.2748L20 23.0792L9.8788 14.2748Z" fill="#8C6B37"/>
<path d="M9.8788 14.2748C9.37449 13.8361 8.64444 13.9331 8.24819 14.4914C7.85195 15.0498 7.93955 15.858 8.44387 16.2967L19.2637 25.7088C19.3381 25.7765 19.4189 25.8327 19.5038 25.877C19.821 26.0433 20.1864 26.0387 20.4962 25.877C20.5811 25.8327 20.6619 25.7765 20.7363 25.7088L31.5561 16.2967C32.0604 15.858 32.1481 15.0498 31.7518 14.4914C31.3556 13.9331 30.6255 13.8361 30.1212 14.2748L20 23.0792L9.8788 14.2748Z" stroke="#8C6B37"/>
</g>
</g>
<defs>
<filter id="filter0_ii_367_1257" x="-1" y="-1" width="42" height="42" filterUnits="userSpaceOnUse" color-interpolation-filters="sRGB">
<feFlood flood-opacity="0" result="BackgroundImageFix"/>
<feBlend mode="normal" in="SourceGraphic" in2="BackgroundImageFix" result="shape"/>
<feColorMatrix in="SourceAlpha" type="matrix" values="0 0 0 0 0 0 0 0 0 0 0 0 0 0 0 0 0 0 127 0" result="hardAlpha"/>
<feOffset dx="-1" dy="-1"/>
<feGaussianBlur stdDeviation="4"/>
<feComposite in2="hardAlpha" operator="arithmetic" k2="-1" k3="1"/>
<feColorMatrix type="matrix" values="0 0 0 0 0.54902 0 0 0 0 0.498039 0 0 0 0 0.270588 0 0 0 0.2 0"/>
<feBlend mode="normal" in2="shape" result="effect1_innerShadow_367_1257"/>
<feColorMatrix in="SourceAlpha" type="matrix" values="0 0 0 0 0 0 0 0 0 0 0 0 0 0 0 0 0 0 127 0" result="hardAlpha"/>
<feOffset dx="1" dy="1"/>
<feGaussianBlur stdDeviation="2"/>
<feComposite in2="hardAlpha" operator="arithmetic" k2="-1" k3="1"/>
<feColorMatrix type="matrix" values="0 0 0 0 0.54902 0 0 0 0 0.498039 0 0 0 0 0.270588 0 0 0 0.2 0"/>
<feBlend mode="normal" in2="effect1_innerShadow_367_1257" result="effect2_innerShadow_367_1257"/>
</filter>
<filter id="filter1_i_367_1257" x="8" y="14" width="25" height="13" filterUnits="userSpaceOnUse" color-interpolation-filters="sRGB">
<feFlood flood-opacity="0" result="BackgroundImageFix"/>
<feBlend mode="normal" in="SourceGraphic" in2="BackgroundImageFix" result="shape"/>
<feColorMatrix in="SourceAlpha" type="matrix" values="0 0 0 0 0 0 0 0 0 0 0 0 0 0 0 0 0 0 127 0" result="hardAlpha"/>
<feOffset dx="1" dy="1"/>
<feGaussianBlur stdDeviation="2"/>
<feComposite in2="hardAlpha" operator="arithmetic" k2="-1" k3="1"/>
<feColorMatrix type="matrix" values="0 0 0 0 0 0 0 0 0 0 0 0 0 0 0 0 0 0 0.5 0"/>
<feBlend mode="normal" in2="shape" result="effect1_innerShadow_367_1257"/>
</filter>
<linearGradient id="paint0_linear_367_1257" x1="20" y1="0" x2="20" y2="40" gradientUnits="userSpaceOnUse">
<stop stop-color="white"/>
<stop offset="1" stop-color="white" stop-opacity="0"/>
</linearGradient>
</defs>
</svg>
