<svg width="75" height="57" viewBox="0 0 75 57" fill="none" xmlns="http://www.w3.org/2000/svg">
<path d="M68.5188 28.8672L71.3473 31.6956L74.1757 28.8672L71.3473 26.0388L68.5188 28.8672ZM41.6904 50.0388C40.1283 51.6009 40.1283 54.1335 41.6904 55.6956C43.2524 57.2577 45.7851 57.2577 47.3472 55.6956L41.6904 50.0388ZM47.3472 2.03876C45.7851 0.476662 43.2525 0.476664 41.6904 2.03876C40.1283 3.60086 40.1283 6.13352 41.6904 7.69562L47.3472 2.03876ZM4.1875 24.8672H0.1875V32.8672H4.1875V24.8672ZM65.6904 26.0388L41.6904 50.0388L47.3472 55.6956L71.3473 31.6956L65.6904 26.0388ZM41.6904 7.69562L65.6904 31.6956L71.3473 26.0388L47.3472 2.03876L41.6904 7.69562ZM68.5188 24.8672H4.1875V32.8672H68.5188V24.8672Z" fill="#FBE0B7"/>
</svg>
