<svg width="16" height="16" viewBox="0 0 16 16" fill="none" xmlns="http://www.w3.org/2000/svg">
<path id="Union" fill-rule="evenodd" clip-rule="evenodd" d="M0.351455 13.9514C-0.117152 14.42 -0.117152 15.1798 0.351455 15.6484C0.820062 16.117 1.57982 16.117 2.04843 15.6484L7.99971 9.69714L13.9516 15.6489C14.4202 16.1175 15.1799 16.1175 15.6485 15.6489C16.1172 15.1803 16.1172 14.4206 15.6485 13.952L9.69669 8.00019L15.6485 2.04841C16.1171 1.57981 16.1171 0.820054 15.6485 0.351452C15.1799 -0.11715 14.4202 -0.117151 13.9515 0.351452L7.99971 6.30323L2.04845 0.352027C1.57985 -0.116575 0.820084 -0.116575 0.351477 0.352027C-0.11713 0.820629 -0.11713 1.58038 0.351477 2.04899L6.30274 8.00019L0.351455 13.9514Z" fill="url(#paint0_linear_367_751)"/>
<defs>
<linearGradient id="paint0_linear_367_751" x1="10.6667" y1="0" x2="10.6667" y2="15.2385" gradientUnits="userSpaceOnUse">
<stop stop-color="#FFF3D3"/>
<stop offset="0.125" stop-color="#FFEFC5"/>
<stop offset="0.260417" stop-color="#FFEEC1"/>
<stop offset="1" stop-color="#B5A26F"/>
</linearGradient>
</defs>
</svg>
