<svg id="Capa_1" enable-background="new 0 0 512 512" height="512" viewBox="0 0 512 512" width="512" xmlns="http://www.w3.org/2000/svg"><g><g><g><path d="m413.634 107.733c-15.674 12.167-35.359 16.422-53.782 13.292-.314-18.968 8.146-37.878 24.73-50.751 13.742-10.667 30.566-15.253 46.919-14.112 4.012.28 6.968 3.897 6.572 7.899-1.63 16.509-9.922 32.404-24.439 43.672z" fill="#9be69d"/><path d="m431.501 56.162c-8.585-.599-17.297.397-25.627 3.006.968 1.375 1.472 3.093 1.294 4.893-1.631 16.51-9.923 32.404-24.44 43.673-6.978 5.417-14.753 9.256-22.855 11.582-.006.57-.03 1.139-.021 1.709 18.422 3.131 38.107-1.124 53.782-13.292 14.517-11.269 22.809-27.163 24.44-43.673.395-4.002-2.561-7.618-6.573-7.898z" fill="#6fd7a3"/><g><path d="m359.858 128.752c-2.322 0-4.619-1.043-6.14-3.03-2.594-3.388-1.95-8.238 1.438-10.832l43.071-32.977c3.388-2.594 8.237-1.951 10.832 1.438 2.594 3.388 1.95 8.238-1.438 10.832l-43.071 32.977c-1.402 1.073-3.054 1.592-4.692 1.592z" fill="#bbf49b"/></g></g><g><path d="m351.977 181.503c-.916 0-1.848-.164-2.755-.51-3.986-1.522-5.984-5.988-4.462-9.974 6.118-16.023 8.591-33.377 7.152-50.186-2.629-30.701-17.529-52.827-26.177-63.284-2.719-3.288-2.258-8.159 1.03-10.878 3.289-2.718 8.159-2.257 10.878 1.03 9.796 11.846 26.677 36.928 29.664 71.813 1.636 19.115-1.168 38.83-8.112 57.016-1.174 3.08-4.106 4.973-7.218 4.973z" fill="#6fd7a3"/></g><g><path d="m392.856 150.467c-13.463 0-26.404 2.971-38.474 8.44-12.07-5.469-25.01-8.44-38.474-8.44-65.801 0-119.144 70.881-119.144 158.317s53.343 158.317 119.144 158.317c13.463 0 26.404-2.971 38.474-8.44 12.07 5.469 25.01 8.44 38.474 8.44 65.801 0 119.144-70.881 119.144-158.317s-53.343-158.317-119.144-158.317z" fill="#fe9738"/><g><path d="m392.856 150.467c-5.234 0-10.389.455-15.445 1.325 58.497 10.073 103.683 76.518 103.683 156.992s-45.186 146.919-103.683 156.992c5.056.87 10.21 1.325 15.445 1.325 65.801 0 119.144-70.881 119.144-158.317s-53.343-158.317-119.144-158.317z" fill="#fe860a"/></g><g fill="#fe860a"><path d="m369.44 153.535c-5.146 1.364-10.174 3.16-15.058 5.373-2.419-1.096-4.874-2.087-7.36-2.978-11.082 14.439-23.459 34.704-29.048 52.027-1.31 4.061.92 8.415 4.981 9.725.788.255 1.588.375 2.374.375 3.263 0 6.296-2.083 7.352-5.356 6.682-20.709 25.875-48.591 36.759-59.166z"/><path d="m372.751 464.85c-11.416-9.25-33.541-34.033-40.276-50.419-1.622-3.946-6.137-5.83-10.084-4.209-3.947 1.623-5.831 6.137-4.209 10.084 5.35 13.015 17.526 28.906 28.986 41.282 2.436-.878 4.843-1.853 7.215-2.928 5.926 2.686 12.063 4.766 18.368 6.19z"/></g></g></g><g><g><path d="m196.091 150.467c-12.455 0-24.463 2.543-35.748 7.254-1.743.727-3.709.727-5.452 0-11.285-4.711-23.293-7.254-35.748-7.254-65.8 0-119.143 70.881-119.143 158.317s53.343 158.317 119.144 158.317c12.455 0 24.463-2.543 35.748-7.254 1.743-.727 3.709-.727 5.452 0 11.285 4.711 23.293 7.254 35.748 7.254 65.801 0 119.144-70.881 119.144-158.317-.001-87.436-53.343-158.317-119.145-158.317z" fill="#fee97d"/></g><g><path d="m196.091 150.467c-5.234 0-10.389.455-15.445 1.325 58.497 10.073 103.683 76.518 103.683 156.992s-45.186 146.919-103.683 156.992c5.056.87 10.21 1.325 15.445 1.325 65.801 0 119.144-70.881 119.144-158.317s-53.342-158.317-119.144-158.317z" fill="#f4da6e"/></g><ellipse cx="157.618" cy="308.784" fill="#d77f4a" rx="54.6" ry="83.114"/><path d="m157.618 225.671c-5.369 0-10.552 1.2-15.453 3.398 22.626 10.148 39.147 41.986 39.147 79.716 0 37.729-16.521 69.567-39.147 79.716 4.901 2.198 10.084 3.398 15.453 3.398 30.155 0 54.6-37.211 54.6-83.114s-24.446-83.114-54.6-83.114z" fill="#c86d36"/></g></g></svg>