<svg id="Capa_1" enable-background="new 0 0 512 512" height="300" viewBox="0 0 512 512" width="300" xmlns="http://www.w3.org/2000/svg" version="1.1" xmlns:xlink="http://www.w3.org/1999/xlink" xmlns:svgjs="http://svgjs.dev/svgjs"><g width="100%" height="100%" transform="matrix(1,0,0,1,0,0)"><ellipse cx="312.328" cy="256" fill="#994e37" rx="199.672" ry="236.731" fill-opacity="1" data-original-color="#994e37ff" stroke="none" stroke-opacity="1"/><path d="m187.389 185.864c-23.385 0-45.891 1.61-66.97 4.575-5.051 20.82-7.764 42.814-7.764 65.561 0 121.462 77.16 221.54 176.533 235.139 113.607-59.005 113.274-212.689 113.274-212.859 0-.001.001-.002.001-.002 0-51.039-96.292-92.414-215.074-92.414z" fill="#8c4534" fill-opacity="1" data-original-color="#8c4534ff" stroke="none" stroke-opacity="1"/><ellipse cx="187.389" cy="287.491" fill="#fff6e5" rx="187.389" ry="80.518" fill-opacity="1" data-original-color="#e0e0e0ff" stroke="none" stroke-opacity="1"/><path d="m187.389 349.428c-96.178 0-175.418-31.136-186.14-71.228-.815 3.049-1.249 6.148-1.249 9.291 0 44.469 83.897 80.518 187.389 80.518s187.389-36.049 187.389-80.518c0-3.143-.434-6.241-1.249-9.29-10.721 40.092-89.961 71.227-186.14 71.227z" fill="#fcdeb0" fill-opacity="1" data-original-color="#ccccccff" stroke="none" stroke-opacity="1"/><ellipse cx="187.389" cy="287.491" fill="#fcebc7" rx="146.515" ry="44.018" fill-opacity="1" data-original-color="#999999ff" stroke="none" stroke-opacity="1"/><path d="m187.389 312.928c-70.308 0-129.039-14.879-143.235-34.728-2.142 2.995-3.28 6.103-3.28 9.29 0 24.311 65.597 44.018 146.515 44.018s146.515-19.708 146.515-44.018c0-3.188-1.138-6.295-3.28-9.29-14.196 19.849-72.927 34.728-143.235 34.728z" fill="#efd0a7" fill-opacity="1" data-original-color="#8c8c8cff" stroke="none" stroke-opacity="1"/><path d="m187.389 368.009c-103.492 0-187.389-36.049-187.389-80.518 0 0-.538 205.24 187.389 205.24 187.928 0 187.389-205.24 187.389-205.24.001 44.469-83.896 80.518-187.389 80.518z" fill="#c97c49" fill-opacity="1" data-original-color="#cc624eff" stroke="none" stroke-opacity="1"/><path d="m187.389 474.15c-140.212 0-175.511-114.244-184.398-172.261-1.962-4.672-2.991-9.483-2.991-14.398 0 0-.538 205.24 187.389 205.24 187.928 0 187.389-205.24 187.389-205.24 0 4.915-1.028 9.727-2.992 14.398-8.886 58.017-44.184 172.261-184.397 172.261z" fill="#a35d33" fill-opacity="1" data-original-color="#bc574aff" stroke="none" stroke-opacity="1"/><g fill="#70362b"><circle cx="281.313" cy="87.879" r="14.221" fill="#70362b" fill-opacity="1" data-original-color="#70362bff" stroke="none" stroke-opacity="1"/><circle cx="312.443" cy="122.887" r="14.221" fill="#70362b" fill-opacity="1" data-original-color="#70362bff" stroke="none" stroke-opacity="1"/><ellipse cx="343.559" cy="87.871" rx="14.221" ry="14.221" transform="matrix(.122 -.993 .993 .122 214.37 418.12)" fill="#70362b" fill-opacity="1" data-original-color="#70362bff" stroke="none" stroke-opacity="1"/></g></g></svg>