<svg id="Capa_1" enable-background="new 0 0 512 512" height="300" viewBox="0 0 512 512" width="300" xmlns="http://www.w3.org/2000/svg" version="1.1" xmlns:xlink="http://www.w3.org/1999/xlink" xmlns:svgjs="http://svgjs.dev/svgjs"><g width="100%" height="100%" transform="matrix(1,0,0,1,0,0)"><g><path d="m512 256c0 141.385-114.615 256-256 256s-256-114.615-256-256 114.615-256 256-256 256 114.615 256 256z" fill="#00b972" fill-opacity="0" data-original-color="#00b972ff" stroke="none" stroke-opacity="1"/><path d="m454.433 256c0 109.591-88.841 198.433-198.433 198.433s-198.433-88.842-198.433-198.433 88.842-198.433 198.433-198.433 198.433 88.842 198.433 198.433z" fill="#00d683" fill-opacity="0" data-original-color="#00d683ff" stroke="none" stroke-opacity="1"/><path d="m483.081 178.868c-19.1 27.746-47.631 50.511-83.294 63.622s-72.963 14.547-106.865 6.285c3.424-4.974 7.151-9.788 11.168-14.415-13.278 3.887-26.807 6.215-40.276 7.008 10.118-32.129 30.713-62.265 60.959-85.263 30.246-22.999 65.483-35.316 100.316-37.366-7.003 22.239-19.026 43.522-35.795 62.145 31.609-9.047 64.009-9.273 93.787-2.016zm-311.202-177.246c-3.247-2.572-7.964-2.025-10.536 1.221-20.701 26.125-33.944 72.53-30.148 105.646.467 4.078 4.123 7.016 8.194 6.609.037-.004.074-.007.111-.012 4.115-.472 7.069-4.19 6.597-8.305-3.343-29.166 8.771-71.614 27.003-94.622 2.572-3.247 2.026-7.965-1.221-10.537z" fill="#006e42" fill-opacity="1" data-original-color="#006e42ff" stroke="none" stroke-opacity="1"/><path d="m140.39 353.12c-71.063 0-133.696-69.065-139.894-154.262-6.197-85.196 46.387-154.262 117.451-154.262s133.696 69.065 139.894 154.262c6.197 85.196-46.387 154.262-117.451 154.262z" fill="#823873" fill-opacity="1" data-original-color="#823873ff" stroke="none" stroke-opacity="1"/><path d="m309.706 232.8c-14.431 84.093-81.887 137.067-150.666 118.321s-112.838-102.112-98.407-186.205 81.887-137.067 150.666-118.321c68.779 18.745 112.837 102.112 98.407 186.205z" fill="#9b4589" fill-opacity="1" data-original-color="#9b4589ff" stroke="none" stroke-opacity="1"/><path d="m504.5 361.934c0 78.737-63.829 142.566-142.566 142.566s-142.566-63.829-142.566-142.566 63.829-142.566 142.566-142.566 142.566 63.829 142.566 142.566z" fill="#c73288" fill-opacity="1" data-original-color="#c73288ff" stroke="none" stroke-opacity="1"/><path d="m475.368 361.934c0 62.648-50.786 113.434-113.434 113.434s-113.434-50.786-113.434-113.434 50.786-113.434 113.434-113.434 113.434 50.786 113.434 113.434z" fill="#ffe7bf" fill-opacity="1" data-original-color="#ffe7bfff" stroke="none" stroke-opacity="1"/><path d="m361.935 211.868c-82.747 0-150.066 67.319-150.066 150.066 0 82.746 67.319 150.065 150.066 150.065 82.746.001 150.065-67.318 150.065-150.064 0-82.747-67.319-150.067-150.065-150.067zm0 285.132c-74.476 0-135.066-60.59-135.066-135.065s60.591-135.066 135.066-135.066 135.065 60.59 135.065 135.066-60.59 135.065-135.065 135.065z" fill="#823873" fill-opacity="1" data-original-color="#823873ff" stroke="none" stroke-opacity="1"/><path d="m446.341 375.771c2.276 4.052 1.06 9.173-2.796 11.768-3.129 2.106-4.595 5.952-3.662 9.606 1.15 4.503-1.351 9.135-5.747 10.644-3.567 1.224-5.979 4.56-6.023 8.331-.055 4.647-3.669 8.474-8.305 8.794-3.763.26-6.955 2.857-7.974 6.489-1.256 4.475-5.737 7.235-10.298 6.344-3.701-.723-7.458.96-9.382 4.204-2.371 3.997-7.414 5.504-11.589 3.463-3.388-1.656-7.452-1.003-10.15 1.632-3.325 3.248-8.586 3.398-12.091.345-2.844-2.477-6.938-2.897-10.227-1.05-4.052 2.276-9.173 1.06-11.768-2.796-2.106-3.129-5.952-4.595-9.607-3.662-4.503 1.15-9.135-1.351-10.644-5.747-1.224-3.567-4.56-5.979-8.331-6.023-4.647-.055-8.474-3.669-8.794-8.305-.259-3.763-2.857-6.955-6.489-7.974-4.475-1.256-7.236-5.737-6.344-10.298.723-3.701-.96-7.458-4.204-9.382-3.997-2.371-5.504-7.414-3.463-11.589 1.657-3.388 1.003-7.452-1.632-10.15-3.248-3.325-3.398-8.586-.345-12.091 2.477-2.844 2.898-6.939 1.051-10.227-2.276-4.052-1.06-9.173 2.796-11.768 3.129-2.106 4.595-5.952 3.662-9.606-1.15-4.503 1.351-9.135 5.746-10.644 3.567-1.224 5.979-4.56 6.023-8.331.055-4.647 3.669-8.474 8.305-8.794 3.763-.26 6.956-2.857 7.974-6.489 1.256-4.475 5.737-7.235 10.298-6.344 3.701.723 7.458-.96 9.382-4.204 2.371-3.997 7.414-5.504 11.589-3.463 3.388 1.657 7.452 1.003 10.15-1.632 3.325-3.248 8.586-3.398 12.091-.345 2.844 2.477 6.939 2.898 10.227 1.051 4.052-2.276 9.173-1.06 11.768 2.796 2.106 3.129 5.952 4.595 9.606 3.662 4.503-1.15 9.135 1.351 10.644 5.747 1.224 3.567 4.56 5.979 8.331 6.023 4.647.055 8.474 3.669 8.794 8.305.26 3.763 2.857 6.955 6.489 7.974 4.475 1.256 7.235 5.737 6.344 10.298-.723 3.701.96 7.458 4.204 9.382 3.997 2.371 5.504 7.414 3.463 11.589-1.656 3.388-1.003 7.452 1.632 10.15 3.248 3.325 3.398 8.586.345 12.091-2.475 2.844-2.896 6.938-1.049 10.226z" fill="#ffb509" fill-opacity="1" data-original-color="#ffb509ff" stroke="none" stroke-opacity="1"/><path d="m424.621 423.096c-1.347 1.034-3.002 1.694-4.812 1.819-3.763.26-6.955 2.857-7.974 6.489-1.256 4.475-5.737 7.235-10.298 6.344-3.701-.723-7.458.96-9.382 4.204-2.371 3.997-7.414 5.504-11.589 3.463-3.388-1.656-7.452-1.003-10.15 1.632-3.325 3.248-8.586 3.398-12.091.345-2.844-2.477-6.938-2.897-10.227-1.05-4.052 2.276-9.173 1.06-11.768-2.796-2.106-3.129-5.952-4.595-9.607-3.662-4.503 1.15-9.135-1.351-10.644-5.747-1.224-3.567-4.56-5.979-8.331-6.023-4.647-.055-8.474-3.669-8.794-8.305-.259-3.763-2.857-6.955-6.489-7.974-4.475-1.256-7.236-5.737-6.344-10.298.723-3.701-.96-7.458-4.204-9.382-3.997-2.371-5.504-7.414-3.463-11.589 1.657-3.388 1.003-7.452-1.632-10.15-3.248-3.325-3.398-8.586-.345-12.091 2.477-2.844 2.898-6.939 1.051-10.227-2.276-4.052-1.06-9.173 2.796-11.768 3.129-2.106 4.595-5.952 3.662-9.606-1.15-4.503 1.351-9.135 5.746-10.644 3.567-1.224 5.979-4.56 6.023-8.331.041-3.447 2.04-6.442 4.961-7.89-.307 3.401-.464 6.844-.464 10.325 0 62.648 50.786 113.434 113.434 113.434 3.689-.001 7.336-.178 10.935-.522z" fill="#ff9100" fill-opacity="1" data-original-color="#ff9100ff" stroke="none" stroke-opacity="1"/><path d="m324.269 425.423c-6.626-6.871-8.781-15.937-5.751-22.049 6.218-2.807 15.2-.324 21.826 6.547 6.626 6.87 8.781 15.937 5.751 22.049-6.218 2.806-15.201.323-21.826-6.547zm63.223-47.275c-6.166-2.919-15.192-.6-21.941 6.15-6.749 6.749-9.069 15.775-6.15 21.941 6.165 2.919 15.191.599 21.941-6.15s9.069-15.775 6.15-21.941zm14.464-18.961c-9.545 0-17.567-4.742-19.863-11.166 2.296-6.424 10.318-11.166 19.863-11.166s17.567 4.742 19.863 11.166c-2.296 6.424-10.318 11.166-19.863 11.166zm-60.784-37.489c6.749 6.749 9.069 15.775 6.15 21.941-6.166 2.919-15.192.6-21.941-6.15-6.749-6.749-9.069-15.775-6.15-21.941 6.166-2.918 15.192-.599 21.941 6.15z" fill="#e47500" fill-opacity="1" data-original-color="#e47500ff" stroke="none" stroke-opacity="1"/><path d="m381.343 315.834c-6.749 6.749-15.775 9.069-21.941 6.15-2.919-6.166-.6-15.192 6.15-21.941 6.749-6.749 15.775-9.069 21.941-6.15 2.918 6.166.599 15.192-6.15 21.941zm-35.164 57.266c-2.296-6.424-10.318-11.166-19.863-11.166s-17.567 4.742-19.863 11.166c2.296 6.424 10.318 11.166 19.863 11.166s17.568-4.742 19.863-11.166zm57.015 12.404c-2.919 6.166-.6 15.192 6.15 21.941 6.749 6.749 15.775 9.069 21.941 6.15 2.919-6.165.599-15.191-6.15-21.941-6.75-6.749-15.776-9.069-21.941-6.15z" fill="#ff5f00" fill-opacity="1" data-original-color="#ff5f00ff" stroke="none" stroke-opacity="1"/><path d="m225.212 404.12c-6.749 6.749-15.775 9.069-21.941 6.15-2.919-6.166-.6-15.192 6.15-21.941 6.749-6.749 15.775-9.069 21.941-6.15 2.919 6.166.599 15.192-6.15 21.941z" fill="#e47500" fill-opacity="1" data-original-color="#e47500ff" stroke="none" stroke-opacity="1"/><path d="m167.11 357.805c-2.296-6.424-10.318-11.166-19.863-11.166s-17.567 4.742-19.863 11.166c2.296 6.424 10.318 11.166 19.863 11.166s17.567-4.742 19.863-11.166zm-27.986 45.821c-2.919 6.166-.6 15.192 6.15 21.941 6.749 6.749 15.775 9.069 21.941 6.15 2.919-6.165.599-15.191-6.15-21.941-6.749-6.749-15.775-9.069-21.941-6.15z" fill="#ff9100" fill-opacity="1" data-original-color="#ff9100ff" stroke="none" stroke-opacity="1"/><path d="m135.937 224.594c0 15.336-9.345 27.768-20.873 27.768s-20.873-12.432-20.873-27.768 9.345-27.768 20.873-27.768 20.873 12.433 20.873 27.768zm-39.853-80.232c-7.437 0-13.467 8.021-13.467 17.915s6.029 17.915 13.467 17.915 13.467-8.021 13.467-17.915c-.001-9.894-6.03-17.915-13.467-17.915zm95.55-49.532c-7.437 0-13.467 8.021-13.467 17.915s6.029 17.915 13.467 17.915 13.467-8.021 13.467-17.915-6.03-17.915-13.467-17.915zm0 161.17c-7.437 0-13.467 8.021-13.467 17.915s6.029 17.915 13.467 17.915 13.467-8.021 13.467-17.915-6.03-17.915-13.467-17.915z" fill="#823873" fill-opacity="1" data-original-color="#823873ff" stroke="none" stroke-opacity="1"/></g></g></svg>