<svg id="Capa_1" enable-background="new 0 0 512 512" height="300" viewBox="0 0 512 512" width="300" xmlns="http://www.w3.org/2000/svg" version="1.1" xmlns:xlink="http://www.w3.org/1999/xlink" xmlns:svgjs="http://svgjs.dev/svgjs"><g width="100%" height="100%" transform="matrix(1,0,0,1,0,0)"><g><path d="m434.334 83.302c-.103 0-.203-.001-.306-.002-5.377-.069-18.587-2.334-25.083-21.812-1.434-4.297-1.791-9.192-1.175-14.266-11.673 5.764-21.749 16.3-25.427 20.998-2.631 3.36-7.486 3.951-10.846 1.32-3.36-2.63-3.952-7.486-1.321-10.847.838-1.07 19.807-24.988 43.934-29.972 1.361-2.362 2.919-4.649 4.662-6.813 6.929-8.604 22.844-22.579 51.671-19.483 4.242.456 7.313 4.264 6.857 8.507-.456 4.242-4.255 7.312-8.507 6.857-18.217-1.953-29.333 4.579-35.817 11.343 5.574 1.499 10.86 4.271 15.817 8.301 9.657 7.853 13.217 18.625 9.522 28.816-3.654 10.079-13.485 17.053-23.981 17.053zm-9.901-39.983c-1.704 5.249-1.885 10.113-.83 13.279 1.39 4.169 4.62 11.173 10.625 11.251 3.953.061 8.145-2.965 9.56-6.867 1.783-4.917-1.596-9-4.743-11.56-4.603-3.741-9.418-5.758-14.612-6.103z" fill="#2ca367" fill-opacity="1" data-original-color="#6fd7a3ff" stroke="none" stroke-opacity="1"/><g><g><g><g><g><path d="m374.708 368.287c-70.893 70.847-180.269 83.655-263.208 35.82-3.474-2.004-5.134-8.517-5.134-8.517s-13.488-3.509-17.531-6.605c-5.152-3.946-10.16-8.162-15.004-12.649-1.96-1.815.084-9.591.084-9.591s-9.649.175-11.465-1.783c-4.49-4.841-8.709-9.846-12.657-14.994-3.022-3.94-6.525-17.218-6.525-17.218s-6.539-1.851-8.606-5.43c-47.868-82.887-35.052-192.192 35.842-263.039 70.893-70.847 180.269-83.655 263.208-35.82 5.197 2.998 3.672 8.642 3.672 8.642s16.557 4.616 18.992 6.481c5.152 3.946 10.16 8.162 15.004 12.649 1.96 1.815 1.288 11.617 1.288 11.617s8.277-2.202 10.094-.243c4.49 4.841 8.709 9.846 12.658 14.995 2.791 3.64 6.866 17.584 6.866 17.584s6.012 1.164 8.265 5.064c47.867 82.884 35.051 192.19-35.843 263.037z" fill="#2ca367" fill-opacity="1" data-original-color="#6fd7a3ff" stroke="none" stroke-opacity="1"/></g></g><g fill="#bbf49b"><path d="m207.306 408.497c16.41-3.498 34.955-3.015 51.317-10.41 15.355-6.94 27.398-21.024 42.031-31.297 13.832-9.71 31.239-16.078 43.853-28.684 12.615-12.606 18.986-30.003 28.703-43.826 10.279-14.623 24.373-26.658 31.317-42.002 7.4-16.351 6.916-34.883 10.416-51.282 3.759-17.611 11.475-34.527 10.599-51.242-.841-16.06-8.751-30.383-14.998-44.5-4.506-7.802-9.545-15.371-15.128-22.65.422 4.705.65 9.581.967 14.476.864 13.328 5.129 28.995.635 45.105-3.72 13.336-15.073 25.178-22.189 39.657-6.268 12.753-8.341 28.949-17.062 42.084-7.989 12.034-22.033 20.375-31.944 32.349-9.309 11.248-14.773 26.63-25.664 37.514s-26.282 16.343-37.535 25.645c-11.983 9.904-20.33 23.94-32.372 31.924-13.145 8.715-29.352 10.788-42.115 17.052-14.488 7.111-26.339 18.457-39.684 22.174-16.121 4.491-31.799.229-45.136-.636-4.897-.317-9.775-.545-14.482-.967 7.285 5.58 14.859 10.616 22.666 15.119 14.126 6.243 28.457 14.146 44.526 14.988 16.729.876 33.656-6.834 51.279-10.591z" fill="#b0f789" fill-opacity="1" data-original-color="#bbf49bff" stroke="none" stroke-opacity="1"/><path d="m48.828 335.489c-.864-13.328-5.129-28.995-.635-45.105 3.72-13.336 15.073-25.178 22.189-39.657 6.268-12.753 8.341-28.949 17.062-42.084 7.989-12.034 22.033-20.375 31.944-32.349 9.309-11.248 14.773-26.63 25.664-37.514s26.282-16.343 37.535-25.645c11.983-9.905 20.33-23.94 32.372-31.925 13.145-8.715 29.353-10.788 42.115-17.052 14.488-7.111 26.339-18.457 39.683-22.174 16.121-4.491 31.799-.229 45.136.636 4.897.317 9.775.545 14.482.967-7.284-5.58-14.859-10.616-22.666-15.119-14.125-6.243-28.457-14.146-44.526-14.988-16.726-.876-33.654 6.835-51.277 10.592-16.41 3.498-34.955 3.015-51.317 10.41-15.355 6.94-27.398 21.024-42.031 31.297-13.832 9.71-31.24 16.078-43.854 28.684-12.615 12.606-18.986 30.003-28.703 43.826-10.279 14.623-24.373 26.658-31.317 42.002-7.399 16.351-6.916 34.883-10.416 51.282-3.759 17.611-11.475 34.527-10.599 51.242.842 16.06 8.75 30.383 14.998 44.5 4.506 7.802 9.545 15.371 15.128 22.65-.422-4.705-.65-9.581-.967-14.476z" fill="#b0f789" fill-opacity="1" data-original-color="#bbf49bff" stroke="none" stroke-opacity="1"/><path d="m132.043 346.167c9.513-7.15 15.817-20.216 26.578-29.188 9.444-7.874 23.43-11.629 33.586-20.722 9.325-8.349 14.622-21.812 24.359-31.049 9.185-8.714 22.919-13.277 32.315-22.667 9.397-9.39 13.962-23.115 22.683-32.295 9.243-9.73 22.715-15.024 31.069-24.342 9.098-10.149 12.856-24.125 20.734-33.563 8.976-10.752 22.05-17.051 29.204-26.557 8.972-11.922 11.188-26.255 16.842-35.607 5.331-8.815 10.206-16.471 13.336-22.559-1.817-1.96-3.664-3.902-5.57-5.807s-3.85-3.75-5.811-5.566c-6.091 3.128-13.75 7.999-22.568 13.324-9.358 5.65-23.701 7.865-35.631 16.831-9.513 7.15-15.817 20.216-26.578 29.188-9.444 7.874-23.43 11.629-33.586 20.722-9.325 8.349-14.622 21.812-24.359 31.049-9.185 8.714-22.918 13.277-32.315 22.667s-13.962 23.115-22.683 32.295c-9.243 9.73-22.715 15.024-31.069 24.342-9.098 10.149-12.856 24.125-20.734 33.563-8.976 10.752-22.05 17.051-29.204 26.557-8.971 11.922-11.187 26.255-16.841 35.607-5.331 8.815-10.206 16.471-13.336 22.559 1.818 1.96 3.664 3.902 5.57 5.807s3.85 3.75 5.811 5.566c6.091-3.128 13.75-7.999 22.568-13.324 9.357-5.65 23.7-7.865 35.63-16.831z" fill="#b0f789" fill-opacity="1" data-original-color="#bbf49bff" stroke="none" stroke-opacity="1"/></g></g></g><g><g><path d="m236.938 432.498-15.88 35.543c-2.373 5.311.032 11.513 5.339 13.9 90.533 40.722 190.497 40.591 273.771-3.58 4.911-2.605 7.003-8.535 4.736-13.609l-16.785-37.569-125.276-79.959z" fill="#2ca367" fill-opacity="1" data-original-color="#6fd7a3ff" stroke="none" stroke-opacity="1"/></g><path d="m504.906 464.751-16.785-37.569-66.629-79.959 52.508 117.528c2.267 5.074.175 11.004-4.736 13.609-37.96 20.135-79.388 31.114-121.809 33.249 53.094 2.64 105.578-8.246 152.714-33.249 4.912-2.605 7.003-8.535 4.737-13.609z" fill="#2a967c" fill-opacity="1" data-original-color="#3ec3a4ff" stroke="none" stroke-opacity="1"/><g><path d="m249.286 404.184-12.348 28.314c39.623 21.772 81.11 32.174 124.898 32.117s85.316-11.756 126.285-37.433l-12.702-28.351-112.437-40.517z" fill="#e1febc" fill-opacity="1" data-original-color="#fef2bcff" stroke="none" stroke-opacity="1"/></g><path d="m488.121 427.182-12.465-28.458-18.39-40.41h-30.906l36.996 82.656c8.286-4.048 16.537-8.631 24.765-13.788z" fill="#bfdd8b" fill-opacity="1" data-original-color="#ffeb8fff" stroke="none" stroke-opacity="1"/><g><path d="m373.251 174.203c-3.753-8.169-15.368-8.169-19.121 0l-76.106 165.658-28.738 64.323c74.848 38.651 155.142 38.552 226.37-5.459l-26.299-58.864z" fill="#ff517c" fill-opacity="1" data-original-color="#fe76a8ff" stroke="none" stroke-opacity="1"/></g><path d="m418.452 339.861 32.161 72.366c8.453-3.922 16.81-8.415 25.043-13.503l-26.298-58.863-76.106-165.658c-3.753-8.169-15.368-8.169-19.121 0l-5.892 12.825z" fill="#e8205f" fill-opacity="1" data-original-color="#fe5694ff" stroke="none" stroke-opacity="1"/><g fill="#ffdab3"><path d="m362.845 303.761c-4.268 0-7.726 3.459-7.726 7.726v20.569c0 4.267 3.459 7.726 7.726 7.726s7.726-3.459 7.726-7.726v-20.569c0-4.267-3.458-7.726-7.726-7.726z" fill="#23051b" fill-opacity="1" data-original-color="#ffdab3ff" stroke="none" stroke-opacity="1"/><path d="m316.911 352.494c-4.268 0-7.726 3.459-7.726 7.726v20.569c0 4.267 3.459 7.726 7.726 7.726s7.726-3.459 7.726-7.726v-20.569c.001-4.266-3.458-7.726-7.726-7.726z" fill="#23051b" fill-opacity="1" data-original-color="#ffdab3ff" stroke="none" stroke-opacity="1"/><path d="m408.78 352.494c-4.268 0-7.726 3.459-7.726 7.726v20.569c0 4.267 3.459 7.726 7.726 7.726s7.726-3.459 7.726-7.726v-20.569c0-4.266-3.459-7.726-7.726-7.726z" fill="#23051b" fill-opacity="1" data-original-color="#ffdab3ff" stroke="none" stroke-opacity="1"/></g></g></g></g></g></svg>