<svg height="300" viewBox="0 0 64 64" width="300" xmlns="http://www.w3.org/2000/svg" version="1.1" xmlns:xlink="http://www.w3.org/1999/xlink" xmlns:svgjs="http://svgjs.dev/svgjs"><g width="100%" height="100%" transform="matrix(1,0,0,1,0,0)"><g id="_17-lemonade" data-name="17-lemonade"><path d="m60 52h-12v-3.72a5.606 5.606 0 0 1 4.85-1.13c3.3.77 7.15 4.85 7.15 4.85z" fill="#98a143" fill-opacity="1" data-original-color="#98a143ff" stroke="none" stroke-opacity="1"/><path d="m48 52h12s-3.85 4.08-7.15 4.85a5.622 5.622 0 0 1 -4.85-1.13z" fill="#7d8437" fill-opacity="1" data-original-color="#7d8437ff" stroke="none" stroke-opacity="1"/><path d="m56 1v3h-10l-2.07 7h-2.93l2.57-8.57a2 2 0 0 1 1.92-1.43z" fill="#ff688b" fill-opacity="1" data-original-color="#a8cff6ff" stroke="none" stroke-opacity="1"/><path d="m56 37-8 8v-6a5.925 5.925 0 0 1 .48-.35c2.58-1.65 7.52-1.65 7.52-1.65z" fill="#98a143" fill-opacity="1" data-original-color="#98a143ff" stroke="none" stroke-opacity="1"/><path d="m48 45 8-8s0 4.94-1.65 7.52a5.29 5.29 0 0 1 -6.35 2.12z" fill="#7d8437" fill-opacity="1" data-original-color="#7d8437ff" stroke="none" stroke-opacity="1"/><path d="m48 55.72v1.28a6 6 0 0 1 -6 6h-20a6 6 0 0 1 -6-6v-26h32z" fill="#ffc563" fill-opacity="1" data-original-color="#ffdc70ff" stroke="none" stroke-opacity="1"/><path d="m48 11v20h-10l5.93-20z" fill="#f4f3fc" fill-opacity="1" data-original-color="#f4f3fcff" stroke="none" stroke-opacity="1"/><path d="m43.93 11-5.93 20h-3l6-20z" fill="#ff9eb0" fill-opacity="1" data-original-color="#7aaeefff" stroke="none" stroke-opacity="1"/><path d="m41 11-6 20h-19v-10-4.02-5.98h5.98 4.02z" fill="#f4f3fc" fill-opacity="1" data-original-color="#f4f3fcff" stroke="none" stroke-opacity="1"/><path d="m26 11h-4.02a1.01 1.01 0 0 0 1.01-1.15 7.154 7.154 0 0 0 -1.24-2.99 1.011 1.011 0 0 0 -1.52-.09 1.011 1.011 0 0 0 -.09-1.52 7.154 7.154 0 0 0 -2.99-1.24 1.01 1.01 0 0 0 -1.15 1.01 1.01 1.01 0 0 0 -1.15-1.01 7.154 7.154 0 0 0 -2.99 1.24 1.011 1.011 0 0 0 -.09 1.52 1.011 1.011 0 0 0 -1.52.09 7.154 7.154 0 0 0 -1.24 2.99 1.01 1.01 0 0 0 1.01 1.15 1.01 1.01 0 0 0 -1.01 1.15 7.154 7.154 0 0 0 1.24 2.99 1.011 1.011 0 0 0 1.52.09 1.011 1.011 0 0 0 .09 1.52 7.154 7.154 0 0 0 2.99 1.24 1.01 1.01 0 0 0 1.15-1.01v4.02a10 10 0 1 1 10-10z" fill="#fff4cf" fill-opacity="1" data-original-color="#fff4cfff" stroke="none" stroke-opacity="1"/><g fill="#ffdc70"><path d="m22.99 9.85a1.01 1.01 0 0 1 -1.01 1.15h-5.98l4.23-4.23a1.011 1.011 0 0 1 1.52.09 7.154 7.154 0 0 1 1.24 2.99z" fill="#ffc563" fill-opacity="1" data-original-color="#ffdc70ff" stroke="none" stroke-opacity="1"/><path d="m20.14 5.25a1.011 1.011 0 0 1 .09 1.52l-4.23 4.23v-5.98a1.01 1.01 0 0 1 1.15-1.01 7.154 7.154 0 0 1 2.99 1.24z" fill="#ffc563" fill-opacity="1" data-original-color="#ffdc70ff" stroke="none" stroke-opacity="1"/><path d="m16 11v5.98a1.01 1.01 0 0 1 -1.15 1.01 7.154 7.154 0 0 1 -2.99-1.24 1.011 1.011 0 0 1 -.09-1.52z" fill="#ffc563" fill-opacity="1" data-original-color="#ffdc70ff" stroke="none" stroke-opacity="1"/><path d="m16 5.02v5.98l-4.23-4.23a1.011 1.011 0 0 1 .09-1.52 7.154 7.154 0 0 1 2.99-1.24 1.01 1.01 0 0 1 1.15 1.01z" fill="#ffc563" fill-opacity="1" data-original-color="#ffdc70ff" stroke="none" stroke-opacity="1"/><path d="m16 11-4.23 4.23a1.011 1.011 0 0 1 -1.52-.09 7.154 7.154 0 0 1 -1.24-2.99 1.01 1.01 0 0 1 1.01-1.15z" fill="#ffc563" fill-opacity="1" data-original-color="#ffdc70ff" stroke="none" stroke-opacity="1"/><path d="m16 11h-5.98a1.01 1.01 0 0 1 -1.01-1.15 7.154 7.154 0 0 1 1.24-2.99 1.011 1.011 0 0 1 1.52-.09z" fill="#ffc563" fill-opacity="1" data-original-color="#ffdc70ff" stroke="none" stroke-opacity="1"/></g><path d="m46 57h-6a18 18 0 0 1 -18-18v-8h-6v26a6 6 0 0 0 6 6h20a6 6 0 0 0 6-6v-2a2 2 0 0 1 -2 2z" fill="#ffb64f" fill-opacity="1" data-original-color="#ffc052ff" stroke="none" stroke-opacity="1"/><path d="m22 11h-.02-5.98v5.98 4.02 10h6z" fill="#e8e7f0" fill-opacity="1" data-original-color="#e8e7f0ff" stroke="none" stroke-opacity="1"/><path d="m16 1a10 10 0 0 0 0 20v-1a9 9 0 1 1 9-9h1a10 10 0 0 0 -10-10z" fill="#ffc563" fill-opacity="1" data-original-color="#ffdc70ff" stroke="none" stroke-opacity="1"/><path d="m21.75 6.86a1.011 1.011 0 0 0 -1.52-.09l-.908.908a.794.794 0 0 1 1.194.07 5.62 5.62 0 0 1 .974 2.352.793.793 0 0 1 -.793.9h1.283a1.01 1.01 0 0 0 1.01-1.15 7.154 7.154 0 0 0 -1.24-2.99z" fill="#ffb64f" fill-opacity="1" data-original-color="#ffc052ff" stroke="none" stroke-opacity="1"/><path d="m16.9 5.51a5.62 5.62 0 0 1 2.349.974.794.794 0 0 1 .07 1.194l.908-.908a1.011 1.011 0 0 0 -.09-1.52 7.154 7.154 0 0 0 -2.99-1.24 1.01 1.01 0 0 0 -1.147 1.01v1.28a.793.793 0 0 1 .9-.79z" fill="#ffb64f" fill-opacity="1" data-original-color="#ffc052ff" stroke="none" stroke-opacity="1"/><path d="m15.1 16.49a5.62 5.62 0 0 1 -2.349-.974.794.794 0 0 1 -.07-1.194l-.908.908a1.011 1.011 0 0 0 .09 1.52 7.154 7.154 0 0 0 2.99 1.24 1.01 1.01 0 0 0 1.147-1.01v-1.28a.793.793 0 0 1 -.9.79z" fill="#ffb64f" fill-opacity="1" data-original-color="#ffc052ff" stroke="none" stroke-opacity="1"/><path d="m12.748 6.484a5.62 5.62 0 0 1 2.352-.974.793.793 0 0 1 .9.79v-1.28a1.01 1.01 0 0 0 -1.15-1.01 7.154 7.154 0 0 0 -2.99 1.24 1.011 1.011 0 0 0 -.09 1.52l.908.908a.794.794 0 0 1 .07-1.194z" fill="#ffb64f" fill-opacity="1" data-original-color="#ffc052ff" stroke="none" stroke-opacity="1"/><path d="m12.678 14.322a.794.794 0 0 1 -1.194-.07 5.62 5.62 0 0 1 -.974-2.352.793.793 0 0 1 .79-.9h-1.28a1.01 1.01 0 0 0 -1.01 1.15 7.154 7.154 0 0 0 1.24 2.99 1.011 1.011 0 0 0 1.52.09z" fill="#ffb64f" fill-opacity="1" data-original-color="#ffc052ff" stroke="none" stroke-opacity="1"/><path d="m10.51 10.1a5.62 5.62 0 0 1 .974-2.349.794.794 0 0 1 1.194-.07l-.908-.911a1.011 1.011 0 0 0 -1.52.09 7.154 7.154 0 0 0 -1.24 2.99 1.01 1.01 0 0 0 1.01 1.15h1.28a.793.793 0 0 1 -.79-.9z" fill="#ffb64f" fill-opacity="1" data-original-color="#ffc052ff" stroke="none" stroke-opacity="1"/><path d="m10.02 10.75h5.38l-3.8-3.8a.785.785 0 0 0 -.614-.225.7.7 0 0 0 -.524.29 6.818 6.818 0 0 0 -1.2 2.88.713.713 0 0 0 .166.584.778.778 0 0 0 .592.271z" fill="none" fill-opacity="1" stroke="none" stroke-opacity="1"/><path d="m11.721 16.021a.7.7 0 0 0 .291.523 6.822 6.822 0 0 0 2.88 1.2.716.716 0 0 0 .583-.167.781.781 0 0 0 .275-.593v-5.384l-3.8 3.8a.779.779 0 0 0 -.229.621z" fill="none" fill-opacity="1" stroke="none" stroke-opacity="1"/><path d="m10.02 11.25a.778.778 0 0 0 -.594.275.713.713 0 0 0 -.166.584 6.818 6.818 0 0 0 1.2 2.88.7.7 0 0 0 .524.29.788.788 0 0 0 .614-.225l3.8-3.8z" fill="none" fill-opacity="1" stroke="none" stroke-opacity="1"/><path d="m20.279 5.979a.7.7 0 0 0 -.291-.523 6.822 6.822 0 0 0 -2.88-1.2.755.755 0 0 0 -.116-.009.718.718 0 0 0 -.467.176.781.781 0 0 0 -.275.593v5.384l3.8-3.8a.779.779 0 0 0 .229-.621z" fill="none" fill-opacity="1" stroke="none" stroke-opacity="1"/><path d="m21.98 10.75a.778.778 0 0 0 .594-.275.713.713 0 0 0 .166-.584 6.818 6.818 0 0 0 -1.195-2.88.7.7 0 0 0 -.524-.29.783.783 0 0 0 -.614.225l-3.8 3.8z" fill="none" fill-opacity="1" stroke="none" stroke-opacity="1"/><path d="m14.892 4.259a6.822 6.822 0 0 0 -2.88 1.2.7.7 0 0 0 -.291.524.779.779 0 0 0 .225.614l3.8 3.8v-5.378a.781.781 0 0 0 -.275-.593.716.716 0 0 0 -.579-.167z" fill="none" fill-opacity="1" stroke="none" stroke-opacity="1"/><path d="m16 11h6.736a1.263 1.263 0 0 0 .219-.2 1.226 1.226 0 0 0 .279-.988 7.34 7.34 0 0 0 -1.283-3.092 1.207 1.207 0 0 0 -.889-.5 1.229 1.229 0 0 0 -.3.012 1.277 1.277 0 0 0 .012-.3 1.215 1.215 0 0 0 -.5-.889 7.344 7.344 0 0 0 -3.093-1.283 1.222 1.222 0 0 0 -.987.279 1.294 1.294 0 0 0 -.2.218 1.294 1.294 0 0 0 -.2-.218 1.221 1.221 0 0 0 -.987-.279 7.344 7.344 0 0 0 -3.093 1.283 1.215 1.215 0 0 0 -.5.889 1.308 1.308 0 0 0 .011.294 1.247 1.247 0 0 0 -1.185.487 7.34 7.34 0 0 0 -1.274 3.098 1.226 1.226 0 0 0 .279.988 1.263 1.263 0 0 0 .219.2 1.263 1.263 0 0 0 -.219.2 1.226 1.226 0 0 0 -.279.988 7.34 7.34 0 0 0 1.283 3.092 1.207 1.207 0 0 0 .889.5c.035 0 .07.005.1.005a1.231 1.231 0 0 0 .2-.04 1.265 1.265 0 0 0 -.018.32 1.215 1.215 0 0 0 .5.889 7.344 7.344 0 0 0 3.093 1.283 1.134 1.134 0 0 0 .193.016 1.234 1.234 0 0 0 .794-.3 1.294 1.294 0 0 0 .2-.218zm4.407-4.054a.783.783 0 0 1 .614-.225.7.7 0 0 1 .524.29 6.818 6.818 0 0 1 1.195 2.88.713.713 0 0 1 -.166.584.778.778 0 0 1 -.594.275h-5.38zm-4.157-1.927a.781.781 0 0 1 .275-.593.718.718 0 0 1 .467-.176.755.755 0 0 1 .116.009 6.822 6.822 0 0 1 2.88 1.2.7.7 0 0 1 .291.523.779.779 0 0 1 -.225.614l-3.8 3.8zm-6.99 4.872a6.818 6.818 0 0 1 1.2-2.88.7.7 0 0 1 .524-.29.785.785 0 0 1 .614.225l3.8 3.8h-5.378a.778.778 0 0 1 -.594-.275.713.713 0 0 1 -.166-.58zm2.333 5.163a.788.788 0 0 1 -.614.225.7.7 0 0 1 -.524-.29 6.818 6.818 0 0 1 -1.2-2.88.713.713 0 0 1 .166-.584.778.778 0 0 1 .594-.275h5.385zm4.157 1.927a.781.781 0 0 1 -.275.593.716.716 0 0 1 -.583.167 6.822 6.822 0 0 1 -2.88-1.2.7.7 0 0 1 -.291-.523.779.779 0 0 1 .225-.614l3.8-3.8zm0-6.585-3.8-3.8a.779.779 0 0 1 -.225-.614.7.7 0 0 1 .291-.524 6.822 6.822 0 0 1 2.88-1.2.716.716 0 0 1 .583.167.781.781 0 0 1 .275.593z" fill="#fff8e0" fill-opacity="1" data-original-color="#fff8e0ff" stroke="none" stroke-opacity="1"/><rect fill="#ffffff" height="6" rx="2" width="4" x="42" y="17" fill-opacity="1" data-original-color="#ffffffff" stroke="none" stroke-opacity="1"/><path d="m42 31v20a2 2 0 0 0 4 0v-20z" fill="#fff5d6" fill-opacity="1" data-original-color="#fff5d6ff" stroke="none" stroke-opacity="1"/><path d="m46 29a2 2 0 0 0 -4 0v2h4z" fill="#ffffff" fill-opacity="1" data-original-color="#ffffffff" stroke="none" stroke-opacity="1"/></g></g></svg>