<svg width="256" height="256" viewBox="0 0 256 256" fill="none" xmlns="http://www.w3.org/2000/svg">
<path d="M185.171 70.4027V198.481L176.171 211.231C173.578 214.874 169.378 217.06 164.899 217.06H91.1209C86.6424 217.06 82.4424 214.874 79.8495 211.231L70.8281 198.481V70.4027L82.0138 43.4883H174.007L185.171 70.4027Z" fill="#FFB652"/>
<path d="M185.177 70.4056L128.055 103.695L70.8301 70.4056L82.0085 43.4805H173.999L185.177 70.4056Z" fill="#DD2587"/>
<path d="M185.177 198.479H70.8301V196.566L74.9232 184.311L70.8301 170.103V70.4023H185.177V71.7915L181.652 86.1342L185.177 98.3222V198.479Z" fill="#A8085C"/>
<path d="M174.753 38.9414H81.2517C78.937 38.9414 77.0605 40.8179 77.0605 43.1326C77.0605 45.4474 78.937 47.3239 81.2517 47.3239H174.753C177.068 47.3239 178.944 45.4474 178.944 43.1326C178.944 40.8179 177.068 38.9414 174.753 38.9414Z" fill="#FFB652"/>
<path d="M185.173 71.7773V98.4527C172.463 98.7469 159.577 104.965 149.417 111.516C137.962 118.891 124.748 130.553 121.904 143.4C113.921 179.549 94.4967 192.699 70.8223 196.857V170.084C95.1636 166.691 116.641 154.177 124.663 123.853C134.529 86.5077 168.344 75.1509 185.173 71.7773Z" fill="#FFB652"/>
<path d="M86.1348 78.0312H95.1305V139.928H86.1348V78.0312Z" fill="#FFB652"/>
<path d="M86.1348 146.227H95.1305V155.222H86.1348V146.227Z" fill="#FFB652"/>
</svg>
