<svg height="300" viewBox="0 0 48 48" width="300" xmlns="http://www.w3.org/2000/svg" version="1.1" xmlns:xlink="http://www.w3.org/1999/xlink" xmlns:svgjs="http://svgjs.dev/svgjs"><rect width="48" height="48" x="0" y="0" shape="true" transform="matrix(1,0,0,1,0,0)" fill-opacity="1" fill="#fff0e5"/><g width="100%" height="100%" transform="matrix(1,0,0,1,0,0)"><g id="_17-hot_tea" data-name="17-hot tea"><path d="m19 38a15.005 15.005 0 0 0 15-15v-3h-30v3a15.005 15.005 0 0 0 15 15zm18-19v4a18 18 0 0 1 -36 0v-10h36z" fill="#b8c6c4" fill-opacity="1" data-original-color="#ebeae8ff" stroke="none" stroke-opacity="1"/><path d="m34 20v3a15 15 0 0 1 -30 0v-3z" fill="#e09153" fill-opacity="1" data-original-color="#c49460ff" stroke="none" stroke-opacity="1"/><path d="m9 47h30a3 3 0 0 0 3-3h-36a3 3 0 0 0 3 3z" fill="#b4c2c4" fill-opacity="1" data-original-color="#cfceccff" stroke="none" stroke-opacity="1"/><path d="m1 41a3 3 0 0 0 3 3h40a3 3 0 0 0 3-3z" fill="#abb5bf" fill-opacity="1" data-original-color="#c4c3c2ff" stroke="none" stroke-opacity="1"/><g fill="#ffd4a8"><path d="m18 12a1 1 0 0 1 -1-1 3.049 3.049 0 0 1 1.362-2.439c.51-.424.638-.573.638-.891 0-.339-.157-.5-.641-.9a3.051 3.051 0 0 1 -1.359-2.44 3.036 3.036 0 0 1 1.358-2.43c.485-.4.642-.563.642-.9a1 1 0 0 1 2 0 3.049 3.049 0 0 1 -1.362 2.439c-.51.424-.638.573-.638.891 0 .339.157.5.641.9a3.051 3.051 0 0 1 1.359 2.44 3.036 3.036 0 0 1 -1.358 2.43c-.485.4-.642.563-.642.9a1 1 0 0 1 -1 1z" fill="#f7d3b1" fill-opacity="1" data-original-color="#ffd4a8ff" stroke="none" stroke-opacity="1"/><path d="m24 12a1 1 0 0 1 -1-1 3.049 3.049 0 0 1 1.362-2.439c.51-.424.638-.573.638-.891 0-.339-.157-.5-.641-.9a3.051 3.051 0 0 1 -1.359-2.44 3.036 3.036 0 0 1 1.358-2.43c.485-.4.642-.563.642-.9a1 1 0 0 1 2 0 3.049 3.049 0 0 1 -1.362 2.439c-.51.424-.638.573-.638.891 0 .339.157.5.641.9a3.051 3.051 0 0 1 1.359 2.44 3.036 3.036 0 0 1 -1.358 2.43c-.485.4-.642.563-.642.9a1 1 0 0 1 -1 1z" fill="#f7d3b1" fill-opacity="1" data-original-color="#ffd4a8ff" stroke="none" stroke-opacity="1"/><path d="m12 12a1 1 0 0 1 -1-1 3.049 3.049 0 0 1 1.362-2.439c.51-.424.638-.573.638-.891 0-.339-.157-.5-.641-.9a3.051 3.051 0 0 1 -1.359-2.44 3.036 3.036 0 0 1 1.358-2.43c.485-.4.642-.563.642-.9a1 1 0 0 1 2 0 3.049 3.049 0 0 1 -1.362 2.439c-.51.424-.638.573-.638.891 0 .339.157.5.641.9a3.051 3.051 0 0 1 1.359 2.44 3.036 3.036 0 0 1 -1.358 2.43c-.485.4-.642.563-.642.9a1 1 0 0 1 -1 1z" fill="#f7d3b1" fill-opacity="1" data-original-color="#ffd4a8ff" stroke="none" stroke-opacity="1"/></g><path d="m41.2 18h-4.2v2h4.2a4.805 4.805 0 0 1 4.8 4.8 8.743 8.743 0 0 1 -2.1 5.4 11.2 11.2 0 0 1 -4.985 3.523 5.95 5.95 0 0 1 -3.65-.021l-1.465-.489c-.2.286-.4.573-.61.847s-.433.539-.661.8a.987.987 0 0 0 .172.094l1.934.646a7.85 7.85 0 0 0 2.475.4 7.626 7.626 0 0 0 2.453-.384 13.216 13.216 0 0 0 5.894-4.156 10.737 10.737 0 0 0 2.543-6.66 6.807 6.807 0 0 0 -6.8-6.8z" fill="#b8c6c4" fill-opacity="1" data-original-color="#ebeae8ff" stroke="none" stroke-opacity="1"/><path d="m37 18v1 1h3v-2z" fill="#9aa9ad" fill-opacity="1" data-original-color="#dad9d7ff" stroke="none" stroke-opacity="1"/><path d="m36 34.5a1.492 1.492 0 0 1 .122-.592 5.668 5.668 0 0 1 -.853-.206l-1.469-.489c-.2.286-.4.573-.61.847s-.433.539-.661.8a.987.987 0 0 0 .172.094l1.934.646a7.85 7.85 0 0 0 2.475.4c.077 0 .147-.015.223-.017a1.5 1.5 0 0 1 -1.333-1.483z" fill="#9aa9ad" fill-opacity="1" data-original-color="#dad9d7ff" stroke="none" stroke-opacity="1"/><path d="m9 45h30a2.982 2.982 0 0 1 2.224 1 2.981 2.981 0 0 0 .776-2h-36a2.981 2.981 0 0 0 .776 2 2.982 2.982 0 0 1 2.224-1z" fill="#828c91" fill-opacity="1" data-original-color="#adaba8ff" stroke="none" stroke-opacity="1"/><path d="m6 43h38a2.983 2.983 0 0 1 1.657.5 2.991 2.991 0 0 0 1.343-2.5h-46a2.991 2.991 0 0 0 1.343 2.5 2.983 2.983 0 0 1 1.657-.5z" fill="#b8c6c4" fill-opacity="1" data-original-color="#ebeae8ff" stroke="none" stroke-opacity="1"/><path d="m30 13v19a9.075 9.075 0 0 1 -.09 1.28 8.958 8.958 0 0 1 -4.39 6.49 17.664 17.664 0 0 1 -6.52 1.23 3.994 3.994 0 0 0 3.97-3.53v-.01a3.44 3.44 0 0 0 .03-.46v-24z" fill="#ffffff" fill-opacity="1" data-original-color="#ffffffff" stroke="none" stroke-opacity="1"/><path d="m30 20v12a9.075 9.075 0 0 1 -.09 1.28 14.876 14.876 0 0 1 -6.94 4.18 3.44 3.44 0 0 0 .03-.46v-17z" fill="#e6b078" fill-opacity="1" data-original-color="#e6b078ff" stroke="none" stroke-opacity="1"/><path d="m14.5 40.43a18 18 0 0 1 -13.5-17.43v-10h6v17a10.877 10.877 0 0 0 .24 2.3 10.989 10.989 0 0 0 7.26 8.13z" fill="#9da8ad" fill-opacity="1" data-original-color="#d4d3d1ff" stroke="none" stroke-opacity="1"/><path d="m7.24 32.3a14.893 14.893 0 0 1 -3.24-9.3v-3h3v10a10.877 10.877 0 0 0 .24 2.3z" fill="#c46f2c" fill-opacity="1" data-original-color="#a67138ff" stroke="none" stroke-opacity="1"/><path d="m24.74 36.856c-.084.035-.172.061-.257.094-.24.094-.481.185-.727.266-.2.069-.409.132-.617.192-.057.016-.112.036-.169.052v-.009c-.226.062-.451.124-.681.175a8.3 8.3 0 0 0 2.824 2.306 17.826 17.826 0 0 0 1.768-.751 8.551 8.551 0 0 1 -2.141-2.325z" fill="#9da8ad" fill-opacity="1" data-original-color="#d4d3d1ff" stroke="none" stroke-opacity="1"/><path d="m24.5 36.47a12.434 12.434 0 0 1 -1.485-5.11h-.015a12.1 12.1 0 0 0 -3-.36 12.377 12.377 0 0 0 1.5 5.47 9.477 9.477 0 0 0 .79 1.156c.23-.051.455-.113.681-.175l.168-.043c.208-.06.413-.124.617-.192.246-.082.488-.172.727-.266.085-.033.17-.064.254-.1-.08-.126-.164-.25-.237-.38z" fill="#c46f2c" fill-opacity="1" data-original-color="#a67138ff" stroke="none" stroke-opacity="1"/><path d="m29.819 27a.942.942 0 0 1 -.182-.017 1 1 0 0 1 -.8-1.165c.055-.3.1-.6.124-.907a1 1 0 0 1 1.992.178q-.05.553-.149 1.093a1 1 0 0 1 -.985.818z" fill="#ffffff" fill-opacity="1" data-original-color="#ffffffff" stroke="none" stroke-opacity="1"/><path d="m19 36a1 1 0 0 1 0-2 9.965 9.965 0 0 0 8.91-5.455 1 1 0 1 1 1.781.91 11.958 11.958 0 0 1 -10.691 6.545z" fill="#ffffff" fill-opacity="1" data-original-color="#ffffffff" stroke="none" stroke-opacity="1"/><path d="m27 19 3 3v5h-6v-5l.5-.5z" fill="#a0a87d" fill-opacity="1" data-original-color="#8b8e7dff" stroke="none" stroke-opacity="1"/><path d="m23 31 10 10c-4.69 0-7.18-2.2-8.5-4.53a12.377 12.377 0 0 1 -1.5-5.47z" fill="#7d8267" fill-opacity="1" data-original-color="#7d8267ff" stroke="none" stroke-opacity="1"/><path d="m33 41 10-10s0 10-10 10z" fill="#7d8267" fill-opacity="1" data-original-color="#7d8267ff" stroke="none" stroke-opacity="1"/><path d="m33 41-10-10c10 0 10 10 10 10z" fill="#a0a87d" fill-opacity="1" data-original-color="#8b8e7dff" stroke="none" stroke-opacity="1"/><path d="m43 31-10 10s0-5.17 3.71-8.07a9.881 9.881 0 0 1 6.29-1.93z" fill="#a0a87d" fill-opacity="1" data-original-color="#8b8e7dff" stroke="none" stroke-opacity="1"/><path d="m28 20v-7a1 1 0 0 0 -2 0v7l1-1z" fill="#e2d7ba" fill-opacity="1" data-original-color="#aa92a8ff" stroke="none" stroke-opacity="1"/><path d="m24.5 21.5-.5.5v5h3v-8z" fill="#7d8267" fill-opacity="1" data-original-color="#7d8267ff" stroke="none" stroke-opacity="1"/><path d="m20.451 33.892a11.764 11.764 0 0 0 .7 1.908 11.944 11.944 0 0 0 2.659-.8 12.512 12.512 0 0 1 -.565-1.956 9.945 9.945 0 0 1 -2.794.848z" fill="#e09153" fill-opacity="1" data-original-color="#c49460ff" stroke="none" stroke-opacity="1"/></g></g></svg>