<svg width="300" height="300" viewBox="0 0 300 300" fill="none" xmlns="http://www.w3.org/2000/svg">
<g clip-path="url(#clip0_636_20408)">
<path d="M197.284 95.4121C195.863 94.2801 194.666 92.82 193.829 91.0655C192.991 89.3183 192.595 87.4745 192.595 85.6498V1.66883C192.595 1.23955 192.436 0.81482 192.104 0.490351C191.78 0.164059 191.353 0 190.929 0H165.095C164.666 0 164.241 0.163148 163.917 0.490351C163.59 0.81482 163.431 1.23955 163.431 1.66883V85.6525C163.431 87.4772 163.034 89.3201 162.199 91.0682C161.358 92.8227 160.16 94.281 158.741 95.4148L151.986 100.816C147.249 104.605 143.262 109.477 140.462 115.308C137.662 121.134 136.349 127.298 136.349 133.356V291.657C136.349 293.786 137.161 295.918 138.787 297.544C140.413 299.17 142.545 299.99 144.675 299.99H211.341C213.478 299.99 215.604 299.17 217.23 297.544C218.86 295.918 219.675 293.786 219.675 291.657V133.356C219.675 127.297 218.362 121.132 215.564 115.308C212.761 109.477 208.774 104.605 204.038 100.816L197.284 95.4121Z" fill="#01393D"/>
<path d="M146.199 137.459C143.933 137.459 142.092 135.618 142.092 133.353C142.092 127.92 143.287 122.685 145.641 117.794C147.991 112.902 151.332 108.699 155.575 105.304L162.33 99.8976C164.096 98.4739 166.681 98.761 168.098 100.535C169.516 102.301 169.23 104.889 167.461 106.302L160.703 111.711C157.434 114.328 154.851 117.574 153.041 121.352C151.223 125.122 150.302 129.161 150.302 133.352C150.303 135.62 148.466 137.459 146.199 137.459Z" fill="#218777"/>
<path d="M194.673 19.8988C194.673 20.8184 193.928 21.5648 193.014 21.5648H163.013C162.098 21.5648 161.343 20.8156 161.343 19.8988V6.56179C161.343 5.6449 162.098 4.89844 163.013 4.89844H193.014C193.929 4.89844 194.673 5.64763 194.673 6.56179V19.8988Z" fill="#C9A91A"/>
<path d="M219.68 168.328H180.512V256.66H219.68V168.328Z" fill="#D9E5EA"/>
<path d="M219.674 174.172H186.343V250.833H219.674V174.172Z" fill="#AF9C14"/>
<path d="M124.44 243.151C125.689 241.613 127.11 241.06 128.818 240.412C129.205 240.267 130.334 239.878 130.729 239.726C145.575 233.972 156.348 216.944 156.348 196.827C156.348 187.636 154.092 179.086 150.235 171.961H149.274C152.629 178.424 154.577 186.056 154.577 194.244C154.577 217.471 138.956 236.301 119.681 236.301C100.404 236.301 84.781 217.471 84.781 194.244C84.781 186.056 86.7296 178.424 90.0846 171.961H89.1185C85.2641 179.089 83.0146 187.636 83.0146 196.827C83.0146 216.944 93.7823 233.972 108.629 239.726C109.02 239.875 110.153 240.267 110.536 240.412C112.251 241.061 113.672 241.613 114.914 243.151C116.162 244.698 116.762 246.543 116.762 248.38V287.661C116.762 290.122 115.863 292.589 114.044 294.515C112.22 296.448 109.814 297.495 107.362 297.642L95.1121 298.265C94.783 298.277 94.4586 298.416 94.2134 298.676C93.9709 298.933 93.8497 299.264 93.8497 299.598V300.001H119.683H145.512V299.598C145.512 299.264 145.391 298.935 145.146 298.676C144.903 298.419 144.576 298.277 144.247 298.265L131.995 297.642C129.54 297.495 127.135 296.447 125.312 294.515C123.499 292.588 122.594 290.12 122.594 287.661V248.38C122.596 246.544 123.199 244.698 124.44 243.151Z" fill="#ABCAD6"/>
<path d="M90.0878 171.961C86.7328 178.424 84.7842 186.056 84.7842 194.244C84.7842 217.471 100.41 236.301 119.685 236.301C138.958 236.301 154.581 217.471 154.581 194.244C154.581 186.056 152.632 178.424 149.277 171.961H90.0878Z" fill="#D9E5EA"/>
<path d="M86.4102 206.969C90.8835 223.969 104.087 236.302 119.687 236.302C135.28 236.302 148.479 223.969 152.95 206.969H86.4102Z" fill="#AF9C14"/>
<path d="M100.181 206.959C98.7278 203.072 97.923 198.739 97.923 194.235C97.923 190.287 98.5245 186.449 99.7194 182.835C100.286 181.113 99.3512 179.253 97.6286 178.691C95.8996 178.1 94.0467 179.054 93.4798 180.779C92.068 185.061 91.3516 189.584 91.3516 194.237C91.3516 198.663 92.0333 202.959 93.272 206.961H100.181L100.181 206.959Z" fill="white"/>
<path d="M109.641 227.405C110.096 227.617 110.57 227.72 111.043 227.72C112.273 227.72 113.449 227.029 114.014 225.844C114.793 224.207 114.093 222.246 112.455 221.472C106.979 218.876 102.644 213.567 100.18 206.969H93.2715C96.1288 216.193 102.006 223.781 109.641 227.405Z" fill="#E2D375"/>
</g>
<defs>
<clipPath id="clip0_636_20408">
<rect width="300" height="300" fill="white"/>
</clipPath>
</defs>
</svg>
