<svg width="145" height="144" viewBox="0 0 145 144" fill="none" xmlns="http://www.w3.org/2000/svg">
<g clip-path="url(#clip0_584_6541)">
<path d="M144.335 0H0.00195312V144.333H144.335V0Z" fill="#F5A38B"/>
<path d="M97.3906 71.3894C96.2795 74.2227 94.8351 77.7783 93.7795 80.6116C93.2795 82.0005 92.8906 83.445 92.5017 84.8894C92.5017 85.0005 92.3351 85.1672 92.8351 85.2783C93.3351 85.3894 98.2795 86.1116 100.502 86.0005C105.502 86.0005 107.78 81.3894 108.668 79.7783C109.557 78.1672 110.613 73.7227 108.391 71.0005C107.78 70.2783 106.28 69.6672 104.946 69.6116C101.28 70.0005 96.5017 71.6672 95.724 71.6672C96.0573 71.3339 100.946 69.2783 103.78 68.6672C106.668 68.1672 108.168 68.6672 110.113 70.7783C111.835 72.7227 112.502 77.6672 110.946 80.6116C108.613 85.0005 104.835 87.6116 100.168 88.2227C96.8906 88.6116 93.4462 87.5005 90.0573 87.0561C90.0017 87.0561 90.0017 86.6116 90.0573 86.445C91.3906 83.1672 92.7795 79.8894 94.0573 76.5561C94.5573 75.3339 94.6684 74.0005 95.3351 72.8894C95.5573 72.3894 96.6128 71.6116 97.3906 71.3894Z" fill="#1E1E1E"/>
<path d="M84.8893 101.112C83.5004 101.445 82.1115 101.834 80.7227 102.167C81.1115 101.612 81.6671 101.112 81.8338 100.5C82.3893 98.7782 82.7782 96.9449 83.3338 95.1671C84.8338 90.056 86.4449 85.0004 87.8893 79.8893C89.4449 74.3893 90.9449 68.8338 92.3338 63.2227C92.8338 61.1115 92.9449 58.3893 93.1671 56.2782C94.5004 55.7227 95.8893 55.3338 97.2227 54.7782C97.556 54.3338 97.8893 54.2227 98.2227 53.7227C98.6115 54.056 99.0004 54.3893 99.3893 54.6671C99.2782 54.8893 99.1671 55.4449 99.1671 55.6671C99.3338 59.556 98.7227 62.056 97.6115 65.7227C97.4449 66.2782 96.7782 68.0004 96.6671 68.3338C96.8893 68.556 97.8893 67.8338 98.9449 67.4449C101.667 65.9449 104.556 65.1671 107.556 65.8893C111.5 66.8338 113.778 68.556 114.389 73.556C114.723 77.5004 114.278 81.1115 111.723 84.2227C108.167 88.1115 103.834 90.556 98.2782 90.7227C96.1671 90.7782 90.3338 89.3338 90.1115 89.6115C89.2782 89.556 89.1115 90.7227 89.0004 91.0004C87.4449 94.3338 86.1671 97.7227 84.8893 101.112ZM98.0004 71.6671C97.2782 71.8893 95.6115 72.3893 95.3338 72.8893C94.7227 74.0004 94.556 75.3338 94.056 76.556C92.7782 79.8338 91.3893 83.1115 90.056 86.4449C90.0004 86.6115 90.056 87.056 90.056 87.056C93.4449 87.5004 96.8893 88.6671 100.167 88.2227C104.834 87.6671 107.5 85.3893 109.834 81.0004C111.389 78.056 111.389 75.6671 110.167 73.1115C108.945 70.556 107.223 69.3338 103.667 70.0004C100.389 70.7782 99.7227 71.1115 98.0004 71.6671Z" fill="#503234"/>
<path d="M58.4457 101.276C58.0013 101.22 57.5568 101.109 57.0568 101.054C55.6124 98.8871 53.5568 96.9427 52.7235 94.5538C50.279 87.4983 48.279 80.3316 46.0568 73.2205C44.7235 68.9983 43.3346 64.776 42.1124 60.4983C41.5568 58.6094 41.279 56.5538 43.2235 55.1094C43.5568 55.4427 43.8346 55.776 44.1679 56.1649C44.3901 58.4427 44.3901 60.7205 44.8901 62.8872C45.5013 65.5538 46.5568 68.1094 47.3346 70.7205C48.7235 75.6094 49.779 80.6649 51.5013 85.4427C53.5013 90.776 56.1124 95.9983 58.4457 101.276Z" fill="#503234"/>
<path d="M50.1115 51.832C50.056 52.9987 50.0004 54.1654 49.9449 55.332C49.1671 55.832 48.3893 56.332 47.6115 56.832C47.1671 56.7765 46.7782 56.6654 46.3338 56.6098C45.6115 56.4431 44.8893 56.2765 44.1671 56.1098C43.8338 55.7765 43.556 55.4431 43.2227 55.0543C43.2782 54.9987 43.3338 54.9431 43.3338 54.8876C43.3893 54.832 43.4449 54.7765 43.4449 54.7209C44.2227 54.2765 45.0004 53.832 45.7782 53.3876C45.8893 53.332 46.056 53.2765 46.1671 53.2209C47.5004 52.7765 48.8338 52.332 50.1115 51.832Z" fill="#4A4A56"/>
<path d="M97.2227 54.832C97.3893 54.2209 97.4449 53.9431 97.6115 53.332C97.7782 53.4987 98.056 53.6654 98.2227 53.832C97.8893 54.2765 97.6115 54.6098 97.2227 54.832Z" fill="#4A4A56"/>
<path d="M45.8353 53.4453C45.0575 53.8898 44.2797 54.3342 43.502 54.7786C44.3353 54.3342 45.0575 53.8898 45.8353 53.4453Z" fill="#503234"/>
<path d="M43.4451 54.9453C43.3895 55.0009 43.334 55.0564 43.334 55.112C43.334 55.0009 43.3895 55.0009 43.4451 54.9453Z" fill="#503234"/>
<path d="M67.8906 58.276C69.7795 58.276 71.6684 58.276 73.5573 58.276C75.2795 58.2205 77.0017 58.1649 78.724 58.1094C78.6128 60.6094 78.5573 63.1094 78.3351 65.6094C77.9462 70.276 77.5017 74.8872 77.0017 79.4983C76.5573 83.3872 75.8906 87.276 75.3351 91.1649C74.7795 95.0538 74.2795 98.9427 73.724 102.832C72.6128 102.832 71.5573 102.832 70.4462 102.832C70.4462 100.609 70.5017 98.3316 70.4462 96.1094C70.2795 92.1649 70.0573 88.2205 69.7795 84.276C69.1128 75.5538 68.5017 66.9427 67.8906 58.276Z" fill="#503234"/>
<path d="M62.7242 58.1094C63.1686 58.1649 63.5575 58.2205 64.002 58.2205C64.002 58.9427 63.9464 59.6094 64.002 60.3316C64.4464 65.1094 64.9464 69.9427 65.3909 74.7205C65.9464 80.5538 66.5575 86.3316 67.1131 92.1649C67.4464 95.6649 67.6131 99.1094 67.8909 102.609C66.8909 102.554 65.8909 102.443 64.8353 102.387C64.0575 99.2205 63.3353 96.0538 62.5575 92.8872C61.1131 86.8316 59.4464 80.776 58.2242 74.6649C57.1131 69.0538 54.1686 63.6649 55.502 57.6094C57.9464 57.776 60.3353 57.9427 62.7242 58.1094Z" fill="#503234"/>
<path d="M90.8898 56.832C90.8898 56.9987 90.8898 57.2209 90.8898 57.332C90.612 59.2765 90.4453 61.2209 90.0009 63.1098C89.0009 67.4431 87.8898 71.7765 86.6675 76.0542C85.2231 81.2765 83.5564 86.4987 82.1675 91.7209C81.2787 95.1654 80.7231 98.7209 80.0009 102.221C78.6675 102.388 77.2786 102.554 75.9453 102.721C76.2786 100.554 76.612 98.4431 76.9453 96.2765C78.3898 87.1098 79.8898 77.9431 81.2786 68.7765C81.8342 65.1654 82.1675 61.5542 82.5564 57.8876C85.4453 57.6098 88.2231 57.1654 90.8898 56.832Z" fill="#503234"/>
<path d="M46.3348 56.6094C46.7792 56.6649 47.1681 56.776 47.6126 56.8316C48.7237 56.9427 49.7792 57.0538 50.8904 57.2205C51.3904 57.276 51.8903 57.3872 52.4459 57.4427C52.1681 57.6094 51.7237 57.7205 51.7237 57.9427C51.6126 58.9983 51.3348 60.1649 51.557 61.1649C52.7237 66.1649 53.9459 71.1094 55.3348 76.0538C57.4459 83.4427 59.6681 90.776 62.0015 98.1094C62.5015 99.6649 63.6126 100.998 64.5015 102.443C62.6681 102.109 60.8903 101.776 59.057 101.443C58.2237 98.8872 57.4459 96.3316 56.6126 93.776C53.2792 83.4427 49.8348 73.1094 46.6126 62.6649C46.057 60.776 46.4459 58.6094 46.3348 56.6094Z" fill="#503234"/>
<path d="M50.8911 57.2209C49.7799 57.1098 48.7244 56.9987 47.6133 56.832C48.3911 56.332 49.1688 55.832 49.9466 55.332C50.2799 55.9431 50.6133 56.6098 50.8911 57.2209Z" fill="#98513E"/>
<path d="M72.4471 20.8315C71.5027 20.276 70.836 17.9982 72.0582 16.9426C72.7804 16.276 73.4471 15.5537 74.0582 14.776C74.7804 13.8871 74.2249 12.6648 72.9471 12.5537C72.1693 12.4982 72.0582 12.0537 72.1693 11.7204C72.2249 11.3315 72.6138 10.8871 73.0027 10.7204C74.336 10.2204 76.1138 11.4982 76.2249 12.776C76.3916 14.2204 75.5582 15.1093 74.336 15.9426C72.6138 17.1648 71.6138 18.6093 72.4471 20.6093C72.4471 20.6648 72.4471 20.776 72.4471 20.8315Z" fill="#DC6952"/>
<path d="M69.0581 21.2197C69.0581 21.9974 68.2803 22.9419 67.5025 23.8863C66.9469 24.553 66.6136 25.053 67.0581 25.8308C67.2247 26.1085 67.1692 26.2197 67.1692 26.2752C67.1136 26.2197 66.947 26.1085 66.7803 25.9974C66.2247 25.4974 65.8914 23.9974 66.7803 23.1085C68.2247 21.7197 67.9469 20.1085 66.0581 18.8863C65.8914 18.7752 65.7247 18.4419 65.947 18.1641C66.3358 17.7752 66.7803 17.6641 67.0025 17.7752C68.3358 18.4419 69.0025 19.4974 69.0581 21.2197Z" fill="#DC6952"/>
<path d="M79.6135 24.3316C79.0024 23.8872 79.0023 22.776 79.8357 21.9983C80.8912 21.1094 81.3912 20.0538 80.8357 18.776C80.669 18.4427 80.2801 18.1649 79.9468 17.8316C79.8912 17.776 79.8357 17.7205 79.7801 17.6649C79.8912 17.6649 80.0023 17.6094 80.1135 17.6094C81.0579 17.6649 81.9468 18.776 82.169 19.6094C82.5024 21.1094 81.3357 21.8316 80.4468 22.7205C80.0024 23.1649 79.8357 23.8316 79.6135 24.3316Z" fill="#DC6952"/>
<path d="M72.4471 20.8315C71.5027 20.276 70.836 17.9982 72.0582 16.9426C72.7804 16.276 73.4471 15.5537 74.0582 14.776C74.7804 13.8871 74.2249 12.6648 72.9471 12.5537C72.1693 12.4982 72.0582 12.0537 72.1693 11.7204C72.2249 11.3315 72.6138 10.8871 73.0027 10.7204C74.336 10.2204 76.1138 11.4982 76.2249 12.776C76.3916 14.2204 75.5582 15.1093 74.336 15.9426C72.6138 17.1648 71.6138 18.6093 72.4471 20.6093C72.4471 20.6648 72.4471 20.776 72.4471 20.8315Z" fill="#DC6952"/>
<path d="M69.0581 21.2197C69.0581 21.9974 68.2803 22.9419 67.5025 23.8863C66.9469 24.553 66.6136 25.053 67.0581 25.8308C67.2247 26.1085 67.1692 26.2197 67.1692 26.2752C67.1136 26.2197 66.947 26.1085 66.7803 25.9974C66.2247 25.4974 65.8914 23.9974 66.7803 23.1085C68.2247 21.7197 67.9469 20.1085 66.0581 18.8863C65.8914 18.7752 65.7247 18.4419 65.947 18.1641C66.3358 17.7752 66.7803 17.6641 67.0025 17.7752C68.3358 18.4419 69.0025 19.4974 69.0581 21.2197Z" fill="#DC6952"/>
<path d="M79.6135 24.3316C79.0024 23.8872 79.0023 22.776 79.8357 21.9983C80.8912 21.1094 81.3912 20.0538 80.8357 18.776C80.669 18.4427 80.2801 18.1649 79.9468 17.8316C79.8912 17.776 79.8357 17.7205 79.7801 17.6649C79.8912 17.6649 80.0023 17.6094 80.1135 17.6094C81.0579 17.6649 81.9468 18.776 82.169 19.6094C82.5024 21.1094 81.3357 21.8316 80.4468 22.7205C80.0024 23.1649 79.8357 23.8316 79.6135 24.3316Z" fill="#DC6952"/>
<path d="M84.8906 101.111C86.224 97.7218 87.7795 92.944 89.2795 89.6662C89.3906 89.3884 89.8906 89.3329 90.9462 89.5551C90.5017 90.944 89.224 93.7218 88.7795 95.0551C88.2795 96.3329 87.5573 98.1662 86.6684 99.1106C85.7795 100.055 86.0573 100.388 84.8906 101.111Z" fill="#1E1E1E"/>
<path d="M98.2244 67.8329C97.7244 67.9996 96.7799 68.7218 96.6133 68.3885C97.2244 66.5551 99.3355 59.6662 99.1688 55.7773C99.1688 55.5551 99.2244 54.9996 99.3911 54.7773C99.7799 55.444 100.502 56.1107 100.447 56.7218C100.224 59.5551 98.5022 66.8885 98.2244 67.8329Z" fill="#1E1E1E"/>
<path d="M67.8901 102.666C67.6124 99.1662 67.4457 95.7218 67.1124 92.2218C66.5568 86.3885 66.0013 80.6107 65.3901 74.7773C64.9457 69.9996 64.4457 65.1662 64.0013 60.3885C63.9457 59.6662 64.0013 58.9996 64.0013 58.2773C65.279 58.2773 66.6124 58.2773 67.8901 58.2773C68.5013 66.944 69.1679 75.6107 69.779 84.2773C70.0568 88.2218 70.279 92.1662 70.4457 96.1107C70.5568 98.3329 70.4457 100.611 70.4457 102.833C69.5568 102.722 68.7235 102.722 67.8901 102.666Z" fill="#1E1E1E"/>
<path d="M82.7227 57.9453C82.2782 61.5564 82.0004 65.2231 81.4449 68.8342C80.056 78.0009 78.556 87.1675 77.1115 96.3342C76.7782 98.5009 76.4449 100.612 76.1115 102.779C75.3338 102.779 74.556 102.779 73.7227 102.779C74.2782 98.8898 74.7782 95.0009 75.3338 91.112C75.8893 87.2231 76.556 83.3342 77.0004 79.4453C77.556 74.8342 77.9449 70.1675 78.3338 65.5564C78.556 63.0564 78.6115 60.5564 78.7227 58.0564C80.056 58.0009 81.3893 58.0009 82.7227 57.9453Z" fill="#1E1E1E"/>
<path d="M64.5008 102.387C63.6675 100.942 62.5008 99.6089 62.0008 98.0534C59.6675 90.72 57.4453 83.3867 55.3342 75.9978C53.9453 71.0534 52.7231 66.1089 51.5564 61.1089C51.3342 60.1089 51.5564 58.9423 51.7231 57.8867C51.7231 57.72 52.2231 57.5534 52.4453 57.3867C53.5008 57.4423 54.5008 57.4978 55.5564 57.6089C54.2231 63.6645 57.1675 68.9978 58.2786 74.6645C59.5008 80.7756 61.1675 86.8312 62.6119 92.8867C63.3897 96.0534 64.1119 99.22 64.8897 102.387C64.7231 102.387 64.6119 102.387 64.5008 102.387Z" fill="#1E1E1E"/>
<path d="M80.1133 102.276C80.8355 98.7765 81.3911 95.2209 82.28 91.7765C83.6688 86.4987 85.3355 81.332 86.7799 76.1098C87.9466 71.832 89.0577 67.4987 90.0577 63.1654C90.5022 61.2765 90.6688 58.6654 90.9466 56.832C91.7244 56.6654 92.5022 56.4987 93.2244 56.332C92.9466 58.4987 92.8911 61.2209 92.3355 63.2765C90.9466 68.832 89.4466 74.3876 87.8911 79.9431C86.4466 85.0542 84.8355 90.1098 83.3355 95.2209C82.8355 96.9987 82.4466 98.7765 81.8355 100.554C81.6133 101.165 81.1133 101.665 80.7244 102.221C80.5022 102.165 80.2799 102.221 80.1133 102.276Z" fill="#1E1E1E"/>
<path d="M46.3346 56.6094C46.3902 58.6649 46.0569 60.8316 46.6124 62.6649C49.8346 73.0538 53.2791 83.3872 56.6124 93.776C57.4457 96.3316 58.2235 98.8872 59.0569 101.443C58.8346 101.387 58.668 101.332 58.4457 101.276C56.1124 95.9983 53.5013 90.776 51.5013 85.3871C49.7791 80.6094 48.7235 75.6094 47.3346 70.6649C46.5569 68.0538 45.5013 65.4983 44.8902 62.8316C44.3902 60.6649 44.3902 58.3316 44.168 56.1094C44.9457 56.276 45.6124 56.4427 46.3346 56.6094Z" fill="#1E1E1E"/>
<path d="M59.5015 44.4436C61.446 45.9436 62.946 47.1658 64.8349 48.6658C64.946 48.7769 65.5571 49.1102 65.8904 49.2214C67.6126 49.9436 68.946 50.4436 70.6682 51.1658C71.3904 51.4436 72.0015 51.9991 72.7793 52.1102C74.3349 52.388 75.1682 52.388 76.7793 52.5547C77.3904 52.5547 79.1682 52.4436 79.5015 52.388C81.7793 52.1102 82.8349 52.3325 84.8904 51.4991C86.6126 50.8325 87.8904 49.1102 89.3904 47.8325C89.7793 47.4991 90.0571 47.0547 90.446 46.6102L88.8904 45.5547C87.946 46.5547 87.0571 47.5547 86.1126 48.5547C84.5015 50.1658 82.5015 50.9991 80.2237 50.9991C76.446 50.9436 72.8904 49.8325 69.5015 48.3325C67.946 47.6102 66.1682 47.1102 64.8904 46.0547C62.7793 44.388 58.8904 43.0547 58.946 39.0547L57.7793 42.1658C57.8904 42.6102 58.6682 43.888 59.5015 44.4436Z" fill="#D6C9A1"/>
<path d="M63.6686 54.6072C59.3353 52.9961 52.9464 47.0516 53.7797 45.4961L53.1131 47.7183C53.002 48.6072 53.7242 49.1072 54.002 49.4961C54.7242 50.4405 54.5575 50.8294 55.2797 51.7183C56.0575 52.6628 56.9464 53.5516 57.8909 54.3294C58.9464 55.1628 60.1131 55.9961 61.3353 56.5516C62.7242 57.1628 65.002 57.6628 65.7242 57.8294C66.4464 57.9961 67.3909 58.2739 67.3909 58.2739L74.4464 58.2183V58.1628C74.1131 58.1628 74.1131 58.1628 73.7797 58.1628C70.4464 57.0516 66.8909 55.8294 63.6686 54.6072Z" fill="#D6C9A1"/>
<path d="M68.0017 39.3312C70.3351 40.5534 71.7795 41.4423 74.1684 42.4978C74.6684 42.7201 76.3906 43.1089 77.1128 43.0534C78.2795 42.9423 78.7795 42.7201 79.9462 42.3867C80.1128 42.3312 80.6128 42.1089 81.0017 41.8867C81.0017 41.8867 82.5573 40.6089 84.1684 39.7756C84.5573 39.4978 84.8351 39.4423 85.0573 39.1645C85.2795 38.8867 85.224 38.8312 85.2795 38.4978L83.3906 36.7756C82.6684 37.6645 81.9462 38.6089 81.1128 39.4423C78.7795 41.7756 73.224 41.8312 70.5573 39.7756C69.0017 38.5534 67.4462 37.5534 65.8906 36.3867L66.0017 37.2201C66.6684 38.4423 67.0017 38.8312 68.0017 39.3312Z" fill="#D6C9A1"/>
<path d="M58.2242 54.3342C57.2797 53.5564 56.3908 52.6675 55.6131 51.7231C54.8908 50.8342 54.3353 49.7231 53.6131 48.7786C53.3353 48.3898 52.3908 48.4453 51.7797 48.9453C50.5575 50.0009 50.002 50.4453 50.002 51.8898C50.0575 53.2231 50.0575 54.1675 50.002 55.3342C50.0575 56.112 50.1686 57.112 50.8908 57.2231C51.3908 57.2786 51.8908 57.3898 52.4464 57.4453C53.502 57.5009 54.502 57.5564 55.5575 57.6675C57.9464 57.8342 61.2242 58.112 62.5575 58.2231C63.8908 58.3342 67.4464 58.3342 67.4464 58.3342C67.4464 58.2231 66.4464 58.0564 66.002 57.8898C64.5575 57.5009 63.002 57.2231 61.6131 56.612C60.3908 56.0009 59.2797 55.2231 58.2242 54.3342Z" fill="#FBF6E2"/>
<path d="M58.8344 43.668C58.6677 43.4457 57.89 42.6124 57.7233 42.168C56.0566 43.0569 53.2788 44.1124 53.7233 46.668C54.1677 49.2235 59.39 53.1124 63.8344 54.7791C67.0566 55.9457 70.3344 57.0569 73.5566 58.2235C75.2788 58.168 77.0011 58.1124 78.7233 58.0569C80.0566 58.0013 81.39 58.0013 82.7233 57.9457C85.4455 57.6124 88.1677 57.2791 90.89 56.8902C91.5566 55.1124 92.1677 53.2791 92.7788 51.5013C93.1677 50.4457 93.2788 49.2791 93.6122 48.2235C92.5011 47.6124 91.3899 47.2235 90.2788 46.668C89.9455 47.0569 89.7788 47.4457 89.39 47.7791C87.9455 49.0569 86.6122 50.7791 84.89 51.4457C82.8344 52.2791 81.7788 52.0013 79.5011 52.3346C79.1677 52.3902 77.39 52.4457 76.7788 52.5013C75.1677 52.3346 74.3344 52.3346 72.7788 52.0569C72.0566 51.9457 71.39 51.3902 70.6677 51.1124C68.9455 50.3902 67.6122 49.8902 65.89 49.168C65.5566 49.0569 64.9455 48.7235 64.8344 48.6124C62.89 47.1124 62.3344 46.6124 60.39 45.1124C60.39 44.9457 58.8344 43.668 58.8344 43.668Z" fill="#FBF6E2"/>
<path d="M64.1686 46.0009C65.5019 47.0564 67.8908 47.8342 69.5019 48.5009C72.8908 50.0564 76.4464 51.112 80.2242 51.1675C82.4464 51.2231 84.5019 50.2231 86.1686 48.612C87.1131 47.6676 88.0575 46.612 88.9464 45.612C90.0575 43.4453 88.7242 39.0564 85.3353 38.5564C85.2797 38.8342 85.3353 38.9453 85.1131 39.2231C84.8908 39.5009 84.6686 39.5009 84.2797 39.7787C82.6686 40.612 81.1131 41.8898 81.1131 41.8898C80.7242 42.112 80.2797 42.3342 80.0575 42.3898C78.9464 42.7231 78.3908 42.8898 77.2242 43.0564C76.8353 43.112 74.7797 42.7231 74.2797 42.5009C71.8353 41.4453 70.4464 40.5564 68.1131 39.3342C67.1131 38.8342 66.3908 37.612 65.5575 36.7231C64.1131 35.0564 62.3908 35.5009 60.8908 36.3898C59.5575 37.1676 58.4464 38.8342 58.9464 40.5009C59.7242 43.4453 62.0575 44.3342 64.1686 46.0009Z" fill="#FBF6E2"/>
<path d="M70.6138 40C73.2249 42.0556 78.836 41.8889 81.1693 39.5556C82.0027 38.7222 82.6138 37.7778 83.336 36.8889C83.2249 35.5 82.6138 34.5556 81.2249 34.1111C79.2249 33.5 78.1138 31.8889 78.0582 29.8333C78.0582 29.3889 77.9471 28.9444 77.8915 28.5C77.3915 28.7222 76.836 28.9444 76.2804 29.1111C76.336 29.6111 76.336 30.1667 76.3915 30.6667C75.8915 30.5556 75.3915 30.4444 74.8915 30.3333C73.6693 31.3889 72.7804 33 70.7804 32.4444C70.7804 32.5556 70.7804 32.6667 70.7804 32.8333C70.7804 33.1667 70.7804 33.5 70.7804 33.8889C70.336 33.5 69.8915 33.1111 69.4471 32.7778C66.6138 32.9444 65.5027 34.1111 65.8915 36.5C67.5027 37.6667 69.1138 38.7778 70.6138 40Z" fill="#FBF6E2"/>
<path d="M92.4466 51.441C92.8355 50.3854 93.4466 48.8299 93.7799 47.7743C94.2799 46.5521 94.8355 45.3854 95.2799 44.1076C96.7799 39.941 98.2244 35.7743 99.6688 31.5521C100.058 30.3854 100.447 29.2187 100.835 28.0521C100.891 27.8854 101.058 27.8299 101.224 27.7188C102.335 28.9965 103.724 29.4965 105.391 29.1076C105.113 30.1076 104.891 31.1076 104.558 32.0521C103.169 36.2187 101.724 40.441 100.336 44.6076C99.4466 47.3299 98.5577 50.0521 97.7244 52.7187C97.5577 53.3299 97.3911 54.1076 97.2244 54.7743C95.8911 55.3299 94.5022 55.7187 93.1688 56.2743C92.3911 56.441 91.4466 56.7743 90.6133 56.8854C90.6133 56.7743 91.8355 53.2743 92.4466 51.441Z" fill="#98513E"/>
<path d="M105.391 29.1086C103.725 29.4975 102.336 28.9975 101.225 27.7197C101.336 27.553 101.502 27.4975 101.725 27.3863C102.836 26.9975 105.225 27.9975 105.391 29.1086Z" fill="#503234"/>
<path d="M87.2244 53.2188C87.2244 53.3299 87.2244 53.3854 87.2244 53.4965C86.9466 53.5521 86.6133 53.6076 86.3355 53.6076C86.28 53.6076 86.1688 53.4965 86.1133 53.4965C86.1688 53.3854 86.28 53.2188 86.3355 53.2188" fill="#1E1E1E"/>
<path d="M76.3342 29.1641C76.3898 29.6641 76.3898 30.2196 76.4453 30.7196C75.9453 30.6085 75.4453 30.4974 74.9453 30.3863C75.3898 29.9418 75.8342 29.553 76.3342 29.1641Z" fill="#503234"/>
<path d="M70.8353 32.4961C70.8353 32.6072 70.8353 32.7739 70.8353 32.885C70.8353 33.2183 70.8353 33.5516 70.8353 33.885C70.3908 33.4961 69.9464 33.1072 69.502 32.7739C69.9464 32.6628 70.3908 32.6072 70.8353 32.4961Z" fill="#503234"/>
<path d="M79.6689 54.6624C79.1689 54.6069 78.8356 54.718 78.6689 54.5513C78.5022 54.4402 78.4467 53.9402 78.5578 53.8291C78.7245 53.6624 79.1134 53.6069 79.3356 53.718C79.5022 53.8291 79.5023 54.218 79.6689 54.6624Z" fill="#503234"/>
<path d="M57.002 43.9414C57.0575 43.6081 57.1686 43.2747 57.2242 42.9414C57.5575 42.9414 58.002 42.7747 58.1131 42.8859C58.3353 43.1081 58.3908 43.497 58.4464 43.8859C58.502 44.1081 58.4464 44.3303 58.3908 44.5525C57.9464 44.3303 57.4464 44.1636 57.002 43.9414Z" fill="#503234"/>
<path d="M67.5022 51.7188C67.1688 51.9965 66.8911 52.2743 66.7244 52.2743C66.5022 52.2188 66.3355 51.941 66.1133 51.7188C66.2799 51.5521 66.5022 51.2188 66.6688 51.2188C66.9466 51.2188 67.1688 51.4965 67.5022 51.7188Z" fill="#503234"/>
<path d="M61.0015 47.6626C60.6126 47.8848 60.3904 48.107 60.2237 48.107C60.0571 48.107 59.8904 47.8292 59.7793 47.6626C59.946 47.4959 60.1126 47.2737 60.3349 47.2181C60.446 47.1626 60.6682 47.4403 61.0015 47.6626Z" fill="#503234"/>
<path d="M77.8902 52.332C78.1124 52.332 78.2791 52.332 78.5013 52.332C78.3346 52.5543 78.2235 52.7765 78.0569 52.9431C78.0013 52.9987 77.8346 52.8876 77.668 52.832C77.7791 52.6654 77.8346 52.4987 77.8902 52.332Z" fill="#503234"/>
<path d="M84.3906 39.6641C84.6684 39.4974 84.8906 39.3307 85.1684 39.1641C85.8351 39.2752 85.8351 39.6085 85.8351 39.9418C85.8351 40.2752 85.1684 40.8307 84.8906 40.7196C84.6684 40.6085 84.3906 40.1085 84.3906 39.6641Z" fill="#503234"/>
<path d="M69.5022 42.329C69.1133 42.6068 68.8911 42.8845 68.6688 42.8845C68.4466 42.8845 68.2799 42.5512 68.1133 42.329C68.3355 42.1623 68.5022 41.829 68.7244 41.7734C68.8355 41.7734 69.0577 42.0512 69.5022 42.329Z" fill="#503234"/>
<path d="M75.612 37.4982C75.0009 37.8871 74.6675 38.3315 74.3342 38.276C74.0009 38.2204 73.7231 37.776 73.4453 37.4982C73.7231 37.2204 74.0009 36.7204 74.3342 36.6649C74.612 36.6093 75.0009 37.0538 75.612 37.4982Z" fill="#503234"/>
<path d="M77.8895 33.1094C78.1118 33.4427 78.3895 33.6649 78.334 33.8316C78.2784 34.0538 78.0007 34.1649 77.834 34.3316C77.6673 34.1649 77.3895 33.9983 77.334 33.776C77.334 33.6649 77.6118 33.4427 77.8895 33.1094Z" fill="#503234"/>
<path d="M52.8905 53.4973C52.4461 53.2751 52.0572 53.164 51.9461 52.9973C51.8905 52.7751 52.0016 52.3307 52.1683 52.2196C52.335 52.1085 52.7794 52.2751 52.9461 52.4418C53.1128 52.6085 52.9461 52.9973 52.8905 53.4973Z" fill="#503234"/>
<path d="M87.0566 51.8315C87.5011 51.3871 88.0011 50.8871 88.4455 50.4427C88.5011 50.3871 88.8344 50.4427 88.8344 50.4427C88.8344 51.0538 88.8344 51.6649 88.7789 52.276C88.2789 52.1649 87.7789 52.0538 87.2789 51.9427C87.2233 51.9427 87.1678 51.8871 87.0566 51.8315Z" fill="#503234"/>
<path d="M62.7227 38.832C62.2782 39.1654 62.056 39.4431 61.8338 39.4431C61.6115 39.4431 61.3893 39.1098 61.2227 38.8876C61.4449 38.6654 61.6115 38.332 61.8338 38.332C62.0004 38.332 62.2782 38.6098 62.7227 38.832Z" fill="#503234"/>
<path d="M79.7795 44.2188C79.4462 44.4965 79.224 44.8299 79.0017 44.8299C78.7795 44.8299 78.6128 44.5521 78.3906 44.3299C78.5573 44.1076 78.724 43.7743 78.9462 43.7188C79.1128 43.7188 79.3906 43.9965 79.7795 44.2188Z" fill="#503234"/>
<path d="M59.8906 56.6658C59.5573 56.9436 59.2795 57.2769 59.224 57.2214C58.9462 57.1103 58.7239 56.8325 58.6128 56.6103C58.5573 56.4991 58.9462 56.0547 59.0017 56.1103C59.2795 56.1658 59.5017 56.388 59.8906 56.6658Z" fill="#503234"/>
</g>
<defs>
<clipPath id="clip0_584_6541">
<rect width="144" height="144" fill="white" transform="translate(0.167969)"/>
</clipPath>
</defs>
</svg>
