<svg width="512" height="512" viewBox="0 0 512 512" fill="none" xmlns="http://www.w3.org/2000/svg">
<g clip-path="url(#clip0_618_19399)">
<path d="M458.074 481.031C436.416 487.164 388.788 473.77 388.788 473.77C279.238 437.188 216.127 376.239 180.114 313.831C130.149 227.242 132.351 137.809 135.041 106.646C136.996 83.9135 146.325 59.7945 158.436 40.5055C166.09 28.3115 176.298 16.9755 189.764 11.2155C192.277 10.1395 194.884 9.27146 197.542 8.62946C206.799 6.39546 215.952 7.74046 223.492 11.5465C234.166 16.9245 241.592 27.2365 241.468 39.3065C240.713 115.987 264.605 186.803 296.615 247.028C350.718 348.769 428.019 420.237 448.911 438.502C454.641 443.508 459.616 449.186 463.453 455.464C472.812 470.771 468.386 478.114 458.074 481.031Z" fill="#EBD47A"/>
<path d="M458.076 481.033C439.956 478.468 423.263 473.772 423.263 473.772C313.713 437.19 250.602 376.241 214.589 313.833C164.624 227.244 166.826 137.811 169.516 106.648C171.471 83.9149 180.8 59.7959 192.911 40.5069C200.42 28.5409 210.39 17.4009 223.494 11.5469C234.168 16.9249 241.594 27.2369 241.47 39.3069C240.715 115.988 264.607 186.804 296.617 247.029C350.72 348.77 428.021 420.238 448.913 438.503C454.643 443.509 459.618 449.187 463.455 455.465C472.814 470.773 468.388 478.116 458.076 481.033Z" fill="#FFECA0"/>
<path d="M483.304 502.727L432.256 477.524C426.135 474.502 423.599 467.022 426.621 460.901L430.516 453.012C433.538 446.891 441.018 444.355 447.139 447.377L498.187 472.58C506.478 476.673 509.911 486.804 505.819 495.095C501.725 503.385 491.593 506.82 483.304 502.727Z" fill="#AA6100"/>
<path d="M388.789 473.77C279.239 437.188 216.128 376.239 180.115 313.831C197.915 307.026 216.987 303.137 236.669 302.599C242.154 302.446 246.569 302.582 249.619 302.756C251.339 302.854 253.026 303.211 254.641 303.81L255.827 304.25C255.827 304.25 256.951 296.91 262.671 287.457C271.979 272.067 283.48 258.497 296.616 247.027C350.719 348.768 428.02 420.236 448.912 438.501C454.642 443.507 459.617 449.185 463.454 455.463C492.495 502.947 388.789 473.77 388.789 473.77Z" fill="#FFD529"/>
<path d="M469.845 204.986L425.299 204.676C359.819 199.412 298.105 232.363 264.098 288.565C263.074 290.251 262.154 291.833 261.326 293.302C257.551 300.045 255.824 304.255 255.824 304.255C249.753 287.024 245.316 254.238 245.316 254.238C242.327 189.938 283.139 131.284 344.844 112.947C414.378 92.2927 469.442 131.119 487.201 145.95C487.201 145.95 509.769 165.125 511.848 181.632C513.325 193.36 504.472 203.755 469.845 204.986Z" fill="#FFDD51"/>
<path d="M469.845 204.984L425.299 204.674C359.819 199.41 298.105 232.361 264.098 288.563C263.074 290.249 262.154 291.831 261.326 293.3C259.919 285.067 259.113 279.058 259.113 279.058C256.124 214.758 296.926 156.104 358.63 137.767C428.174 117.113 483.239 155.939 500.987 170.77C500.987 170.77 506.2 175.197 511.847 181.63C513.325 193.358 504.472 203.753 469.845 204.984Z" fill="#E7B901"/>
<path d="M423.26 473.768C423.26 473.768 439.953 478.464 458.073 481.029C436.415 487.162 388.787 473.768 388.787 473.768C279.237 437.186 216.126 376.237 180.113 313.829C189.711 310.157 199.671 307.344 209.91 305.441C211.41 308.234 212.971 311.036 214.585 313.829C250.6 376.237 313.711 437.186 423.26 473.768Z" fill="#E7B901"/>
<path d="M255.825 304.252C255.825 304.252 251.15 303.652 243.145 303.631C241.583 303.631 239.897 303.641 238.098 303.693C172.432 305.503 112.124 343.574 84.3537 403.097L62.6137 441.985C46.0447 468.886 33.4267 473.396 24.1597 468.607C8.94566 460.767 2.71966 427.919 2.71966 427.919C-1.40734 405.155 -7.97434 338.093 44.3387 287.838C90.7567 243.24 161.925 236.735 216.348 271.104C216.348 271.104 243.848 290.465 255.825 304.252Z" fill="#FFDD51"/>
<path d="M243.144 303.634C241.582 303.634 239.896 303.644 238.097 303.696C172.431 305.506 112.123 343.577 84.3532 403.1L62.6132 441.988C46.0442 468.889 33.4262 473.399 24.1592 468.61C21.2632 460.357 19.9502 453.427 19.9502 453.427C15.8232 430.673 9.26617 363.611 61.5692 313.356C107.997 268.758 179.155 262.253 233.588 296.611C233.588 296.611 237.559 299.414 243.144 303.634Z" fill="#E7B901"/>
</g>
<defs>
<clipPath id="clip0_618_19399">
<rect width="512" height="512" fill="white"/>
</clipPath>
</defs>
</svg>
