<svg id="Capa_1" enable-background="new 0 0 512 512" height="300" viewBox="0 0 512 512" width="300" xmlns="http://www.w3.org/2000/svg" version="1.1" xmlns:xlink="http://www.w3.org/1999/xlink" xmlns:svgjs="http://svgjs.dev/svgjs"><g width="100%" height="100%" transform="matrix(1,0,0,1,0,0)"><g><path d="m160.832 277.159c-3.178 0-6.525-.274-10.042-.824-16.044-2.508-31.315-10.922-41.896-23.084-14.469-16.629-20.769-39.542-18.722-68.105.304-4.256 3.984-7.465 8.259-7.155 4.256.305 7.459 4.003 7.154 8.259-1.74 24.313 3.295 43.443 14.967 56.858 11.688 13.433 26.71 17.035 32.626 17.959 10.525 1.647 18.083.196 23.11-4.432 13.427-12.364 10.884-47.254 8.427-80.995-2.434-33.403-4.732-64.955 6.036-85.147 11.925-22.358 32.664-32.546 59.976-29.47 19.492 2.197 35.451 10.517 36.121 10.87 3.775 1.99 5.222 6.663 3.232 10.438-1.988 3.77-6.654 5.22-10.428 3.237-.142-.074-14.369-7.44-31.031-9.231-20.591-2.214-35.472 4.996-44.234 21.427-8.668 16.252-6.427 47.009-4.261 76.753 2.85 39.119 5.542 76.069-13.371 93.485-6.617 6.093-15.31 9.157-25.923 9.157z" fill="#89563b" fill-opacity="1" data-original-color="#a34f41ff" stroke="none" stroke-opacity="1" style=""/><path d="m440.472 340.213c-1.091 0-2.199-.232-3.254-.723-16.133-7.504-27.811-21.809-33.772-41.369-4.364-14.321-4.144-26.51-4.133-27.022.096-4.266 3.658-7.671 7.897-7.551 4.262.096 7.639 3.623 7.551 7.882-.007.474-.36 40.405 28.973 54.048 3.869 1.799 5.546 6.395 3.747 10.264-1.308 2.816-4.097 4.471-7.009 4.471z" fill="#70392f" fill-opacity="1" data-original-color="#6c3328ff" stroke="none" stroke-opacity="1" style=""/><g><path d="m419.906 451.722c-1.691 0-3.393-.553-4.818-1.69-44.435-35.498-31.19-101.876-19.505-160.44 8.633-43.264 16.787-84.128-1.118-100.12-6.025-5.382-12.557-6.049-20.554-2.096-22.617 11.175-45.987 55.554-43.871 83.309.324 4.255-2.862 7.967-7.117 8.291-4.254.323-7.967-2.862-8.292-7.117-1.225-16.075 3.989-36.563 14.304-56.21 10.493-19.983 24.39-35.338 38.13-42.127 13.593-6.715 26.98-5.145 37.694 4.425 24.494 21.877 15.5 66.95 5.979 114.669-5.674 28.432-11.54 57.833-11.038 84.004.549 28.642 8.504 48.133 25.034 61.338 3.333 2.663 3.877 7.525 1.213 10.859-1.524 1.911-3.772 2.905-6.041 2.905z" fill="#89563b" fill-opacity="1" data-original-color="#a34f41ff" stroke="none" stroke-opacity="1" style=""/></g><g><g><circle cx="276.884" cy="174.66" fill="#99d53b" r="54.105" fill-opacity="1" data-original-color="#99d53bff" stroke="none" stroke-opacity="1" style=""/><path d="m318.192 209.601c-19.295 22.819-53.436 25.662-76.244 6.367-2.514-2.122-4.78-4.42-6.789-6.871 4.492-2.854 8.623-6.428 12.239-10.703 17.173-20.305 16.813-49.593.433-69.383 19.45-12.393 45.462-11.342 63.995 4.337 22.818 19.294 25.661 53.434 6.366 76.253z" fill="#8dc637" fill-opacity="1" data-original-color="#8dc637ff" stroke="none" stroke-opacity="1" style=""/></g><g><circle cx="209.049" cy="207.059" fill="#bcea73" r="54.105" fill-opacity="1" data-original-color="#bcea73ff" stroke="none" stroke-opacity="1" style=""/><path d="m250.36 242.002c-19.296 22.814-53.438 25.659-76.252 6.363-10.736-9.08-17.056-21.447-18.724-34.368 22.734 16.738 54.865 13.206 73.361-8.663 10.215-12.078 14.228-27.332 12.345-41.882.978.726 1.952 1.492 2.898 2.291 22.815 19.296 25.668 53.445 6.372 76.259z" fill="#a3e440" fill-opacity="1" data-original-color="#a3e440ff" stroke="none" stroke-opacity="1" style=""/></g><g><circle cx="303.238" cy="235.371" fill="#99d53b" r="54.105" fill-opacity="1" data-original-color="#99d53bff" stroke="none" stroke-opacity="1" style=""/><path d="m357.346 235.374c0 29.88-24.231 54.1-54.111 54.1-14.061 0-26.873-5.361-36.49-14.149 28.166-1.901 50.419-25.348 50.419-53.989 0-15.819-6.787-30.057-17.621-39.95 1.216-.077 2.454-.122 3.692-.122 29.88-.001 54.111 24.23 54.111 54.11z" fill="#8dc637" fill-opacity="1" data-original-color="#8dc637ff" stroke="none" stroke-opacity="1" style=""/></g><g><circle cx="297.081" cy="373.536" fill="#99d53b" r="54.105" fill-opacity="1" data-original-color="#99d53bff" stroke="none" stroke-opacity="1" style=""/><path d="m351.188 373.532c0 29.883-24.235 54.118-54.118 54.118-29.186 0-52.949-23.09-54.043-52.003 7.514 8.261 18.363 13.436 30.406 13.436 22.742 0 41.18-18.462 41.18-41.204 0-10.824-4.181-20.702-11.023-28.042 26.797 3.21 47.598 26.026 47.598 53.695z" fill="#8dc637" fill-opacity="1" data-original-color="#8dc637ff" stroke="none" stroke-opacity="1" style=""/></g><g><circle cx="268.077" cy="291.657" fill="#d2f0a2" r="54.105" fill-opacity="1" data-original-color="#d2f0a2ff" stroke="none" stroke-opacity="1" style=""/><path d="m322.185 291.659c0 29.88-24.231 54.1-54.111 54.1-14.061 0-26.873-5.361-36.49-14.149 28.166-1.901 50.419-25.348 50.419-53.989 0-15.819-6.787-30.057-17.621-39.95 1.216-.077 2.454-.122 3.692-.122 29.88 0 54.111 24.231 54.111 54.11z" fill="#bcea73" fill-opacity="1" data-original-color="#bcea73ff" stroke="none" stroke-opacity="1" style=""/></g><g><circle cx="71.938" cy="457.887" fill="#bcea73" r="54.105" fill-opacity="1" data-original-color="#bcea73ff" stroke="none" stroke-opacity="1" style=""/><path d="m126.045 457.882c0 29.883-24.235 54.118-54.118 54.118-29.186 0-52.949-23.09-54.043-52.003 7.514 8.261 18.363 13.436 30.406 13.436 22.742 0 41.18-18.462 41.18-41.204 0-10.824-4.181-20.702-11.023-28.042 26.796 3.21 47.598 26.026 47.598 53.695z" fill="#a3e440" fill-opacity="1" data-original-color="#a3e440ff" stroke="none" stroke-opacity="1" style=""/></g><g><circle cx="115.488" cy="365.769" fill="#99d53b" r="54.105" fill-opacity="1" data-original-color="#99d53bff" stroke="none" stroke-opacity="1" style=""/><path d="m169.595 365.764c0 29.883-24.235 54.118-54.118 54.118-29.186 0-52.949-23.09-54.043-52.003 7.514 8.261 18.363 13.436 30.406 13.436 22.742 0 41.18-18.462 41.18-41.204 0-10.824-4.181-20.702-11.023-28.042 26.797 3.21 47.598 26.027 47.598 53.695z" fill="#8dc637" fill-opacity="1" data-original-color="#8dc637ff" stroke="none" stroke-opacity="1" style=""/></g><g><circle cx="209.049" cy="368.442" fill="#bcea73" r="54.105" fill-opacity="1" data-original-color="#bcea73ff" stroke="none" stroke-opacity="1" style=""/><path d="m263.157 368.437c0 29.883-24.235 54.118-54.118 54.118-29.186 0-52.949-23.09-54.043-52.003 7.514 8.261 18.363 13.436 30.406 13.436 22.742 0 41.18-18.462 41.18-41.204 0-10.824-4.181-20.702-11.023-28.042 26.796 3.21 47.598 26.026 47.598 53.695z" fill="#a3e440" fill-opacity="1" data-original-color="#a3e440ff" stroke="none" stroke-opacity="1" style=""/></g><g><circle cx="151.983" cy="437.13" fill="#d2f0a2" r="54.105" fill-opacity="1" data-original-color="#d2f0a2ff" stroke="none" stroke-opacity="1" style=""/><path d="m206.09 437.133c0 29.88-24.231 54.1-54.111 54.1-14.061 0-26.873-5.361-36.49-14.149 28.166-1.901 50.419-25.348 50.419-53.989 0-15.819-6.787-30.057-17.621-39.95 1.216-.077 2.454-.122 3.692-.122 29.88-.001 54.111 24.23 54.111 54.11z" fill="#bcea73" fill-opacity="1" data-original-color="#bcea73ff" stroke="none" stroke-opacity="1" style=""/></g><g><circle cx="175.122" cy="280.778" fill="#d2f0a2" r="54.105" fill-opacity="1" data-original-color="#d2f0a2ff" stroke="none" stroke-opacity="1" style=""/><path d="m229.229 280.781c0 29.88-24.231 54.1-54.111 54.1-14.061 0-26.873-5.361-36.49-14.149 28.166-1.901 50.419-25.348 50.419-53.989 0-15.819-6.787-30.057-17.621-39.95 1.216-.077 2.454-.122 3.692-.122 29.88-.001 54.111 24.23 54.111 54.11z" fill="#bcea73" fill-opacity="1" data-original-color="#bcea73ff" stroke="none" stroke-opacity="1" style=""/></g><g><circle cx="249.121" cy="442.792" fill="#d2f0a2" r="54.105" fill-opacity="1" data-original-color="#d2f0a2ff" stroke="none" stroke-opacity="1" style=""/><path d="m301.552 456.156c-7.378 28.955-36.84 46.441-65.795 39.062-13.626-3.472-24.717-11.831-31.866-22.722 27.764 5.113 55.117-12.112 62.189-39.867 3.906-15.329.845-30.802-7.21-43.064 1.197.225 2.408.488 3.608.794 28.956 7.379 46.453 36.843 39.074 65.797z" fill="#bcea73" fill-opacity="1" data-original-color="#bcea73ff" stroke="none" stroke-opacity="1" style=""/></g></g><g><path d="m324.982 34.654s-73.766-9.042-73.744 87.055c.002 7.684 7.646 13.034 14.861 10.391l9.569-3.505s-3.338 44.401 25.313 82.448c4.51 5.99 13.501 5.965 17.873-.126l7.629-10.628s61.345 53.729 99.668 72.064c4.583 2.192 10.075 1.037 13.31-2.88 14.192-17.18 49.73-69.668 37.213-152.576l1.133.384c7.005 2.374 14.35-2.659 14.6-10.051.284-8.396-1.795-20.301-10.929-34.897 0 0 3.352-1.628 7.441-4.159 6.515-4.033 7.072-13.299 1.07-18.061-6.08-4.824-14.776-12.431-26.481-24.231-28.059-28.286-112.691-43.527-138.526 8.772z" fill="#2db171" fill-opacity="1" data-original-color="#2db181ff" stroke="none" stroke-opacity="1" style=""/><path d="m481.476 72.329c9.138 14.598 11.219 26.507 10.93 34.903-.247 7.386-7.593 12.424-14.598 10.054l-1.133-.391c12.517 82.909-23.025 135.397-37.21 152.58-3.235 3.915-8.726 5.068-13.31 2.874-6.593-3.152-13.856-7.345-21.387-12.135 16.164-23.189 40.96-71.999 30.195-143.319l1.133.391c7.005 2.369 14.35-2.668 14.598-10.054.288-8.396-1.793-20.305-10.93-34.903 0 0 3.348-1.628 7.438-4.152 6.521-4.038 7.077-13.3 1.071-18.069-6.078-4.821-14.773-12.424-26.476-24.23-10.951-11.033-30.514-20.088-51.828-23.91 34.14-7.046 75.512 5.738 93.54 23.911 11.703 11.806 20.398 19.408 26.476 24.23 6.006 4.77 5.45 14.031-1.061 18.069-4.09 2.524-7.448 4.151-7.448 4.151z" fill="#1ba06f" fill-opacity="1" data-original-color="#1ca56fff" stroke="none" stroke-opacity="1" style=""/><path d="m445.777 97.509c-12.407-7.478-23.842-9.755-33.982-6.761-3.974 1.173-7.221 3.007-9.826 5.001-5.622-10.272-11.639-18.943-17.576-26.215 1.207-1.44 3.023-3.062 5.665-4.217 7.283-3.184 18.117-1.672 31.326 4.374 3.882 1.776 8.467.07 10.24-3.81 1.776-3.88.07-8.465-3.81-10.241-17.57-8.041-32.356-9.548-43.947-4.481-4.265 1.865-7.469 4.358-9.871 6.856-.199-.199-.401-.408-.599-.603-23.354-23.088-45.265-29.876-46.186-30.154-4.077-1.229-8.363 1.075-9.606 5.146s1.054 8.384 5.121 9.641c.164.051 13.983 4.443 30.654 18.11-15.056.944-31.62 7.358-40.867 26.07-1.89 3.825-.322 8.459 3.503 10.35 1.101.544 2.268.801 3.418.801 2.847 0 5.586-1.579 6.933-4.305 11.087-22.435 36.96-17.739 44.321-15.876 5.008 5.888 9.6 12.274 13.775 19.111-5.382-.654-11.425-.508-17.559 1.358-11.333 3.447-20.276 11.754-26.58 24.69-1.869 3.836-.276 8.461 3.56 10.33 1.091.532 2.243.783 3.379.783 2.862 0 5.613-1.597 6.952-4.343 4.328-8.879 10.078-14.48 17.092-16.647 9.214-2.848 18.82.601 22.982 2.466 9.423 20.84 15.579 44.9 18.167 71.505.388 3.993 3.75 6.979 7.681 6.979.25 0 .503-.012.757-.037 4.247-.413 7.355-4.191 6.943-8.438-2.953-30.361-9.99-54.973-18.765-74.79 1.454-1.628 3.787-3.615 7.098-4.592 5.816-1.716 13.091.026 21.632 5.175 3.657 2.204 8.404 1.026 10.607-2.629 2.199-3.656 1.022-8.405-2.632-10.607z" fill="#15875a" fill-opacity="1" data-original-color="#158f5eff" stroke="none" stroke-opacity="1"/></g></g></g></svg>