<svg id="Layer_1" enable-background="new 0 0 512 512" height="300" viewBox="0 0 512 512" width="300" xmlns="http://www.w3.org/2000/svg" version="1.1" xmlns:xlink="http://www.w3.org/1999/xlink" xmlns:svgjs="http://svgjs.dev/svgjs"><g width="100%" height="100%" transform="matrix(1,0,0,1,0,0)"><g><g><g><g><path d="m159.772 92.049c-19.579-6.037-39.978-4.372-39.978-4.372s-1.318 9.33.467 20.995c-27.739 1.704-51.251 17.282-51.251 17.282s13.727 24.638 37.583 38.896c-6.944 9.542-10.06 18.434-10.06 18.434s17.354 10.85 37.518 14.483c-.449 8.441.81 14.903.81 14.903s34.225 4.872 51.777-10.379c17.174-14.923 12.023-43.579 11.794-44.806.005-.014.008-.024.011-.031h.002s.001-.006.001-.007c0 0 .001-.001.001-.001s-.001-.001-.001-.001c0-.001.002-.007.002-.007s-.001-.001-.002-.001c.001-.007.002-.018.004-.032.768-.984 18.508-24.07 10.109-45.216-8.583-21.611-41.221-33.006-41.221-33.006s-4.086 5.163-7.566 12.866z" fill="#67a34b" fill-opacity="1" data-original-color="#57a633ff" stroke="none" stroke-opacity="1" style=""/></g></g><g><g><path d="m198.405 157.428c-.311 1.279-1.6 2.063-2.879 1.752l-91.221-22.194c-1.279-.311-2.063-1.6-1.752-2.879s1.6-2.063 2.879-1.752l91.221 22.194c1.278.311 2.063 1.601 1.752 2.879z" fill="#315423" fill-opacity="1" data-original-color="#3f7a26ff" stroke="none" stroke-opacity="1" style=""/></g></g><g><g><path d="m184.4 154.028c-3.973 16.331-12.049 30.296-21.602 37.357-1.058.782-2.55.559-3.333-.5-.782-1.058-.559-2.55.5-3.333 8.683-6.418 16.086-19.371 19.803-34.65 3.683-15.137 3.018-30.467-1.736-40.007-.588-1.178-.109-2.608 1.07-3.196 1.178-.587 2.608-.108 3.196 1.07 5.313 10.661 6.098 26.833 2.102 43.259z" fill="#315423" fill-opacity="1" data-original-color="#3f7a26ff" stroke="none" stroke-opacity="1" style=""/></g></g><g><g><path d="m160.449 148.186c-3.178 13.062-13.033 23.332-26.362 27.473-1.256.391-2.592-.312-2.983-1.569-.391-1.258.312-2.592 1.569-2.983 11.713-3.64 20.366-12.63 23.144-24.049 2.794-11.484-.807-23.49-9.633-32.114-.941-.92-.958-2.428-.039-3.37.92-.941 2.429-.958 3.37-.039 10.043 9.814 14.13 23.515 10.934 36.651z" fill="#315423" fill-opacity="1" data-original-color="#3f7a26ff" stroke="none" stroke-opacity="1" style=""/></g></g></g><g><path d="m223.54 163.053c-5.709 0-10.844-3.965-12.105-9.768-.871-3.941-21.64-93.07-108.54-77.354-6.741 1.221-13.191-3.254-14.411-9.994-1.219-6.739 3.255-13.191 9.995-14.41 57.937-10.488 92.389 16.71 111.088 41.372 19.629 25.888 25.852 53.951 26.107 55.133 1.446 6.695-2.809 13.294-9.503 14.74-.883.19-1.764.281-2.631.281z" fill="#315423" fill-opacity="1" data-original-color="#3f7a26ff" stroke="none" stroke-opacity="1" style=""/></g><g><g><g><circle cx="366.965" cy="237.412" fill="#681172" r="53.614" fill-opacity="1" data-original-color="#6c1580ff" stroke="none" stroke-opacity="1" style=""/></g><g opacity=".2"><path d="m394.194 277.728c-29.61 0-53.614-24.004-53.614-53.614 0-15.663 6.72-29.755 17.43-39.558-25.345 4.264-44.66 26.298-44.66 52.856 0 29.61 24.004 53.614 53.614 53.614 13.947 0 26.647-5.328 36.184-14.057-2.912.491-5.901.759-8.954.759z" fill="#000000" fill-opacity="1" data-original-color="#000000ff" stroke="none" stroke-opacity="1" style=""/></g></g><g><g><circle cx="332.393" cy="169.261" fill="#982581" r="53.614" fill-opacity="1" data-original-color="#a929abff" stroke="none" stroke-opacity="1" style=""/></g><g opacity=".2"><path d="m359.622 209.577c-29.61 0-53.614-24.004-53.614-53.614 0-15.663 6.72-29.755 17.43-39.558-25.345 4.264-44.66 26.298-44.66 52.856 0 29.61 24.004 53.614 53.614 53.614 13.947 0 26.647-5.328 36.184-14.057-2.913.49-5.901.759-8.954.759z" fill="#000000" fill-opacity="1" data-original-color="#000000ff" stroke="none" stroke-opacity="1" style=""/></g></g><g><g><circle cx="389.364" cy="295.638" fill="#982581" r="53.614" fill-opacity="1" data-original-color="#a929abff" stroke="none" stroke-opacity="1" style=""/></g><g opacity=".2"><path d="m431.518 319.926c-26.61 12.987-58.711 1.944-71.698-24.666-6.87-14.076-7.012-29.688-1.686-43.195-20.907 14.949-28.6 43.222-16.952 67.088 12.987 26.61 45.088 37.654 71.698 24.666 12.534-6.117 21.61-16.476 26.352-28.503-2.403 1.719-4.971 3.271-7.714 4.61z" fill="#000000" fill-opacity="1" data-original-color="#000000ff" stroke="none" stroke-opacity="1" style=""/></g></g><g><g><circle cx="352.531" cy="458.386" fill="#681172" r="53.614" fill-opacity="1" data-original-color="#6c1580ff" stroke="none" stroke-opacity="1" style=""/></g><g opacity=".2"><path d="m379.761 498.702c-29.61 0-53.614-24.004-53.614-53.614 0-15.664 6.72-29.755 17.43-39.558-25.345 4.264-44.66 26.298-44.66 52.856 0 29.61 24.004 53.614 53.614 53.614 13.947 0 26.647-5.328 36.184-14.057-2.913.49-5.902.759-8.954.759z" fill="#000000" fill-opacity="1" data-original-color="#000000ff" stroke="none" stroke-opacity="1" style=""/></g></g><g><g><circle cx="242.594" cy="327.865" fill="#681172" r="53.614" fill-opacity="1" data-original-color="#6c1580ff" stroke="none" stroke-opacity="1" style=""/></g><g opacity=".2"><path d="m269.823 368.181c-29.61 0-53.614-24.004-53.614-53.614 0-15.664 6.72-29.755 17.43-39.558-25.345 4.264-44.66 26.298-44.66 52.856 0 29.61 24.004 53.614 53.614 53.614 13.947 0 26.647-5.328 36.184-14.057-2.912.491-5.901.759-8.954.759z" fill="#000000" fill-opacity="1" data-original-color="#000000ff" stroke="none" stroke-opacity="1" style=""/></g></g><g><g><circle cx="310.236" cy="245.335" fill="#681172" r="53.614" fill-opacity="1" data-original-color="#6c1580ff" stroke="none" stroke-opacity="1" style=""/></g><g opacity=".2"><path d="m337.465 285.651c-29.61 0-53.614-24.004-53.614-53.614 0-15.663 6.72-29.755 17.43-39.558-25.345 4.264-44.66 26.298-44.66 52.856 0 29.61 24.004 53.614 53.614 53.614 13.947 0 26.647-5.328 36.184-14.057-2.913.491-5.901.759-8.954.759z" fill="#000000" fill-opacity="1" data-original-color="#000000ff" stroke="none" stroke-opacity="1" style=""/></g></g><g><g><circle cx="307.009" cy="317.2" fill="#982581" r="53.614" fill-opacity="1" data-original-color="#a929abff" stroke="none" stroke-opacity="1" style=""/></g><g opacity=".2"><path d="m340.225 352.746c-29.244 4.645-56.716-15.297-61.361-44.541-2.457-15.47 1.969-30.441 11.01-41.802-24.363 8.187-39.982 32.978-35.816 59.207 4.645 29.244 32.117 49.185 61.361 44.541 13.774-2.188 25.482-9.442 33.531-19.559-2.801.942-5.71 1.676-8.725 2.154z" fill="#000000" fill-opacity="1" data-original-color="#000000ff" stroke="none" stroke-opacity="1" style=""/></g></g><g><g><circle cx="358.25" cy="380.72" fill="#982581" r="53.614" fill-opacity="1" data-original-color="#a929abff" stroke="none" stroke-opacity="1" style=""/></g><g opacity=".2"><path d="m385.479 421.037c-29.61 0-53.614-24.004-53.614-53.614 0-15.664 6.72-29.755 17.43-39.558-25.345 4.264-44.66 26.298-44.66 52.856 0 29.61 24.004 53.614 53.614 53.614 13.947 0 26.647-5.328 36.184-14.057-2.912.49-5.901.759-8.954.759z" fill="#000000" fill-opacity="1" data-original-color="#000000ff" stroke="none" stroke-opacity="1" style=""/></g></g><g><g><circle cx="268.451" cy="409.4" fill="#681172" r="53.614" fill-opacity="1" data-original-color="#6c1580ff" stroke="none" stroke-opacity="1" style=""/></g><g opacity=".2"><path d="m295.681 449.717c-29.61 0-53.614-24.004-53.614-53.614 0-15.663 6.72-29.755 17.43-39.558-25.345 4.264-44.66 26.298-44.66 52.856 0 29.61 24.004 53.614 53.614 53.614 13.947 0 26.647-5.328 36.184-14.057-2.913.49-5.902.759-8.954.759z" fill="#000000" fill-opacity="1" data-original-color="#000000ff" stroke="none" stroke-opacity="1" style=""/></g></g><g><g><circle cx="192.146" cy="370.435" fill="#982581" r="53.614" fill-opacity="1" data-original-color="#a929abff" stroke="none" stroke-opacity="1" style=""/></g><g opacity=".2"><path d="m219.375 410.752c-29.61 0-53.614-24.004-53.614-53.614 0-15.664 6.72-29.755 17.43-39.558-25.345 4.264-44.66 26.298-44.66 52.856 0 29.61 24.004 53.614 53.614 53.614 13.947 0 26.647-5.328 36.184-14.057-2.913.49-5.901.759-8.954.759z" fill="#000000" fill-opacity="1" data-original-color="#000000ff" stroke="none" stroke-opacity="1" style=""/></g></g><g><g><circle cx="223.552" cy="261.096" fill="#982581" r="53.614" fill-opacity="1" data-original-color="#a929abff" stroke="none" stroke-opacity="1" style=""/></g><g opacity=".2"><path d="m250.781 301.412c-29.61 0-53.614-24.004-53.614-53.614 0-15.663 6.72-29.755 17.43-39.558-25.345 4.264-44.66 26.298-44.66 52.856 0 29.61 24.004 53.614 53.614 53.614 13.947 0 26.647-5.328 36.184-14.057-2.912.49-5.901.759-8.954.759z" fill="#000000" fill-opacity="1" data-original-color="#000000ff" stroke="none" stroke-opacity="1" style=""/></g></g><g><g><circle cx="147.246" cy="294.869" fill="#681172" r="53.614" fill-opacity="1" data-original-color="#6c1580ff" stroke="none" stroke-opacity="1" style=""/></g><g opacity=".2"><path d="m174.476 335.185c-29.61 0-53.614-24.004-53.614-53.614 0-15.663 6.72-29.755 17.43-39.558-25.345 4.264-44.66 26.298-44.66 52.856 0 29.61 24.004 53.614 53.614 53.614 13.947 0 26.647-5.328 36.184-14.057-2.913.49-5.901.759-8.954.759z" fill="#000000" fill-opacity="1" data-original-color="#000000ff" stroke="none" stroke-opacity="1" style=""/></g></g><g><g><circle cx="159.63" cy="213.814" fill="#982581" r="53.614" fill-opacity="1" data-original-color="#a929abff" stroke="none" stroke-opacity="1" style=""/></g><g opacity=".2"><path d="m186.859 254.13c-29.61 0-53.614-24.004-53.614-53.614 0-15.663 6.72-29.755 17.43-39.558-25.345 4.264-44.66 26.298-44.66 52.856 0 29.61 24.004 53.614 53.614 53.614 13.947 0 26.647-5.328 36.184-14.057-2.913.49-5.901.759-8.954.759z" fill="#000000" fill-opacity="1" data-original-color="#000000ff" stroke="none" stroke-opacity="1" style=""/></g></g><g><g><circle cx="242.594" cy="172.638" fill="#681172" r="53.614" fill-opacity="1" data-original-color="#6c1580ff" stroke="none" stroke-opacity="1" style=""/></g><g opacity=".2"><path d="m269.823 212.954c-29.61 0-53.614-24.004-53.614-53.614 0-15.663 6.72-29.755 17.43-39.558-25.345 4.264-44.66 26.298-44.66 52.856 0 29.61 24.004 53.614 53.614 53.614 13.947 0 26.647-5.328 36.184-14.057-2.912.491-5.901.759-8.954.759z" fill="#000000" fill-opacity="1" data-original-color="#000000ff" stroke="none" stroke-opacity="1" style=""/></g></g></g><g><g><g><path d="m346.172 128.336c18.799-19.079 29.158-43.749 29.158-43.749s-10.031-7.15-24.64-12.107c14.735-33.21 10.826-69.873 10.826-69.873s-36.856 1.083-67.769 20.171c-6.886-13.806-15.326-22.778-15.326-22.778s-23.044 13.598-39.407 34.803c-9.523-5.606-17.778-8.039-17.778-8.039s-26.272 36.772-19.151 66.325c6.967 28.916 43.317 40.204 44.879 40.677.013.014.022.024.029.031 0 0-.001.002-.001.002s.006.004.008.005v.001s.001 0 .001 0c.001.001.006.007.006.007s.002-.001.002-.001c.008.006.019.013.035.024.679 1.484 16.776 35.974 46.369 38.969 30.244 3.061 63.128-27.94 63.128-27.94s-3.527-7.85-10.369-16.528z" fill="#67a34b" fill-opacity="1" data-original-color="#57a633ff" stroke="none" stroke-opacity="1" style=""/></g></g><g><g><path d="m247.045 133.77c-1.296-1.131-1.43-3.1-.298-4.396l80.707-92.463c1.131-1.296 3.1-1.43 4.396-.298s1.43 3.1.298 4.396l-80.707 92.463c-1.131 1.295-3.1 1.429-4.396.298z" fill="#315423" fill-opacity="1" data-original-color="#3f7a26ff" stroke="none" stroke-opacity="1" style=""/></g></g><g><g><path d="m259.428 119.569c-16.553-14.449-27.89-32.231-30.327-47.568-.27-1.699.888-3.295 2.588-3.565 1.699-.27 3.296.888 3.565 2.588 2.215 13.94 12.784 30.333 28.271 43.851 15.343 13.392 33.529 21.856 47.462 22.089 1.721.027 3.092 1.446 3.063 3.167-.028 1.72-1.446 3.091-3.167 3.063-15.57-.26-34.805-9.092-51.455-23.625z" fill="#315423" fill-opacity="1" data-original-color="#3f7a26ff" stroke="none" stroke-opacity="1" style=""/></g></g><g><g><path d="m280.635 95.301c-13.24-11.556-19.218-29.177-15.993-47.136.303-1.693 1.924-2.82 3.617-2.515 1.695.305 2.819 1.923 2.515 3.617-2.834 15.783 2.384 31.237 13.958 41.34 11.641 10.161 27.739 13.216 43.062 8.172 1.634-.537 3.395.352 3.934 1.985.537 1.634-.351 3.395-1.985 3.934-17.435 5.738-35.793 2.225-49.108-9.397z" fill="#315423" fill-opacity="1" data-original-color="#3f7a26ff" stroke="none" stroke-opacity="1" style=""/></g></g></g></g></g></svg>