<svg width="512" height="512" viewBox="0 0 512 512" fill="none" xmlns="http://www.w3.org/2000/svg">
<g clip-path="url(#clip0_627_20016)">
<path d="M109.099 39.2842C106.484 39.6262 104.305 41.5242 103.607 44.0672C97.6722 65.6912 102.315 89.7802 118.147 107.957C134.986 127.29 160.188 135.004 183.667 130.441C191.409 107.811 187.227 81.7882 170.388 62.4552C154.557 44.2782 131.333 36.3732 109.099 39.2842Z" fill="#97CE82"/>
<path d="M183.28 130.513C159.915 134.922 134.892 127.186 118.152 107.962C102.318 89.7794 97.6719 65.6944 103.606 44.0704C104.307 41.5254 106.49 39.6304 109.097 39.2804C116.844 38.2704 124.715 38.5694 132.348 40.1664C130.916 41.0214 129.824 42.4014 129.361 44.0704C123.427 65.6934 128.073 89.7794 143.907 107.962C154.538 120.17 168.508 127.742 183.28 130.513Z" fill="#71AC5C"/>
<path d="M291.197 17.023C290.855 14.408 288.957 12.229 286.414 11.531C264.79 5.59601 240.701 10.239 222.524 26.071C203.191 42.91 195.477 68.112 200.04 91.591C222.67 99.333 248.693 95.151 268.026 78.312C286.203 62.481 294.108 39.257 291.197 17.023Z" fill="#97CE82"/>
<path d="M280.847 10.251C269.165 12.456 257.895 17.699 248.273 26.075C228.947 42.908 221.231 68.117 225.794 91.594C228.957 92.676 232.181 93.521 235.447 94.139C223.641 96.364 211.413 95.478 200.04 91.594C195.476 68.116 203.192 42.908 222.519 26.075C239.156 11.59 260.738 6.46995 280.847 10.251Z" fill="#71AC5C"/>
<path d="M250.931 48.4199C248.21 45.2959 243.473 44.9699 240.349 47.6909L206.242 77.3979C206.246 76.9859 206.263 76.5739 206.263 76.1619C206.263 50.6729 199.223 25.7119 185.906 3.97785C183.742 0.446854 179.124 -0.665146 175.592 1.50185C172.06 3.66585 170.952 8.28285 173.116 11.8149C193.348 44.8309 196.733 84.5019 183.304 119.757L149.924 81.4329C147.203 78.3089 142.466 77.9819 139.342 80.7039C136.218 83.4249 135.892 88.1619 138.612 91.2849L176.436 134.712C175.379 136.662 174.284 138.598 173.115 140.506C170.951 144.038 172.059 148.655 175.591 150.819C176.814 151.569 178.167 151.925 179.503 151.925C182.026 151.925 184.49 150.652 185.905 148.343C195.231 133.124 201.465 116.321 204.373 98.8629C204.576 98.7189 204.774 98.5659 204.965 98.3989L250.201 59.0009C253.324 56.2809 253.651 51.5429 250.931 48.4199Z" fill="#659752"/>
<path d="M188.13 511.604C292.031 511.604 376.26 427.375 376.26 323.474C376.26 219.572 292.031 135.344 188.13 135.344C84.2287 135.344 0 219.572 0 323.474C0 427.375 84.2287 511.604 188.13 511.604Z" fill="#FFA43D"/>
<path d="M188.24 511.608H188.13C84.23 511.608 0 427.378 0 323.478C0 219.568 84.23 135.348 188.13 135.348H188.18C95.95 148.388 25.01 227.648 25.01 323.468C25.01 419.318 95.98 498.598 188.24 511.608Z" fill="#FF9533"/>
<path d="M323.87 511.604C427.772 511.604 512 427.375 512 323.474C512 219.572 427.772 135.344 323.87 135.344C219.969 135.344 135.74 219.572 135.74 323.474C135.74 427.375 219.969 511.604 323.87 511.604Z" fill="#FEE07D"/>
<path d="M323.98 511.608H323.87C219.97 511.608 135.74 427.378 135.74 323.478C135.74 219.568 219.97 135.348 323.87 135.348H323.92C231.68 148.388 160.75 227.648 160.75 323.468C160.75 419.318 231.71 498.598 323.98 511.608Z" fill="#FFD35A"/>
<path d="M475.715 297.107C471.758 274.409 462.819 253.401 450.069 235.254C441.938 223.681 425.402 222.124 415.401 232.125L323.869 323.657H453.379C467.448 323.657 478.131 310.968 475.715 297.107Z" fill="#FFA43D"/>
<path d="M323.87 323.66V191.722C323.87 179.099 312.617 169.413 300.143 171.349C276.364 175.039 254.364 184.184 235.467 197.46C223.894 205.591 222.337 222.127 232.338 232.128L323.87 323.66Z" fill="#FFA43D"/>
<path d="M475.715 350.206C478.131 336.345 467.448 323.656 453.379 323.656H323.869L415.401 415.188C425.402 425.189 441.939 423.632 450.069 412.059C462.819 393.912 471.758 372.904 475.715 350.206Z" fill="#FF9533"/>
<path d="M323.87 323.656H194.36C180.29 323.656 169.607 336.345 172.024 350.206C175.981 372.904 184.921 393.912 197.67 412.059C205.801 423.632 222.337 425.189 232.338 415.188L323.87 323.656Z" fill="#FFA43D"/>
<path d="M197.67 235.258C184.92 253.405 175.981 274.413 172.024 297.111C169.608 310.972 180.291 323.661 194.36 323.661H323.87L232.338 232.13C222.337 222.128 205.801 223.685 197.67 235.258Z" fill="#FF9533"/>
<path d="M235.466 449.86C253.612 462.61 274.621 471.549 297.319 475.506C311.18 477.922 323.869 467.239 323.869 453.17V323.66L232.337 415.192C222.336 425.193 223.894 441.729 235.466 449.86Z" fill="#FF9533"/>
<path d="M323.869 323.66V191.722C323.869 179.099 335.122 169.413 347.596 171.349C371.375 175.039 393.375 184.184 412.272 197.46C423.845 205.591 425.402 222.127 415.401 232.128L323.869 323.66Z" fill="#FF9533"/>
<path d="M412.272 449.856C394.125 462.606 373.117 471.545 350.419 475.502C336.558 477.918 323.869 467.235 323.869 453.166V323.656L415.401 415.188C425.402 425.189 423.845 441.725 412.272 449.856Z" fill="#FFA43D"/>
<path d="M323.87 344.263C335.249 344.263 344.474 335.038 344.474 323.659C344.474 312.279 335.249 303.055 323.87 303.055C312.49 303.055 303.266 312.279 303.266 323.659C303.266 335.038 312.49 344.263 323.87 344.263Z" fill="#FEE07D"/>
</g>
<defs>
<clipPath id="clip0_627_20016">
<rect width="512" height="512" fill="white"/>
</clipPath>
</defs>
</svg>
