<svg id="Capa_1" enable-background="new 0 0 512 512" height="300" viewBox="0 0 512 512" width="300" xmlns="http://www.w3.org/2000/svg" version="1.1" xmlns:xlink="http://www.w3.org/1999/xlink" xmlns:svgjs="http://svgjs.dev/svgjs"><g width="100%" height="100%" transform="matrix(1,0,0,1,0,0)"><g><path d="m279.716 37.704c-.337-2.573-2.204-4.717-4.706-5.403-21.277-5.84-44.979-1.271-62.863 14.307-19.023 16.569-26.612 41.366-22.123 64.467 22.267 7.618 47.871 3.503 66.893-13.066 17.884-15.577 25.663-38.428 22.799-60.305z" fill="#a4ef89" fill-opacity="1" data-original-color="#80d261ff" stroke="none" stroke-opacity="1"/><path d="m269.721 31.081c-11.414 2.194-22.427 7.345-31.822 15.525-19.017 16.565-26.61 41.362-22.118 64.469 3.049 1.04 6.15 1.865 9.302 2.462-11.682 2.236-23.797 1.391-35.057-2.462-4.492-23.107 3.101-47.903 22.118-64.469 16.411-14.299 37.736-19.316 57.577-15.525z" fill="#87d169" fill-opacity="1" data-original-color="#68ca44ff" stroke="none" stroke-opacity="1"/><path d="m238.891 68.511c-2.721-3.124-7.458-3.451-10.582-.729l-33.421 29.11c.161-25.15-6.58-50.248-19.967-72.082-2.166-3.531-6.784-4.641-10.314-2.474-3.531 2.165-4.639 6.782-2.474 10.313 19.78 32.263 23.279 72.532 9.361 107.723-1.523 3.853.364 8.21 4.216 9.733.905.357 1.838.527 2.756.527 2.987 0 5.811-1.797 6.976-4.743 3.541-8.953 6.069-18.2 7.618-27.567.202-.144.4-.297.591-.463l44.508-38.767c3.125-2.72 3.452-7.458.732-10.581z" fill="#76b75c" fill-opacity="1" data-original-color="#4fc123ff" stroke="none" stroke-opacity="1"/><path d="m233.93 471.562-54.396 18.98c-.879.307-1.836.307-2.715 0l-54.396-18.98c-73.312-25.579-122.423-94.73-122.423-172.376v-45.776c0-69.452 59.621-123.922 128.791-117.662l44.802 4.055c3.049.276 6.117.276 9.167 0l44.802-4.055c69.17-6.26 128.791 48.209 128.791 117.662v45.776c0 77.646-49.111 146.797-122.423 172.376z" fill="#fea95c" fill-opacity="1" data-original-color="#fea95cff" stroke="none" stroke-opacity="1"/><path d="m153.91 473.209c-74.07-25.85-123.69-95.72-123.69-174.17v-46.24c0-58.6 42.01-106.66 96.58-117.21-68.32-5.05-126.8 49.04-126.8 117.82v45.78c0 77.64 49.11 146.79 122.42 172.37l54.4 18.98c.88.31 1.84.31 2.71 0l12.03-4.2z" fill="#fe9738" fill-opacity="1" data-original-color="#fe9738ff" stroke="none" stroke-opacity="1"/><path d="m389.577 471.562-54.396 18.98c-.879.307-1.836.307-2.715 0l-54.396-18.98c-73.311-25.58-122.423-94.731-122.423-172.377v-45.776c0-69.452 59.621-123.922 128.791-117.662l41.883 3.79 7.5 9.995 7.5-9.995 41.889-3.791c69.169-6.258 128.79 48.211 128.79 117.663v45.776c0 77.647-49.111 146.798-122.423 172.377z" fill="#ffefd2" fill-opacity="1" data-original-color="#ffefd2ff" stroke="none" stroke-opacity="1"/><path d="m341.32 139.541v68.56c0 4.14-3.35 7.5-7.5 7.5-4.14 0-7.5-3.36-7.5-7.5v-68.56l2.92.26c3.05.28 6.12.28 9.17 0z" fill="#fe9738" fill-opacity="1" data-original-color="#fe9738ff" stroke="none" stroke-opacity="1"/><path d="m309.56 473.199c-74.07-25.84-123.69-95.71-123.69-174.16v-46.24c0-58.59 41.99-106.64 96.54-117.21-68.3-5.03-126.76 49.05-126.76 117.82v45.78c0 77.64 49.11 146.79 122.42 172.37l54.4 18.98c.87.31 1.83.31 2.71 0l12.03-4.2z" fill="#fee8c7" fill-opacity="1" data-original-color="#fee8c7ff" stroke="none" stroke-opacity="1"/><path d="m330.995 408.207-38.965-38.965c-37.117-37.117-37.117-97.296 0-134.414l38.965-38.965c1.562-1.562 4.095-1.562 5.657 0l38.965 38.965c37.117 37.117 37.117 97.296 0 134.414l-38.965 38.965c-1.562 1.562-4.095 1.562-5.657 0z" fill="#d77f4a" fill-opacity="1" data-original-color="#d77f4aff" stroke="none" stroke-opacity="1"/><path d="m320.15 372.969 25.87 25.87-9.37 9.37c-1.56 1.56-4.09 1.56-5.65 0l-38.97-38.97c-37.12-37.11-37.12-97.29 0-134.41l38.97-38.97c1.56-1.56 4.09-1.56 5.65 0l9.37 9.37-25.87 25.87c-39.17 39.18-39.17 102.7 0 141.87z" fill="#c86d36" fill-opacity="1" data-original-color="#c86d36ff" stroke="none" stroke-opacity="1"/><g fill="#fe9738"><path d="m342.333 254.976c-2.382 0-4.723-1.132-6.179-3.239-2.354-3.409-1.498-8.08 1.911-10.434l5.644-3.896c3.408-2.352 8.08-1.497 10.433 1.91 2.354 3.409 1.498 8.08-1.911 10.434l-5.644 3.896c-1.299.898-2.784 1.329-4.254 1.329z" fill="#fe9738" fill-opacity="1" data-original-color="#fe9738ff" stroke="none" stroke-opacity="1"/><path d="m363.105 281.141c-1.532 0-3.079-.469-4.412-1.44l-5.542-4.04c-3.347-2.44-4.083-7.132-1.643-10.479 2.44-3.346 7.131-4.083 10.479-1.643l5.542 4.04c3.347 2.44 4.083 7.132 1.643 10.479-1.468 2.014-3.751 3.083-6.067 3.083z" fill="#fe9738" fill-opacity="1" data-original-color="#fe9738ff" stroke="none" stroke-opacity="1"/><path d="m312.844 272.128c-.448 0-.903-.04-1.359-.124-4.074-.745-6.772-4.653-6.027-8.728l1.235-6.746c.746-4.074 4.655-6.771 8.728-6.026 4.074.745 6.772 4.653 6.027 8.728l-1.235 6.746c-.663 3.617-3.818 6.15-7.369 6.15z" fill="#fe9738" fill-opacity="1" data-original-color="#fe9738ff" stroke="none" stroke-opacity="1"/><path d="m298.194 309.927c-3.033 0-5.888-1.853-7.02-4.857-1.46-3.876.498-8.202 4.374-9.663l6.417-2.418c3.877-1.461 8.203.499 9.663 4.374 1.46 3.876-.498 8.202-4.374 9.663l-6.417 2.418c-.871.328-1.765.483-2.643.483z" fill="#fe9738" fill-opacity="1" data-original-color="#fe9738ff" stroke="none" stroke-opacity="1"/><path d="m336.443 301.273c-2.947 0-5.741-1.747-6.936-4.641l-2.617-6.339c-1.581-3.828.242-8.213 4.071-9.794 3.83-1.582 8.214.242 9.794 4.071l2.617 6.339c1.581 3.828-.242 8.213-4.071 9.794-.935.388-1.905.57-2.858.57z" fill="#fe9738" fill-opacity="1" data-original-color="#fe9738ff" stroke="none" stroke-opacity="1"/><path d="m362.503 321.645c-.449 0-.903-.04-1.36-.124-4.074-.746-6.772-4.653-6.026-8.728l1.235-6.746c.746-4.075 4.657-6.775 8.729-6.026 4.074.746 6.772 4.653 6.026 8.728l-1.235 6.746c-.663 3.618-3.818 6.15-7.369 6.15z" fill="#fe9738" fill-opacity="1" data-original-color="#fe9738ff" stroke="none" stroke-opacity="1"/><path d="m346.913 351.333c-3.032 0-5.887-1.852-7.02-4.856-1.461-3.876.497-8.202 4.373-9.663l6.417-2.419c3.876-1.465 8.203.496 9.664 4.372s-.497 8.202-4.373 9.663l-6.417 2.419c-.871.328-1.765.484-2.644.484z" fill="#fe9738" fill-opacity="1" data-original-color="#fe9738ff" stroke="none" stroke-opacity="1"/><path d="m317.449 336.592c-1.169 0-2.354-.274-3.462-.853-3.673-1.916-5.097-6.446-3.181-10.118l3.172-6.08c1.916-3.673 6.446-5.097 10.118-3.181 3.673 1.916 5.097 6.446 3.181 10.118l-3.172 6.08c-1.338 2.566-3.951 4.034-6.656 4.034z" fill="#fe9738" fill-opacity="1" data-original-color="#fe9738ff" stroke="none" stroke-opacity="1"/><path d="m330.296 372.884c-1.551 0-3.114-.479-4.456-1.472l-5.512-4.08c-3.33-2.465-4.031-7.161-1.566-10.49s7.162-4.03 10.49-1.566l5.512 4.08c3.33 2.465 4.031 7.161 1.566 10.49-1.471 1.987-3.738 3.038-6.034 3.038z" fill="#fe9738" fill-opacity="1" data-original-color="#fe9738ff" stroke="none" stroke-opacity="1"/></g></g></g></svg>