<svg id="icons" height="300" viewBox="0 0 340 340" width="300" xmlns="http://www.w3.org/2000/svg" version="1.1" xmlns:xlink="http://www.w3.org/1999/xlink" xmlns:svgjs="http://svgjs.dev/svgjs"><g width="100%" height="100%" transform="matrix(1,0,0,1,0,0)"><path d="m263.78 128.773 56.388 44.944a61.059 61.059 0 0 1 1.509 11.717c1.131 32.815-17.321 57.521-30.321 70.756a101.662 101.662 0 0 0 -18.385 26.038c-3.4 6.835-8.352 14.8-15.136 21.267a32.445 32.445 0 0 1 -46.642-1.791c-5.068-5.663-10.28-13.7-14.978-25.113 0 0-1.753-3.563-4.771-8.841-19.633-96.64 16.72-128.886 72.336-138.977z" fill="#f44d62" fill-opacity="1" data-original-color="#f7616cff" stroke="none" stroke-opacity="1"/><path d="m255.037 129.554-49.471 4.42-12.036 1.076c-39.975 17.642-25.383 100.642-25.383 100.642 9.765 9.765 18.279 23.282 23.3 32.058a263.273 263.273 0 0 1 9.088-54.065 137.236 137.236 0 0 1 5.884-16.988c4.718-11.1 8.2-22.049 8.561-30.751.046-1.088.013-2.349-.066-3.659a12.6 12.6 0 0 1 11.364-13.311c8.615-.786 19.377 1.059 24.5 13.206a48.531 48.531 0 0 1 3.023 28.472 2.564 2.564 0 0 0 4.1 2.544 106.9 106.9 0 0 0 13.537-12.844z" fill="#b22736" fill-opacity="1" data-original-color="#b73d49ff" stroke="none" stroke-opacity="1"/><path d="m270.528 130.036.9 19.237s17.248-.648 27.6 14.453a22.448 22.448 0 0 0 11.845 9.036 24.874 24.874 0 0 0 9.279.957c-7.038-30.31-36.245-40.545-49.624-43.683z" fill="#b22736" fill-opacity="1" data-original-color="#b73d49ff" stroke="none" stroke-opacity="1"/><path d="m268.65 66.038 6.181 10.874a15.474 15.474 0 0 1 -1.186 17.188c-5.1 6.49-11.23 17.725-11.867 34.673h-12.858s-7.98-43.006 19.73-62.735z" fill="#c3d88e" fill-opacity="1" data-original-color="#a9db89ff" stroke="none" stroke-opacity="1"/><path d="m262.473 123.31a13.5 13.5 0 0 1 -11.316-1.814c-7.34-5.05-21.954-12.583-38.24-7.075-21.95 7.425-16.564 19.71-37 17.7a2.252 2.252 0 0 0 -2.082 3.515c2.581 3.634 8.048 8.341 18.962 8.016a37.215 37.215 0 0 0 11.456-2.279c12-4.311 56.236-16.336 63.466 37.547a2.258 2.258 0 0 0 3.716 1.429c5.159-4.522 13.765-16.178 5.452-39.86 0 0 18.406-.276 29.118 14.57 4.57 6.334 12.721 9.275 20.033 6.527a17.157 17.157 0 0 0 7.962-6.222 1.932 1.932 0 0 0 -1.72-3.059c-4.332.272-11.6-1.819-19.529-14.9-.002.002-15.605-23.862-50.278-14.095z" fill="#c3d88e" fill-opacity="1" data-original-color="#a9db89ff" stroke="none" stroke-opacity="1"/><path d="m229.191 194.236a3.552 3.552 0 0 1 -.383-.021 3.491 3.491 0 0 1 -3.092-3.849 33.231 33.231 0 0 1 .941-4.972 3.491 3.491 0 1 1 6.743 1.806 26.707 26.707 0 0 0 -.744 3.923 3.493 3.493 0 0 1 -3.465 3.113z" fill="#b22736" fill-opacity="1" data-original-color="#b73d49ff" stroke="none" stroke-opacity="1"/><path d="m245.974 218.74c-.053 0-.106 0-.158 0a3.491 3.491 0 0 1 -3.333-3.643 26.475 26.475 0 0 1 .483-3.967 3.492 3.492 0 0 1 6.851 1.358 19.5 19.5 0 0 0 -.359 2.919 3.491 3.491 0 0 1 -3.484 3.333z" fill="#b22736" fill-opacity="1" data-original-color="#b73d49ff" stroke="none" stroke-opacity="1"/><path d="m265.385 239.376c-.08 0-.16 0-.241-.008a3.492 3.492 0 0 1 -3.247-3.721c.066-.969.175-2.076.324-3.292a3.491 3.491 0 1 1 6.931.848c-.132 1.077-.231 2.086-.287 2.919a3.493 3.493 0 0 1 -3.48 3.254z" fill="#b22736" fill-opacity="1" data-original-color="#b73d49ff" stroke="none" stroke-opacity="1"/><path d="m241.752 256.857a3.493 3.493 0 0 1 -3.471-3.152 16.778 16.778 0 0 1 .077-3.625 3.492 3.492 0 0 1 6.933.838 9.973 9.973 0 0 0 -.06 2.106 3.493 3.493 0 0 1 -3.135 3.816c-.115.011-.23.017-.344.017z" fill="#b22736" fill-opacity="1" data-original-color="#b73d49ff" stroke="none" stroke-opacity="1"/><path d="m220.242 272.653a3.5 3.5 0 0 1 -3.422-2.815 29.024 29.024 0 0 1 -.506-4.111 3.491 3.491 0 1 1 6.973-.361 22.105 22.105 0 0 0 .384 3.117 3.495 3.495 0 0 1 -3.429 4.17z" fill="#b22736" fill-opacity="1" data-original-color="#b73d49ff" stroke="none" stroke-opacity="1"/><path d="m219.145 234.319a3.492 3.492 0 0 1 -3.476-3.2 22.929 22.929 0 0 1 .317-5.627 3.491 3.491 0 1 1 6.886 1.159 16.179 16.179 0 0 0 -.243 3.888 3.492 3.492 0 0 1 -3.19 3.769c-.098.008-.197.011-.294.011z" fill="#b22736" fill-opacity="1" data-original-color="#b73d49ff" stroke="none" stroke-opacity="1"/><path d="m192.8 143.657a37.221 37.221 0 0 0 11.456-2.279c1.287-.462 2.946-1.013 4.888-1.562a55.16 55.16 0 0 0 -12.478-15.724c-5.381 5.109-8.2 9.264-20.746 8.034a2.252 2.252 0 0 0 -2.082 3.515c2.576 3.634 8.043 8.341 18.962 8.016z" fill="#6a875d" fill-opacity="1" data-original-color="#719b56ff" stroke="none" stroke-opacity="1"/><path d="m21.448 144.128c-6.229 11.041-10.579 24.738-11.243 41.665 0 0-1.015 36.177 27.877 59.169a240.453 240.453 0 0 1 34.624 33.745c8.712 10.4 20.181 22.068 33.034 30 19.568 12.085 45.439 6.661 57.573-12.878a61.766 61.766 0 0 0 6.507-14.682s7.553-25.979 10.4-51.351a148.382 148.382 0 0 1 8-33.591c5.951-16.557 10.859-43.935-8.312-67.437a72.814 72.814 0 0 0 -16.918-15.125c-53.47-6.056-101.578 1.714-141.542 30.485z" fill="#f44d62" fill-opacity="1" data-original-color="#f7616cff" stroke="none" stroke-opacity="1"/><path d="m162.986 113.655c-35.264-22.865-83.186-12.841-83.186-12.841s-38.6 8.332-58.344 43.319c9.472-1.348 21.739-3.941 28.988-8.8 0 0-1.51 8.656-6.95 15a2.366 2.366 0 0 0 2.234 3.866c8.787-1.7 22.731-6.443 32.645-19.7a19.737 19.737 0 0 1 21.377-6.931c17.913 5.253 47.813 9.438 63.236-13.913z" fill="#b22736" fill-opacity="1" data-original-color="#b73d49ff" stroke="none" stroke-opacity="1"/><path d="m86.013 24.885 7.493 9.877a9.36 9.36 0 0 1 .574 10.391c-4.572 7.832-11.247 24.962-4.8 51.986l-12.588 4.64s-27.492-45.073 9.321-76.894z" fill="#c3d88e" fill-opacity="1" data-original-color="#a9db89ff" stroke="none" stroke-opacity="1"/><path d="m81.661 92.974s-29.1-9.267-46.81 8.578c-13.674 13.774-19.645 24.068-28.063 27.562a1.914 1.914 0 0 0 .4 3.64c1.642.322 3.464.615 5.419.828 0 0 15.624 1.669 33.516-8.732 0 0 2.2 11.2-3.807 17.615a1.776 1.776 0 0 0 1.384 3.021c5.809-.408 15.5-3.716 22.445-19.6 10.537-24.109 35.822-13.326 35.822-13.326s36.9 15.951 52.528-11.422a1.844 1.844 0 0 0 -2.164-2.671 31.276 31.276 0 0 1 -25.564-2.967c5.964-3.536 10.605-7.734 12.882-13.116a26.729 26.729 0 0 0 .449-9.026 1.842 1.842 0 0 0 -3.27-.976c-2.454 3.03-7.054 6.82-15.044 7.685-13.772 1.495-27.793-3.625-40.123 12.907z" fill="#c3d88e" fill-opacity="1" data-original-color="#a9db89ff" stroke="none" stroke-opacity="1"/><path d="m139.645 82.386c-4.705 6.407-12.7 4.777-22.547 4.156-8.85-.557-11.635 4.725-12.511 8.014a.871.871 0 0 0 1.371.917c3.176-2.418 10.483-6.1 20.809.03a17.5 17.5 0 0 0 12.878-13.117z" fill="#6a875d" fill-opacity="1" data-original-color="#719b56ff" stroke="none" stroke-opacity="1"/><g fill="#b73d49"><path d="m36.545 191.183a3.492 3.492 0 0 1 -3.485-3.317c-.156-3.152-.007-7.412 0-7.592a3.492 3.492 0 0 1 6.98.249c0 .041-.146 4.144 0 6.994a3.493 3.493 0 0 1 -3.314 3.662c-.063.003-.126.004-.181.004z" fill="#b22736" fill-opacity="1" data-original-color="#b73d49ff" stroke="none" stroke-opacity="1"/><path d="m69.365 183.891a3.492 3.492 0 0 1 -3.393-2.683 30.477 30.477 0 0 1 -.7-7.5 3.491 3.491 0 0 1 6.976.312 23.536 23.536 0 0 0 .515 5.571 3.495 3.495 0 0 1 -3.4 4.3z" fill="#b22736" fill-opacity="1" data-original-color="#b73d49ff" stroke="none" stroke-opacity="1"/><path d="m103.667 175.846a3.493 3.493 0 0 1 -3.325-2.428 36.266 36.266 0 0 1 -1.391-7.488 3.491 3.491 0 0 1 6.966-.485 29.413 29.413 0 0 0 1.077 5.845 3.494 3.494 0 0 1 -3.327 4.556z" fill="#b22736" fill-opacity="1" data-original-color="#b73d49ff" stroke="none" stroke-opacity="1"/><path d="m56.409 223.051a3.488 3.488 0 0 1 -3.034-1.76 29.284 29.284 0 0 1 -2.871-8.068 3.491 3.491 0 0 1 6.865-1.277 22.293 22.293 0 0 0 2.069 5.881 3.492 3.492 0 0 1 -3.029 5.224z" fill="#b22736" fill-opacity="1" data-original-color="#b73d49ff" stroke="none" stroke-opacity="1"/><path d="m94.317 214.627a3.494 3.494 0 0 1 -3.271-2.266 26.787 26.787 0 0 1 -1.671-7.443 3.492 3.492 0 0 1 6.975-.361 20.485 20.485 0 0 0 1.235 5.352 3.494 3.494 0 0 1 -3.268 4.718z" fill="#b22736" fill-opacity="1" data-original-color="#b73d49ff" stroke="none" stroke-opacity="1"/><path d="m132.663 205.912a3.491 3.491 0 0 1 -3.2-2.092 38.412 38.412 0 0 1 -1.968-6.671 3.491 3.491 0 0 1 6.847-1.37 31.969 31.969 0 0 0 1.518 5.241 3.492 3.492 0 0 1 -3.2 4.892z" fill="#b22736" fill-opacity="1" data-original-color="#b73d49ff" stroke="none" stroke-opacity="1"/><path d="m86.329 252.536a3.482 3.482 0 0 1 -2.7-1.272 19.393 19.393 0 0 1 -3.493-7.805 3.491 3.491 0 0 1 6.855-1.329 12.482 12.482 0 0 0 2.029 4.695 3.492 3.492 0 0 1 -2.694 5.711z" fill="#b22736" fill-opacity="1" data-original-color="#b73d49ff" stroke="none" stroke-opacity="1"/><path d="m120.608 242.079a3.493 3.493 0 0 1 -3.2-2.094 63.026 63.026 0 0 1 -2.186-6.23 3.492 3.492 0 0 1 6.7-1.957 56.115 56.115 0 0 0 1.881 5.389 3.493 3.493 0 0 1 -3.2 4.892z" fill="#b22736" fill-opacity="1" data-original-color="#b73d49ff" stroke="none" stroke-opacity="1"/><path d="m113.636 280.279a3.481 3.481 0 0 1 -2.728-1.311 18.478 18.478 0 0 1 -3.609-7.484 3.491 3.491 0 0 1 6.855-1.329 11.9 11.9 0 0 0 2.206 4.451 3.492 3.492 0 0 1 -2.724 5.673z" fill="#b22736" fill-opacity="1" data-original-color="#b73d49ff" stroke="none" stroke-opacity="1"/></g><path d="m52 104.866c-20.011 7.916-20.118 27.11-39.389 28.714 9.723 1.06 22.754.165 33.515-8.73a21.5 21.5 0 0 1 7-17.865c.994-.877.108-2.607-1.126-2.119z" fill="#6a875d" fill-opacity="1" data-original-color="#719b56ff" stroke="none" stroke-opacity="1"/><ellipse cx="157.816" cy="163.023" fill="#ffe5e5" rx="11.521" ry="14.373" transform="matrix(.974 -.228 .228 .974 -32.967 40.206)" fill-opacity="1" data-original-color="#ffe9e9ff" stroke="none" stroke-opacity="1"/><ellipse cx="288.449" cy="199.443" fill="#ffe5e5" rx="9.426" ry="11.759" fill-opacity="1" data-original-color="#ffe9e9ff" stroke="none" stroke-opacity="1"/></g></svg>