<svg width="145" height="144" viewBox="0 0 145 144" fill="none" xmlns="http://www.w3.org/2000/svg">
<g clip-path="url(#clip0_584_6419)">
<path d="M144.779 -0.167969H0.445312V144.165H144.779V-0.167969Z" fill="#F5A38B"/>
<path d="M144.111 0H0.111328V144H144.111V0Z" fill="#D77F76"/>
<path d="M144.5 0H0.5V144H144.5V0Z" fill="#BF8258"/>
<path d="M70.2211 97.4961C70.8322 98.2739 71.4433 99.0516 72.11 99.8294C72.11 100.496 72.11 101.163 72.11 101.829C71.7766 101.218 71.3878 100.663 71.0544 100.052C70.9989 99.9405 70.8878 99.8294 70.8322 99.7183C70.8322 99.8294 70.7766 99.9961 70.7766 100.107C70.7766 100.163 70.7766 100.163 70.7766 100.218C70.5544 101.052 70.3322 101.885 70.11 102.663C69.9433 101.885 69.8322 101.107 69.6655 100.329C69.6655 100.218 69.61 100.052 69.61 99.9405C69.5544 100.052 69.4433 100.163 69.3878 100.274C69.11 100.885 68.8322 101.552 68.4989 102.163C68.3322 102.441 67.9989 102.607 67.7766 102.829C67.7211 102.496 67.61 102.163 67.6655 101.829C67.7766 101.274 67.9433 100.774 68.11 100.218C68.11 100.163 68.1655 100.052 68.1655 99.9961C68.7211 99.2183 69.2211 98.385 69.8322 97.6072C69.7766 97.5516 70.0544 97.5516 70.2211 97.4961Z" fill="#090605"/>
<path d="M77.1094 50.6641C78.9983 48.2752 80.9427 45.7752 84.2205 45.4974C87.1649 45.2752 90.2205 45.6085 93.2205 45.6641C96.776 45.7196 98.776 48.2752 101.165 50.3863C103.998 52.8863 105.22 56.1085 105.665 59.553C106.22 63.8863 105.832 68.2196 103.998 72.2752C102.72 75.1085 101.22 77.8863 100.054 80.7752C99.0538 83.2196 98.6094 85.8307 97.6094 88.2752C95.6649 93.1641 92.4427 97.1641 88.3316 100.442C85.2205 102.886 81.6649 102.997 77.9983 102.997C78.7205 102.109 79.776 101.331 80.0538 100.275C80.8316 97.3308 81.3316 94.3307 81.8316 91.3307C82.9983 84.053 84.1649 76.7752 85.2205 69.4419C85.9983 64.1641 86.5538 58.8863 85.276 53.553C84.8316 51.6641 82.776 49.8308 80.8316 49.9974C79.6094 50.2196 78.3872 50.4974 77.1094 50.6641Z" fill="#AF1F29"/>
<path d="M61.6098 102.273C58.1098 102.384 54.9431 101.662 53.1098 98.3842C51.9987 96.3287 51.3876 93.9953 50.4987 91.7731C48.832 87.662 47.3876 83.4398 45.3876 79.5509C43.9431 76.7175 42.1098 73.9953 41.6654 70.8842C41.2209 67.2731 41.332 63.5509 41.4431 59.8842C41.6098 55.662 44.2209 52.4953 47.1098 49.9398C51.1654 46.3287 55.9987 44.2175 61.6654 46.3287C62.1654 46.4953 62.6098 46.8842 63.0542 47.162C62.9431 47.2175 62.8876 47.2731 62.7765 47.2731C59.3876 48.1064 57.2765 50.2731 56.6654 53.7175C56.2765 55.8286 56.2765 57.9398 56.0542 60.0509C55.6098 64.3842 54.8876 68.7175 54.832 73.0509C54.7765 77.4398 55.4987 81.8286 55.6654 86.2175C55.832 90.162 56.832 93.8842 58.3876 97.4953C59.2765 99.2731 60.5542 100.718 61.6098 102.273Z" fill="#AF1F29"/>
<path d="M61.6092 102.274C60.5536 100.719 59.2758 99.2743 58.498 97.5521C56.9425 93.9965 55.9425 90.2743 55.7758 86.2743C55.6092 81.8854 54.8869 77.4965 54.9425 73.1076C54.998 68.7743 55.7203 64.441 56.1647 60.1076C56.3869 57.9965 56.3869 55.8299 56.7758 53.7743C57.3869 50.3854 59.4981 48.1632 62.8869 47.3299C62.998 47.3299 63.1092 47.2743 63.1647 47.2188C64.9425 48.0521 66.4425 49.2188 67.4425 51.0521C68.3314 52.8299 69.3869 54.4965 70.3314 56.2187C70.3869 56.3299 70.498 56.3854 70.5536 56.441C70.6092 56.4965 70.6092 56.6076 70.6647 56.6632C71.3314 57.7187 71.998 58.8299 72.6647 59.8854C72.6647 61.941 72.6647 63.941 72.6647 65.9965C71.498 66.3299 70.6092 66.1632 69.998 64.8854C69.4425 63.7188 68.9425 62.2743 67.2203 62.3299C65.3314 62.3854 62.8314 64.441 62.3314 66.6632C61.4425 70.7743 60.7758 74.8854 61.4425 79.0521C61.7758 81.2743 62.498 83.3854 64.3869 84.7187C65.998 85.8854 67.8314 86.8299 69.5536 87.8299C69.6647 87.8854 69.9425 87.7187 70.1092 87.6632C70.1647 90.8854 70.1647 94.1632 70.2203 97.3854C70.0536 97.441 69.7758 97.441 69.7203 97.5521C69.1647 98.3299 68.6092 99.1632 68.0536 99.941C68.0536 99.9965 67.998 100.108 67.998 100.163C67.3869 100.663 66.8314 101.385 66.1647 101.552C64.7203 102.052 63.1647 102.108 61.6092 102.274Z" fill="#FAC79E"/>
<path d="M72.5538 66.0538C72.5538 63.9983 72.5538 61.9983 72.5538 59.9427C72.7205 59.7761 72.8872 59.5538 72.9983 59.3872C73.3316 59.0538 74.3871 57.4427 74.4983 56.1094C74.6649 53.9983 75.776 52.1649 77.0538 50.6649C78.3316 50.4427 79.5538 50.1649 80.8316 50.0538C82.776 49.8872 84.776 51.6649 85.276 53.6094C86.5538 58.8872 85.9427 64.2205 85.2205 69.4983C84.1649 76.8316 82.9983 84.1094 81.8316 91.3872C81.3316 94.3872 80.8316 97.3872 80.0538 100.332C79.776 101.332 78.7205 102.165 77.9983 103.054C75.4427 103.054 73.4427 102.054 72.1094 99.8872C71.4983 99.1094 70.8872 98.3316 70.2205 97.5538C70.1649 94.3316 70.1649 91.0538 70.1094 87.8316C70.1649 87.7761 70.1649 87.776 70.2205 87.7205C71.5538 88.1649 72.9427 88.4427 74.2205 89.0538C75.9983 89.8872 77.6094 89.4427 78.276 87.5538C79.1094 85.1649 79.8316 82.7205 80.5538 80.276C81.8316 76.0538 81.5538 71.6649 81.4983 67.3316C81.4983 65.3316 80.5538 63.8316 78.6094 63.3316C76.9427 62.8872 75.3316 63.1094 74.3316 64.8316C73.9983 65.3872 73.3316 65.6649 72.8316 66.1094C72.7205 66.0538 72.6649 66.0538 72.5538 66.0538Z" fill="#FFD4AE"/>
<path d="M71.4991 78.051C71.0547 81.2733 70.388 87.551 70.1102 87.7733C69.7769 88.051 68.9991 87.9399 68.6102 87.9399C66.6658 87.9955 66.0547 87.8844 64.388 86.7177C62.4991 85.3844 61.7213 81.3288 61.388 79.1066C60.7213 74.8844 61.388 70.7733 62.2769 66.7177C62.7769 64.551 65.2214 62.4399 67.1658 62.3844C68.9436 62.3288 69.388 63.7733 69.9436 64.9399C70.5547 66.2177 71.388 66.3844 72.6102 66.051C72.6658 66.051 72.5547 66.051 72.6102 66.051C72.2214 70.551 72.0547 73.6621 71.4991 78.051Z" fill="#E7B084"/>
<path d="M80.5538 80.2755C79.8316 82.72 79.1094 85.1089 78.276 87.5533C77.6094 89.4422 75.9983 89.8866 74.2205 89.0533C72.9427 88.4422 71.4427 88.2755 70.1094 87.8311C70.6094 84.9422 70.9983 80.3311 71.4427 77.5533C72.1094 73.1644 71.9427 71.5533 72.6094 66.1089C73.1094 65.6644 73.9983 65.3866 74.276 64.8311C75.3316 63.1089 76.8872 62.8866 78.5538 63.3311C80.5538 63.8311 81.4427 65.3866 81.4427 67.3311C81.5538 71.6644 81.8316 76.0533 80.5538 80.2755Z" fill="#EFBE97"/>
<path d="M73.9442 57.9429C73.6109 58.6096 72.8887 59.6096 72.5553 59.9429C72.2776 59.7762 72.222 59.054 72.1665 58.8318C71.8331 57.1096 71.6109 55.3873 71.3887 53.7207C72.3331 49.9984 73.1665 46.2762 74.2776 42.6651C75.6665 38.054 78.8331 34.7207 82.722 32.054C83.7776 31.3318 85.1109 31.9984 85.9442 33.4984C86.8331 35.054 85.9998 35.3873 84.722 36.1096C82.6109 37.2762 80.5553 38.7762 78.9998 40.6651C75.7776 44.554 73.6664 49.1096 73.6664 54.3318C73.6664 55.6096 73.8331 56.6096 73.9442 57.9429Z" fill="#321C1C"/>
<path d="M40.4434 27.6106C42.11 30.6661 44.9989 30.2772 47.6656 29.8884C50.4434 29.4439 53.0545 28.3328 55.8322 27.9439C59.3322 27.4439 62.9434 27.1661 66.2767 28.7772C67.4989 29.3884 68.4989 30.7217 69.2767 31.9439C70.4434 33.7772 71.2767 35.8884 70.8878 38.1661C70.61 39.8884 70.0545 41.6106 69.61 43.3328C68.6656 42.055 67.61 40.8328 66.8322 39.4439C64.1656 34.4995 61.2767 33.9439 55.6656 34.4439C52.9434 34.6661 50.0545 34.6106 47.3878 34.1106C45.8878 33.8328 44.7211 32.2217 43.3322 31.2772C41.8878 30.3328 40.7211 29.3328 40.4434 27.6106Z" fill="#789367"/>
<path d="M68.4991 44.0538C66.1658 44.3316 63.7769 44.4427 61.4436 44.9427C59.2213 45.3872 57.5547 44.6649 56.1658 43.0538C54.6658 41.3316 52.7214 40.4427 50.4991 40.0538C48.7214 39.7205 46.8325 39.4427 45.1658 38.7205C42.2214 37.4427 41.6102 34.6094 41.1658 31.776C41.1102 31.5538 40.9991 31.2205 40.7769 31.1094C39.2769 29.9427 39.9436 28.2205 39.5547 26.776C39.5547 26.7205 39.6658 26.6649 39.7769 26.6094C39.9436 26.8316 40.1102 27.1094 40.3325 27.3316C40.2214 27.3872 39.9991 27.4983 39.9991 27.4983C40.1658 28.1094 40.2214 28.9427 40.6102 29.3316C42.4991 31.1649 44.388 32.9983 46.4436 34.6094C48.5547 36.2205 51.1102 35.776 53.5547 35.7205C55.7769 35.6649 57.9436 35.3316 60.1658 35.3872C62.3325 35.3872 63.7213 36.7205 64.7769 38.6094C65.888 40.4983 67.2769 42.2205 68.4991 44.0538Z" fill="#637A54"/>
<path d="M71.3869 53.7209C71.6647 55.4431 71.8869 57.1654 72.1647 58.832C72.2203 59.0543 72.7203 59.2209 72.998 59.3876C72.8314 59.5543 72.6647 59.7765 72.5536 59.9431C71.8869 58.8876 71.2203 57.7765 70.5536 56.7209C70.498 56.6654 70.498 56.5542 70.4425 56.4987C70.2203 53.7209 70.0536 50.8876 69.7203 48.1098C69.5536 46.7209 68.8869 45.3876 68.498 44.0543C67.2203 42.2209 65.8314 40.4987 64.7758 38.6098C63.7203 36.7209 62.3314 35.3876 60.1647 35.3876C57.9425 35.3876 55.7758 35.6654 53.5536 35.7209C51.1092 35.7765 48.5536 36.2209 46.4425 34.6098C44.3869 32.9987 42.498 31.1654 40.6092 29.332C40.2203 28.9431 40.1647 28.1098 39.998 27.4987C39.998 27.4987 40.2203 27.3876 40.3314 27.332C40.3869 27.4431 40.3869 27.5543 40.4425 27.6654C40.7203 29.3876 41.8869 30.3876 43.2203 31.2765C44.6092 32.2209 45.8314 33.7765 47.2758 34.1098C49.9425 34.6654 52.8314 34.7209 55.5536 34.4431C61.1647 33.9431 64.0536 34.4987 66.7203 39.4431C67.498 40.832 68.5536 42.0543 69.498 43.332C71.1092 46.6098 70.998 50.2209 71.3869 53.7209Z" fill="#45543C"/>
<path d="M67.1655 70.776C67.8877 70.3872 69.1099 69.7205 70.2766 69.1094C70.3321 69.1094 70.5543 69.276 70.5543 69.3316C70.1099 70.8316 69.721 72.3316 69.1099 73.776C68.6099 74.8316 67.6655 75.276 66.6655 74.276C65.6655 73.3871 66.0543 72.4427 66.6655 71.4983C66.6099 71.3316 66.721 71.2205 67.1655 70.776Z" fill="#030202"/>
<path d="M69.554 78.556C69.3318 79.2782 69.2207 80.1115 68.8874 80.7782C68.7207 81.1115 68.1096 81.3893 67.7207 81.3338C67.3874 81.2782 66.9985 80.7782 66.8874 80.4449C66.554 78.6115 68.2207 77.6671 68.8318 76.2227C68.8318 76.2227 69.054 76.2782 69.054 76.3338C69.2207 77.0004 69.3874 77.7227 69.554 78.556Z" fill="#030202"/>
<path d="M75.9426 78.5529C76.6093 79.6641 76.7204 80.3307 76.6648 81.1641C76.5537 81.7196 75.887 81.8863 75.4982 81.9974C75.1648 82.1085 74.5537 81.8307 74.3315 81.553C73.1648 79.9974 74.2204 78.3307 74.1093 76.6641C74.1093 76.6641 75.387 77.8307 75.9426 78.5529Z" fill="#030202"/>
<path d="M77.4998 74.6641C75.9998 75.8307 74.4442 74.9974 74.222 73.3307C73.9998 71.8863 73.9998 70.4418 73.8887 68.9974C73.8887 68.8863 73.9998 68.7752 74.1109 68.6641C75.3331 70.2196 77.222 71.1641 77.8331 73.2196C77.8887 73.7196 77.7776 74.3307 77.4998 74.6641Z" fill="#020101"/>
</g>
<defs>
<clipPath id="clip0_584_6419">
<rect width="144" height="144" fill="white" transform="translate(0.5)"/>
</clipPath>
</defs>
</svg>
