<svg width="145" height="144" viewBox="0 0 145 144" fill="none" xmlns="http://www.w3.org/2000/svg">
<g clip-path="url(#clip0_584_6343)">
<path d="M144.165 -2.39062H-2.7793V144.554H144.165V-2.39062Z" fill="#FFF2CF"/>
<path d="M67.8309 34.8906C68.9976 34.8906 70.1643 34.8906 71.3865 34.8906C71.4421 34.9462 71.4976 35.0573 71.5532 35.0573C73.6643 35.1128 75.8309 35.1684 77.9421 35.1684C78.7198 35.1684 79.5532 35.0573 80.2754 35.224C81.9421 35.5017 83.5532 36.0573 85.1643 36.2795C86.9421 36.5017 88.7198 36.6684 90.1087 38.0017C91.8309 39.6128 93.7198 41.1128 95.3865 42.8351C97.0532 44.5017 98.7754 46.1684 100.053 48.1128C103.275 53.0017 104.442 58.7795 106.275 64.224C106.664 65.4462 106.609 66.7795 106.775 68.0573C106.775 68.724 106.775 69.3906 106.775 70.0573C105.998 72.8906 105.442 75.8351 104.442 78.6128C102.886 83.0573 100.553 87.224 97.2754 90.6128C94.9421 93.0017 92.2198 95.1128 89.4976 97.1128C87.7198 98.4462 85.7198 99.7795 83.6087 100.335C80.1087 101.224 76.4421 101.446 72.8309 102.002C71.2198 102.002 69.6087 102.002 67.9976 102.002C65.6643 101.446 63.2754 101.057 61.0532 100.224C56.2198 98.3351 51.4421 96.2795 47.7198 92.4462C45.3865 90.0573 43.1087 87.6128 41.8865 84.3906C41.2754 82.8351 40.7198 81.2795 39.9976 79.7795C38.3309 76.3906 37.1643 72.8351 36.7754 69.0573C36.7754 67.724 36.7754 66.4462 36.7754 65.1128C37.2198 63.8351 37.6643 62.5573 38.0532 61.2795C38.4976 59.724 38.6087 58.0017 39.3865 56.6684C41.3865 53.1684 43.5532 49.724 45.7754 46.3906C46.6087 45.1128 47.9421 44.224 48.8865 43.0017C50.7198 40.6128 53.1087 39.0573 55.8865 38.0017C57.4421 37.3906 59.1087 37.1128 60.7198 36.6684C61.8865 36.3351 62.9976 35.9462 64.1643 35.6128C65.4976 35.3906 66.6643 35.1684 67.8309 34.8906Z" fill="#D26C2E"/>
<path d="M67.8309 34.8906C68.9976 34.8906 70.1643 34.8906 71.3865 34.8906C71.4421 34.9462 71.4976 35.0573 71.5532 35.0573C73.6643 35.1128 75.8309 35.1684 77.9421 35.1684C78.7198 35.1684 79.5532 35.0573 80.2754 35.224C81.9421 35.5017 83.5532 36.0573 85.1643 36.2795C86.9421 36.5017 88.7198 36.6684 90.1087 38.0017C91.8309 39.6128 93.7198 41.1128 95.3865 42.8351C97.0532 44.5017 98.7754 46.1684 100.053 48.1128C103.275 53.0017 104.442 58.7795 106.275 64.224C106.664 65.4462 106.609 66.7795 106.775 68.0573C106.775 68.724 106.775 69.3906 106.775 70.0573C105.998 72.8906 105.442 75.8351 104.442 78.6128C102.886 83.0573 100.553 87.224 97.2754 90.6128C94.9421 93.0017 92.2198 95.1128 89.4976 97.1128C87.7198 98.4462 85.7198 99.7795 83.6087 100.335C80.1087 101.224 76.4421 101.446 72.8309 102.002C71.2198 102.002 69.6087 102.002 67.9976 102.002C65.6643 101.446 63.2754 101.057 61.0532 100.224C56.2198 98.3351 51.4421 96.2795 47.7198 92.4462C45.3865 90.0573 43.1087 87.6128 41.8865 84.3906C41.2754 82.8351 40.7198 81.2795 39.9976 79.7795C38.3309 76.3906 37.1643 72.8351 36.7754 69.0573C36.7754 67.724 36.7754 66.4462 36.7754 65.1128C37.2198 63.8351 37.6643 62.5573 38.0532 61.2795C38.4976 59.724 38.6087 58.0017 39.3865 56.6684C41.3865 53.1684 43.5532 49.724 45.7754 46.3906C46.6087 45.1128 47.9421 44.224 48.8865 43.0017C50.7198 40.6128 53.1087 39.0573 55.8865 38.0017C57.4421 37.3906 59.1087 37.1128 60.7198 36.6684C61.8865 36.3351 62.9976 35.9462 64.1643 35.6128C65.4976 35.3906 66.6643 35.1684 67.8309 34.8906Z" fill="#FF973C"/>
<path d="M72.9418 102.004C72.9418 102.059 72.9418 102.115 72.9418 102.115C71.3307 102.115 69.7196 102.115 68.1641 102.115C68.1641 102.059 68.1641 102.004 68.1641 102.004C69.7196 102.004 71.3307 102.004 72.9418 102.004Z" fill="#DE9A6E"/>
<path d="M36.7763 65.1133C36.8318 65.1133 36.8874 65.1133 36.8874 65.1133C36.8874 66.4466 36.8874 67.7244 36.8874 69.0577C36.8318 69.0577 36.7763 69.0577 36.7207 69.0577C36.7763 67.78 36.7763 66.4466 36.7763 65.1133Z" fill="#DA8B58"/>
<path d="M70.6649 100.336C70.6649 99.9466 70.6094 99.5022 70.6094 99.1133C70.8872 99.1688 71.1094 99.1688 71.3871 99.2244C71.276 99.6133 71.2205 99.9466 71.1094 100.336C70.9427 100.336 70.8316 100.336 70.6649 100.336Z" fill="#9D5325"/>
<path d="M48.9442 50.7812C49.4442 51.559 49.9442 52.0035 49.8886 52.3924C49.8331 52.7813 49.2219 53.1146 48.8886 53.4479C48.5553 53.059 47.9442 52.7257 47.8886 52.3368C47.8331 52.0035 48.3886 51.559 48.9442 50.7812Z" fill="#9D5325"/>
<path d="M44.4993 72.4483C43.8327 72.8927 43.4438 73.3372 43.1105 73.2816C42.7771 73.2261 42.4993 72.7261 42.166 72.3927C42.4993 72.115 42.7771 71.5594 43.1105 71.5594C43.4438 71.5038 43.8327 71.9483 44.4993 72.4483Z" fill="#9D5325"/>
<path d="M70.2217 36.5586C70.555 37.0586 70.9439 37.3919 70.8884 37.6697C70.8328 37.9475 70.4439 38.1697 70.1661 38.3919C69.9439 38.1141 69.4995 37.8919 69.4995 37.6141C69.4439 37.3919 69.8328 37.1141 70.2217 36.5586Z" fill="#9D5325"/>
<path d="M48.8325 83.004C48.3325 83.3374 48.0547 83.6707 47.7214 83.6707C47.4991 83.6707 47.2769 83.2818 47.0547 83.0596C47.3325 82.8374 47.5547 82.4485 47.8325 82.3374C48.0547 82.2818 48.3325 82.6707 48.8325 83.004Z" fill="#9D5325"/>
<path d="M75.5548 41.7799C75.2215 41.2799 74.8326 41.0022 74.8881 40.8355C74.9437 40.5577 75.277 40.2244 75.5548 40.1688C75.7215 40.1133 76.1659 40.5577 76.1659 40.7799C76.2215 41.0022 75.8881 41.2799 75.5548 41.7799Z" fill="#9D5325"/>
<path d="M56.1664 47.0595C55.7219 47.3928 55.4442 47.7817 55.222 47.7261C54.9997 47.7261 54.6664 47.3372 54.6108 47.115C54.5553 46.9484 54.9442 46.5039 55.1664 46.5039C55.3886 46.5039 55.6664 46.7817 56.1664 47.0595Z" fill="#9D5325"/>
<path d="M51.554 92.5577C51.2762 92.1133 50.9985 91.8355 51.054 91.6133C51.1096 91.3911 51.4429 91.1133 51.6651 91.1133C51.8318 91.1133 52.1651 91.5022 52.1651 91.6688C52.1651 91.8911 51.8318 92.1133 51.554 92.5577Z" fill="#9D5325"/>
<path d="M89.1662 82.5024C88.7773 82.7802 88.6107 83.058 88.3885 83.058C88.1662 83.058 87.9996 82.7802 87.7773 82.6135C87.944 82.3913 88.1107 82.1135 88.3329 82.058C88.4996 82.0024 88.7773 82.2802 89.1662 82.5024Z" fill="#9D5325"/>
<path d="M76.1665 44.1688C75.722 44.3911 75.4998 44.5577 75.2776 44.5577C75.1109 44.5577 74.8887 44.2244 74.8887 44.0577C74.8887 43.8911 75.222 43.6133 75.3887 43.6133C75.6109 43.6133 75.7776 43.8355 76.1665 44.1688Z" fill="#9D5325"/>
<path d="M94.9991 42.4485C94.6658 42.6152 94.388 42.893 94.2769 42.8374C94.0547 42.7819 93.8324 42.5041 93.7769 42.2819C93.7213 42.1708 94.1102 41.7819 94.2213 41.8374C94.4436 41.893 94.6658 42.1152 94.9991 42.4485Z" fill="#9D5325"/>
<path d="M59.9982 38.8359C60.2204 39.1693 60.4982 39.3359 60.4982 39.5026C60.4982 39.6693 60.2204 39.947 60.0537 39.947C59.8871 39.947 59.6093 39.6693 59.6093 39.5026C59.4982 39.3915 59.7759 39.1693 59.9982 38.8359Z" fill="#9D5325"/>
<path d="M86.2773 98.6706C86.0551 98.3372 85.7773 98.1706 85.7773 98.0039C85.8329 97.8372 86.0551 97.6706 86.2218 97.5039C86.3885 97.6706 86.6662 97.7817 86.6662 97.9484C86.6662 98.115 86.444 98.3372 86.2773 98.6706Z" fill="#9D5325"/>
<path d="M55.4438 96.3377C55.2216 96.0599 54.9438 95.8932 54.9994 95.7266C55.0549 95.5599 55.2772 95.3932 55.4438 95.2266C55.6105 95.3932 55.8327 95.5043 55.8327 95.7266C55.8883 95.8932 55.666 96.0599 55.4438 96.3377Z" fill="#9D5325"/>
<path d="M62.2222 89.7813C61.8333 90.0035 61.6667 90.2257 61.5 90.2257C61.3333 90.1701 61.1667 89.8924 61 89.7257C61.1667 89.559 61.3333 89.3368 61.5 89.2812C61.6667 89.2812 61.8333 89.5035 62.2222 89.7813Z" fill="#9D5325"/>
<path d="M62.7205 41.7795C62.4427 42.0017 62.276 42.224 62.1094 42.224C61.9427 42.224 61.776 42.0017 61.6094 41.8351C61.776 41.6684 61.8872 41.4462 62.0538 41.3906C62.2205 41.3906 62.4427 41.6128 62.7205 41.7795Z" fill="#9D5325"/>
<path d="M79.4985 37.2266C79.7207 37.5043 79.8874 37.671 79.8874 37.8377C79.8874 38.0043 79.6652 38.171 79.4985 38.2821C79.3318 38.1155 79.1096 38.0043 79.0541 37.7821C78.9985 37.671 79.2763 37.5043 79.4985 37.2266Z" fill="#9D5325"/>
<path d="M52.611 41.2248C52.3887 41.3915 52.2221 41.6137 52.111 41.6137C51.9443 41.6137 51.6665 41.3359 51.7221 41.2804C51.7776 41.1137 51.9443 40.8915 52.111 40.8359C52.1665 40.8359 52.3887 41.0582 52.611 41.2248Z" fill="#9D5325"/>
<path d="M68.3869 41.003C68.2203 40.7808 67.998 40.6142 67.998 40.503C67.998 40.3364 68.2203 40.2253 68.3314 40.0586C68.498 40.1697 68.7203 40.2808 68.7758 40.4475C68.8314 40.5586 68.6092 40.7253 68.3869 41.003Z" fill="#9D5325"/>
<path d="M48.5 89.1701C48.2222 89.3368 48.0556 89.5035 47.8889 89.5035C47.7222 89.5035 47.6111 89.2257 47.5 89.1146C47.6667 89.0035 47.7778 88.7812 47.9444 88.7812C48.0556 88.7812 48.2222 88.9479 48.5 89.1701Z" fill="#9D5325"/>
<path d="M55.6094 58.3928C55.3316 58.5595 55.1649 58.7817 55.0538 58.7261C54.8872 58.7261 54.776 58.5039 54.6094 58.3928C54.776 58.2261 54.8872 58.0039 55.0538 58.0039C55.1649 58.0039 55.3316 58.2261 55.6094 58.3928Z" fill="#9D5325"/>
<path d="M50.2218 43.168C50.3885 43.4457 50.6107 43.6124 50.5551 43.7235C50.4996 43.8902 50.2773 44.0569 50.1107 44.1124C49.9996 44.1124 49.7773 43.8346 49.7773 43.7235C49.7773 43.5013 50.0551 43.3902 50.2218 43.168Z" fill="#9D5325"/>
<path d="M85.6651 68.5577C85.4429 68.3355 85.2207 68.1688 85.2207 68.0577C85.2763 67.8911 85.4985 67.6688 85.6651 67.6133C85.7763 67.6133 85.9985 67.8355 86.054 67.9466C86.054 68.1688 85.8318 68.3355 85.6651 68.5577Z" fill="#9D5325"/>
<path d="M66.4436 98.0039C66.6102 98.2261 66.8325 98.3928 66.8325 98.5039C66.8325 98.6706 66.6102 98.7817 66.4991 98.9484C66.3325 98.8372 66.1102 98.7261 66.0547 98.5595C66.0547 98.4484 66.2769 98.2817 66.4436 98.0039Z" fill="#9D5325"/>
<path d="M41.9436 80.1133C42.1102 80.3911 42.2769 80.5577 42.2769 80.7244C42.2769 80.8355 42.0547 80.9466 41.888 81.0577C41.7769 80.8911 41.6102 80.78 41.5547 80.6133C41.5547 80.5022 41.7214 80.3911 41.9436 80.1133Z" fill="#9D5325"/>
<path d="M69.8312 33.2242C69.8312 32.2797 69.9423 31.3353 69.8312 30.3909C69.609 28.7797 70.109 28.2242 71.7201 28.5575C71.8868 29.1131 72.109 29.6686 72.2756 30.2797C72.2756 32.4464 72.109 34.5575 72.3312 36.7242C72.4979 38.4464 71.4979 38.0575 70.609 38.0575C70.2756 36.3909 70.0534 34.7797 69.8312 33.2242Z" fill="#5D6D4D"/>
<path d="M80.5556 27.0009C84.3889 28.3898 88.1667 29.8342 92 31.2231C92.2222 31.2786 92.3889 31.3342 92.6111 31.3898C92.4445 31.5009 92.2778 31.612 92.1111 31.6675C89.6667 32.4453 87.2222 33.7231 84.7222 33.8898C81.5 34.0564 78.2222 33.3898 74.9444 33.0009C74.4444 32.9453 73.8889 32.5009 73.5 32.1675C73.1111 31.7786 72.8333 31.2231 72.5 30.7231C72.9444 30.5009 73.4444 30.2786 73.9444 30.0564C74.0556 30.0009 74.1111 30.0564 74.2222 30.0009C76.2222 29.0009 78.1667 27.9453 80.1667 26.9453C80.2778 27.0009 80.4444 27.0009 80.5556 27.0009Z" fill="#76945A"/>
<path d="M89.1103 32.0575C87.6658 31.5575 85.7214 30.5575 83.7214 30.4464C81.6658 30.3352 79.6103 31.1686 77.4991 31.3908C75.888 31.613 74.2214 31.7797 72.6658 31.5575C71.888 31.4464 71.2769 30.2797 70.6658 29.5019C70.5547 29.3908 70.6658 28.8908 70.8325 28.8353C71.0547 28.7241 71.4992 28.7241 71.6103 28.8908C73.4992 32.0019 76.2769 31.0019 78.7769 30.2241C81.7214 29.2797 84.388 30.1686 87.1658 30.8908C88.2769 31.1686 89.4436 31.3908 90.6103 31.6686C90.8325 31.7241 91.0547 31.7241 91.2769 31.7241C91.0547 31.8352 90.8325 31.9464 90.5547 31.9464C90.3325 32.0019 89.9992 32.0019 89.1103 32.0575Z" fill="#667557"/>
</g>
<defs>
<clipPath id="clip0_584_6343">
<rect width="144" height="144" fill="white" transform="translate(0.0546875)"/>
</clipPath>
</defs>
</svg>
